<svg width="400" height="63" viewBox="0 0 400 63" fill="none" xmlns="http://www.w3.org/2000/svg">
<path d="M0 0.0508827L274.048 0.223364L276.845 1.73214L280.821 3.31616L286.616 4.57277L293.101 4.98648L299.687 4.5197L306.913 3.65027L309.717 2.49877L312.521 1.34727L319.208 -1.30664e-05L400 0.0508827V63H0V0.0508827Z" fill="url(#paint0_linear_240_2)"/>
<mask id="mask0_240_2" style="mask-type:alpha" maskUnits="userSpaceOnUse" x="0" y="0" width="400" height="63">
<path d="M0 0.274258L274.048 0.44504L276.845 1.93895L280.821 3.50737L286.616 4.75159L293.101 5.16123L299.687 4.69905L306.913 3.83819L312.521 1.55787L319.208 0.223864L400 0.274258V62.6032H0V0.274258Z" fill="url(#paint1_linear_240_2)"/>
</mask>
<g mask="url(#mask0_240_2)">
<g filter="url(#filter0_f_240_2)">
<ellipse rx="19.5017" ry="45.1918" transform="matrix(0.82829 0.560299 -0.777767 0.628553 317.211 -23.6133)" fill="#542800"/>
</g>
<g filter="url(#filter1_f_240_2)">
<ellipse rx="19.5017" ry="45.1918" transform="matrix(0.82829 0.560299 -0.777767 0.628553 299.897 -17.6814)" fill="#C96101" fill-opacity="0.5"/>
</g>
</g>
<path d="M116.887 33.15C119.403 33.15 121.387 33.8917 122.837 35.375C124.287 36.8583 125.012 38.9917 125.012 41.775C125.012 43.775 124.62 45.5 123.837 46.95C123.07 48.3833 121.978 49.475 120.562 50.225C119.162 50.975 117.537 51.35 115.687 51.35C114.703 51.35 113.762 51.2333 112.862 51C111.962 50.7833 111.195 50.475 110.562 50.075L112.362 46.525C113.212 47.125 114.287 47.425 115.587 47.425C116.837 47.425 117.845 47.0833 118.612 46.4C119.395 45.7 119.853 44.6917 119.987 43.375C118.987 44.225 117.678 44.65 116.062 44.65C114.962 44.65 113.953 44.425 113.037 43.975C112.12 43.5083 111.387 42.8583 110.837 42.025C110.303 41.175 110.037 40.2083 110.037 39.125C110.037 37.9417 110.337 36.9 110.937 36C111.553 35.0833 112.378 34.3833 113.412 33.9C114.462 33.4 115.62 33.15 116.887 33.15ZM117.237 41.1C117.953 41.1 118.537 40.9 118.987 40.5C119.437 40.0833 119.662 39.5417 119.662 38.875C119.662 38.225 119.437 37.7 118.987 37.3C118.553 36.8833 117.962 36.675 117.212 36.675C116.512 36.675 115.937 36.875 115.487 37.275C115.053 37.675 114.837 38.2167 114.837 38.9C114.837 39.5667 115.053 40.1 115.487 40.5C115.937 40.9 116.52 41.1 117.237 41.1ZM133.947 51.35C132.447 51.35 131.114 50.9917 129.947 50.275C128.78 49.5583 127.864 48.5167 127.197 47.15C126.547 45.7667 126.222 44.1333 126.222 42.25C126.222 40.3667 126.547 38.7417 127.197 37.375C127.864 35.9917 128.78 34.9417 129.947 34.225C131.114 33.5083 132.447 33.15 133.947 33.15C135.43 33.15 136.755 33.5083 137.922 34.225C139.089 34.9417 139.997 35.9917 140.647 37.375C141.314 38.7417 141.647 40.3667 141.647 42.25C141.647 44.1333 141.314 45.7667 140.647 47.15C139.997 48.5167 139.089 49.5583 137.922 50.275C136.755 50.9917 135.43 51.35 133.947 51.35ZM133.947 47.3C134.78 47.3 135.439 46.9 135.922 46.1C136.422 45.2833 136.672 44 136.672 42.25C136.672 40.5 136.422 39.225 135.922 38.425C135.439 37.6083 134.78 37.2 133.947 37.2C133.097 37.2 132.422 37.6083 131.922 38.425C131.439 39.225 131.197 40.5 131.197 42.25C131.197 44 131.439 45.2833 131.922 46.1C132.422 46.9 133.097 47.3 133.947 47.3ZM150.561 51.35C149.061 51.35 147.728 50.9917 146.561 50.275C145.395 49.5583 144.478 48.5167 143.811 47.15C143.161 45.7667 142.836 44.1333 142.836 42.25C142.836 40.3667 143.161 38.7417 143.811 37.375C144.478 35.9917 145.395 34.9417 146.561 34.225C147.728 33.5083 149.061 33.15 150.561 33.15C152.045 33.15 153.37 33.5083 154.536 34.225C155.703 34.9417 156.611 35.9917 157.261 37.375C157.928 38.7417 158.261 40.3667 158.261 42.25C158.261 44.1333 157.928 45.7667 157.261 47.15C156.611 48.5167 155.703 49.5583 154.536 50.275C153.37 50.9917 152.045 51.35 150.561 51.35ZM150.561 47.3C151.395 47.3 152.053 46.9 152.536 46.1C153.036 45.2833 153.286 44 153.286 42.25C153.286 40.5 153.036 39.225 152.536 38.425C152.053 37.6083 151.395 37.2 150.561 37.2C149.711 37.2 149.036 37.6083 148.536 38.425C148.053 39.225 147.811 40.5 147.811 42.25C147.811 44 148.053 45.2833 148.536 46.1C149.036 46.9 149.711 47.3 150.561 47.3ZM173.951 51.35C172.451 51.35 171.118 50.9917 169.951 50.275C168.784 49.5583 167.868 48.5167 167.201 47.15C166.551 45.7667 166.226 44.1333 166.226 42.25C166.226 40.3667 166.551 38.7417 167.201 37.375C167.868 35.9917 168.784 34.9417 169.951 34.225C171.118 33.5083 172.451 33.15 173.951 33.15C175.434 33.15 176.759 33.5083 177.926 34.225C179.093 34.9417 180.001 35.9917 180.651 37.375C181.318 38.7417 181.651 40.3667 181.651 42.25C181.651 44.1333 181.318 45.7667 180.651 47.15C180.001 48.5167 179.093 49.5583 177.926 50.275C176.759 50.9917 175.434 51.35 173.951 51.35ZM173.951 47.3C174.784 47.3 175.443 46.9 175.926 46.1C176.426 45.2833 176.676 44 176.676 42.25C176.676 40.5 176.426 39.225 175.926 38.425C175.443 37.6083 174.784 37.2 173.951 37.2C173.101 37.2 172.426 37.6083 171.926 38.425C171.443 39.225 171.201 40.5 171.201 42.25C171.201 44 171.443 45.2833 171.926 46.1C172.426 46.9 173.101 47.3 173.951 47.3ZM190.565 51.35C189.065 51.35 187.732 50.9917 186.565 50.275C185.399 49.5583 184.482 48.5167 183.815 47.15C183.165 45.7667 182.84 44.1333 182.84 42.25C182.84 40.3667 183.165 38.7417 183.815 37.375C184.482 35.9917 185.399 34.9417 186.565 34.225C187.732 33.5083 189.065 33.15 190.565 33.15C192.049 33.15 193.374 33.5083 194.54 34.225C195.707 34.9417 196.615 35.9917 197.265 37.375C197.932 38.7417 198.265 40.3667 198.265 42.25C198.265 44.1333 197.932 45.7667 197.265 47.15C196.615 48.5167 195.707 49.5583 194.54 50.275C193.374 50.9917 192.049 51.35 190.565 51.35ZM190.565 47.3C191.399 47.3 192.057 46.9 192.54 46.1C193.04 45.2833 193.29 44 193.29 42.25C193.29 40.5 193.04 39.225 192.54 38.425C192.057 37.6083 191.399 37.2 190.565 37.2C189.715 37.2 189.04 37.6083 188.54 38.425C188.057 39.225 187.815 40.5 187.815 42.25C187.815 44 188.057 45.2833 188.54 46.1C189.04 46.9 189.715 47.3 190.565 47.3ZM207.179 51.35C205.679 51.35 204.346 50.9917 203.179 50.275C202.013 49.5583 201.096 48.5167 200.429 47.15C199.779 45.7667 199.454 44.1333 199.454 42.25C199.454 40.3667 199.779 38.7417 200.429 37.375C201.096 35.9917 202.013 34.9417 203.179 34.225C204.346 33.5083 205.679 33.15 207.179 33.15C208.663 33.15 209.988 33.5083 211.154 34.225C212.321 34.9417 213.229 35.9917 213.879 37.375C214.546 38.7417 214.879 40.3667 214.879 42.25C214.879 44.1333 214.546 45.7667 213.879 47.15C213.229 48.5167 212.321 49.5583 211.154 50.275C209.988 50.9917 208.663 51.35 207.179 51.35ZM207.179 47.3C208.013 47.3 208.671 46.9 209.154 46.1C209.654 45.2833 209.904 44 209.904 42.25C209.904 40.5 209.654 39.225 209.154 38.425C208.671 37.6083 208.013 37.2 207.179 37.2C206.329 37.2 205.654 37.6083 205.154 38.425C204.671 39.225 204.429 40.5 204.429 42.25C204.429 44 204.671 45.2833 205.154 46.1C205.654 46.9 206.329 47.3 207.179 47.3ZM230.569 51.35C229.069 51.35 227.736 50.9917 226.569 50.275C225.402 49.5583 224.486 48.5167 223.819 47.15C223.169 45.7667 222.844 44.1333 222.844 42.25C222.844 40.3667 223.169 38.7417 223.819 37.375C224.486 35.9917 225.402 34.9417 226.569 34.225C227.736 33.5083 229.069 33.15 230.569 33.15C232.052 33.15 233.377 33.5083 234.544 34.225C235.711 34.9417 236.619 35.9917 237.269 37.375C237.936 38.7417 238.269 40.3667 238.269 42.25C238.269 44.1333 237.936 45.7667 237.269 47.15C236.619 48.5167 235.711 49.5583 234.544 50.275C233.377 50.9917 232.052 51.35 230.569 51.35ZM230.569 47.3C231.402 47.3 232.061 46.9 232.544 46.1C233.044 45.2833 233.294 44 233.294 42.25C233.294 40.5 233.044 39.225 232.544 38.425C232.061 37.6083 231.402 37.2 230.569 37.2C229.719 37.2 229.044 37.6083 228.544 38.425C228.061 39.225 227.819 40.5 227.819 42.25C227.819 44 228.061 45.2833 228.544 46.1C229.044 46.9 229.719 47.3 230.569 47.3ZM247.183 51.35C245.683 51.35 244.35 50.9917 243.183 50.275C242.017 49.5583 241.1 48.5167 240.433 47.15C239.783 45.7667 239.458 44.1333 239.458 42.25C239.458 40.3667 239.783 38.7417 240.433 37.375C241.1 35.9917 242.017 34.9417 243.183 34.225C244.35 33.5083 245.683 33.15 247.183 33.15C248.667 33.15 249.992 33.5083 251.158 34.225C252.325 34.9417 253.233 35.9917 253.883 37.375C254.55 38.7417 254.883 40.3667 254.883 42.25C254.883 44.1333 254.55 45.7667 253.883 47.15C253.233 48.5167 252.325 49.5583 251.158 50.275C249.992 50.9917 248.667 51.35 247.183 51.35ZM247.183 47.3C248.017 47.3 248.675 46.9 249.158 46.1C249.658 45.2833 249.908 44 249.908 42.25C249.908 40.5 249.658 39.225 249.158 38.425C248.675 37.6083 248.017 37.2 247.183 37.2C246.333 37.2 245.658 37.6083 245.158 38.425C244.675 39.225 244.433 40.5 244.433 42.25C244.433 44 244.675 45.2833 245.158 46.1C245.658 46.9 246.333 47.3 247.183 47.3ZM263.798 51.35C262.298 51.35 260.964 50.9917 259.798 50.275C258.631 49.5583 257.714 48.5167 257.048 47.15C256.398 45.7667 256.073 44.1333 256.073 42.25C256.073 40.3667 256.398 38.7417 257.048 37.375C257.714 35.9917 258.631 34.9417 259.798 34.225C260.964 33.5083 262.298 33.15 263.798 33.15C265.281 33.15 266.606 33.5083 267.773 34.225C268.939 34.9417 269.848 35.9917 270.498 37.375C271.164 38.7417 271.498 40.3667 271.498 42.25C271.498 44.1333 271.164 45.7667 270.498 47.15C269.848 48.5167 268.939 49.5583 267.773 50.275C266.606 50.9917 265.281 51.35 263.798 51.35ZM263.798 47.3C264.631 47.3 265.289 46.9 265.773 46.1C266.273 45.2833 266.523 44 266.523 42.25C266.523 40.5 266.273 39.225 265.773 38.425C265.289 37.6083 264.631 37.2 263.798 37.2C262.948 37.2 262.273 37.6083 261.773 38.425C261.289 39.225 261.048 40.5 261.048 42.25C261.048 44 261.289 45.2833 261.773 46.1C262.273 46.9 262.948 47.3 263.798 47.3ZM286.662 45.35V46.675H291.987V49.1H286.662V51H281.687V49.1H279.362V46.675H281.687V33.5H289.687C292.137 33.5 294.046 34 295.412 35C296.779 36 297.462 37.475 297.462 39.425C297.462 41.375 296.779 42.85 295.412 43.85C294.046 44.85 292.137 45.35 289.687 45.35H286.662ZM292.462 39.475C292.462 38.8083 292.212 38.3 291.712 37.95C291.229 37.5833 290.537 37.4 289.637 37.4H286.662V41.575H289.637C290.537 41.575 291.229 41.3917 291.712 41.025C292.212 40.6583 292.462 40.1417 292.462 39.475Z" fill="black"/>
<path d="M163.557 23.174V28.538H160.299V26H152.235V28.538H148.959V23.174H149.409C150.153 23.162 150.675 22.652 150.975 21.644C151.287 20.636 151.479 19.184 151.551 17.288L151.695 13.4L161.847 13.4V23.174H163.557ZM154.665 17.594C154.617 18.938 154.509 20.078 154.341 21.014C154.173 21.95 153.915 22.67 153.567 23.174H158.337V16.226H154.719L154.665 17.594ZM177.322 21.176H175.828V26H172.336V21.176H170.842L168.376 26H164.254L167.836 19.394L164.47 13.4H168.214L170.734 18.296H172.336V13.4H175.828V18.296H177.358L179.932 13.4H183.658L180.292 19.394L183.874 26H179.77L177.322 21.176ZM195.32 23.246V26L185.204 26V13.4H195.086V16.154H188.732V18.278H194.33V20.942H188.732V23.246H195.32ZM202.624 21.176H201.004V26H197.458V13.4H201.004V18.296H202.714L205.72 13.4H209.464L205.522 19.484L209.5 26H205.486L202.624 21.176ZM222.649 13.4V26H219.121V16.226H214.333V26H210.823V13.4H222.649ZM231.715 26.252C230.383 26.252 229.183 25.97 228.115 25.406C227.059 24.842 226.225 24.062 225.613 23.066C225.013 22.07 224.713 20.948 224.713 19.7C224.713 18.452 225.013 17.33 225.613 16.334C226.225 15.338 227.059 14.558 228.115 13.994C229.183 13.43 230.383 13.148 231.715 13.148C233.047 13.148 234.241 13.43 235.297 13.994C236.365 14.558 237.199 15.338 237.799 16.334C238.411 17.33 238.717 18.452 238.717 19.7C238.717 20.948 238.411 22.07 237.799 23.066C237.199 24.062 236.365 24.842 235.297 25.406C234.241 25.97 233.047 26.252 231.715 26.252ZM231.715 23.3C232.351 23.3 232.927 23.15 233.443 22.85C233.959 22.55 234.367 22.13 234.667 21.59C234.967 21.038 235.117 20.408 235.117 19.7C235.117 18.992 234.967 18.368 234.667 17.828C234.367 17.276 233.959 16.85 233.443 16.55C232.927 16.25 232.351 16.1 231.715 16.1C231.079 16.1 230.503 16.25 229.987 16.55C229.471 16.85 229.063 17.276 228.763 17.828C228.463 18.368 228.313 18.992 228.313 19.7C228.313 20.408 228.463 21.038 228.763 21.59C229.063 22.13 229.471 22.55 229.987 22.85C230.503 23.15 231.079 23.3 231.715 23.3ZM250.779 16.226H246.927V26H243.417V16.226H239.547V13.4H250.779V16.226Z" fill="black"/>
<defs>
<filter id="filter0_f_240_2" x="268.519" y="-64.0561" width="97.3843" height="80.8856" filterUnits="userSpaceOnUse" color-interpolation-filters="sRGB">
<feFlood flood-opacity="0" result="BackgroundImageFix"/>
<feBlend mode="normal" in="SourceGraphic" in2="BackgroundImageFix" result="shape"/>
<feGaussianBlur stdDeviation="5" result="effect1_foregroundBlur_240_2"/>
</filter>
<filter id="filter1_f_240_2" x="249.205" y="-60.1242" width="101.384" height="84.8856" filterUnits="userSpaceOnUse" color-interpolation-filters="sRGB">
<feFlood flood-opacity="0" result="BackgroundImageFix"/>
<feBlend mode="normal" in="SourceGraphic" in2="BackgroundImageFix" result="shape"/>
<feGaussianBlur stdDeviation="6" result="effect1_foregroundBlur_240_2"/>
</filter>
<linearGradient id="paint0_linear_240_2" x1="-8.26964" y1="74.8971" x2="294.93" y2="-38.5733" gradientUnits="userSpaceOnUse">
<stop offset="0.015625" stop-color="#FFA800"/>
<stop offset="0.130208" stop-color="#FFCC00"/>
<stop offset="0.520833" stop-color="#FFDD00"/>
<stop offset="0.875" stop-color="#FFCF00"/>
<stop offset="1" stop-color="#FFB800"/>
</linearGradient>
<linearGradient id="paint1_linear_240_2" x1="24.7742" y1="58.5819" x2="351.791" y2="-17.0054" gradientUnits="userSpaceOnUse">
<stop offset="0.015625" stop-color="#FFA800"/>
<stop offset="0.130208" stop-color="#FFCC00"/>
<stop offset="0.520833" stop-color="#FFDD00"/>
<stop offset="0.875" stop-color="#FFCF00"/>
<stop offset="1" stop-color="#FFB800"/>
</linearGradient>
</defs>
</svg>
