<svg width="230" height="71" viewBox="0 0 230 71" fill="none" xmlns="http://www.w3.org/2000/svg">
<path d="M177.068 54.68H164.172C159.798 54.68 156.254 58.225 156.254 62.598C156.254 66.971 159.798 70.516 164.172 70.516H177.068C181.441 70.516 184.986 66.971 184.986 62.598C184.986 58.225 181.442 54.68 177.068 54.68Z" fill="#26255C"/>
<path d="M177.492 55.415C173.525 55.415 170.308 58.631 170.308 62.599C170.308 66.565 173.525 69.781 177.492 69.781C181.46 69.781 184.676 66.565 184.676 62.599C184.676 58.631 181.46 55.415 177.492 55.415Z" fill="white"/>
<path d="M177.771 57.059C177.678 57.054 177.584 57.05 177.493 57.05C174.43 57.05 171.946 59.535 171.946 62.598C171.946 65.662 174.429 68.145 177.493 68.145C177.585 68.145 177.679 68.141 177.771 68.136C180.707 67.996 183.041 65.568 183.041 62.598C183.04 59.628 180.706 57.201 177.771 57.059Z" fill="#26255C"/>
<path d="M177.771 57.059V68.136C180.707 67.996 183.041 65.568 183.041 62.598C183.04 59.628 180.706 57.201 177.771 57.059Z" fill="#724B9B"/>
<path d="M177.492 60.014C176.065 60.014 174.909 61.17 174.909 62.598C174.909 64.025 176.065 65.181 177.492 65.181C178.919 65.181 180.076 64.025 180.076 62.598C180.076 61.171 178.919 60.014 177.492 60.014Z" fill="#26255C"/>
<path d="M56.355 0V30.635H71.534L59.037 0H56.355Z" fill="white"/>
<path d="M225.17 44.571C224.25 43.356 222.736 42.39 221.797 40.814C218.588 35.437 207.48 30.634 194.351 30.634H55.973C53.515 30.634 51.522 29.975 51.522 32.432C51.522 33.184 51.606 33.931 51.769 34.678C53.236 41.499 61.167 48.13 70.64 53.214C81.147 58.854 93.551 62.598 101.149 62.598H201.438C219.102 62.598 227.761 56.365 229.516 52.666H229.521C229.755 52.171 229.87 51.723 229.86 51.34C229.839 50.185 228.479 47.119 225.17 44.571Z" fill="white"/>
<path d="M211.544 48.638C204.648 44.674 203.137 34.678 177.375 34.678H51.741C52.095 36.335 52.833 37.976 53.881 39.589C54.901 41.162 56.215 42.705 57.762 44.204C59.716 46.096 62.041 47.913 64.596 49.619H64.6C66.492 50.883 68.517 52.086 70.612 53.213C81.119 58.854 93.523 62.598 101.122 62.598H201.41C219.074 62.598 230.718 56.913 229.833 51.339C229.832 51.34 221.048 54.102 211.544 48.638Z" fill="#5955E5"/>
<path d="M146.597 47.451H65.7952V50.989H148.981V49.835C148.981 48.518 147.912 47.451 146.597 47.451Z" fill="#FF9F64"/>
<path d="M55.25 0V30.635H70.429L57.932 0H55.25Z" fill="#FF9F64"/>
<path d="M32.5139 39.591H71.9029V38.018H30.9399C30.9399 38.887 31.6439 39.591 32.5139 39.591Z" fill="#FF9F64"/>
<path d="M221.797 40.814H206.905C206.905 41.853 207.326 42.79 208.007 43.47C208.688 44.151 209.629 44.571 210.663 44.571H225.17C224.25 43.356 223.128 42.078 221.797 40.814Z" fill="#26255C"/>
<path d="M225.271 46.2893L219.671 39.4977L218.988 40.0608L224.589 46.8523L225.271 46.2893Z" fill="white"/>
<path d="M215.539 46.4348L213.549 39.939L212.705 40.1977L214.695 46.6934L215.539 46.4348Z" fill="white"/>
<path d="M211.157 46.323L209.61 39.8257L208.75 40.0304L210.297 46.5278L211.157 46.323Z" fill="white"/>
<path d="M30.9399 38.017H71.9029C71.9029 38.017 65.6399 36.837 51.7689 36.837L30.9399 38.017Z" fill="white"/>
<path d="M213.541 43.18L210.663 44.572L225.627 44.939L224.048 43.18H213.541Z" fill="white"/>
<path d="M186.378 42.584C185.923 42.584 185.555 42.952 185.555 43.406V45.005C185.555 45.46 185.923 45.828 186.378 45.828C186.832 45.828 187.199 45.46 187.199 45.005V43.406C187.199 42.952 186.832 42.584 186.378 42.584Z" fill="#26255C"/>
<path d="M177.262 42.584C176.807 42.584 176.439 42.952 176.439 43.406V45.005C176.439 45.46 176.807 45.828 177.262 45.828C177.716 45.828 178.085 45.46 178.085 45.005V43.406C178.085 42.952 177.716 42.584 177.262 42.584Z" fill="#26255C"/>
<path d="M174.518 42.584C174.064 42.584 173.695 42.952 173.695 43.406V45.005C173.695 45.46 174.064 45.828 174.518 45.828C174.973 45.828 175.341 45.46 175.341 45.005V43.406C175.341 42.952 174.973 42.584 174.518 42.584Z" fill="#26255C"/>
<path d="M171.775 42.584C171.32 42.584 170.952 42.952 170.952 43.406V45.005C170.952 45.46 171.32 45.828 171.775 45.828C172.229 45.828 172.598 45.46 172.598 45.005V43.406C172.598 42.952 172.229 42.584 171.775 42.584Z" fill="#26255C"/>
<path d="M169.03 42.584C168.576 42.584 168.207 42.952 168.207 43.406V45.005C168.207 45.46 168.576 45.828 169.03 45.828C169.485 45.828 169.853 45.46 169.853 45.005V43.406C169.854 42.952 169.485 42.584 169.03 42.584Z" fill="#26255C"/>
<path d="M167.172 42.584C166.717 42.584 166.349 42.952 166.349 43.406V45.005C166.349 45.46 166.717 45.828 167.172 45.828C167.626 45.828 167.994 45.46 167.994 45.005V43.406C167.994 42.952 167.626 42.584 167.172 42.584Z" fill="#26255C"/>
<path d="M164.428 42.584C163.973 42.584 163.605 42.952 163.605 43.406V45.005C163.605 45.46 163.973 45.828 164.428 45.828C164.882 45.828 165.251 45.46 165.251 45.005V43.406C165.251 42.952 164.882 42.584 164.428 42.584Z" fill="#26255C"/>
<path d="M161.684 42.584C161.23 42.584 160.861 42.952 160.861 43.406V45.005C160.861 45.46 161.23 45.828 161.684 45.828C162.139 45.828 162.507 45.46 162.507 45.005V43.406C162.507 42.952 162.139 42.584 161.684 42.584Z" fill="#26255C"/>
<path d="M158.941 42.584C158.486 42.584 158.118 42.952 158.118 43.406V45.005C158.118 45.46 158.486 45.828 158.941 45.828C159.395 45.828 159.764 45.46 159.764 45.005V43.406C159.764 42.952 159.395 42.584 158.941 42.584Z" fill="#26255C"/>
<path d="M156.196 42.584C155.742 42.584 155.373 42.952 155.373 43.406V45.005C155.373 45.46 155.742 45.828 156.196 45.828C156.651 45.828 157.019 45.46 157.019 45.005V43.406C157.02 42.952 156.651 42.584 156.196 42.584Z" fill="#26255C"/>
<path d="M145.222 42.584C144.767 42.584 144.399 42.952 144.399 43.406V45.005C144.399 45.46 144.767 45.828 145.222 45.828C145.676 45.828 146.045 45.46 146.045 45.005V43.406C146.045 42.952 145.676 42.584 145.222 42.584Z" fill="#26255C"/>
<path d="M136.99 42.584C136.536 42.584 136.167 42.952 136.167 43.406V45.005C136.167 45.46 136.536 45.828 136.99 45.828C137.445 45.828 137.813 45.46 137.813 45.005V43.406C137.814 42.952 137.445 42.584 136.99 42.584Z" fill="#26255C"/>
<path d="M134.247 42.584C133.792 42.584 133.424 42.952 133.424 43.406V45.005C133.424 45.46 133.792 45.828 134.247 45.828C134.701 45.828 135.069 45.46 135.069 45.005V43.406C135.069 42.952 134.701 42.584 134.247 42.584Z" fill="#26255C"/>
<path d="M131.503 42.584C131.048 42.584 130.68 42.952 130.68 43.406V45.005C130.68 45.46 131.048 45.828 131.503 45.828C131.957 45.828 132.326 45.46 132.326 45.005V43.406C132.326 42.952 131.957 42.584 131.503 42.584Z" fill="#26255C"/>
<path d="M128.759 42.584C128.305 42.584 127.938 42.952 127.938 43.406V45.005C127.938 45.46 128.305 45.828 128.759 45.828C129.214 45.828 129.583 45.46 129.583 45.005V43.406C129.583 42.952 129.213 42.584 128.759 42.584Z" fill="#26255C"/>
<path d="M126.016 42.584C125.561 42.584 125.193 42.952 125.193 43.406V45.005C125.193 45.46 125.561 45.828 126.016 45.828C126.47 45.828 126.839 45.46 126.839 45.005V43.406C126.838 42.952 126.469 42.584 126.016 42.584Z" fill="#26255C"/>
<path d="M123.272 42.584C122.818 42.584 122.449 42.952 122.449 43.406V45.005C122.449 45.46 122.818 45.828 123.272 45.828C123.727 45.828 124.095 45.46 124.095 45.005V43.406C124.094 42.952 123.726 42.584 123.272 42.584Z" fill="#26255C"/>
<path d="M120.528 42.584C120.073 42.584 119.705 42.952 119.705 43.406V45.005C119.705 45.46 120.073 45.828 120.528 45.828C120.982 45.828 121.35 45.46 121.35 45.005V43.406C121.35 42.952 120.982 42.584 120.528 42.584Z" fill="#26255C"/>
<path d="M117.784 42.584C117.33 42.584 116.961 42.952 116.961 43.406V45.005C116.961 45.46 117.33 45.828 117.784 45.828C118.239 45.828 118.607 45.46 118.607 45.005V43.406C118.607 42.952 118.239 42.584 117.784 42.584Z" fill="#26255C"/>
<path d="M115.04 42.584C114.586 42.584 114.218 42.952 114.218 43.406V45.005C114.218 45.46 114.586 45.828 115.04 45.828C115.495 45.828 115.863 45.46 115.863 45.005V43.406C115.863 42.952 115.495 42.584 115.04 42.584Z" fill="#26255C"/>
<path d="M112.297 42.584C111.842 42.584 111.474 42.952 111.474 43.406V45.005C111.474 45.46 111.842 45.828 112.297 45.828C112.751 45.828 113.12 45.46 113.12 45.005V43.406C113.12 42.952 112.751 42.584 112.297 42.584Z" fill="#26255C"/>
<path d="M104.066 42.584C103.612 42.584 103.243 42.952 103.243 43.406V45.005C103.243 45.46 103.612 45.828 104.066 45.828C104.521 45.828 104.889 45.46 104.889 45.005V43.406C104.888 42.952 104.52 42.584 104.066 42.584Z" fill="#26255C"/>
<path d="M95.834 42.584C95.38 42.584 95.012 42.952 95.012 43.406V45.005C95.012 45.46 95.38 45.828 95.834 45.828C96.289 45.828 96.657 45.46 96.657 45.005V43.406C96.657 42.952 96.289 42.584 95.834 42.584Z" fill="#26255C"/>
<path d="M93.0911 42.584C92.6361 42.584 92.2681 42.952 92.2681 43.406V45.005C92.2681 45.46 92.6361 45.828 93.0911 45.828C93.5451 45.828 93.9141 45.46 93.9141 45.005V43.406C93.9141 42.952 93.5451 42.584 93.0911 42.584Z" fill="#26255C"/>
<path d="M90.3472 42.584C89.8932 42.584 89.5242 42.952 89.5242 43.406V45.005C89.5242 45.46 89.8932 45.828 90.3472 45.828C90.8022 45.828 91.1702 45.46 91.1702 45.005V43.406C91.1702 42.952 90.8012 42.584 90.3472 42.584Z" fill="#26255C"/>
<path d="M87.604 42.584C87.149 42.584 86.781 42.952 86.781 43.406V45.005C86.781 45.46 87.149 45.828 87.604 45.828C88.058 45.828 88.427 45.46 88.427 45.005V43.406C88.426 42.952 88.057 42.584 87.604 42.584Z" fill="#26255C"/>
<path d="M84.8591 42.584C84.4051 42.584 84.0361 42.952 84.0361 43.406V45.005C84.0361 45.46 84.4051 45.828 84.8591 45.828C85.3141 45.828 85.6821 45.46 85.6821 45.005V43.406C85.6821 42.952 85.3141 42.584 84.8591 42.584Z" fill="#26255C"/>
<path d="M82.116 42.584C81.661 42.584 81.293 42.952 81.293 43.406V45.005C81.293 45.46 81.661 45.828 82.116 45.828C82.57 45.828 82.938 45.46 82.938 45.005V43.406C82.938 42.952 82.57 42.584 82.116 42.584Z" fill="#26255C"/>
<path d="M79.3721 42.584C78.9171 42.584 78.5491 42.952 78.5491 43.406V45.005C78.5491 45.46 78.9171 45.828 79.3721 45.828C79.8261 45.828 80.1951 45.46 80.1951 45.005V43.406C80.1951 42.952 79.8261 42.584 79.3721 42.584Z" fill="#26255C"/>
<path d="M76.6279 42.584C76.1739 42.584 75.8049 42.952 75.8049 43.406V45.005C75.8049 45.46 76.1739 45.828 76.6279 45.828C77.0829 45.828 77.4509 45.46 77.4509 45.005V43.406C77.4509 42.952 77.0829 42.584 76.6279 42.584Z" fill="#26255C"/>
<path d="M155.914 49.62H64.6282C65.9542 50.509 67.3472 51.361 68.7832 52.183C69.3932 52.533 70.0122 52.878 70.6402 53.214C81.1462 58.854 93.5512 62.599 101.149 62.599H194.399C194.399 62.599 194.054 49.62 155.914 49.62Z" fill="#FF9F64"/>
<path d="M152.369 52.183H68.783C69.392 52.533 70.012 52.877 70.64 53.213C81.146 58.854 93.551 62.598 101.149 62.598H189.364C189.364 62.598 189.032 52.183 152.369 52.183Z" fill="white"/>
<path d="M209.492 55.808H98.105C89.667 55.808 75.888 52.064 64.219 46.423C61.393 45.057 58.693 43.577 56.218 42.016C56.191 41.998 56.169 41.985 56.142 41.967C55.824 41.764 55.506 41.561 55.196 41.358C55.222 41.388 55.245 41.419 55.271 41.451C55.298 41.486 55.32 41.517 55.351 41.552C55.576 41.83 55.815 42.114 56.062 42.392C56.116 42.45 56.169 42.511 56.221 42.569C56.734 43.139 57.283 43.704 57.857 44.262C57.91 44.31 57.959 44.359 58.013 44.408C58.308 44.691 58.609 44.969 58.923 45.247C58.931 45.261 58.945 45.27 58.954 45.279C59.263 45.552 59.586 45.83 59.908 46.101C59.944 46.131 59.983 46.162 60.019 46.194C60.355 46.476 60.7 46.755 61.049 47.029C61.071 47.046 61.094 47.064 61.115 47.081C61.469 47.361 61.831 47.634 62.198 47.909C62.207 47.913 62.212 47.922 62.221 47.926C62.6 48.204 62.985 48.483 63.374 48.762C63.396 48.775 63.418 48.788 63.44 48.806C65.669 50.371 68.099 51.847 70.645 53.213C81.153 58.854 93.556 62.598 101.156 62.598H201.442H201.451C216.963 62.598 227.824 58.212 229.637 53.372C224.353 54.862 217.481 55.808 209.501 55.808H209.492Z" fill="#26255C"/>
<path d="M145.335 49.62H2.565C1.148 49.62 0 50.768 0 52.184H147.492V51.776C147.492 50.586 146.525 49.62 145.335 49.62Z" fill="white"/>
<path d="M83.1419 49.62H17.0029V52.16H85.6829C85.6829 50.757 84.5449 49.62 83.1419 49.62Z" fill="white"/>
<path d="M88.8481 53.322C88.8481 59.252 93.6561 64.059 99.5851 64.059H107.929V52.184H88.8481V53.322Z" fill="#26255C"/>
<path d="M145.305 54.342C146.508 54.359 147.493 53.388 147.493 52.185H0L145.305 54.342Z" fill="#26255C"/>
<path d="M104.066 58.122H141.555C144.834 58.122 147.493 55.464 147.493 52.185H104.066V58.122Z" fill="#26255C"/>
<path d="M18.802 49.62H2.566C1.149 49.62 0 50.768 0 52.184H21.366C21.366 50.768 20.218 49.62 18.802 49.62Z" fill="#FF9F64"/>
<path d="M115.146 54.68H102.249C97.8751 54.68 94.3311 58.225 94.3311 62.598C94.3311 66.971 97.8751 70.516 102.249 70.516H115.146C119.519 70.516 123.064 66.971 123.064 62.598C123.064 58.225 119.518 54.68 115.146 54.68Z" fill="#FF9F64"/>
<path d="M115.144 54.681H102.249C97.877 54.681 94.332 58.226 94.332 62.598C94.332 63.207 94.399 63.795 94.532 64.366C95.336 60.843 98.488 58.217 102.249 58.217H115.144C117.332 58.217 119.313 59.106 120.745 60.537C121.784 61.573 122.531 62.889 122.867 64.366C122.999 63.795 123.066 63.207 123.066 62.598C123.066 60.414 122.181 58.434 120.745 57.001C119.313 55.57 117.332 54.681 115.144 54.681Z" fill="white"/>
<path d="M115.569 55.415C111.601 55.415 108.385 58.631 108.385 62.599C108.385 66.565 111.601 69.781 115.569 69.781C119.536 69.781 122.752 66.565 122.752 62.599C122.752 58.631 119.536 55.415 115.569 55.415Z" fill="white"/>
<path d="M115.848 57.059C115.755 57.054 115.662 57.05 115.57 57.05C112.506 57.05 110.022 59.535 110.022 62.598C110.022 65.662 112.506 68.145 115.57 68.145C115.662 68.145 115.755 68.141 115.848 68.136C118.783 67.996 121.117 65.568 121.117 62.598C121.117 59.628 118.783 57.201 115.848 57.059Z" fill="#26255C"/>
<path d="M115.848 57.059V68.136C118.783 67.996 121.117 65.568 121.117 62.598C121.117 59.628 118.783 57.201 115.848 57.059Z" fill="#724B9B"/>
<path d="M115.569 60.014C114.141 60.014 112.985 61.17 112.985 62.598C112.985 64.025 114.141 65.181 115.569 65.181C116.996 65.181 118.152 64.025 118.152 62.598C118.152 61.171 116.996 60.014 115.569 60.014Z" fill="#26255C"/>
<path d="M57.518 56.109H70.596C72.763 56.109 74.52 54.352 74.52 52.184H53.592C53.592 54.352 55.35 56.109 57.518 56.109Z" fill="#26255C"/>
<path d="M28.9901 55.053H40.1631C41.7471 55.053 43.0311 53.769 43.0311 52.185H26.1221C26.1221 53.768 27.4061 55.053 28.9901 55.053Z" fill="#26255C"/>
<path d="M57.789 44.205H67.289C69.835 44.205 71.903 42.141 71.903 39.59H53.908C54.93 41.163 56.242 42.706 57.789 44.205Z" fill="#26255C"/>
<path d="M70.8931 21.065H55.6781C53.5181 21.065 51.7681 22.816 51.7681 24.975C51.7681 27.134 53.5181 28.884 55.6781 28.884H70.8921C73.0511 28.884 74.8011 27.134 74.8011 24.975C74.8011 22.816 73.0511 21.065 70.8931 21.065Z" fill="white"/>
<path d="M71.4421 22.164H55.1291C53.2731 22.164 51.7681 23.669 51.7681 25.524C51.7681 27.381 53.2731 28.885 55.1291 28.885H71.4421C73.2971 28.885 74.8011 27.381 74.8011 25.524C74.8011 23.669 73.2971 22.164 71.4421 22.164Z" fill="#FF9F64"/>
<path d="M71.1019 21.429C69.1429 21.429 67.5549 23.017 67.5549 24.976C67.5549 26.934 69.1429 28.523 71.1019 28.523C73.0609 28.523 74.6489 26.934 74.6489 24.976C74.6489 23.016 73.0609 21.429 71.1019 21.429Z" fill="white"/>
<path d="M71.2391 22.24C71.1931 22.238 71.1471 22.236 71.1011 22.236C69.5891 22.236 68.3621 23.463 68.3621 24.975C68.3621 26.487 69.5891 27.715 71.1011 27.715C71.1471 27.715 71.1931 27.712 71.2391 27.71C72.6881 27.64 73.8411 26.442 73.8411 24.975C73.8411 23.509 72.6881 22.31 71.2391 22.24Z" fill="#26255C"/>
<path d="M71.239 22.24V27.71C72.688 27.64 73.841 26.442 73.841 24.975C73.841 23.509 72.688 22.31 71.239 22.24Z" fill="#724B9B"/>
<path d="M71.1019 23.699C70.3979 23.699 69.8269 24.27 69.8269 24.975C69.8269 25.679 70.3979 26.251 71.1019 26.251C71.8069 26.251 72.3779 25.679 72.3779 24.975C72.3779 24.27 71.8069 23.699 71.1019 23.699Z" fill="#26255C"/>
<path d="M61.255 16.567H55.25V19.255H61.255C61.998 19.255 62.6 18.654 62.6 17.911C62.6 17.169 61.998 16.567 61.255 16.567Z" fill="white"/>
</svg>
