<svg width="85" height="85" viewBox="0 0 85 85" fill="none" xmlns="http://www.w3.org/2000/svg">
<g filter="url(#filter0_f_162_2)">
<rect x="24" y="24" width="37" height="37" fill="#CF0070"/>
</g>
<path d="M16.265 55.7499L23.326 48.6899C23.5544 48.4644 23.6872 48.1596 23.697 47.8388C23.7069 47.518 23.5929 47.2057 23.3787 46.9666C23.1646 46.7275 22.8667 46.5799 22.5467 46.5545C22.2267 46.5291 21.9092 46.6277 21.66 46.8299L21.558 46.9209L12.366 56.1139C12.1483 56.3317 12.0187 56.6221 12.0019 56.9295C11.9851 57.237 12.0823 57.5398 12.275 57.7799L12.366 57.8809L21.558 67.0739C21.7835 67.3023 22.0883 67.4352 22.4091 67.445C22.73 67.4548 23.0423 67.3408 23.2813 67.1267C23.5204 66.9125 23.668 66.6146 23.6934 66.2946C23.7189 65.9747 23.6202 65.6572 23.418 65.4079L23.326 65.3059L16.27 58.2499L25.25 58.2499C28.504 58.2499 31.53 57.5299 34.154 56.1509L34.564 55.9279C37.2337 54.4368 39.4369 52.2336 40.928 49.5639C42.452 46.8479 43.25 43.6749 43.25 40.2499C43.25 39.9184 43.1183 39.6005 42.8839 39.366C42.6495 39.1316 42.3315 38.9999 42 38.9999C41.6685 38.9999 41.3505 39.1316 41.1161 39.366C40.8817 39.6005 40.75 39.9184 40.75 40.2499C40.75 43.2539 40.058 46.0049 38.747 48.3419C37.4811 50.6097 35.6098 52.481 33.342 53.7469C31.135 54.9849 28.559 55.6709 25.748 55.7439L25.25 55.7499L16.265 55.7499Z" fill="white"/>
<path d="M11.2641 23.3V31H12.8261V24.565H15.8731V31H17.4351V23.3H11.2641ZM22.475 23.212C20.572 23.212 18.702 24.356 18.702 27.15C18.702 29.944 20.572 31.088 22.475 31.088C24.378 31.088 26.248 29.944 26.248 27.15C26.248 24.356 24.378 23.212 22.475 23.212ZM22.475 24.312C23.058 24.312 24.598 24.543 24.598 27.15C24.598 29.757 23.058 29.988 22.475 29.988C21.892 29.988 20.352 29.757 20.352 27.15C20.352 24.543 21.892 24.312 22.475 24.312ZM26.5159 29.636V32.617H28.0559V31H32.6869V32.617H34.2269V29.636H33.3469V23.3H28.3309V25.764C28.3309 27.172 28.1769 28.316 27.3959 29.636H26.5159ZM31.7849 24.664V29.636H29.0239C29.7279 28.393 29.8159 27.282 29.8159 25.764V24.664H31.7849ZM35.2192 23.3V31H36.7812V28.25H37.4852C39.5752 28.25 40.4552 27.37 40.4552 25.775C40.4552 24.29 39.4652 23.3 37.4852 23.3H35.2192ZM36.7812 27.04V24.51H37.4852C38.3652 24.51 38.8052 24.95 38.8052 25.775C38.8052 26.6 38.3652 27.04 37.4852 27.04H36.7812ZM44.7651 23.212C42.8621 23.212 40.9921 24.356 40.9921 27.15C40.9921 29.944 42.8621 31.088 44.7651 31.088C46.6681 31.088 48.5381 29.944 48.5381 27.15C48.5381 24.356 46.6681 23.212 44.7651 23.212ZM44.7651 24.312C45.3481 24.312 46.8881 24.543 46.8881 27.15C46.8881 29.757 45.3481 29.988 44.7651 29.988C44.1821 29.988 42.6421 29.757 42.6421 27.15C42.6421 24.543 44.1821 24.312 44.7651 24.312ZM49.8071 23.3V31H52.6231C54.8231 31 55.3621 29.57 55.3621 28.756C55.3621 27.766 54.8891 26.27 52.6231 26.27H51.3691V24.664H54.7351V23.3H49.8071ZM51.3691 27.48H52.3371C53.2061 27.48 53.7121 27.854 53.7121 28.635C53.7121 29.416 53.2061 29.79 52.3371 29.79H51.3691V27.48ZM56.6499 23.3V31H58.2119V27.667H61.3359V31H62.8979V23.3H61.3359V26.402H58.2119V23.3H56.6499ZM64.438 23.3V31H69.036V29.636H66V27.667H68.761V26.402H66V24.664H69.036V23.3H64.438ZM70.3569 23.3V31H74.9549V29.636H71.9189V27.667H74.6799V26.402H71.9189V24.664H74.9549V23.3H70.3569Z" fill="white"/>
<defs>
<filter id="filter0_f_162_2" x="0" y="0" width="85" height="85" filterUnits="userSpaceOnUse" color-interpolation-filters="sRGB">
<feFlood flood-opacity="0" result="BackgroundImageFix"/>
<feBlend mode="normal" in="SourceGraphic" in2="BackgroundImageFix" result="shape"/>
<feGaussianBlur stdDeviation="12" result="effect1_foregroundBlur_162_2"/>
</filter>
</defs>
</svg>
