<svg width="154" height="43" viewBox="0 0 154 43" fill="none" xmlns="http://www.w3.org/2000/svg">
<path d="M15.425 42.512C23.945 41.639 30.85 33.45 30.85 24.223C30.85 17.08 26.704 11.383 20.882 9.52301L8.85596 41.565C10.851 42.39 13.072 42.753 15.425 42.512Z" fill="#CBD0E6"/>
<path d="M8.856 41.565L20.881 9.52298C19.184 8.97798 17.35 8.74399 15.424 8.91999C6.905 9.69599 0 17.884 0 27.209C0.001 33.958 3.627 39.399 8.856 41.565Z" fill="#1A2A62"/>
<path d="M2.16699 26.999C2.16699 35.008 8.10399 40.897 15.426 40.153C22.748 39.408 28.685 32.37 28.685 24.432C28.685 16.495 22.748 10.606 15.426 11.279C8.10399 11.951 2.16699 18.991 2.16699 26.999Z" fill="#5955E5"/>
<path d="M153.101 12.247C153.101 4.85898 147.422 -0.60002 140.417 0.0529802L18.059 11.463C11.054 12.116 5.37598 18.851 5.37598 26.506C5.37598 27.173 5.43398 27.817 5.51698 28.449L152.959 14.15C153.043 13.523 153.101 12.891 153.101 12.247Z" fill="#CBD0E6"/>
<path d="M5.51685 28.45C6.38885 35.089 11.6638 39.739 18.0588 39.101L140.417 26.89C146.813 26.252 152.087 20.727 152.959 14.15L149.838 12.563L8.63885 26.192L5.51685 28.45Z" fill="#1D1A5C"/>
<path d="M140.114 3.35301L18.3639 14.803C13.0359 15.304 8.72092 20.386 8.63892 26.191L149.839 12.562C149.757 6.96601 145.442 2.85201 140.114 3.35301Z" fill="#F6F6F6"/>
<path d="M8.63878 26.191C8.63778 26.247 8.62378 26.299 8.62378 26.355C8.62378 32.23 12.9848 36.559 18.3638 36.026L140.114 23.964C145.493 23.431 149.853 18.396 149.853 12.718C149.853 12.664 149.839 12.616 149.838 12.562L8.63878 26.191Z" fill="#8280E3"/>
</svg>
