<svg width="68" height="74" viewBox="0 0 68 74" fill="none" xmlns="http://www.w3.org/2000/svg">
<path d="M65.6926 27.602C66.3396 27.776 67.0036 27.39 67.1756 26.744L67.1976 26.66C67.2816 26.348 67.2366 26.017 67.0756 25.739C66.9146 25.461 66.6486 25.258 66.3376 25.176L60.4306 23.604L64.7866 21.091C65.7126 20.555 66.0306 19.371 65.4956 18.444L65.4336 18.339L65.4366 18.338L65.3826 18.246C65.1266 17.797 64.7026 17.472 64.2046 17.336C63.7066 17.204 63.1756 17.274 62.7296 17.531L58.3756 20.054L59.9476 14.143C60.0316 13.832 59.9876 13.499 59.8246 13.22C59.6626 12.942 59.3956 12.739 59.0836 12.657L59.0076 12.636C58.3616 12.466 57.6996 12.854 57.5286 13.498L55.3036 21.837L51.9936 23.74L54.6226 13.889C54.7386 13.451 54.6766 12.989 54.4506 12.598C54.2226 12.205 53.8516 11.921 53.4166 11.807L53.1956 11.747C52.2886 11.506 51.3576 12.045 51.1156 12.952L47.5426 26.317L45.1666 27.698L46.7376 21.787C46.8216 21.476 46.7766 21.146 46.6156 20.867C46.4536 20.588 46.1876 20.387 45.8766 20.304C45.1886 20.122 44.4806 20.532 44.2976 21.218L42.0876 29.474L39.5106 30.966L40.4146 27.59C40.5646 27.022 40.3166 26.425 39.8086 26.133L39.7536 26.101C39.2146 25.792 38.5396 25.884 38.1036 26.321L35.6776 28.749L35.6696 25.782L41.7726 19.66C41.9976 19.435 42.1226 19.129 42.1226 18.813C42.1206 18.496 41.9956 18.192 41.7696 17.97L41.6826 17.883C41.2156 17.417 40.4606 17.42 39.9946 17.886L35.6726 22.227L35.6676 19.476L45.3916 9.73402C45.7216 9.40302 45.9086 8.95401 45.9076 8.48601C45.9076 8.02001 45.7196 7.571 45.3876 7.24L45.3006 7.15401C44.6166 6.47301 43.5106 6.47302 42.8276 7.15602L35.6546 14.337L35.6626 10.516L41.7476 4.40401C42.2176 3.93201 42.2166 3.16602 41.7436 2.69502L41.6816 2.63502C41.2106 2.16402 40.4466 2.16402 39.9746 2.63502L35.6496 6.96202L35.6446 2.00401C35.6446 1.47101 35.4306 0.962006 35.0526 0.585006C34.6766 0.209006 34.1646 -0.00198591 33.6306 1.409e-05H33.5976H33.5966H33.5526C33.0196 -0.00198591 32.5076 0.209006 32.1296 0.585006C31.7506 0.964006 31.5396 1.47702 31.5396 2.00902L31.5476 6.97002L27.2136 2.63801C26.9876 2.41301 26.6816 2.28502 26.3626 2.28502C26.0446 2.28802 25.7376 2.41502 25.5116 2.63902L25.4946 2.65602C24.9956 3.16002 24.9966 3.971 25.4976 4.472L31.5456 10.513L31.5526 14.344L24.4636 7.26402C24.1096 6.91202 23.6326 6.714 23.1346 6.714C22.6366 6.717 22.1586 6.91401 21.8066 7.26601L21.7426 7.33101C21.0956 7.98101 21.0966 9.032 21.7456 9.679L31.5586 19.478V22.23L27.2926 17.97C27.0486 17.729 26.7186 17.593 26.3746 17.593C26.0306 17.593 25.7016 17.732 25.4596 17.976L25.4426 17.995C24.9796 18.461 24.9806 19.216 25.4466 19.679L31.5636 25.785L31.5726 28.76L29.1436 26.334C28.7046 25.894 28.0216 25.806 27.4846 26.12L27.4826 26.118L27.4406 26.141C26.9266 26.44 26.6776 27.045 26.8336 27.62L27.7416 30.978L25.1516 29.491L22.9146 21.168C22.8306 20.857 22.6276 20.591 22.3476 20.432C22.0706 20.27 21.7386 20.227 21.4276 20.311L21.3536 20.332C20.7076 20.506 20.3236 21.172 20.4976 21.816L22.0796 27.721L19.6966 26.342L16.1306 13.109C16.0046 12.642 15.6976 12.245 15.2796 12.004C14.8626 11.763 14.3656 11.701 13.8996 11.825L13.8676 11.833C12.9206 12.091 12.3596 13.063 12.6136 14.01L15.2366 23.775L11.9266 21.866L9.6806 13.543C9.5976 13.232 9.39459 12.966 9.11559 12.806C8.83759 12.648 8.50559 12.604 8.19559 12.688L8.11959 12.707C7.47359 12.883 7.09259 13.547 7.26359 14.194L8.8446 20.092L4.55259 17.623C4.09059 17.358 3.5426 17.288 3.0286 17.426C2.5126 17.565 2.07559 17.903 1.81159 18.365L1.7936 18.395L1.9166 18.465L1.91459 18.469L1.7936 18.4L1.70759 18.546C1.45759 18.982 1.3896 19.496 1.5196 19.982C1.6506 20.465 1.9676 20.878 2.4026 21.127L6.8016 23.658L0.902596 25.242C0.591596 25.323 0.326596 25.529 0.165596 25.807C0.00559601 26.086 -0.0384002 26.419 0.0475998 26.729L0.0675888 26.806C0.242589 27.453 0.907589 27.835 1.55259 27.662L9.88259 25.428L13.1976 27.34L3.43659 29.964C2.97859 30.085 2.5886 30.386 2.3516 30.797C2.1166 31.206 2.0516 31.696 2.1766 32.151L2.18659 32.192C2.44859 33.153 3.43959 33.723 4.40159 33.463L17.6366 29.906L20.0236 31.275L14.1326 32.862C13.8216 32.946 13.5566 33.152 13.3976 33.43C13.2366 33.709 13.1946 34.039 13.2786 34.351L13.2996 34.432C13.4736 35.079 14.1386 35.461 14.7856 35.287L23.1056 33.048L25.6826 34.532L22.3706 35.429C21.7746 35.592 21.3606 36.131 21.3606 36.751H21.4996V36.775H21.3386C21.3366 37.389 21.7466 37.928 22.3396 38.088L25.6756 38.986L23.0926 40.473L14.7626 38.252C14.1166 38.081 13.4516 38.466 13.2786 39.113L13.2586 39.191C13.0846 39.837 13.4696 40.504 14.1176 40.674L20.0196 42.25L17.6386 43.625L4.28359 40.062C3.37659 39.818 2.4446 40.36 2.2026 41.267C2.0686 41.765 2.13859 42.292 2.39559 42.74C2.65359 43.184 3.07759 43.506 3.57259 43.639L13.1796 46.202L9.88259 48.111L1.5456 45.896C0.899601 45.723 0.234591 46.107 0.063591 46.753L0.040596 46.837C-0.041404 47.147 0.00159003 47.48 0.16259 47.758C0.32359 48.037 0.589597 48.24 0.900597 48.321L6.80459 49.894L2.4506 52.409C1.5246 52.943 1.2066 54.126 1.7416 55.055L1.8016 55.159L1.9246 55.089V55.09L1.80459 55.159L1.8596 55.254C2.1166 55.701 2.54059 56.026 3.03759 56.158C3.53559 56.291 4.06459 56.221 4.50959 55.963L8.86759 53.441L7.2956 59.352C7.2126 59.663 7.2576 59.993 7.4186 60.272C7.5816 60.55 7.8476 60.753 8.1596 60.835L8.2346 60.857C8.8806 61.025 9.5426 60.64 9.7136 59.996L11.9386 51.662L15.2466 49.756L12.6186 59.607C12.5026 60.043 12.5636 60.505 12.7906 60.896C13.0176 61.289 13.3886 61.573 13.8246 61.687L14.0456 61.746C14.9526 61.987 15.8826 61.448 16.1246 60.541L19.6956 47.183L22.0716 45.798L20.4986 51.707C20.3266 52.354 20.7136 53.02 21.3616 53.19C22.0496 53.374 22.7576 52.965 22.9406 52.278L25.1486 44.022L27.7276 42.533L26.8266 45.91C26.6756 46.475 26.9226 47.074 27.4306 47.366L27.4826 47.396L27.5516 47.274L27.4826 47.396C28.0206 47.705 28.6956 47.615 29.1326 47.176L31.5566 44.75L31.5636 47.717L25.4626 53.836C25.2386 54.062 25.1126 54.367 25.1146 54.685C25.1146 55.001 25.2416 55.305 25.4666 55.527L25.5506 55.613C26.0196 56.079 26.7766 56.077 27.2396 55.611L31.5626 51.27L31.5666 54.021L21.8436 63.759C21.5136 64.09 21.3296 64.539 21.3296 65.008C21.3296 65.474 21.5166 65.923 21.8476 66.253L21.9356 66.34C22.6196 67.02 23.7246 67.02 24.4076 66.337L31.5786 59.159L31.5716 62.977L25.4876 69.09C25.0176 69.562 25.0196 70.327 25.4916 70.798L25.5536 70.859C26.0266 71.33 26.7906 71.33 27.2606 70.859L31.5846 66.532L31.5876 71.49C31.5876 72.023 31.7996 72.532 32.1766 72.908C32.5556 73.285 33.0686 73.496 33.6016 73.493H33.6356V73.358H33.6376V73.496H33.6756C34.2106 73.499 34.7256 73.29 35.1046 72.911C35.4836 72.535 35.6966 72.023 35.6966 71.487L35.6886 66.529L40.0236 70.859C40.2496 71.086 40.5526 71.211 40.8736 71.211C41.1916 71.211 41.4976 71.083 41.7216 70.859L41.7406 70.841C42.2416 70.338 42.2406 69.527 41.7396 69.026L35.6906 62.985L35.6826 59.154L42.7736 66.234C43.1276 66.586 43.6046 66.784 44.1026 66.784C44.5986 66.784 45.0776 66.584 45.4286 66.231L45.4936 66.166C46.1406 65.518 46.1396 64.466 45.4926 63.819L35.6766 54.018V51.267L39.9456 55.528C40.1896 55.769 40.5166 55.905 40.8626 55.905C41.2066 55.905 41.5356 55.767 41.7776 55.523L41.7956 55.503C42.2596 55.037 42.2586 54.282 41.7916 53.816L35.6746 47.711L35.6636 44.738L38.0946 47.164C38.5336 47.602 39.2146 47.689 39.7526 47.375L39.6816 47.253H39.6826L39.6876 47.251L39.7566 47.372L39.7976 47.349C40.3116 47.05 40.5596 46.445 40.4046 45.87L39.4946 42.516L42.0866 43.999L44.3226 52.327C44.4956 52.972 45.1606 53.356 45.8066 53.183L45.8826 53.163C46.1936 53.079 46.4586 52.876 46.6186 52.598C46.7796 52.319 46.8236 51.989 46.7406 51.677L45.1586 45.772L47.5436 47.15L51.1066 60.388C51.3676 61.36 52.3656 61.934 53.3346 61.673L53.3696 61.662C54.3176 61.407 54.8796 60.433 54.6256 59.485L52.0026 49.719L55.3136 51.627L57.5536 59.953C57.7296 60.598 58.3946 60.981 59.0416 60.808L59.1196 60.786C59.7656 60.613 60.1496 59.947 59.9766 59.301L58.3946 53.404L62.6896 55.873C63.1506 56.14 63.6996 56.209 64.2136 56.071C64.7276 55.93 65.1666 55.594 65.4296 55.131L65.4486 55.102L65.3246 55.031L65.4446 55.1L65.5296 54.954C65.7806 54.517 65.8466 54.003 65.7176 53.518C65.5856 53.034 65.2696 52.622 64.8346 52.372L60.4326 49.84L66.3356 48.256C66.6476 48.175 66.9126 47.971 67.0736 47.692C67.2326 47.413 67.2766 47.08 67.1926 46.768L67.1716 46.69C66.9966 46.045 66.3316 45.664 65.6866 45.836L57.3556 48.072L54.0386 46.158L63.8026 43.535C64.2606 43.413 64.6506 43.112 64.8856 42.701C65.1226 42.292 65.1846 41.805 65.0616 41.347L65.0506 41.306C64.7906 40.345 63.7996 39.774 62.8356 40.034L49.5966 43.591L47.2156 42.223L53.1056 40.632C53.4176 40.548 53.6796 40.346 53.8416 40.064C54.0006 39.786 54.0446 39.455 53.9606 39.144L53.9396 39.065C53.7636 38.418 53.0976 38.037 52.4536 38.21L44.1316 40.449L41.5536 38.965L44.8696 38.067C45.4656 37.905 45.8796 37.366 45.8796 36.746H45.7386V36.72H45.9006C45.9016 36.105 45.4906 35.567 44.8976 35.407L41.5616 34.508L44.1446 33.022L52.4736 35.242C53.1206 35.413 53.7856 35.029 53.9576 34.382L53.9786 34.303C54.0616 33.991 54.0176 33.661 53.8576 33.382C53.6946 33.104 53.4296 32.902 53.1196 32.817L47.2156 31.244L49.5956 29.866L62.9546 33.432C63.3886 33.548 63.8536 33.486 64.2436 33.261C64.6336 33.033 64.9196 32.662 65.0356 32.227C65.3106 31.193 64.6956 30.128 63.6616 29.855L54.0536 27.291L57.3566 25.383L65.6926 27.602ZM27.8956 37.699L24.4156 36.778H24.2286L24.2566 36.749L24.4486 36.748L27.9086 35.817L29.5226 36.754L29.7516 36.753L29.7316 36.768H29.5006L29.5096 36.777L27.8956 37.699ZM31.5586 40.331L31.5556 42.188L29.0176 44.722L28.7526 45.187L28.7496 45.189L29.0156 44.722L29.9486 41.253L31.5586 40.327L31.6986 40.087L31.7006 40.086L31.5586 40.331ZM31.7206 33.431L31.5766 33.182L29.9586 32.255L29.0356 28.796L29.0246 28.776L31.5706 31.322L31.5816 33.183L31.5776 33.181L31.7206 33.427V33.431ZM35.5436 33.417L35.6796 33.18L35.6826 31.321L38.2226 28.787L38.4846 28.331L38.4866 28.329L38.2236 28.787L37.2936 32.252L35.6816 33.181L35.5436 33.42V33.417V33.417ZM38.2306 44.749L38.2066 44.709L38.2166 44.729L35.6676 42.183L35.6606 40.321L35.6656 40.324L35.5236 40.076L35.5306 40.081L35.6656 40.316L37.2836 41.244L38.2086 44.704L38.2336 44.748L38.2306 44.749ZM42.8256 36.723H43.0166L42.9856 36.758H42.7926L39.3316 37.691L37.7186 36.753L37.4876 36.754L37.5116 36.737V36.736L37.7406 36.737L37.7306 36.729L39.3456 35.805L42.8256 36.723Z" fill="#D6D6D6"/>
</svg>
