<svg width="300" height="25" viewBox="0 0 300 25" fill="none" xmlns="http://www.w3.org/2000/svg">
<path d="M1.05472 7.48914L4.76869 0.800469C5.00806 0.375361 5.27735 0.162807 5.57656 0.162807C5.77105 0.162807 5.92813 0.239688 6.04782 0.393451C6.1675 0.538168 6.22735 0.737155 6.22735 0.990411V9.28002H5.17262V1.99439L1.38011 8.84586C1.29035 8.99963 1.18189 9.12173 1.05472 9.21218C0.935037 9.30263 0.807872 9.34785 0.673227 9.34785C0.463778 9.34785 0.299212 9.27097 0.179527 9.11721C0.0598424 8.9544 0 8.74185 0 8.47955V0.230643H1.05472V7.48914Z" fill="white"/>
<path d="M8.56155 0.162807C8.81588 0.162807 9.03655 0.352749 9.22355 0.732632L11.5798 5.45405L13.8913 0.814037C14.0109 0.57887 14.1269 0.411541 14.2391 0.312047C14.3513 0.212554 14.4859 0.162807 14.643 0.162807C14.8151 0.162807 14.9535 0.239688 15.0582 0.393451C15.1704 0.538168 15.2265 0.732632 15.2265 0.976843V9.28002H14.2167V2.1572L12.1409 6.33592C12.0062 6.60726 11.8155 6.74294 11.5686 6.74294C11.4489 6.74294 11.333 6.70223 11.2208 6.62083C11.1086 6.53943 11.0188 6.42637 10.9515 6.28165L8.94304 2.21147V9.28002H7.9332V0.990411C7.9332 0.72811 7.98931 0.524601 8.10151 0.379884C8.21372 0.235166 8.36706 0.162807 8.56155 0.162807Z" fill="white"/>
<path d="M17.5015 9.28002C17.3295 9.28002 17.1911 9.22122 17.0864 9.10364C16.9816 8.98606 16.9293 8.80968 16.9293 8.57452V0.230643H21.6419V1.38386H18.0064V4.01591H20.7442V5.1827H18.0064V8.11323H21.9112V9.28002H17.5015Z" fill="white"/>
<path d="M29.8154 9.51066C29.3068 9.51066 28.828 9.40212 28.3792 9.18505C27.9379 8.96797 27.5489 8.66949 27.2123 8.28961C26.8757 7.90068 26.6026 7.44391 26.3932 6.91931C26.1838 6.38566 26.0566 5.80679 26.0117 5.1827H24.3399V9.28002H23.2627V0.230643H24.3399V4.01591H26.0454C26.1127 3.43704 26.2548 2.9034 26.4717 2.41497C26.6962 1.91751 26.9767 1.4924 27.3133 1.13965C27.6499 0.777857 28.0314 0.497466 28.4578 0.298479C28.8841 0.0994932 29.3367 0 29.8154 0C30.3465 0 30.844 0.122106 31.3078 0.366317C31.7715 0.601482 32.1755 0.931619 32.5196 1.35673C32.8637 1.78184 33.1329 2.28382 33.3274 2.8627C33.5294 3.44157 33.6304 4.07018 33.6304 4.74855C33.6304 5.42691 33.5294 6.06005 33.3274 6.64797C33.1329 7.22684 32.8637 7.72882 32.5196 8.15393C32.1829 8.57904 31.7828 8.9137 31.319 9.15791C30.8552 9.39308 30.354 9.51066 29.8154 9.51066ZM29.8154 8.28961C30.1969 8.28961 30.5522 8.20368 30.8814 8.03183C31.2105 7.85093 31.4948 7.60672 31.7341 7.29919C31.9735 6.98262 32.1605 6.60726 32.2952 6.17311C32.4373 5.72991 32.5083 5.25054 32.5083 4.73498C32.5083 4.20133 32.441 3.71743 32.3064 3.28328C32.1717 2.84913 31.9847 2.47829 31.7453 2.17076C31.506 1.85419 31.2217 1.60998 30.8926 1.43813C30.5635 1.26628 30.2044 1.18035 29.8154 1.18035C29.4265 1.18035 29.0674 1.26628 28.7383 1.43813C28.4091 1.60998 28.1249 1.85419 27.8855 2.17076C27.6461 2.47829 27.4591 2.84913 27.3245 3.28328C27.1899 3.71743 27.1225 4.20133 27.1225 4.73498C27.1225 5.25054 27.1899 5.72991 27.3245 6.17311C27.4666 6.60726 27.6574 6.98262 27.8967 7.29919C28.1361 7.60672 28.4204 7.85093 28.7495 8.03183C29.0786 8.20368 29.4339 8.28961 29.8154 8.28961Z" fill="white"/>
<path d="M36.3403 1.37029H33.6586V0.230643H40.0879V1.37029H37.4175V9.28002H36.3403V1.37029Z" fill="white"/>
<path d="M46.2904 2.59135C46.036 2.14815 45.7107 1.80445 45.3142 1.56024C44.9177 1.30698 44.4951 1.18035 44.0463 1.18035C43.6274 1.18035 43.2459 1.26628 42.9018 1.43813C42.5577 1.60998 42.2622 1.85419 42.0154 2.17076C41.776 2.47829 41.589 2.85365 41.4544 3.29685C41.3197 3.731 41.2524 4.21942 41.2524 4.76211C41.2524 5.29576 41.316 5.77966 41.4431 6.21381C41.5778 6.63892 41.7648 7.00524 42.0042 7.31276C42.251 7.62029 42.5427 7.85998 42.8794 8.03183C43.216 8.19463 43.5937 8.27604 44.0126 8.27604C44.4465 8.27604 44.8429 8.17202 45.202 7.96399C45.561 7.75596 45.9276 7.41225 46.3016 6.93288L47.0534 7.69265C46.9187 7.93686 46.7392 8.17202 46.5148 8.39814C46.2904 8.61522 46.0398 8.80516 45.763 8.96797C45.4862 9.13078 45.1945 9.25741 44.8878 9.34785C44.5886 9.44735 44.2969 9.49709 44.0126 9.49709C43.4366 9.49709 42.9093 9.38403 42.4305 9.15791C41.9518 8.93179 41.5404 8.6107 41.1963 8.19463C40.8522 7.77857 40.5867 7.2811 40.3996 6.70223C40.2126 6.12336 40.1191 5.4857 40.1191 4.78925C40.1191 4.10184 40.2164 3.46418 40.4109 2.87626C40.6053 2.28835 40.8746 1.78636 41.2187 1.37029C41.5703 0.945187 41.9855 0.615049 42.4642 0.379884C42.9429 0.135673 43.4666 0.0135671 44.0351 0.0135671C44.3418 0.0135671 44.641 0.0587913 44.9327 0.14924C45.2319 0.230643 45.5124 0.348227 45.7742 0.501989C46.036 0.655751 46.2754 0.845693 46.4923 1.07181C46.7168 1.28889 46.9038 1.5331 47.0534 1.80445L46.2904 2.59135Z" fill="white"/>
<path d="M47.4543 9.28002C47.589 8.86395 47.7348 8.45241 47.8919 8.04539C48.049 7.63838 48.2061 7.26301 48.3632 6.91931C48.5203 6.57561 48.6736 6.26808 48.8232 5.99674C48.9803 5.72539 49.1224 5.50831 49.2496 5.34551C48.7858 5.13747 48.4305 4.82543 48.1836 4.40936C47.9443 3.9933 47.8246 3.48679 47.8246 2.88983C47.8246 2.07579 48.049 1.42909 48.4978 0.949709C48.9541 0.470332 49.5974 0.230643 50.4277 0.230643H52.8177V9.28002H51.7742V5.57615H50.7307C50.424 5.57615 50.1547 5.77966 49.9228 6.18668C49.6984 6.5937 49.474 7.06403 49.2496 7.59767C49.0252 8.12228 48.8083 8.68306 48.5988 9.28002H47.4543ZM51.7742 4.4772V1.35673H50.3604C49.9116 1.35673 49.56 1.49692 49.3057 1.77731C49.0514 2.04866 48.9242 2.43306 48.9242 2.93053C48.9242 3.41895 49.0551 3.79884 49.3169 4.07018C49.5787 4.34153 49.934 4.4772 50.3829 4.4772H51.7742Z" fill="white"/>
<path d="M62.7676 0.230643V9.28002H61.6904V1.39743H57.6286V9.28002H56.5515V0.230643H62.7676Z" fill="white"/>
<path d="M64.4847 0.230643H66.8522C67.3608 0.230643 67.7797 0.316569 68.1089 0.488422C68.4455 0.660274 68.711 0.877351 68.9055 1.13965C69.1075 1.40195 69.2459 1.69591 69.3207 2.02152C69.403 2.34714 69.4441 2.66371 69.4441 2.97123C69.4441 3.42348 69.3805 3.82145 69.2534 4.16515C69.1262 4.50886 68.9504 4.79829 68.726 5.03346C68.5016 5.25958 68.2323 5.43143 67.9181 5.54902C67.6114 5.6666 67.2748 5.72539 66.9083 5.72539H65.5506V9.28002H64.4847V0.230643ZM66.8971 4.61287C67.3608 4.61287 67.7162 4.47268 67.963 4.19229C68.2173 3.90285 68.3445 3.50488 68.3445 2.99837C68.3445 2.48281 68.2136 2.08032 67.9518 1.79088C67.6975 1.4924 67.3459 1.34316 66.8971 1.34316H65.5506V4.61287H66.8971Z" fill="white"/>
<path d="M74.3546 8.28961C74.766 8.28961 75.1438 8.20368 75.4879 8.03183C75.832 7.85093 76.1275 7.60672 76.3743 7.29919C76.6212 6.98262 76.8119 6.60726 76.9466 6.17311C77.0887 5.72991 77.1597 5.25054 77.1597 4.73498C77.1597 4.20133 77.0924 3.71743 76.9578 3.28328C76.8231 2.84913 76.6324 2.47829 76.3855 2.17076C76.1387 1.85419 75.8432 1.60998 75.4991 1.43813C75.155 1.26628 74.7735 1.18035 74.3546 1.18035C73.9357 1.18035 73.5542 1.26628 73.2101 1.43813C72.8661 1.60998 72.5706 1.85419 72.3237 2.17076C72.0769 2.47829 71.8861 2.84913 71.7515 3.28328C71.6168 3.71743 71.5495 4.20133 71.5495 4.73498C71.5495 5.25054 71.6168 5.72991 71.7515 6.17311C71.8936 6.60726 72.0881 6.98262 72.335 7.29919C72.5818 7.60672 72.8773 7.85093 73.2214 8.03183C73.5655 8.20368 73.9432 8.28961 74.3546 8.28961ZM74.3546 9.51066C73.7936 9.51066 73.27 9.39308 72.7838 9.15791C72.305 8.9137 71.8899 8.57904 71.5383 8.15393C71.1942 7.72882 70.9212 7.22684 70.7192 6.64797C70.5247 6.06005 70.4275 5.42691 70.4275 4.74855C70.4275 4.07018 70.5285 3.44157 70.7304 2.8627C70.9324 2.28382 71.2092 1.78184 71.5607 1.35673C71.9123 0.931619 72.3275 0.601482 72.8062 0.366317C73.2849 0.122106 73.8011 0 74.3546 0C74.9157 0 75.4355 0.122106 75.9143 0.366317C76.393 0.601482 76.8082 0.931619 77.1597 1.35673C77.5113 1.78184 77.7843 2.28382 77.9788 2.8627C78.1808 3.44157 78.2818 4.07018 78.2818 4.74855C78.2818 5.42691 78.1808 6.06005 77.9788 6.64797C77.7843 7.22684 77.5113 7.72882 77.1597 8.15393C76.8156 8.57904 76.4005 8.9137 75.9143 9.15791C75.4355 9.39308 74.9157 9.51066 74.3546 9.51066Z" fill="white"/>
<path d="M80.992 1.37029H78.3103V0.230643H84.7396V1.37029H82.0691V9.28002H80.992V1.37029Z" fill="white"/>
<path d="M86.9174 7.48914L90.6314 0.800469C90.8707 0.375361 91.14 0.162807 91.4392 0.162807C91.6337 0.162807 91.7908 0.239688 91.9105 0.393451C92.0302 0.538168 92.09 0.737155 92.09 0.990411V9.28002H91.0353V1.99439L87.2428 8.84586C87.153 8.99963 87.0446 9.12173 86.9174 9.21218C86.7977 9.30263 86.6706 9.34785 86.5359 9.34785C86.3265 9.34785 86.1619 9.27097 86.0422 9.11721C85.9225 8.9544 85.8627 8.74185 85.8627 8.47955V0.230643H86.9174V7.48914Z" fill="white"/>
<path d="M93.7959 0.230643H96.3317C96.7207 0.230643 97.0573 0.293957 97.3415 0.420585C97.6258 0.538168 97.8614 0.700976 98.0484 0.909007C98.2354 1.11704 98.3738 1.36125 98.4636 1.64164C98.5608 1.92203 98.6095 2.22051 98.6095 2.53708C98.6095 2.82652 98.5683 3.08429 98.486 3.31042C98.4037 3.53654 98.3028 3.73552 98.1831 3.90738C98.0634 4.07018 97.9288 4.20133 97.7791 4.30083C97.637 4.40032 97.5061 4.46363 97.3864 4.49077C97.536 4.5179 97.7043 4.57669 97.8913 4.66714C98.0784 4.74855 98.2541 4.87517 98.4187 5.04703C98.5833 5.21888 98.7217 5.445 98.8339 5.72539C98.9461 5.99674 99.0022 6.33592 99.0022 6.74294C99.0022 7.23136 98.9274 7.63838 98.7778 7.96399C98.6356 8.28056 98.4374 8.53834 98.1831 8.73733C97.9362 8.93631 97.6408 9.07651 97.2967 9.15791C96.9526 9.23932 96.586 9.28002 96.1971 9.28002H93.7959V0.230643ZM96.141 8.15393C96.3355 8.15393 96.5374 8.14037 96.7469 8.11323C96.9563 8.0861 97.1471 8.02278 97.3191 7.92329C97.4986 7.8238 97.6445 7.67908 97.7567 7.48914C97.8689 7.29015 97.925 7.0188 97.925 6.6751C97.925 6.34949 97.8689 6.08718 97.7567 5.8882C97.652 5.68921 97.5136 5.53093 97.3415 5.41334C97.177 5.29576 96.9937 5.21888 96.7917 5.1827C96.5898 5.13748 96.3953 5.11486 96.2083 5.11486H94.8394V8.15393H96.141ZM96.1746 4.00235C96.3392 4.00235 96.5038 3.97973 96.6683 3.93451C96.8329 3.88024 96.9825 3.79884 97.1171 3.6903C97.2518 3.58176 97.3603 3.44157 97.4425 3.26971C97.5248 3.09786 97.566 2.88983 97.566 2.64562C97.566 2.37427 97.5248 2.1572 97.4425 1.99439C97.3603 1.82254 97.2518 1.69139 97.1171 1.60094C96.9825 1.50144 96.8329 1.43813 96.6683 1.411C96.5038 1.37482 96.3392 1.35673 96.1746 1.35673H94.8394V4.00235H96.1746Z" fill="white"/>
<path d="M104.038 8.28961C104.45 8.28961 104.828 8.20368 105.172 8.03183C105.516 7.85093 105.811 7.60672 106.058 7.29919C106.305 6.98262 106.496 6.60726 106.63 6.17311C106.772 5.72991 106.844 5.25054 106.844 4.73498C106.844 4.20133 106.776 3.71743 106.642 3.28328C106.507 2.84913 106.316 2.47829 106.069 2.17076C105.822 1.85419 105.527 1.60998 105.183 1.43813C104.839 1.26628 104.457 1.18035 104.038 1.18035C103.62 1.18035 103.238 1.26628 102.894 1.43813C102.55 1.60998 102.254 1.85419 102.008 2.17076C101.761 2.47829 101.57 2.84913 101.435 3.28328C101.301 3.71743 101.233 4.20133 101.233 4.73498C101.233 5.25054 101.301 5.72991 101.435 6.17311C101.577 6.60726 101.772 6.98262 102.019 7.29919C102.266 7.60672 102.561 7.85093 102.905 8.03183C103.249 8.20368 103.627 8.28961 104.038 8.28961ZM104.038 9.51066C103.477 9.51066 102.954 9.39308 102.468 9.15791C101.989 8.9137 101.574 8.57904 101.222 8.15393C100.878 7.72882 100.605 7.22684 100.403 6.64797C100.208 6.06005 100.111 5.42691 100.111 4.74855C100.111 4.07018 100.212 3.44157 100.414 2.8627C100.616 2.28382 100.893 1.78184 101.245 1.35673C101.596 0.931619 102.011 0.601482 102.49 0.366317C102.969 0.122106 103.485 0 104.038 0C104.599 0 105.119 0.122106 105.598 0.366317C106.077 0.601482 106.492 0.931619 106.844 1.35673C107.195 1.78184 107.468 2.28382 107.663 2.8627C107.865 3.44157 107.966 4.07018 107.966 4.74855C107.966 5.42691 107.865 6.06005 107.663 6.64797C107.468 7.22684 107.195 7.72882 106.844 8.15393C106.499 8.57904 106.084 8.9137 105.598 9.15791C105.119 9.39308 104.599 9.51066 104.038 9.51066Z" fill="white"/>
<path d="M115.583 0.230643V9.28002H114.505V1.39743H110.444V9.28002H109.366V0.230643H115.583Z" fill="white"/>
<path d="M120.924 8.28961C121.335 8.28961 121.713 8.20368 122.057 8.03183C122.401 7.85093 122.697 7.60672 122.944 7.29919C123.19 6.98262 123.381 6.60726 123.516 6.17311C123.658 5.72991 123.729 5.25054 123.729 4.73498C123.729 4.20133 123.662 3.71743 123.527 3.28328C123.392 2.84913 123.202 2.47829 122.955 2.17076C122.708 1.85419 122.412 1.60998 122.068 1.43813C121.724 1.26628 121.343 1.18035 120.924 1.18035C120.505 1.18035 120.123 1.26628 119.779 1.43813C119.435 1.60998 119.14 1.85419 118.893 2.17076C118.646 2.47829 118.455 2.84913 118.321 3.28328C118.186 3.71743 118.119 4.20133 118.119 4.73498C118.119 5.25054 118.186 5.72991 118.321 6.17311C118.463 6.60726 118.657 6.98262 118.904 7.29919C119.151 7.60672 119.446 7.85093 119.791 8.03183C120.135 8.20368 120.512 8.28961 120.924 8.28961ZM120.924 9.51066C120.363 9.51066 119.839 9.39308 119.353 9.15791C118.874 8.9137 118.459 8.57904 118.108 8.15393C117.763 7.72882 117.49 7.22684 117.288 6.64797C117.094 6.06005 116.997 5.42691 116.997 4.74855C116.997 4.07018 117.098 3.44157 117.3 2.8627C117.502 2.28382 117.778 1.78184 118.13 1.35673C118.482 0.931619 118.897 0.601482 119.375 0.366317C119.854 0.122106 120.37 0 120.924 0C121.485 0 122.005 0.122106 122.483 0.366317C122.962 0.601482 123.377 0.931619 123.729 1.35673C124.081 1.78184 124.354 2.28382 124.548 2.8627C124.75 3.44157 124.851 4.07018 124.851 4.74855C124.851 5.42691 124.75 6.06005 124.548 6.64797C124.354 7.22684 124.081 7.72882 123.729 8.15393C123.385 8.57904 122.97 8.9137 122.483 9.15791C122.005 9.39308 121.485 9.51066 120.924 9.51066Z" fill="white"/>
<path d="M130.493 3.17474C130.299 3.58176 130.119 3.89381 129.955 4.11088C129.798 4.31892 129.611 4.47268 129.394 4.57217C129.798 4.89779 130.216 5.445 130.65 6.21381C131.084 6.98262 131.552 8.00469 132.053 9.28002H130.886C130.721 8.88204 130.583 8.55643 130.471 8.30317C130.359 8.04087 130.254 7.81023 130.157 7.61124C130.059 7.40321 129.958 7.1997 129.854 7.00071C129.749 6.80173 129.618 6.56656 129.461 6.29522C129.222 5.87915 128.997 5.58972 128.788 5.42691C128.586 5.2641 128.35 5.1827 128.081 5.1827H127.329V9.28002H126.252V0.230643H127.329V4.01591H128.215C128.492 4.01591 128.72 3.94808 128.9 3.8124C129.079 3.67673 129.244 3.45061 129.394 3.13404L130.729 0.230643H131.907L130.493 3.17474Z" fill="white"/>
<path d="M137.671 6.7565H134.596L133.833 9.28002H132.7L135.427 0.854738C135.576 0.393451 135.834 0.162807 136.201 0.162807C136.537 0.162807 136.784 0.402496 136.941 0.881873L139.657 9.28002H138.456L137.671 6.7565ZM136.145 1.58737L134.922 5.65755H137.345L136.145 1.58737Z" fill="white"/>
<path d="M141.784 4.02948H142.861C143.048 4.02948 143.223 4.00235 143.388 3.94808C143.553 3.89381 143.698 3.80788 143.826 3.6903C143.953 3.57272 144.054 3.42348 144.129 3.24258C144.203 3.06168 144.241 2.84461 144.241 2.59135C144.241 2.32905 144.2 2.10745 144.117 1.92655C144.043 1.74566 143.938 1.60094 143.803 1.4924C143.676 1.37482 143.53 1.29341 143.366 1.24819C143.201 1.19392 143.033 1.16679 142.861 1.16679C142.621 1.16679 142.408 1.20749 142.221 1.28889C142.034 1.37029 141.87 1.47431 141.727 1.60094C141.593 1.72757 141.473 1.86324 141.368 2.00796C141.264 2.15267 141.174 2.28382 141.099 2.40141L140.347 1.72304C140.445 1.54215 140.564 1.3522 140.706 1.15322C140.856 0.954231 141.035 0.768812 141.245 0.59696C141.462 0.425108 141.709 0.284913 141.986 0.176375C142.27 0.0678363 142.591 0.0135671 142.95 0.0135671C143.332 0.0135671 143.669 0.0814034 143.96 0.217076C144.26 0.343704 144.506 0.515556 144.701 0.732632C144.903 0.949709 145.052 1.20749 145.15 1.50597C145.254 1.7954 145.307 2.10293 145.307 2.42854C145.307 2.93505 145.191 3.3873 144.959 3.78527C144.735 4.1742 144.42 4.42745 144.016 4.54504C144.218 4.59931 144.409 4.68975 144.589 4.81638C144.776 4.93397 144.936 5.08773 145.071 5.27767C145.213 5.46761 145.325 5.69373 145.408 5.95603C145.49 6.21833 145.531 6.52134 145.531 6.86504C145.531 7.31728 145.46 7.71074 145.318 8.04539C145.183 8.37101 144.996 8.64235 144.757 8.85943C144.518 9.07651 144.241 9.23479 143.927 9.33429C143.612 9.44282 143.276 9.49709 142.917 9.49709C142.52 9.49709 142.169 9.4383 141.862 9.32072C141.555 9.20314 141.286 9.05842 141.054 8.88657C140.83 8.71471 140.639 8.52929 140.482 8.33031C140.332 8.13132 140.213 7.95042 140.123 7.78762L140.897 7.09569C140.964 7.20422 141.05 7.33085 141.155 7.47557C141.26 7.62029 141.391 7.75596 141.548 7.88259C141.705 8.00922 141.892 8.11775 142.109 8.2082C142.326 8.29865 142.576 8.34387 142.861 8.34387C143.07 8.34387 143.268 8.31674 143.455 8.26247C143.65 8.19916 143.818 8.10419 143.96 7.97756C144.11 7.85093 144.226 7.6836 144.308 7.47557C144.398 7.25849 144.443 7.00071 144.443 6.70223C144.443 6.40375 144.398 6.15502 144.308 5.95603C144.226 5.75705 144.114 5.59876 143.972 5.48118C143.837 5.3636 143.68 5.28219 143.5 5.23697C143.321 5.1827 143.137 5.15556 142.95 5.15556H141.784V4.02948Z" fill="white"/>
<path d="M150.918 6.7565H147.844L147.081 9.28002H145.948L148.674 0.854738C148.824 0.393451 149.082 0.162807 149.448 0.162807C149.785 0.162807 150.032 0.402496 150.189 0.881873L152.904 9.28002H151.704L150.918 6.7565ZM149.392 1.58737L148.169 5.65755H150.593L149.392 1.58737Z" fill="white"/>
<path d="M153.887 0.230643H154.964V4.01591H159.059V0.230643H160.136V9.28002H159.059V5.1827H154.964V9.28002H153.887V0.230643Z" fill="white"/>
<path d="M162.896 7.48914L166.61 0.800469C166.85 0.375361 167.119 0.162807 167.418 0.162807C167.613 0.162807 167.77 0.239688 167.89 0.393451C168.009 0.538168 168.069 0.737155 168.069 0.990411V9.28002H167.014V1.99439L163.222 8.84586C163.132 8.99963 163.024 9.12173 162.896 9.21218C162.777 9.30263 162.65 9.34785 162.515 9.34785C162.306 9.34785 162.141 9.27097 162.021 9.11721C161.902 8.9544 161.842 8.74185 161.842 8.47955V0.230643H162.896V7.48914Z" fill="white"/>
<path d="M169.203 9.28002C169.337 8.86395 169.483 8.45241 169.64 8.04539C169.797 7.63838 169.954 7.26301 170.112 6.91931C170.269 6.57561 170.422 6.26808 170.572 5.99674C170.729 5.72539 170.871 5.50831 170.998 5.34551C170.534 5.13747 170.179 4.82543 169.932 4.40936C169.693 3.9933 169.573 3.48679 169.573 2.88983C169.573 2.07579 169.797 1.42909 170.246 0.949709C170.702 0.470332 171.346 0.230643 172.176 0.230643H174.566V9.28002H173.523V5.57615H172.479C172.172 5.57615 171.903 5.77966 171.671 6.18668C171.447 6.5937 171.222 7.06403 170.998 7.59767C170.774 8.12228 170.557 8.68306 170.347 9.28002H169.203ZM173.523 4.4772V1.35673H172.109C171.66 1.35673 171.308 1.49692 171.054 1.77731C170.8 2.04866 170.673 2.43306 170.673 2.93053C170.673 3.41895 170.803 3.79884 171.065 4.07018C171.327 4.34153 171.682 4.4772 172.131 4.4772H173.523Z" fill="white"/>
<path d="M176.845 9.33429C176.65 9.33429 176.486 9.2574 176.351 9.10364C176.224 8.94083 176.161 8.74185 176.161 8.50668C176.161 8.27152 176.224 8.07705 176.351 7.92329C176.486 7.76048 176.65 7.67908 176.845 7.67908C177.039 7.67908 177.2 7.76048 177.327 7.92329C177.462 8.07705 177.529 8.27152 177.529 8.50668C177.529 8.74185 177.462 8.94083 177.327 9.10364C177.2 9.2574 177.039 9.33429 176.845 9.33429Z" fill="white"/>
<path d="M187.398 0.230643V9.28002H186.321V1.39743H182.259V9.28002H181.182V0.230643H187.398Z" fill="white"/>
<path d="M189.687 9.28002C189.515 9.28002 189.377 9.22122 189.272 9.10364C189.167 8.98606 189.115 8.80968 189.115 8.57452V0.230643H193.827V1.38386H190.192V4.01591H192.93V5.1827H190.192V8.11323H194.097V9.28002H189.687Z" fill="white"/>
<path d="M195.448 0.230643H197.816C198.324 0.230643 198.743 0.316569 199.072 0.488422C199.409 0.660274 199.675 0.877351 199.869 1.13965C200.071 1.40195 200.209 1.69591 200.284 2.02152C200.367 2.34714 200.408 2.66371 200.408 2.97123C200.408 3.42348 200.344 3.82145 200.217 4.16515C200.09 4.50886 199.914 4.79829 199.69 5.03346C199.465 5.25958 199.196 5.43143 198.882 5.54902C198.575 5.6666 198.238 5.72539 197.872 5.72539H196.514V9.28002H195.448V0.230643ZM197.861 4.61287C198.324 4.61287 198.68 4.47268 198.927 4.19229C199.181 3.90285 199.308 3.50488 199.308 2.99837C199.308 2.48281 199.177 2.08032 198.915 1.79088C198.661 1.4924 198.309 1.34316 197.861 1.34316H196.514V4.61287H197.861Z" fill="white"/>
<path d="M202.376 9.28002C202.204 9.28002 202.065 9.22122 201.961 9.10364C201.856 8.98606 201.804 8.80968 201.804 8.57452V0.230643H206.516V1.38386H202.881V4.01591H205.619V5.1827H202.881V8.11323H206.785V9.28002H202.376Z" fill="white"/>
<path d="M213.686 1.39743H211.116C211.057 2.2386 210.982 2.98932 210.892 3.6496C210.802 4.30987 210.69 4.90683 210.555 5.44048C210.428 5.96508 210.275 6.44446 210.095 6.87861C209.923 7.31276 209.729 7.7243 209.512 8.11323H213.686V1.39743ZM210.151 0.854738C210.166 0.664796 210.219 0.515556 210.309 0.407018C210.398 0.289435 210.529 0.230643 210.701 0.230643H214.729V8.11323H215.358V11.3694H214.382V9.28002H208.715V11.3694H207.739V8.11323H208.323C208.607 7.67003 208.85 7.20422 209.052 6.7158C209.254 6.22738 209.426 5.69373 209.568 5.11486C209.718 4.53599 209.837 3.89833 209.927 3.20188C210.017 2.50542 210.092 1.72304 210.151 0.854738Z" fill="white"/>
<path d="M224.861 0.230643V9.28002H223.784V1.39743H219.722V9.28002H218.645V0.230643H224.861Z" fill="white"/>
<path d="M226.578 0.230643H228.946C229.455 0.230643 229.874 0.316569 230.203 0.488422C230.539 0.660274 230.805 0.877351 230.999 1.13965C231.201 1.40195 231.34 1.69591 231.414 2.02152C231.497 2.34714 231.538 2.66371 231.538 2.97123C231.538 3.42348 231.474 3.82145 231.347 4.16515C231.22 4.50886 231.044 4.79829 230.82 5.03346C230.595 5.25958 230.326 5.43143 230.012 5.54902C229.705 5.6666 229.369 5.72539 229.002 5.72539H227.644V9.28002H226.578V0.230643ZM228.991 4.61287C229.455 4.61287 229.81 4.47268 230.057 4.19229C230.311 3.90285 230.438 3.50488 230.438 2.99837C230.438 2.48281 230.307 2.08032 230.046 1.79088C229.791 1.4924 229.44 1.34316 228.991 1.34316H227.644V4.61287H228.991Z" fill="white"/>
<path d="M233.988 7.48914L237.702 0.800469C237.942 0.375361 238.211 0.162807 238.51 0.162807C238.705 0.162807 238.862 0.239688 238.982 0.393451C239.101 0.538168 239.161 0.737155 239.161 0.990411V9.28002H238.106V1.99439L234.314 8.84586C234.224 8.99963 234.116 9.12173 233.988 9.21218C233.869 9.30263 233.742 9.34785 233.607 9.34785C233.398 9.34785 233.233 9.27097 233.113 9.11721C232.994 8.9544 232.934 8.74185 232.934 8.47955V0.230643H233.988V7.48914Z" fill="white"/>
<path d="M241.495 0.162807C241.75 0.162807 241.97 0.352749 242.157 0.732632L244.514 5.45405L246.825 0.814037C246.945 0.57887 247.061 0.411541 247.173 0.312047C247.285 0.212554 247.42 0.162807 247.577 0.162807C247.749 0.162807 247.887 0.239688 247.992 0.393451C248.104 0.538168 248.16 0.732632 248.16 0.976843V9.28002H247.15V2.1572L245.075 6.33592C244.94 6.60726 244.749 6.74294 244.502 6.74294C244.383 6.74294 244.267 6.70223 244.155 6.62083C244.042 6.53943 243.953 6.42637 243.885 6.28165L241.877 2.21147V9.28002H240.867V0.990411C240.867 0.72811 240.923 0.524601 241.035 0.379884C241.147 0.235166 241.301 0.162807 241.495 0.162807Z" fill="white"/>
<path d="M250.435 9.28002C250.263 9.28002 250.125 9.22122 250.02 9.10364C249.915 8.98606 249.863 8.80968 249.863 8.57452V0.230643H254.576V1.38386H250.94V4.01591H253.678V5.1827H250.94V8.11323H254.845V9.28002H250.435Z" fill="white"/>
<path d="M256.196 0.230643H257.274V4.01591H261.369V0.230643H262.446V9.28002H261.369V5.1827H257.274V9.28002H256.196V0.230643Z" fill="white"/>
<path d="M264.724 9.28002C264.552 9.28002 264.413 9.22122 264.309 9.10364C264.204 8.98606 264.152 8.80968 264.152 8.57452V0.230643H268.864V1.38386H265.229V4.01591H267.967V5.1827H265.229V8.11323H269.133V9.28002H264.724Z" fill="white"/>
<path d="M270.485 0.230643H271.562V4.01591H275.658V0.230643H276.735V9.28002H275.658V5.1827H271.562V9.28002H270.485V0.230643Z" fill="white"/>
<path d="M279.495 7.48914L283.209 0.800469C283.448 0.375361 283.717 0.162807 284.017 0.162807C284.211 0.162807 284.368 0.239688 284.488 0.393451C284.608 0.538168 284.667 0.737155 284.667 0.990411V9.28002H283.613V1.99439L279.82 8.84586C279.73 8.99963 279.622 9.12173 279.495 9.21218C279.375 9.30263 279.248 9.34785 279.113 9.34785C278.904 9.34785 278.739 9.27097 278.62 9.11721C278.5 8.9544 278.44 8.74185 278.44 8.47955V0.230643H279.495V7.48914Z" fill="white"/>
<path d="M286.946 9.28002C286.774 9.28002 286.635 9.22122 286.53 9.10364C286.426 8.98606 286.373 8.80968 286.373 8.57452V0.230643H291.086V1.38386H287.45V4.01591H290.188V5.1827H287.45V8.11323H291.355V9.28002H286.946Z" fill="white"/>
<path d="M293.335 0.162807C293.589 0.162807 293.81 0.352749 293.997 0.732632L296.353 5.45405L298.665 0.814037C298.784 0.57887 298.9 0.411541 299.013 0.312047C299.125 0.212554 299.259 0.162807 299.417 0.162807C299.589 0.162807 299.727 0.239688 299.832 0.393451C299.944 0.538168 300 0.732632 300 0.976843V9.28002H298.99V2.1572L296.914 6.33592C296.78 6.60726 296.589 6.74294 296.342 6.74294C296.222 6.74294 296.107 6.70223 295.994 6.62083C295.882 6.53943 295.792 6.42637 295.725 6.28165L293.717 2.21147V9.28002H292.707V0.990411C292.707 0.72811 292.763 0.524601 292.875 0.379884C292.987 0.235166 293.141 0.162807 293.335 0.162807Z" fill="white"/>
<path d="M0 13.8613H0.967604V17.6465H4.64651V13.8613H5.61412V22.9106H4.64651V18.8133H0.967604V22.9106H0V13.8613Z" fill="white"/>
<path d="M7.66004 22.9106C7.50549 22.9106 7.38118 22.8518 7.28711 22.7343C7.19303 22.6167 7.146 22.4403 7.146 22.2051V13.8613H11.3793V15.0145H8.1136V17.6465H10.5729V18.8133H8.1136V21.7438H11.6212V22.9106H7.66004Z" fill="white"/>
<path d="M15.6873 21.9202C16.0568 21.9202 16.3962 21.8343 16.7053 21.6624C17.0144 21.4815 17.2798 21.2373 17.5015 20.9298C17.7233 20.6132 17.8946 20.2379 18.0156 19.8037C18.1432 19.3605 18.2071 18.8812 18.2071 18.3656C18.2071 17.8319 18.1466 17.348 18.0256 16.9139C17.9047 16.4797 17.7333 16.1089 17.5116 15.8014C17.2899 15.4848 17.0244 15.2406 16.7153 15.0687C16.4062 14.8969 16.0635 14.811 15.6873 14.811C15.311 14.811 14.9683 14.8969 14.6592 15.0687C14.3501 15.2406 14.0847 15.4848 13.8629 15.8014C13.6412 16.1089 13.4698 16.4797 13.3489 16.9139C13.2279 17.348 13.1675 17.8319 13.1675 18.3656C13.1675 18.8812 13.2279 19.3605 13.3489 19.8037C13.4766 20.2379 13.6513 20.6132 13.873 20.9298C14.0947 21.2373 14.3602 21.4815 14.6693 21.6624C14.9784 21.8343 15.3177 21.9202 15.6873 21.9202ZM15.6873 23.1413C15.1833 23.1413 14.7129 23.0237 14.2762 22.7885C13.8461 22.5443 13.4732 22.2097 13.1574 21.7845C12.8483 21.3594 12.603 20.8575 12.4216 20.2786C12.2469 19.6907 12.1595 19.0575 12.1595 18.3792C12.1595 17.7008 12.2502 17.0722 12.4317 16.4933C12.6131 15.9144 12.8617 15.4125 13.1775 14.9873C13.4934 14.5622 13.8663 14.2321 14.2963 13.9969C14.7264 13.7527 15.19 13.6306 15.6873 13.6306C16.1912 13.6306 16.6582 13.7527 17.0883 13.9969C17.5183 14.2321 17.8912 14.5622 18.2071 14.9873C18.5229 15.4125 18.7681 15.9144 18.9428 16.4933C19.1243 17.0722 19.215 17.7008 19.215 18.3792C19.215 19.0575 19.1243 19.6907 18.9428 20.2786C18.7681 20.8575 18.5229 21.3594 18.2071 21.7845C17.898 22.2097 17.525 22.5443 17.0883 22.7885C16.6582 23.0237 16.1912 23.1413 15.6873 23.1413Z" fill="white"/>
<path d="M24.5454 13.8613V14.9873H21.441V17.3888H22.7513C23.5173 17.3888 24.1086 17.633 24.5252 18.1214C24.9418 18.6008 25.1501 19.2656 25.1501 20.1158C25.1501 20.4685 25.1065 20.8167 25.0191 21.1605C24.9318 21.4951 24.7906 21.7936 24.5958 22.0559C24.4076 22.3091 24.1557 22.5172 23.8398 22.68C23.5307 22.8338 23.1511 22.9106 22.7009 22.9106H20.4734V13.8613H24.5454ZM21.441 21.7981H22.7311C23.1746 21.7981 23.5207 21.6624 23.7693 21.3911C24.0246 21.1198 24.1523 20.7082 24.1523 20.1565C24.1523 19.6138 24.0246 19.2022 23.7693 18.9219C23.5207 18.6415 23.1746 18.5013 22.7311 18.5013H21.441V21.7981Z" fill="white"/>
<path d="M28.0732 18.2299L25.8558 13.8613H27.0249L28.6578 17.1581L30.2704 13.8613H31.3288L29.1718 18.1892L31.5606 22.9106H30.4015L28.5973 19.261L26.7931 22.9106H25.7247L28.0732 18.2299Z" fill="white"/>
<path d="M35.2748 21.9202C35.6443 21.9202 35.9837 21.8343 36.2928 21.6624C36.6019 21.4815 36.8673 21.2373 37.089 20.9298C37.3108 20.6132 37.4821 20.2379 37.6031 19.8037C37.7307 19.3605 37.7946 18.8812 37.7946 18.3656C37.7946 17.8319 37.7341 17.348 37.6131 16.9139C37.4922 16.4797 37.3209 16.1089 37.0991 15.8014C36.8774 15.4848 36.6119 15.2406 36.3029 15.0687C35.9938 14.8969 35.6511 14.811 35.2748 14.811C34.8985 14.811 34.5558 14.8969 34.2467 15.0687C33.9376 15.2406 33.6722 15.4848 33.4504 15.8014C33.2287 16.1089 33.0573 16.4797 32.9364 16.9139C32.8154 17.348 32.755 17.8319 32.755 18.3656C32.755 18.8812 32.8154 19.3605 32.9364 19.8037C33.0641 20.2379 33.2388 20.6132 33.4605 20.9298C33.6823 21.2373 33.9477 21.4815 34.2568 21.6624C34.5659 21.8343 34.9052 21.9202 35.2748 21.9202ZM35.2748 23.1413C34.7708 23.1413 34.3004 23.0237 33.8637 22.7885C33.4336 22.5443 33.0607 22.2097 32.7449 21.7845C32.4358 21.3594 32.1905 20.8575 32.0091 20.2786C31.8344 19.6907 31.747 19.0575 31.747 18.3792C31.747 17.7008 31.8378 17.0722 32.0192 16.4933C32.2006 15.9144 32.4492 15.4125 32.7651 14.9873C33.0809 14.5622 33.4538 14.2321 33.8838 13.9969C34.3139 13.7527 34.7775 13.6306 35.2748 13.6306C35.7787 13.6306 36.2457 13.7527 36.6758 13.9969C37.1058 14.2321 37.4788 14.5622 37.7946 14.9873C38.1104 15.4125 38.3556 15.9144 38.5304 16.4933C38.7118 17.0722 38.8025 17.7008 38.8025 18.3792C38.8025 19.0575 38.7118 19.6907 38.5304 20.2786C38.3556 20.8575 38.1104 21.3594 37.7946 21.7845C37.4855 22.2097 37.1125 22.5443 36.6758 22.7885C36.2457 23.0237 35.7787 23.1413 35.2748 23.1413Z" fill="white"/>
<path d="M44.189 15.028H41.8809C41.8271 15.8692 41.76 16.6199 41.6793 17.2802C41.5987 17.9405 41.4979 18.5374 41.3769 19.0711C41.2627 19.5957 41.125 20.0751 40.9637 20.5092C40.8091 20.9434 40.6344 21.3549 40.4396 21.7438H44.189V15.028ZM41.0141 14.4854C41.0275 14.2954 41.0746 14.1462 41.1552 14.0376C41.2358 13.92 41.3534 13.8613 41.508 13.8613H45.1264V21.7438H45.6908V25H44.814V22.9106H39.724V25H38.8471V21.7438H39.3712C39.6265 21.3006 39.8449 20.8348 40.0263 20.3464C40.2078 19.858 40.3623 19.3243 40.49 18.7455C40.6244 18.1666 40.7319 17.5289 40.8125 16.8325C40.8931 16.136 40.9603 15.3537 41.0141 14.4854Z" fill="white"/>
<path d="M47.7705 21.1198L51.1067 14.4311C51.3217 14.006 51.5636 13.7934 51.8324 13.7934C52.0071 13.7934 52.1482 13.8703 52.2557 14.0241C52.3632 14.1688 52.417 14.3678 52.417 14.621V22.9106H51.4695V15.625L48.0628 22.4765C47.9821 22.6302 47.8847 22.7523 47.7705 22.8428C47.663 22.9332 47.5487 22.9785 47.4278 22.9785C47.2396 22.9785 47.0918 22.9016 46.9843 22.7478C46.8768 22.585 46.823 22.3725 46.823 22.1102V13.8613H47.7705V21.1198Z" fill="white"/>
<path d="M54.5138 13.7934C54.7422 13.7934 54.9405 13.9834 55.1084 14.3632L57.2251 19.0847L59.3014 14.4447C59.4089 14.2095 59.5131 14.0422 59.6138 13.9427C59.7146 13.8432 59.8356 13.7934 59.9767 13.7934C60.1312 13.7934 60.2556 13.8703 60.3496 14.0241C60.4504 14.1688 60.5008 14.3632 60.5008 14.6075V22.9106H59.5937V15.7878L57.729 19.9665C57.6081 20.2379 57.4367 20.3736 57.215 20.3736C57.1075 20.3736 57.0033 20.3328 56.9025 20.2514C56.8017 20.17 56.7211 20.057 56.6606 19.9123L54.8565 15.8421V22.9106H53.9493V14.621C53.9493 14.3587 53.9997 14.1552 54.1005 14.0105C54.2013 13.8658 54.3391 13.7934 54.5138 13.7934Z" fill="white"/>
<path d="M65.286 21.9202C65.6556 21.9202 65.9949 21.8343 66.304 21.6624C66.6131 21.4815 66.8785 21.2373 67.1003 20.9298C67.322 20.6132 67.4933 20.2379 67.6143 19.8037C67.742 19.3605 67.8058 18.8812 67.8058 18.3656C67.8058 17.8319 67.7453 17.348 67.6244 16.9139C67.5034 16.4797 67.3321 16.1089 67.1103 15.8014C66.8886 15.4848 66.6232 15.2406 66.3141 15.0687C66.005 14.8969 65.6623 14.811 65.286 14.811C64.9097 14.811 64.567 14.8969 64.2579 15.0687C63.9488 15.2406 63.6834 15.4848 63.4617 15.8014C63.2399 16.1089 63.0686 16.4797 62.9476 16.9139C62.8267 17.348 62.7662 17.8319 62.7662 18.3656C62.7662 18.8812 62.8267 19.3605 62.9476 19.8037C63.0753 20.2379 63.25 20.6132 63.4717 20.9298C63.6935 21.2373 63.9589 21.4815 64.268 21.6624C64.5771 21.8343 64.9164 21.9202 65.286 21.9202ZM65.286 23.1413C64.782 23.1413 64.3117 23.0237 63.8749 22.7885C63.4449 22.5443 63.0719 22.2097 62.7561 21.7845C62.447 21.3594 62.2018 20.8575 62.0203 20.2786C61.8456 19.6907 61.7583 19.0575 61.7583 18.3792C61.7583 17.7008 61.849 17.0722 62.0304 16.4933C62.2118 15.9144 62.4605 15.4125 62.7763 14.9873C63.0921 14.5622 63.465 14.2321 63.8951 13.9969C64.3251 13.7527 64.7888 13.6306 65.286 13.6306C65.79 13.6306 66.257 13.7527 66.687 13.9969C67.117 14.2321 67.49 14.5622 67.8058 14.9873C68.1216 15.4125 68.3669 15.9144 68.5416 16.4933C68.723 17.0722 68.8137 17.7008 68.8137 18.3792C68.8137 19.0575 68.723 19.6907 68.5416 20.2786C68.3669 20.8575 68.1216 21.3594 67.8058 21.7845C67.4967 22.2097 67.1238 22.5443 66.687 22.7885C66.257 23.0237 65.79 23.1413 65.286 23.1413Z" fill="white"/>
<path d="M77.477 13.8613V22.9106H76.5093V15.028H72.8607V22.9106H71.8931V13.8613H77.477Z" fill="white"/>
<path d="M79.0194 13.8613H81.1461C81.603 13.8613 81.9793 13.9472 82.275 14.119C82.5773 14.2909 82.8159 14.508 82.9906 14.7703C83.172 15.0326 83.2963 15.3265 83.3635 15.6521C83.4374 15.9778 83.4744 16.2943 83.4744 16.6018C83.4744 17.0541 83.4173 17.4521 83.303 17.7958C83.1888 18.1395 83.0309 18.4289 82.8293 18.6641C82.6277 18.8902 82.3858 19.062 82.1036 19.1796C81.8281 19.2972 81.5257 19.356 81.1965 19.356H79.9769V22.9106H79.0194V13.8613ZM81.1864 18.2435C81.603 18.2435 81.9222 18.1033 82.1439 17.8229C82.3724 17.5335 82.4866 17.1355 82.4866 16.629C82.4866 16.1134 82.369 15.7109 82.1339 15.4215C81.9054 15.123 81.5896 14.9738 81.1864 14.9738H79.9769V18.2435H81.1864Z" fill="white"/>
<path d="M87.8855 21.9202C88.255 21.9202 88.5944 21.8343 88.9035 21.6624C89.2126 21.4815 89.478 21.2373 89.6997 20.9298C89.9215 20.6132 90.0928 20.2379 90.2138 19.8037C90.3414 19.3605 90.4053 18.8812 90.4053 18.3656C90.4053 17.8319 90.3448 17.348 90.2238 16.9139C90.1029 16.4797 89.9315 16.1089 89.7098 15.8014C89.4881 15.4848 89.2226 15.2406 88.9135 15.0687C88.6044 14.8969 88.2617 14.811 87.8855 14.811C87.5092 14.811 87.1665 14.8969 86.8574 15.0687C86.5483 15.2406 86.2829 15.4848 86.0611 15.8014C85.8394 16.1089 85.668 16.4797 85.5471 16.9139C85.4261 17.348 85.3657 17.8319 85.3657 18.3656C85.3657 18.8812 85.4261 19.3605 85.5471 19.8037C85.6748 20.2379 85.8495 20.6132 86.0712 20.9298C86.2929 21.2373 86.5584 21.4815 86.8675 21.6624C87.1766 21.8343 87.5159 21.9202 87.8855 21.9202ZM87.8855 23.1413C87.3815 23.1413 86.9111 23.0237 86.4744 22.7885C86.0443 22.5443 85.6714 22.2097 85.3556 21.7845C85.0465 21.3594 84.8012 20.8575 84.6198 20.2786C84.4451 19.6907 84.3577 19.0575 84.3577 18.3792C84.3577 17.7008 84.4484 17.0722 84.6299 16.4933C84.8113 15.9144 85.0599 15.4125 85.3757 14.9873C85.6916 14.5622 86.0645 14.2321 86.4945 13.9969C86.9246 13.7527 87.3882 13.6306 87.8855 13.6306C88.3894 13.6306 88.8564 13.7527 89.2865 13.9969C89.7165 14.2321 90.0894 14.5622 90.4053 14.9873C90.7211 15.4125 90.9663 15.9144 91.141 16.4933C91.3225 17.0722 91.4132 17.7008 91.4132 18.3792C91.4132 19.0575 91.3225 19.6907 91.141 20.2786C90.9663 20.8575 90.7211 21.3594 90.4053 21.7845C90.0962 22.2097 89.7232 22.5443 89.2865 22.7885C88.8564 23.0237 88.3894 23.1413 87.8855 23.1413Z" fill="white"/>
<path d="M96.4815 16.8054C96.3068 17.2124 96.1455 17.5244 95.9977 17.7415C95.8566 17.9495 95.6886 18.1033 95.4938 18.2028C95.8566 18.5284 96.2329 19.0756 96.6226 19.8444C97.0124 20.6132 97.4323 21.6353 97.8825 22.9106H96.8343C96.6865 22.5127 96.5622 22.187 96.4614 21.9338C96.3606 21.6715 96.2665 21.4408 96.1791 21.2419C96.0918 21.0338 96.0011 20.8303 95.907 20.6313C95.8129 20.4323 95.6953 20.1972 95.5542 19.9258C95.3392 19.5098 95.1376 19.2203 94.9495 19.0575C94.7681 18.8947 94.5564 18.8133 94.3145 18.8133H93.6392V22.9106H92.6716V13.8613H93.6392V17.6465H94.4354C94.6841 17.6465 94.889 17.5787 95.0503 17.443C95.2115 17.3073 95.3594 17.0812 95.4938 16.7647L96.6932 13.8613H97.7515L96.4815 16.8054Z" fill="white"/>
<path d="M101.607 21.9202C101.976 21.9202 102.315 21.8343 102.625 21.6624C102.934 21.4815 103.199 21.2373 103.421 20.9298C103.643 20.6132 103.814 20.2379 103.935 19.8037C104.063 19.3605 104.126 18.8812 104.126 18.3656C104.126 17.8319 104.066 17.348 103.945 16.9139C103.824 16.4797 103.653 16.1089 103.431 15.8014C103.209 15.4848 102.944 15.2406 102.635 15.0687C102.326 14.8969 101.983 14.811 101.607 14.811C101.23 14.811 100.888 14.8969 100.578 15.0687C100.269 15.2406 100.004 15.4848 99.7822 15.8014C99.5605 16.1089 99.3891 16.4797 99.2682 16.9139C99.1472 17.348 99.0868 17.8319 99.0868 18.3656C99.0868 18.8812 99.1472 19.3605 99.2682 19.8037C99.3959 20.2379 99.5706 20.6132 99.7923 20.9298C100.014 21.2373 100.279 21.4815 100.589 21.6624C100.898 21.8343 101.237 21.9202 101.607 21.9202ZM101.607 23.1413C101.103 23.1413 100.632 23.0237 100.195 22.7885C99.7654 22.5443 99.3925 22.2097 99.0767 21.7845C98.7676 21.3594 98.5223 20.8575 98.3409 20.2786C98.1662 19.6907 98.0788 19.0575 98.0788 18.3792C98.0788 17.7008 98.1696 17.0722 98.351 16.4933C98.5324 15.9144 98.781 15.4125 99.0968 14.9873C99.4127 14.5622 99.7856 14.2321 100.216 13.9969C100.646 13.7527 101.109 13.6306 101.607 13.6306C102.111 13.6306 102.578 13.7527 103.008 13.9969C103.438 14.2321 103.811 14.5622 104.126 14.9873C104.442 15.4125 104.687 15.9144 104.862 16.4933C105.044 17.0722 105.134 17.7008 105.134 18.3792C105.134 19.0575 105.044 19.6907 104.862 20.2786C104.687 20.8575 104.442 21.3594 104.126 21.7845C103.817 22.2097 103.444 22.5443 103.008 22.7885C102.578 23.0237 102.111 23.1413 101.607 23.1413Z" fill="white"/>
<path d="M106.393 13.8613H107.36V17.6465H111.039V13.8613H112.007V22.9106H111.039V18.8133H107.36V22.9106H106.393V13.8613Z" fill="white"/>
<path d="M118.81 16.222C118.582 15.7788 118.289 15.4351 117.933 15.1909C117.577 14.9376 117.197 14.811 116.794 14.811C116.418 14.811 116.075 14.8969 115.766 15.0687C115.457 15.2406 115.192 15.4848 114.97 15.8014C114.755 16.1089 114.587 16.4843 114.466 16.9275C114.345 17.3616 114.285 17.85 114.285 18.3927C114.285 18.9264 114.342 19.4103 114.456 19.8444C114.577 20.2695 114.745 20.6359 114.96 20.9434C115.182 21.2509 115.444 21.4906 115.746 21.6624C116.048 21.8252 116.388 21.9067 116.764 21.9067C117.154 21.9067 117.51 21.8026 117.832 21.5946C118.155 21.3866 118.484 21.0429 118.82 20.5635L119.495 21.3233C119.375 21.5675 119.213 21.8026 119.012 22.0288C118.81 22.2458 118.585 22.4358 118.336 22.5986C118.088 22.7614 117.826 22.888 117.55 22.9785C117.281 23.078 117.019 23.1277 116.764 23.1277C116.247 23.1277 115.773 23.0146 115.343 22.7885C114.913 22.5624 114.543 22.2413 114.234 21.8252C113.925 21.4092 113.687 20.9117 113.519 20.3328C113.351 19.754 113.267 19.1163 113.267 18.4199C113.267 17.7325 113.354 17.0948 113.529 16.5069C113.703 15.919 113.945 15.417 114.254 15.0009C114.57 14.5758 114.943 14.2457 115.373 14.0105C115.803 13.7663 116.274 13.6442 116.784 13.6442C117.06 13.6442 117.328 13.6894 117.591 13.7799C117.859 13.8613 118.111 13.9788 118.346 14.1326C118.582 14.2864 118.797 14.4763 118.992 14.7024C119.193 14.9195 119.361 15.1637 119.495 15.4351L118.81 16.222Z" fill="white"/>
<path d="M125.661 13.8613L123.071 21.0248C122.97 21.3142 122.859 21.5856 122.738 21.8388C122.624 22.0921 122.493 22.3182 122.345 22.5172C122.204 22.7071 122.043 22.8564 121.861 22.9649C121.68 23.0825 121.472 23.1413 121.237 23.1413C120.995 23.1413 120.77 23.087 120.561 22.9785C120.36 22.8699 120.182 22.7388 120.027 22.585L120.45 21.6082C120.558 21.7077 120.672 21.7981 120.793 21.8795C120.921 21.9519 121.065 21.9881 121.226 21.9881C121.347 21.9881 121.455 21.9609 121.549 21.9067C121.643 21.8524 121.73 21.7665 121.811 21.6489C121.898 21.5222 121.979 21.3685 122.053 21.1876C122.134 20.9976 122.221 20.7715 122.315 20.5092L119.735 13.8613H120.793L122.799 19.1796L124.663 13.8613H125.661Z" fill="white"/>
<path d="M126.752 14.6346C126.759 14.3994 126.806 14.214 126.894 14.0783C126.988 13.9336 127.119 13.8613 127.287 13.8613H130.976V22.9106H130.008V15.028H127.68C127.639 16.4481 127.555 17.6601 127.428 18.6641C127.3 19.659 127.125 20.4776 126.904 21.1198C126.682 21.7529 126.406 22.2187 126.077 22.5172C125.755 22.8066 125.372 22.9513 124.928 22.9513H124.787V21.771C125.11 21.771 125.385 21.6444 125.613 21.3911C125.849 21.1288 126.044 20.7127 126.198 20.1429C126.353 19.5731 126.474 18.8359 126.561 17.9314C126.655 17.027 126.719 15.928 126.752 14.6346Z" fill="white"/>
<path d="M133.474 21.7981H134.764C135.207 21.7981 135.553 21.6534 135.802 21.364C136.057 21.0745 136.185 20.6404 136.185 20.0615C136.185 19.4917 136.057 19.0575 135.802 18.759C135.553 18.4515 135.207 18.2978 134.764 18.2978H133.474V21.7981ZM133.474 13.8613V17.1852H134.784C135.55 17.1852 136.141 17.4385 136.558 17.945C136.975 18.4425 137.183 19.1299 137.183 20.0072C137.183 20.3781 137.139 20.7399 137.052 21.0926C136.964 21.4363 136.823 21.7438 136.628 22.0152C136.44 22.2865 136.188 22.5036 135.873 22.6664C135.563 22.8292 135.184 22.9106 134.734 22.9106H132.506V13.8613H133.474Z" fill="white"/>
<path d="M138.742 15.0009H136.333V13.8613H142.108V15.0009H139.709V22.9106H138.742V15.0009Z" fill="white"/>
<path d="M144.064 21.1198L147.4 14.4311C147.616 14.006 147.857 13.7934 148.126 13.7934C148.301 13.7934 148.442 13.8703 148.55 14.0241C148.657 14.1688 148.711 14.3678 148.711 14.621V22.9106H147.763V15.625L144.357 22.4765C144.276 22.6302 144.178 22.7523 144.064 22.8428C143.957 22.9332 143.843 22.9785 143.722 22.9785C143.533 22.9785 143.386 22.9016 143.278 22.7478C143.171 22.585 143.117 22.3725 143.117 22.1102V13.8613H144.064V21.1198Z" fill="white"/>
<path d="M150.243 13.8613H152.37C152.827 13.8613 153.203 13.9472 153.499 14.119C153.801 14.2909 154.04 14.508 154.214 14.7703C154.396 15.0326 154.52 15.3265 154.587 15.6521C154.661 15.9778 154.698 16.2943 154.698 16.6018C154.698 17.0541 154.641 17.4521 154.527 17.7958C154.413 18.1395 154.255 18.4289 154.053 18.6641C153.851 18.8902 153.61 19.062 153.327 19.1796C153.052 19.2972 152.749 19.356 152.42 19.356H151.201V22.9106H150.243V13.8613ZM152.41 18.2435C152.827 18.2435 153.146 18.1033 153.368 17.8229C153.596 17.5335 153.71 17.1355 153.71 16.629C153.71 16.1134 153.593 15.7109 153.358 15.4215C153.129 15.123 152.813 14.9738 152.41 14.9738H151.201V18.2435H152.41Z" fill="white"/>
<path d="M159.109 21.9202C159.479 21.9202 159.818 21.8343 160.127 21.6624C160.436 21.4815 160.702 21.2373 160.923 20.9298C161.145 20.6132 161.317 20.2379 161.437 19.8037C161.565 19.3605 161.629 18.8812 161.629 18.3656C161.629 17.8319 161.569 17.348 161.448 16.9139C161.327 16.4797 161.155 16.1089 160.934 15.8014C160.712 15.4848 160.446 15.2406 160.137 15.0687C159.828 14.8969 159.486 14.811 159.109 14.811C158.733 14.811 158.39 14.8969 158.081 15.0687C157.772 15.2406 157.507 15.4848 157.285 15.8014C157.063 16.1089 156.892 16.4797 156.771 16.9139C156.65 17.348 156.589 17.8319 156.589 18.3656C156.589 18.8812 156.65 19.3605 156.771 19.8037C156.898 20.2379 157.073 20.6132 157.295 20.9298C157.517 21.2373 157.782 21.4815 158.091 21.6624C158.4 21.8343 158.74 21.9202 159.109 21.9202ZM159.109 23.1413C158.605 23.1413 158.135 23.0237 157.698 22.7885C157.268 22.5443 156.895 22.2097 156.579 21.7845C156.27 21.3594 156.025 20.8575 155.844 20.2786C155.669 19.6907 155.581 19.0575 155.581 18.3792C155.581 17.7008 155.672 17.0722 155.854 16.4933C156.035 15.9144 156.284 15.4125 156.599 14.9873C156.915 14.5622 157.288 14.2321 157.718 13.9969C158.148 13.7527 158.612 13.6306 159.109 13.6306C159.613 13.6306 160.08 13.7527 160.51 13.9969C160.94 14.2321 161.313 14.5622 161.629 14.9873C161.945 15.4125 162.19 15.9144 162.365 16.4933C162.546 17.0722 162.637 17.7008 162.637 18.3792C162.637 19.0575 162.546 19.6907 162.365 20.2786C162.19 20.8575 161.945 21.3594 161.629 21.7845C161.32 22.2097 160.947 22.5443 160.51 22.7885C160.08 23.0237 159.613 23.1413 159.109 23.1413Z" fill="white"/>
<path d="M163.895 13.8613H166.173C166.523 13.8613 166.825 13.9246 167.08 14.0512C167.336 14.1688 167.547 14.3316 167.715 14.5396C167.883 14.7477 168.008 14.9919 168.088 15.2723C168.176 15.5526 168.219 15.8511 168.219 16.1677C168.219 16.4571 168.182 16.7149 168.108 16.941C168.035 17.1672 167.944 17.3661 167.836 17.538C167.729 17.7008 167.608 17.8319 167.473 17.9314C167.346 18.0309 167.228 18.0942 167.121 18.1214C167.255 18.1485 167.406 18.2073 167.574 18.2978C167.742 18.3792 167.9 18.5058 168.048 18.6776C168.196 18.8495 168.32 19.0756 168.421 19.356C168.522 19.6274 168.572 19.9665 168.572 20.3736C168.572 20.862 168.505 21.269 168.371 21.5946C168.243 21.9112 168.065 22.169 167.836 22.3679C167.615 22.5669 167.349 22.7071 167.04 22.7885C166.731 22.8699 166.402 22.9106 166.052 22.9106H163.895V13.8613ZM166.002 21.7845C166.177 21.7845 166.358 21.771 166.546 21.7438C166.734 21.7167 166.906 21.6534 167.06 21.5539C167.221 21.4544 167.353 21.3097 167.453 21.1198C167.554 20.9208 167.604 20.6494 167.604 20.3057C167.604 19.9801 167.554 19.7178 167.453 19.5188C167.359 19.3198 167.235 19.1615 167.08 19.044C166.933 18.9264 166.768 18.8495 166.586 18.8133C166.405 18.7681 166.23 18.7455 166.062 18.7455H164.833V21.7845H166.002ZM166.032 17.633C166.18 17.633 166.328 17.6103 166.476 17.5651C166.623 17.5109 166.758 17.4295 166.879 17.3209C167 17.2124 167.097 17.0722 167.171 16.9003C167.245 16.7285 167.282 16.5204 167.282 16.2762C167.282 16.0049 167.245 15.7878 167.171 15.625C167.097 15.4532 167 15.322 166.879 15.2316C166.758 15.1321 166.623 15.0687 166.476 15.0416C166.328 15.0054 166.18 14.9873 166.032 14.9873H164.833V17.633H166.032Z" fill="white"/>
<path d="M173.464 20.3871H170.702L170.017 22.9106H168.999L171.448 14.4854C171.582 14.0241 171.814 13.7934 172.143 13.7934C172.446 13.7934 172.667 14.0331 172.809 14.5125L175.248 22.9106H174.169L173.464 20.3871ZM172.093 15.218L170.994 19.2882H173.171L172.093 15.218Z" fill="white"/>
<path d="M176.853 15.0009H174.445V13.8613H180.22V15.0009H177.821V22.9106H176.853V15.0009Z" fill="white"/>
<path d="M182.196 21.7981H183.487C183.93 21.7981 184.276 21.6534 184.525 21.364C184.78 21.0745 184.908 20.6404 184.908 20.0615C184.908 19.4917 184.78 19.0575 184.525 18.759C184.276 18.4515 183.93 18.2978 183.487 18.2978H182.196V21.7981ZM182.196 13.8613V17.1852H183.507C184.273 17.1852 184.864 17.4385 185.281 17.945C185.697 18.4425 185.906 19.1299 185.906 20.0072C185.906 20.3781 185.862 20.7399 185.775 21.0926C185.687 21.4363 185.546 21.7438 185.351 22.0152C185.163 22.2865 184.911 22.5036 184.595 22.6664C184.286 22.8292 183.907 22.9106 183.456 22.9106H181.229V13.8613H182.196Z" fill="white"/>
<path d="M192.367 16.222C192.138 15.7788 191.846 15.4351 191.49 15.1909C191.134 14.9376 190.754 14.811 190.351 14.811C189.975 14.811 189.632 14.8969 189.323 15.0687C189.014 15.2406 188.748 15.4848 188.526 15.8014C188.311 16.1089 188.143 16.4843 188.023 16.9275C187.902 17.3616 187.841 17.85 187.841 18.3927C187.841 18.9264 187.898 19.4103 188.012 19.8444C188.133 20.2695 188.301 20.6359 188.516 20.9434C188.738 21.2509 189 21.4906 189.303 21.6624C189.605 21.8252 189.944 21.9067 190.321 21.9067C190.71 21.9067 191.066 21.8026 191.389 21.5946C191.711 21.3866 192.041 21.0429 192.377 20.5635L193.052 21.3233C192.931 21.5675 192.77 21.8026 192.568 22.0288C192.367 22.2458 192.142 22.4358 191.893 22.5986C191.644 22.7614 191.382 22.888 191.107 22.9785C190.838 23.078 190.576 23.1277 190.321 23.1277C189.803 23.1277 189.329 23.0146 188.899 22.7885C188.469 22.5624 188.1 22.2413 187.791 21.8252C187.482 21.4092 187.243 20.9117 187.075 20.3328C186.907 19.754 186.823 19.1163 186.823 18.4199C186.823 17.7325 186.91 17.0948 187.085 16.5069C187.26 15.919 187.502 15.417 187.811 15.0009C188.127 14.5758 188.5 14.2457 188.93 14.0105C189.36 13.7663 189.83 13.6442 190.341 13.6442C190.616 13.6442 190.885 13.6894 191.147 13.7799C191.416 13.8613 191.668 13.9788 191.903 14.1326C192.138 14.2864 192.353 14.4763 192.548 14.7024C192.75 14.9195 192.918 15.1637 193.052 15.4351L192.367 16.222Z" fill="white"/>
<path d="M193.412 22.9106C193.533 22.4946 193.664 22.083 193.805 21.676C193.946 21.269 194.088 20.8936 194.229 20.5499C194.37 20.2062 194.507 19.8987 194.642 19.6274C194.783 19.356 194.911 19.1389 195.025 18.9761C194.608 18.7681 194.289 18.456 194.067 18.04C193.852 17.6239 193.745 17.1174 193.745 16.5204C193.745 15.7064 193.946 15.0597 194.35 14.5803C194.759 14.1009 195.337 13.8613 196.083 13.8613H198.23V22.9106H197.293V19.2068H196.355C196.08 19.2068 195.838 19.4103 195.63 19.8173C195.428 20.2243 195.226 20.6946 195.025 21.2283C194.823 21.7529 194.628 22.3137 194.44 22.9106H193.412ZM197.293 18.1078V14.9873H196.023C195.62 14.9873 195.304 15.1275 195.075 15.4079C194.847 15.6793 194.733 16.0637 194.733 16.5611C194.733 17.0496 194.85 17.4295 195.085 17.7008C195.321 17.9721 195.64 18.1078 196.043 18.1078H197.293Z" fill="white"/>
<path d="M206.855 16.222C206.627 15.7788 206.335 15.4351 205.979 15.1909C205.622 14.9376 205.243 14.811 204.84 14.811C204.463 14.811 204.121 14.8969 203.812 15.0687C203.502 15.2406 203.237 15.4848 203.015 15.8014C202.8 16.1089 202.632 16.4843 202.511 16.9275C202.39 17.3616 202.33 17.85 202.33 18.3927C202.33 18.9264 202.387 19.4103 202.501 19.8444C202.622 20.2695 202.79 20.6359 203.005 20.9434C203.227 21.2509 203.489 21.4906 203.791 21.6624C204.094 21.8252 204.433 21.9067 204.809 21.9067C205.199 21.9067 205.555 21.8026 205.878 21.5946C206.2 21.3866 206.53 21.0429 206.866 20.5635L207.541 21.3233C207.42 21.5675 207.259 21.8026 207.057 22.0288C206.856 22.2458 206.63 22.4358 206.382 22.5986C206.133 22.7614 205.871 22.888 205.596 22.9785C205.327 23.078 205.065 23.1277 204.809 23.1277C204.292 23.1277 203.818 23.0146 203.388 22.7885C202.958 22.5624 202.589 22.2413 202.28 21.8252C201.97 21.4092 201.732 20.9117 201.564 20.3328C201.396 19.754 201.312 19.1163 201.312 18.4199C201.312 17.7325 201.399 17.0948 201.574 16.5069C201.749 15.919 201.991 15.417 202.3 15.0009C202.616 14.5758 202.988 14.2457 203.418 14.0105C203.849 13.7663 204.319 13.6442 204.83 13.6442C205.105 13.6442 205.374 13.6894 205.636 13.7799C205.905 13.8613 206.157 13.9788 206.392 14.1326C206.627 14.2864 206.842 14.4763 207.037 14.7024C207.239 14.9195 207.406 15.1637 207.541 15.4351L206.855 16.222Z" fill="white"/>
<path d="M211.494 21.9202C211.863 21.9202 212.202 21.8343 212.512 21.6624C212.821 21.4815 213.086 21.2373 213.308 20.9298C213.529 20.6132 213.701 20.2379 213.822 19.8037C213.949 19.3605 214.013 18.8812 214.013 18.3656C214.013 17.8319 213.953 17.348 213.832 16.9139C213.711 16.4797 213.54 16.1089 213.318 15.8014C213.096 15.4848 212.831 15.2406 212.522 15.0687C212.212 14.8969 211.87 14.811 211.494 14.811C211.117 14.811 210.775 14.8969 210.465 15.0687C210.156 15.2406 209.891 15.4848 209.669 15.8014C209.447 16.1089 209.276 16.4797 209.155 16.9139C209.034 17.348 208.974 17.8319 208.974 18.3656C208.974 18.8812 209.034 19.3605 209.155 19.8037C209.283 20.2379 209.458 20.6132 209.679 20.9298C209.901 21.2373 210.166 21.4815 210.476 21.6624C210.785 21.8343 211.124 21.9202 211.494 21.9202ZM211.494 23.1413C210.99 23.1413 210.519 23.0237 210.082 22.7885C209.652 22.5443 209.279 22.2097 208.964 21.7845C208.655 21.3594 208.409 20.8575 208.228 20.2786C208.053 19.6907 207.966 19.0575 207.966 18.3792C207.966 17.7008 208.056 17.0722 208.238 16.4933C208.419 15.9144 208.668 15.4125 208.984 14.9873C209.3 14.5622 209.673 14.2321 210.103 13.9969C210.533 13.7527 210.996 13.6306 211.494 13.6306C211.997 13.6306 212.464 13.7527 212.895 13.9969C213.325 14.2321 213.697 14.5622 214.013 14.9873C214.329 15.4125 214.574 15.9144 214.749 16.4933C214.931 17.0722 215.021 17.7008 215.021 18.3792C215.021 19.0575 214.931 19.6907 214.749 20.2786C214.574 20.8575 214.329 21.3594 214.013 21.7845C213.704 22.2097 213.331 22.5443 212.895 22.7885C212.464 23.0237 211.997 23.1413 211.494 23.1413Z" fill="white"/>
<path d="M223.372 16.222C223.144 15.7788 222.851 15.4351 222.495 15.1909C222.139 14.9376 221.759 14.811 221.356 14.811C220.98 14.811 220.637 14.8969 220.328 15.0687C220.019 15.2406 219.754 15.4848 219.532 15.8014C219.317 16.1089 219.149 16.4843 219.028 16.9275C218.907 17.3616 218.846 17.85 218.846 18.3927C218.846 18.9264 218.904 19.4103 219.018 19.8444C219.139 20.2695 219.307 20.6359 219.522 20.9434C219.743 21.2509 220.006 21.4906 220.308 21.6624C220.61 21.8252 220.95 21.9067 221.326 21.9067C221.716 21.9067 222.072 21.8026 222.394 21.5946C222.717 21.3866 223.046 21.0429 223.382 20.5635L224.057 21.3233C223.936 21.5675 223.775 21.8026 223.574 22.0288C223.372 22.2458 223.147 22.4358 222.898 22.5986C222.65 22.7614 222.388 22.888 222.112 22.9785C221.843 23.078 221.581 23.1277 221.326 23.1277C220.809 23.1277 220.335 23.0146 219.905 22.7885C219.475 22.5624 219.105 22.2413 218.796 21.8252C218.487 21.4092 218.248 20.9117 218.08 20.3328C217.912 19.754 217.828 19.1163 217.828 18.4199C217.828 17.7325 217.916 17.0948 218.091 16.5069C218.265 15.919 218.507 15.417 218.816 15.0009C219.132 14.5758 219.505 14.2457 219.935 14.0105C220.365 13.7663 220.835 13.6442 221.346 13.6442C221.622 13.6442 221.89 13.6894 222.152 13.7799C222.421 13.8613 222.673 13.9788 222.908 14.1326C223.144 14.2864 223.359 14.4763 223.553 14.7024C223.755 14.9195 223.923 15.1637 224.057 15.4351L223.372 16.222Z" fill="white"/>
<path d="M230.515 13.8613V22.9106H229.548V15.028H225.899V22.9106H224.932V13.8613H230.515Z" fill="white"/>
<path d="M232.572 22.9106C232.417 22.9106 232.293 22.8518 232.199 22.7343C232.105 22.6167 232.058 22.4403 232.058 22.2051V13.8613H236.291V15.0145H233.026V17.6465H235.485V18.8133H233.026V21.7438H236.533V22.9106H232.572Z" fill="white"/>
<path d="M242.968 22.9106H237.747V13.8613H238.715V21.7438H242.313V13.8613H243.281V21.7438H243.845V25H242.968V22.9106Z" fill="white"/>
<path d="M245.919 21.1198L249.256 14.4311C249.471 14.006 249.712 13.7934 249.981 13.7934C250.156 13.7934 250.297 13.8703 250.405 14.0241C250.512 14.1688 250.566 14.3678 250.566 14.621V22.9106H249.618V15.625L246.212 22.4765C246.131 22.6302 246.034 22.7523 245.919 22.8428C245.812 22.9332 245.698 22.9785 245.577 22.9785C245.389 22.9785 245.241 22.9016 245.133 22.7478C245.026 22.585 244.972 22.3725 244.972 22.1102V13.8613H245.919V21.1198Z" fill="white"/>
<path d="M255.918 20.3871H253.157L252.471 22.9106H251.453L253.902 14.4854C254.037 14.0241 254.269 13.7934 254.598 13.7934C254.9 13.7934 255.122 14.0331 255.263 14.5125L257.702 22.9106H256.624L255.918 20.3871ZM254.547 15.218L253.449 19.2882H255.626L254.547 15.218Z" fill="white"/>
<path d="M260.341 14.6346C260.348 14.3994 260.395 14.214 260.482 14.0783C260.576 13.9336 260.707 13.8613 260.875 13.8613H264.564V22.9106H263.597V15.028H261.269C261.228 16.4481 261.144 17.6601 261.017 18.6641C260.889 19.659 260.714 20.4776 260.492 21.1198C260.271 21.7529 259.995 22.2187 259.666 22.5172C259.343 22.8066 258.96 22.9513 258.517 22.9513H258.376V21.771C258.698 21.771 258.974 21.6444 259.202 21.3911C259.438 21.1288 259.632 20.7127 259.787 20.1429C259.941 19.5731 260.062 18.8359 260.15 17.9314C260.244 17.027 260.308 15.928 260.341 14.6346Z" fill="white"/>
<path d="M267.042 21.1198L270.379 14.4311C270.594 14.006 270.835 13.7934 271.104 13.7934C271.279 13.7934 271.42 13.8703 271.528 14.0241C271.635 14.1688 271.689 14.3678 271.689 14.621V22.9106H270.741V15.625L267.335 22.4765C267.254 22.6302 267.157 22.7523 267.042 22.8428C266.935 22.9332 266.821 22.9785 266.7 22.9785C266.512 22.9785 266.364 22.9016 266.256 22.7478C266.149 22.585 266.095 22.3725 266.095 22.1102V13.8613H267.042V21.1198Z" fill="white"/>
<path d="M278.493 16.222C278.264 15.7788 277.972 15.4351 277.616 15.1909C277.26 14.9376 276.88 14.811 276.477 14.811C276.101 14.811 275.758 14.8969 275.449 15.0687C275.14 15.2406 274.874 15.4848 274.652 15.8014C274.437 16.1089 274.269 16.4843 274.149 16.9275C274.028 17.3616 273.967 17.85 273.967 18.3927C273.967 18.9264 274.024 19.4103 274.138 19.8444C274.259 20.2695 274.427 20.6359 274.642 20.9434C274.864 21.2509 275.126 21.4906 275.429 21.6624C275.731 21.8252 276.07 21.9067 276.447 21.9067C276.836 21.9067 277.192 21.8026 277.515 21.5946C277.837 21.3866 278.167 21.0429 278.503 20.5635L279.178 21.3233C279.057 21.5675 278.896 21.8026 278.694 22.0288C278.493 22.2458 278.268 22.4358 278.019 22.5986C277.77 22.7614 277.508 22.888 277.233 22.9785C276.964 23.078 276.702 23.1277 276.447 23.1277C275.929 23.1277 275.455 23.0146 275.025 22.7885C274.595 22.5624 274.226 22.2413 273.917 21.8252C273.608 21.4092 273.369 20.9117 273.201 20.3328C273.033 19.754 272.949 19.1163 272.949 18.4199C272.949 17.7325 273.036 17.0948 273.211 16.5069C273.386 15.919 273.628 15.417 273.937 15.0009C274.253 14.5758 274.626 14.2457 275.056 14.0105C275.486 13.7663 275.956 13.6442 276.467 13.6442C276.742 13.6442 277.011 13.6894 277.273 13.7799C277.542 13.8613 277.794 13.9788 278.029 14.1326C278.264 14.2864 278.479 14.4763 278.674 14.7024C278.876 14.9195 279.044 15.1637 279.178 15.4351L278.493 16.222Z" fill="white"/>
<path d="M281.74 15.0009H279.331V13.8613H285.107V15.0009H282.708V22.9106H281.74V15.0009Z" fill="white"/>
<path d="M288.662 21.9202C289.032 21.9202 289.371 21.8343 289.68 21.6624C289.99 21.4815 290.255 21.2373 290.477 20.9298C290.698 20.6132 290.87 20.2379 290.991 19.8037C291.118 19.3605 291.182 18.8812 291.182 18.3656C291.182 17.8319 291.122 17.348 291.001 16.9139C290.88 16.4797 290.708 16.1089 290.487 15.8014C290.265 15.4848 290 15.2406 289.69 15.0687C289.381 14.8969 289.039 14.811 288.662 14.811C288.286 14.811 287.943 14.8969 287.634 15.0687C287.325 15.2406 287.06 15.4848 286.838 15.8014C286.616 16.1089 286.445 16.4797 286.324 16.9139C286.203 17.348 286.143 17.8319 286.143 18.3656C286.143 18.8812 286.203 19.3605 286.324 19.8037C286.452 20.2379 286.626 20.6132 286.848 20.9298C287.07 21.2373 287.335 21.4815 287.644 21.6624C287.954 21.8343 288.293 21.9202 288.662 21.9202ZM288.662 23.1413C288.158 23.1413 287.688 23.0237 287.251 22.7885C286.821 22.5443 286.448 22.2097 286.133 21.7845C285.823 21.3594 285.578 20.8575 285.397 20.2786C285.222 19.6907 285.135 19.0575 285.135 18.3792C285.135 17.7008 285.225 17.0722 285.407 16.4933C285.588 15.9144 285.837 15.4125 286.153 14.9873C286.469 14.5622 286.841 14.2321 287.271 13.9969C287.702 13.7527 288.165 13.6306 288.662 13.6306C289.166 13.6306 289.633 13.7527 290.063 13.9969C290.493 14.2321 290.866 14.5622 291.182 14.9873C291.498 15.4125 291.743 15.9144 291.918 16.4933C292.099 17.0722 292.19 17.7008 292.19 18.3792C292.19 19.0575 292.099 19.6907 291.918 20.2786C291.743 20.8575 291.498 21.3594 291.182 21.7845C290.873 22.2097 290.5 22.5443 290.063 22.7885C289.633 23.0237 289.166 23.1413 288.662 23.1413Z" fill="white"/>
<path d="M294.013 13.7934C294.241 13.7934 294.44 13.9834 294.608 14.3632L296.724 19.0847L298.801 14.4447C298.908 14.2095 299.012 14.0422 299.113 13.9427C299.214 13.8432 299.335 13.7934 299.476 13.7934C299.63 13.7934 299.755 13.8703 299.849 14.0241C299.95 14.1688 300 14.3632 300 14.6075V22.9106H299.093V15.7878L297.228 19.9665C297.107 20.2379 296.936 20.3736 296.714 20.3736C296.607 20.3736 296.503 20.3328 296.402 20.2514C296.301 20.17 296.22 20.057 296.16 19.9123L294.356 15.8421V22.9106H293.449V14.621C293.449 14.3587 293.499 14.1552 293.6 14.0105C293.701 13.8658 293.838 13.7934 294.013 13.7934Z" fill="white"/>
</svg>
