<svg width="40" height="43" viewBox="0 0 40 43" fill="none" xmlns="http://www.w3.org/2000/svg">
<g clip-path="url(#clip0_246_59)">
<path d="M35.4183 0H4.58174C2.05131 0 0 2.04378 0 4.5649V37.5041C0 40.0252 2.05131 42.069 4.58174 42.069H35.4183C37.9487 42.069 40 40.0252 40 37.5041V4.5649C40 2.04378 37.9487 0 35.4183 0Z" fill="#FFE501"/>
<path d="M6.41075 24.4989V27.355L7.98742 26.0451V31.7229C8.0134 32.2159 7.99686 32.7101 7.93799 33.2003C7.93799 33.2495 7.79467 33.3677 7.80455 33.3135C8.01214 32.0036 7.38444 31.1763 6.57386 31.265C5.76328 31.3536 5.40247 32.2498 5.40247 33.3677C5.40247 34.4855 5.89673 36.0367 7.29547 36.1401C7.57042 36.1487 7.8443 36.1022 8.1009 36.0034C8.35749 35.9046 8.59157 35.7555 8.78929 35.5649C8.98701 35.3744 9.14434 35.1462 9.25196 34.894C9.35958 34.6418 9.4153 34.3706 9.41583 34.0965V25.2868L11.0567 24.3905V31.8953L10.256 32.3877V36.1204H13.4143V31.7673L12.5543 31.5949V23.7061L13.5972 23.2875V19.0131C13.5972 19.0131 11.3484 20.3673 9.91501 21.4359C8.67962 22.3778 7.50891 23.4011 6.41075 24.4989V24.4989Z" fill="#EA1816"/>
<path d="M21.346 25.2868L22.6311 25.5527V21.692L23.842 21.8643V30.8612L22.9128 31.1862V36.1204H26.2441V31.457L25.3149 30.9153V22.1056L26.3528 22.3321V26.444L27.4748 26.8724V19.5449C25.5765 18.5189 23.4838 17.8999 21.3312 17.7278L21.346 25.2868Z" fill="#EA1816"/>
<path d="M20.313 33.0428V20.4955C20.313 18.8901 19.4925 17.5408 17.5649 17.5408C16.8088 17.53 16.077 17.8075 15.5193 18.3164C14.9616 18.8253 14.6202 19.5273 14.5648 20.2788V32.7325C14.5648 32.7325 14.2633 36.1353 17.219 36.1353C20.4267 36.1205 20.313 33.0428 20.313 33.0428ZM18.8302 30.0291C18.8302 31.4276 18.163 31.8166 17.5205 31.8166C16.1267 31.8166 16.0377 30.9253 16.0377 30.487C16.0377 29.6991 16.0377 23.2925 16.0377 23.2925C16.0377 22.3076 17.0855 22.0368 17.3771 21.9875C17.6687 21.9383 18.8055 22.0269 18.8105 23.4944L18.8302 30.0291Z" fill="#EA1816"/>
<path d="M29.6552 21.1159C28.4295 21.3079 28.3652 22.7212 28.3652 22.7212V33.1068C28.3652 34.5841 29.932 36.1402 31.2616 36.1402C31.2616 36.1402 33.5895 36.2091 33.5895 34.0227V25.5823C33.6093 23.7455 31.8102 20.6136 29.6552 21.1159ZM32.1759 31.9052C32.1773 32.0386 32.1473 32.1705 32.0885 32.2904C32.0296 32.4103 31.9435 32.5148 31.8369 32.5956C31.7303 32.6764 31.6063 32.7314 31.4746 32.756C31.343 32.7806 31.2074 32.7742 31.0787 32.7374C30.728 32.6943 30.4066 32.5206 30.1793 32.2511C29.9519 31.9816 29.8353 31.6364 29.8529 31.2847V25.7793C29.8925 24.9618 30.3917 24.0656 31.5087 24.8289C32.2698 25.3459 32.1809 26.902 32.1759 27.2911C32.1759 27.8524 32.1759 31.9052 32.1759 31.9052Z" fill="#EA1816"/>
<path d="M15.188 10.8284C15.0713 10.1125 15.1604 9.3784 15.445 8.7109C15.7861 7.98209 16.2062 8.01165 16.4335 8.01165C16.654 8.05763 16.8595 8.15747 17.0316 8.30218L17.1897 8.42036V6.84949H15.9096C15.1633 6.84949 13.9326 8.17907 14.0463 10.6954C14.1451 13.1034 15.4846 15.0141 17.7285 15.7134L17.8619 15.7528V14.3345L17.7532 14.3001C16.2012 13.9603 15.3709 12.6061 15.188 10.8284Z" fill="black"/>
<path d="M25.0783 13.7879C25.1398 12.7527 24.8866 11.723 24.3517 10.8333C23.9875 10.2681 23.5914 9.72392 23.1655 9.20334L25.6368 6.84949H23.4818C23.5653 6.95075 23.6335 7.06354 23.6845 7.18434C23.7191 7.36162 23.6548 7.70634 23.0617 8.28741C22.7317 8.59871 22.3817 8.88822 22.0139 9.15409V7.43056L22.1226 6.84949H20.7486L20.9858 7.43056V13.6895C20.4916 13.527 18.8457 13.2906 18.2971 10.853C18.1611 10.421 18.1329 9.96259 18.2147 9.51729C18.2965 9.07199 18.4859 8.65324 18.7666 8.29726C18.8866 8.16032 19.0437 8.06094 19.2192 8.01112C19.3946 7.96131 19.5808 7.96319 19.7551 8.01656C20.0137 8.0747 20.2514 8.20245 20.4421 8.38589L20.4075 6.84949H19.0335C18.6388 6.91248 18.2842 7.1262 18.045 7.44533C17.7389 7.8134 17.5096 8.2386 17.3704 8.69604C17.2312 9.15348 17.185 9.63397 17.2344 10.1094C17.2531 10.8276 17.4158 11.5347 17.7129 12.1893C18.01 12.8438 18.4355 13.4326 18.9643 13.9209C19.9528 14.8565 22.172 15.5016 22.172 15.5016L22.0386 14.7433V11.0352C22.0494 10.5775 22.2248 10.1389 22.5328 9.79918C22.7058 9.98139 23.897 10.9564 24.0156 13.6304C24.0156 13.6304 24.0156 14.5561 24.0156 14.8122C24.0067 15.1426 24.0348 15.4729 24.0996 15.7971L25.3847 16.1418C25.2537 15.7178 25.1627 15.2826 25.1128 14.8418C25.0931 14.3641 25.0783 13.7879 25.0783 13.7879Z" fill="black"/>
<path d="M13.8529 6.84947H12.5036L12.6469 7.43547V12.9754C12.65 13.2752 12.6302 13.5748 12.5876 13.8716C11.3322 13.2364 10.665 9.73517 10.665 9.73517L11.3767 7.82451C11.4018 7.70565 11.4016 7.58286 11.3761 7.46409C11.3505 7.34532 11.3002 7.23324 11.2284 7.1351C11.1616 7.04725 11.0759 6.97551 10.9775 6.92521C10.8791 6.87492 10.7706 6.84734 10.66 6.84454H6.40942L6.64172 7.42563V20.8889L6.40942 21.8393L7.95149 20.6279L7.69944 20.0271V17.5649L10.057 11.3257C10.2844 12.5322 11.2037 14.2804 12.1626 14.9698C11.9232 15.6839 11.4946 16.3202 10.922 16.8115C10.7124 16.9672 10.4763 17.084 10.2251 17.1562V19.0028C11.7319 17.776 12.8326 16.1251 13.3834 14.2656C13.5693 13.4764 13.6622 12.6682 13.6601 11.8576V7.42563L13.8529 6.84947ZM10.0125 8.77491L7.66483 15.2948V7.99686H9.81978C9.86709 8.00042 9.91275 8.01582 9.95249 8.04164C9.99224 8.06747 10.0248 8.10288 10.0471 8.14459C10.1053 8.35278 10.0932 8.57427 10.0125 8.77491V8.77491Z" fill="black"/>
<path d="M33.1693 7.99687L33.5845 8.49915V6.84949H30.2681L30.5004 7.42564V17.7324L30.2582 18.0131L33.5845 21.2533V19.2294H33.372L31.5235 17.6093V10.9416L33.0013 11.2716V10.4246L31.5235 10.1587V7.99687H33.1693Z" fill="black"/>
<path d="M27.7564 6.75134C25.7546 6.75134 25.4976 9.92758 25.5273 11.8432V11.9909C25.4976 13.9065 25.7546 17.0876 27.7564 17.0827C29.679 17.0827 29.9954 14.2857 30.0201 11.9663V11.9121C29.9954 9.5287 29.7037 6.75627 27.7564 6.75134ZM28.8833 11.9023V11.9367C28.8833 12.828 28.8042 14.1527 28.7498 14.5466C28.6312 15.4183 28.2556 15.7974 27.7613 15.7974C27.2671 15.7974 26.9359 15.4035 26.8123 14.5959C26.6978 13.7292 26.6515 12.8549 26.674 11.981V11.8284C26.6515 10.9545 26.6978 10.0802 26.8123 9.21353C26.9359 8.40593 27.2769 8.012 27.7613 8.012C28.2457 8.012 28.6114 8.38624 28.7498 9.26278C28.8042 9.65673 28.8734 10.9814 28.8833 11.8727V11.9023Z" fill="black"/>
</g>
<defs>
<clipPath id="clip0_246_59">
<rect width="40" height="42.069" fill="white"/>
</clipPath>
</defs>
</svg>
