<svg width="140" height="65" viewBox="0 0 140 65" fill="none" xmlns="http://www.w3.org/2000/svg">
<path d="M1.771 7.692C1.67567 7.83133 1.59133 7.92667 1.518 7.978C1.452 8.02933 1.375 8.055 1.287 8.055C1.18433 8.055 1.1 8.01467 1.034 7.934C0.975333 7.85333 0.946 7.73967 0.946 7.593V0.662999H1.463V7.351L5.918 0.970999C6.006 0.839 6.08667 0.747333 6.16 0.696C6.23333 0.637333 6.31033 0.607999 6.391 0.607999C6.611 0.607999 6.721 0.732666 6.721 0.982V8H6.204V1.356L1.771 7.692ZM23.0809 0.982C23.0809 0.872 23.1103 0.783999 23.1689 0.717999C23.2349 0.644666 23.3193 0.607999 23.4219 0.607999C23.5613 0.607999 23.7043 0.721666 23.8509 0.949L26.5239 5.151L29.2079 0.949C29.3546 0.721666 29.4976 0.607999 29.6369 0.607999C29.7396 0.607999 29.8203 0.644666 29.8789 0.717999C29.9449 0.783999 29.9779 0.872 29.9779 0.982V8H29.4719V1.422L26.9859 5.371C26.8979 5.51767 26.8209 5.61667 26.7549 5.668C26.6889 5.71933 26.6119 5.745 26.5239 5.745C26.4359 5.745 26.3553 5.71933 26.2819 5.668C26.2086 5.60933 26.1316 5.51033 26.0509 5.371L23.5869 1.422V8H23.0809V0.982ZM49.886 4.425H46.861V7.505H51.019V8H46.751C46.6264 8 46.5237 7.967 46.443 7.901C46.3697 7.82767 46.333 7.72867 46.333 7.604V0.662999H50.733V1.158H46.861V3.93H49.886V4.425ZM73.0481 8.176C72.5127 8.176 72.0177 8.08067 71.5631 7.89C71.1157 7.69933 70.7271 7.439 70.3971 7.109C70.0671 6.77167 69.8067 6.37567 69.6161 5.921C69.4254 5.459 69.3264 4.96033 69.3191 4.425H67.4491V8H66.9211V0.662999H67.4491V3.93H69.3301C69.3741 3.43867 69.4987 2.984 69.7041 2.566C69.9094 2.14067 70.1734 1.774 70.4961 1.466C70.8261 1.158 71.2074 0.919666 71.6401 0.751C72.0727 0.575 72.5421 0.487 73.0481 0.487C73.5834 0.487 74.0784 0.586 74.5331 0.784C74.9951 0.982 75.3911 1.25333 75.7211 1.598C76.0511 1.94267 76.3077 2.34967 76.4911 2.819C76.6817 3.281 76.7771 3.78333 76.7771 4.326C76.7771 4.876 76.6854 5.38567 76.5021 5.855C76.3187 6.32433 76.0621 6.73133 75.7321 7.076C75.4021 7.42067 75.0061 7.692 74.5441 7.89C74.0894 8.08067 73.5907 8.176 73.0481 8.176ZM73.0481 7.681C73.5101 7.681 73.9317 7.59667 74.3131 7.428C74.7017 7.252 75.0354 7.01367 75.3141 6.713C75.6001 6.405 75.8201 6.04933 75.9741 5.646C76.1354 5.23533 76.2161 4.79533 76.2161 4.326C76.2161 3.84933 76.1391 3.40933 75.9851 3.006C75.8311 2.59533 75.6111 2.23967 75.3251 1.939C75.0464 1.63833 74.7127 1.40367 74.3241 1.235C73.9354 1.06633 73.5101 0.982 73.0481 0.982C72.5861 0.982 72.1607 1.06633 71.7721 1.235C71.3834 1.40367 71.0461 1.63833 70.7601 1.939C70.4814 2.23967 70.2651 2.59533 70.1111 3.006C69.9571 3.40933 69.8801 3.84933 69.8801 4.326C69.8801 4.79533 69.9571 5.23533 70.1111 5.646C70.2724 6.04933 70.4924 6.405 70.7711 6.713C71.0571 7.01367 71.3907 7.252 71.7721 7.428C72.1607 7.59667 72.5861 7.681 73.0481 7.681ZM94.2096 1.136H91.3606V0.662999H97.5866V1.136H94.7376V8H94.2096V1.136ZM118.43 2.159C118.144 1.785 117.789 1.49533 117.363 1.29C116.945 1.08467 116.491 0.982 115.999 0.982C115.508 0.982 115.061 1.06267 114.657 1.224C114.261 1.38533 113.92 1.61267 113.634 1.906C113.348 2.19933 113.128 2.55133 112.974 2.962C112.82 3.37267 112.743 3.831 112.743 4.337C112.743 4.843 112.82 5.30133 112.974 5.712C113.128 6.12267 113.345 6.47467 113.623 6.768C113.902 7.054 114.239 7.27767 114.635 7.439C115.039 7.60033 115.482 7.681 115.966 7.681C116.472 7.681 116.934 7.582 117.352 7.384C117.77 7.17867 118.13 6.88533 118.43 6.504L118.826 6.779C118.687 6.99167 118.511 7.18233 118.298 7.351C118.093 7.51967 117.862 7.66633 117.605 7.791C117.356 7.91567 117.088 8.011 116.802 8.077C116.516 8.143 116.227 8.176 115.933 8.176C115.383 8.176 114.877 8.08433 114.415 7.901C113.953 7.71033 113.557 7.44633 113.227 7.109C112.897 6.76433 112.637 6.35733 112.446 5.888C112.263 5.41867 112.171 4.90167 112.171 4.337C112.171 3.77233 112.267 3.25533 112.457 2.786C112.648 2.30933 112.912 1.90233 113.249 1.565C113.587 1.22033 113.986 0.956333 114.448 0.773C114.918 0.582333 115.427 0.487 115.977 0.487C116.571 0.487 117.121 0.611666 117.627 0.860999C118.141 1.11033 118.54 1.45133 118.826 1.884L118.43 2.159ZM134.214 2.742C134.214 2.08933 134.43 1.57967 134.863 1.213C135.303 0.846333 135.952 0.662999 136.81 0.662999H139.021V8H138.493V4.821H136.909C136.557 4.821 136.286 4.942 136.095 5.184C135.802 5.558 135.53 5.97233 135.281 6.427C135.039 6.88167 134.801 7.406 134.566 8H134.005C134.13 7.65533 134.269 7.31433 134.423 6.977C134.584 6.63967 134.746 6.328 134.907 6.042C135.076 5.74867 135.241 5.48833 135.402 5.261C135.571 5.03367 135.725 4.85767 135.864 4.733C135.329 4.61567 134.918 4.38833 134.632 4.051C134.353 3.70633 134.214 3.27 134.214 2.742ZM138.493 4.326V1.158H136.656C135.402 1.158 134.775 1.686 134.775 2.742C134.775 3.26267 134.936 3.65867 135.259 3.93C135.589 4.194 136.069 4.326 136.7 4.326H138.493ZM0.946 11.663H6.677V19H6.149V12.158H1.474V19H0.946V11.663ZM9.87095 11.663H12.126C12.6026 11.663 13.0023 11.718 13.325 11.828C13.655 11.9307 13.919 12.0773 14.117 12.268C14.315 12.4587 14.458 12.6823 14.546 12.939C14.634 13.1957 14.678 13.4743 14.678 13.775C14.678 14.0757 14.634 14.3543 14.546 14.611C14.458 14.8677 14.315 15.0913 14.117 15.282C13.919 15.4727 13.655 15.623 13.325 15.733C13.0023 15.8357 12.6026 15.887 12.126 15.887H10.399V19H9.87095V11.663ZM12.28 15.392C12.896 15.392 13.3543 15.2563 13.655 14.985C13.9556 14.7063 14.106 14.303 14.106 13.775C14.106 13.247 13.9556 12.8473 13.655 12.576C13.3543 12.2973 12.896 12.158 12.28 12.158H10.399V15.392H12.28ZM20.8869 18.681C21.3489 18.681 21.7779 18.5967 22.1739 18.428C22.5699 18.252 22.9146 18.0137 23.2079 17.713C23.5086 17.405 23.7433 17.0493 23.9119 16.646C24.0806 16.2353 24.1649 15.7953 24.1649 15.326C24.1649 14.8493 24.0806 14.4093 23.9119 14.006C23.7433 13.5953 23.5123 13.2397 23.2189 12.939C22.9256 12.6383 22.5773 12.4037 22.1739 12.235C21.7779 12.0663 21.3489 11.982 20.8869 11.982C20.4249 11.982 19.9923 12.0663 19.5889 12.235C19.1929 12.4037 18.8483 12.6383 18.5549 12.939C18.2616 13.2397 18.0306 13.5953 17.8619 14.006C17.6933 14.4093 17.6089 14.8493 17.6089 15.326C17.6089 15.7953 17.6933 16.2353 17.8619 16.646C18.0306 17.0493 18.2616 17.405 18.5549 17.713C18.8556 18.0137 19.2039 18.252 19.5999 18.428C19.9959 18.5967 20.4249 18.681 20.8869 18.681ZM20.8869 19.176C20.3443 19.176 19.8383 19.0807 19.3689 18.89C18.8996 18.692 18.4926 18.4207 18.1479 18.076C17.8033 17.7313 17.5319 17.3243 17.3339 16.855C17.1433 16.3857 17.0479 15.876 17.0479 15.326C17.0479 14.7833 17.1469 14.281 17.3449 13.819C17.5429 13.3497 17.8143 12.9427 18.1589 12.598C18.5036 12.2533 18.9069 11.982 19.3689 11.784C19.8383 11.586 20.3443 11.487 20.8869 11.487C21.4223 11.487 21.9246 11.586 22.3939 11.784C22.8633 11.982 23.2703 12.2533 23.6149 12.598C23.9596 12.9427 24.2309 13.3497 24.4289 13.819C24.6269 14.281 24.7259 14.7833 24.7259 15.326C24.7259 15.876 24.6269 16.3857 24.4289 16.855C24.2383 17.3243 23.9706 17.7313 23.6259 18.076C23.2813 18.4207 22.8743 18.692 22.4049 18.89C21.9356 19.0807 21.4296 19.176 20.8869 19.176ZM28.9858 12.136H26.1368V11.663H32.3628V12.136H29.5138V19H28.9858V12.136ZM35.7091 18.692C35.6138 18.8313 35.5294 18.9267 35.4561 18.978C35.3901 19.0293 35.3131 19.055 35.2251 19.055C35.1224 19.055 35.0381 19.0147 34.9721 18.934C34.9134 18.8533 34.8841 18.7397 34.8841 18.593V11.663H35.4011V18.351L39.8561 11.971C39.9441 11.839 40.0248 11.7473 40.0981 11.696C40.1714 11.6373 40.2484 11.608 40.3291 11.608C40.5491 11.608 40.6591 11.7327 40.6591 11.982V19H40.1421V12.356L35.7091 18.692ZM43.852 11.663H46.283C46.6424 11.663 46.9504 11.7143 47.207 11.817C47.4637 11.9123 47.6727 12.0443 47.834 12.213C47.9954 12.3743 48.1127 12.565 48.186 12.785C48.2594 12.9977 48.296 13.225 48.296 13.467C48.296 13.6723 48.263 13.8667 48.197 14.05C48.131 14.2333 48.0394 14.402 47.922 14.556C47.812 14.7027 47.6764 14.8273 47.515 14.93C47.3537 15.0327 47.174 15.1023 46.976 15.139C47.1667 15.1683 47.3647 15.2197 47.57 15.293C47.7754 15.3663 47.9624 15.4763 48.131 15.623C48.2997 15.7623 48.439 15.9457 48.549 16.173C48.659 16.4003 48.714 16.6827 48.714 17.02C48.714 17.416 48.6407 17.7423 48.494 17.999C48.3474 18.2483 48.1457 18.45 47.889 18.604C47.6397 18.7507 47.3464 18.8533 47.009 18.912C46.679 18.9707 46.327 19 45.953 19H43.852V11.663ZM45.986 14.93C46.184 14.93 46.3857 14.9043 46.591 14.853C46.8037 14.8017 46.9944 14.7173 47.163 14.6C47.3317 14.4827 47.471 14.336 47.581 14.16C47.691 13.9767 47.746 13.7567 47.746 13.5C47.746 13.2067 47.691 12.972 47.581 12.796C47.4784 12.62 47.3427 12.4843 47.174 12.389C47.0054 12.2937 46.8147 12.2313 46.602 12.202C46.3967 12.1727 46.1914 12.158 45.986 12.158H44.38V14.93H45.986ZM45.821 18.505C46.0997 18.505 46.3784 18.494 46.657 18.472C46.9357 18.4427 47.185 18.3803 47.405 18.285C47.6324 18.1823 47.8157 18.032 47.955 17.834C48.0944 17.636 48.164 17.3647 48.164 17.02C48.164 16.69 48.0944 16.4223 47.955 16.217C47.823 16.0043 47.6507 15.843 47.438 15.733C47.2327 15.6157 47.0017 15.535 46.745 15.491C46.4884 15.447 46.239 15.425 45.997 15.425H44.38V18.505H45.821ZM54.8895 18.681C55.3515 18.681 55.7805 18.5967 56.1765 18.428C56.5725 18.252 56.9171 18.0137 57.2105 17.713C57.5111 17.405 57.7458 17.0493 57.9145 16.646C58.0831 16.2353 58.1675 15.7953 58.1675 15.326C58.1675 14.8493 58.0831 14.4093 57.9145 14.006C57.7458 13.5953 57.5148 13.2397 57.2215 12.939C56.9281 12.6383 56.5798 12.4037 56.1765 12.235C55.7805 12.0663 55.3515 11.982 54.8895 11.982C54.4275 11.982 53.9948 12.0663 53.5915 12.235C53.1955 12.4037 52.8508 12.6383 52.5575 12.939C52.2641 13.2397 52.0331 13.5953 51.8645 14.006C51.6958 14.4093 51.6115 14.8493 51.6115 15.326C51.6115 15.7953 51.6958 16.2353 51.8645 16.646C52.0331 17.0493 52.2641 17.405 52.5575 17.713C52.8581 18.0137 53.2065 18.252 53.6025 18.428C53.9985 18.5967 54.4275 18.681 54.8895 18.681ZM54.8895 19.176C54.3468 19.176 53.8408 19.0807 53.3715 18.89C52.9021 18.692 52.4951 18.4207 52.1505 18.076C51.8058 17.7313 51.5345 17.3243 51.3365 16.855C51.1458 16.3857 51.0505 15.876 51.0505 15.326C51.0505 14.7833 51.1495 14.281 51.3475 13.819C51.5455 13.3497 51.8168 12.9427 52.1615 12.598C52.5061 12.2533 52.9095 11.982 53.3715 11.784C53.8408 11.586 54.3468 11.487 54.8895 11.487C55.4248 11.487 55.9271 11.586 56.3965 11.784C56.8658 11.982 57.2728 12.2533 57.6175 12.598C57.9621 12.9427 58.2335 13.3497 58.4315 13.819C58.6295 14.281 58.7285 14.7833 58.7285 15.326C58.7285 15.876 58.6295 16.3857 58.4315 16.855C58.2408 17.3243 57.9731 17.7313 57.6285 18.076C57.2838 18.4207 56.8768 18.692 56.4075 18.89C55.9381 19.0807 55.4321 19.176 54.8895 19.176ZM61.5838 11.663H67.3148V19H66.7868V12.158H62.1118V19H61.5838V11.663ZM74.0177 18.681C74.4797 18.681 74.9087 18.5967 75.3047 18.428C75.7007 18.252 76.0454 18.0137 76.3387 17.713C76.6394 17.405 76.874 17.0493 77.0427 16.646C77.2114 16.2353 77.2957 15.7953 77.2957 15.326C77.2957 14.8493 77.2114 14.4093 77.0427 14.006C76.874 13.5953 76.643 13.2397 76.3497 12.939C76.0564 12.6383 75.708 12.4037 75.3047 12.235C74.9087 12.0663 74.4797 11.982 74.0177 11.982C73.5557 11.982 73.123 12.0663 72.7197 12.235C72.3237 12.4037 71.979 12.6383 71.6857 12.939C71.3924 13.2397 71.1614 13.5953 70.9927 14.006C70.824 14.4093 70.7397 14.8493 70.7397 15.326C70.7397 15.7953 70.824 16.2353 70.9927 16.646C71.1614 17.0493 71.3924 17.405 71.6857 17.713C71.9864 18.0137 72.3347 18.252 72.7307 18.428C73.1267 18.5967 73.5557 18.681 74.0177 18.681ZM74.0177 19.176C73.475 19.176 72.969 19.0807 72.4997 18.89C72.0304 18.692 71.6234 18.4207 71.2787 18.076C70.934 17.7313 70.6627 17.3243 70.4647 16.855C70.274 16.3857 70.1787 15.876 70.1787 15.326C70.1787 14.7833 70.2777 14.281 70.4757 13.819C70.6737 13.3497 70.945 12.9427 71.2897 12.598C71.6344 12.2533 72.0377 11.982 72.4997 11.784C72.969 11.586 73.475 11.487 74.0177 11.487C74.553 11.487 75.0554 11.586 75.5247 11.784C75.994 11.982 76.401 12.2533 76.7457 12.598C77.0904 12.9427 77.3617 13.3497 77.5597 13.819C77.7577 14.281 77.8567 14.7833 77.8567 15.326C77.8567 15.876 77.7577 16.3857 77.5597 16.855C77.369 17.3243 77.1014 17.7313 76.7567 18.076C76.412 18.4207 76.005 18.692 75.5357 18.89C75.0664 19.0807 74.5604 19.176 74.0177 19.176ZM83.946 14.457C83.748 14.7943 83.4767 15.04 83.132 15.194C83.308 15.3113 83.4987 15.4873 83.704 15.722C83.9167 15.9567 84.133 16.239 84.353 16.569C84.5803 16.899 84.8113 17.2693 85.046 17.68C85.2807 18.0907 85.5117 18.5307 85.739 19H85.134C85.0093 18.7433 84.8883 18.5087 84.771 18.296C84.661 18.076 84.5437 17.8633 84.419 17.658C84.2943 17.4527 84.1623 17.2473 84.023 17.042C83.891 16.8367 83.7407 16.6167 83.572 16.382C83.308 16.0227 83.0807 15.7733 82.89 15.634C82.6993 15.4947 82.483 15.425 82.241 15.425H81.24V19H80.712V11.663H81.24V14.93H82.307C82.5857 14.93 82.8167 14.8823 83 14.787C83.1833 14.6843 83.341 14.5193 83.473 14.292L85.013 11.663H85.607L83.946 14.457ZM92.6154 16.635H89.1614L88.2154 19H87.6434L90.5254 11.916C90.562 11.8207 90.6134 11.7473 90.6794 11.696C90.7527 11.6373 90.8297 11.608 90.9104 11.608C91.079 11.608 91.2074 11.7107 91.2954 11.916L94.1774 19H93.5724L92.6154 16.635ZM89.3594 16.14H92.4174L90.8884 12.246L89.3594 16.14ZM97.585 15.425V14.93H98.762C98.9747 14.93 99.1837 14.9043 99.389 14.853C99.6017 14.7943 99.7887 14.7063 99.95 14.589C100.119 14.4643 100.254 14.3103 100.357 14.127C100.46 13.9437 100.511 13.7237 100.511 13.467C100.511 13.1737 100.456 12.9317 100.346 12.741C100.243 12.5503 100.108 12.4 99.939 12.29C99.7704 12.1727 99.5834 12.092 99.378 12.048C99.18 12.004 98.9857 11.982 98.795 11.982C98.487 11.982 98.2194 12.0223 97.992 12.103C97.772 12.1837 97.5814 12.2827 97.42 12.4C97.266 12.5173 97.1377 12.6457 97.035 12.785C96.9324 12.917 96.848 13.0343 96.782 13.137L96.353 12.884C96.4117 12.7813 96.496 12.653 96.606 12.499C96.716 12.3377 96.8664 12.1837 97.057 12.037C97.255 11.883 97.497 11.7547 97.783 11.652C98.069 11.542 98.4137 11.487 98.817 11.487C99.2204 11.487 99.565 11.5457 99.851 11.663C100.137 11.773 100.368 11.9197 100.544 12.103C100.727 12.2863 100.859 12.4953 100.94 12.73C101.021 12.9573 101.061 13.192 101.061 13.434C101.061 13.632 101.028 13.8263 100.962 14.017C100.896 14.2077 100.801 14.3837 100.676 14.545C100.551 14.699 100.401 14.831 100.225 14.941C100.056 15.0437 99.862 15.1133 99.642 15.15C99.818 15.1793 100.001 15.2343 100.192 15.315C100.383 15.3883 100.555 15.502 100.709 15.656C100.87 15.8027 101.002 15.9897 101.105 16.217C101.208 16.437 101.259 16.712 101.259 17.042C101.259 17.416 101.193 17.7387 101.061 18.01C100.929 18.274 100.749 18.494 100.522 18.67C100.295 18.8387 100.031 18.9633 99.73 19.044C99.4294 19.132 99.114 19.176 98.784 19.176C98.3587 19.176 97.9884 19.1173 97.673 19C97.365 18.89 97.1047 18.7617 96.892 18.615C96.6867 18.461 96.5217 18.307 96.397 18.153C96.2797 17.9917 96.199 17.867 96.155 17.779L96.573 17.515C96.6244 17.5883 96.7014 17.691 96.804 17.823C96.9067 17.955 97.046 18.0833 97.222 18.208C97.398 18.3327 97.6144 18.4427 97.871 18.538C98.1277 18.6333 98.4357 18.681 98.795 18.681C99.0297 18.681 99.2607 18.6553 99.488 18.604C99.7227 18.5527 99.928 18.4647 100.104 18.34C100.287 18.2153 100.434 18.0503 100.544 17.845C100.654 17.6323 100.709 17.3647 100.709 17.042C100.709 16.7267 100.647 16.4663 100.522 16.261C100.405 16.0557 100.251 15.8907 100.06 15.766C99.8767 15.6413 99.6714 15.5533 99.444 15.502C99.2167 15.4507 98.993 15.425 98.773 15.425H97.585ZM108.113 16.635H104.659L103.713 19H103.141L106.023 11.916C106.059 11.8207 106.111 11.7473 106.177 11.696C106.25 11.6373 106.327 11.608 106.408 11.608C106.576 11.608 106.705 11.7107 106.793 11.916L109.675 19H109.07L108.113 16.635ZM104.857 16.14H107.915L106.386 12.246L104.857 16.14ZM112.136 11.663H112.664V14.93H117.284V11.663H117.812V19H117.284V15.425H112.664V19H112.136V11.663ZM121.833 18.692C121.737 18.8313 121.653 18.9267 121.58 18.978C121.514 19.0293 121.437 19.055 121.349 19.055C121.246 19.055 121.162 19.0147 121.096 18.934C121.037 18.8533 121.008 18.7397 121.008 18.593V11.663H121.525V18.351L125.98 11.971C126.068 11.839 126.148 11.7473 126.222 11.696C126.295 11.6373 126.372 11.608 126.453 11.608C126.673 11.608 126.783 11.7327 126.783 11.982V19H126.266V12.356L121.833 18.692ZM129.833 13.742C129.833 13.0893 130.049 12.5797 130.482 12.213C130.922 11.8463 131.571 11.663 132.429 11.663H134.64V19H134.112V15.821H132.528C132.176 15.821 131.904 15.942 131.714 16.184C131.42 16.558 131.149 16.9723 130.9 17.427C130.658 17.8817 130.419 18.406 130.185 19H129.624C129.748 18.6553 129.888 18.3143 130.042 17.977C130.203 17.6397 130.364 17.328 130.526 17.042C130.694 16.7487 130.859 16.4883 131.021 16.261C131.189 16.0337 131.343 15.8577 131.483 15.733C130.947 15.6157 130.537 15.3883 130.251 15.051C129.972 14.7063 129.833 14.27 129.833 13.742ZM134.112 15.326V12.158H132.275C131.021 12.158 130.394 12.686 130.394 13.742C130.394 14.2627 130.555 14.6587 130.878 14.93C131.208 15.194 131.688 15.326 132.319 15.326H134.112ZM138.134 19.066C138.01 19.066 137.907 19.0257 137.826 18.945C137.746 18.8643 137.705 18.7617 137.705 18.637C137.705 18.5123 137.746 18.4097 137.826 18.329C137.907 18.2483 138.01 18.208 138.134 18.208C138.259 18.208 138.362 18.2483 138.442 18.329C138.523 18.4097 138.563 18.5123 138.563 18.637C138.563 18.7617 138.523 18.8643 138.442 18.945C138.362 19.0257 138.259 19.066 138.134 19.066ZM0.946 22.663H6.677V30H6.149V23.158H1.474V30H0.946V22.663ZM13.556 26.425H10.531V29.505H14.689V30H10.421C10.2963 30 10.1936 29.967 10.113 29.901C10.0396 29.8277 10.003 29.7287 10.003 29.604V22.663H14.403V23.158H10.531V25.93H13.556V26.425ZM17.556 22.663H19.811C20.2877 22.663 20.6873 22.718 21.01 22.828C21.34 22.9307 21.604 23.0773 21.802 23.268C22 23.4587 22.143 23.6823 22.231 23.939C22.319 24.1957 22.363 24.4743 22.363 24.775C22.363 25.0757 22.319 25.3543 22.231 25.611C22.143 25.8677 22 26.0913 21.802 26.282C21.604 26.4727 21.34 26.623 21.01 26.733C20.6873 26.8357 20.2877 26.887 19.811 26.887H18.084V30H17.556V22.663ZM19.965 26.392C20.581 26.392 21.0393 26.2563 21.34 25.985C21.6407 25.7063 21.791 25.303 21.791 24.775C21.791 24.247 21.6407 23.8473 21.34 23.576C21.0393 23.2973 20.581 23.158 19.965 23.158H18.084V26.392H19.965ZM28.9091 26.425H25.8841V29.505H30.0421V30H25.7741C25.6494 30 25.5468 29.967 25.4661 29.901C25.3928 29.8277 25.3561 29.7287 25.3561 29.604V22.663H29.7561V23.158H25.8841V25.93H28.9091V26.425ZM34.7132 22.993C34.7352 22.773 34.8635 22.663 35.0982 22.663H38.8162V29.505H39.3222V31.694H38.8162V30H32.7222V31.694H32.2162V29.505H32.6892C32.9898 29.1823 33.2538 28.8193 33.4812 28.416C33.7085 28.0127 33.9028 27.5507 34.0642 27.03C34.2255 26.5093 34.3575 25.919 34.4602 25.259C34.5702 24.5917 34.6545 23.8363 34.7132 22.993ZM38.2882 23.158H35.2192C35.1605 23.972 35.0798 24.7017 34.9772 25.347C34.8745 25.9923 34.7462 26.5717 34.5922 27.085C34.4455 27.5983 34.2658 28.053 34.0532 28.449C33.8478 28.845 33.6095 29.197 33.3382 29.505H38.2882V23.158ZM45.7272 22.663H51.4582V30H50.9302V23.158H46.2552V30H45.7272V22.663ZM54.7841 22.663H57.0391C57.5158 22.663 57.9155 22.718 58.2381 22.828C58.5681 22.9307 58.8321 23.0773 59.0301 23.268C59.2281 23.4587 59.3711 23.6823 59.4591 23.939C59.5471 24.1957 59.5911 24.4743 59.5911 24.775C59.5911 25.0757 59.5471 25.3543 59.4591 25.611C59.3711 25.8677 59.2281 26.0913 59.0301 26.282C58.8321 26.4727 58.5681 26.623 58.2381 26.733C57.9155 26.8357 57.5158 26.887 57.0391 26.887H55.3121V30H54.7841V22.663ZM57.1931 26.392C57.8091 26.392 58.2675 26.2563 58.5681 25.985C58.8688 25.7063 59.0191 25.303 59.0191 24.775C59.0191 24.247 58.8688 23.8473 58.5681 23.576C58.2675 23.2973 57.8091 23.158 57.1931 23.158H55.3121V26.392H57.1931ZM63.4092 29.692C63.3139 29.8313 63.2296 29.9267 63.1562 29.978C63.0902 30.0293 63.0132 30.055 62.9252 30.055C62.8226 30.055 62.7382 30.0147 62.6722 29.934C62.6136 29.8533 62.5842 29.7397 62.5842 29.593V22.663H63.1012V29.351L67.5562 22.971C67.6442 22.839 67.7249 22.7473 67.7982 22.696C67.8716 22.6373 67.9486 22.608 68.0292 22.608C68.2492 22.608 68.3592 22.7327 68.3592 22.982V30H67.8422V23.356L63.4092 29.692ZM71.6842 22.982C71.6842 22.872 71.7135 22.784 71.7722 22.718C71.8382 22.6447 71.9225 22.608 72.0252 22.608C72.1645 22.608 72.3075 22.7217 72.4542 22.949L75.1272 27.151L77.8112 22.949C77.9578 22.7217 78.1008 22.608 78.2402 22.608C78.3428 22.608 78.4235 22.6447 78.4822 22.718C78.5482 22.784 78.5812 22.872 78.5812 22.982V30H78.0752V23.422L75.5892 27.371C75.5012 27.5177 75.4242 27.6167 75.3582 27.668C75.2922 27.7193 75.2152 27.745 75.1272 27.745C75.0392 27.745 74.9585 27.7193 74.8852 27.668C74.8118 27.6093 74.7348 27.5103 74.6542 27.371L72.1902 23.422V30H71.6842V22.982ZM85.4543 26.425H82.4293V29.505H86.5873V30H82.3193C82.1946 30 82.0919 29.967 82.0113 29.901C81.9379 29.8277 81.9013 29.7287 81.9013 29.604V22.663H86.3013V23.158H82.4293V25.93H85.4543V26.425ZM89.4543 22.663H89.9823V25.93H94.6023V22.663H95.1303V30H94.6023V26.425H89.9823V30H89.4543V22.663ZM102.011 26.425H98.9856V29.505H103.144V30H98.8756C98.7509 30 98.6482 29.967 98.5676 29.901C98.4942 29.8277 98.4576 29.7287 98.4576 29.604V22.663H102.858V23.158H98.9856V25.93H102.011V26.425ZM106.011 22.663H106.539V25.93H111.159V22.663H111.687V30H111.159V26.425H106.539V30H106.011V22.663ZM115.839 29.692C115.744 29.8313 115.659 29.9267 115.586 29.978C115.52 30.0293 115.443 30.055 115.355 30.055C115.252 30.055 115.168 30.0147 115.102 29.934C115.043 29.8533 115.014 29.7397 115.014 29.593V22.663H115.531V29.351L119.986 22.971C120.074 22.839 120.155 22.7473 120.228 22.696C120.301 22.6373 120.378 22.608 120.459 22.608C120.679 22.608 120.789 22.7327 120.789 22.982V30H120.272V23.356L115.839 29.692ZM127.667 26.425H124.642V29.505H128.8V30H124.532C124.407 30 124.304 29.967 124.224 29.901C124.15 29.8277 124.114 29.7287 124.114 29.604V22.663H128.514V23.158H124.642V25.93H127.667V26.425ZM131.667 22.982C131.667 22.872 131.696 22.784 131.755 22.718C131.821 22.6447 131.905 22.608 132.008 22.608C132.147 22.608 132.29 22.7217 132.437 22.949L135.11 27.151L137.794 22.949C137.94 22.7217 138.083 22.608 138.223 22.608C138.325 22.608 138.406 22.6447 138.465 22.718C138.531 22.784 138.564 22.872 138.564 22.982V30H138.058V23.422L135.572 27.371C135.484 27.5177 135.407 27.6167 135.341 27.668C135.275 27.7193 135.198 27.745 135.11 27.745C135.022 27.745 134.941 27.7193 134.868 27.668C134.794 27.6093 134.717 27.5103 134.637 27.371L132.173 23.422V30H131.667V22.982ZM0.946 33.663H1.474V36.93H6.094V33.663H6.622V41H6.094V37.425H1.474V41H0.946V33.663ZM19.1122 37.425H16.0872V40.505H20.2452V41H15.9772C15.8526 41 15.7499 40.967 15.6692 40.901C15.5959 40.8277 15.5592 40.7287 15.5592 40.604V33.663H19.9592V34.158H16.0872V36.93H19.1122V37.425ZM31.7909 40.681C32.2529 40.681 32.6819 40.5967 33.0779 40.428C33.4739 40.252 33.8185 40.0137 34.1119 39.713C34.4125 39.405 34.6472 39.0493 34.8159 38.646C34.9845 38.2353 35.0689 37.7953 35.0689 37.326C35.0689 36.8493 34.9845 36.4093 34.8159 36.006C34.6472 35.5953 34.4162 35.2397 34.1229 34.939C33.8295 34.6383 33.4812 34.4037 33.0779 34.235C32.6819 34.0663 32.2529 33.982 31.7909 33.982C31.3289 33.982 30.8962 34.0663 30.4929 34.235C30.0969 34.4037 29.7522 34.6383 29.4589 34.939C29.1655 35.2397 28.9345 35.5953 28.7659 36.006C28.5972 36.4093 28.5129 36.8493 28.5129 37.326C28.5129 37.7953 28.5972 38.2353 28.7659 38.646C28.9345 39.0493 29.1655 39.405 29.4589 39.713C29.7595 40.0137 30.1079 40.252 30.5039 40.428C30.8999 40.5967 31.3289 40.681 31.7909 40.681ZM31.7909 41.176C31.2482 41.176 30.7422 41.0807 30.2729 40.89C29.8035 40.692 29.3965 40.4207 29.0519 40.076C28.7072 39.7313 28.4359 39.3243 28.2379 38.855C28.0472 38.3857 27.9519 37.876 27.9519 37.326C27.9519 36.7833 28.0509 36.281 28.2489 35.819C28.4469 35.3497 28.7182 34.9427 29.0629 34.598C29.4075 34.2533 29.8109 33.982 30.2729 33.784C30.7422 33.586 31.2482 33.487 31.7909 33.487C32.3262 33.487 32.8285 33.586 33.2979 33.784C33.7672 33.982 34.1742 34.2533 34.5189 34.598C34.8635 34.9427 35.1349 35.3497 35.3329 35.819C35.5309 36.281 35.6299 36.7833 35.6299 37.326C35.6299 37.876 35.5309 38.3857 35.3329 38.855C35.1422 39.3243 34.8745 39.7313 34.5299 40.076C34.1852 40.4207 33.7782 40.692 33.3089 40.89C32.8395 41.0807 32.3335 41.176 31.7909 41.176ZM44.2271 33.663H48.5501V34.136H44.7551V36.633H46.5921C47.0688 36.633 47.4758 36.688 47.8131 36.798C48.1505 36.9007 48.4218 37.051 48.6271 37.249C48.8398 37.4397 48.9938 37.6707 49.0891 37.942C49.1845 38.2133 49.2321 38.5103 49.2321 38.833C49.2321 39.1337 49.1845 39.416 49.0891 39.68C48.9938 39.9367 48.8398 40.164 48.6271 40.362C48.4218 40.56 48.1505 40.7177 47.8131 40.835C47.4831 40.945 47.0798 41 46.6031 41H44.2271V33.663ZM44.7551 37.128V40.505H46.7131C47.3585 40.505 47.8425 40.362 48.1651 40.076C48.4951 39.79 48.6601 39.3757 48.6601 38.833C48.6601 38.2757 48.4951 37.854 48.1651 37.568C47.8425 37.2747 47.3585 37.128 46.7131 37.128H44.7551ZM59.64 37.183L57.121 33.663H57.759L59.937 36.743L62.137 33.663H62.753L60.245 37.15L62.995 41H62.357L59.948 37.59L57.517 41H56.901L59.64 37.183ZM74.2341 40.681C74.6961 40.681 75.1251 40.5967 75.5211 40.428C75.9171 40.252 76.2618 40.0137 76.5551 39.713C76.8558 39.405 77.0904 39.0493 77.2591 38.646C77.4278 38.2353 77.5121 37.7953 77.5121 37.326C77.5121 36.8493 77.4278 36.4093 77.2591 36.006C77.0904 35.5953 76.8594 35.2397 76.5661 34.939C76.2728 34.6383 75.9244 34.4037 75.5211 34.235C75.1251 34.0663 74.6961 33.982 74.2341 33.982C73.7721 33.982 73.3394 34.0663 72.9361 34.235C72.5401 34.4037 72.1954 34.6383 71.9021 34.939C71.6088 35.2397 71.3778 35.5953 71.2091 36.006C71.0404 36.4093 70.9561 36.8493 70.9561 37.326C70.9561 37.7953 71.0404 38.2353 71.2091 38.646C71.3778 39.0493 71.6088 39.405 71.9021 39.713C72.2028 40.0137 72.5511 40.252 72.9471 40.428C73.3431 40.5967 73.7721 40.681 74.2341 40.681ZM74.2341 41.176C73.6914 41.176 73.1854 41.0807 72.7161 40.89C72.2468 40.692 71.8398 40.4207 71.4951 40.076C71.1504 39.7313 70.8791 39.3243 70.6811 38.855C70.4904 38.3857 70.3951 37.876 70.3951 37.326C70.3951 36.7833 70.4941 36.281 70.6921 35.819C70.8901 35.3497 71.1614 34.9427 71.5061 34.598C71.8508 34.2533 72.2541 33.982 72.7161 33.784C73.1854 33.586 73.6914 33.487 74.2341 33.487C74.7694 33.487 75.2718 33.586 75.7411 33.784C76.2104 33.982 76.6174 34.2533 76.9621 34.598C77.3068 34.9427 77.5781 35.3497 77.7761 35.819C77.9741 36.281 78.0731 36.7833 78.0731 37.326C78.0731 37.876 77.9741 38.3857 77.7761 38.855C77.5854 39.3243 77.3178 39.7313 76.9731 40.076C76.6284 40.4207 76.2214 40.692 75.7521 40.89C75.2828 41.0807 74.7768 41.176 74.2341 41.176ZM87.9265 33.993C87.9485 33.773 88.0769 33.663 88.3115 33.663H92.0295V40.505H92.5355V42.694H92.0295V41H85.9355V42.694H85.4295V40.505H85.9025C86.2032 40.1823 86.4672 39.8193 86.6945 39.416C86.9219 39.0127 87.1162 38.5507 87.2775 38.03C87.4389 37.5093 87.5709 36.919 87.6735 36.259C87.7835 35.5917 87.8679 34.8363 87.9265 33.993ZM91.5015 34.158H88.4325C88.3739 34.972 88.2932 35.7017 88.1905 36.347C88.0879 36.9923 87.9595 37.5717 87.8055 38.085C87.6589 38.5983 87.4792 39.053 87.2665 39.449C87.0612 39.845 86.8229 40.197 86.5515 40.505H91.5015V34.158ZM101.958 40.692C101.863 40.8313 101.779 40.9267 101.705 40.978C101.639 41.0293 101.562 41.055 101.474 41.055C101.372 41.055 101.287 41.0147 101.221 40.934C101.163 40.8533 101.133 40.7397 101.133 40.593V33.663H101.65V40.351L106.105 33.971C106.193 33.839 106.274 33.7473 106.347 33.696C106.421 33.6373 106.498 33.608 106.578 33.608C106.798 33.608 106.908 33.7327 106.908 33.982V41H106.391V34.356L101.958 40.692ZM115.843 33.982C115.843 33.872 115.872 33.784 115.931 33.718C115.997 33.6447 116.081 33.608 116.184 33.608C116.323 33.608 116.466 33.7217 116.613 33.949L119.286 38.151L121.97 33.949C122.117 33.7217 122.26 33.608 122.399 33.608C122.502 33.608 122.582 33.6447 122.641 33.718C122.707 33.784 122.74 33.872 122.74 33.982V41H122.234V34.422L119.748 38.371C119.66 38.5177 119.583 38.6167 119.517 38.668C119.451 38.7193 119.374 38.745 119.286 38.745C119.198 38.745 119.117 38.7193 119.044 38.668C118.971 38.6093 118.894 38.5103 118.813 38.371L116.349 34.422V41H115.843V33.982ZM135.072 40.681C135.534 40.681 135.963 40.5967 136.359 40.428C136.755 40.252 137.1 40.0137 137.393 39.713C137.694 39.405 137.928 39.0493 138.097 38.646C138.266 38.2353 138.35 37.7953 138.35 37.326C138.35 36.8493 138.266 36.4093 138.097 36.006C137.928 35.5953 137.697 35.2397 137.404 34.939C137.111 34.6383 136.762 34.4037 136.359 34.235C135.963 34.0663 135.534 33.982 135.072 33.982C134.61 33.982 134.177 34.0663 133.774 34.235C133.378 34.4037 133.033 34.6383 132.74 34.939C132.447 35.2397 132.216 35.5953 132.047 36.006C131.878 36.4093 131.794 36.8493 131.794 37.326C131.794 37.7953 131.878 38.2353 132.047 38.646C132.216 39.0493 132.447 39.405 132.74 39.713C133.041 40.0137 133.389 40.252 133.785 40.428C134.181 40.5967 134.61 40.681 135.072 40.681ZM135.072 41.176C134.529 41.176 134.023 41.0807 133.554 40.89C133.085 40.692 132.678 40.4207 132.333 40.076C131.988 39.7313 131.717 39.3243 131.519 38.855C131.328 38.3857 131.233 37.876 131.233 37.326C131.233 36.7833 131.332 36.281 131.53 35.819C131.728 35.3497 131.999 34.9427 132.344 34.598C132.689 34.2533 133.092 33.982 133.554 33.784C134.023 33.586 134.529 33.487 135.072 33.487C135.607 33.487 136.11 33.586 136.579 33.784C137.048 33.982 137.455 34.2533 137.8 34.598C138.145 34.9427 138.416 35.3497 138.614 35.819C138.812 36.281 138.911 36.7833 138.911 37.326C138.911 37.876 138.812 38.3857 138.614 38.855C138.423 39.3243 138.156 39.7313 137.811 40.076C137.466 40.4207 137.059 40.692 136.59 40.89C136.121 41.0807 135.615 41.176 135.072 41.176ZM0.946 44.663H6.677V52H6.149V45.158H1.474V52H0.946V44.663ZM8.60595 44.663H10.861C11.3376 44.663 11.7373 44.718 12.06 44.828C12.39 44.9307 12.654 45.0773 12.852 45.268C13.05 45.4587 13.193 45.6823 13.281 45.939C13.369 46.1957 13.413 46.4743 13.413 46.775C13.413 47.0757 13.369 47.3543 13.281 47.611C13.193 47.8677 13.05 48.0913 12.852 48.282C12.654 48.4727 12.39 48.623 12.06 48.733C11.7373 48.8357 11.3376 48.887 10.861 48.887H9.13395V52H8.60595V44.663ZM11.015 48.392C11.631 48.392 12.0893 48.2563 12.39 47.985C12.6906 47.7063 12.841 47.303 12.841 46.775C12.841 46.247 12.6906 45.8473 12.39 45.576C12.0893 45.2973 11.631 45.158 11.015 45.158H9.13395V48.392H11.015ZM18.3569 51.681C18.8189 51.681 19.2479 51.5967 19.6439 51.428C20.0399 51.252 20.3846 51.0137 20.6779 50.713C20.9786 50.405 21.2133 50.0493 21.3819 49.646C21.5506 49.2353 21.6349 48.7953 21.6349 48.326C21.6349 47.8493 21.5506 47.4093 21.3819 47.006C21.2133 46.5953 20.9823 46.2397 20.6889 45.939C20.3956 45.6383 20.0473 45.4037 19.6439 45.235C19.2479 45.0663 18.8189 44.982 18.3569 44.982C17.8949 44.982 17.4623 45.0663 17.0589 45.235C16.6629 45.4037 16.3183 45.6383 16.0249 45.939C15.7316 46.2397 15.5006 46.5953 15.3319 47.006C15.1633 47.4093 15.0789 47.8493 15.0789 48.326C15.0789 48.7953 15.1633 49.2353 15.3319 49.646C15.5006 50.0493 15.7316 50.405 16.0249 50.713C16.3256 51.0137 16.6739 51.252 17.0699 51.428C17.4659 51.5967 17.8949 51.681 18.3569 51.681ZM18.3569 52.176C17.8143 52.176 17.3083 52.0807 16.8389 51.89C16.3696 51.692 15.9626 51.4207 15.6179 51.076C15.2733 50.7313 15.0019 50.3243 14.8039 49.855C14.6133 49.3857 14.5179 48.876 14.5179 48.326C14.5179 47.7833 14.6169 47.281 14.8149 46.819C15.0129 46.3497 15.2843 45.9427 15.6289 45.598C15.9736 45.2533 16.3769 44.982 16.8389 44.784C17.3083 44.586 17.8143 44.487 18.3569 44.487C18.8923 44.487 19.3946 44.586 19.8639 44.784C20.3333 44.982 20.7403 45.2533 21.0849 45.598C21.4296 45.9427 21.7009 46.3497 21.8989 46.819C22.0969 47.281 22.1959 47.7833 22.1959 48.326C22.1959 48.876 22.0969 49.3857 21.8989 49.855C21.7083 50.3243 21.4406 50.7313 21.0959 51.076C20.7513 51.4207 20.3443 51.692 19.8749 51.89C19.4056 52.0807 18.8996 52.176 18.3569 52.176ZM27.0202 47.457C26.8222 47.7943 26.5509 48.04 26.2062 48.194C26.3822 48.3113 26.5729 48.4873 26.7782 48.722C26.9909 48.9567 27.2072 49.239 27.4272 49.569C27.6545 49.899 27.8855 50.2693 28.1202 50.68C28.3549 51.0907 28.5859 51.5307 28.8132 52H28.2082C28.0835 51.7433 27.9625 51.5087 27.8452 51.296C27.7352 51.076 27.6179 50.8633 27.4932 50.658C27.3685 50.4527 27.2365 50.2473 27.0972 50.042C26.9652 49.8367 26.8149 49.6167 26.6462 49.382C26.3822 49.0227 26.1549 48.7733 25.9642 48.634C25.7735 48.4947 25.5572 48.425 25.3152 48.425H24.3142V52H23.7862V44.663H24.3142V47.93H25.3812C25.6599 47.93 25.8909 47.8823 26.0742 47.787C26.2575 47.6843 26.4152 47.5193 26.5472 47.292L28.0872 44.663H28.6812L27.0202 47.457ZM33.086 51.681C33.548 51.681 33.977 51.5967 34.373 51.428C34.769 51.252 35.1137 51.0137 35.407 50.713C35.7077 50.405 35.9424 50.0493 36.111 49.646C36.2797 49.2353 36.364 48.7953 36.364 48.326C36.364 47.8493 36.2797 47.4093 36.111 47.006C35.9424 46.5953 35.7114 46.2397 35.418 45.939C35.1247 45.6383 34.7764 45.4037 34.373 45.235C33.977 45.0663 33.548 44.982 33.086 44.982C32.624 44.982 32.1914 45.0663 31.788 45.235C31.392 45.4037 31.0474 45.6383 30.754 45.939C30.4607 46.2397 30.2297 46.5953 30.061 47.006C29.8924 47.4093 29.808 47.8493 29.808 48.326C29.808 48.7953 29.8924 49.2353 30.061 49.646C30.2297 50.0493 30.4607 50.405 30.754 50.713C31.0547 51.0137 31.403 51.252 31.799 51.428C32.195 51.5967 32.624 51.681 33.086 51.681ZM33.086 52.176C32.5434 52.176 32.0374 52.0807 31.568 51.89C31.0987 51.692 30.6917 51.4207 30.347 51.076C30.0024 50.7313 29.731 50.3243 29.533 49.855C29.3424 49.3857 29.247 48.876 29.247 48.326C29.247 47.7833 29.346 47.281 29.544 46.819C29.742 46.3497 30.0134 45.9427 30.358 45.598C30.7027 45.2533 31.106 44.982 31.568 44.784C32.0374 44.586 32.5434 44.487 33.086 44.487C33.6214 44.487 34.1237 44.586 34.593 44.784C35.0624 44.982 35.4694 45.2533 35.814 45.598C36.1587 45.9427 36.43 46.3497 36.628 46.819C36.826 47.281 36.925 47.7833 36.925 48.326C36.925 48.876 36.826 49.3857 36.628 49.855C36.4374 50.3243 36.1697 50.7313 35.825 51.076C35.4804 51.4207 35.0734 51.692 34.604 51.89C34.1347 52.0807 33.6287 52.176 33.086 52.176ZM38.5153 44.663H39.0433V47.93H43.6633V44.663H44.1913V52H43.6633V48.425H39.0433V52H38.5153V44.663ZM52.0505 46.159C51.7645 45.785 51.4089 45.4953 50.9835 45.29C50.5655 45.0847 50.1109 44.982 49.6195 44.982C49.1282 44.982 48.6809 45.0627 48.2775 45.224C47.8815 45.3853 47.5405 45.6127 47.2545 45.906C46.9685 46.1993 46.7485 46.5513 46.5945 46.962C46.4405 47.3727 46.3635 47.831 46.3635 48.337C46.3635 48.843 46.4405 49.3013 46.5945 49.712C46.7485 50.1227 46.9649 50.4747 47.2435 50.768C47.5222 51.054 47.8595 51.2777 48.2555 51.439C48.6589 51.6003 49.1025 51.681 49.5865 51.681C50.0925 51.681 50.5545 51.582 50.9725 51.384C51.3905 51.1787 51.7499 50.8853 52.0505 50.504L52.4465 50.779C52.3072 50.9917 52.1312 51.1823 51.9185 51.351C51.7132 51.5197 51.4822 51.6663 51.2255 51.791C50.9762 51.9157 50.7085 52.011 50.4225 52.077C50.1365 52.143 49.8469 52.176 49.5535 52.176C49.0035 52.176 48.4975 52.0843 48.0355 51.901C47.5735 51.7103 47.1775 51.4463 46.8475 51.109C46.5175 50.7643 46.2572 50.3573 46.0665 49.888C45.8832 49.4187 45.7915 48.9017 45.7915 48.337C45.7915 47.7723 45.8869 47.2553 46.0775 46.786C46.2682 46.3093 46.5322 45.9023 46.8695 45.565C47.2069 45.2203 47.6065 44.9563 48.0685 44.773C48.5379 44.5823 49.0475 44.487 49.5975 44.487C50.1915 44.487 50.7415 44.6117 51.2475 44.861C51.7609 45.1103 52.1605 45.4513 52.4465 45.884L52.0505 46.159ZM58.3192 44.663H58.8802L55.7232 51.186C55.5765 51.494 55.4005 51.736 55.1952 51.912C54.9898 52.088 54.7148 52.176 54.3702 52.176C54.1282 52.176 53.9082 52.132 53.7102 52.044C53.5122 51.9633 53.3435 51.8607 53.2042 51.736L53.4682 51.34C53.5928 51.4427 53.7285 51.527 53.8752 51.593C54.0292 51.6517 54.1905 51.681 54.3592 51.681C54.5792 51.681 54.7588 51.626 54.8982 51.516C55.0448 51.3987 55.1732 51.2227 55.2832 50.988L55.7232 50.075L52.7972 44.663H53.4022L55.9982 49.492L58.3192 44.663ZM60.2233 44.993C60.2306 44.8977 60.2599 44.8207 60.3113 44.762C60.3699 44.696 60.4616 44.663 60.5863 44.663H64.4033V52H63.8753V45.158H60.7513C60.7293 45.7447 60.6963 46.324 60.6523 46.896C60.6156 47.4607 60.5569 47.9997 60.4763 48.513C60.3956 49.019 60.2893 49.4883 60.1573 49.921C60.0326 50.3463 59.8713 50.7167 59.6733 51.032C59.4826 51.34 59.2516 51.582 58.9803 51.758C58.7089 51.934 58.3899 52.022 58.0233 52.022H57.9023V51.538C58.3349 51.538 58.6943 51.384 58.9803 51.076C59.2663 50.768 59.4936 50.3317 59.6623 49.767C59.8383 49.195 59.9666 48.5057 60.0473 47.699C60.1279 46.8923 60.1866 45.9903 60.2233 44.993ZM66.3299 44.663H66.8579V47.578H68.6949C69.1716 47.578 69.5786 47.633 69.9159 47.743C70.2532 47.853 70.5246 48.007 70.7299 48.205C70.9426 48.3957 71.0966 48.6303 71.1919 48.909C71.2872 49.1803 71.3349 49.481 71.3349 49.811C71.3349 50.1117 71.2872 50.394 71.1919 50.658C71.0966 50.922 70.9426 51.153 70.7299 51.351C70.5246 51.549 70.2532 51.7067 69.9159 51.824C69.5859 51.9413 69.1826 52 68.7059 52H66.3299V44.663ZM66.8579 48.073V51.505H68.8159C69.4612 51.505 69.9452 51.362 70.2679 51.076C70.5979 50.7827 70.7629 50.361 70.7629 49.811C70.7629 49.239 70.5979 48.8063 70.2679 48.513C69.9452 48.2197 69.4612 48.073 68.8159 48.073H66.8579ZM73.6757 45.136H70.8267V44.663H77.0527V45.136H74.2037V52H73.6757V45.136ZM79.134 51.692C79.0387 51.8313 78.9543 51.9267 78.881 51.978C78.815 52.0293 78.738 52.055 78.65 52.055C78.5473 52.055 78.463 52.0147 78.397 51.934C78.3383 51.8533 78.309 51.7397 78.309 51.593V44.663H78.826V51.351L83.281 44.971C83.369 44.839 83.4497 44.7473 83.523 44.696C83.5963 44.6373 83.6733 44.608 83.754 44.608C83.974 44.608 84.084 44.7327 84.084 44.982V52H83.567V45.356L79.134 51.692ZM86.0119 44.663H88.2669C88.7436 44.663 89.1433 44.718 89.4659 44.828C89.7959 44.9307 90.0599 45.0773 90.2579 45.268C90.4559 45.4587 90.5989 45.6823 90.6869 45.939C90.7749 46.1957 90.8189 46.4743 90.8189 46.775C90.8189 47.0757 90.7749 47.3543 90.6869 47.611C90.5989 47.8677 90.4559 48.0913 90.2579 48.282C90.0599 48.4727 89.7959 48.623 89.4659 48.733C89.1433 48.8357 88.7436 48.887 88.2669 48.887H86.5399V52H86.0119V44.663ZM88.4209 48.392C89.0369 48.392 89.4953 48.2563 89.7959 47.985C90.0966 47.7063 90.2469 47.303 90.2469 46.775C90.2469 46.247 90.0966 45.8473 89.7959 45.576C89.4953 45.2973 89.0369 45.158 88.4209 45.158H86.5399V48.392H88.4209ZM95.7629 51.681C96.2249 51.681 96.6539 51.5967 97.0499 51.428C97.4459 51.252 97.7906 51.0137 98.0839 50.713C98.3846 50.405 98.6192 50.0493 98.7879 49.646C98.9566 49.2353 99.0409 48.7953 99.0409 48.326C99.0409 47.8493 98.9566 47.4093 98.7879 47.006C98.6192 46.5953 98.3882 46.2397 98.0949 45.939C97.8016 45.6383 97.4532 45.4037 97.0499 45.235C96.6539 45.0663 96.2249 44.982 95.7629 44.982C95.3009 44.982 94.8682 45.0663 94.4649 45.235C94.0689 45.4037 93.7242 45.6383 93.4309 45.939C93.1376 46.2397 92.9066 46.5953 92.7379 47.006C92.5692 47.4093 92.4849 47.8493 92.4849 48.326C92.4849 48.7953 92.5692 49.2353 92.7379 49.646C92.9066 50.0493 93.1376 50.405 93.4309 50.713C93.7316 51.0137 94.0799 51.252 94.4759 51.428C94.8719 51.5967 95.3009 51.681 95.7629 51.681ZM95.7629 52.176C95.2202 52.176 94.7142 52.0807 94.2449 51.89C93.7756 51.692 93.3686 51.4207 93.0239 51.076C92.6792 50.7313 92.4079 50.3243 92.2099 49.855C92.0192 49.3857 91.9239 48.876 91.9239 48.326C91.9239 47.7833 92.0229 47.281 92.2209 46.819C92.4189 46.3497 92.6902 45.9427 93.0349 45.598C93.3796 45.2533 93.7829 44.982 94.2449 44.784C94.7142 44.586 95.2202 44.487 95.7629 44.487C96.2982 44.487 96.8006 44.586 97.2699 44.784C97.7392 44.982 98.1462 45.2533 98.4909 45.598C98.8356 45.9427 99.1069 46.3497 99.3049 46.819C99.5029 47.281 99.6019 47.7833 99.6019 48.326C99.6019 48.876 99.5029 49.3857 99.3049 49.855C99.1142 50.3243 98.8466 50.7313 98.5019 51.076C98.1572 51.4207 97.7502 51.692 97.2809 51.89C96.8116 52.0807 96.3056 52.176 95.7629 52.176ZM101.192 44.663H103.623C103.983 44.663 104.291 44.7143 104.547 44.817C104.804 44.9123 105.013 45.0443 105.174 45.213C105.336 45.3743 105.453 45.565 105.526 45.785C105.6 45.9977 105.636 46.225 105.636 46.467C105.636 46.6723 105.603 46.8667 105.537 47.05C105.471 47.2333 105.38 47.402 105.262 47.556C105.152 47.7027 105.017 47.8273 104.855 47.93C104.694 48.0327 104.514 48.1023 104.316 48.139C104.507 48.1683 104.705 48.2197 104.91 48.293C105.116 48.3663 105.303 48.4763 105.471 48.623C105.64 48.7623 105.779 48.9457 105.889 49.173C105.999 49.4003 106.054 49.6827 106.054 50.02C106.054 50.416 105.981 50.7423 105.834 50.999C105.688 51.2483 105.486 51.45 105.229 51.604C104.98 51.7507 104.687 51.8533 104.349 51.912C104.019 51.9707 103.667 52 103.293 52H101.192V44.663ZM103.326 47.93C103.524 47.93 103.726 47.9043 103.931 47.853C104.144 47.8017 104.335 47.7173 104.503 47.6C104.672 47.4827 104.811 47.336 104.921 47.16C105.031 46.9767 105.086 46.7567 105.086 46.5C105.086 46.2067 105.031 45.972 104.921 45.796C104.819 45.62 104.683 45.4843 104.514 45.389C104.346 45.2937 104.155 45.2313 103.942 45.202C103.737 45.1727 103.532 45.158 103.326 45.158H101.72V47.93H103.326ZM103.161 51.505C103.44 51.505 103.719 51.494 103.997 51.472C104.276 51.4427 104.525 51.3803 104.745 51.285C104.973 51.1823 105.156 51.032 105.295 50.834C105.435 50.636 105.504 50.3647 105.504 50.02C105.504 49.69 105.435 49.4223 105.295 49.217C105.163 49.0043 104.991 48.843 104.778 48.733C104.573 48.6157 104.342 48.535 104.085 48.491C103.829 48.447 103.579 48.425 103.337 48.425H101.72V51.505H103.161ZM111.648 49.635H108.194L107.248 52H106.676L109.558 44.916C109.595 44.8207 109.646 44.7473 109.712 44.696C109.785 44.6373 109.862 44.608 109.943 44.608C110.112 44.608 110.24 44.7107 110.328 44.916L113.21 52H112.605L111.648 49.635ZM108.392 49.14H111.45L109.921 45.246L108.392 49.14ZM115.317 45.136H112.468V44.663H118.694V45.136H115.845V52H115.317V45.136ZM119.95 44.663H120.478V47.578H122.315C122.792 47.578 123.199 47.633 123.536 47.743C123.874 47.853 124.145 48.007 124.35 48.205C124.563 48.3957 124.717 48.6303 124.812 48.909C124.908 49.1803 124.955 49.481 124.955 49.811C124.955 50.1117 124.908 50.394 124.812 50.658C124.717 50.922 124.563 51.153 124.35 51.351C124.145 51.549 123.874 51.7067 123.536 51.824C123.206 51.9413 122.803 52 122.326 52H119.95V44.663ZM120.478 48.073V51.505H122.436C123.082 51.505 123.566 51.362 123.888 51.076C124.218 50.7827 124.383 50.361 124.383 49.811C124.383 49.239 124.218 48.8063 123.888 48.513C123.566 48.2197 123.082 48.073 122.436 48.073H120.478ZM132.476 46.159C132.19 45.785 131.834 45.4953 131.409 45.29C130.991 45.0847 130.536 44.982 130.045 44.982C129.554 44.982 129.106 45.0627 128.703 45.224C128.307 45.3853 127.966 45.6127 127.68 45.906C127.394 46.1993 127.174 46.5513 127.02 46.962C126.866 47.3727 126.789 47.831 126.789 48.337C126.789 48.843 126.866 49.3013 127.02 49.712C127.174 50.1227 127.39 50.4747 127.669 50.768C127.948 51.054 128.285 51.2777 128.681 51.439C129.084 51.6003 129.528 51.681 130.012 51.681C130.518 51.681 130.98 51.582 131.398 51.384C131.816 51.1787 132.175 50.8853 132.476 50.504L132.872 50.779C132.733 50.9917 132.557 51.1823 132.344 51.351C132.139 51.5197 131.908 51.6663 131.651 51.791C131.402 51.9157 131.134 52.011 130.848 52.077C130.562 52.143 130.272 52.176 129.979 52.176C129.429 52.176 128.923 52.0843 128.461 51.901C127.999 51.7103 127.603 51.4463 127.273 51.109C126.943 50.7643 126.683 50.3573 126.492 49.888C126.309 49.4187 126.217 48.9017 126.217 48.337C126.217 47.7723 126.312 47.2553 126.503 46.786C126.694 46.3093 126.958 45.9023 127.295 45.565C127.632 45.2203 128.032 44.9563 128.494 44.773C128.963 44.5823 129.473 44.487 130.023 44.487C130.617 44.487 131.167 44.6117 131.673 44.861C132.186 45.1103 132.586 45.4513 132.872 45.884L132.476 46.159ZM133.827 46.742C133.827 46.0893 134.044 45.5797 134.476 45.213C134.916 44.8463 135.565 44.663 136.423 44.663H138.634V52H138.106V48.821H136.522C136.17 48.821 135.899 48.942 135.708 49.184C135.415 49.558 135.144 49.9723 134.894 50.427C134.652 50.8817 134.414 51.406 134.179 52H133.618C133.743 51.6553 133.882 51.3143 134.036 50.977C134.198 50.6397 134.359 50.328 134.52 50.042C134.689 49.7487 134.854 49.4883 135.015 49.261C135.184 49.0337 135.338 48.8577 135.477 48.733C134.942 48.6157 134.531 48.3883 134.245 48.051C133.967 47.7063 133.827 47.27 133.827 46.742ZM138.106 48.326V45.158H136.269C135.015 45.158 134.388 45.686 134.388 46.742C134.388 47.2627 134.55 47.6587 134.872 47.93C135.202 48.194 135.683 48.326 136.313 48.326H138.106ZM6.875 57.159C6.589 56.785 6.23333 56.4953 5.808 56.29C5.39 56.0847 4.93533 55.982 4.444 55.982C3.95267 55.982 3.50533 56.0627 3.102 56.224C2.706 56.3853 2.365 56.6127 2.079 56.906C1.793 57.1993 1.573 57.5513 1.419 57.962C1.265 58.3727 1.188 58.831 1.188 59.337C1.188 59.843 1.265 60.3013 1.419 60.712C1.573 61.1227 1.78933 61.4747 2.068 61.768C2.34667 62.054 2.684 62.2777 3.08 62.439C3.48333 62.6003 3.927 62.681 4.411 62.681C4.917 62.681 5.379 62.582 5.797 62.384C6.215 62.1787 6.57433 61.8853 6.875 61.504L7.271 61.779C7.13167 61.9917 6.95567 62.1823 6.743 62.351C6.53767 62.5197 6.30667 62.6663 6.05 62.791C5.80067 62.9157 5.533 63.011 5.247 63.077C4.961 63.143 4.67133 63.176 4.378 63.176C3.828 63.176 3.322 63.0843 2.86 62.901C2.398 62.7103 2.002 62.4463 1.672 62.109C1.342 61.7643 1.08167 61.3573 0.891 60.888C0.707667 60.4187 0.616 59.9017 0.616 59.337C0.616 58.7723 0.711333 58.2553 0.902 57.786C1.09267 57.3093 1.35667 56.9023 1.694 56.565C2.03133 56.2203 2.431 55.9563 2.893 55.773C3.36233 55.5823 3.872 55.487 4.422 55.487C5.016 55.487 5.566 55.6117 6.072 55.861C6.58533 56.1103 6.985 56.4513 7.271 56.884L6.875 57.159ZM13.9395 62.681C14.4015 62.681 14.8305 62.5967 15.2265 62.428C15.6225 62.252 15.9672 62.0137 16.2605 61.713C16.5612 61.405 16.7958 61.0493 16.9645 60.646C17.1332 60.2353 17.2175 59.7953 17.2175 59.326C17.2175 58.8493 17.1332 58.4093 16.9645 58.006C16.7958 57.5953 16.5648 57.2397 16.2715 56.939C15.9782 56.6383 15.6298 56.4037 15.2265 56.235C14.8305 56.0663 14.4015 55.982 13.9395 55.982C13.4775 55.982 13.0448 56.0663 12.6415 56.235C12.2455 56.4037 11.9008 56.6383 11.6075 56.939C11.3142 57.2397 11.0832 57.5953 10.9145 58.006C10.7458 58.4093 10.6615 58.8493 10.6615 59.326C10.6615 59.7953 10.7458 60.2353 10.9145 60.646C11.0832 61.0493 11.3142 61.405 11.6075 61.713C11.9082 62.0137 12.2565 62.252 12.6525 62.428C13.0485 62.5967 13.4775 62.681 13.9395 62.681ZM13.9395 63.176C13.3968 63.176 12.8908 63.0807 12.4215 62.89C11.9522 62.692 11.5452 62.4207 11.2005 62.076C10.8558 61.7313 10.5845 61.3243 10.3865 60.855C10.1958 60.3857 10.1005 59.876 10.1005 59.326C10.1005 58.7833 10.1995 58.281 10.3975 57.819C10.5955 57.3497 10.8668 56.9427 11.2115 56.598C11.5562 56.2533 11.9595 55.982 12.4215 55.784C12.8908 55.586 13.3968 55.487 13.9395 55.487C14.4748 55.487 14.9772 55.586 15.4465 55.784C15.9158 55.982 16.3228 56.2533 16.6675 56.598C17.0122 56.9427 17.2835 57.3497 17.4815 57.819C17.6795 58.281 17.7785 58.7833 17.7785 59.326C17.7785 59.876 17.6795 60.3857 17.4815 60.855C17.2908 61.3243 17.0232 61.7313 16.6785 62.076C16.3338 62.4207 15.9268 62.692 15.4575 62.89C14.9882 63.0807 14.4822 63.176 13.9395 63.176ZM31.7621 57.159C31.4761 56.785 31.1204 56.4953 30.6951 56.29C30.2771 56.0847 29.8224 55.982 29.3311 55.982C28.8397 55.982 28.3924 56.0627 27.9891 56.224C27.5931 56.3853 27.2521 56.6127 26.9661 56.906C26.6801 57.1993 26.4601 57.5513 26.3061 57.962C26.1521 58.3727 26.0751 58.831 26.0751 59.337C26.0751 59.843 26.1521 60.3013 26.3061 60.712C26.4601 61.1227 26.6764 61.4747 26.9551 61.768C27.2337 62.054 27.5711 62.2777 27.9671 62.439C28.3704 62.6003 28.8141 62.681 29.2981 62.681C29.8041 62.681 30.2661 62.582 30.6841 62.384C31.1021 62.1787 31.4614 61.8853 31.7621 61.504L32.1581 61.779C32.0187 61.9917 31.8427 62.1823 31.6301 62.351C31.4247 62.5197 31.1937 62.6663 30.9371 62.791C30.6877 62.9157 30.4201 63.011 30.1341 63.077C29.8481 63.143 29.5584 63.176 29.2651 63.176C28.7151 63.176 28.2091 63.0843 27.7471 62.901C27.2851 62.7103 26.8891 62.4463 26.5591 62.109C26.2291 61.7643 25.9687 61.3573 25.7781 60.888C25.5947 60.4187 25.5031 59.9017 25.5031 59.337C25.5031 58.7723 25.5984 58.2553 25.7891 57.786C25.9797 57.3093 26.2437 56.9023 26.5811 56.565C26.9184 56.2203 27.3181 55.9563 27.7801 55.773C28.2494 55.5823 28.7591 55.487 29.3091 55.487C29.9031 55.487 30.4531 55.6117 30.9591 55.861C31.4724 56.1103 31.8721 56.4513 32.1581 56.884L31.7621 57.159ZM35.4787 55.663H41.2097V63H40.6817V56.158H36.0067V63H35.4787V55.663ZM48.9137 59.425H45.8887V62.505H50.0467V63H45.7787C45.654 63 45.5513 62.967 45.4706 62.901C45.3973 62.8277 45.3606 62.7287 45.3606 62.604V55.663H49.7607V56.158H45.8887V58.93H48.9137V59.425ZM59.4257 64.694V63H53.7387V55.663H54.2667V62.505H58.8977V55.663H59.4257V62.505H59.9317V64.694H59.4257ZM64.5746 62.692C64.4792 62.8313 64.3949 62.9267 64.3216 62.978C64.2556 63.0293 64.1786 63.055 64.0906 63.055C63.9879 63.055 63.9036 63.0147 63.8376 62.934C63.7789 62.8533 63.7496 62.7397 63.7496 62.593V55.663H64.2666V62.351L68.7216 55.971C68.8096 55.839 68.8902 55.7473 68.9636 55.696C69.0369 55.6373 69.1139 55.608 69.1946 55.608C69.4146 55.608 69.5246 55.7327 69.5246 55.982V63H69.0076V56.356L64.5746 62.692ZM77.9205 60.635H74.4665L73.5205 63H72.9485L75.8305 55.916C75.8671 55.8207 75.9185 55.7473 75.9845 55.696C76.0578 55.6373 76.1348 55.608 76.2155 55.608C76.3841 55.608 76.5125 55.7107 76.6005 55.916L79.4825 63H78.8775L77.9205 60.635ZM74.6645 60.14H77.7225L76.1935 56.246L74.6645 60.14ZM84.7123 55.993C84.7196 55.8977 84.749 55.8207 84.8003 55.762C84.859 55.696 84.9506 55.663 85.0753 55.663H88.8923V63H88.3643V56.158H85.2403C85.2183 56.7447 85.1853 57.324 85.1413 57.896C85.1046 58.4607 85.046 58.9997 84.9653 59.513C84.8846 60.019 84.7783 60.4883 84.6463 60.921C84.5216 61.3463 84.3603 61.7167 84.1623 62.032C83.9716 62.34 83.7406 62.582 83.4693 62.758C83.198 62.934 82.879 63.022 82.5123 63.022H82.3913V62.538C82.824 62.538 83.1833 62.384 83.4693 62.076C83.7553 61.768 83.9826 61.3317 84.1513 60.767C84.3273 60.195 84.4556 59.5057 84.5363 58.699C84.617 57.8923 84.6756 56.9903 84.7123 55.993ZM93.8659 62.692C93.7706 62.8313 93.6863 62.9267 93.6129 62.978C93.5469 63.0293 93.4699 63.055 93.3819 63.055C93.2793 63.055 93.1949 63.0147 93.1289 62.934C93.0703 62.8533 93.0409 62.7397 93.0409 62.593V55.663H93.5579V62.351L98.0129 55.971C98.1009 55.839 98.1816 55.7473 98.2549 55.696C98.3283 55.6373 98.4053 55.608 98.4859 55.608C98.7059 55.608 98.8159 55.7327 98.8159 55.982V63H98.2989V56.356L93.8659 62.692ZM108.895 57.159C108.609 56.785 108.253 56.4953 107.828 56.29C107.41 56.0847 106.955 55.982 106.464 55.982C105.973 55.982 105.525 56.0627 105.122 56.224C104.726 56.3853 104.385 56.6127 104.099 56.906C103.813 57.1993 103.593 57.5513 103.439 57.962C103.285 58.3727 103.208 58.831 103.208 59.337C103.208 59.843 103.285 60.3013 103.439 60.712C103.593 61.1227 103.809 61.4747 104.088 61.768C104.367 62.054 104.704 62.2777 105.1 62.439C105.503 62.6003 105.947 62.681 106.431 62.681C106.937 62.681 107.399 62.582 107.817 62.384C108.235 62.1787 108.594 61.8853 108.895 61.504L109.291 61.779C109.152 61.9917 108.976 62.1823 108.763 62.351C108.558 62.5197 108.327 62.6663 108.07 62.791C107.821 62.9157 107.553 63.011 107.267 63.077C106.981 63.143 106.691 63.176 106.398 63.176C105.848 63.176 105.342 63.0843 104.88 62.901C104.418 62.7103 104.022 62.4463 103.692 62.109C103.362 61.7643 103.102 61.3573 102.911 60.888C102.728 60.4187 102.636 59.9017 102.636 59.337C102.636 58.7723 102.731 58.2553 102.922 57.786C103.113 57.3093 103.377 56.9023 103.714 56.565C104.051 56.2203 104.451 55.9563 104.913 55.773C105.382 55.5823 105.892 55.487 106.442 55.487C107.036 55.487 107.586 55.6117 108.092 55.861C108.605 56.1103 109.005 56.4513 109.291 56.884L108.895 57.159ZM114.628 56.136H111.779V55.663H118.005V56.136H115.156V63H114.628V56.136ZM124.219 62.681C124.681 62.681 125.11 62.5967 125.506 62.428C125.902 62.252 126.247 62.0137 126.54 61.713C126.841 61.405 127.076 61.0493 127.244 60.646C127.413 60.2353 127.497 59.7953 127.497 59.326C127.497 58.8493 127.413 58.4093 127.244 58.006C127.076 57.5953 126.845 57.2397 126.551 56.939C126.258 56.6383 125.91 56.4037 125.506 56.235C125.11 56.0663 124.681 55.982 124.219 55.982C123.757 55.982 123.325 56.0663 122.921 56.235C122.525 56.4037 122.181 56.6383 121.887 56.939C121.594 57.2397 121.363 57.5953 121.194 58.006C121.026 58.4093 120.941 58.8493 120.941 59.326C120.941 59.7953 121.026 60.2353 121.194 60.646C121.363 61.0493 121.594 61.405 121.887 61.713C122.188 62.0137 122.536 62.252 122.932 62.428C123.328 62.5967 123.757 62.681 124.219 62.681ZM124.219 63.176C123.677 63.176 123.171 63.0807 122.701 62.89C122.232 62.692 121.825 62.4207 121.48 62.076C121.136 61.7313 120.864 61.3243 120.666 60.855C120.476 60.3857 120.38 59.876 120.38 59.326C120.38 58.7833 120.479 58.281 120.677 57.819C120.875 57.3497 121.147 56.9427 121.491 56.598C121.836 56.2533 122.239 55.982 122.701 55.784C123.171 55.586 123.677 55.487 124.219 55.487C124.755 55.487 125.257 55.586 125.726 55.784C126.196 55.982 126.603 56.2533 126.947 56.598C127.292 56.9427 127.563 57.3497 127.761 57.819C127.959 58.281 128.058 58.7833 128.058 59.326C128.058 59.876 127.959 60.3857 127.761 60.855C127.571 61.3243 127.303 61.7313 126.958 62.076C126.614 62.4207 126.207 62.692 125.737 62.89C125.268 63.0807 124.762 63.176 124.219 63.176ZM131.87 55.982C131.87 55.872 131.9 55.784 131.958 55.718C132.024 55.6447 132.109 55.608 132.211 55.608C132.351 55.608 132.494 55.7217 132.64 55.949L135.313 60.151L137.997 55.949C138.144 55.7217 138.287 55.608 138.426 55.608C138.529 55.608 138.61 55.6447 138.669 55.718C138.735 55.784 138.768 55.872 138.768 55.982V63H138.262V56.422L135.775 60.371C135.687 60.5177 135.61 60.6167 135.544 60.668C135.478 60.7193 135.401 60.745 135.313 60.745C135.225 60.745 135.145 60.7193 135.071 60.668C134.998 60.6093 134.921 60.5103 134.84 60.371L132.376 56.422V63H131.87V55.982Z" fill="white"/>
</svg>
