<svg width="140" height="65" fill="none" xmlns="http://www.w3.org/2000/svg"><path d="M7.324 15.72v10.967H6.055v-9.553H1.27v9.553H0V15.72h7.324zM10.022 26.687a.615.615 0 0 1-.49-.213c-.123-.143-.185-.357-.185-.642V15.72H14.9v1.397h-4.283v3.19h3.225v1.415h-3.225v3.551h4.6v1.414h-5.195zM16.81 15.72h2.79c.599 0 1.092.104 1.48.312.397.208.71.471.939.79.238.317.4.674.489 1.068.097.395.146.779.146 1.151 0 .548-.076 1.03-.225 1.447-.15.417-.357.768-.622 1.053a2.604 2.604 0 0 1-.951.624 3.216 3.216 0 0 1-1.19.214h-1.6v4.308H16.81V15.72zm2.842 5.31c.547 0 .965-.17 1.256-.509.3-.35.45-.833.45-1.447 0-.625-.154-1.113-.463-1.463-.3-.362-.714-.543-1.243-.543h-1.586v3.963h1.586zM24.973 26.687a.615.615 0 0 1-.49-.213c-.123-.143-.185-.357-.185-.642V15.72h5.553v1.397h-4.284v3.19h3.226v1.415h-3.226v3.551h4.601v1.414h-5.195zM38.299 17.134H35.27c-.07 1.02-.159 1.93-.264 2.73a20.35 20.35 0 0 1-.397 2.17c-.15.636-.33 1.217-.542 1.743a12.758 12.758 0 0 1-.687 1.496h4.918v-8.14zm-4.165-.658c.018-.23.08-.411.185-.543.106-.142.26-.213.463-.213h4.746v9.553h.74v3.947h-1.15v-2.533h-6.676v2.533h-1.15v-3.947h.687c.335-.537.622-1.101.86-1.694.238-.591.44-1.238.608-1.94.176-.701.317-1.474.423-2.318.106-.844.194-1.793.264-2.845zM51.466 15.72v10.967h-1.269v-9.553h-4.786v9.553h-1.269V15.72h7.324zM53.49 15.72h2.79c.599 0 1.092.104 1.48.312.397.208.71.471.939.79.238.317.4.674.489 1.068.097.395.145.779.145 1.151 0 .548-.075 1.03-.225 1.447-.15.417-.356.768-.621 1.053a2.604 2.604 0 0 1-.952.624 3.216 3.216 0 0 1-1.19.214h-1.6v4.308H53.49V15.72zm2.842 5.31c.547 0 .965-.17 1.256-.509.3-.35.45-.833.45-1.447 0-.625-.155-1.113-.463-1.463-.3-.362-.714-.543-1.243-.543h-1.586v3.963h1.586zM62.22 24.517l4.377-8.107c.282-.515.599-.773.952-.773.229 0 .414.094.555.28.14.175.211.417.211.723v10.047h-1.242v-8.83l-4.469 8.304a1.388 1.388 0 0 1-.383.444.72.72 0 0 1-.45.165.69.69 0 0 1-.582-.28c-.14-.197-.211-.455-.211-.773V15.72h1.243v8.797zM71.066 15.637c.3 0 .56.23.78.691l2.776 5.722 2.724-5.623c.14-.285.277-.488.41-.609.132-.12.29-.18.475-.18.203 0 .366.093.49.279.132.175.198.411.198.707v10.063h-1.19v-8.632l-2.446 5.064c-.159.329-.383.493-.674.493a.677.677 0 0 1-.41-.148 1.027 1.027 0 0 1-.317-.41l-2.367-4.934v8.567h-1.19V16.64c0-.317.066-.564.199-.74a.642.642 0 0 1 .542-.263zM81.6 26.687a.615.615 0 0 1-.49-.213c-.123-.143-.185-.357-.185-.642V15.72h5.553v1.397h-4.284v3.19h3.226v1.415h-3.226v3.551h4.601v1.414H81.6zM88.388 15.72h1.269v4.587h4.825V15.72h1.27v10.967h-1.27v-4.966h-4.825v4.966h-1.27V15.72zM98.435 26.687a.615.615 0 0 1-.489-.213c-.123-.143-.185-.357-.185-.642V15.72h5.553v1.397H99.03v3.19h3.226v1.415H99.03v3.551h4.601v1.414h-5.196zM105.223 15.72h1.27v4.587h4.825V15.72h1.269v10.967h-1.269v-4.966h-4.825v4.966h-1.27V15.72zM115.839 24.517l4.376-8.107c.282-.515.6-.773.952-.773.229 0 .415.094.556.28.141.175.211.417.211.723v10.047h-1.243v-8.83l-4.468 8.304a1.39 1.39 0 0 1-.384.444.718.718 0 0 1-.449.165.69.69 0 0 1-.582-.28c-.141-.197-.211-.455-.211-.773V15.72h1.242v8.797zM124.618 26.687a.617.617 0 0 1-.489-.213c-.123-.143-.185-.357-.185-.642V15.72h5.553v1.397h-4.284v3.19h3.226v1.415h-3.226v3.551h4.601v1.414h-5.196zM132.147 15.637c.3 0 .56.23.78.691l2.776 5.722 2.724-5.623c.141-.285.277-.488.41-.609a.68.68 0 0 1 .476-.18c.202 0 .365.093.489.279.132.175.198.411.198.707v10.063h-1.19v-8.632l-2.446 5.064c-.158.329-.383.493-.674.493a.677.677 0 0 1-.41-.148 1.025 1.025 0 0 1-.317-.41l-2.367-4.934v8.567h-1.189V16.64c0-.317.066-.564.198-.74a.642.642 0 0 1 .542-.263zM.832 9.077 3.76.97c.188-.515.4-.773.637-.773.153 0 .277.093.371.28.095.175.142.416.142.723v10.047h-.832v-8.83l-2.99 8.304c-.071.186-.157.334-.257.444-.095.11-.195.164-.301.164-.165 0-.295-.093-.39-.28-.094-.197-.141-.454-.141-.772V.28h.832v8.797zM6.752.197c.2 0 .374.23.522.69L9.132 6.61 10.955.987c.094-.285.185-.488.274-.609.089-.12.195-.18.319-.18.135 0 .244.092.327.279.088.175.133.41.133.707v10.063h-.797V2.614L9.574 7.68c-.106.329-.256.493-.451.493-.094 0-.186-.049-.274-.148a1.075 1.075 0 0 1-.213-.41L7.053 2.68v8.567h-.797V1.2c0-.318.044-.564.133-.74.088-.175.21-.263.363-.263zM13.802 11.247c-.136 0-.245-.071-.328-.214-.082-.142-.123-.356-.123-.64V.28h3.716v1.397H14.2v3.19h2.159v1.414h-2.16v3.552h3.08v1.414h-3.477zM23.512 11.527c-.4 0-.778-.132-1.132-.395-.348-.263-.655-.625-.92-1.085a6.926 6.926 0 0 1-.646-1.66 10.487 10.487 0 0 1-.301-2.106h-1.319v4.966h-.849V.28h.85v4.587h1.344a9.59 9.59 0 0 1 .337-1.94 6.271 6.271 0 0 1 .663-1.546c.266-.438.567-.778.903-1.02A1.806 1.806 0 0 1 23.512 0c.42 0 .812.148 1.177.444.366.285.685.685.956 1.2.271.516.484 1.124.637 1.826.16.701.239 1.463.239 2.285 0 .822-.08 1.59-.239 2.302-.153.702-.366 1.31-.637 1.825-.265.516-.581.921-.947 1.217-.366.285-.76.428-1.186.428zm0-1.48c.301 0 .582-.104.841-.313.26-.219.484-.515.673-.888.188-.383.336-.838.442-1.364a8.53 8.53 0 0 0 .168-1.743 8.93 8.93 0 0 0-.16-1.76 5.316 5.316 0 0 0-.442-1.348c-.188-.384-.412-.68-.672-.888a1.329 1.329 0 0 0-.85-.312c-.306 0-.59.104-.849.312-.26.208-.484.504-.672.888a5.316 5.316 0 0 0-.443 1.348 8.93 8.93 0 0 0-.16 1.76c0 .625.054 1.206.16 1.743.112.526.263.98.451 1.364.19.373.413.67.673.888.26.209.54.313.84.313zM28.658 1.66h-2.115V.28h5.07v1.38h-2.105v9.587h-.85V1.661zM36.505 3.14c-.2-.536-.458-.953-.77-1.249-.313-.307-.646-.46-1-.46-.33 0-.631.104-.903.312-.27.208-.504.504-.699.888-.188.373-.336.828-.442 1.365a9.015 9.015 0 0 0-.16 1.776c0 .646.05 1.233.151 1.759.106.515.254.96.443 1.332.194.373.424.663.69.871.265.198.563.296.893.296.343 0 .655-.126.938-.378.283-.252.573-.669.867-1.25l.593.921a3.73 3.73 0 0 1-1.018 1.546 2.68 2.68 0 0 1-.69.46c-.235.121-.465.181-.69.181-.454 0-.87-.137-1.247-.41-.378-.275-.702-.664-.974-1.168-.27-.505-.48-1.107-.628-1.809a11.293 11.293 0 0 1-.221-2.319c0-.833.077-1.605.23-2.318.153-.713.366-1.321.637-1.825.277-.515.605-.916.982-1.2.378-.297.79-.445 1.24-.445.241 0 .477.055.707.165.236.099.457.241.664.427.206.187.395.417.566.691.177.263.324.56.442.888l-.601.954zM37.423 11.247c.106-.504.22-1.003.345-1.496.123-.493.247-.948.371-1.365.124-.417.245-.79.363-1.118.124-.329.236-.592.336-.79-.365-.251-.646-.63-.84-1.134-.19-.504-.283-1.118-.283-1.842 0-.986.176-1.77.53-2.351.36-.581.868-.871 1.522-.871h1.885v10.967h-.823V6.758h-.823c-.242 0-.454.247-.637.74a23.457 23.457 0 0 0-.53 1.71 44.827 44.827 0 0 0-.514 2.04h-.902zm3.406-5.82V1.643h-1.115c-.354 0-.63.17-.831.51-.201.329-.301.795-.301 1.398 0 .592.103 1.052.31 1.381.206.329.486.493.84.493h1.097zM49.499.28v10.967h-.85V1.694h-3.203v9.553h-.85V.28H49.5zM50.853.28h1.867c.4 0 .731.104.99.312.266.208.476.471.629.79.16.317.268.673.327 1.068.065.395.098.778.098 1.151 0 .548-.05 1.03-.15 1.447-.101.417-.24.767-.417 1.052-.177.275-.389.483-.637.625a1.54 1.54 0 0 1-.796.214h-1.07v4.308h-.841V.28zm1.902 5.31c.366 0 .646-.17.84-.509.201-.35.302-.833.302-1.447 0-.625-.104-1.113-.31-1.463-.2-.362-.478-.543-.832-.543h-1.062V5.59h1.062zM58.636 10.047c.325 0 .622-.104.894-.313.271-.219.504-.515.699-.888.195-.383.345-.838.451-1.364a8.53 8.53 0 0 0 .168-1.743c0-.647-.053-1.234-.159-1.76a5.09 5.09 0 0 0-.451-1.348c-.195-.384-.428-.68-.7-.888a1.447 1.447 0 0 0-.902-.312c-.33 0-.631.104-.902.312-.272.208-.505.504-.7.888a5.09 5.09 0 0 0-.45 1.348 8.93 8.93 0 0 0-.16 1.76c0 .625.053 1.206.16 1.743.111.526.265.98.46 1.364.194.373.427.67.699.888.27.209.569.313.893.313zm0 1.48c-.442 0-.855-.143-1.239-.428-.377-.296-.704-.701-.982-1.217-.271-.515-.486-1.123-.646-1.825a10.93 10.93 0 0 1-.23-2.302c0-.822.08-1.584.24-2.285.158-.702.377-1.31.654-1.826.277-.515.605-.915.982-1.2C57.793.148 58.2 0 58.636 0c.443 0 .853.148 1.23.444.378.285.705.685.982 1.2.278.516.493 1.124.646 1.826.16.701.24 1.463.24 2.285 0 .822-.08 1.59-.24 2.302-.153.702-.368 1.31-.646 1.825-.271.516-.598.921-.982 1.217a2 2 0 0 1-1.23.428zM63.87 1.66h-2.114V.28h5.07v1.38H64.72v9.587h-.85V1.661zM68.543 9.077 71.473.97c.188-.515.4-.773.636-.773.154 0 .277.093.372.28.094.175.141.416.141.723v10.047h-.831v-8.83L68.8 10.721c-.071.186-.156.334-.257.444-.094.11-.195.164-.3.164-.166 0-.296-.093-.39-.28-.094-.197-.141-.454-.141-.772V.28h.831v8.797zM73.968.28h2c.306 0 .572.076.796.23.224.142.41.34.557.592.148.252.257.548.328.888.076.34.115.701.115 1.085a3.977 3.977 0 0 1-.336 1.66c-.095.198-.201.357-.32.478a.827.827 0 0 1-.309.23c.118.033.25.104.398.213.148.1.286.253.416.46.13.21.24.483.328.823.088.329.132.74.132 1.233 0 .592-.059 1.086-.177 1.48-.112.384-.268.696-.469.938a1.586 1.586 0 0 1-.699.51c-.271.098-.56.147-.867.147h-1.893V.28zm1.849 9.602c.153 0 .313-.016.478-.049a.952.952 0 0 0 .451-.23c.142-.12.257-.296.345-.526.089-.241.133-.57.133-.987 0-.395-.044-.712-.133-.954a1.55 1.55 0 0 0-.327-.575.914.914 0 0 0-.434-.28 1.411 1.411 0 0 0-.46-.082h-1.08v3.683h1.027zm.027-5.031c.13 0 .259-.028.389-.082.13-.066.248-.165.354-.296.106-.132.191-.302.256-.51.065-.208.098-.46.098-.757 0-.328-.033-.592-.098-.789a1.18 1.18 0 0 0-.256-.477.702.702 0 0 0-.354-.23 1.21 1.21 0 0 0-.39-.066H74.79v3.207h1.053zM82.045 10.047c.324 0 .622-.104.894-.313.27-.219.504-.515.699-.888a5.36 5.36 0 0 0 .45-1.364 8.538 8.538 0 0 0 .169-1.743c0-.647-.053-1.234-.16-1.76a5.086 5.086 0 0 0-.45-1.348c-.195-.384-.428-.68-.7-.888a1.447 1.447 0 0 0-.902-.312c-.33 0-.631.104-.903.312-.271.208-.504.504-.699.888a5.086 5.086 0 0 0-.451 1.348 8.921 8.921 0 0 0-.16 1.76c0 .625.054 1.206.16 1.743.112.526.265.98.46 1.364.195.373.428.67.7.888.27.209.568.313.893.313zm0 1.48c-.443 0-.856-.143-1.239-.428-.377-.296-.705-.701-.982-1.217-.272-.515-.487-1.123-.646-1.825a10.93 10.93 0 0 1-.23-2.302c0-.822.08-1.584.239-2.285.16-.702.377-1.31.655-1.826.277-.515.604-.915.982-1.2C81.2.148 81.608 0 82.044 0c.443 0 .853.148 1.23.444.378.285.706.685.983 1.2.277.516.492 1.124.646 1.826.16.701.239 1.463.239 2.285 0 .822-.08 1.59-.24 2.302-.153.702-.368 1.31-.645 1.825-.271.516-.599.921-.982 1.217a2 2 0 0 1-1.23.428zM91.149.28v10.967h-.85V1.694h-3.203v9.553h-.85V.28h4.903zM95.36 10.047c.325 0 .623-.104.894-.313.272-.219.505-.515.7-.888.194-.383.345-.838.45-1.364a8.53 8.53 0 0 0 .169-1.743c0-.647-.053-1.234-.16-1.76a5.086 5.086 0 0 0-.45-1.348c-.195-.384-.428-.68-.7-.888a1.447 1.447 0 0 0-.902-.312c-.33 0-.631.104-.903.312-.271.208-.504.504-.699.888a5.086 5.086 0 0 0-.451 1.348 8.921 8.921 0 0 0-.16 1.76c0 .625.054 1.206.16 1.743.112.526.265.98.46 1.364.195.373.428.67.7.888.27.209.568.313.893.313zm0 1.48c-.442 0-.855-.143-1.238-.428-.378-.296-.705-.701-.982-1.217-.272-.515-.487-1.123-.646-1.825-.153-.712-.23-1.48-.23-2.302 0-.822.08-1.584.239-2.285.159-.702.377-1.31.654-1.826.278-.515.605-.915.983-1.2.377-.296.784-.444 1.22-.444.443 0 .853.148 1.23.444.378.285.706.685.983 1.2.277.516.492 1.124.646 1.826.16.701.239 1.463.239 2.285 0 .822-.08 1.59-.24 2.302-.153.702-.368 1.31-.645 1.825-.271.516-.599.921-.982 1.217a2 2 0 0 1-1.23.428zM102.907 3.848a8.116 8.116 0 0 1-.425 1.134c-.123.252-.271.439-.442.56.319.394.649 1.057.991 1.989.342.932.711 2.17 1.106 3.716h-.92a67.659 67.659 0 0 0-.575-2.022 24.79 24.79 0 0 0-.549-1.595c-.189-.505-.366-.855-.531-1.053-.159-.197-.345-.296-.557-.296h-.593v4.966h-.85V.28h.85v4.587h.699a.683.683 0 0 0 .54-.246c.141-.165.271-.439.389-.823L103.093.28h.929l-1.115 3.568zM108.567 8.189h-2.424l-.602 3.058h-.894l2.151-10.211c.118-.56.321-.839.61-.839.266 0 .46.29.584.872l2.141 10.178h-.946l-.62-3.058zm-1.203-6.265-.965 4.933h1.912l-.947-4.933zM111.811 4.884h.849a.907.907 0 0 0 .416-.099.95.95 0 0 0 .345-.312c.1-.143.18-.324.239-.543.059-.22.089-.482.089-.79 0-.317-.033-.586-.098-.805a1.403 1.403 0 0 0-.248-.526.814.814 0 0 0-.345-.296.867.867 0 0 0-.398-.099.883.883 0 0 0-.504.148 1.555 1.555 0 0 0-.39.378 3.5 3.5 0 0 0-.283.494c-.082.175-.153.334-.212.476l-.593-.822c.077-.219.171-.45.283-.69.118-.241.26-.466.425-.674.171-.209.366-.379.584-.51.224-.132.478-.198.761-.198.301 0 .566.083.796.247.236.154.431.362.584.625.16.263.278.575.354.937.083.351.124.724.124 1.118 0 .614-.091 1.162-.274 1.645-.177.471-.425.778-.743.92.159.066.309.176.451.33.147.142.274.328.38.558.112.23.201.505.266.823.065.317.097.685.097 1.101 0 .548-.056 1.025-.168 1.43a3.042 3.042 0 0 1-.442.987 1.76 1.76 0 0 1-.655.576 1.674 1.674 0 0 1-.797.197c-.312 0-.589-.071-.831-.213a2.575 2.575 0 0 1-.637-.527 3.537 3.537 0 0 1-.452-.674 6.597 6.597 0 0 1-.283-.658l.611-.838c.053.131.121.285.203.46.083.176.186.34.31.494.124.153.271.285.442.394.171.11.369.165.593.165.165 0 .322-.033.469-.1.154-.076.286-.19.398-.344.118-.154.21-.357.275-.609.07-.263.106-.575.106-.937 0-.362-.036-.663-.106-.904a1.6 1.6 0 0 0-.266-.576.846.846 0 0 0-.371-.296 1.024 1.024 0 0 0-.434-.099h-.92V4.884zM119.014 8.189h-2.424l-.602 3.058h-.894l2.151-10.211c.118-.56.321-.839.61-.839.266 0 .46.29.584.872l2.142 10.178h-.947l-.62-3.058zm-1.203-6.265-.965 4.933h1.912l-.947-4.933zM121.355.28h.85v4.587h3.229V.28h.85v10.967h-.85V6.281h-3.229v4.966h-.85V.28zM128.46 9.077 131.389.97c.189-.515.401-.773.637-.773.154 0 .278.093.372.28.094.175.142.416.142.723v10.047h-.832v-8.83l-2.991 8.304a1.367 1.367 0 0 1-.257.444c-.094.11-.194.164-.3.164-.166 0-.295-.093-.39-.28-.094-.197-.141-.454-.141-.772V.28h.831v8.797zM133.434 11.247a39.26 39.26 0 0 1 .716-2.86c.124-.418.245-.79.363-1.12.124-.328.236-.591.336-.788-.365-.252-.646-.63-.84-1.135-.189-.504-.283-1.118-.283-1.842 0-.986.177-1.77.53-2.351.36-.581.868-.871 1.522-.871h1.885v10.967h-.823V6.758h-.823c-.242 0-.454.247-.637.74a23.405 23.405 0 0 0-.531 1.71 44.573 44.573 0 0 0-.513 2.04h-.902zm3.406-5.82V1.643h-1.115c-.354 0-.631.17-.831.51-.201.329-.301.795-.301 1.398 0 .592.103 1.052.309 1.381.207.329.487.493.841.493h1.097zM139.46 11.313c-.153 0-.283-.093-.389-.28a1.587 1.587 0 0 1-.151-.723c0-.285.051-.52.151-.707.106-.197.236-.296.389-.296.154 0 .28.099.381.296.106.186.159.422.159.707s-.053.526-.159.723c-.101.187-.227.28-.381.28zM7.864 54.361a3.526 3.526 0 0 0-1.244-1.25 3.06 3.06 0 0 0-1.616-.46c-.533 0-1.02.104-1.458.313a3.247 3.247 0 0 0-1.13.888 4.097 4.097 0 0 0-.714 1.364 5.713 5.713 0 0 0-.258 1.776c0 .647.081 1.233.243 1.76.172.515.41.959.715 1.331.315.373.686.664 1.115.872.43.197.91.296 1.445.296.552 0 1.058-.126 1.515-.378.458-.252.925-.669 1.401-1.25l.958.92c-.171.297-.4.582-.686.856a5.093 5.093 0 0 1-2.073 1.151c-.381.12-.753.18-1.115.18a4.865 4.865 0 0 1-2.017-.41 4.508 4.508 0 0 1-1.572-1.168 5.337 5.337 0 0 1-1.016-1.809C.12 58.642 0 57.87 0 57.026c0-.833.124-1.606.372-2.319.248-.712.59-1.32 1.03-1.825a4.744 4.744 0 0 1 1.586-1.2 4.524 4.524 0 0 1 2.002-.444c.391 0 .772.055 1.144.164.381.1.739.242 1.072.428.334.186.64.416.916.69.286.264.524.56.714.889l-.972.953zM14.444 61.267c.524 0 1.005-.104 1.444-.312.438-.22.815-.515 1.13-.888a4.16 4.16 0 0 0 .729-1.365 5.42 5.42 0 0 0 .271-1.743c0-.647-.085-1.233-.257-1.76a3.972 3.972 0 0 0-.73-1.347 3.247 3.247 0 0 0-1.129-.888 3.356 3.356 0 0 0-1.458-.313c-.534 0-1.02.104-1.459.313a3.247 3.247 0 0 0-1.13.888 3.974 3.974 0 0 0-.729 1.348 5.658 5.658 0 0 0-.257 1.76c0 .624.086 1.205.257 1.742.182.526.43.981.744 1.365.315.373.691.669 1.13.888.438.208.92.312 1.444.312zm0 1.48a4.732 4.732 0 0 1-2.002-.427 4.942 4.942 0 0 1-1.587-1.217 5.944 5.944 0 0 1-1.044-1.825 6.96 6.96 0 0 1-.372-2.302c0-.822.129-1.584.386-2.286.258-.701.61-1.31 1.058-1.825a4.745 4.745 0 0 1 1.588-1.2 4.462 4.462 0 0 1 1.973-.444c.715 0 1.377.148 1.987.444.61.285 1.14.685 1.587 1.2a5.58 5.58 0 0 1 1.044 1.825c.258.702.386 1.464.386 2.286 0 .822-.128 1.59-.386 2.302a5.58 5.58 0 0 1-1.044 1.825c-.438.515-.967.92-1.587 1.217a4.637 4.637 0 0 1-1.987.427zM31.295 54.361a3.527 3.527 0 0 0-1.244-1.25 3.06 3.06 0 0 0-1.616-.46c-.534 0-1.02.104-1.458.313a3.247 3.247 0 0 0-1.13.888 4.098 4.098 0 0 0-.715 1.364 5.713 5.713 0 0 0-.257 1.776c0 .647.08 1.233.243 1.76.171.515.41.959.715 1.331.314.373.686.664 1.115.872.429.197.91.296 1.444.296.553 0 1.058-.126 1.516-.378.457-.252.924-.669 1.401-1.25l.958.92c-.172.297-.4.582-.686.856a5.092 5.092 0 0 1-2.073 1.151c-.382.12-.754.18-1.116.18a4.865 4.865 0 0 1-2.016-.41 4.507 4.507 0 0 1-1.573-1.168 5.336 5.336 0 0 1-1.015-1.809c-.238-.701-.358-1.474-.358-2.318 0-.833.124-1.606.372-2.319.248-.712.591-1.32 1.03-1.825a4.743 4.743 0 0 1 1.587-1.2 4.524 4.524 0 0 1 2.002-.444c.39 0 .772.055 1.143.164.382.1.74.242 1.073.428.334.186.639.416.915.69.286.264.524.56.715.889l-.972.953zM41.428 51.5v10.968h-1.372v-9.554H34.88v9.554h-1.373V51.5h7.922zM44.346 62.468a.69.69 0 0 1-.53-.214c-.133-.142-.2-.356-.2-.641V51.5h6.006v1.398h-4.633v3.19h3.49v1.414h-3.49v3.552h4.976v1.414h-5.62zM59.094 62.468h-7.407V51.5h1.373v9.554h5.105V51.5h1.372v9.554h.801V65h-1.244v-2.532zM63.28 60.297l4.733-8.106c.305-.516.649-.773 1.03-.773.248 0 .448.093.6.28.153.175.23.416.23.723v10.047h-1.345v-8.83l-4.833 8.304a1.426 1.426 0 0 1-.414.444.818.818 0 0 1-.487.164c-.266 0-.476-.093-.629-.28-.152-.197-.228-.455-.228-.772V51.5h1.344v8.797zM77.465 59.41h-3.918l-.972 3.058h-1.444l3.474-10.212c.191-.559.52-.838.987-.838.429 0 .743.29.944.871l3.46 10.179h-1.53l-1-3.059zm-1.945-6.266-1.558 4.933h3.088l-1.53-4.933zM83.74 52.437c.01-.285.076-.51.2-.674a.661.661 0 0 1 .558-.263h5.233v10.968h-1.373v-9.554h-3.303c-.057 1.721-.176 3.19-.357 4.407-.181 1.206-.43 2.198-.744 2.976-.314.768-.705 1.332-1.172 1.694-.458.35-1.001.526-1.63.526h-.2v-1.43c.457 0 .848-.154 1.172-.46.334-.319.61-.823.83-1.514.219-.69.39-1.584.514-2.68.133-1.096.224-2.428.272-3.996zM93.246 60.297l4.733-8.106c.305-.516.648-.773 1.03-.773.247 0 .447.093.6.28.152.175.229.416.229.723v10.047h-1.345v-8.83l-4.832 8.304a1.426 1.426 0 0 1-.415.444.818.818 0 0 1-.486.164c-.267 0-.477-.093-.63-.28-.152-.197-.228-.455-.228-.772V51.5h1.344v8.797zM109.489 54.361a3.52 3.52 0 0 0-1.244-1.25 3.056 3.056 0 0 0-1.615-.46 3.36 3.36 0 0 0-1.459.313 3.245 3.245 0 0 0-1.129.888 4.087 4.087 0 0 0-.715 1.364 5.7 5.7 0 0 0-.258 1.776c0 .647.081 1.233.243 1.76.172.515.41.959.715 1.331.315.373.687.664 1.116.872.429.197.91.296 1.444.296.553 0 1.058-.126 1.515-.378.458-.252.925-.669 1.402-1.25l.958.92a3.923 3.923 0 0 1-.687.856 5.048 5.048 0 0 1-.958.69c-.352.198-.724.351-1.115.461-.381.12-.753.18-1.115.18a4.864 4.864 0 0 1-2.016-.41 4.505 4.505 0 0 1-1.573-1.168 5.322 5.322 0 0 1-1.015-1.809c-.239-.701-.358-1.474-.358-2.318 0-.833.124-1.606.372-2.319.248-.712.591-1.32 1.03-1.825a4.744 4.744 0 0 1 1.587-1.2 4.522 4.522 0 0 1 2.001-.444c.391 0 .773.055 1.144.164.382.1.739.242 1.073.428.333.186.638.416.915.69.286.264.524.56.715.889l-.973.953zM114.096 52.881h-3.417v-1.38h8.193v1.38h-3.403v9.587h-1.373V52.88zM123.916 61.267c.525 0 1.006-.104 1.444-.312.439-.22.815-.515 1.13-.888.315-.384.558-.839.729-1.365a5.426 5.426 0 0 0 .272-1.743c0-.647-.086-1.233-.257-1.76a3.975 3.975 0 0 0-.73-1.347 3.245 3.245 0 0 0-1.129-.888 3.36 3.36 0 0 0-1.459-.313c-.533 0-1.02.104-1.458.313a3.248 3.248 0 0 0-1.13.888 3.99 3.99 0 0 0-.729 1.348 5.673 5.673 0 0 0-.257 1.76c0 .624.086 1.205.257 1.742.181.526.429.981.744 1.365.314.373.691.669 1.129.888.439.208.92.312 1.444.312zm0 1.48a4.726 4.726 0 0 1-2.001-.427 4.936 4.936 0 0 1-1.588-1.217 5.944 5.944 0 0 1-1.043-1.825 6.956 6.956 0 0 1-.372-2.302c0-.822.129-1.584.386-2.286a5.78 5.78 0 0 1 1.058-1.825 4.746 4.746 0 0 1 1.587-1.2 4.462 4.462 0 0 1 1.973-.444c.715 0 1.378.148 1.988.444.61.285 1.139.685 1.587 1.2a5.584 5.584 0 0 1 1.044 1.825c.257.702.386 1.464.386 2.286 0 .822-.129 1.59-.386 2.302a5.584 5.584 0 0 1-1.044 1.825c-.439.515-.968.92-1.587 1.217a4.639 4.639 0 0 1-1.988.427zM131.507 51.418c.324 0 .605.23.843.69l3.003 5.723 2.945-5.624c.153-.285.301-.488.444-.608a.77.77 0 0 1 .514-.181c.22 0 .396.093.53.28.143.175.214.41.214.706v10.064h-1.287v-8.633l-2.645 5.065c-.172.328-.415.493-.729.493a.772.772 0 0 1-.444-.148 1.045 1.045 0 0 1-.343-.411l-2.559-4.933v8.567h-1.287V52.42c0-.318.071-.565.214-.74a.717.717 0 0 1 .587-.263zM0 33.61h.683v4.587h2.599V33.61h.683v10.968h-.683v-4.966H.683v4.965H0V33.61zM5.41 44.578c-.11 0-.197-.072-.263-.214-.067-.143-.1-.356-.1-.642V33.61h2.99v1.398H5.73v3.19h1.737v1.414H5.73v3.551h2.477v1.415H5.41zM11.08 43.377c.26 0 .5-.104.718-.312.218-.22.406-.515.562-.888.157-.384.278-.839.364-1.365.09-.537.135-1.118.135-1.743 0-.647-.043-1.233-.128-1.76a5.975 5.975 0 0 0-.363-1.348c-.157-.383-.345-.68-.563-.888-.218-.208-.46-.312-.726-.312-.266 0-.508.104-.726.312-.218.209-.406.505-.562.888a5.976 5.976 0 0 0-.363 1.349 11.032 11.032 0 0 0-.128 1.759c0 .625.042 1.206.128 1.743.09.526.213.981.37 1.365.156.373.344.669.562.888.219.208.458.312.72.312zm0 1.48c-.357 0-.689-.142-.998-.428-.303-.296-.567-.701-.79-1.216a8.707 8.707 0 0 1-.52-1.825 13.503 13.503 0 0 1-.184-2.302c0-.823.064-1.585.192-2.286.128-.702.304-1.31.527-1.825.223-.516.486-.916.79-1.2.303-.297.631-.445.982-.445.356 0 .686.148.99.444.303.285.567.685.79 1.2.223.516.396 1.124.52 1.826.128.701.192 1.463.192 2.286 0 .822-.064 1.589-.193 2.302-.123.701-.296 1.31-.52 1.825-.218.515-.48.92-.79 1.216-.303.285-.633.428-.989.428zM17.335 33.61v1.365h-2.192v2.91h.925c.541 0 .959.296 1.253.888.294.581.441 1.387.441 2.417 0 .428-.03.85-.092 1.266a4.385 4.385 0 0 1-.3 1.086c-.132.306-.31.559-.533.756-.218.186-.486.28-.805.28H14.46V33.61h2.876zm-2.192 9.62h.91c.314 0 .558-.165.734-.494.18-.329.27-.828.27-1.496 0-.658-.09-1.157-.27-1.497-.175-.34-.42-.51-.733-.51h-.911v3.996zM19.827 38.905 18.26 33.61h.825l1.154 3.996 1.139-3.996h.747l-1.523 5.245 1.687 5.723h-.819l-1.274-4.424-1.274 4.423h-.755l1.659-5.672zM24.913 43.377c.26 0 .5-.104.719-.312.218-.22.405-.515.562-.888a6.3 6.3 0 0 0 .363-1.365c.09-.537.135-1.118.135-1.743 0-.647-.042-1.233-.128-1.76a5.97 5.97 0 0 0-.363-1.348c-.156-.383-.344-.68-.562-.888-.218-.208-.46-.312-.726-.312-.266 0-.508.104-.726.312-.219.209-.406.505-.563.888a5.98 5.98 0 0 0-.363 1.349 11.035 11.035 0 0 0-.128 1.759c0 .625.043 1.206.128 1.743.09.526.214.981.37 1.365.157.373.345.669.563.888.218.208.458.312.719.312zm0 1.48c-.356 0-.688-.142-.997-.428-.303-.296-.567-.701-.79-1.216a8.711 8.711 0 0 1-.52-1.825 13.511 13.511 0 0 1-.185-2.302c0-.823.064-1.585.193-2.286a8.42 8.42 0 0 1 .526-1.825c.223-.516.487-.916.79-1.2.304-.297.632-.445.983-.445.356 0 .686.148.99.444.303.285.566.685.79 1.2.223.516.396 1.124.52 1.826.127.701.191 1.463.191 2.286 0 .822-.064 1.589-.192 2.302-.123.701-.296 1.31-.52 1.825-.218.515-.481.92-.79 1.216-.303.285-.633.428-.99.428zM31.209 35.024h-1.63a81.648 81.648 0 0 1-.143 2.73c-.057.8-.128 1.523-.213 2.17-.081.636-.178 1.217-.292 1.743a19.4 19.4 0 0 1-.37 1.496h2.648v-8.139zm-2.243-.658c.01-.23.043-.41.1-.542.057-.143.14-.214.249-.214h2.555v9.553h.4v3.947h-.62v-2.532h-3.595v2.532h-.62v-3.947h.37c.181-.537.335-1.101.464-1.693.128-.592.237-1.239.327-1.94.095-.702.17-1.475.228-2.32.057-.843.104-1.791.142-2.844zM33.738 42.407l2.356-8.106c.152-.516.323-.773.513-.773.123 0 .223.093.299.28.075.175.114.416.114.723v10.047h-.67v-8.83l-2.406 8.303a1.479 1.479 0 0 1-.206.444c-.076.11-.157.165-.242.165-.133 0-.237-.093-.313-.28-.076-.197-.114-.455-.114-.773V33.61h.669v8.797zM38.5 33.528c.162 0 .302.23.42.69l1.495 5.722 1.467-5.623c.076-.285.15-.488.22-.608.072-.121.157-.181.257-.181.109 0 .197.093.263.28.071.175.107.41.107.706v10.063h-.641v-8.632l-1.317 5.064c-.085.33-.206.494-.363.494-.076 0-.15-.05-.22-.148a1.183 1.183 0 0 1-.171-.411l-1.275-4.933v8.566h-.64V34.532c0-.318.035-.565.107-.74.07-.176.168-.263.291-.263zM46.108 43.377c.261 0 .5-.104.72-.312.217-.22.405-.515.562-.888a6.3 6.3 0 0 0 .363-1.365c.09-.537.135-1.118.135-1.743 0-.647-.043-1.233-.128-1.76a5.975 5.975 0 0 0-.363-1.348c-.157-.383-.344-.68-.563-.888-.218-.208-.46-.312-.726-.312-.265 0-.508.104-.726.312-.218.209-.406.505-.562.888a5.975 5.975 0 0 0-.363 1.349 11.022 11.022 0 0 0-.128 1.759c0 .625.042 1.206.128 1.743.09.526.213.981.37 1.365.157.373.344.669.562.888.219.208.458.312.72.312zm0 1.48c-.356 0-.688-.142-.996-.428-.304-.296-.567-.701-.79-1.216a8.706 8.706 0 0 1-.52-1.825 13.5 13.5 0 0 1-.185-2.302c0-.823.064-1.585.192-2.286a8.42 8.42 0 0 1 .527-1.825c.223-.516.486-.916.79-1.2.304-.297.631-.445.982-.445.356 0 .686.148.99.444.303.285.567.685.79 1.2.223.516.396 1.124.52 1.826.128.701.192 1.463.192 2.286 0 .822-.064 1.589-.193 2.302-.123.701-.296 1.31-.52 1.825-.217.515-.48.92-.79 1.216-.303.285-.633.428-.989.428zM54.718 33.61v10.968h-.683v-9.554h-2.577v9.553h-.683V33.61h3.943zM55.807 33.61h1.502c.323 0 .589.104.798.312.213.209.382.472.505.79.128.317.216.674.264 1.068.052.395.078.779.078 1.151 0 .549-.04 1.03-.121 1.447-.08.417-.192.768-.335 1.053a1.725 1.725 0 0 1-.512.625 1.06 1.06 0 0 1-.641.213h-.861v4.309h-.677V33.61zm1.53 5.311c.295 0 .52-.17.677-.51.161-.35.242-.833.242-1.447 0-.625-.083-1.112-.249-1.463-.161-.362-.384-.543-.67-.543h-.853v3.963h.854zM62.07 43.377c.26 0 .5-.104.718-.312.218-.22.406-.515.562-.888a6.3 6.3 0 0 0 .364-1.365c.09-.537.135-1.118.135-1.743 0-.647-.043-1.233-.128-1.76a5.975 5.975 0 0 0-.363-1.348c-.157-.383-.344-.68-.563-.888-.218-.208-.46-.312-.726-.312-.266 0-.508.104-.726.312-.218.209-.406.505-.562.888a5.98 5.98 0 0 0-.363 1.349 11.035 11.035 0 0 0-.129 1.759c0 .625.043 1.206.129 1.743.09.526.213.981.37 1.365.156.373.344.669.562.888.218.208.458.312.72.312zm0 1.48c-.357 0-.689-.142-.998-.428-.303-.296-.567-.701-.79-1.216a8.711 8.711 0 0 1-.52-1.825 13.511 13.511 0 0 1-.184-2.302c0-.823.064-1.585.192-2.286a8.42 8.42 0 0 1 .527-1.825c.223-.516.486-.916.79-1.2.303-.297.63-.445.982-.445.356 0 .686.148.99.444.303.285.567.685.79 1.2.223.516.396 1.124.52 1.826.127.701.192 1.463.192 2.286 0 .822-.065 1.589-.193 2.302-.123.701-.296 1.31-.52 1.825-.218.515-.481.92-.79 1.216-.303.285-.633.428-.989.428zM68.14 37.178a9.523 9.523 0 0 1-.342 1.135c-.1.252-.218.438-.356.559.257.394.523 1.057.798 1.99.275.931.572 2.17.89 3.715h-.74a86.912 86.912 0 0 0-.463-2.022 26.38 26.38 0 0 0-.442-1.595c-.152-.504-.294-.855-.427-1.052-.128-.198-.278-.296-.448-.296h-.477v4.965h-.684V33.61h.684v4.587h.562c.176 0 .32-.082.434-.246.114-.165.219-.439.313-.822l.848-3.52h.747l-.897 3.569zM71.76 43.377c.26 0 .5-.104.719-.312.218-.22.405-.515.562-.888a6.3 6.3 0 0 0 .363-1.365c.09-.537.135-1.118.135-1.743 0-.647-.043-1.233-.128-1.76a5.975 5.975 0 0 0-.363-1.348c-.157-.383-.344-.68-.562-.888-.219-.208-.46-.312-.726-.312-.266 0-.508.104-.726.312-.219.209-.406.505-.563.888a5.975 5.975 0 0 0-.363 1.349 11.022 11.022 0 0 0-.128 1.759c0 .625.043 1.206.128 1.743.09.526.214.981.37 1.365.157.373.344.669.563.888.218.208.458.312.719.312zm0 1.48c-.356 0-.689-.142-.997-.428-.304-.296-.567-.701-.79-1.216a8.706 8.706 0 0 1-.52-1.825 13.5 13.5 0 0 1-.185-2.302c0-.823.064-1.585.192-2.286.129-.702.304-1.31.527-1.825.223-.516.487-.916.79-1.2.304-.297.632-.445.983-.445.356 0 .685.148.99.444.303.285.566.685.79 1.2.222.516.395 1.124.519 1.826.128.701.192 1.463.192 2.286 0 .822-.064 1.589-.192 2.302-.123.701-.297 1.31-.52 1.825-.218.515-.481.92-.79 1.216-.304.285-.633.428-.99.428zM75.14 33.61h.683v4.587h2.599V33.61h.683v10.968h-.684v-4.966h-2.598v4.965h-.683V33.61zM83.91 36.471c-.162-.537-.368-.954-.62-1.25-.251-.307-.52-.46-.804-.46-.266 0-.508.104-.726.312-.218.209-.406.505-.563.888-.151.373-.27.828-.355 1.365a11.153 11.153 0 0 0-.129 1.776c0 .647.04 1.233.122 1.76.085.515.204.959.355 1.331.157.373.342.663.556.872.213.197.453.296.719.296.275 0 .526-.126.754-.378.228-.253.46-.67.698-1.25l.477.92a4.64 4.64 0 0 1-.342.856 3.632 3.632 0 0 1-.477.69c-.175.198-.36.351-.555.46-.19.121-.375.182-.555.182-.366 0-.7-.137-1.004-.412-.304-.273-.565-.663-.783-1.167-.218-.504-.387-1.107-.505-1.809a13.942 13.942 0 0 1-.178-2.318c0-.833.061-1.606.185-2.319.123-.712.294-1.32.512-1.825.223-.515.487-.915.79-1.2.304-.296.636-.444.997-.444.194 0 .384.055.57.164.19.099.367.241.533.428.166.186.318.416.456.69.142.263.26.56.356.888l-.484.954zM88.748 33.61l-1.83 8.682c-.07.35-.149.68-.234.986a5.77 5.77 0 0 1-.278.823c-.1.23-.213.41-.341.542a.58.58 0 0 1-.442.214.703.703 0 0 1-.477-.197 2.06 2.06 0 0 1-.377-.477l.3-1.184c.075.12.156.23.241.329.09.087.192.131.306.131a.315.315 0 0 0 .228-.098.926.926 0 0 0 .185-.313c.062-.153.119-.34.17-.559.058-.23.12-.504.186-.822l-1.822-8.057h.747l1.417 6.446 1.317-6.446h.704zM89.519 34.547c.005-.285.038-.51.1-.674.066-.175.159-.263.277-.263h2.606v10.968h-.684v-9.554h-1.644a78.524 78.524 0 0 1-.178 4.407c-.09 1.206-.214 2.198-.37 2.976-.157.767-.352 1.332-.584 1.694-.228.35-.498.526-.811.526h-.1v-1.43c.228 0 .422-.154.584-.461.166-.318.303-.822.412-1.513.11-.69.195-1.584.257-2.68a90.2 90.2 0 0 0 .135-3.996zM94.266 43.23h.911c.313 0 .558-.176.733-.527.18-.35.27-.877.27-1.579 0-.69-.09-1.216-.27-1.578-.175-.373-.42-.56-.733-.56h-.911v4.243zm0-9.62v4.029h.925c.541 0 .959.306 1.253.92.294.603.441 1.436.441 2.5 0 .45-.03.888-.092 1.315-.062.417-.162.79-.3 1.118-.132.33-.31.592-.533.79a1.156 1.156 0 0 1-.804.296h-1.574V33.61h.684zM97.986 34.991h-1.701V33.61h4.079v1.381H98.67v9.587h-.684V34.99zM101.745 42.407l2.357-8.106c.151-.516.322-.773.512-.773.124 0 .223.093.299.28.076.175.114.416.114.723v10.047h-.669v-8.83l-2.406 8.303a1.474 1.474 0 0 1-.207.444c-.076.11-.156.165-.242.165-.132 0-.237-.093-.313-.28-.076-.197-.114-.455-.114-.773V33.61h.669v8.797zM106.109 33.61h1.502c.323 0 .589.104.797.312.214.209.383.472.506.79.128.317.216.674.263 1.068.052.395.079.779.079 1.151 0 .549-.041 1.03-.121 1.447a4.144 4.144 0 0 1-.335 1.053 1.716 1.716 0 0 1-.513.625 1.059 1.059 0 0 1-.64.213h-.862v4.309h-.676V33.61zm1.531 5.311c.294 0 .519-.17.676-.51.161-.35.242-.833.242-1.447 0-.625-.083-1.112-.249-1.463-.162-.362-.385-.543-.669-.543h-.855v3.963h.855zM112.371 43.377c.261 0 .501-.104.719-.312.218-.22.406-.515.562-.888.157-.384.278-.839.363-1.365.09-.537.136-1.118.136-1.743 0-.647-.043-1.233-.129-1.76a5.933 5.933 0 0 0-.363-1.348c-.156-.383-.344-.68-.562-.888-.218-.208-.46-.312-.726-.312-.266 0-.508.104-.726.312-.218.209-.406.505-.563.888a6.039 6.039 0 0 0-.363 1.349 11.082 11.082 0 0 0-.128 1.759c0 .625.043 1.206.128 1.743.091.526.214.981.371 1.365.156.373.344.669.562.888.218.208.458.312.719.312zm0 1.48c-.356 0-.688-.142-.997-.428-.303-.296-.567-.701-.79-1.216a8.72 8.72 0 0 1-.519-1.825 13.437 13.437 0 0 1-.186-2.302c0-.823.065-1.585.193-2.286.128-.702.303-1.31.526-1.825.223-.516.487-.916.791-1.2.303-.297.631-.445.982-.445.356 0 .686.148.989.444.304.285.567.685.791 1.2.223.516.396 1.124.519 1.826.128.701.192 1.463.192 2.286 0 .822-.064 1.589-.192 2.302-.123.701-.296 1.31-.519 1.825-.219.515-.482.92-.791 1.216-.303.285-.633.428-.989.428zM115.751 33.61h1.609c.247 0 .46.077.641.23.18.143.329.34.448.592.119.252.206.548.263.888.062.34.093.702.093 1.085a4.765 4.765 0 0 1-.271 1.66 1.84 1.84 0 0 1-.256.478c-.09.12-.173.197-.249.23a.964.964 0 0 1 .32.214c.119.099.23.252.335.46.104.209.192.482.263.822.071.33.107.74.107 1.234 0 .592-.047 1.085-.142 1.48-.09.383-.216.696-.378.937a1.328 1.328 0 0 1-.562.51 1.674 1.674 0 0 1-.698.148h-1.523V33.61zm1.488 9.603c.123 0 .251-.017.384-.05a.723.723 0 0 0 .363-.23c.114-.12.207-.296.278-.526.071-.241.107-.57.107-.987 0-.394-.036-.712-.107-.953a1.687 1.687 0 0 0-.263-.576.743.743 0 0 0-.349-.28.94.94 0 0 0-.37-.082h-.869v3.684h.826zm.021-5.032a.665.665 0 0 0 .313-.082.946.946 0 0 0 .285-.296c.086-.132.154-.302.207-.51.052-.208.078-.46.078-.756 0-.33-.026-.592-.078-.79a1.292 1.292 0 0 0-.207-.476.565.565 0 0 0-.285-.23.8.8 0 0 0-.313-.066h-.847v3.206h.847zM122.509 41.52h-1.951l-.484 3.057h-.719l1.73-10.21c.095-.56.259-.84.491-.84.214 0 .37.291.47.872l1.723 10.178h-.762l-.498-3.058zm-.968-6.266-.776 4.933h1.537l-.761-4.933zM124.903 34.991h-1.702V33.61h4.079v1.381h-1.694v9.587h-.683V34.99zM128.676 43.23h.911c.314 0 .558-.176.734-.527.18-.35.27-.877.27-1.579 0-.69-.09-1.216-.27-1.578-.176-.373-.42-.56-.734-.56h-.911v4.243zm0-9.62v4.029h.926c.541 0 .958.306 1.252.92.295.603.442 1.436.442 2.5 0 .45-.031.888-.093 1.315-.061.417-.161.79-.299 1.118a2.065 2.065 0 0 1-.534.79 1.154 1.154 0 0 1-.804.296h-1.573V33.61h.683zM135.859 36.471c-.161-.537-.368-.954-.619-1.25-.252-.307-.52-.46-.805-.46-.265 0-.508.104-.726.312-.218.209-.406.505-.562.888a6.223 6.223 0 0 0-.356 1.365 11.084 11.084 0 0 0-.128 1.776c0 .647.04 1.233.121 1.76.085.515.204.959.356 1.331.156.373.341.663.555.872.214.197.453.296.719.296.275 0 .527-.126.754-.378.228-.253.461-.67.698-1.25l.477.92a4.573 4.573 0 0 1-.342.856 3.6 3.6 0 0 1-.477.69 2.17 2.17 0 0 1-.555.46c-.19.121-.375.182-.555.182-.365 0-.7-.137-1.004-.412-.303-.273-.565-.663-.783-1.167-.218-.504-.387-1.107-.505-1.809a13.91 13.91 0 0 1-.178-2.318c0-.833.062-1.606.185-2.319.123-.712.294-1.32.512-1.825.223-.515.487-.915.791-1.2.303-.296.635-.444.996-.444.195 0 .385.055.57.164.189.099.367.241.534.428.166.186.317.416.455.69.142.263.261.56.356.888l-.484.954zM136.597 44.578c.086-.505.178-1.004.278-1.497.1-.493.199-.948.299-1.365.1-.416.197-.789.292-1.118.099-.329.19-.592.27-.789-.294-.252-.519-.63-.676-1.135-.152-.504-.228-1.118-.228-1.841 0-.987.143-1.77.427-2.352.29-.58.698-.871 1.225-.871H140v10.968h-.662v-4.49h-.662c-.195 0-.365.247-.513.74a28.506 28.506 0 0 0-.427 1.71c-.142.636-.28 1.316-.413 2.04h-.726zm2.741-5.821v-3.782h-.897c-.285 0-.508.17-.669.51-.161.328-.242.794-.242 1.397 0 .592.083 1.052.249 1.381.166.33.392.494.676.494h.883z" fill="#fff"/></svg>