<svg width="140" height="65" viewBox="0 0 140 65" fill="none" xmlns="http://www.w3.org/2000/svg">
<path d="M7.32427 15.7197V26.6873H6.05508V17.1338H1.26919V26.6873H0V15.7197H7.32427Z" fill="white"/>
<path d="M10.0217 26.6873C9.81899 26.6873 9.65593 26.6161 9.53254 26.4736C9.40915 26.331 9.34745 26.1173 9.34745 25.8323V15.7197H14.9001V17.1173H10.6166V20.3073H13.8425V21.7215H10.6166V25.2732H15.2174V26.6873H10.0217Z" fill="white"/>
<path d="M16.8099 15.7197H19.5995C20.1988 15.7197 20.6924 15.8238 21.0802 16.0321C21.4768 16.2404 21.7897 16.5035 22.0189 16.8214C22.2568 17.1393 22.4199 17.4955 22.508 17.8902C22.605 18.2848 22.6535 18.6685 22.6535 19.0412C22.6535 19.5893 22.5785 20.0716 22.4287 20.4882C22.2789 20.9048 22.0718 21.2556 21.8073 21.5406C21.5429 21.8146 21.2256 22.0229 20.8555 22.1654C20.4941 22.3079 20.0975 22.3792 19.6656 22.3792H18.0659V26.6873H16.8099V15.7197ZM19.6524 21.0308C20.1988 21.0308 20.6175 20.8609 20.9083 20.5211C21.208 20.1703 21.3578 19.688 21.3578 19.0741C21.3578 18.4492 21.2036 17.9614 20.8951 17.6106C20.5954 17.2489 20.1812 17.068 19.6524 17.068H18.0659V21.0308H19.6524Z" fill="white"/>
<path d="M24.9725 26.6873C24.7697 26.6873 24.6067 26.6161 24.4833 26.4736C24.3599 26.331 24.2982 26.1173 24.2982 25.8323V15.7197H29.8509V17.1173H25.5674V20.3073H28.7932V21.7215H25.5674V25.2732H30.1682V26.6873H24.9725Z" fill="white"/>
<path d="M38.2987 17.1338H35.2712C35.2007 18.1533 35.1125 19.0631 35.0068 19.8634C34.901 20.6636 34.7688 21.3871 34.6101 22.0339C34.4603 22.6697 34.2796 23.2507 34.0681 23.7769C33.8654 24.303 33.6362 24.8018 33.3806 25.2732H38.2987V17.1338ZM34.1342 16.4761C34.1518 16.2459 34.2135 16.065 34.3193 15.9334C34.4251 15.7909 34.5793 15.7197 34.782 15.7197H39.5282V25.2732H40.2686V29.2196H39.1184V26.6873H32.442V29.2196H31.2917V25.2732H31.9792C32.3142 24.736 32.6006 24.1715 32.8386 23.5795C33.0765 22.9876 33.2793 22.3408 33.4467 21.6392C33.623 20.9377 33.764 20.1648 33.8698 19.3207C33.9756 18.4767 34.0637 17.5284 34.1342 16.4761Z" fill="white"/>
<path d="M51.4664 15.7197V26.6873H50.1972V17.1338H45.4114V26.6873H44.1422V15.7197H51.4664Z" fill="white"/>
<path d="M53.4896 15.7197H56.2792C56.8785 15.7197 57.3721 15.8238 57.7599 16.0321C58.1565 16.2404 58.4694 16.5035 58.6986 16.8214C58.9365 17.1393 59.0996 17.4955 59.1877 17.8902C59.2847 18.2848 59.3332 18.6685 59.3332 19.0412C59.3332 19.5893 59.2583 20.0716 59.1084 20.4882C58.9586 20.9048 58.7515 21.2556 58.487 21.5406C58.2226 21.8146 57.9053 22.0229 57.5352 22.1654C57.1738 22.3079 56.7772 22.3792 56.3453 22.3792H54.7456V26.6873H53.4896V15.7197ZM56.3321 21.0308C56.8785 21.0308 57.2972 20.8609 57.588 20.5211C57.8877 20.1703 58.0375 19.688 58.0375 19.0741C58.0375 18.4492 57.8833 17.9614 57.5748 17.6106C57.2751 17.2489 56.8609 17.068 56.3321 17.068H54.7456V21.0308H56.3321Z" fill="white"/>
<path d="M62.2207 24.5168L66.5967 16.4103C66.8787 15.8951 67.196 15.6375 67.5486 15.6375C67.7778 15.6375 67.9628 15.7306 68.1039 15.917C68.2449 16.0924 68.3154 16.3335 68.3154 16.6405V26.6873H67.0726V17.8573L62.6041 26.1611C62.4983 26.3475 62.3705 26.4955 62.2207 26.6051C62.0796 26.7147 61.9298 26.7695 61.7711 26.7695C61.5244 26.7695 61.3305 26.6764 61.1894 26.49C61.0484 26.2927 60.9779 26.0351 60.9779 25.7172V15.7197H62.2207V24.5168Z" fill="white"/>
<path d="M71.0657 15.6375C71.3654 15.6375 71.6254 15.8677 71.8457 16.3281L74.6221 22.0503L77.3456 16.4267C77.4866 16.1417 77.6232 15.9389 77.7554 15.8183C77.8876 15.6977 78.0462 15.6375 78.2313 15.6375C78.4341 15.6375 78.5971 15.7306 78.7205 15.917C78.8527 16.0924 78.9188 16.3281 78.9188 16.624V26.6873H77.7289V18.0546L75.2831 23.1191C75.1245 23.448 74.8997 23.6124 74.6089 23.6124C74.4678 23.6124 74.3312 23.5631 74.199 23.4644C74.0668 23.3658 73.961 23.2288 73.8817 23.0534L71.5152 18.1204V26.6873H70.3254V16.6405C70.3254 16.3226 70.3915 16.0759 70.5237 15.9005C70.6559 15.7251 70.8366 15.6375 71.0657 15.6375Z" fill="white"/>
<path d="M81.5994 26.6873C81.3967 26.6873 81.2336 26.6161 81.1102 26.4736C80.9869 26.331 80.9252 26.1173 80.9252 25.8323V15.7197H86.4779V17.1173H82.1943V20.3073H85.4202V21.7215H82.1943V25.2732H86.7952V26.6873H81.5994Z" fill="white"/>
<path d="M88.3876 15.7197H89.6568V20.3073H94.4824V15.7197H95.7516V26.6873H94.4824V21.7215H89.6568V26.6873H88.3876V15.7197Z" fill="white"/>
<path d="M98.4352 26.6873C98.2324 26.6873 98.0694 26.6161 97.946 26.4736C97.8226 26.331 97.7609 26.1173 97.7609 25.8323V15.7197H103.314V17.1173H99.0301V20.3073H102.256V21.7215H99.0301V25.2732H103.631V26.6873H98.4352Z" fill="white"/>
<path d="M105.223 15.7197H106.493V20.3073H111.318V15.7197H112.587V26.6873H111.318V21.7215H106.493V26.6873H105.223V15.7197Z" fill="white"/>
<path d="M115.839 24.5168L120.215 16.4103C120.497 15.8951 120.815 15.6375 121.167 15.6375C121.396 15.6375 121.582 15.7306 121.723 15.917C121.864 16.0924 121.934 16.3335 121.934 16.6405V26.6873H120.691V17.8573L116.223 26.1611C116.117 26.3475 115.989 26.4955 115.839 26.6051C115.698 26.7147 115.549 26.7695 115.39 26.7695C115.143 26.7695 114.949 26.6764 114.808 26.49C114.667 26.2927 114.597 26.0351 114.597 25.7172V15.7197H115.839V24.5168Z" fill="white"/>
<path d="M124.618 26.6873C124.416 26.6873 124.253 26.6161 124.129 26.4736C124.006 26.331 123.944 26.1173 123.944 25.8323V15.7197H129.497V17.1173H125.213V20.3073H128.439V21.7215H125.213V25.2732H129.814V26.6873H124.618Z" fill="white"/>
<path d="M132.147 15.6375C132.447 15.6375 132.707 15.8677 132.927 16.3281L135.703 22.0503L138.427 16.4267C138.568 16.1417 138.704 15.9389 138.837 15.8183C138.969 15.6977 139.127 15.6375 139.313 15.6375C139.515 15.6375 139.678 15.7306 139.802 15.917C139.934 16.0924 140 16.3281 140 16.624V26.6873H138.81V18.0546L136.364 23.1191C136.206 23.448 135.981 23.6124 135.69 23.6124C135.549 23.6124 135.412 23.5631 135.28 23.4644C135.148 23.3658 135.042 23.2288 134.963 23.0534L132.596 18.1204V26.6873H131.407V16.6405C131.407 16.3226 131.473 16.0759 131.605 15.9005C131.737 15.7251 131.918 15.6375 132.147 15.6375Z" fill="white"/>
<path d="M0.831755 9.07667L3.7606 0.970152C3.94936 0.45493 4.16173 0.197318 4.39768 0.197318C4.55106 0.197318 4.67494 0.290497 4.76932 0.476854C4.8637 0.652248 4.9109 0.893416 4.9109 1.20036V11.2472H4.07914V2.41716L1.08836 10.721C1.01757 10.9074 0.932038 11.0553 0.831755 11.165C0.737372 11.2746 0.637089 11.3294 0.530908 11.3294C0.365736 11.3294 0.235959 11.2362 0.141575 11.0499C0.0471918 10.8525 0 10.5949 0 10.277V0.279535H0.831755V9.07667Z" fill="white"/>
<path d="M6.75165 0.197318C6.95222 0.197318 7.12624 0.427524 7.27371 0.887935L9.13189 6.61019L10.9547 0.986595C11.0491 0.701578 11.1405 0.498778 11.229 0.378195C11.3175 0.25761 11.4236 0.197318 11.5475 0.197318C11.6832 0.197318 11.7923 0.290497 11.8749 0.476854C11.9634 0.652248 12.0076 0.887935 12.0076 1.18391V11.2472H11.2113V2.61448L9.57431 7.679C9.46813 8.00786 9.31771 8.17229 9.12304 8.17229C9.02866 8.17229 8.93722 8.12296 8.84874 8.0243C8.76025 7.92565 8.68946 7.78862 8.63637 7.61322L7.0525 2.68025V11.2472H6.25614V1.20036C6.25614 0.882454 6.30038 0.635805 6.38886 0.460411C6.47735 0.285016 6.59828 0.197318 6.75165 0.197318Z" fill="white"/>
<path d="M13.8017 11.2472C13.6661 11.2472 13.5569 11.1759 13.4743 11.0334C13.3918 10.8909 13.3505 10.6771 13.3505 10.3921V0.279535H17.0668V1.67721H14.1999V4.8672H16.3589V6.28132H14.1999V9.83306H17.2792V11.2472H13.8017Z" fill="white"/>
<path d="M23.5125 11.5267C23.1114 11.5267 22.7338 11.3952 22.3799 11.1321C22.0319 10.869 21.7251 10.5072 21.4597 10.0468C21.1942 9.57545 20.9789 9.02186 20.8137 8.38606C20.6486 7.73929 20.5483 7.03771 20.5129 6.28132H19.1945V11.2472H18.345V0.279535H19.1945V4.8672H20.5394C20.5925 4.16562 20.7046 3.51885 20.8757 2.9269C21.0526 2.32398 21.2738 1.80876 21.5393 1.38123C21.8047 0.942746 22.1056 0.602918 22.4418 0.361751C22.7781 0.120584 23.135 0 23.5125 0C23.9313 0 24.3236 0.147989 24.6893 0.443968C25.0551 0.728984 25.3736 1.1291 25.645 1.64432C25.9163 2.15955 26.1287 2.76795 26.2821 3.46953C26.4413 4.1711 26.521 4.93297 26.521 5.75514C26.521 6.5773 26.4413 7.34465 26.2821 8.05719C26.1287 8.75877 25.9163 9.36717 25.645 9.88239C25.3795 10.3976 25.0639 10.8032 24.6982 11.0992C24.3325 11.3842 23.9372 11.5267 23.5125 11.5267ZM23.5125 10.0468C23.8134 10.0468 24.0936 9.94268 24.3531 9.7344C24.6127 9.51516 24.8368 9.21918 25.0256 8.84647C25.2144 8.46279 25.3618 8.00786 25.468 7.48168C25.5801 6.94453 25.6361 6.36354 25.6361 5.73869C25.6361 5.09193 25.583 4.50545 25.4769 3.97927C25.3707 3.45308 25.2232 3.00363 25.0344 2.63092C24.8457 2.24724 24.6215 1.95127 24.362 1.74298C24.1024 1.5347 23.8192 1.43056 23.5125 1.43056C23.2058 1.43056 22.9226 1.5347 22.663 1.74298C22.4035 1.95127 22.1793 2.24724 21.9906 2.63092C21.8018 3.00363 21.6543 3.45308 21.5481 3.97927C21.442 4.50545 21.3889 5.09193 21.3889 5.73869C21.3889 6.36354 21.442 6.94453 21.5481 7.48168C21.6602 8.00786 21.8106 8.46279 21.9994 8.84647C22.1882 9.21918 22.4123 9.51516 22.6719 9.7344C22.9315 9.94268 23.2117 10.0468 23.5125 10.0468Z" fill="white"/>
<path d="M28.658 1.66077H26.5432V0.279535H31.6134V1.66077H29.5075V11.2472H28.658V1.66077Z" fill="white"/>
<path d="M36.5047 3.14066C36.3041 2.60351 36.0475 2.18695 35.7349 1.89097C35.4222 1.58403 35.0889 1.43056 34.735 1.43056C34.4046 1.43056 34.1038 1.5347 33.8324 1.74298C33.5611 1.95127 33.3281 2.24724 33.1334 2.63092C32.9446 3.00363 32.7972 3.45856 32.691 3.99571C32.5848 4.52189 32.5317 5.11385 32.5317 5.77158C32.5317 6.41835 32.5819 7.00482 32.6821 7.53101C32.7883 8.04623 32.9358 8.4902 33.1246 8.86291C33.3192 9.23562 33.5493 9.52612 33.8147 9.7344C34.0802 9.93172 34.3781 10.0304 34.7084 10.0304C35.0506 10.0304 35.3632 9.90432 35.6464 9.65219C35.9295 9.40006 36.2186 8.98349 36.5135 8.4025L37.1064 9.32332C37.0002 9.6193 36.8586 9.90432 36.6816 10.1784C36.5047 10.4415 36.3071 10.6717 36.0888 10.869C35.8705 11.0663 35.6405 11.2198 35.3986 11.3294C35.1627 11.45 34.9326 11.5103 34.7084 11.5103C34.2542 11.5103 33.8383 11.3732 33.4608 11.0992C33.0833 10.8251 32.7588 10.436 32.4875 9.93172C32.2161 9.42746 32.0067 8.82454 31.8592 8.12296C31.7118 7.42139 31.638 6.64855 31.638 5.80447C31.638 4.97134 31.7147 4.19851 31.8681 3.48597C32.0214 2.77343 32.2338 2.16503 32.5052 1.66077C32.7824 1.14555 33.1098 0.745427 33.4873 0.460411C33.8649 0.164432 34.2778 0.016443 34.7261 0.016443C34.968 0.016443 35.2039 0.0712538 35.434 0.180875C35.67 0.279535 35.8912 0.422043 36.0976 0.6084C36.3041 0.794756 36.4929 1.02496 36.6639 1.29902C36.8409 1.56211 36.9884 1.85809 37.1064 2.18695L36.5047 3.14066Z" fill="white"/>
<path d="M37.4226 11.2472C37.5287 10.7429 37.6438 10.2441 37.7676 9.75085C37.8915 9.25755 38.0154 8.80262 38.1393 8.38606C38.2632 7.96949 38.3841 7.59678 38.5021 7.26792C38.6259 6.93905 38.738 6.67596 38.8383 6.47864C38.4726 6.22651 38.1924 5.84831 37.9977 5.34406C37.8089 4.8398 37.7146 4.22591 37.7146 3.50241C37.7146 2.51582 37.8915 1.73202 38.2455 1.15103C38.6053 0.570032 39.1126 0.279535 39.7674 0.279535H41.6521V11.2472H40.8292V6.75817H40.0063C39.7645 6.75817 39.5521 7.00482 39.3692 7.49812C39.1923 7.99142 39.0153 8.56145 38.8383 9.20822C38.6613 9.84402 38.4903 10.5237 38.3251 11.2472H37.4226ZM40.8292 5.42627V1.64432H39.7143C39.3604 1.64432 39.0831 1.81424 38.8826 2.15407C38.682 2.48293 38.5817 2.94882 38.5817 3.55174C38.5817 4.1437 38.6849 4.60411 38.8914 4.93297C39.0979 5.26184 39.3781 5.42627 39.732 5.42627H40.8292Z" fill="white"/>
<path d="M49.4986 0.279535V11.2472H48.6492V1.69365H45.446V11.2472H44.5966V0.279535H49.4986Z" fill="white"/>
<path d="M50.8527 0.279535H52.7197C53.1209 0.279535 53.4512 0.383675 53.7108 0.591957C53.9762 0.800238 54.1856 1.06333 54.339 1.38123C54.4983 1.69914 54.6074 2.05541 54.6664 2.45004C54.7313 2.84468 54.7637 3.22836 54.7637 3.60107C54.7637 4.14918 54.7136 4.63151 54.6133 5.04808C54.513 5.46464 54.3744 5.81543 54.1974 6.10044C54.0205 6.3745 53.8081 6.58278 53.5604 6.72529C53.3185 6.8678 53.053 6.93905 52.764 6.93905H51.6933V11.2472H50.8527V0.279535ZM52.7551 5.5907C53.1209 5.5907 53.4011 5.42079 53.5957 5.08096C53.7963 4.73017 53.8966 4.24784 53.8966 3.63396C53.8966 3.00911 53.7934 2.5213 53.5869 2.17051C53.3863 1.80876 53.1091 1.62788 52.7551 1.62788H51.6933V5.5907H52.7551Z" fill="white"/>
<path d="M58.6362 10.0468C58.9606 10.0468 59.2585 9.94268 59.5299 9.7344C59.8012 9.51516 60.0342 9.21918 60.2289 8.84647C60.4236 8.46279 60.574 8.00786 60.6802 7.48168C60.7923 6.94453 60.8483 6.36354 60.8483 5.73869C60.8483 5.09193 60.7952 4.50545 60.689 3.97927C60.5828 3.45308 60.4324 3.00363 60.2378 2.63092C60.0431 2.24724 59.8101 1.95127 59.5387 1.74298C59.2674 1.5347 58.9665 1.43056 58.6362 1.43056C58.3058 1.43056 58.005 1.5347 57.7336 1.74298C57.4623 1.95127 57.2293 2.24724 57.0346 2.63092C56.84 3.00363 56.6895 3.45308 56.5833 3.97927C56.4772 4.50545 56.4241 5.09193 56.4241 5.73869C56.4241 6.36354 56.4772 6.94453 56.5833 7.48168C56.6954 8.00786 56.8488 8.46279 57.0435 8.84647C57.2381 9.21918 57.4711 9.51516 57.7425 9.7344C58.0138 9.94268 58.3117 10.0468 58.6362 10.0468ZM58.6362 11.5267C58.1938 11.5267 57.7808 11.3842 57.3974 11.0992C57.0199 10.8032 56.6925 10.3976 56.4152 9.88239C56.1439 9.36717 55.9286 8.75877 55.7693 8.05719C55.6159 7.34465 55.5392 6.5773 55.5392 5.75514C55.5392 4.93297 55.6189 4.1711 55.7781 3.46953C55.9374 2.76795 56.1557 2.15955 56.4329 1.64432C56.7102 1.1291 57.0376 0.728984 57.4151 0.443968C57.7926 0.147989 58.1997 0 58.6362 0C59.0786 0 59.4886 0.147989 59.8661 0.443968C60.2437 0.728984 60.5711 1.1291 60.8483 1.64432C61.1256 2.15955 61.3409 2.76795 61.4942 3.46953C61.6535 4.1711 61.7331 4.93297 61.7331 5.75514C61.7331 6.5773 61.6535 7.34465 61.4942 8.05719C61.3409 8.75877 61.1256 9.36717 60.8483 9.88239C60.5769 10.3976 60.2496 10.8032 59.8661 11.0992C59.4886 11.3842 59.0786 11.5267 58.6362 11.5267Z" fill="white"/>
<path d="M63.8704 1.66077H61.7556V0.279535H66.8258V1.66077H64.7198V11.2472H63.8704V1.66077Z" fill="white"/>
<path d="M68.5432 9.07667L71.4721 0.970152C71.6608 0.45493 71.8732 0.197318 72.1091 0.197318C72.2625 0.197318 72.3864 0.290497 72.4808 0.476854C72.5752 0.652248 72.6224 0.893416 72.6224 1.20036V11.2472H71.7906V2.41716L68.7998 10.721C68.729 10.9074 68.6435 11.0553 68.5432 11.165C68.4488 11.2746 68.3485 11.3294 68.2424 11.3294C68.0772 11.3294 67.9474 11.2362 67.853 11.0499C67.7586 10.8525 67.7115 10.5949 67.7115 10.277V0.279535H68.5432V9.07667Z" fill="white"/>
<path d="M73.9676 0.279535H75.9673C76.2741 0.279535 76.5395 0.35627 76.7637 0.50974C76.9879 0.652248 77.1737 0.849567 77.3212 1.1017C77.4686 1.35383 77.5778 1.64981 77.6486 1.98963C77.7252 2.32946 77.7636 2.69121 77.7636 3.07489C77.7636 3.42568 77.7311 3.7381 77.6663 4.01215C77.6014 4.28621 77.5217 4.52737 77.4273 4.73565C77.333 4.93297 77.2268 5.09193 77.1088 5.21251C76.9967 5.33309 76.8935 5.40983 76.7991 5.44271C76.9171 5.4756 77.0498 5.54686 77.1973 5.65648C77.3448 5.75514 77.4834 5.90861 77.6132 6.11689C77.7429 6.32517 77.8521 6.59922 77.9406 6.93905C78.029 7.26792 78.0733 7.679 78.0733 8.17229C78.0733 8.76425 78.0143 9.25755 77.8963 9.65219C77.7842 10.0359 77.6279 10.3483 77.4273 10.5895C77.2327 10.8306 76.9997 11.0005 76.7283 11.0992C76.457 11.1979 76.1679 11.2472 75.8612 11.2472H73.9676V0.279535ZM75.8169 9.88239C75.9703 9.88239 76.1296 9.86595 76.2947 9.83306C76.4599 9.80017 76.6103 9.72344 76.746 9.60286C76.8876 9.48227 77.0026 9.30688 77.0911 9.07667C77.1796 8.83551 77.2238 8.50664 77.2238 8.09008C77.2238 7.69544 77.1796 7.37754 77.0911 7.13637C77.0085 6.8952 76.8994 6.70336 76.7637 6.56086C76.6339 6.41835 76.4894 6.32517 76.3301 6.28132C76.1709 6.22651 76.0175 6.1991 75.87 6.1991H74.7905V9.88239H75.8169ZM75.8435 4.85076C75.9732 4.85076 76.103 4.82335 76.2328 4.76854C76.3626 4.70277 76.4806 4.60411 76.5867 4.47256C76.6929 4.34102 76.7785 4.1711 76.8433 3.96282C76.9082 3.75454 76.9407 3.50241 76.9407 3.20643C76.9407 2.87757 76.9082 2.61448 76.8433 2.41716C76.7785 2.20888 76.6929 2.04992 76.5867 1.9403C76.4806 1.81972 76.3626 1.74298 76.2328 1.7101C76.103 1.66625 75.9732 1.64432 75.8435 1.64432H74.7905V4.85076H75.8435Z" fill="white"/>
<path d="M82.0449 10.0468C82.3693 10.0468 82.6672 9.94268 82.9386 9.7344C83.2099 9.51516 83.4429 9.21918 83.6376 8.84647C83.8322 8.46279 83.9827 8.00786 84.0889 7.48168C84.2009 6.94453 84.257 6.36354 84.257 5.73869C84.257 5.09193 84.2039 4.50545 84.0977 3.97927C83.9915 3.45308 83.8411 3.00363 83.6464 2.63092C83.4518 2.24724 83.2188 1.95127 82.9474 1.74298C82.6761 1.5347 82.3752 1.43056 82.0449 1.43056C81.7145 1.43056 81.4137 1.5347 81.1423 1.74298C80.871 1.95127 80.638 2.24724 80.4433 2.63092C80.2486 3.00363 80.0982 3.45308 79.992 3.97927C79.8858 4.50545 79.8327 5.09193 79.8327 5.73869C79.8327 6.36354 79.8858 6.94453 79.992 7.48168C80.1041 8.00786 80.2575 8.46279 80.4521 8.84647C80.6468 9.21918 80.8798 9.51516 81.1512 9.7344C81.4225 9.94268 81.7204 10.0468 82.0449 10.0468ZM82.0449 11.5267C81.6024 11.5267 81.1895 11.3842 80.8061 11.0992C80.4285 10.8032 80.1011 10.3976 79.8239 9.88239C79.5525 9.36717 79.3372 8.75877 79.178 8.05719C79.0246 7.34465 78.9479 6.5773 78.9479 5.75514C78.9479 4.93297 79.0275 4.1711 79.1868 3.46953C79.3461 2.76795 79.5643 2.15955 79.8416 1.64432C80.1188 1.1291 80.4462 0.728984 80.8238 0.443968C81.2013 0.147989 81.6083 0 82.0449 0C82.4873 0 82.8973 0.147989 83.2748 0.443968C83.6523 0.728984 83.9797 1.1291 84.257 1.64432C84.5342 2.15955 84.7495 2.76795 84.9029 3.46953C85.0622 4.1711 85.1418 4.93297 85.1418 5.75514C85.1418 6.5773 85.0622 7.34465 84.9029 8.05719C84.7495 8.75877 84.5342 9.36717 84.257 9.88239C83.9856 10.3976 83.6582 10.8032 83.2748 11.0992C82.8973 11.3842 82.4873 11.5267 82.0449 11.5267Z" fill="white"/>
<path d="M91.1486 0.279535V11.2472H90.2992V1.69365H87.096V11.2472H86.2466V0.279535H91.1486Z" fill="white"/>
<path d="M95.3608 10.0468C95.6852 10.0468 95.9831 9.94268 96.2544 9.7344C96.5258 9.51516 96.7588 9.21918 96.9535 8.84647C97.1481 8.46279 97.2986 8.00786 97.4047 7.48168C97.5168 6.94453 97.5729 6.36354 97.5729 5.73869C97.5729 5.09193 97.5198 4.50545 97.4136 3.97927C97.3074 3.45308 97.157 3.00363 96.9623 2.63092C96.7677 2.24724 96.5347 1.95127 96.2633 1.74298C95.9919 1.5347 95.6911 1.43056 95.3608 1.43056C95.0304 1.43056 94.7296 1.5347 94.4582 1.74298C94.1869 1.95127 93.9539 2.24724 93.7592 2.63092C93.5645 3.00363 93.4141 3.45308 93.3079 3.97927C93.2017 4.50545 93.1486 5.09193 93.1486 5.73869C93.1486 6.36354 93.2017 6.94453 93.3079 7.48168C93.42 8.00786 93.5734 8.46279 93.768 8.84647C93.9627 9.21918 94.1957 9.51516 94.4671 9.7344C94.7384 9.94268 95.0363 10.0468 95.3608 10.0468ZM95.3608 11.5267C94.9183 11.5267 94.5054 11.3842 94.122 11.0992C93.7444 10.8032 93.417 10.3976 93.1398 9.88239C92.8684 9.36717 92.6531 8.75877 92.4938 8.05719C92.3405 7.34465 92.2638 6.5773 92.2638 5.75514C92.2638 4.93297 92.3434 4.1711 92.5027 3.46953C92.662 2.76795 92.8802 2.15955 93.1575 1.64432C93.4347 1.1291 93.7621 0.728984 94.1397 0.443968C94.5172 0.147989 94.9242 0 95.3608 0C95.8032 0 96.2132 0.147989 96.5907 0.443968C96.9682 0.728984 97.2956 1.1291 97.5729 1.64432C97.8501 2.15955 98.0654 2.76795 98.2188 3.46953C98.3781 4.1711 98.4577 4.93297 98.4577 5.75514C98.4577 6.5773 98.3781 7.34465 98.2188 8.05719C98.0654 8.75877 97.8501 9.36717 97.5729 9.88239C97.3015 10.3976 96.9741 10.8032 96.5907 11.0992C96.2132 11.3842 95.8032 11.5267 95.3608 11.5267Z" fill="white"/>
<path d="M102.907 3.84772C102.754 4.34102 102.612 4.71921 102.482 4.9823C102.359 5.23443 102.211 5.42079 102.04 5.54137C102.359 5.93601 102.689 6.59922 103.031 7.53101C103.373 8.46279 103.742 9.70152 104.137 11.2472H103.217C103.087 10.7648 102.978 10.3702 102.889 10.0633C102.801 9.74536 102.718 9.46583 102.642 9.22466C102.565 8.97253 102.485 8.72588 102.403 8.48472C102.32 8.24355 102.217 7.95853 102.093 7.62967C101.904 7.12541 101.727 6.77462 101.562 6.5773C101.403 6.37998 101.217 6.28132 101.005 6.28132H100.412V11.2472H99.5625V0.279535H100.412V4.8672H101.111C101.329 4.8672 101.509 4.78498 101.651 4.62055C101.792 4.45612 101.922 4.18207 102.04 3.79839L103.093 0.279535H104.022L102.907 3.84772Z" fill="white"/>
<path d="M108.567 8.18874H106.143L105.541 11.2472H104.647L106.798 1.03592C106.916 0.476854 107.119 0.197318 107.408 0.197318C107.674 0.197318 107.868 0.487816 107.992 1.06881L110.133 11.2472H109.187L108.567 8.18874ZM107.364 1.92386L106.399 6.85683H108.311L107.364 1.92386Z" fill="white"/>
<path d="M111.811 4.88364H112.66C112.808 4.88364 112.946 4.85076 113.076 4.78498C113.206 4.71921 113.321 4.61507 113.421 4.47256C113.521 4.33005 113.601 4.14918 113.66 3.92994C113.719 3.71069 113.749 3.4476 113.749 3.14066C113.749 2.82276 113.716 2.55418 113.651 2.33494C113.592 2.1157 113.51 1.9403 113.403 1.80876C113.303 1.66625 113.188 1.56759 113.058 1.51278C112.929 1.44701 112.796 1.41412 112.66 1.41412C112.471 1.41412 112.303 1.46345 112.156 1.56211C112.008 1.66077 111.879 1.78683 111.766 1.9403C111.66 2.09377 111.566 2.25821 111.483 2.4336C111.401 2.60899 111.33 2.76795 111.271 2.91045L110.678 2.08829C110.755 1.86905 110.849 1.63884 110.961 1.39768C111.079 1.15651 111.221 0.931783 111.386 0.723502C111.557 0.515221 111.752 0.345308 111.97 0.213762C112.194 0.0822162 112.448 0.016443 112.731 0.016443C113.032 0.016443 113.297 0.0986592 113.527 0.263092C113.763 0.416562 113.958 0.624843 114.111 0.887935C114.271 1.15103 114.389 1.46345 114.465 1.8252C114.548 2.17599 114.589 2.5487 114.589 2.94334C114.589 3.55722 114.498 4.10533 114.315 4.58767C114.138 5.05904 113.89 5.36598 113.572 5.50849C113.731 5.57426 113.881 5.68388 114.023 5.83735C114.17 5.97986 114.297 6.16622 114.403 6.39642C114.515 6.62663 114.604 6.90068 114.669 7.21859C114.734 7.53649 114.766 7.90372 114.766 8.32028C114.766 8.86839 114.71 9.34525 114.598 9.75085C114.492 10.1455 114.344 10.4743 114.156 10.7374C113.967 11.0005 113.749 11.1924 113.501 11.313C113.253 11.4445 112.988 11.5103 112.704 11.5103C112.392 11.5103 112.115 11.439 111.873 11.2965C111.631 11.154 111.418 10.9786 111.236 10.7703C111.059 10.562 110.908 10.3373 110.784 10.0962C110.666 9.85499 110.572 9.63574 110.501 9.43842L111.112 8.59982C111.165 8.73136 111.233 8.88483 111.315 9.06023C111.398 9.23562 111.501 9.40006 111.625 9.55353C111.749 9.707 111.896 9.83854 112.067 9.94816C112.238 10.0578 112.436 10.1126 112.66 10.1126C112.825 10.1126 112.982 10.0797 113.129 10.0139C113.283 9.9372 113.415 9.8221 113.527 9.66863C113.645 9.51516 113.737 9.31236 113.802 9.06023C113.872 8.79714 113.908 8.48472 113.908 8.12296C113.908 7.76121 113.872 7.45975 113.802 7.21859C113.737 6.97742 113.648 6.78558 113.536 6.64307C113.43 6.50056 113.306 6.4019 113.165 6.34709C113.023 6.28132 112.878 6.24843 112.731 6.24843H111.811V4.88364Z" fill="white"/>
<path d="M119.014 8.18874H116.59L115.988 11.2472H115.094L117.245 1.03592C117.363 0.476854 117.566 0.197318 117.855 0.197318C118.121 0.197318 118.315 0.487816 118.439 1.06881L120.581 11.2472H119.634L119.014 8.18874ZM117.811 1.92386L116.846 6.85683H118.758L117.811 1.92386Z" fill="white"/>
<path d="M121.355 0.279535H122.205V4.8672H125.434V0.279535H126.284V11.2472H125.434V6.28132H122.205V11.2472H121.355V0.279535Z" fill="white"/>
<path d="M128.46 9.07667L131.389 0.970152C131.578 0.45493 131.79 0.197318 132.026 0.197318C132.18 0.197318 132.304 0.290497 132.398 0.476854C132.492 0.652248 132.54 0.893416 132.54 1.20036V11.2472H131.708V2.41716L128.717 10.721C128.646 10.9074 128.561 11.0553 128.46 11.165C128.366 11.2746 128.266 11.3294 128.16 11.3294C127.994 11.3294 127.865 11.2362 127.77 11.0499C127.676 10.8525 127.629 10.5949 127.629 10.277V0.279535H128.46V9.07667Z" fill="white"/>
<path d="M133.434 11.2472C133.54 10.7429 133.655 10.2441 133.779 9.75085C133.903 9.25755 134.026 8.80262 134.15 8.38606C134.274 7.96949 134.395 7.59678 134.513 7.26792C134.637 6.93905 134.749 6.67596 134.849 6.47864C134.484 6.22651 134.203 5.84831 134.009 5.34406C133.82 4.8398 133.726 4.22591 133.726 3.50241C133.726 2.51582 133.903 1.73202 134.256 1.15103C134.616 0.570032 135.124 0.279535 135.778 0.279535H137.663V11.2472H136.84V6.75817H136.017C135.775 6.75817 135.563 7.00482 135.38 7.49812C135.203 7.99142 135.026 8.56145 134.849 9.20822C134.672 9.84402 134.501 10.5237 134.336 11.2472H133.434ZM136.84 5.42627V1.64432H135.725C135.371 1.64432 135.094 1.81424 134.894 2.15407C134.693 2.48293 134.593 2.94882 134.593 3.55174C134.593 4.1437 134.696 4.60411 134.902 4.93297C135.109 5.26184 135.389 5.42627 135.743 5.42627H136.84Z" fill="white"/>
<path d="M139.46 11.313C139.307 11.313 139.177 11.2198 139.071 11.0334C138.971 10.8361 138.92 10.5949 138.92 10.3099C138.92 10.0249 138.971 9.78921 139.071 9.60286C139.177 9.40554 139.307 9.30688 139.46 9.30688C139.614 9.30688 139.74 9.40554 139.841 9.60286C139.947 9.78921 140 10.0249 140 10.3099C140 10.5949 139.947 10.8361 139.841 11.0334C139.74 11.2198 139.614 11.313 139.46 11.313Z" fill="white"/>
<path d="M7.86416 54.3612C7.54006 53.8241 7.1254 53.4075 6.62019 53.1116C6.11498 52.8046 5.5764 52.6511 5.00446 52.6511C4.47066 52.6511 3.98451 52.7553 3.54602 52.9636C3.10753 53.1718 2.73101 53.4678 2.41644 53.8515C2.11141 54.2242 1.8731 54.6791 1.70152 55.2163C1.52994 55.7425 1.44415 56.3344 1.44415 56.9922C1.44415 57.6389 1.52517 58.2254 1.68722 58.7516C1.8588 59.2668 2.09711 59.7108 2.40214 60.0835C2.71671 60.4562 3.08847 60.7467 3.51742 60.955C3.94638 61.1523 4.42776 61.251 4.96157 61.251C5.51444 61.251 6.01966 61.1249 6.47721 60.8728C6.93476 60.6206 7.40184 60.2041 7.87846 59.6231L8.83645 60.5439C8.66487 60.8399 8.4361 61.1249 8.15013 61.399C7.86416 61.662 7.54483 61.8922 7.19213 62.0896C6.83943 62.2869 6.46768 62.4404 6.07685 62.55C5.69556 62.6706 5.3238 62.7309 4.96157 62.7309C4.22758 62.7309 3.55555 62.5938 2.94549 62.3198C2.33542 62.0457 1.81114 61.6566 1.37265 61.1523C0.934167 60.648 0.59577 60.0451 0.357462 59.3435C0.119154 58.642 0 57.8691 0 57.025C0 56.1919 0.12392 55.4191 0.37176 54.7065C0.6196 53.994 0.962764 53.3856 1.40125 52.8813C1.84927 52.3661 2.37831 51.966 2.98838 51.681C3.59845 51.385 4.26571 51.237 4.99017 51.237C5.38099 51.237 5.76228 51.2918 6.13404 51.4015C6.51534 51.5001 6.8728 51.6426 7.20643 51.829C7.54006 52.0153 7.84509 52.2455 8.12153 52.5196C8.4075 52.7827 8.64581 53.0787 8.83645 53.4075L7.86416 54.3612Z" fill="white"/>
<path d="M14.4437 61.2674C14.968 61.2674 15.4493 61.1633 15.8878 60.955C16.3263 60.7357 16.7028 60.4398 17.0174 60.067C17.332 59.6834 17.5751 59.2284 17.7466 58.7023C17.9278 58.1651 18.0183 57.5841 18.0183 56.9593C18.0183 56.3125 17.9325 55.726 17.7609 55.1998C17.5894 54.6737 17.3463 54.2242 17.0317 53.8515C16.7171 53.4678 16.3406 53.1718 15.9021 52.9636C15.4636 52.7553 14.9775 52.6511 14.4437 52.6511C13.9099 52.6511 13.4237 52.7553 12.9852 52.9636C12.5468 53.1718 12.1702 53.4678 11.8557 53.8515C11.5411 54.2242 11.298 54.6737 11.1264 55.1998C10.9549 55.726 10.8691 56.3125 10.8691 56.9593C10.8691 57.5841 10.9549 58.1651 11.1264 58.7023C11.3076 59.2284 11.5554 59.6834 11.87 60.067C12.1845 60.4398 12.5611 60.7357 12.9995 60.955C13.438 61.1633 13.9194 61.2674 14.4437 61.2674ZM14.4437 62.7473C13.7288 62.7473 13.0615 62.6048 12.4419 62.3198C11.8318 62.0238 11.3028 61.6182 10.8548 61.103C10.4163 60.5878 10.0684 59.9794 9.81098 59.2778C9.56314 58.5652 9.43922 57.7979 9.43922 56.9757C9.43922 56.1536 9.56791 55.3917 9.82528 54.6901C10.0827 53.9885 10.4354 53.3801 10.8834 52.8649C11.3314 52.3497 11.8604 51.9496 12.4705 51.6645C13.0806 51.3686 13.7383 51.2206 14.4437 51.2206C15.1586 51.2206 15.8211 51.3686 16.4312 51.6645C17.0412 51.9496 17.5703 52.3497 18.0183 52.8649C18.4663 53.3801 18.8143 53.9885 19.0621 54.6901C19.3195 55.3917 19.4482 56.1536 19.4482 56.9757C19.4482 57.7979 19.3195 58.5652 19.0621 59.2778C18.8143 59.9794 18.4663 60.5878 18.0183 61.103C17.5798 61.6182 17.0508 62.0238 16.4312 62.3198C15.8211 62.6048 15.1586 62.7473 14.4437 62.7473Z" fill="white"/>
<path d="M31.2947 54.3612C30.9706 53.8241 30.5559 53.4075 30.0507 53.1116C29.5455 52.8046 29.0069 52.6511 28.435 52.6511C27.9012 52.6511 27.415 52.7553 26.9765 52.9636C26.538 53.1718 26.1615 53.4678 25.8469 53.8515C25.5419 54.2242 25.3036 54.6791 25.132 55.2163C24.9604 55.7425 24.8746 56.3344 24.8746 56.9922C24.8746 57.6389 24.9557 58.2254 25.1177 58.7516C25.2893 59.2668 25.5276 59.7108 25.8326 60.0835C26.1472 60.4562 26.519 60.7467 26.9479 60.955C27.3769 61.1523 27.8583 61.251 28.3921 61.251C28.9449 61.251 29.4502 61.1249 29.9077 60.8728C30.3653 60.6206 30.8323 60.2041 31.309 59.6231L32.267 60.5439C32.0954 60.8399 31.8666 61.1249 31.5806 61.399C31.2947 61.662 30.9753 61.8922 30.6226 62.0896C30.2699 62.2869 29.8982 62.4404 29.5073 62.55C29.1261 62.6706 28.7543 62.7309 28.3921 62.7309C27.6581 62.7309 26.9861 62.5938 26.376 62.3198C25.7659 62.0457 25.2416 61.6566 24.8032 61.1523C24.3647 60.648 24.0263 60.0451 23.788 59.3435C23.5497 58.642 23.4305 57.8691 23.4305 57.025C23.4305 56.1919 23.5544 55.4191 23.8023 54.7065C24.0501 53.994 24.3933 53.3856 24.8318 52.8813C25.2798 52.3661 25.8088 51.966 26.4189 51.681C27.0289 51.385 27.6962 51.237 28.4207 51.237C28.8115 51.237 29.1928 51.2918 29.5645 51.4015C29.9458 51.5001 30.3033 51.6426 30.6369 51.829C30.9706 52.0153 31.2756 52.2455 31.552 52.5196C31.838 52.7827 32.0763 53.0787 32.267 53.4075L31.2947 54.3612Z" fill="white"/>
<path d="M41.4285 51.5001V62.4678H40.0558V52.9142H34.8798V62.4678H33.5071V51.5001H41.4285Z" fill="white"/>
<path d="M44.3458 62.4678C44.1266 62.4678 43.9502 62.3965 43.8168 62.254C43.6833 62.1115 43.6166 61.8977 43.6166 61.6127V51.5001H49.6219V52.8978H44.9892V56.0878H48.4781V57.5019H44.9892V61.0536H49.9651V62.4678H44.3458Z" fill="white"/>
<path d="M59.094 62.4678H51.6874V51.5001H53.0601V61.0536H58.1646V51.5001H59.5373V61.0536H60.338V65H59.094V62.4678Z" fill="white"/>
<path d="M63.2806 60.2973L68.0134 52.1907C68.3184 51.6755 68.6616 51.4179 69.0428 51.4179C69.2907 51.4179 69.4909 51.5111 69.6434 51.6974C69.7959 51.8728 69.8722 52.114 69.8722 52.4209V62.4678H68.5281V53.6377L63.6952 61.9416C63.5808 62.1279 63.4426 62.2759 63.2806 62.3855C63.128 62.4952 62.966 62.55 62.7944 62.55C62.5275 62.55 62.3178 62.4568 62.1653 62.2704C62.0128 62.0731 61.9365 61.8155 61.9365 61.4976V51.5001H63.2806V60.2973Z" fill="white"/>
<path d="M77.4651 59.4093H73.5473L72.575 62.4678H71.1309L74.6054 52.2565C74.796 51.6974 75.1249 51.4179 75.592 51.4179C76.0209 51.4179 76.3355 51.7084 76.5357 52.2894L79.9959 62.4678H78.466L77.4651 59.4093ZM75.5205 53.1444L73.962 58.0774H77.0504L75.5205 53.1444Z" fill="white"/>
<path d="M83.7397 52.4374C83.7492 52.1524 83.8159 51.9276 83.9398 51.7632C84.0733 51.5878 84.2592 51.5001 84.4975 51.5001H89.7307V62.4678H88.3581V52.9142H85.0551C84.9979 54.6353 84.8788 56.1042 84.6977 57.321C84.5165 58.5269 84.2687 59.5189 83.9541 60.2973C83.6396 61.0646 83.2487 61.6292 82.7817 61.9909C82.3241 62.3417 81.7808 62.5171 81.1516 62.5171H80.9515V61.0865C81.409 61.0865 81.7998 60.9331 82.1239 60.6261C82.4576 60.3082 82.734 59.804 82.9532 59.1133C83.1725 58.4227 83.3441 57.5293 83.468 56.4331C83.6014 55.3369 83.692 54.005 83.7397 52.4374Z" fill="white"/>
<path d="M93.2459 60.2973L97.9787 52.1907C98.2837 51.6755 98.6269 51.4179 99.0082 51.4179C99.256 51.4179 99.4562 51.5111 99.6087 51.6974C99.7612 51.8728 99.8375 52.114 99.8375 52.4209V62.4678H98.4934V53.6377L93.6606 61.9416C93.5462 62.1279 93.408 62.2759 93.2459 62.3855C93.0934 62.4952 92.9313 62.55 92.7598 62.55C92.4929 62.55 92.2831 62.4568 92.1306 62.2704C91.9781 62.0731 91.9018 61.8155 91.9018 61.4976V51.5001H93.2459V60.2973Z" fill="white"/>
<path d="M109.489 54.3612C109.165 53.8241 108.751 53.4075 108.245 53.1116C107.74 52.8046 107.202 52.6511 106.63 52.6511C106.096 52.6511 105.61 52.7553 105.171 52.9636C104.733 53.1718 104.356 53.4678 104.042 53.8515C103.737 54.2242 103.498 54.6791 103.327 55.2163C103.155 55.7425 103.069 56.3344 103.069 56.9922C103.069 57.6389 103.15 58.2254 103.312 58.7516C103.484 59.2668 103.722 59.7108 104.027 60.0835C104.342 60.4562 104.714 60.7467 105.143 60.955C105.572 61.1523 106.053 61.251 106.587 61.251C107.14 61.251 107.645 61.1249 108.102 60.8728C108.56 60.6206 109.027 60.2041 109.504 59.6231L110.462 60.5439C110.29 60.8399 110.061 61.1249 109.775 61.399C109.489 61.662 109.17 61.8922 108.817 62.0896C108.465 62.2869 108.093 62.4404 107.702 62.55C107.321 62.6706 106.949 62.7309 106.587 62.7309C105.853 62.7309 105.181 62.5938 104.571 62.3198C103.961 62.0457 103.436 61.6566 102.998 61.1523C102.559 60.648 102.221 60.0451 101.983 59.3435C101.744 58.642 101.625 57.8691 101.625 57.025C101.625 56.1919 101.749 55.4191 101.997 54.7065C102.245 53.994 102.588 53.3856 103.027 52.8813C103.475 52.3661 104.004 51.966 104.614 51.681C105.224 51.385 105.891 51.237 106.615 51.237C107.006 51.237 107.388 51.2918 107.759 51.4015C108.141 51.5001 108.498 51.6426 108.832 51.829C109.165 52.0153 109.47 52.2455 109.747 52.5196C110.033 52.7827 110.271 53.0787 110.462 53.4075L109.489 54.3612Z" fill="white"/>
<path d="M114.096 52.8813H110.679V51.5001H118.872V52.8813H115.469V62.4678H114.096V52.8813Z" fill="white"/>
<path d="M123.916 61.2674C124.441 61.2674 124.922 61.1633 125.36 60.955C125.799 60.7357 126.175 60.4398 126.49 60.067C126.805 59.6834 127.048 59.2284 127.219 58.7023C127.4 58.1651 127.491 57.5841 127.491 56.9593C127.491 56.3125 127.405 55.726 127.234 55.1998C127.062 54.6737 126.819 54.2242 126.504 53.8515C126.19 53.4678 125.813 53.1718 125.375 52.9636C124.936 52.7553 124.45 52.6511 123.916 52.6511C123.383 52.6511 122.896 52.7553 122.458 52.9636C122.019 53.1718 121.643 53.4678 121.328 53.8515C121.014 54.2242 120.771 54.6737 120.599 55.1998C120.428 55.726 120.342 56.3125 120.342 56.9593C120.342 57.5841 120.428 58.1651 120.599 58.7023C120.78 59.2284 121.028 59.6834 121.343 60.067C121.657 60.4398 122.034 60.7357 122.472 60.955C122.911 61.1633 123.392 61.2674 123.916 61.2674ZM123.916 62.7473C123.201 62.7473 122.534 62.6048 121.915 62.3198C121.304 62.0238 120.775 61.6182 120.327 61.103C119.889 60.5878 119.541 59.9794 119.284 59.2778C119.036 58.5652 118.912 57.7979 118.912 56.9757C118.912 56.1536 119.041 55.3917 119.298 54.6901C119.555 53.9885 119.908 53.3801 120.356 52.8649C120.804 52.3497 121.333 51.9496 121.943 51.6645C122.553 51.3686 123.211 51.2206 123.916 51.2206C124.631 51.2206 125.294 51.3686 125.904 51.6645C126.514 51.9496 127.043 52.3497 127.491 52.8649C127.939 53.3801 128.287 53.9885 128.535 54.6901C128.792 55.3917 128.921 56.1536 128.921 56.9757C128.921 57.7979 128.792 58.5652 128.535 59.2778C128.287 59.9794 127.939 60.5878 127.491 61.103C127.052 61.6182 126.523 62.0238 125.904 62.3198C125.294 62.6048 124.631 62.7473 123.916 62.7473Z" fill="white"/>
<path d="M131.507 51.4179C131.831 51.4179 132.112 51.6481 132.35 52.1085L135.353 57.8308L138.298 52.2072C138.451 51.9222 138.599 51.7194 138.742 51.5988C138.885 51.4782 139.056 51.4179 139.256 51.4179C139.476 51.4179 139.652 51.5111 139.786 51.6974C139.929 51.8728 140 52.1085 140 52.4045V62.4678H138.713V53.8351L136.068 58.8996C135.896 59.2284 135.653 59.3929 135.339 59.3929C135.186 59.3929 135.038 59.3435 134.895 59.2449C134.752 59.1462 134.638 59.0092 134.552 58.8338L131.993 53.9008V62.4678H130.706V52.4209C130.706 52.103 130.777 51.8564 130.92 51.681C131.063 51.5056 131.259 51.4179 131.507 51.4179Z" fill="white"/>
<path d="M0 33.6099H0.68337V38.1975H3.2816V33.6099H3.96497V44.5775H3.2816V39.6116H0.68337V44.5775H0V33.6099Z" fill="white"/>
<path d="M5.4099 44.5775C5.30075 44.5775 5.21296 44.5063 5.14652 44.3637C5.08008 44.2212 5.04686 44.0075 5.04686 43.7225V33.6099H8.03661V35.0075H5.73023V38.1975H7.46713V39.6116H5.73023V43.1634H8.20745V44.5775H5.4099Z" fill="white"/>
<path d="M11.0791 43.3771C11.3401 43.3771 11.5798 43.273 11.7981 43.0647C12.0164 42.8455 12.2038 42.5495 12.3604 42.1768C12.5171 41.7931 12.6381 41.3382 12.7235 40.812C12.8137 40.2749 12.8587 39.6939 12.8587 39.069C12.8587 38.4222 12.816 37.8358 12.7306 37.3096C12.6452 36.7834 12.5242 36.334 12.3676 35.9612C12.211 35.5776 12.0235 35.2816 11.8052 35.0733C11.5869 34.865 11.3449 34.7609 11.0791 34.7609C10.8134 34.7609 10.5713 34.865 10.353 35.0733C10.1347 35.2816 9.94729 35.5776 9.79069 35.9612C9.63408 36.334 9.51307 36.7834 9.42765 37.3096C9.34223 37.8358 9.29952 38.4222 9.29952 39.069C9.29952 39.6939 9.34223 40.2749 9.42765 40.812C9.51782 41.3382 9.6412 41.7931 9.79781 42.1768C9.95441 42.5495 10.1419 42.8455 10.3602 43.0647C10.5785 43.273 10.8181 43.3771 11.0791 43.3771ZM11.0791 44.857C10.7232 44.857 10.391 44.7145 10.0825 44.4295C9.77883 44.1335 9.51544 43.7279 9.2924 43.2127C9.0741 42.6975 8.90088 42.0891 8.77275 41.3875C8.64937 40.675 8.58767 39.9076 8.58767 39.0855C8.58767 38.2633 8.65174 37.5014 8.77987 36.7998C8.908 36.0983 9.08359 35.4899 9.30664 34.9746C9.52968 34.4594 9.79306 34.0593 10.0968 33.7743C10.4005 33.4783 10.728 33.3303 11.0791 33.3303C11.435 33.3303 11.7649 33.4783 12.0686 33.7743C12.3723 34.0593 12.6357 34.4594 12.8587 34.9746C13.0818 35.4899 13.255 36.0983 13.3784 36.7998C13.5065 37.5014 13.5706 38.2633 13.5706 39.0855C13.5706 39.9076 13.5065 40.675 13.3784 41.3875C13.255 42.0891 13.0818 42.6975 12.8587 43.2127C12.6404 43.7279 12.3771 44.1335 12.0686 44.4295C11.7649 44.7145 11.435 44.857 11.0791 44.857Z" fill="white"/>
<path d="M17.3352 33.6099V34.9746H15.1427V37.8851H16.0681C16.6091 37.8851 17.0267 38.1811 17.3209 38.773C17.6152 39.354 17.7623 40.1598 17.7623 41.1902C17.7623 41.6177 17.7314 42.0398 17.6697 42.4563C17.6081 42.8619 17.5084 43.2237 17.3708 43.5416C17.2379 43.8485 17.0599 44.1007 16.8369 44.298C16.6186 44.4843 16.3505 44.5775 16.0325 44.5775H14.4593V33.6099H17.3352ZM15.1427 43.2292H16.0539C16.3671 43.2292 16.6115 43.0647 16.7871 42.7359C16.9674 42.407 17.0576 41.9082 17.0576 41.2395C17.0576 40.5818 16.9674 40.083 16.7871 39.7432C16.6115 39.4034 16.3671 39.2334 16.0539 39.2334H15.1427V43.2292Z" fill="white"/>
<path d="M19.8267 38.9046L18.2606 33.6099H19.0864L20.2396 37.6056L21.3785 33.6099H22.1259L20.6026 38.8553L22.2897 44.5775H21.471L20.1968 40.1543L18.9226 44.5775H18.1681L19.8267 38.9046Z" fill="white"/>
<path d="M24.9128 43.3771C25.1738 43.3771 25.4135 43.273 25.6318 43.0647C25.8501 42.8455 26.0375 42.5495 26.1941 42.1768C26.3507 41.7931 26.4718 41.3382 26.5572 40.812C26.6473 40.2749 26.6924 39.6939 26.6924 39.069C26.6924 38.4222 26.6497 37.8358 26.5643 37.3096C26.4789 36.7834 26.3579 36.334 26.2012 35.9612C26.0446 35.5776 25.8572 35.2816 25.6389 35.0733C25.4206 34.865 25.1786 34.7609 24.9128 34.7609C24.6471 34.7609 24.405 34.865 24.1867 35.0733C23.9684 35.2816 23.781 35.5776 23.6244 35.9612C23.4678 36.334 23.3468 36.7834 23.2613 37.3096C23.1759 37.8358 23.1332 38.4222 23.1332 39.069C23.1332 39.6939 23.1759 40.2749 23.2613 40.812C23.3515 41.3382 23.4749 41.7931 23.6315 42.1768C23.7881 42.5495 23.9756 42.8455 24.1939 43.0647C24.4121 43.273 24.6518 43.3771 24.9128 43.3771ZM24.9128 44.857C24.5569 44.857 24.2247 44.7145 23.9162 44.4295C23.6125 44.1335 23.3491 43.7279 23.1261 43.2127C22.9078 42.6975 22.7346 42.0891 22.6064 41.3875C22.4831 40.675 22.4214 39.9076 22.4214 39.0855C22.4214 38.2633 22.4854 37.5014 22.6136 36.7998C22.7417 36.0983 22.9173 35.4899 23.1403 34.9746C23.3634 34.4594 23.6267 34.0593 23.9305 33.7743C24.2342 33.4783 24.5616 33.3303 24.9128 33.3303C25.2687 33.3303 25.5986 33.4783 25.9023 33.7743C26.206 34.0593 26.4694 34.4594 26.6924 34.9746C26.9155 35.4899 27.0887 36.0983 27.2121 36.7998C27.3402 37.5014 27.4043 38.2633 27.4043 39.0855C27.4043 39.9076 27.3402 40.675 27.2121 41.3875C27.0887 42.0891 26.9155 42.6975 26.6924 43.2127C26.4741 43.7279 26.2107 44.1335 25.9023 44.4295C25.5986 44.7145 25.2687 44.857 24.9128 44.857Z" fill="white"/>
<path d="M31.2085 35.024H29.5784C29.5404 36.0435 29.493 36.9533 29.436 37.7536C29.3791 38.5538 29.3079 39.2773 29.2225 39.9241C29.1418 40.5599 29.0445 41.1409 28.9306 41.667C28.8215 42.1932 28.6981 42.692 28.5605 43.1634H31.2085V35.024ZM28.9662 34.3662C28.9757 34.136 29.0089 33.9552 29.0659 33.8236C29.1228 33.6811 29.2059 33.6099 29.315 33.6099H31.8705V43.1634H32.2692V47.1098H31.6499V44.5775H28.055V47.1098H27.4357V43.1634H27.8059C27.9862 42.6262 28.1405 42.0617 28.2686 41.4697C28.3967 40.8778 28.5059 40.231 28.596 39.5294C28.691 38.8278 28.7669 38.055 28.8238 37.2109C28.8808 36.3668 28.9282 35.4186 28.9662 34.3662Z" fill="white"/>
<path d="M33.7379 42.407L36.0941 34.3005C36.246 33.7853 36.4168 33.5276 36.6066 33.5276C36.73 33.5276 36.8297 33.6208 36.9056 33.8072C36.9815 33.9826 37.0195 34.2237 37.0195 34.5307V44.5775H36.3504V35.7475L33.9443 44.0513C33.8874 44.2377 33.8186 44.3857 33.7379 44.4953C33.662 44.6049 33.5813 44.6597 33.4959 44.6597C33.363 44.6597 33.2586 44.5665 33.1827 44.3802C33.1067 44.1829 33.0688 43.9253 33.0688 43.6074V33.6099H33.7379V42.407Z" fill="white"/>
<path d="M38.5004 33.5276C38.6617 33.5276 38.8017 33.7578 38.9203 34.2183L40.4152 39.9405L41.8816 34.3169C41.9575 34.0319 42.0311 33.8291 42.1023 33.7085C42.1735 33.5879 42.2589 33.5276 42.3585 33.5276C42.4677 33.5276 42.5555 33.6208 42.6219 33.8072C42.6931 33.9826 42.7287 34.2183 42.7287 34.5142V44.5775H42.088V35.9448L40.7711 41.0093C40.6857 41.3382 40.5647 41.5026 40.4081 41.5026C40.3322 41.5026 40.2586 41.4533 40.1874 41.3546C40.1162 41.256 40.0593 41.1189 40.0166 40.9435L38.7424 36.0106V44.5775H38.1017V34.5307C38.1017 34.2128 38.1373 33.9661 38.2085 33.7907C38.2797 33.6153 38.377 33.5276 38.5004 33.5276Z" fill="white"/>
<path d="M46.1082 43.3771C46.3693 43.3771 46.6089 43.273 46.8272 43.0647C47.0455 42.8455 47.233 42.5495 47.3896 42.1768C47.5462 41.7931 47.6672 41.3382 47.7526 40.812C47.8428 40.2749 47.8879 39.6939 47.8879 39.069C47.8879 38.4222 47.8451 37.8358 47.7597 37.3096C47.6743 36.7834 47.5533 36.334 47.3967 35.9612C47.2401 35.5776 47.0526 35.2816 46.8343 35.0733C46.616 34.865 46.374 34.7609 46.1082 34.7609C45.8425 34.7609 45.6005 34.865 45.3822 35.0733C45.1639 35.2816 44.9764 35.5776 44.8198 35.9612C44.6632 36.334 44.5422 36.7834 44.4568 37.3096C44.3713 37.8358 44.3286 38.4222 44.3286 39.069C44.3286 39.6939 44.3713 40.2749 44.4568 40.812C44.5469 41.3382 44.6703 41.7931 44.8269 42.1768C44.9835 42.5495 45.171 42.8455 45.3893 43.0647C45.6076 43.273 45.8472 43.3771 46.1082 43.3771ZM46.1082 44.857C45.7523 44.857 45.4201 44.7145 45.1117 44.4295C44.8079 44.1335 44.5446 43.7279 44.3215 43.2127C44.1032 42.6975 43.93 42.0891 43.8019 41.3875C43.6785 40.675 43.6168 39.9076 43.6168 39.0855C43.6168 38.2633 43.6809 37.5014 43.809 36.7998C43.9371 36.0983 44.1127 35.4899 44.3357 34.9746C44.5588 34.4594 44.8222 34.0593 45.1259 33.7743C45.4296 33.4783 45.7571 33.3303 46.1082 33.3303C46.4642 33.3303 46.794 33.4783 47.0977 33.7743C47.4014 34.0593 47.6648 34.4594 47.8879 34.9746C48.1109 35.4899 48.2841 36.0983 48.4075 36.7998C48.5356 37.5014 48.5997 38.2633 48.5997 39.0855C48.5997 39.9076 48.5356 40.675 48.4075 41.3875C48.2841 42.0891 48.1109 42.6975 47.8879 43.2127C47.6696 43.7279 47.4062 44.1335 47.0977 44.4295C46.794 44.7145 46.4642 44.857 46.1082 44.857Z" fill="white"/>
<path d="M54.7181 33.6099V44.5775H54.0347V35.024H51.4579V44.5775H50.7745V33.6099H54.7181Z" fill="white"/>
<path d="M55.8074 33.6099H57.3094C57.6321 33.6099 57.8979 33.714 58.1067 33.9223C58.3203 34.1306 58.4887 34.3937 58.6121 34.7116C58.7402 35.0295 58.828 35.3857 58.8755 35.7804C58.9277 36.175 58.9538 36.5587 58.9538 36.9314C58.9538 37.4795 58.9135 37.9618 58.8328 38.3784C58.7521 38.795 58.6406 39.1458 58.4982 39.4308C58.3559 39.7048 58.185 39.9131 57.9857 40.0556C57.7911 40.1981 57.5776 40.2694 57.345 40.2694H56.4837V44.5775H55.8074V33.6099ZM57.3379 38.921C57.6321 38.921 57.8576 38.7511 58.0142 38.4113C58.1755 38.0605 58.2562 37.5782 58.2562 36.9643C58.2562 36.3394 58.1731 35.8516 58.007 35.5008C57.8457 35.1391 57.6227 34.9582 57.3379 34.9582H56.4837V38.921H57.3379Z" fill="white"/>
<path d="M62.0691 43.3771C62.3301 43.3771 62.5698 43.273 62.7881 43.0647C63.0064 42.8455 63.1938 42.5495 63.3504 42.1768C63.507 41.7931 63.6281 41.3382 63.7135 40.812C63.8036 40.2749 63.8487 39.6939 63.8487 39.069C63.8487 38.4222 63.806 37.8358 63.7206 37.3096C63.6352 36.7834 63.5142 36.334 63.3576 35.9612C63.2009 35.5776 63.0135 35.2816 62.7952 35.0733C62.5769 34.865 62.3349 34.7609 62.0691 34.7609C61.8034 34.7609 61.5613 34.865 61.343 35.0733C61.1247 35.2816 60.9373 35.5776 60.7807 35.9612C60.6241 36.334 60.5031 36.7834 60.4176 37.3096C60.3322 37.8358 60.2895 38.4222 60.2895 39.069C60.2895 39.6939 60.3322 40.2749 60.4176 40.812C60.5078 41.3382 60.6312 41.7931 60.7878 42.1768C60.9444 42.5495 61.1319 42.8455 61.3502 43.0647C61.5685 43.273 61.8081 43.3771 62.0691 43.3771ZM62.0691 44.857C61.7132 44.857 61.381 44.7145 61.0725 44.4295C60.7688 44.1335 60.5054 43.7279 60.2824 43.2127C60.0641 42.6975 59.8909 42.0891 59.7627 41.3875C59.6394 40.675 59.5777 39.9076 59.5777 39.0855C59.5777 38.2633 59.6417 37.5014 59.7699 36.7998C59.898 36.0983 60.0736 35.4899 60.2966 34.9746C60.5197 34.4594 60.7831 34.0593 61.0868 33.7743C61.3905 33.4783 61.7179 33.3303 62.0691 33.3303C62.425 33.3303 62.7549 33.4783 63.0586 33.7743C63.3623 34.0593 63.6257 34.4594 63.8487 34.9746C64.0718 35.4899 64.245 36.0983 64.3684 36.7998C64.4965 37.5014 64.5606 38.2633 64.5606 39.0855C64.5606 39.9076 64.4965 40.675 64.3684 41.3875C64.245 42.0891 64.0718 42.6975 63.8487 43.2127C63.6304 43.7279 63.367 44.1335 63.0586 44.4295C62.7549 44.7145 62.425 44.857 62.0691 44.857Z" fill="white"/>
<path d="M68.1401 37.178C68.0167 37.6713 67.9028 38.0495 67.7984 38.3126C67.6987 38.5648 67.5801 38.7511 67.4425 38.8717C67.6987 39.2663 67.9645 39.9295 68.2397 40.8613C68.515 41.7931 68.8116 43.0318 69.1296 44.5775H68.3892C68.2848 44.0952 68.197 43.7005 68.1259 43.3936C68.0547 43.0757 67.9882 42.7962 67.9265 42.555C67.8648 42.3029 67.8008 42.0562 67.7343 41.815C67.6679 41.5739 67.5849 41.2889 67.4852 40.96C67.3333 40.4557 67.191 40.1049 67.0581 39.9076C66.93 39.7103 66.7805 39.6116 66.6096 39.6116H66.1327V44.5775H65.4493V33.6099H66.1327V38.1975H66.695C66.8706 38.1975 67.0154 38.1153 67.1293 37.9509C67.2432 37.7864 67.3476 37.5124 67.4425 37.1287L68.2896 33.6099H69.037L68.1401 37.178Z" fill="white"/>
<path d="M71.7596 43.3771C72.0207 43.3771 72.2603 43.273 72.4786 43.0647C72.6969 42.8455 72.8844 42.5495 73.041 42.1768C73.1976 41.7931 73.3186 41.3382 73.404 40.812C73.4942 40.2749 73.5393 39.6939 73.5393 39.069C73.5393 38.4222 73.4965 37.8358 73.4111 37.3096C73.3257 36.7834 73.2047 36.334 73.0481 35.9612C72.8915 35.5776 72.704 35.2816 72.4857 35.0733C72.2674 34.865 72.0254 34.7609 71.7596 34.7609C71.4939 34.7609 71.2519 34.865 71.0336 35.0733C70.8153 35.2816 70.6278 35.5776 70.4712 35.9612C70.3146 36.334 70.1936 36.7834 70.1082 37.3096C70.0227 37.8358 69.98 38.4222 69.98 39.069C69.98 39.6939 70.0227 40.2749 70.1082 40.812C70.1983 41.3382 70.3217 41.7931 70.4783 42.1768C70.6349 42.5495 70.8224 42.8455 71.0407 43.0647C71.259 43.273 71.4986 43.3771 71.7596 43.3771ZM71.7596 44.857C71.4037 44.857 71.0715 44.7145 70.7631 44.4295C70.4593 44.1335 70.196 43.7279 69.9729 43.2127C69.7546 42.6975 69.5814 42.0891 69.4533 41.3875C69.3299 40.675 69.2682 39.9076 69.2682 39.0855C69.2682 38.2633 69.3323 37.5014 69.4604 36.7998C69.5885 36.0983 69.7641 35.4899 69.9872 34.9746C70.2102 34.4594 70.4736 34.0593 70.7773 33.7743C71.081 33.4783 71.4085 33.3303 71.7596 33.3303C72.1156 33.3303 72.4454 33.4783 72.7491 33.7743C73.0528 34.0593 73.3162 34.4594 73.5393 34.9746C73.7623 35.4899 73.9355 36.0983 74.0589 36.7998C74.187 37.5014 74.2511 38.2633 74.2511 39.0855C74.2511 39.9076 74.187 40.675 74.0589 41.3875C73.9355 42.0891 73.7623 42.6975 73.5393 43.2127C73.321 43.7279 73.0576 44.1335 72.7491 44.4295C72.4454 44.7145 72.1156 44.857 71.7596 44.857Z" fill="white"/>
<path d="M75.1398 33.6099H75.8232V38.1975H78.4215V33.6099H79.1048V44.5775H78.4215V39.6116H75.8232V44.5775H75.1398V33.6099Z" fill="white"/>
<path d="M83.9097 36.471C83.7483 35.9338 83.5419 35.5173 83.2903 35.2213C83.0388 34.9144 82.7707 34.7609 82.486 34.7609C82.2202 34.7609 81.9782 34.865 81.7599 35.0733C81.5416 35.2816 81.3541 35.5776 81.1975 35.9612C81.0457 36.334 80.927 36.7889 80.8416 37.326C80.7562 37.8522 80.7135 38.4442 80.7135 39.1019C80.7135 39.7487 80.7538 40.3351 80.8345 40.8613C80.9199 41.3766 81.0385 41.8205 81.1904 42.1932C81.347 42.5659 81.5321 42.8564 81.7456 43.0647C81.9592 43.262 82.1989 43.3607 82.4646 43.3607C82.7399 43.3607 82.9914 43.2346 83.2192 42.9825C83.447 42.7304 83.6795 42.3138 83.9168 41.7328L84.3937 42.6536C84.3083 42.9496 84.1944 43.2346 84.052 43.5087C83.9097 43.7718 83.7507 44.002 83.5751 44.1993C83.3995 44.3966 83.2144 44.5501 83.0198 44.6597C82.83 44.7803 82.6449 44.8406 82.4646 44.8406C82.0992 44.8406 81.7646 44.7036 81.4609 44.4295C81.1572 44.1555 80.8962 43.7663 80.6779 43.262C80.4596 42.7578 80.2911 42.1549 80.1725 41.4533C80.0538 40.7517 79.9945 39.9789 79.9945 39.1348C79.9945 38.3017 80.0562 37.5288 80.1796 36.8163C80.303 36.1038 80.4738 35.4954 80.6921 34.9911C80.9152 34.4759 81.1785 34.0757 81.4823 33.7907C81.786 33.4948 82.1182 33.3468 82.4789 33.3468C82.6734 33.3468 82.8632 33.4016 83.0483 33.5112C83.2382 33.6099 83.4161 33.7524 83.5822 33.9387C83.7483 34.1251 83.9002 34.3553 84.0378 34.6293C84.1802 34.8924 84.2988 35.1884 84.3937 35.5173L83.9097 36.471Z" fill="white"/>
<path d="M88.7483 33.6099L86.9189 42.2919C86.8477 42.6427 86.7694 42.9715 86.684 43.2785C86.6033 43.5854 86.5107 43.8595 86.4063 44.1007C86.3067 44.3309 86.1928 44.5117 86.0646 44.6433C85.9365 44.7858 85.7894 44.857 85.6233 44.857C85.4525 44.857 85.2935 44.7913 85.1464 44.6597C85.004 44.5282 84.8782 44.3692 84.7691 44.1829L85.0681 42.999C85.144 43.1195 85.2247 43.2292 85.3101 43.3278C85.4003 43.4155 85.5023 43.4594 85.6162 43.4594C85.7016 43.4594 85.7775 43.4265 85.844 43.3607C85.9104 43.2949 85.9721 43.1908 86.0291 43.0483C86.0907 42.8948 86.1477 42.7085 86.1999 42.4892C86.2568 42.259 86.3185 41.985 86.385 41.667L84.5627 33.6099H85.3101L86.7267 40.0556L88.0436 33.6099H88.7483Z" fill="white"/>
<path d="M89.5189 34.5471C89.5237 34.2621 89.5569 34.0374 89.6186 33.8729C89.685 33.6976 89.7776 33.6099 89.8962 33.6099H92.5016V44.5775H91.8182V35.024H90.1738C90.1454 36.745 90.086 38.214 89.9959 39.4308C89.9057 40.6366 89.7823 41.6287 89.6257 42.407C89.4691 43.1743 89.2745 43.7389 89.042 44.1007C88.8142 44.4514 88.5437 44.6268 88.2305 44.6268H88.1308V43.1963C88.3586 43.1963 88.5532 43.0428 88.7145 42.7359C88.8806 42.418 89.0183 41.9137 89.1274 41.2231C89.2366 40.5325 89.322 39.639 89.3837 38.5428C89.4501 37.4466 89.4952 36.1147 89.5189 34.5471Z" fill="white"/>
<path d="M94.2658 43.2292H95.177C95.4902 43.2292 95.7346 43.0538 95.9102 42.703C96.0905 42.3522 96.1807 41.826 96.1807 41.1244C96.1807 40.4338 96.0905 39.9076 95.9102 39.5459C95.7346 39.1732 95.4902 38.9868 95.177 38.9868H94.2658V43.2292ZM94.2658 33.6099V37.6385H95.1912C95.7322 37.6385 96.1498 37.9454 96.4441 38.5593C96.7383 39.1622 96.8854 39.9953 96.8854 41.0586C96.8854 41.5081 96.8546 41.9466 96.7929 42.3741C96.7312 42.7907 96.6315 43.1634 96.4939 43.4923C96.361 43.8211 96.183 44.0842 95.96 44.2815C95.7417 44.4788 95.4736 44.5775 95.1556 44.5775H93.5824V33.6099H94.2658Z" fill="white"/>
<path d="M97.9862 34.9911H96.2849V33.6099H100.364V34.9911H98.6696V44.5775H97.9862V34.9911Z" fill="white"/>
<path d="M101.745 42.407L104.102 34.3005C104.253 33.7853 104.424 33.5276 104.614 33.5276C104.738 33.5276 104.837 33.6208 104.913 33.8072C104.989 33.9826 105.027 34.2237 105.027 34.5307V44.5775H104.358V35.7475L101.952 44.0513C101.895 44.2377 101.826 44.3857 101.745 44.4953C101.669 44.6049 101.589 44.6597 101.503 44.6597C101.371 44.6597 101.266 44.5665 101.19 44.3802C101.114 44.1829 101.076 43.9253 101.076 43.6074V33.6099H101.745V42.407Z" fill="white"/>
<path d="M106.109 33.6099H107.611C107.934 33.6099 108.2 33.714 108.408 33.9223C108.622 34.1306 108.791 34.3937 108.914 34.7116C109.042 35.0295 109.13 35.3857 109.177 35.7804C109.229 36.175 109.256 36.5587 109.256 36.9314C109.256 37.4795 109.215 37.9618 109.135 38.3784C109.054 38.795 108.942 39.1458 108.8 39.4308C108.658 39.7048 108.487 39.9131 108.287 40.0556C108.093 40.1981 107.879 40.2694 107.647 40.2694H106.785V44.5775H106.109V33.6099ZM107.64 38.921C107.934 38.921 108.159 38.7511 108.316 38.4113C108.477 38.0605 108.558 37.5782 108.558 36.9643C108.558 36.3394 108.475 35.8516 108.309 35.5008C108.147 35.1391 107.924 34.9582 107.64 34.9582H106.785V38.921H107.64Z" fill="white"/>
<path d="M112.371 43.3771C112.632 43.3771 112.872 43.273 113.09 43.0647C113.308 42.8455 113.496 42.5495 113.652 42.1768C113.809 41.7931 113.93 41.3382 114.015 40.812C114.105 40.2749 114.151 39.6939 114.151 39.069C114.151 38.4222 114.108 37.8358 114.022 37.3096C113.937 36.7834 113.816 36.334 113.659 35.9612C113.503 35.5776 113.315 35.2816 113.097 35.0733C112.879 34.865 112.637 34.7609 112.371 34.7609C112.105 34.7609 111.863 34.865 111.645 35.0733C111.427 35.2816 111.239 35.5776 111.082 35.9612C110.926 36.334 110.805 36.7834 110.719 37.3096C110.634 37.8358 110.591 38.4222 110.591 39.069C110.591 39.6939 110.634 40.2749 110.719 40.812C110.81 41.3382 110.933 41.7931 111.09 42.1768C111.246 42.5495 111.434 42.8455 111.652 43.0647C111.87 43.273 112.11 43.3771 112.371 43.3771ZM112.371 44.857C112.015 44.857 111.683 44.7145 111.374 44.4295C111.071 44.1335 110.807 43.7279 110.584 43.2127C110.366 42.6975 110.193 42.0891 110.065 41.3875C109.941 40.675 109.879 39.9076 109.879 39.0855C109.879 38.2633 109.944 37.5014 110.072 36.7998C110.2 36.0983 110.375 35.4899 110.598 34.9746C110.821 34.4594 111.085 34.0593 111.389 33.7743C111.692 33.4783 112.02 33.3303 112.371 33.3303C112.727 33.3303 113.057 33.4783 113.36 33.7743C113.664 34.0593 113.927 34.4594 114.151 34.9746C114.374 35.4899 114.547 36.0983 114.67 36.7998C114.798 37.5014 114.862 38.2633 114.862 39.0855C114.862 39.9076 114.798 40.675 114.67 41.3875C114.547 42.0891 114.374 42.6975 114.151 43.2127C113.932 43.7279 113.669 44.1335 113.36 44.4295C113.057 44.7145 112.727 44.857 112.371 44.857Z" fill="white"/>
<path d="M115.751 33.6099H117.36C117.607 33.6099 117.82 33.6866 118.001 33.8401C118.181 33.9826 118.33 34.1799 118.449 34.432C118.568 34.6841 118.655 34.9801 118.712 35.32C118.774 35.6598 118.805 36.0215 118.805 36.4052C118.805 36.756 118.779 37.0684 118.727 37.3425C118.674 37.6165 118.61 37.8577 118.534 38.066C118.458 38.2633 118.373 38.4222 118.278 38.5428C118.188 38.6634 118.105 38.7402 118.029 38.773C118.124 38.8059 118.231 38.8772 118.349 38.9868C118.468 39.0855 118.579 39.2389 118.684 39.4472C118.788 39.6555 118.876 39.9295 118.947 40.2694C119.018 40.5982 119.054 41.0093 119.054 41.5026C119.054 42.0946 119.007 42.5879 118.912 42.9825C118.822 43.3662 118.696 43.6786 118.534 43.9198C118.378 44.1609 118.19 44.3309 117.972 44.4295C117.754 44.5282 117.521 44.5775 117.274 44.5775H115.751V33.6099ZM117.239 43.2127C117.362 43.2127 117.49 43.1963 117.623 43.1634C117.756 43.1305 117.877 43.0538 117.986 42.9332C118.1 42.8126 118.193 42.6372 118.264 42.407C118.335 42.1658 118.371 41.837 118.371 41.4204C118.371 41.0258 118.335 40.7079 118.264 40.4667C118.197 40.2255 118.11 40.0337 118.001 39.8912C117.896 39.7487 117.78 39.6555 117.652 39.6116C117.524 39.5568 117.4 39.5294 117.282 39.5294H116.413V43.2127H117.239ZM117.26 38.1811C117.365 38.1811 117.469 38.1537 117.573 38.0989C117.678 38.0331 117.773 37.9344 117.858 37.8029C117.944 37.6713 118.012 37.5014 118.065 37.2931C118.117 37.0849 118.143 36.8327 118.143 36.5368C118.143 36.2079 118.117 35.9448 118.065 35.7475C118.012 35.5392 117.944 35.3802 117.858 35.2706C117.773 35.15 117.678 35.0733 117.573 35.0404C117.469 34.9966 117.365 34.9746 117.26 34.9746H116.413V38.1811H117.26Z" fill="white"/>
<path d="M122.509 41.5191H120.558L120.074 44.5775H119.355L121.085 34.3662C121.18 33.8072 121.344 33.5276 121.576 33.5276C121.79 33.5276 121.946 33.8181 122.046 34.3991L123.769 44.5775H123.007L122.509 41.5191ZM121.541 35.2542L120.765 40.1872H122.302L121.541 35.2542Z" fill="white"/>
<path d="M124.903 34.9911H123.201V33.6099H127.28V34.9911H125.586V44.5775H124.903V34.9911Z" fill="white"/>
<path d="M128.676 43.2292H129.587C129.901 43.2292 130.145 43.0538 130.321 42.703C130.501 42.3522 130.591 41.826 130.591 41.1244C130.591 40.4338 130.501 39.9076 130.321 39.5459C130.145 39.1732 129.901 38.9868 129.587 38.9868H128.676V43.2292ZM128.676 33.6099V37.6385H129.602C130.143 37.6385 130.56 37.9454 130.854 38.5593C131.149 39.1622 131.296 39.9953 131.296 41.0586C131.296 41.5081 131.265 41.9466 131.203 42.3741C131.142 42.7907 131.042 43.1634 130.904 43.4923C130.771 43.8211 130.593 44.0842 130.37 44.2815C130.152 44.4788 129.884 44.5775 129.566 44.5775H127.993V33.6099H128.676Z" fill="white"/>
<path d="M135.859 36.471C135.698 35.9338 135.491 35.5173 135.24 35.2213C134.988 34.9144 134.72 34.7609 134.435 34.7609C134.17 34.7609 133.927 34.865 133.709 35.0733C133.491 35.2816 133.303 35.5776 133.147 35.9612C132.995 36.334 132.876 36.7889 132.791 37.326C132.705 37.8522 132.663 38.4442 132.663 39.1019C132.663 39.7487 132.703 40.3351 132.784 40.8613C132.869 41.3766 132.988 41.8205 133.14 42.1932C133.296 42.5659 133.481 42.8564 133.695 43.0647C133.909 43.262 134.148 43.3607 134.414 43.3607C134.689 43.3607 134.941 43.2346 135.168 42.9825C135.396 42.7304 135.629 42.3138 135.866 41.7328L136.343 42.6536C136.258 42.9496 136.144 43.2346 136.001 43.5087C135.859 43.7718 135.7 44.002 135.524 44.1993C135.349 44.3966 135.164 44.5501 134.969 44.6597C134.779 44.7803 134.594 44.8406 134.414 44.8406C134.049 44.8406 133.714 44.7036 133.41 44.4295C133.107 44.1555 132.845 43.7663 132.627 43.262C132.409 42.7578 132.24 42.1549 132.122 41.4533C132.003 40.7517 131.944 39.9789 131.944 39.1348C131.944 38.3017 132.006 37.5288 132.129 36.8163C132.252 36.1038 132.423 35.4954 132.641 34.9911C132.864 34.4759 133.128 34.0757 133.432 33.7907C133.735 33.4948 134.067 33.3468 134.428 33.3468C134.623 33.3468 134.813 33.4016 134.998 33.5112C135.187 33.6099 135.365 33.7524 135.532 33.9387C135.698 34.1251 135.849 34.3553 135.987 34.6293C136.129 34.8924 136.248 35.1884 136.343 35.5173L135.859 36.471Z" fill="white"/>
<path d="M136.597 44.5775C136.683 44.0732 136.775 43.5745 136.875 43.0812C136.975 42.5879 137.074 42.1329 137.174 41.7164C137.274 41.2998 137.371 40.9271 137.466 40.5982C137.565 40.2694 137.656 40.0063 137.736 39.809C137.442 39.5568 137.217 39.1786 137.06 38.6744C136.908 38.1701 136.832 37.5562 136.832 36.8327C136.832 35.8461 136.975 35.0623 137.259 34.4813C137.549 33.9004 137.957 33.6099 138.484 33.6099H140V44.5775H139.338V40.0885H138.676C138.481 40.0885 138.311 40.3351 138.163 40.8284C138.021 41.3217 137.879 41.8918 137.736 42.5385C137.594 43.1743 137.456 43.854 137.323 44.5775H136.597ZM139.338 38.7566V34.9746H138.441C138.156 34.9746 137.933 35.1446 137.772 35.4844C137.611 35.8133 137.53 36.2791 137.53 36.8821C137.53 37.474 137.613 37.9344 137.779 38.2633C137.945 38.5922 138.171 38.7566 138.455 38.7566H139.338Z" fill="white"/>
</svg>
