<svg width="220" height="37" viewBox="0 0 220 37" fill="none" xmlns="http://www.w3.org/2000/svg">
<path d="M6.0049 0.0989305H7.70808V7.30107H6.0049V2.17152L1.70318 7.30107H0V0.0989305H1.70318V5.23342L6.0049 0.0989305Z" fill="white"/>
<path d="M11.9559 0.0989305L14.7834 5.61925L17.604 0.0989305H19.8054V7.30107H18.1089V4.92674L18.2772 1.75107L15.3825 7.30107H14.164L11.276 1.75602L11.4443 4.92674V7.30107H9.74786V0.0989305H11.9559Z" fill="white"/>
<path d="M27.5539 4.08583H23.5282V6.30187H28.2338V7.30107H21.825V0.0989305H28.1867V1.10802H23.5282V3.09652H27.5539V4.08583Z" fill="white"/>
<path d="M40.735 3.88797C40.735 4.59367 40.569 5.21364 40.2368 5.74786C39.9047 6.27879 39.429 6.6877 38.8097 6.9746C38.1948 7.2582 37.4857 7.4 36.6824 7.4C35.9329 7.4 35.2619 7.27469 34.6695 7.02406C34.0771 6.77344 33.6036 6.41399 33.2491 5.94572C32.8945 5.47745 32.6858 4.93168 32.623 4.30842H31.3978V7.30107H29.7013V0.0989305H31.3978V3.3389H32.6028C32.6297 2.67607 32.816 2.09073 33.1616 1.58289C33.5071 1.07175 33.9829 0.680971 34.5887 0.410562C35.1991 0.136854 35.8925 0 36.6689 0C37.4678 0 38.1746 0.1418 38.7895 0.425401C39.4088 0.705704 39.8868 1.11132 40.2234 1.64225C40.56 2.16988 40.7305 2.78489 40.735 3.4873V3.88797ZM39.0318 3.51203C39.0318 2.71399 38.8254 2.10227 38.4125 1.67687C38.0041 1.25147 37.4229 1.03877 36.6689 1.03877C35.9329 1.03877 35.3562 1.25147 34.9388 1.67687C34.5259 2.09898 34.315 2.6975 34.306 3.47246V3.88797C34.306 4.67941 34.5147 5.29113 34.9321 5.72313C35.3539 6.15512 35.9374 6.37112 36.6824 6.37112C37.4364 6.37112 38.0153 6.16007 38.4192 5.73797C38.8276 5.31586 39.0318 4.6992 39.0318 3.88797V3.51203Z" fill="white"/>
<path d="M49.1297 1.10802H46.0734V7.30107H44.3837V1.10802H41.3543V0.0989305H49.1297V1.10802Z" fill="white"/>
<path d="M57.713 4.95642C57.6142 5.72478 57.2283 6.32496 56.5551 6.75695C55.8819 7.18565 54.9865 7.4 53.869 7.4C53.0881 7.4 52.3992 7.2648 51.8023 6.99439C51.2099 6.72068 50.7521 6.3332 50.429 5.83195C50.1059 5.3307 49.9376 4.74866 49.9241 4.08583V3.4131C49.9241 2.73378 50.0879 2.13525 50.4155 1.61751C50.7432 1.09978 51.2122 0.700758 51.8225 0.420455C52.4374 0.140152 53.1465 0 53.9498 0C55.0314 0 55.9021 0.215998 56.5618 0.647995C57.2215 1.07999 57.6053 1.69006 57.713 2.47821H56.0165C55.9357 1.96047 55.7293 1.58783 55.3972 1.36029C55.0696 1.12946 54.5871 1.01404 53.9498 1.01404C53.2093 1.01404 52.6393 1.21355 52.2399 1.61257C51.845 2.00829 51.643 2.59033 51.634 3.35869V3.99679C51.634 4.77504 51.8225 5.36863 52.1995 5.77754C52.581 6.18645 53.1375 6.39091 53.869 6.39091C54.5377 6.39091 55.0404 6.28044 55.377 6.05949C55.7136 5.83855 55.9268 5.47086 56.0165 4.95642H57.713Z" fill="white"/>
<path d="M64.0747 7.30107V4.61016H62.1763L60.2846 7.30107H58.4602L60.6481 4.23917C59.5082 3.84345 58.9382 3.19545 58.9382 2.29519C58.9382 1.60597 59.2456 1.0701 59.8605 0.687567C60.4798 0.301738 61.3415 0.105526 62.4455 0.0989305H65.7778V7.30107H64.0747ZM60.6346 2.3496C60.6346 2.75521 60.7895 3.07179 61.0991 3.29933C61.4088 3.52687 61.8733 3.64064 62.4927 3.64064H64.0747V1.10802H62.4927C61.8643 1.10802 61.3976 1.21849 61.0924 1.43944C60.7872 1.66038 60.6346 1.96377 60.6346 2.3496Z" fill="white"/>
<path d="M78.9927 7.30107H77.2962V1.10802H72.981V7.30107H71.2846V0.0989305H78.9927V7.30107Z" fill="white"/>
<path d="M82.7558 4.625V7.30107H81.0526V0.0989305H84.8023C85.8974 0.0989305 86.7658 0.308333 87.4076 0.727139C88.0539 1.14594 88.377 1.69996 88.377 2.38917C88.377 3.09488 88.0606 3.64394 87.4278 4.03636C86.7995 4.42879 85.9176 4.625 84.7821 4.625H82.7558ZM82.7558 3.62086H84.8023C85.4082 3.62086 85.8705 3.51698 86.1891 3.30922C86.5078 3.09817 86.6671 2.79479 86.6671 2.39906C86.6671 2.00994 86.5055 1.69996 86.1824 1.46912C85.8592 1.23498 85.4149 1.11462 84.8495 1.10802H82.7558V3.62086Z" fill="white"/>
<path d="M97.694 3.88797C97.694 4.59367 97.5279 5.21364 97.1958 5.74786C96.8637 6.27879 96.388 6.6877 95.7687 6.9746C95.1538 7.2582 94.4447 7.4 93.6414 7.4C92.847 7.4 92.1379 7.2582 91.5141 6.9746C90.8947 6.6877 90.4145 6.28044 90.0734 5.75281C89.7368 5.22518 89.5663 4.61676 89.5618 3.92754V3.52193C89.5618 2.81952 89.7301 2.19955 90.0667 1.66203C90.4078 1.12451 90.8858 0.713948 91.5006 0.430348C92.12 0.143449 92.8291 0 93.6279 0C94.4268 0 95.1336 0.1418 95.7485 0.425401C96.3678 0.705704 96.8458 1.11132 97.1824 1.64225C97.519 2.16988 97.6895 2.78489 97.694 3.4873V3.88797ZM95.9908 3.51203C95.9908 2.71399 95.7844 2.10227 95.3715 1.67687C94.9631 1.25147 94.3819 1.03877 93.6279 1.03877C92.8919 1.03877 92.3152 1.25147 91.8978 1.67687C91.4849 2.09898 91.274 2.6975 91.265 3.47246V3.88797C91.265 4.67941 91.4737 5.29113 91.8911 5.72313C92.3129 6.15512 92.8964 6.37112 93.6414 6.37112C94.3954 6.37112 94.9743 6.16007 95.3782 5.73797C95.7866 5.31586 95.9908 4.6992 95.9908 3.88797V3.51203Z" fill="white"/>
<path d="M105.894 1.10802H102.837V7.30107H101.147V1.10802H98.1181V0.0989305H105.894V1.10802Z" fill="white"/>
<path d="M113.191 0.0989305H114.894V7.30107H113.191V2.17152L108.889 7.30107H107.186V0.0989305H108.889V5.23342L113.191 0.0989305Z" fill="white"/>
<path d="M116.934 7.30107V0.0989305H120.293C121.402 0.0989305 122.245 0.262166 122.824 0.588636C123.403 0.915107 123.693 1.40152 123.693 2.04786C123.693 2.37763 123.572 2.67442 123.329 2.93824C123.087 3.20205 122.732 3.40651 122.266 3.5516C122.795 3.65713 123.204 3.85664 123.491 4.15013C123.783 4.44033 123.928 4.78988 123.928 5.1988C123.928 5.87482 123.632 6.39421 123.04 6.75695C122.452 7.1197 121.608 7.30107 120.509 7.30107H116.934ZM118.637 4.0512V6.30187H120.529C121.063 6.30187 121.48 6.20459 121.781 6.01003C122.082 5.81546 122.232 5.54505 122.232 5.1988C122.232 4.45022 121.711 4.06769 120.67 4.0512H118.637ZM118.637 3.13115H120.307C120.836 3.13115 121.249 3.04376 121.545 2.86898C121.846 2.69091 121.996 2.44029 121.996 2.11711C121.996 1.76096 121.857 1.50374 121.579 1.34545C121.305 1.18717 120.877 1.10802 120.293 1.10802H118.637V3.13115Z" fill="white"/>
<path d="M133.454 3.88797C133.454 4.59367 133.288 5.21364 132.956 5.74786C132.624 6.27879 132.148 6.6877 131.529 6.9746C130.914 7.2582 130.205 7.4 129.401 7.4C128.607 7.4 127.898 7.2582 127.274 6.9746C126.655 6.6877 126.175 6.28044 125.834 5.75281C125.497 5.22518 125.326 4.61676 125.322 3.92754V3.52193C125.322 2.81952 125.49 2.19955 125.827 1.66203C126.168 1.12451 126.646 0.713948 127.261 0.430348C127.88 0.143449 128.589 0 129.388 0C130.187 0 130.894 0.1418 131.509 0.425401C132.128 0.705704 132.606 1.11132 132.942 1.64225C133.279 2.16988 133.45 2.78489 133.454 3.4873V3.88797ZM131.751 3.51203C131.751 2.71399 131.544 2.10227 131.132 1.67687C130.723 1.25147 130.142 1.03877 129.388 1.03877C128.652 1.03877 128.075 1.25147 127.658 1.67687C127.245 2.09898 127.034 2.6975 127.025 3.47246V3.88797C127.025 4.67941 127.234 5.29113 127.651 5.72313C128.073 6.15512 128.656 6.37112 129.401 6.37112C130.155 6.37112 130.734 6.16007 131.138 5.73797C131.547 5.31586 131.751 4.6992 131.751 3.88797V3.51203Z" fill="white"/>
<path d="M142.906 7.30107H141.209V1.10802H136.894V7.30107H135.198V0.0989305H142.906V7.30107Z" fill="white"/>
<path d="M152.788 3.88797C152.788 4.59367 152.622 5.21364 152.29 5.74786C151.958 6.27879 151.482 6.6877 150.863 6.9746C150.248 7.2582 149.539 7.4 148.736 7.4C147.941 7.4 147.232 7.2582 146.608 6.9746C145.989 6.6877 145.509 6.28044 145.168 5.75281C144.831 5.22518 144.661 4.61676 144.656 3.92754V3.52193C144.656 2.81952 144.824 2.19955 145.161 1.66203C145.502 1.12451 145.98 0.713948 146.595 0.430348C147.214 0.143449 147.923 0 148.722 0C149.521 0 150.228 0.1418 150.843 0.425401C151.462 0.705704 151.94 1.11132 152.277 1.64225C152.613 2.16988 152.784 2.78489 152.788 3.4873V3.88797ZM151.085 3.51203C151.085 2.71399 150.879 2.10227 150.466 1.67687C150.057 1.25147 149.476 1.03877 148.722 1.03877C147.986 1.03877 147.409 1.25147 146.992 1.67687C146.579 2.09898 146.368 2.6975 146.359 3.47246V3.88797C146.359 4.67941 146.568 5.29113 146.985 5.72313C147.407 6.15512 147.991 6.37112 148.736 6.37112C149.49 6.37112 150.069 6.16007 150.472 5.73797C150.881 5.31586 151.085 4.6992 151.085 3.88797V3.51203Z" fill="white"/>
<path d="M157.386 4.21444H156.228V7.30107H154.532V0.0989305H156.228V3.1262H157.164L160.045 0.0989305H162.132L158.766 3.54666L162.428 7.30107H160.382L157.386 4.21444Z" fill="white"/>
<path d="M168.857 5.6242H165.061L164.266 7.30107H162.496L166.198 0.0989305H167.726L171.436 7.30107H169.659L168.857 5.6242ZM165.539 4.61511H168.379L166.959 1.62741L165.539 4.61511Z" fill="white"/>
<path d="M177.454 2.0627C177.454 1.73953 177.288 1.48231 176.956 1.29104C176.624 1.09978 176.173 1.00414 175.603 1.00414C175.114 1.00414 174.705 1.09978 174.378 1.29104C174.05 1.47901 173.886 1.72304 173.886 2.02313H172.19C172.19 1.6307 172.338 1.28115 172.634 0.974465C172.93 0.667781 173.341 0.430348 173.866 0.262166C174.391 0.0906863 174.97 0.00494652 175.603 0.00494652C176.725 0.00494652 177.595 0.18467 178.215 0.544118C178.839 0.903565 179.151 1.40646 179.151 2.05281C179.151 2.37928 179.016 2.67937 178.747 2.95307C178.477 3.22678 178.1 3.44278 177.616 3.60107C178.163 3.73957 178.581 3.95062 178.868 4.23422C179.16 4.51453 179.305 4.86408 179.305 5.28289C179.305 5.92923 178.969 6.44367 178.296 6.8262C177.622 7.20544 176.725 7.39505 175.603 7.39505C174.912 7.39505 174.286 7.30437 173.725 7.12299C173.168 6.94162 172.748 6.6943 172.466 6.38102C172.187 6.06774 172.048 5.70829 172.048 5.30267H173.745C173.745 5.61266 173.92 5.87482 174.27 6.08917C174.62 6.30022 175.064 6.40575 175.603 6.40575C176.204 6.40575 176.687 6.30187 177.05 6.09412C177.418 5.88636 177.602 5.61595 177.602 5.28289C177.602 4.87727 177.441 4.58378 177.118 4.40241C176.799 4.21774 176.33 4.1254 175.711 4.1254H174.559V3.1361H175.65C176.853 3.1361 177.454 2.7783 177.454 2.0627Z" fill="white"/>
<path d="M186.374 5.6242H182.577L181.783 7.30107H180.012L183.715 0.0989305H185.243L188.952 7.30107H187.175L186.374 5.6242ZM183.055 4.61511H185.896L184.476 1.62741L183.055 4.61511Z" fill="white"/>
<path d="M197.852 7.30107H196.155V4.10067H191.773V7.30107H190.07V0.0989305H191.773V3.09652H196.155V0.0989305H197.852V7.30107Z" fill="white"/>
<path d="M205.876 0.0989305H207.58V7.30107H205.876V2.17152L201.575 7.30107H199.871V0.0989305H201.575V5.23342L205.876 0.0989305Z" fill="white"/>
<path d="M214.453 7.30107V4.61016H212.554L210.663 7.30107H208.838L211.026 4.23917C209.886 3.84345 209.316 3.19545 209.316 2.29519C209.316 1.60597 209.624 1.0701 210.239 0.687567C210.858 0.301738 211.72 0.105526 212.824 0.0989305H216.156V7.30107H214.453ZM211.013 2.3496C211.013 2.75521 211.168 3.07179 211.477 3.29933C211.787 3.52687 212.252 3.64064 212.871 3.64064H214.453V1.10802H212.871C212.243 1.10802 211.776 1.21849 211.471 1.43944C211.165 1.66038 211.013 1.96377 211.013 2.3496Z" fill="white"/>
<path d="M219.044 6.03476C219.349 6.03476 219.585 6.09906 219.751 6.22767C219.917 6.35299 220 6.51127 220 6.70254C220 6.89051 219.917 7.04715 219.751 7.17246C219.585 7.29447 219.349 7.35548 219.044 7.35548C218.752 7.35548 218.521 7.29447 218.351 7.17246C218.18 7.05045 218.095 6.89381 218.095 6.70254C218.095 6.51127 218.178 6.35299 218.344 6.22767C218.51 6.09906 218.743 6.03476 219.044 6.03476Z" fill="white"/>
<path d="M6.77606 17.6192H5.28473V11.3046H1.49132V17.6192H0V10.2757H6.77606V17.6192Z" fill="white"/>
<path d="M13.6231 14.3408H10.0842V16.6004H14.2208V17.6192H8.58695V10.2757H14.1794V11.3046H10.0842V13.3321H13.6231V14.3408Z" fill="white"/>
<path d="M16.9372 14.8906V17.6192H15.4399V10.2757H18.7362C19.6989 10.2757 20.4623 10.4892 21.0265 10.9162C21.5946 11.3432 21.8787 11.9081 21.8787 12.6109C21.8787 13.3304 21.6005 13.8903 21.0442 14.2904C20.4919 14.6905 19.7167 14.8906 18.7185 14.8906H16.9372ZM16.9372 13.8667H18.7362C19.2689 13.8667 19.6752 13.7608 19.9553 13.549C20.2355 13.3338 20.3755 13.0245 20.3755 12.621C20.3755 12.2242 20.2335 11.9081 19.9494 11.6728C19.6654 11.434 19.2748 11.3113 18.7777 11.3046H16.9372V13.8667Z" fill="white"/>
<path d="M28.2286 14.3408H24.6897V16.6004H28.8264V17.6192H23.1925V10.2757H28.7849V11.3046H24.6897V13.3321H28.2286V14.3408Z" fill="white"/>
<path d="M37.9696 19.4248H36.5493V17.6192H30.874V19.4248H29.43L29.3826 16.6004H30.075C30.4183 16.3179 30.6925 15.9077 30.8976 15.3697C31.1028 14.8284 31.235 14.2164 31.2941 13.5339L31.519 10.2757H36.9517V16.6004H38.0465L37.9696 19.4248ZM31.7676 16.6004H35.4604V11.3046H32.9453L32.8032 13.3725C32.6967 14.7544 32.3515 15.8304 31.7676 16.6004Z" fill="white"/>
<path d="M49.0066 17.6192H47.5153V11.3046H43.7219V17.6192H42.2305V10.2757H49.0066V17.6192Z" fill="white"/>
<path d="M52.3147 14.8906V17.6192H50.8175V10.2757H54.1138C55.0764 10.2757 55.8399 10.4892 56.404 10.9162C56.9722 11.3432 57.2562 11.9081 57.2562 12.6109C57.2562 13.3304 56.9781 13.8903 56.4218 14.2904C55.8694 14.6905 55.0942 14.8906 54.096 14.8906H52.3147ZM52.3147 13.8667H54.1138C54.6464 13.8667 55.0528 13.7608 55.3329 13.549C55.613 13.3338 55.7531 13.0245 55.7531 12.621C55.7531 12.2242 55.611 11.9081 55.327 11.6728C55.0429 11.434 54.6523 11.3113 54.1552 11.3046H52.3147V13.8667Z" fill="white"/>
<path d="M63.8488 10.2757H65.3461V17.6192H63.8488V12.389L60.0672 17.6192H58.57V10.2757H60.0672V15.511L63.8488 10.2757Z" fill="white"/>
<path d="M69.0803 10.2757L71.5658 15.9044L74.0455 10.2757H75.9806V17.6192H74.4893V15.1983L74.6373 11.9602L72.0925 17.6192H71.0214L68.4826 11.9653L68.6305 15.1983V17.6192H67.1392V10.2757H69.0803Z" fill="white"/>
<path d="M82.7922 14.3408H79.2533V16.6004H83.3899V17.6192H77.756V10.2757H83.3485V11.3046H79.2533V13.3321H82.7922V14.3408Z" fill="white"/>
<path d="M91.4502 17.6192H89.9588V14.356H86.1063V17.6192H84.609V10.2757H86.1063V13.3321H89.9588V10.2757H91.4502V17.6192Z" fill="white"/>
<path d="M98.2617 14.3408H94.7228V16.6004H98.8594V17.6192H93.2256V10.2757H98.818V11.3046H94.7228V13.3321H98.2617V14.3408Z" fill="white"/>
<path d="M106.92 17.6192H105.428V14.356H101.576V17.6192H100.079V10.2757H101.576V13.3321H105.428V10.2757H106.92V17.6192Z" fill="white"/>
<path d="M113.974 10.2757H115.471V17.6192H113.974V12.389L110.192 17.6192H108.695V10.2757H110.192V15.511L113.974 10.2757Z" fill="white"/>
<path d="M122.3 14.3408H118.762V16.6004H122.898V17.6192H117.264V10.2757H122.857V11.3046H118.762V13.3321H122.3V14.3408Z" fill="white"/>
<path d="M126.058 10.2757L128.544 15.9044L131.024 10.2757H132.959V17.6192H131.467V15.1983L131.615 11.9602L129.071 17.6192H127.999L125.461 11.9653L125.609 15.1983V17.6192H124.117V10.2757H126.058Z" fill="white"/>
<path d="M144.593 17.6192H143.102V14.356H139.249V17.6192H137.752V10.2757H139.249V13.3321H143.102V10.2757H144.593V17.6192Z" fill="white"/>
<path d="M151.405 14.3408H147.866V16.6004H152.003V17.6192H146.369V10.2757H151.961V11.3046H147.866V13.3321H151.405V14.3408Z" fill="white"/>
<path d="M160.098 14.1391C160.098 14.8586 159.952 15.4908 159.661 16.0355C159.369 16.5768 158.95 16.9938 158.406 17.2863C157.865 17.5755 157.242 17.7201 156.536 17.7201C155.838 17.7201 155.214 17.5755 154.666 17.2863C154.121 16.9938 153.699 16.5785 153.399 16.0405C153.103 15.5025 152.954 14.8822 152.95 14.1794V13.7659C152.95 13.0497 153.098 12.4175 153.393 11.8695C153.693 11.3214 154.113 10.9028 154.654 10.6136C155.198 10.3211 155.822 10.1748 156.524 10.1748C157.226 10.1748 157.848 10.3194 158.388 10.6086C158.933 10.8944 159.353 11.3079 159.649 11.8493C159.945 12.3873 160.095 13.0144 160.098 13.7306V14.1391ZM158.601 13.7558C158.601 12.9421 158.42 12.3183 158.057 11.8846C157.698 11.4508 157.187 11.234 156.524 11.234C155.877 11.234 155.37 11.4508 155.003 11.8846C154.64 12.315 154.455 12.9253 154.447 13.7154V14.1391C154.447 14.9461 154.63 15.5698 154.997 16.0103C155.368 16.4507 155.881 16.671 156.536 16.671C157.199 16.671 157.708 16.4558 158.063 16.0254C158.422 15.595 158.601 14.9662 158.601 14.1391V13.7558Z" fill="white"/>
<path d="M167.034 11.3046H163.063V13.085H164.827C165.458 13.085 166.009 13.1774 166.478 13.3624C166.947 13.5473 167.305 13.8096 167.549 14.1492C167.794 14.4888 167.916 14.8822 167.916 15.3294C167.916 16.0153 167.642 16.5668 167.093 16.9837C166.549 17.4006 165.805 17.6125 164.862 17.6192H161.566V10.2757H167.034V11.3046ZM163.063 14.1088V16.6004H164.821C165.326 16.6004 165.719 16.4844 165.999 16.2524C166.283 16.017 166.425 15.706 166.425 15.3193C166.425 14.9494 166.287 14.6569 166.01 14.4417C165.734 14.2265 165.352 14.1156 164.862 14.1088H163.063Z" fill="white"/>
<path d="M172.094 12.9286L173.905 10.2757H175.633L173.029 13.9172L175.692 17.6192H173.946L172.094 14.9259L170.236 17.6192H168.496L171.165 13.9172L168.555 10.2757H170.283L172.094 12.9286Z" fill="white"/>
<path d="M183.522 14.1391C183.522 14.8586 183.376 15.4908 183.084 16.0355C182.792 16.5768 182.374 16.9938 181.829 17.2863C181.289 17.5755 180.665 17.7201 179.959 17.7201C179.261 17.7201 178.637 17.5755 178.089 17.2863C177.545 16.9938 177.122 16.5785 176.823 16.0405C176.527 15.5025 176.377 14.8822 176.373 14.1794V13.7659C176.373 13.0497 176.521 12.4175 176.817 11.8695C177.117 11.3214 177.537 10.9028 178.077 10.6136C178.622 10.3211 179.245 10.1748 179.947 10.1748C180.65 10.1748 181.271 10.3194 181.811 10.6086C182.356 10.8944 182.776 11.3079 183.072 11.8493C183.368 12.3873 183.518 13.0144 183.522 13.7306V14.1391ZM182.024 13.7558C182.024 12.9421 181.843 12.3183 181.48 11.8846C181.121 11.4508 180.61 11.234 179.947 11.234C179.3 11.234 178.793 11.4508 178.426 11.8846C178.063 12.315 177.878 12.9253 177.87 13.7154V14.1391C177.87 14.9461 178.054 15.5698 178.42 16.0103C178.791 16.4507 179.304 16.671 179.959 16.671C180.622 16.671 181.131 16.4558 181.486 16.0254C181.845 15.595 182.024 14.9662 182.024 14.1391V13.7558Z" fill="white"/>
<path d="M192.736 19.4248H191.316V17.6192H185.64V19.4248H184.196L184.149 16.6004H184.841C185.185 16.3179 185.459 15.9077 185.664 15.3697C185.869 14.8284 186.001 14.2164 186.061 13.5339L186.285 10.2757H191.718V16.6004H192.813L192.736 19.4248ZM186.534 16.6004H190.227V11.3046H187.712L187.57 13.3725C187.463 14.7544 187.118 15.8304 186.534 16.6004Z" fill="white"/>
<path d="M199.216 10.2757H200.713V17.6192H199.216V12.389L195.435 17.6192H193.937V10.2757H195.435V15.511L199.216 10.2757Z" fill="white"/>
<path d="M204.448 10.2757L206.933 15.9044L209.413 10.2757H211.348V17.6192H209.857V15.1983L210.005 11.9602L207.46 17.6192H206.389L203.85 11.9653L203.998 15.1983V17.6192H202.507V10.2757H204.448Z" fill="white"/>
<path d="M220 14.1391C220 14.8586 219.854 15.4908 219.562 16.0355C219.27 16.5768 218.852 16.9938 218.307 17.2863C217.767 17.5755 217.144 17.7201 216.437 17.7201C215.739 17.7201 215.116 17.5755 214.567 17.2863C214.023 16.9938 213.601 16.5785 213.301 16.0405C213.005 15.5025 212.855 14.8822 212.851 14.1794V13.7659C212.851 13.0497 212.999 12.4175 213.295 11.8695C213.595 11.3214 214.015 10.9028 214.555 10.6136C215.1 10.3211 215.723 10.1748 216.426 10.1748C217.128 10.1748 217.749 10.3194 218.29 10.6086C218.834 10.8944 219.254 11.3079 219.55 11.8493C219.846 12.3873 219.996 13.0144 220 13.7306V14.1391ZM218.503 13.7558C218.503 12.9421 218.321 12.3183 217.958 11.8846C217.599 11.4508 217.088 11.234 216.426 11.234C215.779 11.234 215.272 11.4508 214.905 11.8846C214.542 12.315 214.356 12.9253 214.348 13.7154V14.1391C214.348 14.9461 214.532 15.5698 214.899 16.0103C215.27 16.4507 215.782 16.671 216.437 16.671C217.1 16.671 217.609 16.4558 217.964 16.0254C218.323 15.595 218.503 14.9662 218.503 14.1391V13.7558Z" fill="white"/>
<path d="M9.5576 27.6463H7.45409V21.4574H2.10351V27.6463H0V20.449H9.5576V27.6463Z" fill="white"/>
<path d="M14.2237 24.972V27.6463H12.1119V20.449H16.7613C18.1191 20.449 19.1959 20.6582 19.9917 21.0768C20.793 21.4953 21.1937 22.0489 21.1937 22.7377C21.1937 23.4429 20.8013 23.9916 20.0167 24.3838C19.2376 24.7759 18.1441 24.972 16.7362 24.972H14.2237ZM14.2237 23.9685H16.7613C17.5125 23.9685 18.0857 23.8647 18.4808 23.6571C18.8759 23.4462 19.0735 23.143 19.0735 22.7476C19.0735 22.3587 18.8731 22.0489 18.4725 21.8182C18.0718 21.5843 17.5209 21.464 16.8197 21.4574H14.2237V23.9685Z" fill="white"/>
<path d="M32.7462 24.2355C32.7462 24.9407 32.5403 25.5603 32.1285 26.0941C31.7167 26.6247 31.1269 27.0333 30.3589 27.32C29.5965 27.6034 28.7173 27.7452 27.7212 27.7452C26.7362 27.7452 25.857 27.6034 25.0835 27.32C24.3155 27.0333 23.7201 26.6263 23.2972 26.0991C22.8798 25.5718 22.6683 24.9638 22.6628 24.275V23.8697C22.6628 23.1677 22.8715 22.5482 23.2888 22.011C23.7117 21.4739 24.3044 21.0636 25.0668 20.7802C25.8347 20.4935 26.714 20.3501 27.7045 20.3501C28.695 20.3501 29.5715 20.4918 30.3339 20.7752C31.1018 21.0553 31.6945 21.4607 32.1119 21.9912C32.5292 22.5185 32.7407 23.1331 32.7462 23.8351V24.2355ZM30.6344 23.8598C30.6344 23.0623 30.3784 22.451 29.8664 22.0258C29.36 21.6007 28.6394 21.3882 27.7045 21.3882C26.7919 21.3882 26.0768 21.6007 25.5593 22.0258C25.0473 22.4477 24.7858 23.0458 24.7746 23.8202V24.2355C24.7746 25.0264 25.0334 25.6377 25.5509 26.0694C26.074 26.5011 26.7974 26.717 27.7212 26.717C28.6561 26.717 29.374 26.5061 29.8748 26.0842C30.3812 25.6624 30.6344 25.0462 30.6344 24.2355V23.8598Z" fill="white"/>
<path d="M38.4474 24.5617H37.0117V27.6463H34.9082V20.449H37.0117V23.4742H38.172L41.7446 20.449H44.3322L40.1586 23.8944L44.6995 27.6463H42.1619L38.4474 24.5617Z" fill="white"/>
<path d="M55.3005 24.2355C55.3005 24.9407 55.0946 25.5603 54.6828 26.0941C54.271 26.6247 53.6811 27.0333 52.9132 27.32C52.1508 27.6034 51.2716 27.7452 50.2755 27.7452C49.2905 27.7452 48.4112 27.6034 47.6377 27.32C46.8698 27.0333 46.2743 26.6263 45.8514 26.0991C45.4341 25.5718 45.2226 24.9638 45.217 24.275V23.8697C45.217 23.1677 45.4257 22.5482 45.8431 22.011C46.266 21.4739 46.8587 21.0636 47.621 20.7802C48.389 20.4935 49.2682 20.3501 50.2588 20.3501C51.2493 20.3501 52.1258 20.4918 52.8881 20.7752C53.6561 21.0553 54.2487 21.4607 54.6661 21.9912C55.0835 22.5185 55.2949 23.1331 55.3005 23.8351V24.2355ZM53.1886 23.8598C53.1886 23.0623 52.9327 22.451 52.4207 22.0258C51.9143 21.6007 51.1937 21.3882 50.2588 21.3882C49.3461 21.3882 48.6311 21.6007 48.1135 22.0258C47.6016 22.4477 47.34 23.0458 47.3289 23.8202V24.2355C47.3289 25.0264 47.5876 25.6377 48.1052 26.0694C48.6283 26.5011 49.3517 26.717 50.2755 26.717C51.2103 26.717 51.9282 26.5061 52.429 26.0842C52.9354 25.6624 53.1886 25.0462 53.1886 24.2355V23.8598Z" fill="white"/>
<path d="M67.0534 27.6463H64.9499V24.448H59.5159V27.6463H57.404V20.449H59.5159V23.4446H64.9499V20.449H67.0534V27.6463Z" fill="white"/>
<path d="M78.8314 25.3032C78.709 26.0711 78.2304 26.6708 77.3957 27.1025C76.5609 27.5309 75.4507 27.7452 74.0651 27.7452C73.0968 27.7452 72.2426 27.61 71.5025 27.3398C70.7679 27.0663 70.2003 26.6791 69.7997 26.1782C69.399 25.6772 69.1903 25.0956 69.1736 24.4332V23.7609C69.1736 23.0821 69.3767 22.4839 69.783 21.9665C70.1892 21.4491 70.7707 21.0504 71.5275 20.7703C72.2899 20.4902 73.1692 20.3501 74.1653 20.3501C75.5064 20.3501 76.586 20.566 77.404 20.9977C78.222 21.4294 78.6978 22.039 78.8314 22.8267H76.7279C76.6277 22.3093 76.3717 21.9369 75.9599 21.7095C75.5537 21.4788 74.9555 21.3635 74.1653 21.3635C73.2471 21.3635 72.5403 21.5628 72.0451 21.9616C71.5554 22.357 71.305 22.9387 71.2938 23.7065V24.3442C71.2938 25.122 71.5275 25.7151 71.995 26.1238C72.468 26.5324 73.158 26.7367 74.0651 26.7367C74.8943 26.7367 75.5175 26.6263 75.9349 26.4055C76.3523 26.1847 76.6166 25.8173 76.7279 25.3032H78.8314Z" fill="white"/>
<path d="M85.1002 24.2108L87.5376 20.449H89.8831L85.6511 26.4204L85.2671 26.8702C84.7106 27.4568 83.8091 27.7501 82.5626 27.7501L81.6945 27.7204L81.7112 26.7318C81.8447 26.745 82.0812 26.7516 82.4207 26.7516C83.0217 26.7516 83.4446 26.6 83.6895 26.2968L84.1235 25.6888L79.9666 20.449H82.2704L85.1002 24.2108Z" fill="white"/>
<path d="M100.601 20.449V27.6463H98.4975V21.4574H94.7746L94.5576 24.2404C94.4741 25.1104 94.2933 25.786 94.015 26.2671C93.7423 26.745 93.3445 27.0943 92.8214 27.3151C92.2983 27.5359 91.5971 27.6463 90.7179 27.6463H90.1836V26.6478L90.5175 26.6329C91.0017 26.6066 91.3745 26.5061 91.6361 26.3314C91.9032 26.1567 92.1035 25.8931 92.2371 25.5405C92.3762 25.1846 92.4736 24.6622 92.5292 23.9735L92.7629 20.449H100.601Z" fill="white"/>
<path d="M105.225 23.2023H107.713C108.603 23.2023 109.38 23.293 110.042 23.4742C110.704 23.6555 111.208 23.9125 111.553 24.2454C111.898 24.5782 112.07 24.9638 112.07 25.4021C112.07 26.0743 111.683 26.6148 110.91 27.0234C110.142 27.4321 109.093 27.6397 107.763 27.6463H103.114V20.449H105.225V23.2023ZM105.225 24.2058V26.6478H107.705C108.417 26.6478 108.971 26.5341 109.366 26.3067C109.766 26.076 109.967 25.7712 109.967 25.3922C109.967 25.0297 109.772 24.743 109.382 24.5321C108.993 24.3212 108.453 24.2124 107.763 24.2058H105.225Z" fill="white"/>
<path d="M121.861 21.4574H118.072V27.6463H115.977V21.4574H112.22V20.449H121.861V21.4574Z" fill="white"/>
<path d="M130.91 20.449H133.022V27.6463H130.91V22.5202L125.576 27.6463H123.464V20.449H125.576V25.58L130.91 20.449Z" fill="white"/>
<path d="M137.663 24.972V27.6463H135.551V20.449H140.2C141.558 20.449 142.635 20.6582 143.431 21.0768C144.232 21.4953 144.633 22.0489 144.633 22.7377C144.633 23.4429 144.24 23.9916 143.456 24.3838C142.677 24.7759 141.583 24.972 140.175 24.972H137.663ZM137.663 23.9685H140.2C140.952 23.9685 141.525 23.8647 141.92 23.6571C142.315 23.4462 142.513 23.143 142.513 22.7476C142.513 22.3587 142.312 22.0489 141.912 21.8182C141.511 21.5843 140.96 21.464 140.259 21.4574H137.663V23.9685Z" fill="white"/>
<path d="M156.185 24.2355C156.185 24.9407 155.979 25.5603 155.568 26.0941C155.156 26.6247 154.566 27.0333 153.798 27.32C153.036 27.6034 152.156 27.7452 151.16 27.7452C150.175 27.7452 149.296 27.6034 148.523 27.32C147.755 27.0333 147.159 26.6263 146.736 26.0991C146.319 25.5718 146.107 24.9638 146.102 24.275V23.8697C146.102 23.1677 146.311 22.5482 146.728 22.011C147.151 21.4739 147.743 21.0636 148.506 20.7802C149.274 20.4935 150.153 20.3501 151.144 20.3501C152.134 20.3501 153.011 20.4918 153.773 20.7752C154.541 21.0553 155.134 21.4607 155.551 21.9912C155.968 22.5185 156.18 23.1331 156.185 23.8351V24.2355ZM154.073 23.8598C154.073 23.0623 153.817 22.451 153.306 22.0258C152.799 21.6007 152.078 21.3882 151.144 21.3882C150.231 21.3882 149.516 21.6007 148.998 22.0258C148.486 22.4477 148.225 23.0458 148.214 23.8202V24.2355C148.214 25.0264 148.472 25.6377 148.99 26.0694C149.513 26.5011 150.237 26.717 151.16 26.717C152.095 26.717 152.813 26.5061 153.314 26.0842C153.82 25.6624 154.073 25.0462 154.073 24.2355V23.8598Z" fill="white"/>
<path d="M158.289 27.6463V20.449H162.454C163.829 20.449 164.875 20.6121 165.593 20.9383C166.311 21.2646 166.669 21.7507 166.669 22.3966C166.669 22.7261 166.519 23.0227 166.219 23.2864C165.918 23.55 165.479 23.7543 164.9 23.8993C165.556 24.0048 166.063 24.2042 166.419 24.4975C166.781 24.7875 166.962 25.1368 166.962 25.5454C166.962 26.221 166.594 26.74 165.86 27.1025C165.131 27.465 164.085 27.6463 162.721 27.6463H158.289ZM160.401 24.3986V26.6478H162.746C163.408 26.6478 163.926 26.5505 164.299 26.3561C164.672 26.1617 164.858 25.8914 164.858 25.5454C164.858 24.7973 164.213 24.4151 162.922 24.3986H160.401ZM160.401 23.4792H162.471C163.127 23.4792 163.639 23.3918 164.007 23.2172C164.38 23.0392 164.566 22.7888 164.566 22.4658C164.566 22.1099 164.393 21.8528 164.048 21.6947C163.709 21.5365 163.178 21.4574 162.454 21.4574H160.401V23.4792Z" fill="white"/>
<path d="M175.876 25.9705H171.169L170.184 27.6463H167.988L172.579 20.449H174.474L179.073 27.6463H176.87L175.876 25.9705ZM171.761 24.9621H175.284L173.523 21.9764L171.761 24.9621Z" fill="white"/>
<path d="M188.239 21.4574H184.449V27.6463H182.354V21.4574H178.598V20.449H188.239V21.4574Z" fill="white"/>
<path d="M192.053 23.2023H194.541C195.431 23.2023 196.208 23.293 196.87 23.4742C197.532 23.6555 198.036 23.9125 198.381 24.2454C198.726 24.5782 198.898 24.9638 198.898 25.4021C198.898 26.0743 198.511 26.6148 197.738 27.0234C196.97 27.4321 195.921 27.6397 194.591 27.6463H189.942V20.449H192.053V23.2023ZM192.053 24.2058V26.6478H194.533C195.245 26.6478 195.799 26.5341 196.194 26.3067C196.594 26.076 196.795 25.7712 196.795 25.3922C196.795 25.0297 196.6 24.743 196.21 24.5321C195.821 24.3212 195.281 24.2124 194.591 24.2058H192.053Z" fill="white"/>
<path d="M210 25.3032C209.878 26.0711 209.399 26.6708 208.564 27.1025C207.73 27.5309 206.619 27.7452 205.234 27.7452C204.265 27.7452 203.411 27.61 202.671 27.3398C201.937 27.0663 201.369 26.6791 200.968 26.1782C200.568 25.6772 200.359 25.0956 200.342 24.4332V23.7609C200.342 23.0821 200.545 22.4839 200.952 21.9665C201.358 21.4491 201.939 21.0504 202.696 20.7703C203.459 20.4902 204.338 20.3501 205.334 20.3501C206.675 20.3501 207.755 20.566 208.573 20.9977C209.391 21.4294 209.866 22.039 210 22.8267H207.896C207.796 22.3093 207.54 21.9369 207.129 21.7095C206.722 21.4788 206.124 21.3635 205.334 21.3635C204.416 21.3635 203.709 21.5628 203.214 21.9616C202.724 22.357 202.474 22.9387 202.462 23.7065V24.3442C202.462 25.122 202.696 25.7151 203.164 26.1238C203.637 26.5324 204.327 26.7367 205.234 26.7367C206.063 26.7367 206.686 26.6263 207.103 26.4055C207.521 26.1847 207.785 25.8173 207.896 25.3032H210Z" fill="white"/>
<path d="M217.888 27.6463V24.9572H215.534L213.189 27.6463H210.927L213.639 24.5864C212.226 24.191 211.519 23.5434 211.519 22.6438C211.519 21.955 211.9 21.4195 212.663 21.0372C213.431 20.6516 214.499 20.4556 215.868 20.449H220V27.6463H217.888ZM213.623 22.6981C213.623 23.1035 213.815 23.4198 214.199 23.6472C214.583 23.8746 215.159 23.9883 215.927 23.9883H217.888V21.4574H215.927C215.147 21.4574 214.569 21.5678 214.19 21.7886C213.812 22.0094 213.623 22.3126 213.623 22.6981Z" fill="white"/>
<path d="M12.7461 33.6586C12.5845 34.2877 11.9529 34.7792 10.8513 35.1329C9.74962 35.4839 8.28443 35.6594 6.45568 35.6594C5.17777 35.6594 4.05041 35.5487 3.07361 35.3273C2.10416 35.1032 1.35503 34.7859 0.826239 34.3755C0.297446 33.965 0.022033 33.4884 0 32.9457V32.3948C0 31.8386 0.268069 31.3485 0.804206 30.9246C1.34034 30.5006 2.10783 30.1739 3.10666 29.9444C4.11284 29.7149 5.27324 29.6001 6.58788 29.6001C8.35787 29.6001 9.78267 29.777 10.8623 30.1307C11.9419 30.4844 12.5699 30.984 12.7461 31.6293H9.96996C9.83776 31.2054 9.49992 30.9003 8.95643 30.7139C8.4203 30.5249 7.63078 30.4304 6.58788 30.4304C5.37606 30.4304 4.44333 30.5938 3.78968 30.9205C3.14338 31.2445 2.81289 31.7211 2.7982 32.3503V32.8728C2.7982 33.51 3.10666 33.9961 3.72359 34.3309C4.34786 34.6657 5.25855 34.8332 6.45568 34.8332C7.54999 34.8332 8.37256 34.7427 8.92339 34.5618C9.47421 34.3809 9.82307 34.0798 9.96996 33.6586H12.7461Z" fill="white"/>
<path d="M28.0481 32.7837C28.0481 33.3615 27.7763 33.8692 27.2328 34.3066C26.6894 34.7413 25.9109 35.0762 24.8973 35.3111C23.8912 35.5433 22.7308 35.6594 21.4161 35.6594C20.1162 35.6594 18.9558 35.5433 17.9349 35.3111C16.9214 35.0762 16.1355 34.7427 15.5774 34.3107C15.0265 33.8786 14.7475 33.3804 14.7401 32.8161V32.484C14.7401 31.9088 15.0155 31.4012 15.5663 30.961C16.1245 30.5209 16.9067 30.1847 17.9129 29.9525C18.9264 29.7176 20.0868 29.6001 21.3941 29.6001C22.7014 29.6001 23.8581 29.7162 24.8643 29.9484C25.8778 30.1779 26.66 30.5101 27.2108 30.9448C27.7616 31.3769 28.0407 31.8804 28.0481 32.4556V32.7837ZM25.2609 32.4759C25.2609 31.8224 24.9231 31.3215 24.2474 30.9732C23.579 30.6248 22.6279 30.4507 21.3941 30.4507C20.1896 30.4507 19.2459 30.6248 18.5628 30.9732C17.8872 31.3188 17.542 31.8089 17.5273 32.4434V32.7837C17.5273 33.4317 17.8688 33.9326 18.5518 34.2864C19.2422 34.6401 20.197 34.817 21.4161 34.817C22.65 34.817 23.5974 34.6441 24.2584 34.2985C24.9267 33.9529 25.2609 33.4479 25.2609 32.7837V32.4759Z" fill="white"/>
<path d="M48.682 33.6586C48.5204 34.2877 47.8888 34.7792 46.7872 35.1329C45.6855 35.4839 44.2203 35.6594 42.3916 35.6594C41.1137 35.6594 39.9863 35.5487 39.0095 35.3273C38.0401 35.1032 37.2909 34.7859 36.7621 34.3755C36.2334 33.965 35.9579 33.4884 35.9359 32.9457V32.3948C35.9359 31.8386 36.204 31.3485 36.7401 30.9246C37.2762 30.5006 38.0437 30.1739 39.0426 29.9444C40.0487 29.7149 41.2091 29.6001 42.5238 29.6001C44.2938 29.6001 45.7186 29.777 46.7982 30.1307C47.8778 30.4844 48.5058 30.984 48.682 31.6293H45.9059C45.7737 31.2054 45.4358 30.9003 44.8923 30.7139C44.3562 30.5249 43.5667 30.4304 42.5238 30.4304C41.312 30.4304 40.3792 30.5938 39.7256 30.9205C39.0793 31.2445 38.7488 31.7211 38.7341 32.3503V32.8728C38.7341 33.51 39.0426 33.9961 39.6595 34.3309C40.2838 34.6657 41.1945 34.8332 42.3916 34.8332C43.4859 34.8332 44.3085 34.7427 44.8593 34.5618C45.4101 34.3809 45.759 34.0798 45.9059 33.6586H48.682Z" fill="white"/>
<path d="M63.8738 35.5784H61.0976V30.5074H54.0361V35.5784H51.2599V29.6811H63.8738V35.5784Z" fill="white"/>
<path d="M76.6199 32.9457H70.032V34.7603H77.7326V35.5784H67.2449V29.6811H77.6555V30.5074H70.032V32.1356H76.6199V32.9457Z" fill="white"/>
<path d="M79.98 29.6811H82.7672V34.7603H89.8287V29.6811H92.6159V34.7522H94.5548L94.3345 37.0001H91.7787V35.5784H79.98V29.6811Z" fill="white"/>
<path d="M106.684 29.6811H109.471V35.5784H106.684V31.3782L99.6445 35.5784H96.8573V29.6811H99.6445V33.8854L106.684 29.6811Z" fill="white"/>
<path d="M121.986 34.2054H115.773L114.473 35.5784H111.575L117.634 29.6811H120.135L126.205 35.5784H123.297L121.986 34.2054ZM116.555 33.3791H121.204L118.879 30.9327L116.555 33.3791Z" fill="white"/>
<path d="M140.846 29.6811V35.5784H138.07V30.5074H133.157L132.87 32.7877C132.76 33.5006 132.521 34.0541 132.154 34.4484C131.794 34.8399 131.269 35.1261 130.579 35.307C129.889 35.488 128.963 35.5784 127.803 35.5784H127.098V34.7603L127.538 34.7481C128.177 34.7265 128.669 34.6441 129.015 34.501C129.367 34.3579 129.631 34.1419 129.808 33.853C129.991 33.5613 130.12 33.1334 130.193 32.569L130.502 29.6811H140.846Z" fill="white"/>
<path d="M154.033 29.6811H156.82V35.5784H154.033V31.3782L146.993 35.5784H144.206V29.6811H146.993V33.8854L154.033 29.6811Z" fill="white"/>
<path d="M172.398 33.6586C172.236 34.2877 171.604 34.7792 170.503 35.1329C169.401 35.4839 167.936 35.6594 166.107 35.6594C164.829 35.6594 163.702 35.5487 162.725 35.3273C161.756 35.1032 161.007 34.7859 160.478 34.3755C159.949 33.965 159.674 33.4884 159.651 32.9457V32.3948C159.651 31.8386 159.92 31.3485 160.456 30.9246C160.992 30.5006 161.759 30.1739 162.758 29.9444C163.764 29.7149 164.925 29.6001 166.239 29.6001C168.009 29.6001 169.434 29.777 170.514 30.1307C171.593 30.4844 172.221 30.984 172.398 31.6293H169.621C169.489 31.2054 169.151 30.9003 168.608 30.7139C168.072 30.5249 167.282 30.4304 166.239 30.4304C165.028 30.4304 164.095 30.5938 163.441 30.9205C162.795 31.2445 162.464 31.7211 162.45 32.3503V32.8728C162.45 33.51 162.758 33.9961 163.375 34.3309C163.999 34.6657 164.91 34.8332 166.107 34.8332C167.201 34.8332 168.024 34.7427 168.575 34.5618C169.126 34.3809 169.475 34.0798 169.621 33.6586H172.398Z" fill="white"/>
<path d="M186.157 30.5074H181.156V35.5784H178.391V30.5074H173.433V29.6811H186.157V30.5074Z" fill="white"/>
<path d="M200.765 32.7837C200.765 33.3615 200.493 33.8692 199.95 34.3066C199.406 34.7413 198.628 35.0762 197.614 35.3111C196.608 35.5433 195.448 35.6594 194.133 35.6594C192.833 35.6594 191.673 35.5433 190.652 35.3111C189.638 35.0762 188.853 34.7427 188.294 34.3107C187.744 33.8786 187.465 33.3804 187.457 32.8161V32.484C187.457 31.9088 187.733 31.4012 188.283 30.961C188.842 30.5209 189.624 30.1847 190.63 29.9525C191.643 29.7176 192.804 29.6001 194.111 29.6001C195.418 29.6001 196.575 29.7162 197.581 29.9484C198.595 30.1779 199.377 30.5101 199.928 30.9448C200.479 31.3769 200.758 31.8804 200.765 32.4556V32.7837ZM197.978 32.4759C197.978 31.8224 197.64 31.3215 196.964 30.9732C196.296 30.6248 195.345 30.4507 194.111 30.4507C192.907 30.4507 191.963 30.6248 191.28 30.9732C190.604 31.3188 190.259 31.8089 190.244 32.4434V32.7837C190.244 33.4317 190.586 33.9326 191.269 34.2864C191.959 34.6401 192.914 34.817 194.133 34.817C195.367 34.817 196.314 34.6441 196.975 34.2985C197.644 33.9529 197.978 33.4479 197.978 32.7837V32.4759Z" fill="white"/>
<path d="M207.155 29.6811L211.782 34.2013L216.398 29.6811H220V35.5784H217.224V33.6343L217.499 31.0339L212.762 35.5784H210.768L206.042 31.038L206.317 33.6343V35.5784H203.541V29.6811H207.155Z" fill="white"/>
</svg>
