<svg width="220" height="38" viewBox="0 0 220 38" fill="none" xmlns="http://www.w3.org/2000/svg">
<path d="M3.72086 0.203218H4.47676V14.9975H3.72086V3.59695L0.898025 14.9975H0.138184V0.203218H0.898025V11.6037L3.72086 0.203218Z" fill="white"/>
<path d="M6.83109 0.203218L8.7051 12.2743L10.5791 0.203218H11.5594V14.9975H10.8035V9.23624L10.8744 3.01778L8.9925 14.9975H8.41376L6.53581 3.04826L6.61062 9.23624V14.9975H5.85471V0.203218H6.83109Z" fill="white"/>
<path d="M16.1342 8.15919H13.65V13.4022H16.5358V14.9975H12.8941V0.203218H16.4964V1.80864H13.65V6.56393H16.1342V8.15919Z" fill="white"/>
<path d="M23.7169 8.0779C23.7169 9.52752 23.6224 10.7942 23.4334 11.8781C23.2445 12.9551 22.9767 13.7782 22.6303 14.3472C22.2838 14.9162 21.8796 15.2007 21.4177 15.2007C20.982 15.2007 20.5909 14.9297 20.2445 14.3878C19.9006 13.8459 19.6303 13.0703 19.4334 12.061C19.2392 11.0517 19.1316 9.87299 19.1106 8.52498H18.2878V14.9975H17.5319V0.203218H18.2878V6.99069H19.1067C19.1145 5.59526 19.213 4.37257 19.4019 3.32261C19.5909 2.26588 19.8599 1.44962 20.209 0.873836C20.5581 0.291279 20.9584 0 21.4098 0C21.8691 0 22.2733 0.287892 22.6224 0.863675C22.9741 1.43268 23.2445 2.26249 23.4334 3.35309C23.6224 4.43692 23.7169 5.70026 23.7169 7.1431V8.0779ZM22.9649 7.12278C22.9649 5.36833 22.8284 4.02371 22.5555 3.08891C22.2825 2.14733 21.9006 1.67655 21.4098 1.67655C20.9321 1.67655 20.5555 2.14733 20.2799 3.08891C20.0069 4.02371 19.8665 5.3243 19.8586 6.99069V8.0779C19.8586 9.77816 19.9964 11.116 20.272 12.0915C20.5502 13.0601 20.9321 13.5445 21.4177 13.5445C21.9059 13.5445 22.2838 13.0872 22.5515 12.1727C22.8193 11.2515 22.9571 9.93396 22.9649 8.22015V7.12278Z" fill="white"/>
<path d="M28.5319 1.80864H26.6893V14.9975H25.9374V1.80864H24.0988V0.203218H28.5319V1.80864Z" fill="white"/>
<path d="M33.4885 10.3031C33.4177 11.8679 33.1933 13.0771 32.8153 13.9306C32.44 14.7773 31.94 15.2007 31.3153 15.2007C30.6381 15.2007 30.0948 14.5741 29.6854 13.3209C29.2786 12.0677 29.0752 10.3912 29.0752 8.29128V6.86876C29.0752 5.49365 29.1696 4.28451 29.3586 3.24132C29.5502 2.19814 29.8206 1.39881 30.1696 0.843353C30.5187 0.281118 30.9229 0 31.3822 0C31.9912 0 32.4794 0.440305 32.8468 1.32091C33.2143 2.19475 33.4282 3.40728 33.4885 4.95851H32.7287C32.6631 3.77985 32.52 2.92633 32.2996 2.39797C32.0817 1.8696 31.7759 1.60542 31.3822 1.60542C30.8993 1.60542 30.52 2.06605 30.2444 2.9873C29.9715 3.90855 29.835 5.21931 29.835 6.91956V8.35225C29.835 9.95767 29.9649 11.2345 30.2248 12.1829C30.4846 13.1312 30.8481 13.6054 31.3153 13.6054C31.7353 13.6054 32.0568 13.3616 32.2799 12.8738C32.5056 12.3793 32.6552 11.5224 32.7287 10.3031H33.4885Z" fill="white"/>
<path d="M37.524 14.9975V9.23624H36.2011L35.0161 14.9975H34.209L35.5397 8.69772C34.7996 7.94581 34.4295 6.60119 34.4295 4.66385C34.4295 3.25487 34.608 2.16088 34.9649 1.38188C35.3245 0.596105 35.8232 0.203218 36.461 0.203218H38.2838V14.9975H37.524ZM35.1854 4.66385C35.1854 5.558 35.293 6.27604 35.5082 6.81795C35.7261 7.35987 36.0279 7.63421 36.4137 7.64098H37.524V1.80864H36.4492C36.0397 1.80864 35.7261 2.05927 35.5082 2.56054C35.293 3.06181 35.1854 3.76291 35.1854 4.66385Z" fill="white"/>
<path d="M46.0358 14.9975H45.2759V1.80864H42.4492V14.9975H41.6933V0.203218H46.0358V14.9975Z" fill="white"/>
<path d="M48.1696 9.20576V14.9975H47.4137V0.203218H49.5279C50.1552 0.203218 50.646 0.616427 51.0003 1.44285C51.3573 2.26926 51.5358 3.36325 51.5358 4.72481C51.5358 6.16088 51.3612 7.26842 51.0121 8.04742C50.6657 8.81965 50.1683 9.20576 49.52 9.20576H48.1696ZM48.1696 7.6105H49.5279C49.9321 7.6105 50.2418 7.36664 50.457 6.87892C50.6722 6.38442 50.7799 5.67316 50.7799 4.74513C50.7799 3.86452 50.6722 3.16003 50.457 2.63167C50.2418 2.1033 49.9465 1.82896 49.5712 1.80864H48.1696V7.6105Z" fill="white"/>
<path d="M56.9098 8.0779C56.9098 9.52752 56.8153 10.7942 56.6263 11.8781C56.4373 12.9551 56.1696 13.7782 55.8232 14.3472C55.4767 14.9162 55.0725 15.2007 54.6106 15.2007C54.1591 15.2007 53.7589 14.9162 53.4098 14.3472C53.0607 13.7714 52.789 12.9551 52.5948 11.8984C52.4032 10.8349 52.3048 9.60542 52.2995 8.20999V7.1431C52.2995 5.72058 52.3953 4.46401 52.5869 3.37341C52.7785 2.28281 53.0489 1.44962 53.398 0.873836C53.7497 0.291279 54.1512 0 54.6027 0C55.062 0 55.4662 0.287892 55.8153 0.863675C56.167 1.43268 56.4373 2.26249 56.6263 3.35309C56.8153 4.43692 56.9098 5.70026 56.9098 7.1431V8.0779ZM56.1578 7.12278C56.1578 5.36833 56.0213 4.02371 55.7484 3.08891C55.4754 2.14733 55.0935 1.67655 54.6027 1.67655C54.125 1.67655 53.7484 2.14733 53.4728 3.08891C53.1998 4.02371 53.0594 5.3243 53.0515 6.99069V8.0779C53.0515 9.77816 53.1893 11.116 53.4649 12.0915C53.7431 13.0601 54.125 13.5445 54.6106 13.5445C55.0988 13.5445 55.4767 13.0872 55.7444 12.1727C56.0121 11.2515 56.1499 9.93396 56.1578 8.22015V7.12278Z" fill="white"/>
<path d="M61.894 1.80864H60.0515V14.9975H59.2995V1.80864H57.461V0.203218H61.894V1.80864Z" fill="white"/>
<path d="M66.3586 0.203218H67.1145V14.9975H66.3586V3.59695L63.5358 14.9975H62.7759V0.203218H63.5358V11.6037L66.3586 0.203218Z" fill="white"/>
<path d="M68.4924 14.9975V0.203218H70.3665C70.9885 0.203218 71.4557 0.53514 71.768 1.19898C72.083 1.86283 72.2405 2.84505 72.2405 4.14564C72.2405 4.83658 72.1644 5.44962 72.0121 5.98476C71.8599 6.51313 71.6525 6.92295 71.3901 7.21423C71.6998 7.43777 71.9439 7.86452 72.1224 8.4945C72.3035 9.1177 72.394 9.86283 72.394 10.7299C72.394 12.0576 72.2273 13.1008 71.894 13.8594C71.5607 14.6181 71.0895 14.9975 70.4806 14.9975H68.4924ZM69.2483 8.0779V13.4022H70.4964C70.8481 13.4022 71.125 13.1685 71.3271 12.7011C71.5318 12.2269 71.6342 11.5766 71.6342 10.7502C71.6342 8.96867 71.2588 8.0779 70.5082 8.0779H69.2483ZM69.2483 6.51313H70.3901C70.7208 6.51313 70.9846 6.29975 71.1814 5.87299C71.3809 5.44623 71.4806 4.86706 71.4806 4.13548C71.4806 3.32261 71.3888 2.73328 71.205 2.36749C71.0213 1.99492 70.7418 1.80864 70.3665 1.80864H69.2483V6.51313Z" fill="white"/>
<path d="M77.9255 8.0779C77.9255 9.52752 77.831 10.7942 77.642 11.8781C77.4531 12.9551 77.1853 13.7782 76.8389 14.3472C76.4924 14.9162 76.0882 15.2007 75.6263 15.2007C75.1748 15.2007 74.7746 14.9162 74.4255 14.3472C74.0764 13.7714 73.8048 12.9551 73.6105 11.8984C73.4189 10.8349 73.3205 9.60542 73.3153 8.20999V7.1431C73.3153 5.72058 73.4111 4.46401 73.6027 3.37341C73.7943 2.28281 74.0646 1.44962 74.4137 0.873836C74.7654 0.291279 75.167 0 75.6184 0C76.0777 0 76.4819 0.287892 76.831 0.863675C77.1827 1.43268 77.4531 2.26249 77.642 3.35309C77.831 4.43692 77.9255 5.70026 77.9255 7.1431V8.0779ZM77.1735 7.12278C77.1735 5.36833 77.037 4.02371 76.7641 3.08891C76.4911 2.14733 76.1092 1.67655 75.6184 1.67655C75.1407 1.67655 74.7641 2.14733 74.4885 3.08891C74.2155 4.02371 74.0751 5.3243 74.0672 6.99069V8.0779C74.0672 9.77816 74.205 11.116 74.4806 12.0915C74.7588 13.0601 75.1407 13.5445 75.6263 13.5445C76.1145 13.5445 76.4924 13.0872 76.7601 12.1727C77.0279 11.2515 77.1657 9.93396 77.1735 8.22015V7.12278Z" fill="white"/>
<path d="M83.4373 14.9975H82.6775V1.80864H79.8507V14.9975H79.0948V0.203218H83.4373V14.9975Z" fill="white"/>
<path d="M89.2247 8.0779C89.2247 9.52752 89.1302 10.7942 88.9412 11.8781C88.7523 12.9551 88.4845 13.7782 88.1381 14.3472C87.7916 14.9162 87.3874 15.2007 86.9255 15.2007C86.474 15.2007 86.0738 14.9162 85.7247 14.3472C85.3756 13.7714 85.104 12.9551 84.9097 11.8984C84.7181 10.8349 84.6197 9.60542 84.6145 8.20999V7.1431C84.6145 5.72058 84.7103 4.46401 84.9019 3.37341C85.0935 2.28281 85.3638 1.44962 85.7129 0.873836C86.0646 0.291279 86.4662 0 86.9176 0C87.3769 0 87.7811 0.287892 88.1302 0.863675C88.4819 1.43268 88.7523 2.26249 88.9412 3.35309C89.1302 4.43692 89.2247 5.70026 89.2247 7.1431V8.0779ZM88.4727 7.12278C88.4727 5.36833 88.3362 4.02371 88.0633 3.08891C87.7903 2.14733 87.4084 1.67655 86.9176 1.67655C86.4399 1.67655 86.0633 2.14733 85.7877 3.08891C85.5147 4.02371 85.3743 5.3243 85.3664 6.99069V8.0779C85.3664 9.77816 85.5042 11.116 85.7798 12.0915C86.058 13.0601 86.4399 13.5445 86.9255 13.5445C87.4137 13.5445 87.7916 13.0872 88.0593 12.1727C88.3271 11.2515 88.4649 9.93396 88.4727 8.22015V7.12278Z" fill="white"/>
<path d="M91.8467 8.35225H91.1499V14.9975H90.394V0.203218H91.1499V6.7265H91.7404L93.7444 0.203218H94.6853L92.4963 7.3768L94.8467 14.9975H93.9215L91.8467 8.35225Z" fill="white"/>
<path d="M98.705 11.1363H96.3034L95.7641 14.9975H94.9845L97.1735 0.203218H97.8349L100.028 14.9975H99.2522L98.705 11.1363ZM96.5318 9.53091H98.4806L97.5042 2.61135L96.5318 9.53091Z" fill="white"/>
<path d="M103.74 4.17612C103.74 3.39035 103.629 2.76715 103.406 2.30652C103.185 1.83912 102.874 1.60542 102.473 1.60542C102.137 1.60542 101.855 1.84589 101.626 2.32684C101.401 2.80102 101.288 3.39035 101.288 4.09484H100.532C100.532 3.30906 100.614 2.60457 100.78 1.98137C100.948 1.35817 101.181 0.873836 101.481 0.528366C101.78 0.176122 102.111 0 102.473 0C103.113 0 103.611 0.372566 103.965 1.1177C104.319 1.85605 104.496 2.88569 104.496 4.20661C104.496 4.89077 104.415 5.51397 104.252 6.07621C104.09 6.63844 103.862 7.08214 103.571 7.40728C104.246 7.98984 104.583 9.14479 104.583 10.8721C104.583 12.1998 104.391 13.2532 104.008 14.0322C103.625 14.8112 103.113 15.2007 102.473 15.2007C102.092 15.2007 101.746 15.0279 101.433 14.6825C101.124 14.3302 100.882 13.8323 100.709 13.1888C100.536 12.5453 100.449 11.7799 100.449 10.8925H101.205C101.205 11.6715 101.324 12.3218 101.563 12.8434C101.802 13.3582 102.105 13.6156 102.473 13.6156C102.885 13.6156 103.213 13.3683 103.457 12.8738C103.704 12.3793 103.827 11.7257 103.827 10.9128C103.827 9.17866 103.411 8.29467 102.579 8.2608H101.87V6.65538H102.575C102.958 6.63506 103.248 6.41152 103.445 5.98476C103.642 5.558 103.74 4.95512 103.74 4.17612Z" fill="white"/>
<path d="M108.752 11.1363H106.351L105.811 14.9975H105.032L107.221 0.203218H107.882L110.075 14.9975H109.299L108.752 11.1363ZM106.579 9.53091H108.528L107.551 2.61135L106.579 9.53091Z" fill="white"/>
<path d="M115.252 14.9975H114.492V8.15919H111.603V14.9975H110.847V0.203218H111.603V6.56393H114.492V0.203218H115.252V14.9975Z" fill="white"/>
<path d="M120.209 0.203218H120.965V14.9975H120.209V3.59695L117.386 14.9975H116.626V0.203218H117.386V11.6037L120.209 0.203218Z" fill="white"/>
<path d="M125.343 14.9975V9.23624H124.02L122.835 14.9975H122.028L123.359 8.69772C122.618 7.94581 122.248 6.60119 122.248 4.66385C122.248 3.25487 122.427 2.16088 122.784 1.38188C123.143 0.596105 123.642 0.203218 124.28 0.203218H126.103V14.9975H125.343ZM123.004 4.66385C123.004 5.558 123.112 6.27604 123.327 6.81795C123.545 7.35987 123.847 7.63421 124.233 7.64098H125.343V1.80864H124.268C123.859 1.80864 123.545 2.05927 123.327 2.56054C123.112 3.06181 123.004 3.76291 123.004 4.66385Z" fill="white"/>
<path d="M127.378 14.0119C127.378 13.6867 127.415 13.4158 127.488 13.199C127.565 12.9822 127.677 12.8738 127.827 12.8738C127.977 12.8738 128.089 12.9822 128.166 13.199C128.244 13.4158 128.284 13.6867 128.284 14.0119C128.284 14.3235 128.244 14.5843 128.166 14.7942C128.089 15.0042 127.977 15.1092 127.827 15.1092C127.677 15.1092 127.565 15.0042 127.488 14.7942C127.415 14.5843 127.378 14.3235 127.378 14.0119Z" fill="white"/>
<path d="M135.981 14.9975H135.221V1.80864H132.394V14.9975H131.638V0.203218H135.981V14.9975Z" fill="white"/>
<path d="M140.599 8.15919H138.114V13.4022H141V14.9975H137.359V0.203218H140.961V1.80864H138.114V6.56393H140.599V8.15919Z" fill="white"/>
<path d="M142.697 9.20576V14.9975H141.941V0.203218H144.055C144.683 0.203218 145.173 0.616427 145.528 1.44285C145.885 2.26926 146.063 3.36325 146.063 4.72481C146.063 6.16088 145.889 7.26842 145.54 8.04742C145.193 8.81965 144.696 9.20576 144.047 9.20576H142.697ZM142.697 7.6105H144.055C144.46 7.6105 144.769 7.36664 144.984 6.87892C145.2 6.38442 145.307 5.67316 145.307 4.74513C145.307 3.86452 145.2 3.16003 144.984 2.63167C144.769 2.1033 144.474 1.82896 144.099 1.80864H142.697V7.6105Z" fill="white"/>
<path d="M150.268 8.15919H147.784V13.4022H150.67V14.9975H147.028V0.203218H150.63V1.80864H147.784V6.56393H150.268V8.15919Z" fill="white"/>
<path d="M156.768 18.6249H156.016V14.9975H151.902V18.6351H151.146L151.142 13.4022H151.61C151.857 12.6842 152.053 11.7223 152.197 10.5165C152.344 9.30398 152.436 7.97629 152.473 6.53345L152.599 0.203218H156.028V13.4022H156.776L156.768 18.6249ZM152.473 13.4022H155.268V1.80864H153.327L153.244 6.1575C153.21 7.85775 153.122 9.30737 152.981 10.5064C152.841 11.7053 152.672 12.6706 152.473 13.4022Z" fill="white"/>
<path d="M164.051 14.9975H163.292V1.80864H160.465V14.9975H159.709V0.203218H164.051V14.9975Z" fill="white"/>
<path d="M166.185 9.20576V14.9975H165.429V0.203218H167.544C168.171 0.203218 168.662 0.616427 169.016 1.44285C169.373 2.26926 169.551 3.36325 169.551 4.72481C169.551 6.16088 169.377 7.26842 169.028 8.04742C168.681 8.81965 168.184 9.20576 167.536 9.20576H166.185ZM166.185 7.6105H167.544C167.948 7.6105 168.257 7.36664 168.473 6.87892C168.688 6.38442 168.795 5.67316 168.795 4.74513C168.795 3.86452 168.688 3.16003 168.473 2.63167C168.257 2.1033 167.962 1.82896 167.587 1.80864H166.185V7.6105Z" fill="white"/>
<path d="M174.13 0.203218H174.886V14.9975H174.13V3.59695L171.307 14.9975H170.547V0.203218H171.307V11.6037L174.13 0.203218Z" fill="white"/>
<path d="M177.24 0.203218L179.114 12.2743L180.988 0.203218H181.969V14.9975H181.213V9.23624L181.284 3.01778L179.402 14.9975H178.823L176.945 3.04826L177.02 9.23624V14.9975H176.264V0.203218H177.24Z" fill="white"/>
<path d="M186.543 8.15919H184.059V13.4022H186.945V14.9975H183.303V0.203218H186.906V1.80864H184.059V6.56393H186.543V8.15919Z" fill="white"/>
<path d="M192.292 14.9975H191.532V8.15919H188.642V14.9975H187.886V0.203218H188.642V6.56393H191.532V0.203218H192.292V14.9975Z" fill="white"/>
<path d="M196.874 8.15919H194.39V13.4022H197.276V14.9975H193.634V0.203218H197.236V1.80864H194.39V6.56393H196.874V8.15919Z" fill="white"/>
<path d="M202.622 14.9975H201.862V8.15919H198.973V14.9975H198.217V0.203218H198.973V6.56393H201.862V0.203218H202.622V14.9975Z" fill="white"/>
<path d="M207.579 0.203218H208.335V14.9975H207.579V3.59695L204.756 14.9975H203.996V0.203218H204.756V11.6037L207.579 0.203218Z" fill="white"/>
<path d="M212.953 8.15919H210.469V13.4022H213.354V14.9975H209.713V0.203218H213.315V1.80864H210.469V6.56393H212.953V8.15919Z" fill="white"/>
<path d="M215.272 0.203218L217.146 12.2743L219.02 0.203218H220V14.9975H219.244V9.23624L219.315 3.01778L217.433 14.9975H216.854L214.977 3.04826L215.051 9.23624V14.9975H214.295V0.203218H215.272Z" fill="white"/>
<path d="M4.01118 33.495H3.31935V26.6567H0.688245V33.495H0V18.7008H0.688245V25.0615H3.31935V18.7008H4.01118V33.495Z" fill="white"/>
<path d="M8.18366 26.6567H5.92177V31.8998H8.54929V33.495H5.23353V18.7008H8.51345V20.3062H5.92177V25.0615H8.18366V26.6567Z" fill="white"/>
<path d="M13.4208 26.5755C13.4208 28.0251 13.3347 29.2918 13.1627 30.3756C12.9906 31.4527 12.7469 32.2757 12.4314 32.8447C12.116 33.4137 11.748 33.6982 11.3274 33.6982C10.9163 33.6982 10.5519 33.4137 10.2341 32.8447C9.91622 32.2689 9.66888 31.4527 9.49204 30.396C9.31759 29.3324 9.22798 28.103 9.2232 26.7076V25.6407C9.2232 24.2181 9.31042 22.9616 9.48487 21.871C9.65933 20.7804 9.90547 19.9472 10.2233 19.3714C10.5435 18.7888 10.9092 18.4976 11.3202 18.4976C11.7384 18.4976 12.1064 18.7855 12.4243 19.3612C12.7445 19.9302 12.9906 20.76 13.1627 21.8506C13.3347 22.9345 13.4208 24.1978 13.4208 25.6407V26.5755ZM12.7361 25.6203C12.7361 23.8659 12.6118 22.5213 12.3633 21.5865C12.1148 20.6449 11.7671 20.1741 11.3202 20.1741C10.8853 20.1741 10.5423 20.6449 10.2914 21.5865C10.0429 22.5213 9.91503 23.8219 9.90786 25.4882V26.5755C9.90786 28.2757 10.0333 29.6136 10.2842 30.589C10.5376 31.5577 10.8853 32.042 11.3274 32.042C11.7719 32.042 12.116 31.5848 12.3597 30.6703C12.6035 29.749 12.7289 28.4315 12.7361 26.7177V25.6203Z" fill="white"/>
<path d="M17.6363 20.3062H15.1199V24.7363H16.4175C16.9624 24.7567 17.3877 25.1529 17.6936 25.9252C17.9995 26.6974 18.1525 27.7473 18.1525 29.075C18.1525 30.4095 17.9983 31.473 17.69 32.2656C17.3818 33.0581 16.9612 33.4679 16.4283 33.495H14.428V18.7008H17.6363V20.3062ZM15.1199 26.3418V31.8998H16.3781C16.7198 31.8998 16.9851 31.6424 17.1739 31.1275C17.365 30.6127 17.4606 29.9218 17.4606 29.0547C17.4606 28.2215 17.3686 27.5645 17.1846 27.0835C17.003 26.6026 16.7437 26.3553 16.4068 26.3418H15.1199Z" fill="white"/>
<path d="M20.737 24.3705L21.988 18.7008H22.7981L21.1492 26.0369L22.8375 33.495H22.0203L20.737 27.7236L19.4465 33.495H18.6328L20.3247 26.0369L18.6722 18.7008H19.4788L20.737 24.3705Z" fill="white"/>
<path d="M27.5585 26.5755C27.5585 28.0251 27.4724 29.2918 27.3004 30.3756C27.1283 31.4527 26.8846 32.2757 26.5691 32.8447C26.2537 33.4137 25.8857 33.6982 25.4651 33.6982C25.054 33.6982 24.6896 33.4137 24.3718 32.8447C24.0539 32.2689 23.8066 31.4527 23.6297 30.396C23.4553 29.3324 23.3657 28.103 23.3609 26.7076V25.6407C23.3609 24.2181 23.4481 22.9616 23.6226 21.871C23.797 20.7804 24.0432 19.9472 24.361 19.3714C24.6812 18.7888 25.0469 18.4976 25.4579 18.4976C25.8761 18.4976 26.2441 18.7855 26.562 19.3612C26.8822 19.9302 27.1283 20.76 27.3004 21.8506C27.4724 22.9345 27.5585 24.1978 27.5585 25.6407V26.5755ZM26.8738 25.6203C26.8738 23.8659 26.7495 22.5213 26.501 21.5865C26.2525 20.6449 25.9048 20.1741 25.4579 20.1741C25.023 20.1741 24.68 20.6449 24.4291 21.5865C24.1806 22.5213 24.0527 23.8219 24.0456 25.4882V26.5755C24.0456 28.2757 24.171 29.6136 24.4219 30.589C24.6753 31.5577 25.023 32.042 25.4651 32.042C25.9096 32.042 26.2537 31.5848 26.4974 30.6703C26.7412 29.749 26.8666 28.4315 26.8738 26.7177V25.6203Z" fill="white"/>
<path d="M33.1648 37.1225H32.4801V33.495H28.7342V37.1326H28.046L28.0424 31.8998H28.469C28.6936 31.1817 28.8716 30.2198 29.0031 29.0141C29.1369 27.8015 29.2205 26.4739 29.254 25.031L29.3687 18.7008H32.4909V31.8998H33.172L33.1648 37.1225ZM29.254 31.8998H31.7991V20.3062H30.0319L29.9566 24.6551C29.9255 26.3553 29.8455 27.8049 29.7164 29.0039C29.5897 30.2029 29.4356 31.1682 29.254 31.8998Z" fill="white"/>
<path d="M37.2799 18.7008H37.9682V33.495H37.2799V22.0945L34.7098 33.495H34.0179V18.7008H34.7098V30.1013L37.2799 18.7008Z" fill="white"/>
<path d="M40.1118 18.7008L41.818 30.7719L43.5243 18.7008H44.4169V33.495H43.7286V27.7338L43.7932 21.5153L42.0797 33.495H41.5528L39.8429 21.5458L39.911 27.7338V33.495H39.2228V18.7008H40.1118Z" fill="white"/>
<path d="M49.6468 26.5755C49.6468 28.0251 49.5608 29.2918 49.3887 30.3756C49.2167 31.4527 48.9729 32.2757 48.6575 32.8447C48.342 33.4137 47.974 33.6982 47.5534 33.6982C47.1424 33.6982 46.7779 33.4137 46.4601 32.8447C46.1423 32.2689 45.8949 31.4527 45.7181 30.396C45.5436 29.3324 45.454 28.103 45.4493 26.7076V25.6407C45.4493 24.2181 45.5365 22.9616 45.7109 21.871C45.8854 20.7804 46.1315 19.9472 46.4494 19.3714C46.7696 18.7888 47.1352 18.4976 47.5462 18.4976C47.9645 18.4976 48.3325 18.7855 48.6503 19.3612C48.9705 19.9302 49.2167 20.76 49.3887 21.8506C49.5608 22.9345 49.6468 24.1978 49.6468 25.6407V26.5755ZM48.9622 25.6203C48.9622 23.8659 48.8379 22.5213 48.5894 21.5865C48.3408 20.6449 47.9931 20.1741 47.5462 20.1741C47.1113 20.1741 46.7684 20.6449 46.5175 21.5865C46.2689 22.5213 46.1411 23.8219 46.1339 25.4882V26.5755C46.1339 28.2757 46.2594 29.6136 46.5103 30.589C46.7636 31.5577 47.1113 32.042 47.5534 32.042C47.9979 32.042 48.342 31.5848 48.5858 30.6703C48.8295 29.749 48.955 28.4315 48.9622 26.7177V25.6203Z" fill="white"/>
<path d="M56.4863 33.495H55.7944V20.3062H53.2207V33.495H52.5324V18.7008H56.4863V33.495Z" fill="white"/>
<path d="M58.4291 27.7033V33.495H57.7409V18.7008H59.6658C60.237 18.7008 60.6838 19.114 61.0065 19.9404C61.3315 20.7668 61.494 21.8608 61.494 23.2224C61.494 24.6584 61.335 25.766 61.0172 26.545C60.7018 27.3172 60.2489 27.7033 59.6586 27.7033H58.4291ZM58.4291 26.1081H59.6658C60.0338 26.1081 60.3158 25.8642 60.5118 25.3765C60.7077 24.882 60.8057 24.1707 60.8057 23.2427C60.8057 22.3621 60.7077 21.6576 60.5118 21.1292C60.3158 20.6009 60.047 20.3265 59.7052 20.3062H58.4291V26.1081Z" fill="white"/>
<path d="M66.387 26.5755C66.387 28.0251 66.3009 29.2918 66.1289 30.3756C65.9568 31.4527 65.713 32.2757 65.3976 32.8447C65.0822 33.4137 64.7141 33.6982 64.2935 33.6982C63.8825 33.6982 63.5181 33.4137 63.2002 32.8447C62.8824 32.2689 62.6351 31.4527 62.4582 30.396C62.2838 29.3324 62.1942 28.103 62.1894 26.7076V25.6407C62.1894 24.2181 62.2766 22.9616 62.4511 21.871C62.6255 20.7804 62.8716 19.9472 63.1895 19.3714C63.5097 18.7888 63.8753 18.4976 64.2864 18.4976C64.7046 18.4976 65.0726 18.7855 65.3904 19.3612C65.7107 19.9302 65.9568 20.76 66.1289 21.8506C66.3009 22.9345 66.387 24.1978 66.387 25.6407V26.5755ZM65.7023 25.6203C65.7023 23.8659 65.578 22.5213 65.3295 21.5865C65.081 20.6449 64.7333 20.1741 64.2864 20.1741C63.8514 20.1741 63.5085 20.6449 63.2576 21.5865C63.0091 22.5213 62.8812 23.8219 62.874 25.4882V26.5755C62.874 28.2757 62.9995 29.6136 63.2504 30.589C63.5037 31.5577 63.8514 32.042 64.2935 32.042C64.738 32.042 65.0822 31.5848 65.3259 30.6703C65.5697 29.749 65.6951 28.4315 65.7023 26.7177V25.6203Z" fill="white"/>
<path d="M68.7743 26.8498H68.1398V33.495H67.4516V18.7008H68.1398V25.2241H68.6775L70.5021 18.7008H71.3588L69.3658 25.8744L71.5058 33.495H70.6634L68.7743 26.8498Z" fill="white"/>
<path d="M76.0367 26.5755C76.0367 28.0251 75.9507 29.2918 75.7786 30.3756C75.6066 31.4527 75.3628 32.2757 75.0474 32.8447C74.7319 33.4137 74.3639 33.6982 73.9433 33.6982C73.5323 33.6982 73.1678 33.4137 72.85 32.8447C72.5322 32.2689 72.2848 31.4527 72.108 30.396C71.9335 29.3324 71.8439 28.103 71.8391 26.7076V25.6407C71.8391 24.2181 71.9264 22.9616 72.1008 21.871C72.2753 20.7804 72.5214 19.9472 72.8392 19.3714C73.1595 18.7888 73.5251 18.4976 73.9361 18.4976C74.3543 18.4976 74.7224 18.7855 75.0402 19.3612C75.3604 19.9302 75.6066 20.76 75.7786 21.8506C75.9507 22.9345 76.0367 24.1978 76.0367 25.6407V26.5755ZM75.3521 25.6203C75.3521 23.8659 75.2278 22.5213 74.9793 21.5865C74.7307 20.6449 74.383 20.1741 73.9361 20.1741C73.5012 20.1741 73.1583 20.6449 72.9074 21.5865C72.6588 22.5213 72.531 23.8219 72.5238 25.4882V26.5755C72.5238 28.2757 72.6493 29.6136 72.9002 30.589C73.1535 31.5577 73.5012 32.042 73.9433 32.042C74.3878 32.042 74.7319 31.5848 74.9757 30.6703C75.2194 29.749 75.3449 28.4315 75.3521 26.7177V25.6203Z" fill="white"/>
<path d="M81.0803 33.495H80.3884V26.6567H77.7573V33.495H77.0691V18.7008H77.7573V25.0615H80.3884V18.7008H81.0803V33.495Z" fill="white"/>
<path d="M86.1417 28.8007C86.0772 30.3655 85.8729 31.5746 85.5288 32.4281C85.187 33.2749 84.7318 33.6982 84.163 33.6982C83.5465 33.6982 83.0518 33.0717 82.679 31.8185C82.3086 30.5653 82.1234 28.8888 82.1234 26.7888V25.3663C82.1234 23.9912 82.2094 22.7821 82.3815 21.7389C82.5559 20.6957 82.8021 19.8964 83.1199 19.3409C83.4377 18.7787 83.8058 18.4976 84.224 18.4976C84.7784 18.4976 85.2229 18.9379 85.5574 19.8185C85.892 20.6923 86.0868 21.9048 86.1417 23.4561H85.4499C85.3902 22.2774 85.2599 21.4239 85.0592 20.8955C84.8608 20.3672 84.5824 20.103 84.224 20.103C83.7843 20.103 83.4389 20.5636 83.188 21.4849C82.9395 22.4061 82.8152 23.7169 82.8152 25.4171V26.8498C82.8152 28.4552 82.9335 29.7321 83.1701 30.6805C83.4067 31.6288 83.7377 32.103 84.163 32.103C84.5454 32.103 84.8381 31.8591 85.0413 31.3714C85.2468 30.8769 85.383 30.02 85.4499 28.8007H86.1417Z" fill="white"/>
<path d="M88.8768 27.2867L90.0776 18.7008H90.877L89.0309 31.0259C88.9067 31.8117 88.7908 32.3706 88.6832 32.7025C88.5757 33.0276 88.449 33.2783 88.3032 33.4544C88.1599 33.6237 87.9794 33.7084 87.762 33.7084C87.5732 33.7084 87.4525 33.6779 87.3999 33.617L87.4214 32.0725L87.7476 32.1131C87.9986 32.1131 88.185 31.7711 88.3068 31.0869L88.3964 30.5585L88.5327 29.6542L86.7547 18.7008H87.5254L88.8768 27.2867Z" fill="white"/>
<path d="M95.4545 18.7008V33.495H94.7663V20.3062H92.8951L92.8019 26.169C92.7661 28.1335 92.6944 29.6102 92.5869 30.5992C92.4817 31.5882 92.3264 32.3164 92.1209 32.7838C91.9153 33.2444 91.6405 33.4815 91.2964 33.495H91.0706V31.8998L91.214 31.8794C91.4362 31.832 91.6071 31.6288 91.7266 31.2698C91.846 30.904 91.9368 30.3248 91.999 29.5323C92.0611 28.7397 92.1053 27.5204 92.1316 25.8744L92.2391 18.7008H95.4545Z" fill="white"/>
<path d="M97.3723 24.7363H98.6699C99.2148 24.7567 99.6402 25.1529 99.9461 25.9252C100.252 26.6974 100.405 27.7473 100.405 29.075C100.405 30.4095 100.251 31.473 99.9425 32.2656C99.6342 33.0581 99.2136 33.4679 98.6807 33.495H96.6841V18.7008H97.3723V24.7363ZM97.3723 26.3418V31.8998H98.6305C98.9722 31.8998 99.2375 31.6424 99.4263 31.1275C99.6175 30.6127 99.7131 29.9218 99.7131 29.0547C99.7131 28.2215 99.6211 27.5645 99.437 27.0835C99.2554 26.6026 98.9961 26.3553 98.6592 26.3418H97.3723Z" fill="white"/>
<path d="M103.961 20.3062H102.283V33.495H101.599V20.3062H99.9246V18.7008H103.961V20.3062Z" fill="white"/>
<path d="M108.026 18.7008H108.714V33.495H108.026V22.0945L105.456 33.495H104.764V18.7008H105.456V30.1013L108.026 18.7008Z" fill="white"/>
<path d="M110.657 27.7033V33.495H109.969V18.7008H111.894C112.465 18.7008 112.912 19.114 113.234 19.9404C113.559 20.7668 113.722 21.8608 113.722 23.2224C113.722 24.6584 113.563 25.766 113.245 26.545C112.93 27.3172 112.477 27.7033 111.886 27.7033H110.657ZM110.657 26.1081H111.894C112.262 26.1081 112.544 25.8642 112.74 25.3765C112.935 24.882 113.033 24.1707 113.033 23.2427C113.033 22.3621 112.935 21.6576 112.74 21.1292C112.544 20.6009 112.275 20.3265 111.933 20.3062H110.657V26.1081Z" fill="white"/>
<path d="M118.615 26.5755C118.615 28.0251 118.529 29.2918 118.357 30.3756C118.185 31.4527 117.941 32.2757 117.625 32.8447C117.31 33.4137 116.942 33.6982 116.521 33.6982C116.11 33.6982 115.746 33.4137 115.428 32.8447C115.11 32.2689 114.863 31.4527 114.686 30.396C114.512 29.3324 114.422 28.103 114.417 26.7076V25.6407C114.417 24.2181 114.504 22.9616 114.679 21.871C114.853 20.7804 115.099 19.9472 115.417 19.3714C115.737 18.7888 116.103 18.4976 116.514 18.4976C116.932 18.4976 117.3 18.7855 117.618 19.3612C117.938 19.9302 118.185 20.76 118.357 21.8506C118.529 22.9345 118.615 24.1978 118.615 25.6407V26.5755ZM117.93 25.6203C117.93 23.8659 117.806 22.5213 117.557 21.5865C117.309 20.6449 116.961 20.1741 116.514 20.1741C116.079 20.1741 115.736 20.6449 115.485 21.5865C115.237 22.5213 115.109 23.8219 115.102 25.4882V26.5755C115.102 28.2757 115.227 29.6136 115.478 30.589C115.731 31.5577 116.079 32.042 116.521 32.042C116.966 32.042 117.31 31.5848 117.554 30.6703C117.797 29.749 117.923 28.4315 117.93 26.7177V25.6203Z" fill="white"/>
<path d="M119.647 33.495V18.7008H121.353C121.92 18.7008 122.345 19.0327 122.629 19.6965C122.916 20.3604 123.06 21.3426 123.06 22.6432C123.06 23.3341 122.99 23.9472 122.852 24.4823C122.713 25.0107 122.524 25.4205 122.285 25.7118C122.567 25.9353 122.79 26.3621 122.952 26.9921C123.117 27.6153 123.199 28.3604 123.199 29.2275C123.199 30.5551 123.048 31.5983 122.744 32.357C122.441 33.1157 122.012 33.495 121.457 33.495H119.647ZM120.335 26.5755V31.8998H121.472C121.792 31.8998 122.044 31.6661 122.228 31.1987C122.414 30.7245 122.508 30.0742 122.508 29.2478C122.508 27.4662 122.166 26.5755 121.482 26.5755H120.335ZM120.335 25.0107H121.375C121.676 25.0107 121.916 24.7973 122.095 24.3705C122.277 23.9438 122.368 23.3646 122.368 22.633C122.368 21.8202 122.284 21.2308 122.117 20.865C121.95 20.4925 121.695 20.3062 121.353 20.3062H120.335V25.0107Z" fill="white"/>
<path d="M127.103 29.6339H124.916L124.425 33.495H123.716L125.709 18.7008H126.311L128.307 33.495H127.601L127.103 29.6339ZM125.124 28.0285H126.899L126.01 21.1089L125.124 28.0285Z" fill="white"/>
<path d="M132.15 20.3062H130.473V33.495H129.788V20.3062H128.114V18.7008H132.15V20.3062Z" fill="white"/>
<path d="M133.649 24.7363H134.946C135.491 24.7567 135.916 25.1529 136.222 25.9252C136.528 26.6974 136.681 27.7473 136.681 29.075C136.681 30.4095 136.527 31.473 136.219 32.2656C135.91 33.0581 135.49 33.4679 134.957 33.495H132.96V18.7008H133.649V24.7363ZM133.649 26.3418V31.8998H134.907C135.248 31.8998 135.514 31.6424 135.703 31.1275C135.894 30.6127 135.989 29.9218 135.989 29.0547C135.989 28.2215 135.897 27.5645 135.713 27.0835C135.532 26.6026 135.272 26.3553 134.935 26.3418H133.649Z" fill="white"/>
<path d="M141.431 28.8007C141.366 30.3655 141.162 31.5746 140.818 32.4281C140.476 33.2749 140.021 33.6982 139.452 33.6982C138.835 33.6982 138.341 33.0717 137.968 31.8185C137.598 30.5653 137.412 28.8888 137.412 26.7888V25.3663C137.412 23.9912 137.498 22.7821 137.67 21.7389C137.845 20.6957 138.091 19.8964 138.409 19.3409C138.727 18.7787 139.095 18.4976 139.513 18.4976C140.067 18.4976 140.512 18.9379 140.846 19.8185C141.181 20.6923 141.376 21.9048 141.431 23.4561H140.739C140.679 22.2774 140.549 21.4239 140.348 20.8955C140.15 20.3672 139.871 20.103 139.513 20.103C139.073 20.103 138.728 20.5636 138.477 21.4849C138.228 22.4061 138.104 23.7169 138.104 25.4171V26.8498C138.104 28.4552 138.223 29.7321 138.459 30.6805C138.696 31.6288 139.027 32.103 139.452 32.103C139.834 32.103 140.127 31.8591 140.33 31.3714C140.536 30.8769 140.672 30.02 140.739 28.8007H141.431Z" fill="white"/>
<path d="M145.105 33.495V27.7338H143.901L142.822 33.495H142.087L143.298 27.1953C142.624 26.4434 142.287 25.0987 142.287 23.1614C142.287 21.7524 142.45 20.6584 142.775 19.8794C143.102 19.0937 143.556 18.7008 144.137 18.7008H145.797V33.495H145.105ZM142.976 23.1614C142.976 24.0556 143.074 24.7736 143.27 25.3155C143.468 25.8574 143.743 26.1318 144.094 26.1385H145.105V20.3062H144.126C143.754 20.3062 143.468 20.5568 143.27 21.0581C143.074 21.5594 142.976 22.2605 142.976 23.1614Z" fill="white"/>
<path d="M152.708 28.8007C152.643 30.3655 152.439 31.5746 152.095 32.4281C151.753 33.2749 151.298 33.6982 150.729 33.6982C150.113 33.6982 149.618 33.0717 149.245 31.8185C148.875 30.5653 148.69 28.8888 148.69 26.7888V25.3663C148.69 23.9912 148.776 22.7821 148.948 21.7389C149.122 20.6957 149.368 19.8964 149.686 19.3409C150.004 18.7787 150.372 18.4976 150.79 18.4976C151.345 18.4976 151.789 18.9379 152.124 19.8185C152.458 20.6923 152.653 21.9048 152.708 23.4561H152.016C151.956 22.2774 151.826 21.4239 151.625 20.8955C151.427 20.3672 151.149 20.103 150.79 20.103C150.35 20.103 150.005 20.5636 149.754 21.4849C149.506 22.4061 149.381 23.7169 149.381 25.4171V26.8498C149.381 28.4552 149.5 29.7321 149.736 30.6805C149.973 31.6288 150.304 32.103 150.729 32.103C151.112 32.103 151.404 31.8591 151.607 31.3714C151.813 30.8769 151.949 30.02 152.016 28.8007H152.708Z" fill="white"/>
<path d="M157.665 26.5755C157.665 28.0251 157.579 29.2918 157.407 30.3756C157.235 31.4527 156.992 32.2757 156.676 32.8447C156.361 33.4137 155.993 33.6982 155.572 33.6982C155.161 33.6982 154.797 33.4137 154.479 32.8447C154.161 32.2689 153.914 31.4527 153.737 30.396C153.562 29.3324 153.473 28.103 153.468 26.7076V25.6407C153.468 24.2181 153.555 22.9616 153.73 21.871C153.904 20.7804 154.15 19.9472 154.468 19.3714C154.788 18.7888 155.154 18.4976 155.565 18.4976C155.983 18.4976 156.351 18.7855 156.669 19.3612C156.989 19.9302 157.235 20.76 157.407 21.8506C157.579 22.9345 157.665 24.1978 157.665 25.6407V26.5755ZM156.981 25.6203C156.981 23.8659 156.856 22.5213 156.608 21.5865C156.359 20.6449 156.012 20.1741 155.565 20.1741C155.13 20.1741 154.787 20.6449 154.536 21.5865C154.288 22.5213 154.16 23.8219 154.153 25.4882V26.5755C154.153 28.2757 154.278 29.6136 154.529 30.589C154.782 31.5577 155.13 32.042 155.572 32.042C156.017 32.042 156.361 31.5848 156.604 30.6703C156.848 29.749 156.974 28.4315 156.981 26.7177V25.6203Z" fill="white"/>
<path d="M164.358 28.8007C164.293 30.3655 164.089 31.5746 163.745 32.4281C163.403 33.2749 162.948 33.6982 162.379 33.6982C161.763 33.6982 161.268 33.0717 160.895 31.8185C160.525 30.5653 160.34 28.8888 160.34 26.7888V25.3663C160.34 23.9912 160.426 22.7821 160.598 21.7389C160.772 20.6957 161.018 19.8964 161.336 19.3409C161.654 18.7787 162.022 18.4976 162.44 18.4976C162.995 18.4976 163.439 18.9379 163.774 19.8185C164.108 20.6923 164.303 21.9048 164.358 23.4561H163.666C163.606 22.2774 163.476 21.4239 163.275 20.8955C163.077 20.3672 162.799 20.103 162.44 20.103C162 20.103 161.655 20.5636 161.404 21.4849C161.156 22.4061 161.031 23.7169 161.031 25.4171V26.8498C161.031 28.4552 161.15 29.7321 161.386 30.6805C161.623 31.6288 161.954 32.103 162.379 32.103C162.762 32.103 163.054 31.8591 163.257 31.3714C163.463 30.8769 163.599 30.02 163.666 28.8007H164.358Z" fill="white"/>
<path d="M169.287 33.495H168.595V20.3062H166.021V33.495H165.333V18.7008H169.287V33.495Z" fill="white"/>
<path d="M173.491 26.6567H171.23V31.8998H173.857V33.495H170.541V18.7008H173.821V20.3062H171.23V25.0615H173.491V26.6567Z" fill="white"/>
<path d="M174.735 18.7008H175.427V31.8998H178.001V18.7008H178.689V31.8591H179.238L179.173 37.0615H178.553V33.495H174.735V18.7008Z" fill="white"/>
<path d="M183.374 18.7008H184.062V33.495H183.374V22.0945L180.804 33.495H180.112V18.7008H180.804V30.1013L183.374 18.7008Z" fill="white"/>
<path d="M188.264 29.6339H186.077L185.586 33.495H184.876L186.869 18.7008H187.471L189.468 33.495H188.762L188.264 29.6339ZM186.285 28.0285H188.059L187.17 21.1089L186.285 28.0285Z" fill="white"/>
<path d="M194.182 18.7008V33.495H193.494V20.3062H191.622L191.529 26.169C191.493 28.1335 191.422 29.6102 191.314 30.5992C191.209 31.5882 191.054 32.3164 190.848 32.7838C190.643 33.2444 190.368 33.4815 190.024 33.495H189.798V31.8998L189.941 31.8794C190.163 31.832 190.334 31.6288 190.454 31.2698C190.573 30.904 190.664 30.3248 190.726 29.5323C190.788 28.7397 190.833 27.5204 190.859 25.8744L190.966 18.7008H194.182Z" fill="white"/>
<path d="M198.724 18.7008H199.412V33.495H198.724V22.0945L196.153 33.495H195.462V18.7008H196.153V30.1013L198.724 18.7008Z" fill="white"/>
<path d="M204.506 28.8007C204.441 30.3655 204.237 31.5746 203.893 32.4281C203.551 33.2749 203.096 33.6982 202.527 33.6982C201.91 33.6982 201.416 33.0717 201.043 31.8185C200.672 30.5653 200.487 28.8888 200.487 26.7888V25.3663C200.487 23.9912 200.573 22.7821 200.745 21.7389C200.92 20.6957 201.166 19.8964 201.484 19.3409C201.802 18.7787 202.17 18.4976 202.588 18.4976C203.142 18.4976 203.587 18.9379 203.921 19.8185C204.256 20.6923 204.451 21.9048 204.506 23.4561H203.814C203.754 22.2774 203.624 21.4239 203.423 20.8955C203.225 20.3672 202.946 20.103 202.588 20.103C202.148 20.103 201.803 20.5636 201.552 21.4849C201.303 22.4061 201.179 23.7169 201.179 25.4171V26.8498C201.179 28.4552 201.297 29.7321 201.534 30.6805C201.77 31.6288 202.101 32.103 202.527 32.103C202.909 32.103 203.202 31.8591 203.405 31.3714C203.611 30.8769 203.747 30.02 203.814 28.8007H204.506Z" fill="white"/>
<path d="M208.947 20.3062H207.269V33.495H206.585V20.3062H204.911V18.7008H208.947V20.3062Z" fill="white"/>
<path d="M213.636 26.5755C213.636 28.0251 213.549 29.2918 213.377 30.3756C213.205 31.4527 212.962 32.2757 212.646 32.8447C212.331 33.4137 211.963 33.6982 211.542 33.6982C211.131 33.6982 210.767 33.4137 210.449 32.8447C210.131 32.2689 209.884 31.4527 209.707 30.396C209.532 29.3324 209.443 28.103 209.438 26.7076V25.6407C209.438 24.2181 209.525 22.9616 209.7 21.871C209.874 20.7804 210.12 19.9472 210.438 19.3714C210.758 18.7888 211.124 18.4976 211.535 18.4976C211.953 18.4976 212.321 18.7855 212.639 19.3612C212.959 19.9302 213.205 20.76 213.377 21.8506C213.549 22.9345 213.636 24.1978 213.636 25.6407V26.5755ZM212.951 25.6203C212.951 23.8659 212.827 22.5213 212.578 21.5865C212.33 20.6449 211.982 20.1741 211.535 20.1741C211.1 20.1741 210.757 20.6449 210.506 21.5865C210.258 22.5213 210.13 23.8219 210.123 25.4882V26.5755C210.123 28.2757 210.248 29.6136 210.499 30.589C210.752 31.5577 211.1 32.042 211.542 32.042C211.987 32.042 212.331 31.5848 212.574 30.6703C212.818 29.749 212.944 28.4315 212.951 26.7177V25.6203Z" fill="white"/>
<path d="M215.557 18.7008L217.263 30.7719L218.969 18.7008H219.862V33.495H219.174V27.7338L219.238 21.5153L217.525 33.495H216.998L215.288 21.5458L215.356 27.7338V33.495H214.668V18.7008H215.557Z" fill="white"/>
</svg>
