<svg width="41" height="45" viewBox="0 0 41 45" fill="none" xmlns="http://www.w3.org/2000/svg">
<path d="M39.4926 16.594C39.8816 16.698 40.2806 16.467 40.3846 16.078L40.3976 16.028C40.4486 15.84 40.4216 15.642 40.3256 15.474C40.2276 15.307 40.0686 15.184 39.8816 15.136L36.3306 14.19L38.9486 12.679C39.5056 12.357 39.6966 11.646 39.3756 11.087L39.3396 11.025L39.3406 11.024L39.3086 10.969C39.1546 10.698 38.8996 10.503 38.5996 10.422C38.3006 10.342 37.9806 10.384 37.7136 10.539L35.0956 12.056L36.0416 8.502C36.0916 8.315 36.0636 8.11501 35.9676 7.94701C35.8696 7.78001 35.7096 7.658 35.5206 7.609L35.4746 7.59701C35.0876 7.49501 34.6886 7.72801 34.5856 8.11501L33.2496 13.129L31.2586 14.273L32.8396 8.35101C32.9086 8.08701 32.8716 7.809 32.7356 7.575C32.5986 7.338 32.3766 7.168 32.1126 7.099L31.9796 7.06301C31.4346 6.91801 30.8756 7.24201 30.7296 7.78801L28.5816 15.822L27.1526 16.653L28.0986 13.099C28.1486 12.912 28.1216 12.713 28.0246 12.546C27.9276 12.378 27.7676 12.258 27.5806 12.207C27.1666 12.098 26.7416 12.344 26.6306 12.757L25.3026 17.721L23.7536 18.618L24.2966 16.588C24.3866 16.246 24.2376 15.888 23.9326 15.712L23.8986 15.692C23.5756 15.507 23.1696 15.562 22.9066 15.824L21.4486 17.284L21.4436 15.5L25.1126 11.82C25.2476 11.685 25.3226 11.501 25.3226 11.31C25.3216 11.12 25.2466 10.937 25.1106 10.804L25.0586 10.752C24.7776 10.472 24.3236 10.474 24.0446 10.754L21.4446 13.363L21.4426 11.709L27.2886 5.85201C27.4876 5.65401 27.5986 5.383 27.5986 5.10201C27.5986 4.82201 27.4856 4.55201 27.2866 4.35301L27.2336 4.30101C26.8226 3.89201 26.1576 3.89201 25.7476 4.30301L21.4346 8.62L21.4396 6.32301L25.0986 2.64701C25.3806 2.36401 25.3796 1.903 25.0956 1.62L25.0586 1.58401C24.7756 1.30101 24.3156 1.30101 24.0326 1.58401L21.4326 4.18501L21.4296 1.20501C21.4296 0.884006 21.3016 0.578005 21.0736 0.352005C20.8476 0.126005 20.5396 -0.000994139 20.2186 5.86114e-06H20.1986H20.1726C19.8506 -0.000994139 19.5436 0.126005 19.3156 0.352005C19.0886 0.580005 18.9616 0.888006 18.9616 1.20801L18.9666 4.19001L16.3606 1.58601C16.2246 1.45101 16.0406 1.37401 15.8486 1.37401C15.6576 1.37601 15.4736 1.45301 15.3386 1.58801L15.3276 1.59701C15.0276 1.90001 15.0286 2.38801 15.3296 2.69001L18.9656 6.321L18.9706 8.62401L14.7076 4.36801C14.4956 4.15601 14.2086 4.03701 13.9096 4.03701C13.6096 4.03901 13.3226 4.15801 13.1106 4.36901L13.0716 4.408C12.6826 4.799 12.6836 5.43101 13.0736 5.82001L18.9736 11.711V13.365L16.4076 10.804C16.2616 10.659 16.0626 10.578 15.8556 10.578C15.6496 10.578 15.4516 10.661 15.3066 10.807L15.2966 10.819C15.0176 11.099 15.0186 11.553 15.2986 11.831L18.9756 15.502L18.9816 17.291L17.5216 15.832C17.2576 15.567 16.8476 15.515 16.5236 15.704L16.5226 15.702L16.4976 15.717C16.1886 15.896 16.0396 16.26 16.1326 16.605L16.6786 18.624L15.1216 17.73L13.7756 12.726C13.7246 12.539 13.6026 12.38 13.4356 12.284C13.2676 12.186 13.0686 12.16 12.8826 12.21L12.8376 12.224C12.4486 12.328 12.2186 12.728 12.3226 13.116L13.2736 16.666L11.8416 15.837L9.69659 7.88C9.62059 7.601 9.4366 7.36101 9.1846 7.21601C8.9346 7.07101 8.6366 7.034 8.3556 7.109L8.3366 7.11401C7.7666 7.26801 7.43059 7.85301 7.58259 8.42301L9.1596 14.292L7.1706 13.145L5.81959 8.14101C5.76959 7.95401 5.6476 7.79401 5.4796 7.69801C5.3116 7.60201 5.1126 7.576 4.9266 7.627L4.8806 7.63801C4.4926 7.74401 4.2636 8.14301 4.3666 8.53201L5.3166 12.078L2.73559 10.594C2.45859 10.435 2.12959 10.392 1.81959 10.475C1.51059 10.558 1.2466 10.762 1.0886 11.04L1.0776 11.058L1.1516 11.101L1.1496 11.103L1.0776 11.061L1.0256 11.149C0.875596 11.411 0.835596 11.721 0.913596 12.012C0.991596 12.303 1.1826 12.551 1.4436 12.701L4.0896 14.222L0.541595 15.175C0.355595 15.224 0.195594 15.347 0.0985938 15.515C0.00259383 15.682 -0.0244053 15.883 0.0275947 16.068L0.0395957 16.116C0.144596 16.505 0.544593 16.734 0.932593 16.63L5.9406 15.287L7.9336 16.436L2.0656 18.014C1.7906 18.087 1.5566 18.267 1.4136 18.515C1.2716 18.761 1.2336 19.055 1.3086 19.329L1.3136 19.353C1.4716 19.931 2.0666 20.275 2.6456 20.118L10.6026 17.979L12.0376 18.803L8.4966 19.757C8.3096 19.807 8.14959 19.931 8.05459 20.099C7.95759 20.266 7.9326 20.465 7.9826 20.652L7.9956 20.701C8.1006 21.09 8.50059 21.32 8.88959 21.215L13.8906 19.869L15.4406 20.761L13.4496 21.302C13.0916 21.399 12.8426 21.723 12.8426 22.096H12.9266V22.111H12.8296C12.8276 22.48 13.0746 22.804 13.4316 22.9L15.4356 23.441L13.8836 24.334L8.87659 23C8.48659 22.896 8.0876 23.128 7.9836 23.517L7.97159 23.564C7.86659 23.953 8.09859 24.354 8.48759 24.456L12.0366 25.404L10.6056 26.231L2.5756 24.088C2.0306 23.942 1.4706 24.267 1.3246 24.813C1.2446 25.112 1.2866 25.43 1.4406 25.698C1.5966 25.965 1.8506 26.159 2.1486 26.239L7.9256 27.78L5.9416 28.928L0.930595 27.596C0.541595 27.492 0.141596 27.724 0.0385963 28.112L0.0245963 28.163C-0.0254037 28.349 0.00159383 28.549 0.0985938 28.716C0.194594 28.884 0.354595 29.006 0.541595 29.055L4.0926 30.001L1.47359 31.513C0.917594 31.834 0.725599 32.545 1.0476 33.103L1.08459 33.167L1.1576 33.124V33.125L1.08559 33.167L1.1186 33.224C1.2726 33.492 1.5276 33.688 1.8266 33.767C2.1256 33.847 2.4436 33.805 2.7116 33.65L5.3306 32.133L4.3866 35.687C4.3366 35.874 4.36259 36.072 4.46059 36.24C4.55759 36.408 4.71859 36.53 4.90559 36.578L4.9506 36.592C5.3396 36.693 5.7366 36.461 5.8406 36.074L7.1776 31.064L9.1656 29.918L7.5866 35.839C7.5156 36.101 7.5536 36.38 7.6896 36.614C7.8256 36.85 8.0496 37.021 8.3106 37.09L8.44359 37.126C8.98959 37.27 9.54859 36.946 9.69359 36.401L11.8416 28.37L13.2696 27.538L12.3236 31.09C12.2206 31.479 12.4526 31.879 12.8426 31.982C13.2566 32.092 13.6816 31.847 13.7926 31.433L15.1196 26.47L16.6706 25.575L16.1286 27.605C16.0366 27.945 16.1856 28.305 16.4916 28.48L16.5226 28.498L16.5646 28.425L16.5226 28.498C16.8466 28.684 17.2526 28.63 17.5156 28.366L18.9736 26.908L18.9756 28.692L15.3076 32.371C15.1746 32.506 15.0986 32.69 15.0986 32.88C15.0986 33.071 15.1766 33.253 15.3106 33.386L15.3616 33.439C15.6426 33.718 16.0986 33.717 16.3776 33.437L18.9756 30.828L18.9776 32.481L13.1336 38.337C12.9346 38.535 12.8246 38.805 12.8246 39.087C12.8246 39.367 12.9366 39.637 13.1366 39.836L13.1876 39.888C13.5986 40.296 14.2646 40.296 14.6746 39.886L18.9856 35.571L18.9816 37.866L15.3236 41.542C15.0416 41.825 15.0426 42.286 15.3266 42.569L15.3636 42.605C15.6466 42.888 16.1066 42.888 16.3906 42.605L18.9886 40.003L18.9906 42.984C18.9906 43.305 19.1186 43.611 19.3456 43.837C19.5736 44.063 19.8816 44.19 20.2016 44.189H20.2236V44.107V44.19H20.2466C20.5676 44.192 20.8776 44.066 21.1046 43.838C21.3326 43.612 21.4606 43.305 21.4606 42.982L21.4556 40.002L24.0616 42.605C24.1976 42.741 24.3816 42.816 24.5726 42.816C24.7646 42.816 24.9486 42.74 25.0836 42.605L25.0946 42.595C25.3946 42.292 25.3936 41.804 25.0936 41.503L21.4566 37.871L21.4526 35.568L25.7156 39.824C25.9276 40.036 26.2146 40.155 26.5146 40.155C26.8126 40.155 27.0996 40.034 27.3116 39.823L27.3506 39.784C27.7406 39.393 27.7396 38.761 27.3496 38.372L21.4496 32.48L21.4486 30.826L24.0156 33.388C24.1616 33.533 24.3586 33.614 24.5656 33.614C24.7726 33.614 24.9706 33.531 25.1156 33.385L25.1266 33.373C25.4056 33.093 25.4046 32.639 25.1246 32.359L21.4466 28.689L21.4396 26.901L22.9006 28.36C23.1656 28.624 23.5756 28.676 23.8976 28.487L23.8556 28.414C23.8566 28.414 23.8566 28.414 23.8566 28.413L23.8586 28.412L23.9006 28.485L23.9256 28.471C24.2346 28.291 24.3846 27.927 24.2906 27.582L23.7436 25.565L25.3016 26.457L26.6456 31.464C26.7506 31.851 27.1496 32.083 27.5386 31.978L27.5846 31.967C27.7706 31.917 27.9306 31.794 28.0266 31.627C28.1246 31.459 28.1496 31.26 28.0996 31.073L27.1486 27.523L28.5836 28.352L30.7236 36.31C30.8816 36.894 31.4806 37.239 32.0636 37.083L32.0856 37.077C32.6546 36.924 32.9926 36.338 32.8396 35.768L31.2636 29.897L33.2536 31.044L34.6006 36.049C34.7066 36.437 35.1056 36.668 35.4956 36.564L35.5426 36.551C35.9326 36.447 36.1626 36.046 36.0586 35.657L35.1076 32.112L37.6886 33.597C37.9666 33.756 38.2966 33.798 38.6056 33.715C38.9156 33.631 39.1786 33.429 39.3376 33.15L39.3486 33.132L39.2736 33.089L39.3456 33.131L39.3966 33.043C39.5476 32.781 39.5886 32.472 39.5106 32.18C39.4316 31.889 39.2406 31.641 38.9786 31.492L36.3336 29.97L39.8816 29.017C40.0696 28.969 40.2286 28.845 40.3256 28.677C40.4216 28.51 40.4476 28.309 40.3956 28.122L40.3836 28.075C40.2786 27.688 39.8786 27.458 39.4896 27.562L34.4806 28.907L32.4876 27.756L38.3556 26.179C38.6316 26.105 38.8666 25.925 39.0076 25.677C39.1506 25.432 39.1866 25.139 39.1126 24.863L39.1056 24.839C38.9506 24.261 38.3536 23.918 37.7746 24.074L29.8156 26.213L28.3846 25.389L31.9256 24.433C32.1116 24.383 32.2706 24.261 32.3676 24.092C32.4636 23.924 32.4906 23.725 32.4386 23.538L32.4266 23.491C32.3206 23.102 31.9206 22.872 31.5326 22.977L26.5296 24.323L24.9796 23.431L26.9726 22.89C27.3316 22.793 27.5806 22.469 27.5806 22.096H27.4956V22.08H27.5936C27.5946 21.71 27.3476 21.386 26.9896 21.29L24.9846 20.75L26.5376 19.856L31.5456 21.191C31.9346 21.294 32.3336 21.062 32.4376 20.673L32.4516 20.626C32.5016 20.439 32.4736 20.24 32.3786 20.073C32.2806 19.905 32.1216 19.783 31.9346 19.733L28.3856 18.787L29.8156 17.958L37.8486 20.102C38.1086 20.172 38.3886 20.134 38.6226 20C38.8556 19.863 39.0286 19.64 39.0986 19.378C39.2646 18.756 38.8936 18.116 38.2726 17.952L32.4976 16.41L34.4816 15.263L39.4926 16.594ZM16.7686 22.664L14.6776 22.111H14.5646L14.5816 22.093H14.6966L16.7776 21.533L17.7476 22.096H17.8866L17.8736 22.104H17.8746H17.7346L17.7406 22.109L16.7686 22.664ZM18.9726 24.246L18.9706 25.363L17.4436 26.887L17.2846 27.166L17.2826 27.167L17.4426 26.887L18.0036 24.801L18.9726 24.246L19.0556 24.101L19.0566 24.1L18.9726 24.246ZM19.0686 20.099L18.9826 19.949L18.0106 19.392L17.4546 17.312L17.4486 17.3L18.9786 18.831L18.9856 19.951L18.9826 19.949L19.0686 20.097V20.099V20.099ZM21.3666 20.09L21.4496 19.947L21.4506 18.829L22.9776 17.306L23.1346 17.032L23.1366 17.03L22.9786 17.306L22.4186 19.389L21.4496 19.947L21.3666 20.09ZM22.9816 26.903L22.9686 26.879L22.9736 26.89L21.4406 25.36L21.4366 24.24L21.4396 24.242L21.3546 24.093L21.3586 24.095L21.4396 24.237L22.4126 24.795L22.9696 26.875L22.9836 26.901L22.9816 26.903ZM25.7446 22.078H25.8606L25.8416 22.099H25.7246L23.6436 22.659L22.6746 22.096L22.5346 22.097L22.5496 22.086H22.6866L22.6816 22.081L23.6526 21.526L25.7446 22.078Z" fill="#D6D6D6"/>
</svg>
