<svg width="442" height="87" viewBox="0 0 442 87" fill="none" xmlns="http://www.w3.org/2000/svg">
<rect x="5" width="437" height="87" fill="url(#paint0_linear_232_6)"/>
<path d="M44.9059 47.724C39.7379 47.724 35.5899 50.886 35.5899 55.85C35.5899 60.406 39.2959 63.364 43.7839 63.364C46.0279 63.364 47.7959 62.752 49.1219 61.63C48.7479 65.234 46.5039 67.138 43.1379 67.138C41.6079 67.138 40.1119 66.866 38.7519 65.914L36.3039 70.742C38.0379 71.864 40.6219 72.476 43.2739 72.476C50.8219 72.476 55.9559 67.75 55.9559 59.454C55.9559 51.736 51.6039 47.724 44.9059 47.724ZM45.3819 58.536C43.4439 58.536 42.1179 57.38 42.1179 55.544C42.1179 53.674 43.4439 52.518 45.3479 52.518C47.3879 52.518 48.6799 53.742 48.6799 55.51C48.6799 57.312 47.3199 58.536 45.3819 58.536ZM69.128 72.476C75.18 72.476 79.6 67.954 79.6 60.1C79.6 52.246 75.18 47.724 69.128 47.724C63.042 47.724 58.622 52.246 58.622 60.1C58.622 67.954 63.042 72.476 69.128 72.476ZM69.128 66.968C66.952 66.968 65.388 65.098 65.388 60.1C65.388 55.102 66.952 53.232 69.128 53.232C71.27 53.232 72.834 55.102 72.834 60.1C72.834 65.098 71.27 66.968 69.128 66.968ZM92.7434 72.476C98.7954 72.476 103.215 67.954 103.215 60.1C103.215 52.246 98.7954 47.724 92.7434 47.724C86.6574 47.724 82.2374 52.246 82.2374 60.1C82.2374 67.954 86.6574 72.476 92.7434 72.476ZM92.7434 66.968C90.5674 66.968 89.0034 65.098 89.0034 60.1C89.0034 55.102 90.5674 53.232 92.7434 53.232C94.8854 53.232 96.4494 55.102 96.4494 60.1C96.4494 65.098 94.8854 66.968 92.7434 66.968ZM126.593 72.476C132.645 72.476 137.065 67.954 137.065 60.1C137.065 52.246 132.645 47.724 126.593 47.724C120.507 47.724 116.087 52.246 116.087 60.1C116.087 67.954 120.507 72.476 126.593 72.476ZM126.593 66.968C124.417 66.968 122.853 65.098 122.853 60.1C122.853 55.102 124.417 53.232 126.593 53.232C128.735 53.232 130.299 55.102 130.299 60.1C130.299 65.098 128.735 66.968 126.593 66.968ZM150.209 72.476C156.261 72.476 160.681 67.954 160.681 60.1C160.681 52.246 156.261 47.724 150.209 47.724C144.123 47.724 139.703 52.246 139.703 60.1C139.703 67.954 144.123 72.476 150.209 72.476ZM150.209 66.968C148.033 66.968 146.469 65.098 146.469 60.1C146.469 55.102 148.033 53.232 150.209 53.232C152.351 53.232 153.915 55.102 153.915 60.1C153.915 65.098 152.351 66.968 150.209 66.968ZM173.824 72.476C179.876 72.476 184.296 67.954 184.296 60.1C184.296 52.246 179.876 47.724 173.824 47.724C167.738 47.724 163.318 52.246 163.318 60.1C163.318 67.954 167.738 72.476 173.824 72.476ZM173.824 66.968C171.648 66.968 170.084 65.098 170.084 60.1C170.084 55.102 171.648 53.232 173.824 53.232C175.966 53.232 177.53 55.102 177.53 60.1C177.53 65.098 175.966 66.968 173.824 66.968ZM207.674 72.476C213.726 72.476 218.146 67.954 218.146 60.1C218.146 52.246 213.726 47.724 207.674 47.724C201.588 47.724 197.168 52.246 197.168 60.1C197.168 67.954 201.588 72.476 207.674 72.476ZM207.674 66.968C205.498 66.968 203.934 65.098 203.934 60.1C203.934 55.102 205.498 53.232 207.674 53.232C209.816 53.232 211.38 55.102 211.38 60.1C211.38 65.098 209.816 66.968 207.674 66.968ZM231.289 72.476C237.341 72.476 241.761 67.954 241.761 60.1C241.761 52.246 237.341 47.724 231.289 47.724C225.203 47.724 220.783 52.246 220.783 60.1C220.783 67.954 225.203 72.476 231.289 72.476ZM231.289 66.968C229.113 66.968 227.549 65.098 227.549 60.1C227.549 55.102 229.113 53.232 231.289 53.232C233.431 53.232 234.995 55.102 234.995 60.1C234.995 65.098 233.431 66.968 231.289 66.968ZM254.905 72.476C260.957 72.476 265.377 67.954 265.377 60.1C265.377 52.246 260.957 47.724 254.905 47.724C248.819 47.724 244.399 52.246 244.399 60.1C244.399 67.954 248.819 72.476 254.905 72.476ZM254.905 66.968C252.729 66.968 251.165 65.098 251.165 60.1C251.165 55.102 252.729 53.232 254.905 53.232C257.047 53.232 258.611 55.102 258.611 60.1C258.611 65.098 257.047 66.968 254.905 66.968ZM292.155 64.316C298.649 64.316 302.729 61.664 302.729 56.258C302.729 50.852 298.649 48.2 292.155 48.2L281.275 48.2V66.118H278.113V69.416H281.275V72H288.041V69.416H295.283V66.118H288.041V64.316H292.155ZM295.929 56.326C295.929 58.162 294.535 59.182 292.087 59.182H288.041V53.504H292.087C294.535 53.504 295.929 54.49 295.929 56.326Z" fill="white"/>
<path d="M115.029 32.761V40.807H110.142V37H98.0458V40.807H93.1318V32.761H93.8068C94.9228 32.743 95.7058 31.978 96.1558 30.466C96.6238 28.954 96.9118 26.776 97.0198 23.932L97.2358 18.1H112.464V32.761H115.029ZM101.691 24.391C101.619 26.407 101.457 28.117 101.205 29.521C100.953 30.925 100.566 32.005 100.044 32.761H107.199V22.339H101.772L101.691 24.391ZM135.675 29.764H133.434V37H128.196V29.764H125.955L122.256 37H116.073L121.446 27.091L116.397 18.1H122.013L125.793 25.444H128.196V18.1H133.434V25.444H135.729L139.59 18.1H145.179L140.13 27.091L145.503 37H139.347L135.675 29.764ZM162.672 32.869V37H147.498V18.1H162.321V22.231H152.79V25.417H161.187V29.413H152.79V32.869H162.672ZM173.629 29.764H171.199V37H165.88V18.1H171.199V25.444H173.764L178.273 18.1H183.889L177.976 27.226L183.943 37H177.922L173.629 29.764ZM203.667 18.1V37H198.375V22.339L191.193 22.339V37H185.928V18.1H203.667ZM217.265 37.378C215.267 37.378 213.467 36.955 211.865 36.109C210.281 35.263 209.03 34.093 208.112 32.599C207.212 31.105 206.762 29.422 206.762 27.55C206.762 25.678 207.212 23.995 208.112 22.501C209.03 21.007 210.281 19.837 211.865 18.991C213.467 18.145 215.267 17.722 217.265 17.722C219.263 17.722 221.054 18.145 222.638 18.991C224.24 19.837 225.491 21.007 226.391 22.501C227.309 23.995 227.768 25.678 227.768 27.55C227.768 29.422 227.309 31.105 226.391 32.599C225.491 34.093 224.24 35.263 222.638 36.109C221.054 36.955 219.263 37.378 217.265 37.378ZM217.265 32.95C218.219 32.95 219.083 32.725 219.857 32.275C220.631 31.825 221.243 31.195 221.693 30.385C222.143 29.557 222.368 28.612 222.368 27.55C222.368 26.488 222.143 25.552 221.693 24.742C221.243 23.914 220.631 23.275 219.857 22.825C219.083 22.375 218.219 22.15 217.265 22.15C216.311 22.15 215.447 22.375 214.673 22.825C213.899 23.275 213.287 23.914 212.837 24.742C212.387 25.552 212.162 26.488 212.162 27.55C212.162 28.612 212.387 29.557 212.837 30.385C213.287 31.195 213.899 31.825 214.673 32.275C215.447 32.725 216.311 32.95 217.265 32.95ZM245.861 22.339H240.083V37H234.818V22.339H229.013V18.1H245.861V22.339Z" fill="white"/>
<defs>
<linearGradient id="paint0_linear_232_6" x1="136" y1="22" x2="4.99999" y2="22" gradientUnits="userSpaceOnUse">
<stop stop-color="#EC231A"/>
<stop offset="1" stop-color="#EC231A" stop-opacity="0"/>
</linearGradient>
</defs>
</svg>
