<svg width="121" height="115" viewBox="0 0 121 115" fill="none" xmlns="http://www.w3.org/2000/svg">
<path d="M85.4961 26.475L104.669 26.45C105.536 26.449 106.237 25.745 106.236 24.878L106.226 18.103C106.224 15.979 104.5 14.26 102.376 14.262L86.4391 14.283C84.3161 14.286 82.5961 16.01 82.5981 18.134L82.6051 23.594C82.6091 25.187 83.9021 26.477 85.4961 26.475Z" fill="#B71043"/>
<path d="M91.953 26.466L73.268 26.491C72.402 26.492 71.698 25.79 71.697 24.923L71.687 18.149C71.684 16.025 73.405 14.3 75.529 14.298L89.661 14.279C91.785 14.276 93.51 15.996 93.512 18.12L93.521 24.894C93.521 25.761 92.82 26.465 91.953 26.466Z" fill="#FF4D4C"/>
<path d="M71.6541 18.174C71.6661 18.175 71.6751 18.176 71.6881 18.176L106.227 18.131C106.373 18.13 106.493 18.011 106.493 17.864C106.493 17.717 106.372 17.599 106.226 17.598L71.6871 17.643C71.5411 17.644 71.4211 17.763 71.4211 17.91C71.4211 18.046 71.5231 18.157 71.6541 18.174Z" fill="#363636"/>
<path d="M77.1711 20.489C77.1881 20.491 77.2041 20.492 77.2211 20.492L86.0721 20.536C86.2961 20.538 86.4781 20.357 86.4791 20.134C86.4801 19.91 86.3001 19.729 86.0771 19.727L77.2251 19.683C77.0011 19.681 76.8181 19.862 76.8171 20.085C76.8171 20.292 76.9711 20.464 77.1711 20.489Z" fill="#363636"/>
<path d="M77.2551 20.067C77.2711 20.069 77.2851 20.07 77.3021 20.07L79.1491 20.09C79.3721 20.092 79.5551 19.913 79.5571 19.69C79.5601 19.466 79.3801 19.281 79.1561 19.28L77.3111 19.261C77.0871 19.258 76.9041 19.438 76.9011 19.661C76.9001 19.869 77.0541 20.042 77.2551 20.067Z" fill="#363636"/>
<path d="M83.96 20.085C83.975 20.087 83.988 20.088 84.005 20.088L85.96 20.116C86.183 20.119 86.367 19.94 86.37 19.717C86.373 19.493 86.194 19.309 85.971 19.306L84.017 19.279C83.793 19.275 83.609 19.454 83.606 19.678C83.602 19.887 83.757 20.06 83.96 20.085Z" fill="#363636"/>
<path d="M98.1842 20.442C98.1992 20.444 98.2142 20.445 98.2302 20.445L106.229 20.494C106.441 20.496 106.615 20.324 106.616 20.112C106.617 19.9 106.445 19.724 106.233 19.725L98.2352 19.675C98.0222 19.674 97.8492 19.845 97.8482 20.058C97.8462 20.255 97.9942 20.418 98.1842 20.442Z" fill="#363636"/>
<path d="M98.2591 20.021C98.2741 20.023 98.2881 20.024 98.3031 20.024L99.9711 20.045C100.184 20.047 100.358 19.877 100.361 19.665C100.363 19.453 100.193 19.28 99.9811 19.275L98.3131 19.254C98.1001 19.252 97.9261 19.422 97.9231 19.635C97.9201 19.832 98.0681 19.997 98.2591 20.021Z" fill="#363636"/>
<path d="M104.317 20.042C104.331 20.044 104.345 20.045 104.359 20.045L106.126 20.074C106.338 20.077 106.514 19.908 106.517 19.695C106.521 19.483 106.353 19.309 106.139 19.305L104.372 19.276C104.159 19.272 103.984 19.442 103.981 19.654C103.977 19.853 104.125 20.018 104.317 20.042Z" fill="#363636"/>
<path d="M52.6702 102.746C52.6702 109.266 56.8072 114.551 61.9102 114.551C67.0142 114.551 71.1512 109.266 71.1512 102.746C71.1512 96.226 67.0142 90.94 61.9102 90.94C56.8072 90.941 52.6702 96.226 52.6702 102.746Z" fill="#050B40"/>
<path d="M64.8722 90.941H61.9102V114.552H64.8722V90.941Z" fill="#1E1E1E"/>
<path d="M55.6321 102.746C55.6321 109.266 59.7701 114.551 64.8731 114.551C69.9761 114.551 74.1121 109.266 74.1121 102.746C74.1121 96.226 69.9761 90.94 64.8731 90.94C59.7701 90.94 55.6321 96.226 55.6321 102.746Z" fill="#050B40"/>
<path d="M58.9512 103.374C58.9512 107.001 61.2532 109.942 64.0932 109.942C66.9322 109.942 69.2352 107.001 69.2352 103.374C69.2352 99.746 66.9322 96.805 64.0932 96.805C61.2532 96.806 58.9512 99.746 58.9512 103.374Z" fill="#CAE4F9"/>
<path d="M2.27108 97.205H44.4761L54.2971 7.117H61.7121L53.0581 86.497L67.5941 94.356C69.3511 95.306 70.4461 97.142 70.4461 99.139C70.4461 102.142 68.0111 104.576 65.0081 104.576L2.27308 101.287C1.03408 101.287 0.0280791 100.281 0.0280791 99.041V99.45C0.0260791 98.21 1.03208 97.205 2.27108 97.205Z" fill="#26255C"/>
<path d="M54.828 2.00202C54.963 0.770019 56.07 -0.120988 57.304 0.0140123L60.168 0.326016C61.4 0.460016 62.291 1.56801 62.156 2.80101L61.685 7.11702H54.27L54.828 2.00202Z" fill="#8CADD5"/>
<path d="M22.0701 105.878C22.0701 110.668 25.1101 114.551 28.8591 114.551C32.6091 114.551 35.6491 110.668 35.6491 105.878C35.6491 101.087 32.6091 97.205 28.8591 97.205C25.1101 97.205 22.0701 101.087 22.0701 105.878Z" fill="#050B40"/>
<path d="M31.0361 97.205H28.8591V114.552H31.0361V97.205Z" fill="#1E1E1E"/>
<path d="M24.2471 105.878C24.2471 110.668 27.2871 114.551 31.0361 114.551C34.7861 114.551 37.8251 110.668 37.8251 105.878C37.8251 101.087 34.7861 97.205 31.0361 97.205C27.2871 97.205 24.2471 101.087 24.2471 105.878Z" fill="#050B40"/>
<path d="M27.1902 105.615C27.1902 108.005 28.7072 109.943 30.5782 109.943C32.4492 109.943 33.9652 108.005 33.9652 105.615C33.9652 103.224 32.4492 101.287 30.5782 101.287C28.7072 101.287 27.1902 103.224 27.1902 105.615Z" fill="#CAE4F9"/>
<path d="M33.2532 97.754V106.654C33.2532 107.152 32.8502 107.556 32.3522 107.556H30.4632C30.1282 107.556 29.8202 107.37 29.6642 107.072L24.7842 97.754H33.2532Z" fill="#26255C"/>
<path d="M2.245 97.205H44.45H51.865L57.819 98.404C57.615 100.273 49.637 101.287 47.756 101.287H2.245C1.005 101.287 0 100.281 0 99.041V99.45C0 98.21 1.004 97.205 2.245 97.205Z" fill="#5955E5"/>
<path d="M98.988 102.746C98.988 109.266 103.126 114.551 108.229 114.551C113.332 114.551 117.468 109.266 117.468 102.746C117.468 96.226 113.332 90.94 108.229 90.94C103.126 90.94 98.988 96.226 98.988 102.746Z" fill="#050B40"/>
<path d="M111.191 90.941H108.229V114.552H111.191V90.941Z" fill="#1E1E1E"/>
<path d="M101.951 102.746C101.951 109.266 106.088 114.551 111.191 114.551C116.294 114.551 120.431 109.266 120.431 102.746C120.431 96.226 116.294 90.94 111.191 90.94C106.088 90.94 101.951 96.226 101.951 102.746Z" fill="#050B40"/>
<path d="M102.981 102.746C102.981 108.623 106.657 113.388 111.191 113.388C115.725 113.388 119.402 108.623 119.402 102.746C119.402 96.868 115.725 92.103 111.191 92.103C106.657 92.103 102.981 96.869 102.981 102.746Z" fill="#26255C"/>
<path d="M106.049 102.746C106.049 106.373 108.351 109.314 111.191 109.314C114.03 109.314 116.333 106.373 116.333 102.746C116.333 99.118 114.03 96.177 111.191 96.177C108.351 96.178 106.049 99.119 106.049 102.746Z" fill="#CAE4F9"/>
<path d="M88.0112 4.275H115.33C116.512 4.275 117.469 3.318 117.469 2.138C117.469 0.957 116.512 0 115.33 0H88.0112C87.6592 0 87.3772 0.284002 87.3772 0.635002V3.64101C87.3782 3.99201 87.6602 4.275 88.0112 4.275Z" fill="#8CADD5"/>
<path d="M102.942 0C104.157 0 105.134 1.014 105.078 2.241C105.023 3.39101 104.033 4.275 102.881 4.275H58.756C57.576 4.275 56.619 3.318 56.619 2.138C56.619 0.957 55.972 0 57.153 0H102.942Z" fill="#8CADD5"/>
<path d="M101.172 2.00202C101.306 0.770019 102.414 -0.120988 103.647 0.0140123L106.511 0.326016C107.743 0.460016 108.634 1.56801 108.5 2.80101L108.028 7.11702H100.613L101.172 2.00202Z" fill="#8CADD5"/>
<path d="M64.5401 0.369019L58.1691 0.410019C56.9041 0.418019 55.8581 1.39602 55.7661 2.65802L53.5801 32.337L57.0521 3.37302C57.1801 2.30102 58.0021 1.44302 59.0661 1.26802L64.5401 0.369019Z" fill="#8CADD5"/>
<path d="M55.5911 49.3181H95.3301C96.6911 49.3181 97.7571 50.49 97.6281 51.845L95.2711 76.5571C95.1581 77.7411 94.1641 78.646 92.9731 78.646H52.8981C51.5251 78.646 50.4541 77.453 50.6041 76.088L53.2971 51.3761C53.4241 50.2051 54.4131 49.3181 55.5911 49.3181Z" fill="#26255C"/>
<path d="M58.2381 59.498L59.3471 49.3181H97.8691L95.6031 73.078H70.4181C63.1261 73.078 57.4481 66.748 58.2381 59.498Z" fill="#050B40"/>
<path d="M42.847 21.853H88.267C88.442 21.853 88.582 21.711 88.582 21.536C88.582 21.361 88.441 21.219 88.267 21.219H42.847C42.672 21.219 42.531 21.361 42.531 21.536C42.531 21.711 42.672 21.853 42.847 21.853Z" fill="#81A2B1"/>
<path d="M88.267 21.853H111.491C111.665 21.853 111.808 21.711 111.808 21.536C111.808 21.361 111.664 21.219 111.491 21.219H88.267C88.092 21.219 87.95 21.361 87.95 21.536C87.95 21.711 88.092 21.853 88.267 21.853Z" fill="#99B8C5"/>
<path d="M43.1811 25.066L41.5502 16.288C41.5322 16.195 41.5572 16.1 41.6182 16.027C41.6782 15.955 41.7671 15.913 41.8611 15.913H67.0581C67.1531 15.913 67.2431 15.955 67.3021 16.027C67.3631 16.1 67.3871 16.195 67.3701 16.288L65.7381 25.066C65.5121 26.279 64.4531 27.159 63.2181 27.159H45.7002C44.4662 27.16 43.4071 26.28 43.1811 25.066ZM42.2422 16.547L43.8041 24.95C43.9741 25.863 44.7712 26.526 45.7002 26.526H63.2191C64.1481 26.526 64.9462 25.863 65.1152 24.95L66.6771 16.547H42.2422Z" fill="#81A2B1"/>
<path d="M41.8612 16.547H87.2812C87.4562 16.547 87.5962 16.405 87.5962 16.23C87.5962 16.055 87.4552 15.913 87.2812 15.913H41.8612C41.6862 15.913 41.5452 16.055 41.5452 16.23C41.5442 16.406 41.6862 16.547 41.8612 16.547Z" fill="#81A2B1"/>
<path d="M45.7 27.16H91.12C91.295 27.16 91.437 27.018 91.437 26.843C91.437 26.668 91.294 26.527 91.12 26.527H45.7C45.525 26.527 45.384 26.668 45.384 26.843C45.383 27.018 45.524 27.16 45.7 27.16Z" fill="#81A2B1"/>
<path d="M88.6001 25.066L86.9691 16.288C86.9511 16.195 86.9761 16.1 87.0361 16.027C87.0971 15.955 87.1841 15.913 87.2801 15.913H112.475C112.571 15.913 112.66 15.955 112.72 16.027C112.78 16.1 112.805 16.195 112.787 16.288L111.155 25.066C110.929 26.279 109.871 27.159 108.636 27.159H91.1201C89.8851 27.16 88.8271 26.28 88.6001 25.066ZM87.6621 16.547L89.2241 24.95C89.3931 25.863 90.1911 26.526 91.1201 26.526H108.639C109.568 26.526 110.366 25.863 110.535 24.95L112.097 16.547H87.6621Z" fill="#99B8C5"/>
<path d="M91.12 27.16C91.295 27.16 91.436 27.018 91.436 26.843C91.436 26.668 91.294 26.527 91.12 26.527C90.191 26.527 89.392 25.864 89.224 24.951L87.593 16.173C87.56 16.001 87.3951 15.888 87.2231 15.919C87.0511 15.952 86.937 16.117 86.97 16.289L88.601 25.066C88.827 26.28 89.885 27.16 91.12 27.16Z" fill="#99B8C5"/>
<path d="M84.631 27.16C84.806 27.16 84.946 27.018 84.946 26.843C84.946 26.668 84.805 26.527 84.631 26.527C83.701 26.527 82.903 25.864 82.735 24.951L81.103 16.173C81.071 16.001 80.905 15.888 80.734 15.919C80.562 15.952 80.448 16.117 80.48 16.289L82.111 25.066C82.337 26.28 83.397 27.16 84.631 27.16Z" fill="#99B8C5"/>
<path d="M78.143 27.16C78.318 27.16 78.458 27.018 78.458 26.843C78.458 26.668 78.317 26.527 78.143 26.527C77.212 26.527 76.415 25.864 76.247 24.951L74.615 16.173C74.582 16.001 74.417 15.888 74.246 15.919C74.074 15.952 73.959 16.117 73.992 16.289L75.623 25.066C75.849 26.28 76.909 27.16 78.143 27.16Z" fill="#99B8C5"/>
<path d="M71.654 27.16C71.83 27.16 71.97 27.018 71.97 26.843C71.97 26.668 71.829 26.527 71.654 26.527C70.725 26.527 69.927 25.864 69.758 24.951L68.127 16.173C68.094 16.001 67.929 15.888 67.758 15.919C67.585 15.952 67.471 16.117 67.504 16.289L69.135 25.066C69.361 26.28 70.42 27.16 71.654 27.16Z" fill="#99B8C5"/>
<path d="M65.1662 27.16C65.3412 27.16 65.4822 27.018 65.4822 26.843C65.4822 26.668 65.3402 26.527 65.1662 26.527C64.2372 26.527 63.4382 25.864 63.2702 24.951L61.6392 16.173C61.6062 16.001 61.4402 15.888 61.2692 15.919C61.0972 15.952 60.9832 16.117 61.0162 16.289L62.6472 25.066C62.8732 26.28 63.9312 27.16 65.1662 27.16Z" fill="#99B8C5"/>
<path d="M58.6771 27.16C58.8521 27.16 58.9931 27.018 58.9931 26.843C58.9931 26.668 58.8521 26.527 58.6771 26.527C57.7481 26.527 56.9501 25.864 56.7811 24.951L55.1491 16.173C55.1171 16.001 54.9511 15.888 54.7801 15.919C54.6081 15.952 54.4941 16.117 54.5261 16.289L56.1571 25.066C56.3831 26.28 57.4431 27.16 58.6771 27.16Z" fill="#99B8C5"/>
<path d="M52.1891 27.16C52.3641 27.16 52.5051 27.018 52.5051 26.843C52.5051 26.668 52.3641 26.527 52.1891 26.527C51.2591 26.527 50.4621 25.864 50.2931 24.951L48.6611 16.173C48.6281 16.001 48.4631 15.888 48.2921 15.919C48.1201 15.952 48.0051 16.117 48.0381 16.289L49.6691 25.066C49.8951 26.28 50.9551 27.16 52.1891 27.16Z" fill="#99B8C5"/>
<path d="M45.7001 27.16C45.8761 27.16 46.0171 27.018 46.0171 26.843C46.0171 26.668 45.8761 26.527 45.7001 26.527C44.7711 26.527 43.9741 25.864 43.8041 24.951L42.1731 16.173C42.1401 16.001 41.9751 15.888 41.8041 15.919C41.6321 15.952 41.5171 16.117 41.5501 16.289L43.1811 25.066C43.4071 26.28 44.4661 27.16 45.7001 27.16Z" fill="#99B8C5"/>
<path d="M107.442 96.047L95.7601 91.165C94.7771 90.754 94.1881 89.737 94.3211 88.679L99.1511 50.08C99.2681 49.14 100.068 48.435 101.015 48.435H103.525L99.3771 86.497L111.66 93.139L110.347 95.153C109.721 96.113 108.499 96.489 107.442 96.047Z" fill="#050B40"/>
<path d="M115.333 0C116.513 0 117.47 0.957 117.47 2.138C117.47 2.412 117.417 2.672 117.323 2.913H107.369C106.104 2.913 105.081 1.889 105.081 0.625V0H115.333Z" fill="white"/>
<path d="M1.71704 98.325L47.454 97.754L74.113 98.325L47.454 98.653L1.71704 98.325Z" fill="white"/>
<path d="M64.707 96.002L53.026 91.12C52.042 90.709 51.453 89.692 51.586 88.634L56.416 50.035C56.533 49.095 57.333 48.39 58.28 48.39H60.79L56.642 86.453L68.925 93.094L67.611 95.108C66.985 96.068 65.763 96.444 64.707 96.002Z" fill="#81A2B1"/>
<path d="M45.824 19.024C45.824 16.197 48.115 13.906 50.941 13.906H64.466C67.292 13.906 69.584 16.197 69.584 19.024V49.852H45.824V19.024ZM67.137 19.024C67.137 17.549 65.942 16.353 64.466 16.353H50.941C49.466 16.353 48.27 17.549 48.27 19.024V47.404H67.137V19.024Z" fill="#DFD5C1"/>
<path d="M68.4601 94.311C68.4601 95.82 67.2351 97.043 65.7281 97.043C64.2191 97.043 62.9961 95.82 62.9961 94.311C62.9961 92.802 64.2201 91.579 65.7281 91.579C67.2351 91.579 68.4601 92.803 68.4601 94.311Z" fill="#050B40"/>
<path d="M79.318 94.311C79.318 95.82 78.094 97.043 76.587 97.043C75.078 97.043 73.855 95.82 73.855 94.311C73.855 92.802 75.079 91.579 76.587 91.579C78.094 91.579 79.318 92.803 79.318 94.311Z" fill="#050B40"/>
<path d="M43.3771 94.311C43.3771 95.82 42.1531 97.043 40.6451 97.043C39.1361 97.043 37.9131 95.82 37.9131 94.311C37.9131 92.802 39.1361 91.579 40.6451 91.579C42.1521 91.579 43.3771 92.803 43.3771 94.311Z" fill="#41364B"/>
<path d="M54.236 94.311C54.236 95.82 53.012 97.043 51.504 97.043C49.995 97.043 48.771 95.82 48.771 94.311C48.771 92.802 49.995 91.579 51.504 91.579C53.012 91.579 54.236 92.803 54.236 94.311Z" fill="#41364B"/>
<path d="M84.1751 41.115V87.341C84.1751 90.516 81.8621 93.153 78.8281 93.66C78.4851 93.716 78.1311 93.746 77.7691 93.746H52.7041C49.1681 93.746 46.2991 90.877 46.2991 87.341V41.115C46.2991 37.579 49.1681 34.71 52.7041 34.71H77.7691C78.3441 34.71 78.9071 34.783 79.4401 34.93C82.1691 35.664 84.1751 38.154 84.1751 41.115Z" fill="#577092"/>
<path d="M54.8142 93.746H51.1912C41.7332 93.746 34.0662 86.0791 34.0662 76.6201V51.8351C34.0662 42.3771 41.7332 34.709 51.1912 34.709H54.8142C64.2722 34.709 71.9402 42.3771 71.9402 51.8351V76.6201C71.9402 86.0791 64.2722 93.746 54.8142 93.746Z" fill="#8CADD5"/>
<path d="M81.3562 39.929V88.07C81.3562 90.315 80.3772 92.327 78.8292 93.661C78.4862 93.716 78.1312 93.747 77.7702 93.747H76.3572C78.5602 92.884 80.1312 90.67 80.1312 88.07V39.929C80.1312 37.708 78.9872 35.762 77.2802 34.71H77.7692C78.3442 34.71 78.9082 34.784 79.4402 34.93C80.6272 36.24 81.3562 37.994 81.3562 39.929Z" fill="#8CADD5"/>
<path d="M61.261 89.77H44.447C42.251 89.77 40.47 91.55 40.47 93.747H65.238C65.238 91.55 63.458 89.77 61.261 89.77Z" fill="#8CADD5"/>
<path d="M38.6301 86.864C38.2341 86.864 37.9121 86.543 37.9121 86.146V41.699C37.9121 41.302 38.2341 40.981 38.6301 40.981C39.0261 40.981 39.3491 41.302 39.3491 41.699V86.146C39.3491 86.543 39.0261 86.864 38.6301 86.864Z" fill="#AFC4D3"/>
<path d="M43.738 86.864C43.342 86.864 43.019 86.543 43.019 86.146V41.699C43.019 41.302 43.342 40.981 43.738 40.981C44.134 40.981 44.456 41.302 44.456 41.699V86.146C44.456 86.543 44.134 86.864 43.738 86.864Z" fill="#AFC4D3"/>
<path d="M48.845 86.864C48.449 86.864 48.126 86.543 48.126 86.146V41.699C48.126 41.302 48.449 40.981 48.845 40.981C49.241 40.981 49.563 41.302 49.563 41.699V86.146C49.563 86.543 49.241 86.864 48.845 86.864Z" fill="#AFC4D3"/>
<path d="M53.9531 86.864C53.5561 86.864 53.2341 86.543 53.2341 86.146V41.699C53.2341 41.302 53.5561 40.981 53.9531 40.981C54.3491 40.981 54.6711 41.302 54.6711 41.699V86.146C54.6701 86.543 54.3491 86.864 53.9531 86.864Z" fill="#AFC4D3"/>
<path d="M59.0591 86.864C58.6631 86.864 58.3411 86.543 58.3411 86.146V41.699C58.3411 41.302 58.6631 40.981 59.0591 40.981C59.4561 40.981 59.7781 41.302 59.7781 41.699V86.146C59.7781 86.543 59.4561 86.864 59.0591 86.864Z" fill="#AFC4D3"/>
<path d="M64.167 86.864C63.771 86.864 63.449 86.543 63.449 86.146V41.699C63.449 41.302 63.77 40.981 64.167 40.981C64.564 40.981 64.886 41.302 64.886 41.699V86.146C64.885 86.543 64.563 86.864 64.167 86.864Z" fill="#AFC4D3"/>
<path d="M52.8221 16.972H62.9861C64.0351 16.972 64.8841 16.122 64.8841 15.073C64.8841 14.023 64.0341 13.173 62.9861 13.173H52.8221C51.7721 13.173 50.9221 14.023 50.9221 15.073C50.9221 16.122 51.7721 16.972 52.8221 16.972Z" fill="#AFC4D3"/>
<path d="M25.944 96.958H57.552C60.093 96.958 62.154 94.897 62.154 92.356V68.376C62.154 65.834 60.093 63.774 57.552 63.774H50.75H25.944C23.402 63.774 21.342 65.834 21.342 68.376V92.356C21.342 94.897 23.402 96.958 25.944 96.958Z" fill="#FF9F64"/>
<path d="M24.833 93.819H58.664C60.592 93.819 62.154 92.257 62.154 90.328V92.357C62.154 94.898 60.094 96.959 57.553 96.959H51.77H25.943C23.401 96.959 21.342 94.898 21.342 92.357V90.328C21.342 92.257 22.904 93.819 24.833 93.819Z" fill="#F67E47"/>
<path d="M12.758 96.958H44.366C46.907 96.958 48.968 94.897 48.968 92.356V68.376C48.968 65.834 46.907 63.774 44.366 63.774H38.652H12.758C10.217 63.774 8.15601 65.834 8.15601 68.376V92.356C8.15601 94.897 10.217 96.958 12.758 96.958Z" fill="#FFA778"/>
<path d="M10.655 93.819H46.47C47.85 93.819 48.968 92.701 48.968 91.321V92.357C48.968 94.898 46.908 96.959 44.367 96.959H12.759C10.218 96.959 8.15698 94.898 8.15698 92.357V91.321C8.15698 92.701 9.27398 93.819 10.655 93.819Z" fill="#F67E47"/>
<path d="M19.457 96.9581V71.7101C19.457 71.2581 19.824 70.8911 20.278 70.8911C20.73 70.8911 21.097 71.2581 21.097 71.7101V96.9581H19.457ZM33.258 96.9581V71.7101C33.258 71.2581 32.891 70.8911 32.439 70.8911C31.986 70.8911 31.619 71.2581 31.619 71.7101V96.9581H33.258Z" fill="#062855"/>
<path d="M19.458 72.828L19.471 72.7581C19.548 72.3121 19.973 72.013 20.418 72.091C20.864 72.169 21.163 72.593 21.085 73.039L20.538 76.184C20.398 76.988 20.603 77.806 21.098 78.449V80.5961C20.657 80.3371 20.259 80.004 19.922 79.603C19.746 79.394 19.592 79.171 19.458 78.938V72.828Z" fill="#01112D"/>
<path d="M31.6201 74.897V72.484L32.9861 71.101C33.1531 71.251 33.2591 71.468 33.2591 71.71V73.264L31.6201 74.897Z" fill="#01112D"/>
<path d="M24.6241 84.685C24.9541 84.685 25.0101 80.139 25.0101 79.81V78.393C25.0101 78.063 24.7421 77.796 24.4131 77.796C24.0841 77.796 23.8171 78.063 23.8171 78.393V79.81C23.8161 80.139 24.2941 84.685 24.6241 84.685Z" fill="#ABDEF3"/>
<path d="M23.3962 80.033C24.6082 80.033 25.7482 79.561 26.6052 78.703L33.0182 72.29C33.3382 71.97 33.3382 71.451 33.0182 71.131C32.6992 70.811 32.1792 70.811 31.8602 71.131L25.4472 77.544C24.8992 78.092 24.1702 78.394 23.3962 78.394C22.5382 78.394 21.7282 78.017 21.1762 77.36C20.6242 76.703 20.3912 75.842 20.5382 74.996L21.0842 71.851C21.1632 71.405 20.8642 70.981 20.4172 70.903C19.9722 70.825 19.5472 71.124 19.4702 71.571L18.9232 74.716C18.6932 76.039 19.0572 77.387 19.9212 78.415C20.7872 79.443 22.0522 80.033 23.3962 80.033Z" fill="#062855"/>
<path d="M24.4272 78.205L24.4732 79.904C24.1242 79.989 23.7632 80.033 23.3962 80.033C22.4012 80.033 21.4482 79.709 20.6692 79.123C20.7082 78.642 20.8412 78.027 21.1922 77.378C21.7432 78.024 22.5452 78.394 23.3962 78.394C23.7542 78.394 24.1022 78.329 24.4272 78.205Z" fill="#01112D"/>
<path d="M21.6601 80.719C21.6581 80.557 21.5601 80.416 21.4141 80.346C21.2141 80.25 21.0761 80.047 21.0761 79.809V78.393C21.0761 78.063 21.3431 77.796 21.6721 77.796H24.3241C24.3541 77.796 24.3851 77.799 24.4131 77.803C24.1261 77.846 23.9051 78.094 23.9051 78.393V79.809C23.9051 79.952 23.9571 80.082 24.0401 80.184C24.2471 80.184 24.4221 80.336 24.4511 80.541C24.6761 82.119 25.3451 88.522 21.9581 91.481H18.2371C21.5071 88.623 21.6841 82.551 21.6601 80.719Z" fill="white"/>
<path d="M61.0401 90.824H53.4981C52.1851 90.824 51.1191 89.759 51.1191 88.446V78.273V70.137C51.1191 68.823 52.1851 67.759 53.4981 67.759H61.0401C62.3531 67.759 63.4191 68.823 63.4191 70.137V88.446C63.4191 89.759 62.3521 90.824 61.0401 90.824Z" fill="#FF8700"/>
<path d="M61.0401 90.824H53.4981C52.1851 90.824 51.1191 89.759 51.1191 88.446V83.414V70.137C51.1191 68.823 52.1851 67.759 53.4981 67.759H61.0401C62.3531 67.759 63.4191 68.823 63.4191 70.137V88.446C63.4191 89.759 62.3521 90.824 61.0401 90.824Z" fill="#F67E47"/>
<path d="M61.027 67.758H55.175C54.124 67.758 53.271 68.611 53.271 69.662V85.559C53.271 86.879 54.341 87.95 55.663 87.95H63.206C63.323 87.95 63.419 87.854 63.419 87.737V77.797V70.149C63.419 69.516 63.173 68.941 62.772 68.513C62.335 68.049 61.715 67.758 61.027 67.758Z" fill="#FFA778"/>
<path d="M39.5501 29.292C38.9201 28.414 37.9041 27.893 36.8221 27.893H33.4271C32.0631 27.893 31.0641 29.178 31.4011 30.5L33.4061 38.374V47.256C33.4061 47.436 33.5521 47.582 33.7321 47.582H35.0331C35.2121 47.582 35.3571 47.437 35.3571 47.258V38.374V38.129L35.2961 37.893L33.2901 30.018C33.2851 29.998 33.2741 29.951 33.3161 29.897C33.3581 29.843 33.4061 29.843 33.4271 29.843H36.8221C37.2771 29.843 37.7011 30.061 37.9661 30.429L44.3541 39.327V47.258C44.3541 47.437 44.4991 47.582 44.6781 47.582H46.0321C46.1831 47.582 46.3041 47.46 46.3041 47.309V39.079C46.3041 38.832 46.2271 38.592 46.0831 38.392L42.4361 33.312L39.5501 29.292Z" fill="#01112D"/>
<path d="M50.0061 59.731H49.1281C48.2031 59.731 47.4541 60.636 47.4541 61.752C47.4541 62.702 47.9961 63.498 48.7261 63.715C48.8551 63.754 48.9891 63.774 49.1281 63.774H50.0061C50.9301 63.774 51.6791 62.869 51.6791 61.752C51.6791 60.637 50.9301 59.731 50.0061 59.731Z" fill="#000B1A"/>
<path d="M26.374 59.731H25.496C24.572 59.731 23.823 60.636 23.823 61.752C23.823 62.702 24.364 63.498 25.094 63.715C25.223 63.754 25.357 63.774 25.496 63.774H26.374C27.299 63.774 28.048 62.869 28.048 61.752C28.047 60.637 27.298 59.731 26.374 59.731Z" fill="#000B1A"/>
<path d="M20.333 63.716H19.19C18.862 63.716 18.577 63.492 18.498 63.174L17.991 61.131H21.532L21.025 63.174C20.986 63.333 20.895 63.4691 20.772 63.5641C20.649 63.6601 20.497 63.716 20.333 63.716Z" fill="#000B1A"/>
<path d="M43.6152 63.716H42.4722C42.1442 63.716 41.8592 63.492 41.7802 63.174L41.2732 61.131H44.8142L44.3072 63.174C44.2282 63.492 43.9422 63.716 43.6152 63.716Z" fill="#000B1A"/>
<path d="M52.3751 62.163H25.6721C24.4991 62.163 23.5481 61.212 23.5481 60.038V39.861C23.5481 38.688 24.4991 37.737 25.6721 37.737H51.7931H52.3741C53.5481 37.737 54.4991 38.688 54.4991 39.861V60.038C54.5001 61.213 53.5481 62.163 52.3751 62.163Z" fill="#A30041"/>
<path d="M44.753 62.163H18.051C16.878 62.163 15.926 61.212 15.926 60.038V39.861C15.926 38.688 16.878 37.737 18.051 37.737H44.753C45.926 37.737 46.877 38.688 46.877 39.861V44.178V60.038C46.878 61.213 45.926 62.163 44.753 62.163Z" fill="#CF0053"/>
<g opacity="0.6">
<g opacity="0.6">
<g opacity="0.5">
<g opacity="0.5">
<path opacity="0.5" d="M44.753 59.433H15.926V60.039C15.926 61.212 16.878 62.1631 18.051 62.1631H40.271H44.753C45.926 62.1631 46.877 61.212 46.877 60.039V57.308C46.878 58.482 45.926 59.433 44.753 59.433Z" fill="#A30041"/>
</g>
</g>
</g>
</g>
<path d="M17.978 38.29C17.151 38.29 16.48 38.961 16.48 39.788V52.602C16.48 53.914 17.544 54.978 18.857 54.978H40.324C42.467 54.978 44.303 53.66 45.063 51.79C45.305 51.195 45.438 50.545 45.438 49.864V40.667C45.438 40.048 45.202 39.485 44.814 39.061C44.379 38.587 43.755 38.29 43.061 38.29H17.978Z" fill="#DF0068"/>
<path d="M18.657 58.399V52.74C18.657 51.014 20.056 49.616 21.781 49.616H41.023C42.749 49.616 44.148 51.014 44.148 52.74V56.115V58.399C44.148 58.97 43.685 59.433 43.114 59.433H19.69C19.12 59.433 18.657 58.97 18.657 58.399Z" fill="#A30041"/>
<path d="M17.821 58.399V57.001V52.74C17.821 51.014 19.219 49.616 20.945 49.616H40.187C41.913 49.616 43.3111 51.014 43.3111 52.74V58.399C43.3111 58.97 42.848 59.433 42.277 59.433H18.855C18.284 59.433 17.821 58.97 17.821 58.399Z" fill="#CF0053"/>
<path d="M36.1991 56.115C36.9841 56.115 37.7151 55.876 38.3201 55.467C39.3301 54.785 39.9931 53.631 39.9931 52.321V49.616H20.9441C19.2191 49.616 17.8201 51.014 17.8201 52.74V56.115H36.1991Z" fill="#DF0068"/>
<path d="M54.1691 59.433H49.8471C49.7501 59.433 49.6561 59.421 49.5661 59.4C49.0481 59.274 48.6621 58.806 48.6621 58.248V48.068C48.6621 47.413 49.1921 46.883 49.8471 46.883H54.1691C54.8231 46.883 55.3551 47.413 55.3551 48.068V58.248C55.3561 58.902 54.8231 59.433 54.1691 59.433Z" fill="#CF0053"/>
<path d="M54.169 46.883H52.594H50.753C50.245 46.883 49.833 47.295 49.833 47.803V56.684C49.833 57.137 50.087 57.53 50.46 57.73C50.626 57.819 50.816 57.869 51.019 57.869H55.355V48.068C55.356 47.414 54.823 46.883 54.169 46.883Z" fill="#DF0068"/>
<path d="M30.9671 29.292C31.5981 28.414 32.6131 27.893 33.6961 27.893H37.0911C38.4551 27.893 39.4541 29.178 39.1171 30.5L38.0881 34.538L37.1121 38.374V47.256C37.1121 47.436 36.9661 47.582 36.7861 47.582H35.4851C35.3061 47.582 35.1611 47.437 35.1611 47.258V38.374V38.129L35.2211 37.893L37.2281 30.018C37.2331 29.998 37.2441 29.951 37.2021 29.897C37.1591 29.843 37.1121 29.843 37.0911 29.843H33.6961C33.2411 29.843 32.8161 30.061 32.5521 30.429L26.1631 39.327V47.258C26.1631 47.437 26.0191 47.582 25.8401 47.582H24.4861C24.3351 47.582 24.2131 47.46 24.2131 47.309V39.079C24.2131 38.832 24.2911 38.592 24.4351 38.392L30.9671 29.292Z" fill="#062855"/>
<path d="M48.589 97.205H80.016C86.149 97.205 91.297 92.587 91.962 86.49L100.613 7.117H108.028L99.376 86.497L113.91 94.356C115.667 95.306 116.762 97.142 116.762 99.139C116.762 102.142 114.328 104.576 111.324 104.576L48.589 101.287C47.349 101.287 46.344 100.281 46.344 99.041V99.45C46.344 98.21 47.349 97.205 48.589 97.205Z" fill="#5955E5"/>
</svg>
