<svg width="171" height="139" viewBox="0 0 171 139" fill="none" xmlns="http://www.w3.org/2000/svg">
<path d="M24.26 58.4131L14.9041 67.0074L3.69883 53.1912L26.7621 32.8476H45.909V109H24.26V58.4131Z" fill="white"/>
<path d="M59.3989 90.8322H78.1107L68.7548 122.055H53.6331L59.3989 90.8322ZM107.349 110.523C102.853 110.523 99.0089 110.16 95.8178 109.435C92.6992 108.782 89.6168 107.876 86.5707 106.715V90.5059C89.8344 91.9564 92.7717 93.0443 95.3826 93.7695C97.9936 94.4948 100.677 94.8574 103.433 94.8574C107.132 94.8574 109.924 93.7695 111.81 91.5937C113.695 89.3454 114.638 86.5532 114.638 83.217C114.638 80.1709 113.587 77.5599 111.483 75.3842C109.453 73.2084 106.262 72.1205 101.91 72.1205C100.242 72.1205 98.3925 72.3018 96.3617 72.6644C94.331 72.9545 91.9376 73.571 89.1816 74.5139L91.4662 32.8476H131.501V48.9484H109.416L108.872 59.6097C109.235 59.4647 109.743 59.3559 110.396 59.2834C111.121 59.2109 111.955 59.1746 112.898 59.1746C116.234 59.1746 119.316 59.7185 122.145 60.8064C124.973 61.8943 127.439 63.4536 129.542 65.4844C131.646 67.5151 133.277 69.981 134.438 72.882C135.671 75.7105 136.287 78.8654 136.287 82.3467C136.287 86.6257 135.598 90.5059 134.22 93.9871C132.915 97.3958 130.993 100.333 128.455 102.799C125.989 105.265 122.979 107.187 119.425 108.565C115.871 109.87 111.846 110.523 107.349 110.523Z" fill="white"/>
<path d="M145.682 93.1316C143.336 93.1316 141.541 92.5099 140.298 91.2663C139.054 89.9944 138.432 88.1149 138.432 85.6277C138.432 83.1405 139.082 81.2751 140.382 80.0315C141.683 78.7597 143.449 78.1237 145.682 78.1237C148.056 78.1237 149.851 78.7597 151.066 80.0315C152.31 81.2751 152.931 83.1405 152.931 85.6277C152.931 88.1149 152.31 89.9944 151.066 91.2663C149.851 92.5099 148.056 93.1316 145.682 93.1316ZM148.141 108.394H143.689L158.994 78.7173H163.403L148.141 108.394ZM161.411 108.987C159.065 108.987 157.27 108.366 156.026 107.122C154.783 105.85 154.161 103.971 154.161 101.484C154.161 98.9963 154.811 97.1309 156.111 95.8873C157.411 94.6155 159.178 93.9796 161.411 93.9796C163.785 93.9796 165.579 94.6155 166.795 95.8873C168.038 97.1309 168.66 98.9963 168.66 101.484C168.66 103.971 168.038 105.85 166.795 107.122C165.579 108.366 163.785 108.987 161.411 108.987ZM161.411 104.833C162.145 104.833 162.711 104.592 163.106 104.112C163.53 103.603 163.742 102.727 163.742 101.484C163.742 100.212 163.53 99.3355 163.106 98.855C162.711 98.3745 162.145 98.1343 161.411 98.1343C160.676 98.1343 160.096 98.3745 159.672 98.855C159.277 99.3355 159.079 100.212 159.079 101.484C159.079 102.727 159.277 103.603 159.672 104.112C160.096 104.592 160.676 104.833 161.411 104.833ZM143.35 85.6277C143.35 86.8713 143.548 87.7475 143.944 88.2562C144.368 88.7367 144.947 88.9769 145.682 88.9769C146.417 88.9769 146.982 88.7367 147.378 88.2562C147.802 87.7475 148.014 86.8713 148.014 85.6277C148.014 84.3841 147.802 83.5221 147.378 83.0416C146.982 82.5328 146.417 82.2785 145.682 82.2785C144.947 82.2785 144.368 82.5328 143.944 83.0416C143.548 83.5221 143.35 84.3841 143.35 85.6277Z" fill="white"/>
</svg>
