<svg width="280" height="64" viewBox="0 0 280 64" fill="none" xmlns="http://www.w3.org/2000/svg">
<path d="M14.6485 15.352V26.024H12.1102V16.728H2.53837V26.024H0V15.352H14.6485Z" fill="white"/>
<path d="M20.0434 26.024C19.638 26.024 19.3119 25.9546 19.0651 25.816C18.8183 25.6773 18.6949 25.4693 18.6949 25.192V15.352H29.8003V16.712H21.2333V19.816H27.685V21.192H21.2333V24.648H30.4349V26.024H20.0434Z" fill="white"/>
<path d="M33.6198 15.352H39.199C40.3976 15.352 41.3848 15.4533 42.1604 15.656C42.9536 15.8586 43.5794 16.1146 44.0377 16.424C44.5137 16.7333 44.8398 17.08 45.0161 17.464C45.21 17.848 45.3069 18.2213 45.3069 18.584C45.3069 19.1173 45.1571 19.5866 44.8574 19.992C44.5578 20.3973 44.1435 20.7386 43.6147 21.016C43.0859 21.2826 42.4513 21.4853 41.7109 21.624C40.9882 21.7626 40.1949 21.832 39.3312 21.832H36.1318V26.024H33.6198V15.352ZM39.3047 20.52C40.3976 20.52 41.235 20.3546 41.8167 20.024C42.416 19.6826 42.7157 19.2133 42.7157 18.616C42.7157 18.008 42.4072 17.5333 41.7902 17.192C41.1909 16.84 40.3624 16.664 39.3047 16.664H36.1318V20.52H39.3047Z" fill="white"/>
<path d="M49.9449 26.024C49.5395 26.024 49.2134 25.9546 48.9666 25.816C48.7198 25.6773 48.5964 25.4693 48.5964 25.192V15.352H59.7018V16.712H51.1348V19.816H57.5865V21.192H51.1348V24.648H60.3364V26.024H49.9449Z" fill="white"/>
<path d="M76.5974 16.728H70.5424C70.4013 17.72 70.2251 18.6053 70.0135 19.384C69.802 20.1626 69.5376 20.8666 69.2203 21.496C68.9206 22.1146 68.5593 22.68 68.1362 23.192C67.7308 23.704 67.2724 24.1893 66.7612 24.648H76.5974V16.728ZM68.2684 16.088C68.3037 15.864 68.4271 15.688 68.6386 15.56C68.8501 15.4213 69.1586 15.352 69.564 15.352H79.0565V24.648H80.5372V28.488H78.2368V26.024H64.8839V28.488H62.5835V24.648H63.9585C64.6283 24.1253 65.2012 23.576 65.6771 23C66.1531 22.424 66.5585 21.7946 66.8934 21.112C67.246 20.4293 67.528 19.6773 67.7396 18.856C67.9511 18.0346 68.1274 17.112 68.2684 16.088Z" fill="white"/>
<path d="M102.933 15.352V26.024H100.394V16.728H90.8227V26.024H88.2843V15.352H102.933Z" fill="white"/>
<path d="M106.979 15.352H112.558C113.757 15.352 114.744 15.4533 115.52 15.656C116.313 15.8586 116.939 16.1146 117.397 16.424C117.873 16.7333 118.199 17.08 118.375 17.464C118.569 17.848 118.666 18.2213 118.666 18.584C118.666 19.1173 118.517 19.5866 118.217 19.992C117.917 20.3973 117.503 20.7386 116.974 21.016C116.445 21.2826 115.811 21.4853 115.07 21.624C114.348 21.7626 113.554 21.832 112.691 21.832H109.491V26.024H106.979V15.352ZM112.664 20.52C113.757 20.52 114.594 20.3546 115.176 20.024C115.775 19.6826 116.075 19.2133 116.075 18.616C116.075 18.008 115.767 17.5333 115.15 17.192C114.55 16.84 113.722 16.664 112.664 16.664H109.491V20.52H112.664Z" fill="white"/>
<path d="M124.441 23.912L133.193 16.024C133.757 15.5226 134.392 15.272 135.097 15.272C135.556 15.272 135.926 15.3626 136.208 15.544C136.49 15.7146 136.631 15.9493 136.631 16.248V26.024H134.145V17.432L125.208 25.512C124.997 25.6933 124.741 25.8373 124.441 25.944C124.159 26.0506 123.86 26.104 123.542 26.104C123.049 26.104 122.661 26.0133 122.379 25.832C122.097 25.64 121.956 25.3893 121.956 25.08V15.352H124.441V23.912Z" fill="white"/>
<path d="M142.131 15.272C142.731 15.272 143.251 15.496 143.691 15.944L149.244 21.512L154.691 16.04C154.973 15.7626 155.246 15.5653 155.511 15.448C155.775 15.3306 156.092 15.272 156.463 15.272C156.868 15.272 157.194 15.3626 157.441 15.544C157.705 15.7146 157.838 15.944 157.838 16.232V26.024H155.458V17.624L150.566 22.552C150.249 22.872 149.799 23.032 149.218 23.032C148.936 23.032 148.662 22.984 148.398 22.888C148.134 22.792 147.922 22.6586 147.763 22.488L143.03 17.688V26.024H140.651V16.248C140.651 15.9386 140.783 15.6986 141.047 15.528C141.312 15.3573 141.673 15.272 142.131 15.272Z" fill="white"/>
<path d="M163.199 26.024C162.793 26.024 162.467 25.9546 162.22 25.816C161.974 25.6773 161.85 25.4693 161.85 25.192V15.352H172.956V16.712H164.389V19.816H170.84V21.192H164.389V24.648H173.59V26.024H163.199Z" fill="white"/>
<path d="M176.775 15.352H179.314V19.816H188.965V15.352H191.503V26.024H188.965V21.192H179.314V26.024H176.775V15.352Z" fill="white"/>
<path d="M196.87 26.024C196.465 26.024 196.139 25.9546 195.892 25.816C195.645 25.6773 195.522 25.4693 195.522 25.192V15.352H206.627V16.712H198.06V19.816H204.512V21.192H198.06V24.648H207.262V26.024H196.87Z" fill="white"/>
<path d="M210.447 15.352H212.985V19.816H222.636V15.352H225.175V26.024H222.636V21.192H212.985V26.024H210.447V15.352Z" fill="white"/>
<path d="M231.679 23.912L240.431 16.024C240.995 15.5226 241.63 15.272 242.335 15.272C242.793 15.272 243.163 15.3626 243.445 15.544C243.727 15.7146 243.868 15.9493 243.868 16.248V26.024H241.383V17.432L232.446 25.512C232.234 25.6933 231.978 25.8373 231.679 25.944C231.397 26.0506 231.097 26.104 230.78 26.104C230.286 26.104 229.898 26.0133 229.616 25.832C229.334 25.64 229.193 25.3893 229.193 25.08V15.352H231.679V23.912Z" fill="white"/>
<path d="M249.237 26.024C248.831 26.024 248.505 25.9546 248.258 25.816C248.012 25.6773 247.888 25.4693 247.888 25.192V15.352H258.994V16.712H250.427V19.816H256.878V21.192H250.427V24.648H259.628V26.024H249.237Z" fill="white"/>
<path d="M264.294 15.272C264.893 15.272 265.413 15.496 265.854 15.944L271.407 21.512L276.853 16.04C277.136 15.7626 277.409 15.5653 277.673 15.448C277.938 15.3306 278.255 15.272 278.625 15.272C279.03 15.272 279.357 15.3626 279.603 15.544C279.868 15.7146 280 15.944 280 16.232V26.024H277.62V17.624L272.729 22.552C272.411 22.872 271.962 23.032 271.38 23.032C271.098 23.032 270.825 22.984 270.56 22.888C270.296 22.792 270.084 22.6586 269.926 22.488L265.193 17.688V26.024H262.813V16.248C262.813 15.9386 262.945 15.6986 263.21 15.528C263.474 15.3573 263.835 15.272 264.294 15.272Z" fill="white"/>
<path d="M1.66351 8.88803L7.52119 1.00003C7.89873 0.498697 8.32345 0.24803 8.79537 0.24803C9.10212 0.24803 9.34987 0.338696 9.53864 0.52003C9.72741 0.690696 9.82179 0.925363 9.82179 1.22403V11H8.15828V2.40803L2.17672 10.488C2.03515 10.6694 1.86408 10.8134 1.66351 10.92C1.47474 11.0267 1.27418 11.08 1.06182 11.08C0.731473 11.08 0.471918 10.9894 0.283151 10.808C0.0943836 10.616 0 10.3654 0 10.056V0.32803H1.66351V8.88803Z" fill="white"/>
<path d="M13.5033 0.24803C13.9044 0.24803 14.2525 0.47203 14.5474 0.92003L18.2638 6.48803L21.9093 1.01603C22.0981 0.738697 22.281 0.541363 22.4579 0.42403C22.6349 0.306697 22.8473 0.24803 23.095 0.24803C23.3664 0.24803 23.5846 0.338696 23.7498 0.52003C23.9268 0.690696 24.0153 0.92003 24.0153 1.20803V11H22.4226V2.60003L19.1486 7.52803C18.9363 7.84803 18.6354 8.00803 18.2461 8.00803C18.0573 8.00803 17.8744 7.96003 17.6975 7.86403C17.5205 7.76803 17.3789 7.6347 17.2727 7.46403L14.105 2.66403V11H12.5123V1.22403C12.5123 0.914697 12.6008 0.674697 12.7777 0.50403C12.9547 0.333363 13.1966 0.24803 13.5033 0.24803Z" fill="white"/>
<path d="M27.6035 11C27.3321 11 27.1138 10.9307 26.9487 10.792C26.7835 10.6534 26.7009 10.4454 26.7009 10.168V0.32803H34.1336V1.68803H28.3998V4.79203H32.7179V6.16803H28.3998V9.62403H34.5584V11H27.6035Z" fill="white"/>
<path d="M47.025 11.272C46.2227 11.272 45.4677 11.144 44.7598 10.888C44.0637 10.632 43.4502 10.28 42.9193 9.83203C42.3884 9.37336 41.9578 8.8347 41.6274 8.21603C41.2971 7.5867 41.0965 6.90403 41.0257 6.16803H38.3889V11H36.69V0.32803H38.3889V4.79203H41.0788C41.185 4.10936 41.4092 3.48003 41.7513 2.90403C42.1053 2.31736 42.5477 1.81603 43.0786 1.40003C43.6095 0.973363 44.2112 0.642696 44.8837 0.40803C45.5562 0.173363 46.2699 0.0560303 47.025 0.0560303C47.8627 0.0560303 48.6472 0.20003 49.3787 0.48803C50.1102 0.765363 50.7473 1.1547 51.29 1.65603C51.8327 2.15736 52.2574 2.74936 52.5641 3.43203C52.8827 4.1147 53.042 4.85603 53.042 5.65603C53.042 6.45603 52.8827 7.2027 52.5641 7.89603C52.2574 8.5787 51.8327 9.1707 51.29 9.67203C50.7591 10.1734 50.1279 10.568 49.3964 10.856C48.6649 11.1334 47.8745 11.272 47.025 11.272ZM47.025 9.83203C47.6267 9.83203 48.1871 9.7307 48.7062 9.52803C49.2253 9.3147 49.6736 9.0267 50.0512 8.66403C50.4287 8.2907 50.7237 7.84803 50.936 7.33603C51.1602 6.81336 51.2723 6.24803 51.2723 5.64003C51.2723 5.0107 51.1661 4.44003 50.9537 3.92803C50.7414 3.41603 50.4464 2.9787 50.0689 2.61603C49.6913 2.2427 49.243 1.9547 48.7239 1.75203C48.2048 1.54936 47.6385 1.44803 47.025 1.44803C46.4115 1.44803 45.8452 1.54936 45.3261 1.75203C44.807 1.9547 44.3587 2.2427 43.9811 2.61603C43.6036 2.9787 43.3087 3.41603 43.0963 3.92803C42.8839 4.44003 42.7777 5.0107 42.7777 5.64003C42.7777 6.24803 42.8839 6.81336 43.0963 7.33603C43.3204 7.84803 43.6213 8.2907 43.9988 8.66403C44.3764 9.0267 44.8247 9.3147 45.3438 9.52803C45.8629 9.7307 46.4233 9.83203 47.025 9.83203Z" fill="white"/>
<path d="M57.316 1.67203H53.0865V0.32803H63.2268V1.67203H59.0149V11H57.316V1.67203Z" fill="white"/>
<path d="M73.0093 3.11203C72.6082 2.58936 72.095 2.18403 71.4697 1.89603C70.8444 1.59736 70.1778 1.44803 69.47 1.44803C68.8093 1.44803 68.2076 1.54936 67.6649 1.75203C67.1222 1.9547 66.6561 2.2427 66.2668 2.61603C65.8893 2.9787 65.5943 3.42136 65.382 3.94403C65.1696 4.45603 65.0634 5.03203 65.0634 5.67203C65.0634 6.30136 65.1637 6.87203 65.3643 7.38403C65.5766 7.88536 65.8716 8.31736 66.2491 8.68003C66.6384 9.0427 67.0986 9.32536 67.6295 9.52803C68.1604 9.72003 68.7562 9.81603 69.4169 9.81603C70.1011 9.81603 70.7264 9.69336 71.2927 9.44803C71.859 9.2027 72.4371 8.79736 73.027 8.23203L74.2127 9.12803C74.0004 9.41603 73.7172 9.69336 73.3633 9.96003C73.0093 10.216 72.6141 10.44 72.1776 10.632C71.7411 10.824 71.2809 10.9734 70.7972 11.08C70.3253 11.1974 69.8652 11.256 69.4169 11.256C68.5084 11.256 67.6767 11.1227 66.9216 10.856C66.1665 10.5894 65.5176 10.2107 64.9749 9.72003C64.4322 9.22936 64.0134 8.6427 63.7185 7.96003C63.4235 7.27736 63.276 6.52536 63.276 5.70403C63.276 4.89336 63.4294 4.14136 63.7362 3.44803C64.0429 2.7547 64.4676 2.1627 65.0103 1.67203C65.5648 1.1707 66.2196 0.781363 66.9747 0.50403C67.7298 0.21603 68.5556 0.0720301 69.4523 0.0720301C69.936 0.0720301 70.4079 0.125363 70.868 0.23203C71.3399 0.32803 71.7824 0.466697 72.1953 0.64803C72.6082 0.829363 72.9857 1.05336 73.3279 1.32003C73.6818 1.57603 73.9768 1.86403 74.2127 2.18403L73.0093 3.11203Z" fill="white"/>
<path d="M74.8451 11C75.0575 10.5094 75.2875 10.024 75.5353 9.54403C75.7831 9.06403 76.0308 8.62136 76.2786 8.21603C76.5263 7.8107 76.7682 7.44803 77.0041 7.12803C77.2519 6.80803 77.4761 6.55203 77.6766 6.36003C76.9452 6.1147 76.3847 5.7467 75.9954 5.25603C75.6179 4.76536 75.4291 4.16803 75.4291 3.46403C75.4291 2.50403 75.783 1.74136 76.4909 1.17603C77.2106 0.610696 78.2252 0.32803 79.5348 0.32803H83.3042V11H81.6584V6.63203H80.0126C79.5289 6.63203 79.1042 6.87203 78.7384 7.35203C78.3845 7.83203 78.0306 8.3867 77.6766 9.01603C77.3227 9.6347 76.9805 10.296 76.6502 11H74.8451ZM81.6584 5.33603V1.65603H79.4286C78.7207 1.65603 78.1662 1.82136 77.7651 2.15203C77.364 2.47203 77.1634 2.92536 77.1634 3.51203C77.1634 4.08803 77.3699 4.53603 77.7828 4.85603C78.1957 5.17603 78.7561 5.33603 79.464 5.33603H81.6584Z" fill="white"/>
<path d="M98.9973 0.32803V11H97.2984V1.70403H90.8921V11H89.1932V0.32803H98.9973Z" fill="white"/>
<path d="M101.705 0.32803H105.439C106.242 0.32803 106.902 0.429363 107.422 0.63203C107.952 0.834697 108.371 1.0907 108.678 1.40003C108.997 1.70936 109.215 2.05603 109.333 2.44003C109.463 2.82403 109.527 3.19736 109.527 3.56003C109.527 4.09336 109.427 4.5627 109.227 4.96803C109.026 5.37336 108.749 5.7147 108.395 5.99203C108.041 6.2587 107.616 6.46136 107.121 6.60003C106.637 6.7387 106.106 6.80803 105.528 6.80803H103.387V11H101.705V0.32803ZM105.51 5.49603C106.242 5.49603 106.802 5.3307 107.191 5.00003C107.593 4.6587 107.793 4.18936 107.793 3.59203C107.793 2.98403 107.587 2.50936 107.174 2.16803C106.773 1.81603 106.218 1.64003 105.51 1.64003H103.387V5.49603H105.51Z" fill="white"/>
<path d="M117.272 9.83203C117.921 9.83203 118.517 9.7307 119.06 9.52803C119.602 9.3147 120.068 9.0267 120.458 8.66403C120.847 8.2907 121.148 7.84803 121.36 7.33603C121.585 6.81336 121.697 6.24803 121.697 5.64003C121.697 5.0107 121.59 4.44003 121.378 3.92803C121.166 3.41603 120.865 2.9787 120.476 2.61603C120.086 2.2427 119.62 1.9547 119.077 1.75203C118.535 1.54936 117.933 1.44803 117.272 1.44803C116.612 1.44803 116.01 1.54936 115.467 1.75203C114.925 1.9547 114.459 2.2427 114.069 2.61603C113.68 2.9787 113.379 3.41603 113.167 3.92803C112.954 4.44003 112.848 5.0107 112.848 5.64003C112.848 6.24803 112.954 6.81336 113.167 7.33603C113.391 7.84803 113.698 8.2907 114.087 8.66403C114.476 9.0267 114.942 9.3147 115.485 9.52803C116.028 9.7307 116.623 9.83203 117.272 9.83203ZM117.272 11.272C116.388 11.272 115.562 11.1334 114.795 10.856C114.04 10.568 113.385 10.1734 112.83 9.67203C112.288 9.1707 111.857 8.5787 111.539 7.89603C111.232 7.2027 111.078 6.45603 111.078 5.65603C111.078 4.85603 111.238 4.1147 111.556 3.43203C111.875 2.74936 112.311 2.15736 112.866 1.65603C113.42 1.1547 114.075 0.765363 114.83 0.48803C115.585 0.20003 116.399 0.0560303 117.272 0.0560303C118.157 0.0560303 118.977 0.20003 119.732 0.48803C120.487 0.765363 121.142 1.1547 121.697 1.65603C122.251 2.15736 122.682 2.74936 122.988 3.43203C123.307 4.1147 123.466 4.85603 123.466 5.65603C123.466 6.45603 123.307 7.2027 122.988 7.89603C122.682 8.5787 122.251 9.1707 121.697 9.67203C121.154 10.1734 120.499 10.568 119.732 10.856C118.977 11.1334 118.157 11.272 117.272 11.272Z" fill="white"/>
<path d="M127.741 1.67203H123.511V0.32803H133.652V1.67203H129.44V11H127.741V1.67203Z" fill="white"/>
<path d="M137.086 8.88803L142.944 1.00003C143.322 0.498697 143.746 0.24803 144.218 0.24803C144.525 0.24803 144.773 0.338696 144.962 0.52003C145.15 0.690696 145.245 0.925363 145.245 1.22403V11H143.581V2.40803L137.6 10.488C137.458 10.6694 137.287 10.8134 137.086 10.92C136.898 11.0267 136.697 11.08 136.485 11.08C136.154 11.08 135.895 10.9894 135.706 10.808C135.517 10.616 135.423 10.3654 135.423 10.056V0.32803H137.086V8.88803Z" fill="white"/>
<path d="M147.935 0.32803H151.935C152.548 0.32803 153.079 0.402696 153.527 0.55203C153.976 0.690696 154.347 0.882696 154.642 1.12803C154.937 1.37336 155.156 1.66136 155.297 1.99203C155.45 2.3227 155.527 2.6747 155.527 3.04803C155.527 3.38936 155.462 3.69336 155.333 3.96003C155.203 4.2267 155.043 4.46136 154.855 4.66403C154.666 4.85603 154.454 5.0107 154.218 5.12803C153.993 5.24536 153.787 5.32003 153.598 5.35203C153.834 5.38403 154.1 5.45336 154.395 5.56003C154.69 5.65603 154.967 5.80536 155.226 6.00803C155.486 6.2107 155.704 6.47736 155.881 6.80803C156.058 7.12803 156.147 7.52803 156.147 8.00803C156.147 8.58403 156.029 9.06403 155.793 9.44803C155.568 9.82136 155.256 10.1254 154.855 10.36C154.465 10.5947 153.999 10.76 153.457 10.856C152.914 10.952 152.336 11 151.722 11H147.935V0.32803ZM151.634 9.67203C151.941 9.67203 152.259 9.65603 152.589 9.62403C152.92 9.59203 153.221 9.51736 153.492 9.40003C153.775 9.2827 154.005 9.11203 154.182 8.88803C154.359 8.65336 154.448 8.33336 154.448 7.92803C154.448 7.54403 154.359 7.2347 154.182 7.00003C154.017 6.76536 153.799 6.5787 153.527 6.44003C153.268 6.30136 152.979 6.2107 152.66 6.16803C152.342 6.1147 152.035 6.08803 151.74 6.08803H149.581V9.67203H151.634ZM151.687 4.77603C151.946 4.77603 152.206 4.74936 152.466 4.69603C152.725 4.63203 152.961 4.53603 153.173 4.40803C153.386 4.28003 153.557 4.1147 153.687 3.91203C153.816 3.70936 153.881 3.46403 153.881 3.17603C153.881 2.85603 153.816 2.60003 153.687 2.40803C153.557 2.20536 153.386 2.0507 153.173 1.94403C152.961 1.8267 152.725 1.75203 152.466 1.72003C152.206 1.67736 151.946 1.65603 151.687 1.65603H149.581V4.77603H151.687Z" fill="white"/>
<path d="M164.09 9.83203C164.739 9.83203 165.334 9.7307 165.877 9.52803C166.42 9.3147 166.886 9.0267 167.275 8.66403C167.664 8.2907 167.965 7.84803 168.178 7.33603C168.402 6.81336 168.514 6.24803 168.514 5.64003C168.514 5.0107 168.408 4.44003 168.195 3.92803C167.983 3.41603 167.682 2.9787 167.293 2.61603C166.904 2.2427 166.438 1.9547 165.895 1.75203C165.352 1.54936 164.75 1.44803 164.09 1.44803C163.429 1.44803 162.827 1.54936 162.285 1.75203C161.742 1.9547 161.276 2.2427 160.887 2.61603C160.497 2.9787 160.196 3.41603 159.984 3.92803C159.772 4.44003 159.665 5.0107 159.665 5.64003C159.665 6.24803 159.772 6.81336 159.984 7.33603C160.208 7.84803 160.515 8.2907 160.904 8.66403C161.294 9.0267 161.76 9.3147 162.302 9.52803C162.845 9.7307 163.441 9.83203 164.09 9.83203ZM164.09 11.272C163.205 11.272 162.379 11.1334 161.612 10.856C160.857 10.568 160.202 10.1734 159.648 9.67203C159.105 9.1707 158.674 8.5787 158.356 7.89603C158.049 7.2027 157.896 6.45603 157.896 5.65603C157.896 4.85603 158.055 4.1147 158.374 3.43203C158.692 2.74936 159.129 2.15736 159.683 1.65603C160.238 1.1547 160.892 0.765363 161.648 0.48803C162.403 0.20003 163.217 0.0560303 164.09 0.0560303C164.975 0.0560303 165.795 0.20003 166.55 0.48803C167.305 0.765363 167.959 1.1547 168.514 1.65603C169.068 2.15736 169.499 2.74936 169.806 3.43203C170.124 4.1147 170.284 4.85603 170.284 5.65603C170.284 6.45603 170.124 7.2027 169.806 7.89603C169.499 8.5787 169.068 9.1707 168.514 9.67203C167.971 10.1734 167.316 10.568 166.55 10.856C165.795 11.1334 164.975 11.272 164.09 11.272Z" fill="white"/>
<path d="M182.297 0.32803V11H180.598V1.70403H174.192V11H172.493V0.32803H182.297Z" fill="white"/>
<path d="M190.722 9.83203C191.37 9.83203 191.966 9.7307 192.509 9.52803C193.052 9.3147 193.518 9.0267 193.907 8.66403C194.296 8.2907 194.597 7.84803 194.809 7.33603C195.034 6.81336 195.146 6.24803 195.146 5.64003C195.146 5.0107 195.04 4.44003 194.827 3.92803C194.615 3.41603 194.314 2.9787 193.925 2.61603C193.535 2.2427 193.069 1.9547 192.527 1.75203C191.984 1.54936 191.382 1.44803 190.722 1.44803C190.061 1.44803 189.459 1.54936 188.916 1.75203C188.374 1.9547 187.908 2.2427 187.518 2.61603C187.129 2.9787 186.828 3.41603 186.616 3.92803C186.403 4.44003 186.297 5.0107 186.297 5.64003C186.297 6.24803 186.403 6.81336 186.616 7.33603C186.84 7.84803 187.147 8.2907 187.536 8.66403C187.925 9.0267 188.391 9.3147 188.934 9.52803C189.477 9.7307 190.073 9.83203 190.722 9.83203ZM190.722 11.272C189.837 11.272 189.011 11.1334 188.244 10.856C187.489 10.568 186.834 10.1734 186.28 9.67203C185.737 9.1707 185.306 8.5787 184.988 7.89603C184.681 7.2027 184.528 6.45603 184.528 5.65603C184.528 4.85603 184.687 4.1147 185.005 3.43203C185.324 2.74936 185.76 2.15736 186.315 1.65603C186.869 1.1547 187.524 0.765363 188.279 0.48803C189.034 0.20003 189.848 0.0560303 190.722 0.0560303C191.606 0.0560303 192.426 0.20003 193.181 0.48803C193.936 0.765363 194.591 1.1547 195.146 1.65603C195.7 2.15736 196.131 2.74936 196.438 3.43203C196.756 4.1147 196.915 4.85603 196.915 5.65603C196.915 6.45603 196.756 7.2027 196.438 7.89603C196.131 8.5787 195.7 9.1707 195.146 9.67203C194.603 10.1734 193.948 10.568 193.181 10.856C192.426 11.1334 191.606 11.272 190.722 11.272Z" fill="white"/>
<path d="M205.814 3.80003C205.508 4.28003 205.224 4.64803 204.965 4.90403C204.717 5.14936 204.422 5.3307 204.08 5.44803C204.717 5.83203 205.378 6.47736 206.062 7.38403C206.746 8.2907 207.484 9.49603 208.274 11H206.434C206.174 10.5307 205.956 10.1467 205.779 9.84803C205.602 9.5387 205.437 9.2667 205.283 9.03203C205.13 8.7867 204.971 8.5467 204.806 8.31203C204.64 8.07736 204.434 7.80003 204.186 7.48003C203.809 6.98936 203.455 6.64803 203.124 6.45603C202.806 6.26403 202.434 6.16803 202.01 6.16803H200.824V11H199.125V0.32803H200.824V4.79203H202.222C202.658 4.79203 203.018 4.71203 203.301 4.55203C203.585 4.39203 203.844 4.12536 204.08 3.75203L206.186 0.32803H208.044L205.814 3.80003Z" fill="white"/>
<path d="M217.135 8.02403H212.286L211.082 11H209.295L213.595 1.06403C213.831 0.52003 214.238 0.24803 214.816 0.24803C215.347 0.24803 215.737 0.530697 215.984 1.09603L220.267 11H218.373L217.135 8.02403ZM214.728 1.92803L212.799 6.72803H216.621L214.728 1.92803Z" fill="white"/>
<path d="M223.621 4.80803H225.32C225.615 4.80803 225.893 4.77603 226.152 4.71203C226.412 4.64803 226.642 4.5467 226.842 4.40803C227.043 4.26936 227.202 4.09336 227.32 3.88003C227.438 3.6667 227.497 3.4107 227.497 3.11203C227.497 2.8027 227.432 2.54136 227.302 2.32803C227.184 2.1147 227.019 1.94403 226.807 1.81603C226.606 1.67736 226.376 1.58136 226.117 1.52803C225.857 1.46403 225.592 1.43203 225.32 1.43203C224.943 1.43203 224.607 1.48003 224.312 1.57603C224.017 1.67203 223.757 1.7947 223.533 1.94403C223.321 2.09336 223.132 2.25336 222.967 2.42403C222.802 2.5947 222.66 2.74936 222.542 2.88803L221.356 2.08803C221.51 1.8747 221.698 1.6507 221.923 1.41603C222.159 1.18136 222.442 0.962696 222.772 0.76003C223.114 0.557363 223.503 0.39203 223.94 0.26403C224.388 0.13603 224.896 0.0720301 225.462 0.0720301C226.064 0.0720301 226.595 0.15203 227.055 0.31203C227.527 0.461363 227.916 0.66403 228.223 0.92003C228.541 1.17603 228.777 1.48003 228.931 1.83203C229.096 2.17336 229.178 2.53603 229.178 2.92003C229.178 3.51736 228.995 4.0507 228.63 4.52003C228.276 4.9787 227.78 5.27736 227.143 5.41603C227.462 5.48003 227.763 5.5867 228.046 5.73603C228.341 5.8747 228.594 6.05603 228.807 6.28003C229.031 6.50403 229.208 6.7707 229.338 7.08003C229.467 7.38936 229.532 7.7467 229.532 8.15203C229.532 8.68536 229.42 9.14936 229.196 9.54403C228.984 9.92803 228.689 10.248 228.311 10.504C227.934 10.76 227.497 10.9467 227.002 11.064C226.506 11.192 225.975 11.256 225.409 11.256C224.784 11.256 224.229 11.1867 223.745 11.048C223.262 10.9094 222.837 10.7387 222.471 10.536C222.117 10.3334 221.816 10.1147 221.569 9.88003C221.333 9.64536 221.144 9.43203 221.002 9.24003L222.223 8.42403C222.33 8.55203 222.465 8.70136 222.63 8.87203C222.796 9.0427 223.002 9.2027 223.25 9.35203C223.498 9.50136 223.793 9.62936 224.135 9.73603C224.477 9.8427 224.872 9.89603 225.32 9.89603C225.651 9.89603 225.963 9.86403 226.258 9.80003C226.565 9.72536 226.83 9.61336 227.055 9.46403C227.291 9.3147 227.473 9.11736 227.603 8.87203C227.745 8.61603 227.816 8.31203 227.816 7.96003C227.816 7.60803 227.745 7.3147 227.603 7.08003C227.473 6.84536 227.297 6.6587 227.072 6.52003C226.86 6.38136 226.612 6.28536 226.329 6.23203C226.046 6.16803 225.757 6.13603 225.462 6.13603H223.621V4.80803Z" fill="white"/>
<path d="M238.029 8.02403H233.18L231.976 11H230.189L234.489 1.06403C234.725 0.52003 235.132 0.24803 235.71 0.24803C236.241 0.24803 236.631 0.530697 236.878 1.09603L241.161 11H239.267L238.029 8.02403ZM235.622 1.92803L233.693 6.72803H237.515L235.622 1.92803Z" fill="white"/>
<path d="M242.71 0.32803H244.409V4.79203H250.869V0.32803H252.568V11H250.869V6.16803H244.409V11H242.71V0.32803Z" fill="white"/>
<path d="M256.921 8.88803L262.779 1.00003C263.156 0.498697 263.581 0.24803 264.053 0.24803C264.359 0.24803 264.607 0.338696 264.796 0.52003C264.985 0.690696 265.079 0.925363 265.079 1.22403V11H263.416V2.40803L257.434 10.488C257.292 10.6694 257.121 10.8134 256.921 10.92C256.732 11.0267 256.532 11.08 256.319 11.08C255.989 11.08 255.729 10.9894 255.54 10.808C255.352 10.616 255.257 10.3654 255.257 10.056V0.32803H256.921V8.88803Z" fill="white"/>
<path d="M266.867 11C267.079 10.5094 267.309 10.024 267.557 9.54403C267.805 9.06403 268.053 8.62136 268.301 8.21603C268.548 7.8107 268.79 7.44803 269.026 7.12803C269.274 6.80803 269.498 6.55203 269.699 6.36003C268.967 6.1147 268.407 5.7467 268.017 5.25603C267.64 4.76536 267.451 4.16803 267.451 3.46403C267.451 2.50403 267.805 1.74136 268.513 1.17603C269.233 0.610696 270.247 0.32803 271.557 0.32803H275.326V11H273.68V6.63203H272.035C271.551 6.63203 271.126 6.87203 270.76 7.35203C270.406 7.83203 270.053 8.3867 269.699 9.01603C269.345 9.6347 269.002 10.296 268.672 11H266.867ZM273.68 5.33603V1.65603H271.451C270.743 1.65603 270.188 1.82136 269.787 2.15203C269.386 2.47203 269.185 2.92536 269.185 3.51203C269.185 4.08803 269.392 4.53603 269.805 4.85603C270.218 5.17603 270.778 5.33603 271.486 5.33603H273.68Z" fill="white"/>
<path d="M278.92 11.064C278.614 11.064 278.354 10.9734 278.142 10.792C277.941 10.6 277.841 10.3654 277.841 10.088C277.841 9.8107 277.941 9.58136 278.142 9.40003C278.354 9.20803 278.614 9.11203 278.92 9.11203C279.227 9.11203 279.481 9.20803 279.681 9.40003C279.894 9.58136 280 9.8107 280 10.088C280 10.3654 279.894 10.6 279.681 10.792C279.481 10.9734 279.227 11.064 278.92 11.064Z" fill="white"/>
<path d="M15.7283 52.9519C15.0801 52.4292 14.2508 52.0239 13.2404 51.7359C12.23 51.4372 11.1528 51.2879 10.0089 51.2879C8.94131 51.2879 7.96901 51.3892 7.09204 51.5919C6.21507 51.7945 5.46202 52.0825 4.83288 52.4559C4.22281 52.8185 3.7462 53.2612 3.40304 53.7839C3.05987 54.2959 2.88829 54.8719 2.88829 55.5119C2.88829 56.1412 3.05034 56.7119 3.37444 57.2239C3.7176 57.7252 4.19422 58.1572 4.80429 58.5199C5.43342 58.8825 6.17694 59.1652 7.03485 59.3679C7.89276 59.5599 8.85552 59.6559 9.92314 59.6559C11.0289 59.6559 12.0393 59.5332 12.9544 59.2879C13.8695 59.0425 14.8037 58.6372 15.7569 58.0719L17.6729 58.9679C17.3297 59.2559 16.8722 59.5332 16.3003 59.7999C15.7283 60.0559 15.0897 60.2799 14.3843 60.4719C13.6789 60.6639 12.9354 60.8132 12.1537 60.9199C11.3911 61.0372 10.6476 61.0959 9.92314 61.0959C8.45516 61.0959 7.11111 60.9625 5.89097 60.6959C4.67083 60.4292 3.62228 60.0505 2.74531 59.5599C1.86833 59.0692 1.19154 58.4825 0.714923 57.7999C0.238308 57.1172 0 56.3652 0 55.5439C0 54.7332 0.24784 53.9812 0.74352 53.2879C1.2392 52.5945 1.92553 52.0025 2.8025 51.5119C3.69854 51.0105 4.75662 50.6212 5.97676 50.3439C7.1969 50.0559 8.53142 49.9119 9.98033 49.9119C10.762 49.9119 11.5246 49.9652 12.2681 50.0719C13.0307 50.1679 13.7456 50.3065 14.4129 50.4879C15.0801 50.6692 15.6902 50.8932 16.2431 51.1599C16.815 51.4159 17.2916 51.7039 17.6729 52.0239L15.7283 52.9519Z" fill="white"/>
<path d="M28.8874 59.6719C29.9359 59.6719 30.8987 59.5705 31.7757 59.3679C32.6526 59.1545 33.4057 58.8665 34.0348 58.5039C34.664 58.1305 35.1501 57.6879 35.4933 57.1759C35.8555 56.6532 36.0366 56.0879 36.0366 55.4799C36.0366 54.8505 35.865 54.2799 35.5219 53.7679C35.1787 53.2559 34.6926 52.8185 34.0634 52.4559C33.4343 52.0825 32.6812 51.7945 31.8043 51.5919C30.9273 51.3892 29.955 51.2879 28.8874 51.2879C27.8198 51.2879 26.8475 51.3892 25.9705 51.5919C25.0935 51.7945 24.3405 52.0825 23.7113 52.4559C23.0822 52.8185 22.5961 53.2559 22.2529 53.7679C21.9097 54.2799 21.7381 54.8505 21.7381 55.4799C21.7381 56.0879 21.9097 56.6532 22.2529 57.1759C22.6151 57.6879 23.1108 58.1305 23.7399 58.5039C24.3691 58.8665 25.1221 59.1545 25.9991 59.3679C26.8761 59.5705 27.8388 59.6719 28.8874 59.6719ZM28.8874 61.1119C27.4575 61.1119 26.123 60.9732 24.8838 60.6959C23.6637 60.4079 22.6056 60.0132 21.7095 59.5119C20.8326 59.0105 20.1367 58.4185 19.622 57.7359C19.1263 57.0425 18.8784 56.2959 18.8784 55.4959C18.8784 54.6959 19.1358 53.9545 19.6506 53.2719C20.1653 52.5892 20.8707 51.9972 21.7667 51.4959C22.6628 50.9945 23.7209 50.6052 24.941 50.3279C26.1611 50.0399 27.4766 49.8959 28.8874 49.8959C30.3172 49.8959 31.6422 50.0399 32.8624 50.3279C34.0825 50.6052 35.1406 50.9945 36.0366 51.4959C36.9326 51.9972 37.6285 52.5892 38.1242 53.2719C38.6389 53.9545 38.8963 54.6959 38.8963 55.4959C38.8963 56.2959 38.6389 57.0425 38.1242 57.7359C37.6285 58.4185 36.9326 59.0105 36.0366 59.5119C35.1596 60.0132 34.1016 60.4079 32.8624 60.6959C31.6422 60.9732 30.3172 61.1119 28.8874 61.1119Z" fill="white"/>
<path d="M62.5893 52.9519C61.9411 52.4292 61.1118 52.0239 60.1014 51.7359C59.091 51.4372 58.0138 51.2879 56.8699 51.2879C55.8023 51.2879 54.83 51.3892 53.953 51.5919C53.0761 51.7945 52.323 52.0825 51.6939 52.4559C51.0838 52.8185 50.6072 53.2612 50.264 53.7839C49.9209 54.2959 49.7493 54.8719 49.7493 55.5119C49.7493 56.1412 49.9113 56.7119 50.2354 57.2239C50.5786 57.7252 51.0552 58.1572 51.6653 58.5199C52.2944 58.8825 53.0379 59.1652 53.8958 59.3679C54.7538 59.5599 55.7165 59.6559 56.7841 59.6559C57.8899 59.6559 58.9003 59.5332 59.8154 59.2879C60.7305 59.0425 61.6647 58.6372 62.6179 58.0719L64.5339 58.9679C64.1907 59.2559 63.7332 59.5332 63.1613 59.7999C62.5893 60.0559 61.9507 60.2799 61.2453 60.4719C60.5399 60.6639 59.7963 60.8132 59.0147 60.9199C58.2521 61.0372 57.5086 61.0959 56.7841 61.0959C55.3162 61.0959 53.9721 60.9625 52.752 60.6959C51.5318 60.4292 50.4833 60.0505 49.6063 59.5599C48.7293 59.0692 48.0525 58.4825 47.5759 57.7999C47.0993 57.1172 46.861 56.3652 46.861 55.5439C46.861 54.7332 47.1088 53.9812 47.6045 53.2879C48.1002 52.5945 48.7865 52.0025 49.6635 51.5119C50.5595 51.0105 51.6176 50.6212 52.8378 50.3439C54.0579 50.0559 55.3924 49.9119 56.8413 49.9119C57.623 49.9119 58.3856 49.9652 59.1291 50.0719C59.8917 50.1679 60.6066 50.3065 61.2739 50.4879C61.9411 50.6692 62.5512 50.8932 63.1041 51.1599C63.676 51.4159 64.1526 51.7039 64.5339 52.0239L62.5893 52.9519Z" fill="white"/>
<path d="M82.857 50.1679V60.8399H80.1116V51.5439H69.7595V60.8399H67.0142V50.1679H82.857Z" fill="white"/>
<path d="M88.6916 60.8399C88.2531 60.8399 87.9004 60.7705 87.6335 60.6319C87.3666 60.4932 87.2332 60.2852 87.2332 60.0079V50.1679H99.2439V51.5279H89.9785V54.6319H96.9561V56.0079H89.9785V59.4639H99.9302V60.8399H88.6916Z" fill="white"/>
<path d="M118.188 60.8399H103.375V50.1679H106.12V59.4639H116.329V50.1679H119.075V59.4639H120.676V63.3039H118.188V60.8399Z" fill="white"/>
<path d="M126.561 58.7279L136.027 50.8399C136.637 50.3385 137.323 50.0879 138.086 50.0879C138.581 50.0879 138.982 50.1785 139.287 50.3599C139.592 50.5305 139.744 50.7652 139.744 51.0639V60.8399H137.056V52.2479L127.39 60.3279C127.162 60.5092 126.885 60.6532 126.561 60.7599C126.256 60.8665 125.932 60.9199 125.589 60.9199C125.055 60.9199 124.636 60.8292 124.331 60.6479C124.026 60.4559 123.873 60.2052 123.873 59.8959V50.1679H126.561V58.7279Z" fill="white"/>
<path d="M154.93 57.8639H147.095L145.15 60.8399H142.262L149.211 50.9039C149.592 50.3599 150.25 50.0879 151.184 50.0879C152.042 50.0879 152.671 50.3705 153.071 50.9359L159.992 60.8399H156.932L154.93 57.8639ZM151.041 51.7679L147.924 56.5679H154.101L151.041 51.7679Z" fill="white"/>
<path d="M167.479 51.0799C167.498 50.8025 167.632 50.5839 167.88 50.4239C168.147 50.2532 168.518 50.1679 168.995 50.1679H179.461V60.8399H176.716V51.5439H170.11C169.996 53.2185 169.758 54.6479 169.395 55.8319C169.033 57.0052 168.537 57.9705 167.908 58.7279C167.279 59.4745 166.497 60.0239 165.563 60.3759C164.648 60.7172 163.562 60.8879 162.303 60.8879H161.903V59.4959C162.818 59.4959 163.6 59.3465 164.248 59.0479C164.915 58.7385 165.468 58.2479 165.906 57.5759C166.345 56.9039 166.688 56.0345 166.936 54.9679C167.203 53.9012 167.384 52.6052 167.479 51.0799Z" fill="white"/>
<path d="M186.492 58.7279L195.957 50.8399C196.567 50.3385 197.254 50.0879 198.016 50.0879C198.512 50.0879 198.912 50.1785 199.217 50.3599C199.522 50.5305 199.675 50.7652 199.675 51.0639V60.8399H196.987V52.2479L187.321 60.3279C187.092 60.5092 186.816 60.6532 186.492 60.7599C186.187 60.8665 185.863 60.9199 185.52 60.9199C184.986 60.9199 184.566 60.8292 184.261 60.6479C183.956 60.4559 183.804 60.2052 183.804 59.8959V50.1679H186.492V58.7279Z" fill="white"/>
<path d="M218.979 52.9519C218.331 52.4292 217.501 52.0239 216.491 51.7359C215.48 51.4372 214.403 51.2879 213.259 51.2879C212.192 51.2879 211.22 51.3892 210.343 51.5919C209.466 51.7945 208.713 52.0825 208.083 52.4559C207.473 52.8185 206.997 53.2612 206.654 53.7839C206.31 54.2959 206.139 54.8719 206.139 55.5119C206.139 56.1412 206.301 56.7119 206.625 57.2239C206.968 57.7252 207.445 58.1572 208.055 58.5199C208.684 58.8825 209.427 59.1652 210.285 59.3679C211.143 59.5599 212.106 59.6559 213.174 59.6559C214.279 59.6559 215.29 59.5332 216.205 59.2879C217.12 59.0425 218.054 58.6372 219.007 58.0719L220.923 58.9679C220.58 59.2559 220.123 59.5332 219.551 59.7999C218.979 60.0559 218.34 60.2799 217.635 60.4719C216.929 60.6639 216.186 60.8132 215.404 60.9199C214.642 61.0372 213.898 61.0959 213.174 61.0959C211.706 61.0959 210.362 60.9625 209.141 60.6959C207.921 60.4292 206.873 60.0505 205.996 59.5599C205.119 59.0692 204.442 58.4825 203.965 57.7999C203.489 57.1172 203.251 56.3652 203.251 55.5439C203.251 54.7332 203.498 53.9812 203.994 53.2879C204.49 52.5945 205.176 52.0025 206.053 51.5119C206.949 51.0105 208.007 50.6212 209.227 50.3439C210.447 50.0559 211.782 49.9119 213.231 49.9119C214.012 49.9119 214.775 49.9652 215.519 50.0719C216.281 50.1679 216.996 50.3065 217.663 50.4879C218.331 50.6692 218.941 50.8932 219.494 51.1599C220.066 51.4159 220.542 51.7039 220.923 52.0239L218.979 52.9519Z" fill="white"/>
<path d="M228.193 51.5119H221.358V50.1679H237.744V51.5119H230.938V60.8399H228.193V51.5119Z" fill="white"/>
<path d="M247.833 59.6719C248.881 59.6719 249.844 59.5705 250.721 59.3679C251.598 59.1545 252.351 58.8665 252.98 58.5039C253.609 58.1305 254.095 57.6879 254.439 57.1759C254.801 56.6532 254.982 56.0879 254.982 55.4799C254.982 54.8505 254.81 54.2799 254.467 53.7679C254.124 53.2559 253.638 52.8185 253.009 52.4559C252.38 52.0825 251.627 51.7945 250.75 51.5919C249.873 51.3892 248.9 51.2879 247.833 51.2879C246.765 51.2879 245.793 51.3892 244.916 51.5919C244.039 51.7945 243.286 52.0825 242.657 52.4559C242.028 52.8185 241.541 53.2559 241.198 53.7679C240.855 54.2799 240.683 54.8505 240.683 55.4799C240.683 56.0879 240.855 56.6532 241.198 57.1759C241.56 57.6879 242.056 58.1305 242.685 58.5039C243.314 58.8665 244.067 59.1545 244.944 59.3679C245.821 59.5705 246.784 59.6719 247.833 59.6719ZM247.833 61.1119C246.403 61.1119 245.068 60.9732 243.829 60.6959C242.609 60.4079 241.551 60.0132 240.655 59.5119C239.778 59.0105 239.082 58.4185 238.567 57.7359C238.072 57.0425 237.824 56.2959 237.824 55.4959C237.824 54.6959 238.081 53.9545 238.596 53.2719C239.111 52.5892 239.816 51.9972 240.712 51.4959C241.608 50.9945 242.666 50.6052 243.886 50.3279C245.106 50.0399 246.422 49.8959 247.833 49.8959C249.263 49.8959 250.588 50.0399 251.808 50.3279C253.028 50.6052 254.086 50.9945 254.982 51.4959C255.878 51.9972 256.574 52.5892 257.07 53.2719C257.584 53.9545 257.842 54.6959 257.842 55.4959C257.842 56.2959 257.584 57.0425 257.07 57.7359C256.574 58.4185 255.878 59.0105 254.982 59.5119C254.105 60.0132 253.047 60.4079 251.808 60.6959C250.588 60.9732 249.263 61.1119 247.833 61.1119Z" fill="white"/>
<path d="M263.013 50.0879C263.662 50.0879 264.224 50.3119 264.701 50.7599L270.706 56.3279L276.597 50.8559C276.902 50.5785 277.197 50.3812 277.483 50.2639C277.769 50.1465 278.113 50.0879 278.513 50.0879C278.951 50.0879 279.304 50.1785 279.571 50.3599C279.857 50.5305 280 50.7599 280 51.0479V60.8399H277.426V52.4399L272.136 57.3679C271.793 57.6879 271.307 57.8479 270.677 57.8479C270.372 57.8479 270.077 57.7999 269.791 57.7039C269.505 57.6079 269.276 57.4745 269.105 57.3039L263.986 52.5039V60.8399H261.412V51.0639C261.412 50.7545 261.555 50.5145 261.841 50.3439C262.127 50.1732 262.518 50.0879 263.013 50.0879Z" fill="white"/>
<path d="M0 32.7599H1.36674V37.2239H6.5632V32.7599H7.92994V43.4319H6.5632V38.5999H1.36674V43.4319H0V32.7599Z" fill="white"/>
<path d="M10.8198 43.4319C10.6015 43.4319 10.4259 43.3626 10.293 43.2239C10.1602 43.0852 10.0937 42.8772 10.0937 42.5999V32.7599H16.0732V34.1199H11.4605V37.2239H14.9343V38.5999H11.4605V42.0559H16.4149V43.4319H10.8198Z" fill="white"/>
<path d="M22.1583 42.2639C22.6803 42.2639 23.1596 42.1626 23.5962 41.9599C24.0328 41.7466 24.4077 41.4586 24.7209 41.0959C25.0341 40.7226 25.2761 40.2799 25.447 39.7679C25.6273 39.2452 25.7175 38.6799 25.7175 38.0719C25.7175 37.4426 25.6321 36.8719 25.4612 36.3599C25.2904 35.8479 25.0483 35.4106 24.7351 35.0479C24.4219 34.6746 24.047 34.3866 23.6104 34.1839C23.1738 33.9812 22.6898 33.8799 22.1583 33.8799C21.6267 33.8799 21.1427 33.9812 20.7061 34.1839C20.2695 34.3866 19.8946 34.6746 19.5814 35.0479C19.2682 35.4106 19.0261 35.8479 18.8553 36.3599C18.6845 36.8719 18.599 37.4426 18.599 38.0719C18.599 38.6799 18.6845 39.2452 18.8553 39.7679C19.0356 40.2799 19.2824 40.7226 19.5956 41.0959C19.9088 41.4586 20.2837 41.7466 20.7203 41.9599C21.1569 42.1626 21.6362 42.2639 22.1583 42.2639ZM22.1583 43.7039C21.4464 43.7039 20.782 43.5652 20.1651 43.2879C19.5577 42.9999 19.0309 42.6052 18.5848 42.1039C18.1482 41.6026 17.8018 41.0106 17.5455 40.3279C17.2987 39.6346 17.1753 38.8879 17.1753 38.0879C17.1753 37.2879 17.3035 36.5466 17.5597 35.8639C17.816 35.1812 18.1672 34.5892 18.6133 34.0879C19.0594 33.5866 19.5861 33.1972 20.1936 32.9199C20.801 32.6319 21.4559 32.4879 22.1583 32.4879C22.8701 32.4879 23.5297 32.6319 24.1372 32.9199C24.7446 33.1972 25.2714 33.5866 25.7175 34.0879C26.1636 34.5892 26.51 35.1812 26.7568 35.8639C27.013 36.5466 27.1412 37.2879 27.1412 38.0879C27.1412 38.8879 27.013 39.6346 26.7568 40.3279C26.51 41.0106 26.1636 41.6026 25.7175 42.1039C25.2809 42.6052 24.7541 42.9999 24.1372 43.2879C23.5297 43.5652 22.8701 43.7039 22.1583 43.7039Z" fill="white"/>
<path d="M34.6704 32.7599V34.0879H30.2854V36.9199H32.1362C33.2182 36.9199 34.0534 37.2079 34.6419 37.7839C35.2303 38.3492 35.5246 39.1332 35.5246 40.1359C35.5246 40.5519 35.4629 40.9626 35.3395 41.3679C35.2161 41.7626 35.0168 42.1146 34.7415 42.4239C34.4758 42.7226 34.1199 42.9679 33.6738 43.1599C33.2372 43.3412 32.7009 43.4319 32.065 43.4319H28.9187V32.7599H34.6704ZM30.2854 42.1199H32.1077C32.7341 42.1199 33.2229 41.9599 33.5741 41.6399C33.9348 41.3199 34.1151 40.8346 34.1151 40.1839C34.1151 39.5439 33.9348 39.0586 33.5741 38.7279C33.2229 38.3972 32.7341 38.2319 32.1077 38.2319H30.2854V42.1199Z" fill="white"/>
<path d="M39.6534 37.9119L36.5213 32.7599H38.1727L40.4791 36.6479L42.757 32.7599H44.2519L41.2052 37.8639L44.5793 43.4319H42.9421L40.3937 39.1279L37.8453 43.4319H36.3362L39.6534 37.9119Z" fill="white"/>
<path d="M49.8256 42.2639C50.3476 42.2639 50.827 42.1626 51.2635 41.9599C51.7001 41.7466 52.075 41.4586 52.3883 41.0959C52.7015 40.7226 52.9435 40.2799 53.1143 39.7679C53.2947 39.2452 53.3848 38.6799 53.3848 38.0719C53.3848 37.4426 53.2994 36.8719 53.1286 36.3599C52.9577 35.8479 52.7157 35.4106 52.4025 35.0479C52.0893 34.6746 51.7144 34.3866 51.2778 34.1839C50.8412 33.9812 50.3571 33.8799 49.8256 33.8799C49.2941 33.8799 48.8101 33.9812 48.3735 34.1839C47.9369 34.3866 47.562 34.6746 47.2487 35.0479C46.9355 35.4106 46.6935 35.8479 46.5227 36.3599C46.3518 36.8719 46.2664 37.4426 46.2664 38.0719C46.2664 38.6799 46.3518 39.2452 46.5227 39.7679C46.703 40.2799 46.9498 40.7226 47.263 41.0959C47.5762 41.4586 47.9511 41.7466 48.3877 41.9599C48.8243 42.1626 49.3036 42.2639 49.8256 42.2639ZM49.8256 43.7039C49.1138 43.7039 48.4494 43.5652 47.8325 43.2879C47.225 42.9999 46.6983 42.6052 46.2522 42.1039C45.8156 41.6026 45.4691 41.0106 45.2129 40.3279C44.9661 39.6346 44.8427 38.8879 44.8427 38.0879C44.8427 37.2879 44.9708 36.5466 45.2271 35.8639C45.4834 35.1812 45.8346 34.5892 46.2806 34.0879C46.7267 33.5866 47.2535 33.1972 47.8609 32.9199C48.4684 32.6319 49.1233 32.4879 49.8256 32.4879C50.5375 32.4879 51.1971 32.6319 51.8046 32.9199C52.412 33.1972 52.9388 33.5866 53.3848 34.0879C53.8309 34.5892 54.1774 35.1812 54.4241 35.8639C54.6804 36.5466 54.8085 37.2879 54.8085 38.0879C54.8085 38.8879 54.6804 39.6346 54.4241 40.3279C54.1774 41.0106 53.8309 41.6026 53.3848 42.1039C52.9482 42.6052 52.4215 42.9999 51.8046 43.2879C51.1971 43.5652 50.5375 43.7039 49.8256 43.7039Z" fill="white"/>
<path d="M62.417 34.1359H59.1568C59.0809 35.1279 58.9859 36.0132 58.872 36.7919C58.7581 37.5706 58.6158 38.2746 58.4449 38.9039C58.2836 39.5226 58.089 40.0879 57.8612 40.5999C57.6429 41.1119 57.3962 41.5972 57.1209 42.0559H62.417V34.1359ZM57.9324 33.4959C57.9514 33.2719 58.0178 33.0959 58.1317 32.9679C58.2456 32.8292 58.4117 32.7599 58.63 32.7599H63.7411V42.0559H64.5383V45.8959H63.2997V43.4319H56.1101V45.8959H54.8715V42.0559H55.6118C55.9725 41.5332 56.2809 40.9839 56.5372 40.4079C56.7935 39.8319 57.0118 39.2026 57.1921 38.5199C57.3819 37.8372 57.5338 37.0852 57.6477 36.2639C57.7616 35.4426 57.8565 34.5199 57.9324 33.4959Z" fill="white"/>
<path d="M67.4758 41.3199L72.1882 33.4319C72.4919 32.9306 72.8336 32.6799 73.2133 32.6799C73.46 32.6799 73.6593 32.7706 73.8112 32.9519C73.9631 33.1226 74.039 33.3572 74.039 33.6559V43.4319H72.7007V34.8399L67.8887 42.9199C67.7748 43.1012 67.6371 43.2452 67.4758 43.3519C67.3239 43.4586 67.1626 43.5119 66.9917 43.5119C66.726 43.5119 66.5172 43.4212 66.3653 43.2399C66.2135 43.0479 66.1375 42.7972 66.1375 42.4879V32.7599H67.4758V41.3199Z" fill="white"/>
<path d="M77.0007 32.6799C77.3234 32.6799 77.6034 32.9039 77.8407 33.3519L80.8304 38.9199L83.7632 33.4479C83.9151 33.1706 84.0622 32.9732 84.2046 32.8559C84.3469 32.7386 84.5178 32.6799 84.7171 32.6799C84.9354 32.6799 85.111 32.7706 85.2439 32.9519C85.3862 33.1226 85.4574 33.3519 85.4574 33.6399V43.4319H84.1761V35.0319L81.5423 39.9599C81.3714 40.2799 81.1294 40.4399 80.8162 40.4399C80.6643 40.4399 80.5172 40.3919 80.3749 40.2959C80.2325 40.1999 80.1186 40.0666 80.0332 39.8959L77.4848 35.0959V43.4319H76.2034V33.6559C76.2034 33.3466 76.2746 33.1066 76.417 32.9359C76.5594 32.7652 76.7539 32.6799 77.0007 32.6799Z" fill="white"/>
<path d="M92.2165 42.2639C92.7385 42.2639 93.2178 42.1626 93.6544 41.9599C94.091 41.7466 94.4659 41.4586 94.7791 41.0959C95.0923 40.7226 95.3344 40.2799 95.5052 39.7679C95.6855 39.2452 95.7757 38.6799 95.7757 38.0719C95.7757 37.4426 95.6903 36.8719 95.5194 36.3599C95.3486 35.8479 95.1066 35.4106 94.7934 35.0479C94.4801 34.6746 94.1052 34.3866 93.6686 34.1839C93.232 33.9812 92.748 33.8799 92.2165 33.8799C91.685 33.8799 91.2009 33.9812 90.7643 34.1839C90.3277 34.3866 89.9528 34.6746 89.6396 35.0479C89.3264 35.4106 89.0844 35.8479 88.9135 36.3599C88.7427 36.8719 88.6573 37.4426 88.6573 38.0719C88.6573 38.6799 88.7427 39.2452 88.9135 39.7679C89.0939 40.2799 89.3406 40.7226 89.6538 41.0959C89.9671 41.4586 90.342 41.7466 90.7786 41.9599C91.2152 42.1626 91.6945 42.2639 92.2165 42.2639ZM92.2165 43.7039C91.5046 43.7039 90.8403 43.5652 90.2233 43.2879C89.6159 42.9999 89.0891 42.6052 88.643 42.1039C88.2064 41.6026 87.86 41.0106 87.6037 40.3279C87.357 39.6346 87.2336 38.8879 87.2336 38.0879C87.2336 37.2879 87.3617 36.5466 87.618 35.8639C87.8742 35.1812 88.2254 34.5892 88.6715 34.0879C89.1176 33.5866 89.6444 33.1972 90.2518 32.9199C90.8592 32.6319 91.5141 32.4879 92.2165 32.4879C92.9283 32.4879 93.588 32.6319 94.1954 32.9199C94.8028 33.1972 95.3296 33.5866 95.7757 34.0879C96.2218 34.5892 96.5682 35.1812 96.815 35.8639C97.0713 36.5466 97.1994 37.2879 97.1994 38.0879C97.1994 38.8879 97.0713 39.6346 96.815 40.3279C96.5682 41.0106 96.2218 41.6026 95.7757 42.1039C95.3391 42.6052 94.8123 42.9999 94.1954 43.2879C93.588 43.5652 92.9283 43.7039 92.2165 43.7039Z" fill="white"/>
<path d="M109.436 32.7599V43.4319H108.069V34.1359H102.916V43.4319H101.549V32.7599H109.436Z" fill="white"/>
<path d="M111.615 32.7599H114.619C115.264 32.7599 115.796 32.8612 116.213 33.0639C116.641 33.2666 116.977 33.5226 117.224 33.8319C117.48 34.1412 117.656 34.4879 117.751 34.8719C117.855 35.2559 117.908 35.6292 117.908 35.9919C117.908 36.5252 117.827 36.9946 117.666 37.3999C117.504 37.8052 117.281 38.1466 116.996 38.4239C116.712 38.6906 116.37 38.8932 115.971 39.0319C115.582 39.1706 115.155 39.2399 114.69 39.2399H112.967V43.4319H111.615V32.7599ZM114.676 37.9279C115.264 37.9279 115.715 37.7626 116.028 37.4319C116.351 37.0906 116.512 36.6212 116.512 36.0239C116.512 35.4159 116.346 34.9412 116.014 34.5999C115.691 34.2479 115.245 34.0719 114.676 34.0719H112.967V37.9279H114.676Z" fill="white"/>
<path d="M124.138 42.2639C124.66 42.2639 125.14 42.1626 125.576 41.9599C126.013 41.7466 126.388 41.4586 126.701 41.0959C127.014 40.7226 127.256 40.2799 127.427 39.7679C127.607 39.2452 127.697 38.6799 127.697 38.0719C127.697 37.4426 127.612 36.8719 127.441 36.3599C127.27 35.8479 127.028 35.4106 126.715 35.0479C126.402 34.6746 126.027 34.3866 125.59 34.1839C125.154 33.9812 124.67 33.8799 124.138 33.8799C123.607 33.8799 123.123 33.9812 122.686 34.1839C122.249 34.3866 121.875 34.6746 121.561 35.0479C121.248 35.4106 121.006 35.8479 120.835 36.3599C120.664 36.8719 120.579 37.4426 120.579 38.0719C120.579 38.6799 120.664 39.2452 120.835 39.7679C121.016 40.2799 121.262 40.7226 121.576 41.0959C121.889 41.4586 122.264 41.7466 122.7 41.9599C123.137 42.1626 123.616 42.2639 124.138 42.2639ZM124.138 43.7039C123.426 43.7039 122.762 43.5652 122.145 43.2879C121.538 42.9999 121.011 42.6052 120.565 42.1039C120.128 41.6026 119.782 41.0106 119.525 40.3279C119.279 39.6346 119.155 38.8879 119.155 38.0879C119.155 37.2879 119.283 36.5466 119.54 35.8639C119.796 35.1812 120.147 34.5892 120.593 34.0879C121.039 33.5866 121.566 33.1972 122.174 32.9199C122.781 32.6319 123.436 32.4879 124.138 32.4879C124.85 32.4879 125.51 32.6319 126.117 32.9199C126.725 33.1972 127.251 33.5866 127.697 34.0879C128.144 34.5892 128.49 35.1812 128.737 35.8639C128.993 36.5466 129.121 37.2879 129.121 38.0879C129.121 38.8879 128.993 39.6346 128.737 40.3279C128.49 41.0106 128.144 41.6026 127.697 42.1039C127.261 42.6052 126.734 42.9999 126.117 43.2879C125.51 43.5652 124.85 43.7039 124.138 43.7039Z" fill="white"/>
<path d="M136.28 36.2319C136.033 36.7119 135.806 37.0799 135.597 37.3359C135.397 37.5812 135.16 37.7626 134.885 37.8799C135.397 38.2639 135.929 38.9092 136.479 39.8159C137.03 40.7226 137.623 41.9279 138.259 43.4319H136.778C136.57 42.9626 136.394 42.5786 136.252 42.2799C136.109 41.9706 135.976 41.6986 135.853 41.4639C135.73 41.2186 135.602 40.9786 135.469 40.7439C135.336 40.5092 135.17 40.2319 134.97 39.9119C134.667 39.4212 134.382 39.0799 134.116 38.8879C133.86 38.6959 133.561 38.5999 133.219 38.5999H132.265V43.4319H130.899V32.7599H132.265V37.2239H133.39C133.741 37.2239 134.031 37.1439 134.259 36.9839C134.486 36.8239 134.695 36.5572 134.885 36.1839L136.579 32.7599H138.074L136.28 36.2319Z" fill="white"/>
<path d="M143.519 42.2639C144.041 42.2639 144.521 42.1626 144.957 41.9599C145.394 41.7466 145.769 41.4586 146.082 41.0959C146.395 40.7226 146.637 40.2799 146.808 39.7679C146.988 39.2452 147.079 38.6799 147.079 38.0719C147.079 37.4426 146.993 36.8719 146.822 36.3599C146.651 35.8479 146.409 35.4106 146.096 35.0479C145.783 34.6746 145.408 34.3866 144.971 34.1839C144.535 33.9812 144.051 33.8799 143.519 33.8799C142.988 33.8799 142.504 33.9812 142.067 34.1839C141.631 34.3866 141.256 34.6746 140.942 35.0479C140.629 35.4106 140.387 35.8479 140.216 36.3599C140.045 36.8719 139.96 37.4426 139.96 38.0719C139.96 38.6799 140.045 39.2452 140.216 39.7679C140.397 40.2799 140.643 40.7226 140.957 41.0959C141.27 41.4586 141.645 41.7466 142.081 41.9599C142.518 42.1626 142.997 42.2639 143.519 42.2639ZM143.519 43.7039C142.807 43.7039 142.143 43.5652 141.526 43.2879C140.919 42.9999 140.392 42.6052 139.946 42.1039C139.509 41.6026 139.163 41.0106 138.907 40.3279C138.66 39.6346 138.536 38.8879 138.536 38.0879C138.536 37.2879 138.665 36.5466 138.921 35.8639C139.177 35.1812 139.528 34.5892 139.974 34.0879C140.42 33.5866 140.947 33.1972 141.555 32.9199C142.162 32.6319 142.817 32.4879 143.519 32.4879C144.231 32.4879 144.891 32.6319 145.498 32.9199C146.106 33.1972 146.632 33.5866 147.079 34.0879C147.525 34.5892 147.871 35.1812 148.118 35.8639C148.374 36.5466 148.502 37.2879 148.502 38.0879C148.502 38.8879 148.374 39.6346 148.118 40.3279C147.871 41.0106 147.525 41.6026 147.079 42.1039C146.642 42.6052 146.115 42.9999 145.498 43.2879C144.891 43.5652 144.231 43.7039 143.519 43.7039Z" fill="white"/>
<path d="M150.28 32.7599H151.646V37.2239H156.843V32.7599H158.21V43.4319H156.843V38.5999H151.646V43.4319H150.28V32.7599Z" fill="white"/>
<path d="M167.819 35.5439C167.497 35.0212 167.084 34.6159 166.581 34.3279C166.078 34.0292 165.541 33.8799 164.972 33.8799C164.44 33.8799 163.956 33.9812 163.52 34.1839C163.083 34.3866 162.708 34.6746 162.395 35.0479C162.091 35.4106 161.854 35.8532 161.683 36.3759C161.512 36.8879 161.427 37.4639 161.427 38.1039C161.427 38.7332 161.508 39.3039 161.669 39.8159C161.84 40.3172 162.077 40.7492 162.381 41.1119C162.694 41.4746 163.064 41.7572 163.491 41.9599C163.918 42.1519 164.398 42.2479 164.929 42.2479C165.48 42.2479 165.983 42.1252 166.438 41.8799C166.894 41.6346 167.359 41.2292 167.834 40.6639L168.787 41.5599C168.617 41.8479 168.389 42.1252 168.104 42.3919C167.819 42.6479 167.501 42.8719 167.15 43.0639C166.799 43.2559 166.429 43.4052 166.04 43.5119C165.66 43.6292 165.29 43.6879 164.929 43.6879C164.198 43.6879 163.529 43.5546 162.922 43.2879C162.314 43.0212 161.792 42.6426 161.356 42.1519C160.919 41.6612 160.582 41.0746 160.345 40.3919C160.108 39.7092 159.989 38.9572 159.989 38.1359C159.989 37.3252 160.112 36.5732 160.359 35.8799C160.606 35.1866 160.948 34.5946 161.384 34.1039C161.83 33.6026 162.357 33.2132 162.965 32.9359C163.572 32.6479 164.236 32.5039 164.958 32.5039C165.347 32.5039 165.726 32.5572 166.097 32.6639C166.476 32.7599 166.832 32.8986 167.164 33.0799C167.497 33.2612 167.8 33.4852 168.076 33.7519C168.36 34.0079 168.598 34.2959 168.787 34.6159L167.819 35.5439Z" fill="white"/>
<path d="M177.497 32.7599L173.838 41.2079C173.695 41.5492 173.539 41.8692 173.368 42.1679C173.207 42.4666 173.021 42.7332 172.813 42.9679C172.613 43.1919 172.386 43.3679 172.129 43.4959C171.873 43.6346 171.579 43.7039 171.247 43.7039C170.905 43.7039 170.587 43.6399 170.293 43.5119C170.008 43.3839 169.756 43.2292 169.538 43.0479L170.136 41.8959C170.288 42.0132 170.449 42.1199 170.62 42.2159C170.801 42.3012 171.005 42.3439 171.232 42.3439C171.403 42.3439 171.555 42.3119 171.688 42.2479C171.821 42.1839 171.944 42.0826 172.058 41.9439C172.181 41.7946 172.295 41.6132 172.4 41.3999C172.514 41.1759 172.637 40.9092 172.77 40.5999L169.125 32.7599H170.62L173.453 39.0319L176.087 32.7599H177.497Z" fill="white"/>
<path d="M179.038 33.6719C179.047 33.3946 179.114 33.1759 179.237 33.0159C179.37 32.8452 179.555 32.7599 179.792 32.7599H185.003V43.4319H183.636V34.1359H180.348C180.291 35.8106 180.172 37.2399 179.992 38.4239C179.811 39.5972 179.565 40.5626 179.251 41.3199C178.938 42.0666 178.549 42.6159 178.084 42.9679C177.628 43.3092 177.087 43.4799 176.461 43.4799H176.262V42.0879C176.717 42.0879 177.106 41.9386 177.429 41.6399C177.761 41.3306 178.037 40.8399 178.255 40.1679C178.473 39.4959 178.644 38.6266 178.767 37.5599C178.9 36.4932 178.99 35.1972 179.038 33.6719Z" fill="white"/>
<path d="M188.532 42.1199H190.354C190.98 42.1199 191.469 41.9492 191.82 41.6079C192.181 41.2666 192.361 40.7546 192.361 40.0719C192.361 39.3999 192.181 38.8879 191.82 38.5359C191.469 38.1732 190.98 37.9919 190.354 37.9919H188.532V42.1199ZM188.532 32.7599V36.6799H190.382C191.464 36.6799 192.3 36.9786 192.888 37.5759C193.477 38.1626 193.771 38.9732 193.771 40.0079C193.771 40.4452 193.709 40.8719 193.586 41.2879C193.462 41.6932 193.263 42.0559 192.988 42.3759C192.722 42.6959 192.366 42.9519 191.92 43.1439C191.483 43.3359 190.947 43.4319 190.311 43.4319H187.165V32.7599H188.532Z" fill="white"/>
<path d="M195.972 34.1039H192.57V32.7599H200.728V34.1039H197.339V43.4319H195.972V34.1039Z" fill="white"/>
<path d="M203.491 41.3199L208.203 33.4319C208.507 32.9306 208.849 32.6799 209.228 32.6799C209.475 32.6799 209.674 32.7706 209.826 32.9519C209.978 33.1226 210.054 33.3572 210.054 33.6559V43.4319H208.716V34.8399L203.904 42.9199C203.79 43.1012 203.652 43.2452 203.491 43.3519C203.339 43.4586 203.178 43.5119 203.007 43.5119C202.741 43.5119 202.532 43.4212 202.38 43.2399C202.228 43.0479 202.153 42.7972 202.153 42.4879V32.7599H203.491V41.3199Z" fill="white"/>
<path d="M212.218 32.7599H215.222C215.868 32.7599 216.399 32.8612 216.817 33.0639C217.244 33.2666 217.581 33.5226 217.828 33.8319C218.084 34.1412 218.26 34.4879 218.355 34.8719C218.459 35.2559 218.511 35.6292 218.511 35.9919C218.511 36.5252 218.43 36.9946 218.269 37.3999C218.108 37.8052 217.885 38.1466 217.6 38.4239C217.315 38.6906 216.974 38.8932 216.575 39.0319C216.186 39.1706 215.759 39.2399 215.294 39.2399H213.571V43.4319H212.218V32.7599ZM215.279 37.9279C215.868 37.9279 216.319 37.7626 216.632 37.4319C216.955 37.0906 217.116 36.6212 217.116 36.0239C217.116 35.4159 216.95 34.9412 216.618 34.5999C216.295 34.2479 215.849 34.0719 215.279 34.0719H213.571V37.9279H215.279Z" fill="white"/>
<path d="M224.742 42.2639C225.264 42.2639 225.743 42.1626 226.18 41.9599C226.616 41.7466 226.991 41.4586 227.304 41.0959C227.618 40.7226 227.86 40.2799 228.031 39.7679C228.211 39.2452 228.301 38.6799 228.301 38.0719C228.301 37.4426 228.216 36.8719 228.045 36.3599C227.874 35.8479 227.632 35.4106 227.319 35.0479C227.005 34.6746 226.631 34.3866 226.194 34.1839C225.757 33.9812 225.273 33.8799 224.742 33.8799C224.21 33.8799 223.726 33.9812 223.29 34.1839C222.853 34.3866 222.478 34.6746 222.165 35.0479C221.852 35.4106 221.61 35.8479 221.439 36.3599C221.268 36.8719 221.183 37.4426 221.183 38.0719C221.183 38.6799 221.268 39.2452 221.439 39.7679C221.619 40.2799 221.866 40.7226 222.179 41.0959C222.492 41.4586 222.867 41.7466 223.304 41.9599C223.74 42.1626 224.22 42.2639 224.742 42.2639ZM224.742 43.7039C224.03 43.7039 223.366 43.5652 222.749 43.2879C222.141 42.9999 221.614 42.6052 221.168 42.1039C220.732 41.6026 220.385 41.0106 220.129 40.3279C219.882 39.6346 219.759 38.8879 219.759 38.0879C219.759 37.2879 219.887 36.5466 220.143 35.8639C220.4 35.1812 220.751 34.5892 221.197 34.0879C221.643 33.5866 222.17 33.1972 222.777 32.9199C223.385 32.6319 224.039 32.4879 224.742 32.4879C225.454 32.4879 226.113 32.6319 226.721 32.9199C227.328 33.1972 227.855 33.5866 228.301 34.0879C228.747 34.5892 229.094 35.1812 229.34 35.8639C229.597 36.5466 229.725 37.2879 229.725 38.0879C229.725 38.8879 229.597 39.6346 229.34 40.3279C229.094 41.0106 228.747 41.6026 228.301 42.1039C227.864 42.6052 227.338 42.9999 226.721 43.2879C226.113 43.5652 225.454 43.7039 224.742 43.7039Z" fill="white"/>
<path d="M231.502 32.7599H234.72C235.213 32.7599 235.64 32.8346 236.001 32.9839C236.362 33.1226 236.661 33.3146 236.898 33.5599C237.135 33.8052 237.311 34.0932 237.425 34.4239C237.548 34.7546 237.61 35.1066 237.61 35.4799C237.61 35.8212 237.558 36.1252 237.453 36.3919C237.349 36.6586 237.221 36.8932 237.069 37.0959C236.917 37.2879 236.746 37.4426 236.556 37.5599C236.376 37.6772 236.21 37.7519 236.058 37.7839C236.248 37.8159 236.461 37.8852 236.699 37.9919C236.936 38.0879 237.159 38.2372 237.368 38.4399C237.577 38.6426 237.752 38.9092 237.895 39.2399C238.037 39.5599 238.108 39.9599 238.108 40.4399C238.108 41.0159 238.013 41.4959 237.823 41.8799C237.643 42.2532 237.392 42.5572 237.069 42.7919C236.756 43.0266 236.381 43.1919 235.944 43.2879C235.508 43.3839 235.042 43.4319 234.549 43.4319H231.502V32.7599ZM234.478 42.1039C234.724 42.1039 234.981 42.0879 235.246 42.0559C235.512 42.0239 235.754 41.9492 235.973 41.8319C236.2 41.7146 236.385 41.5439 236.528 41.3199C236.67 41.0852 236.741 40.7652 236.741 40.3599C236.741 39.9759 236.67 39.6666 236.528 39.4319C236.395 39.1972 236.219 39.0106 236.001 38.8719C235.792 38.7332 235.56 38.6426 235.303 38.5999C235.047 38.5466 234.8 38.5199 234.563 38.5199H232.826V42.1039H234.478ZM234.52 37.2079C234.729 37.2079 234.938 37.1812 235.147 37.1279C235.356 37.0639 235.545 36.9679 235.716 36.8399C235.887 36.7119 236.025 36.5466 236.129 36.3439C236.234 36.1412 236.286 35.8959 236.286 35.6079C236.286 35.2879 236.234 35.0319 236.129 34.8399C236.025 34.6372 235.887 34.4826 235.716 34.3759C235.545 34.2586 235.356 34.1839 235.147 34.1519C234.938 34.1092 234.729 34.0879 234.52 34.0879H232.826V37.2079H234.52Z" fill="white"/>
<path d="M245.017 40.4559H241.117L240.148 43.4319H238.711L242.17 33.4959C242.36 32.9519 242.687 32.6799 243.152 32.6799C243.58 32.6799 243.893 32.9626 244.092 33.5279L247.537 43.4319H246.014L245.017 40.4559ZM243.081 34.3599L241.529 39.1599H244.605L243.081 34.3599Z" fill="white"/>
<path d="M249.806 34.1039H246.403V32.7599H254.561V34.1039H251.172V43.4319H249.806V34.1039Z" fill="white"/>
<path d="M257.352 42.1199H259.175C259.801 42.1199 260.29 41.9492 260.641 41.6079C261.002 41.2666 261.182 40.7546 261.182 40.0719C261.182 39.3999 261.002 38.8879 260.641 38.5359C260.29 38.1732 259.801 37.9919 259.175 37.9919H257.352V42.1199ZM257.352 32.7599V36.6799H259.203C260.285 36.6799 261.121 36.9786 261.709 37.5759C262.297 38.1626 262.592 38.9732 262.592 40.0079C262.592 40.4452 262.53 40.8719 262.407 41.2879C262.283 41.6932 262.084 42.0559 261.809 42.3759C261.543 42.6959 261.187 42.9519 260.741 43.1439C260.304 43.3359 259.768 43.4319 259.132 43.4319H255.986V32.7599H257.352Z" fill="white"/>
<path d="M271.718 35.5439C271.395 35.0212 270.982 34.6159 270.479 34.3279C269.976 34.0292 269.44 33.8799 268.871 33.8799C268.339 33.8799 267.855 33.9812 267.418 34.1839C266.982 34.3866 266.607 34.6746 266.294 35.0479C265.99 35.4106 265.753 35.8532 265.582 36.3759C265.411 36.8879 265.326 37.4639 265.326 38.1039C265.326 38.7332 265.406 39.3039 265.568 39.8159C265.738 40.3172 265.976 40.7492 266.279 41.1119C266.593 41.4746 266.963 41.7572 267.39 41.9599C267.817 42.1519 268.296 42.2479 268.828 42.2479C269.378 42.2479 269.881 42.1252 270.337 41.8799C270.793 41.6346 271.258 41.2292 271.732 40.6639L272.686 41.5599C272.515 41.8479 272.287 42.1252 272.003 42.3919C271.718 42.6479 271.4 42.8719 271.049 43.0639C270.698 43.2559 270.327 43.4052 269.938 43.5119C269.559 43.6292 269.189 43.6879 268.828 43.6879C268.097 43.6879 267.428 43.5546 266.82 43.2879C266.213 43.0212 265.691 42.6426 265.254 42.1519C264.818 41.6612 264.481 41.0746 264.244 40.3919C264.006 39.7092 263.888 38.9572 263.888 38.1359C263.888 37.3252 264.011 36.5732 264.258 35.8799C264.505 35.1866 264.846 34.5946 265.283 34.1039C265.729 33.6026 266.256 33.2132 266.863 32.9359C267.471 32.6479 268.135 32.5039 268.856 32.5039C269.245 32.5039 269.625 32.5572 269.995 32.6639C270.375 32.7599 270.731 32.8986 271.063 33.0799C271.395 33.2612 271.699 33.4852 271.974 33.7519C272.259 34.0079 272.496 34.2959 272.686 34.6159L271.718 35.5439Z" fill="white"/>
<path d="M273.195 43.4319C273.366 42.9412 273.551 42.4559 273.75 41.9759C273.949 41.4959 274.149 41.0532 274.348 40.6479C274.547 40.2426 274.742 39.8799 274.932 39.5599C275.131 39.2399 275.311 38.9839 275.473 38.7919C274.884 38.5466 274.433 38.1786 274.12 37.6879C273.816 37.1972 273.665 36.5999 273.665 35.8959C273.665 34.9359 273.949 34.1732 274.519 33.6079C275.098 33.0426 275.914 32.7599 276.968 32.7599H280V43.4319H278.676V39.0639H277.352C276.963 39.0639 276.621 39.3039 276.327 39.7839C276.042 40.2639 275.757 40.8186 275.473 41.4479C275.188 42.0666 274.913 42.7279 274.647 43.4319H273.195ZM278.676 37.7679V34.0879H276.882C276.313 34.0879 275.867 34.2532 275.544 34.5839C275.221 34.9039 275.06 35.3572 275.06 35.9439C275.06 36.5199 275.226 36.9679 275.558 37.2879C275.89 37.6079 276.341 37.7679 276.911 37.7679H278.676Z" fill="white"/>
</svg>
