<svg width="279" height="78" viewBox="0 0 279 78" fill="none" xmlns="http://www.w3.org/2000/svg">
<path d="M2.576 10.552C2.43733 10.7547 2.31467 10.8933 2.208 10.968C2.112 11.0427 2 11.08 1.872 11.08C1.72267 11.08 1.6 11.0213 1.504 10.904C1.41867 10.7867 1.376 10.6213 1.376 10.408V0.327999H2.128V10.056L8.608 0.775999C8.736 0.584 8.85333 0.450666 8.96 0.375999C9.06667 0.290666 9.17867 0.247999 9.296 0.247999C9.616 0.247999 9.776 0.429333 9.776 0.792V11H9.024V1.336L2.576 10.552ZM13.6522 0.792C13.6522 0.631999 13.6949 0.503999 13.7802 0.407999C13.8762 0.301332 13.9989 0.247999 14.1482 0.247999C14.3509 0.247999 14.5589 0.413333 14.7722 0.743999L18.6603 6.856L22.5642 0.743999C22.7776 0.413333 22.9856 0.247999 23.1883 0.247999C23.3376 0.247999 23.4549 0.301332 23.5403 0.407999C23.6363 0.503999 23.6843 0.631999 23.6843 0.792V11H22.9483V1.432L19.3323 7.176C19.2043 7.38933 19.0923 7.53333 18.9963 7.608C18.9003 7.68267 18.7883 7.72 18.6603 7.72C18.5323 7.72 18.4149 7.68267 18.3082 7.608C18.2016 7.52267 18.0896 7.37867 17.9722 7.176L14.3882 1.432V11H13.6522V0.792ZM32.7215 5.8H28.3215V10.28H34.3695V11H28.1615C27.9802 11 27.8308 10.952 27.7135 10.856C27.6068 10.7493 27.5535 10.6053 27.5535 10.424V0.327999H33.9535V1.048H28.3215V5.08H32.7215V5.8ZM46.4918 11.256C45.7131 11.256 44.9931 11.1173 44.3318 10.84C43.6811 10.5627 43.1158 10.184 42.6358 9.704C42.1558 9.21333 41.7771 8.63733 41.4998 7.976C41.2224 7.304 41.0784 6.57867 41.0678 5.8H38.3478V11H37.5798V0.327999H38.3478V5.08H41.0838C41.1478 4.36533 41.3291 3.704 41.6278 3.096C41.9264 2.47733 42.3104 1.944 42.7798 1.496C43.2598 1.048 43.8144 0.701333 44.4438 0.455999C45.0731 0.199999 45.7558 0.0719995 46.4918 0.0719995C47.2704 0.0719995 47.9904 0.216 48.6518 0.504C49.3238 0.792 49.8998 1.18667 50.3798 1.688C50.8598 2.18933 51.2331 2.78133 51.4998 3.464C51.7771 4.136 51.9158 4.86667 51.9158 5.656C51.9158 6.456 51.7824 7.19733 51.5158 7.88C51.2491 8.56267 50.8758 9.15467 50.3958 9.656C49.9158 10.1573 49.3398 10.552 48.6678 10.84C48.0064 11.1173 47.2811 11.256 46.4918 11.256ZM46.4918 10.536C47.1638 10.536 47.7771 10.4133 48.3318 10.168C48.8971 9.912 49.3824 9.56533 49.7878 9.128C50.2038 8.68 50.5238 8.16267 50.7478 7.576C50.9824 6.97867 51.0998 6.33867 51.0998 5.656C51.0998 4.96267 50.9878 4.32267 50.7638 3.736C50.5398 3.13867 50.2198 2.62133 49.8038 2.184C49.3984 1.74667 48.9131 1.40533 48.3478 1.16C47.7824 0.914666 47.1638 0.792 46.4918 0.792C45.8198 0.792 45.2011 0.914666 44.6358 1.16C44.0704 1.40533 43.5798 1.74667 43.1638 2.184C42.7584 2.62133 42.4438 3.13867 42.2198 3.736C41.9958 4.32267 41.8838 4.96267 41.8838 5.656C41.8838 6.33867 41.9958 6.97867 42.2198 7.576C42.4544 8.16267 42.7744 8.68 43.1798 9.128C43.5958 9.56533 44.0811 9.912 44.6358 10.168C45.2011 10.4133 45.8198 10.536 46.4918 10.536ZM57.3521 1.016H53.2081V0.327999H62.2641V1.016H58.1201V11H57.3521V1.016ZM72.6625 2.504C72.2465 1.96 71.7292 1.53867 71.1105 1.24C70.5025 0.941333 69.8412 0.792 69.1265 0.792C68.4118 0.792 67.7612 0.909333 67.1745 1.144C66.5985 1.37867 66.1025 1.70933 65.6865 2.136C65.2705 2.56267 64.9505 3.07467 64.7265 3.672C64.5025 4.26933 64.3905 4.936 64.3905 5.672C64.3905 6.408 64.5025 7.07467 64.7265 7.672C64.9505 8.26933 65.2652 8.78133 65.6705 9.208C66.0758 9.624 66.5665 9.94933 67.1425 10.184C67.7292 10.4187 68.3745 10.536 69.0785 10.536C69.8145 10.536 70.4865 10.392 71.0945 10.104C71.7025 9.80533 72.2252 9.37867 72.6625 8.824L73.2385 9.224C73.0358 9.53333 72.7798 9.81067 72.4705 10.056C72.1718 10.3013 71.8358 10.5147 71.4625 10.696C71.0998 10.8773 70.7105 11.016 70.2945 11.112C69.8785 11.208 69.4572 11.256 69.0305 11.256C68.2305 11.256 67.4945 11.1227 66.8225 10.856C66.1505 10.5787 65.5745 10.1947 65.0945 9.704C64.6145 9.20267 64.2358 8.61067 63.9585 7.928C63.6918 7.24533 63.5585 6.49333 63.5585 5.672C63.5585 4.85067 63.6972 4.09867 63.9745 3.416C64.2518 2.72267 64.6358 2.13067 65.1265 1.64C65.6172 1.13867 66.1985 0.754666 66.8705 0.488C67.5532 0.210666 68.2945 0.0719995 69.0945 0.0719995C69.9585 0.0719995 70.7585 0.253333 71.4945 0.615999C72.2412 0.978666 72.8225 1.47467 73.2385 2.104L72.6625 2.504ZM75.7005 3.352C75.7005 2.40267 76.0152 1.66133 76.6445 1.128C77.2845 0.594666 78.2285 0.327999 79.4765 0.327999H82.6925V11H81.9245V6.376H79.6205C79.1085 6.376 78.7138 6.552 78.4365 6.904C78.0098 7.448 77.6152 8.05067 77.2525 8.712C76.9005 9.37333 76.5538 10.136 76.2125 11H75.3965C75.5778 10.4987 75.7805 10.0027 76.0045 9.512C76.2392 9.02133 76.4738 8.568 76.7085 8.152C76.9538 7.72533 77.1938 7.34667 77.4285 7.016C77.6738 6.68533 77.8978 6.42933 78.1005 6.248C77.3218 6.07733 76.7245 5.74667 76.3085 5.256C75.9032 4.75467 75.7005 4.12 75.7005 3.352ZM81.9245 5.656V1.048H79.2525C77.4285 1.048 76.5165 1.816 76.5165 3.352C76.5165 4.10933 76.7512 4.68533 77.2205 5.08C77.7005 5.464 78.3992 5.656 79.3165 5.656H81.9245ZM90.5704 0.327999H98.9064V11H98.1384V1.048H91.3384V11H90.5704V0.327999ZM102.784 0.327999H106.064C106.757 0.327999 107.339 0.407999 107.808 0.568C108.288 0.717333 108.672 0.930666 108.96 1.208C109.248 1.48533 109.456 1.81067 109.584 2.184C109.712 2.55733 109.776 2.96267 109.776 3.4C109.776 3.83733 109.712 4.24267 109.584 4.616C109.456 4.98933 109.248 5.31467 108.96 5.592C108.672 5.86933 108.288 6.088 107.808 6.248C107.339 6.39733 106.757 6.472 106.064 6.472H103.552V11H102.784V0.327999ZM106.288 5.752C107.184 5.752 107.851 5.55467 108.288 5.16C108.725 4.75467 108.944 4.168 108.944 3.4C108.944 2.632 108.725 2.05067 108.288 1.656C107.851 1.25067 107.184 1.048 106.288 1.048H103.552V5.752H106.288ZM118.039 10.536C118.711 10.536 119.335 10.4133 119.911 10.168C120.487 9.912 120.989 9.56533 121.415 9.128C121.853 8.68 122.194 8.16267 122.439 7.576C122.685 6.97867 122.807 6.33867 122.807 5.656C122.807 4.96267 122.685 4.32267 122.439 3.736C122.194 3.13867 121.858 2.62133 121.431 2.184C121.005 1.74667 120.498 1.40533 119.911 1.16C119.335 0.914666 118.711 0.792 118.039 0.792C117.367 0.792 116.738 0.914666 116.151 1.16C115.575 1.40533 115.074 1.74667 114.647 2.184C114.221 2.62133 113.885 3.13867 113.639 3.736C113.394 4.32267 113.271 4.96267 113.271 5.656C113.271 6.33867 113.394 6.97867 113.639 7.576C113.885 8.16267 114.221 8.68 114.647 9.128C115.085 9.56533 115.591 9.912 116.167 10.168C116.743 10.4133 117.367 10.536 118.039 10.536ZM118.039 11.256C117.25 11.256 116.514 11.1173 115.831 10.84C115.149 10.552 114.557 10.1573 114.055 9.656C113.554 9.15467 113.159 8.56267 112.871 7.88C112.594 7.19733 112.455 6.456 112.455 5.656C112.455 4.86667 112.599 4.136 112.887 3.464C113.175 2.78133 113.57 2.18933 114.071 1.688C114.573 1.18667 115.159 0.792 115.831 0.504C116.514 0.216 117.25 0.0719995 118.039 0.0719995C118.818 0.0719995 119.549 0.216 120.231 0.504C120.914 0.792 121.506 1.18667 122.007 1.688C122.509 2.18933 122.903 2.78133 123.191 3.464C123.479 4.136 123.623 4.86667 123.623 5.656C123.623 6.456 123.479 7.19733 123.191 7.88C122.914 8.56267 122.525 9.15467 122.023 9.656C121.522 10.1573 120.93 10.552 120.247 10.84C119.565 11.1173 118.829 11.256 118.039 11.256ZM129.051 1.016H124.907V0.327999H133.964V1.016H129.819V11H129.051V1.016ZM138.063 10.552C137.924 10.7547 137.802 10.8933 137.695 10.968C137.599 11.0427 137.487 11.08 137.359 11.08C137.21 11.08 137.087 11.0213 136.991 10.904C136.906 10.7867 136.863 10.6213 136.863 10.408V0.327999H137.615V10.056L144.095 0.775999C144.223 0.584 144.34 0.450666 144.447 0.375999C144.554 0.290666 144.666 0.247999 144.783 0.247999C145.103 0.247999 145.263 0.429333 145.263 0.792V11H144.511V1.336L138.063 10.552ZM149.139 0.327999H152.675C153.198 0.327999 153.646 0.402666 154.019 0.551999C154.392 0.690666 154.696 0.882666 154.931 1.128C155.166 1.36267 155.336 1.64 155.443 1.96C155.55 2.26933 155.603 2.6 155.603 2.952C155.603 3.25067 155.555 3.53333 155.459 3.8C155.363 4.06667 155.23 4.312 155.059 4.536C154.899 4.74933 154.702 4.93067 154.467 5.08C154.232 5.22933 153.971 5.33067 153.683 5.384C153.96 5.42667 154.248 5.50133 154.547 5.608C154.846 5.71467 155.118 5.87467 155.363 6.088C155.608 6.29067 155.811 6.55733 155.971 6.888C156.131 7.21867 156.211 7.62933 156.211 8.12C156.211 8.696 156.104 9.17067 155.891 9.544C155.678 9.90667 155.384 10.2 155.011 10.424C154.648 10.6373 154.222 10.7867 153.731 10.872C153.251 10.9573 152.739 11 152.195 11H149.139V0.327999ZM152.243 5.08C152.531 5.08 152.824 5.04267 153.123 4.968C153.432 4.89333 153.71 4.77067 153.955 4.6C154.2 4.42933 154.403 4.216 154.563 3.96C154.723 3.69333 154.803 3.37333 154.803 3C154.803 2.57333 154.723 2.232 154.563 1.976C154.414 1.72 154.216 1.52267 153.971 1.384C153.726 1.24533 153.448 1.15467 153.139 1.112C152.84 1.06933 152.542 1.048 152.243 1.048H149.907V5.08H152.243ZM152.003 10.28C152.408 10.28 152.814 10.264 153.219 10.232C153.624 10.1893 153.987 10.0987 154.307 9.96C154.638 9.81067 154.904 9.592 155.107 9.304C155.31 9.016 155.411 8.62133 155.411 8.12C155.411 7.64 155.31 7.25067 155.107 6.952C154.915 6.64267 154.664 6.408 154.355 6.248C154.056 6.07733 153.72 5.96 153.347 5.896C152.974 5.832 152.611 5.8 152.259 5.8H149.907V10.28H152.003ZM164.426 10.536C165.098 10.536 165.722 10.4133 166.298 10.168C166.874 9.912 167.375 9.56533 167.802 9.128C168.239 8.68 168.58 8.16267 168.826 7.576C169.071 6.97867 169.194 6.33867 169.194 5.656C169.194 4.96267 169.071 4.32267 168.826 3.736C168.58 3.13867 168.244 2.62133 167.818 2.184C167.391 1.74667 166.884 1.40533 166.298 1.16C165.722 0.914666 165.098 0.792 164.426 0.792C163.754 0.792 163.124 0.914666 162.538 1.16C161.962 1.40533 161.46 1.74667 161.034 2.184C160.607 2.62133 160.271 3.13867 160.026 3.736C159.78 4.32267 159.658 4.96267 159.658 5.656C159.658 6.33867 159.78 6.97867 160.026 7.576C160.271 8.16267 160.607 8.68 161.034 9.128C161.471 9.56533 161.978 9.912 162.554 10.168C163.13 10.4133 163.754 10.536 164.426 10.536ZM164.426 11.256C163.636 11.256 162.9 11.1173 162.218 10.84C161.535 10.552 160.943 10.1573 160.442 9.656C159.94 9.15467 159.546 8.56267 159.258 7.88C158.98 7.19733 158.842 6.456 158.842 5.656C158.842 4.86667 158.986 4.136 159.274 3.464C159.562 2.78133 159.956 2.18933 160.458 1.688C160.959 1.18667 161.546 0.792 162.218 0.504C162.9 0.216 163.636 0.0719995 164.426 0.0719995C165.204 0.0719995 165.935 0.216 166.618 0.504C167.3 0.792 167.892 1.18667 168.394 1.688C168.895 2.18933 169.29 2.78133 169.578 3.464C169.866 4.136 170.01 4.86667 170.01 5.656C170.01 6.456 169.866 7.19733 169.578 7.88C169.3 8.56267 168.911 9.15467 168.41 9.656C167.908 10.1573 167.316 10.552 166.634 10.84C165.951 11.1173 165.215 11.256 164.426 11.256ZM173.395 0.327999H181.731V11H180.963V1.048H174.163V11H173.395V0.327999ZM190.712 10.536C191.384 10.536 192.008 10.4133 192.584 10.168C193.16 9.912 193.662 9.56533 194.088 9.128C194.526 8.68 194.867 8.16267 195.112 7.576C195.358 6.97867 195.48 6.33867 195.48 5.656C195.48 4.96267 195.358 4.32267 195.112 3.736C194.867 3.13867 194.531 2.62133 194.104 2.184C193.678 1.74667 193.171 1.40533 192.584 1.16C192.008 0.914666 191.384 0.792 190.712 0.792C190.04 0.792 189.411 0.914666 188.824 1.16C188.248 1.40533 187.747 1.74667 187.32 2.184C186.894 2.62133 186.558 3.13867 186.312 3.736C186.067 4.32267 185.944 4.96267 185.944 5.656C185.944 6.33867 186.067 6.97867 186.312 7.576C186.558 8.16267 186.894 8.68 187.32 9.128C187.758 9.56533 188.264 9.912 188.84 10.168C189.416 10.4133 190.04 10.536 190.712 10.536ZM190.712 11.256C189.923 11.256 189.187 11.1173 188.504 10.84C187.822 10.552 187.23 10.1573 186.728 9.656C186.227 9.15467 185.832 8.56267 185.544 7.88C185.267 7.19733 185.128 6.456 185.128 5.656C185.128 4.86667 185.272 4.136 185.56 3.464C185.848 2.78133 186.243 2.18933 186.744 1.688C187.246 1.18667 187.832 0.792 188.504 0.504C189.187 0.216 189.923 0.0719995 190.712 0.0719995C191.491 0.0719995 192.222 0.216 192.904 0.504C193.587 0.792 194.179 1.18667 194.68 1.688C195.182 2.18933 195.576 2.78133 195.864 3.464C196.152 4.136 196.296 4.86667 196.296 5.656C196.296 6.456 196.152 7.19733 195.864 7.88C195.587 8.56267 195.198 9.15467 194.696 9.656C194.195 10.1573 193.603 10.552 192.92 10.84C192.238 11.1173 191.502 11.256 190.712 11.256ZM204.386 4.392C204.098 4.88267 203.703 5.24 203.202 5.464C203.458 5.63467 203.735 5.89067 204.034 6.232C204.343 6.57333 204.658 6.984 204.978 7.464C205.308 7.944 205.644 8.48267 205.986 9.08C206.327 9.67733 206.663 10.3173 206.994 11H206.114C205.932 10.6267 205.756 10.2853 205.586 9.976C205.426 9.656 205.255 9.34667 205.074 9.048C204.892 8.74933 204.7 8.45067 204.498 8.152C204.306 7.85333 204.087 7.53333 203.842 7.192C203.458 6.66933 203.127 6.30667 202.85 6.104C202.572 5.90133 202.258 5.8 201.906 5.8H200.45V11H199.682V0.327999H200.45V5.08H202.002C202.407 5.08 202.743 5.01067 203.01 4.872C203.276 4.72267 203.506 4.48267 203.698 4.152L205.938 0.327999H206.802L204.386 4.392ZM216.228 7.56H211.204L209.828 11H208.996L213.188 0.695999C213.241 0.557333 213.316 0.450666 213.412 0.375999C213.518 0.290666 213.63 0.247999 213.748 0.247999C213.993 0.247999 214.18 0.397333 214.308 0.695999L218.5 11H217.62L216.228 7.56ZM211.492 6.84H215.94L213.716 1.176L211.492 6.84ZM222.688 5.8V5.08H224.4C224.71 5.08 225.014 5.04267 225.312 4.968C225.622 4.88267 225.894 4.75467 226.128 4.584C226.374 4.40267 226.571 4.17867 226.72 3.912C226.87 3.64533 226.944 3.32533 226.944 2.952C226.944 2.52533 226.864 2.17333 226.704 1.896C226.555 1.61867 226.358 1.4 226.112 1.24C225.867 1.06933 225.595 0.951999 225.296 0.888C225.008 0.824 224.726 0.792 224.448 0.792C224 0.792 223.611 0.850666 223.28 0.967999C222.96 1.08533 222.683 1.22933 222.448 1.4C222.224 1.57067 222.038 1.75733 221.888 1.96C221.739 2.152 221.616 2.32267 221.52 2.472L220.896 2.104C220.982 1.95467 221.104 1.768 221.264 1.544C221.424 1.30933 221.643 1.08533 221.92 0.872C222.208 0.647999 222.56 0.461333 222.976 0.311999C223.392 0.151999 223.894 0.0719995 224.48 0.0719995C225.067 0.0719995 225.568 0.157333 225.984 0.327999C226.4 0.488 226.736 0.701333 226.992 0.967999C227.259 1.23467 227.451 1.53867 227.568 1.88C227.686 2.21067 227.744 2.552 227.744 2.904C227.744 3.192 227.696 3.47467 227.6 3.752C227.504 4.02933 227.366 4.28533 227.184 4.52C227.003 4.744 226.784 4.936 226.528 5.096C226.283 5.24533 226 5.34667 225.68 5.4C225.936 5.44267 226.203 5.52267 226.48 5.64C226.758 5.74667 227.008 5.912 227.232 6.136C227.467 6.34933 227.659 6.62133 227.808 6.952C227.958 7.272 228.032 7.672 228.032 8.152C228.032 8.696 227.936 9.16533 227.744 9.56C227.552 9.944 227.291 10.264 226.96 10.52C226.63 10.7653 226.246 10.9467 225.808 11.064C225.371 11.192 224.912 11.256 224.432 11.256C223.814 11.256 223.275 11.1707 222.816 11C222.368 10.84 221.99 10.6533 221.68 10.44C221.382 10.216 221.142 9.992 220.96 9.768C220.79 9.53333 220.672 9.352 220.608 9.224L221.216 8.84C221.291 8.94667 221.403 9.096 221.552 9.288C221.702 9.48 221.904 9.66667 222.16 9.848C222.416 10.0293 222.731 10.1893 223.104 10.328C223.478 10.4667 223.926 10.536 224.448 10.536C224.79 10.536 225.126 10.4987 225.456 10.424C225.798 10.3493 226.096 10.2213 226.352 10.04C226.619 9.85867 226.832 9.61867 226.992 9.32C227.152 9.01067 227.232 8.62133 227.232 8.152C227.232 7.69333 227.142 7.31467 226.96 7.016C226.79 6.71733 226.566 6.47733 226.288 6.296C226.022 6.11467 225.723 5.98667 225.392 5.912C225.062 5.83733 224.736 5.8 224.416 5.8H222.688ZM237.233 7.56H232.209L230.833 11H230.001L234.193 0.695999C234.247 0.557333 234.321 0.450666 234.417 0.375999C234.524 0.290666 234.636 0.247999 234.753 0.247999C234.999 0.247999 235.185 0.397333 235.313 0.695999L239.505 11H238.625L237.233 7.56ZM232.497 6.84H236.945L234.721 1.176L232.497 6.84ZM242.318 0.327999H243.086V5.08H249.806V0.327999H250.574V11H249.806V5.8H243.086V11H242.318V0.327999ZM255.653 10.552C255.515 10.7547 255.392 10.8933 255.285 10.968C255.189 11.0427 255.077 11.08 254.949 11.08C254.8 11.08 254.677 11.0213 254.581 10.904C254.496 10.7867 254.453 10.6213 254.453 10.408V0.327999H255.205V10.056L261.686 0.775999C261.813 0.584 261.931 0.450666 262.037 0.375999C262.144 0.290666 262.256 0.247999 262.373 0.247999C262.693 0.247999 262.853 0.429333 262.853 0.792V11H262.101V1.336L255.653 10.552ZM266.522 3.352C266.522 2.40267 266.836 1.66133 267.466 1.128C268.106 0.594666 269.05 0.327999 270.298 0.327999H273.514V11H272.746V6.376H270.442C269.93 6.376 269.535 6.552 269.258 6.904C268.831 7.448 268.436 8.05067 268.074 8.712C267.722 9.37333 267.375 10.136 267.034 11H266.218C266.399 10.4987 266.602 10.0027 266.826 9.512C267.06 9.02133 267.295 8.568 267.53 8.152C267.775 7.72533 268.015 7.34667 268.25 7.016C268.495 6.68533 268.719 6.42933 268.922 6.248C268.143 6.07733 267.546 5.74667 267.13 5.256C266.724 4.75467 266.522 4.12 266.522 3.352ZM272.746 5.656V1.048H270.074C268.25 1.048 267.338 1.816 267.338 3.352C267.338 4.10933 267.572 4.68533 268.042 5.08C268.522 5.464 269.22 5.656 270.138 5.656H272.746ZM277.829 11.096C277.648 11.096 277.498 11.0373 277.381 10.92C277.264 10.8027 277.205 10.6533 277.205 10.472C277.205 10.2907 277.264 10.1413 277.381 10.024C277.498 9.90667 277.648 9.848 277.829 9.848C278.01 9.848 278.16 9.90667 278.277 10.024C278.394 10.1413 278.453 10.2907 278.453 10.472C278.453 10.6533 278.394 10.8027 278.277 10.92C278.16 11.0373 278.01 11.096 277.829 11.096ZM1.376 16.328H9.712V27H8.944V17.048H2.144V27H1.376V16.328ZM24.5178 21.8H20.1178V26.28H26.1658V27H19.9578C19.7764 27 19.6271 26.952 19.5098 26.856C19.4031 26.7493 19.3498 26.6053 19.3498 26.424V16.328H25.7498V17.048H20.1178V21.08H24.5178V21.8ZM35.136 16.328H38.416C39.1093 16.328 39.6907 16.408 40.16 16.568C40.64 16.7173 41.024 16.9307 41.312 17.208C41.6 17.4853 41.808 17.8107 41.936 18.184C42.064 18.5573 42.128 18.9627 42.128 19.4C42.128 19.8373 42.064 20.2427 41.936 20.616C41.808 20.9893 41.6 21.3147 41.312 21.592C41.024 21.8693 40.64 22.088 40.16 22.248C39.6907 22.3973 39.1093 22.472 38.416 22.472H35.904V27H35.136V16.328ZM38.64 21.752C39.536 21.752 40.2027 21.5547 40.64 21.16C41.0773 20.7547 41.296 20.168 41.296 19.4C41.296 18.632 41.0773 18.0507 40.64 17.656C40.2027 17.2507 39.536 17.048 38.64 17.048H35.904V21.752H38.64ZM56.4496 21.8H52.0496V26.28H58.0976V27H51.8896C51.7083 27 51.559 26.952 51.4416 26.856C51.335 26.7493 51.2816 26.6053 51.2816 26.424V16.328H57.6816V17.048H52.0496V21.08H56.4496V21.8ZM69.6919 16.808C69.7239 16.488 69.9105 16.328 70.2519 16.328H75.6599V26.28H76.3959V29.464H75.6599V27H66.7959V29.464H66.0599V26.28H66.7479C67.1852 25.8107 67.5692 25.2827 67.8999 24.696C68.2305 24.1093 68.5132 23.4373 68.7479 22.68C68.9825 21.9227 69.1745 21.064 69.3239 20.104C69.4839 19.1333 69.6065 18.0347 69.6919 16.808ZM74.8919 17.048H70.4279C70.3425 18.232 70.2252 19.2933 70.0759 20.232C69.9265 21.1707 69.7399 22.0133 69.5159 22.76C69.3025 23.5067 69.0412 24.168 68.7319 24.744C68.4332 25.32 68.0865 25.832 67.6919 26.28H74.8919V17.048ZM95.3122 16.328H103.648V27H102.88V17.048H96.0802V27H95.3122V16.328ZM113.286 16.328H116.566C117.259 16.328 117.841 16.408 118.31 16.568C118.79 16.7173 119.174 16.9307 119.462 17.208C119.75 17.4853 119.958 17.8107 120.086 18.184C120.214 18.5573 120.278 18.9627 120.278 19.4C120.278 19.8373 120.214 20.2427 120.086 20.616C119.958 20.9893 119.75 21.3147 119.462 21.592C119.174 21.8693 118.79 22.088 118.31 22.248C117.841 22.3973 117.259 22.472 116.566 22.472H114.054V27H113.286V16.328ZM116.79 21.752C117.686 21.752 118.353 21.5547 118.79 21.16C119.227 20.7547 119.446 20.168 119.446 19.4C119.446 18.632 119.227 18.0507 118.79 17.656C118.353 17.2507 117.686 17.048 116.79 17.048H114.054V21.752H116.79ZM130.632 26.552C130.493 26.7547 130.37 26.8933 130.264 26.968C130.168 27.0427 130.056 27.08 129.928 27.08C129.778 27.08 129.656 27.0213 129.56 26.904C129.474 26.7867 129.432 26.6213 129.432 26.408V16.328H130.184V26.056L136.664 16.776C136.792 16.584 136.909 16.4507 137.016 16.376C137.122 16.2907 137.234 16.248 137.352 16.248C137.672 16.248 137.832 16.4293 137.832 16.792V27H137.08V17.336L130.632 26.552ZM147.468 16.792C147.468 16.632 147.511 16.504 147.596 16.408C147.692 16.3013 147.815 16.248 147.964 16.248C148.167 16.248 148.375 16.4133 148.588 16.744L152.476 22.856L156.38 16.744C156.593 16.4133 156.801 16.248 157.004 16.248C157.153 16.248 157.271 16.3013 157.356 16.408C157.452 16.504 157.5 16.632 157.5 16.792V27H156.764V17.432L153.148 23.176C153.02 23.3893 152.908 23.5333 152.812 23.608C152.716 23.6827 152.604 23.72 152.476 23.72C152.348 23.72 152.231 23.6827 152.124 23.608C152.017 23.5227 151.905 23.3787 151.788 23.176L148.204 17.432V27H147.468V16.792ZM172.297 21.8H167.897V26.28H173.945V27H167.737C167.556 27 167.406 26.952 167.289 26.856C167.182 26.7493 167.129 26.6053 167.129 26.424V16.328H173.529V17.048H167.897V21.08H172.297V21.8ZM182.915 16.328H183.683V21.08H190.403V16.328H191.171V27H190.403V21.8H183.683V27H182.915V16.328ZM205.979 21.8H201.579V26.28H207.627V27H201.419C201.238 27 201.088 26.952 200.971 26.856C200.864 26.7493 200.811 26.6053 200.811 26.424V16.328H207.211V17.048H201.579V21.08H205.979V21.8ZM216.597 16.328H217.365V21.08H224.085V16.328H224.853V27H224.085V21.8H217.365V27H216.597V16.328ZM235.693 26.552C235.554 26.7547 235.432 26.8933 235.325 26.968C235.229 27.0427 235.117 27.08 234.989 27.08C234.84 27.08 234.717 27.0213 234.621 26.904C234.536 26.7867 234.493 26.6213 234.493 26.408V16.328H235.245V26.056L241.725 16.776C241.853 16.584 241.97 16.4507 242.077 16.376C242.184 16.2907 242.296 16.248 242.413 16.248C242.733 16.248 242.893 16.4293 242.893 16.792V27H242.141V17.336L235.693 26.552ZM257.697 21.8H253.297V26.28H259.345V27H253.137C252.956 27 252.806 26.952 252.689 26.856C252.582 26.7493 252.529 26.6053 252.529 26.424V16.328H258.929V17.048H253.297V21.08H257.697V21.8ZM268.315 16.792C268.315 16.632 268.358 16.504 268.443 16.408C268.539 16.3013 268.662 16.248 268.811 16.248C269.014 16.248 269.222 16.4133 269.435 16.744L273.323 22.856L277.227 16.744C277.441 16.4133 277.649 16.248 277.851 16.248C278.001 16.248 278.118 16.3013 278.203 16.408C278.299 16.504 278.347 16.632 278.347 16.792V27H277.611V17.432L273.995 23.176C273.867 23.3893 273.755 23.5333 273.659 23.608C273.563 23.6827 273.451 23.72 273.323 23.72C273.195 23.72 273.078 23.6827 272.971 23.608C272.865 23.5227 272.753 23.3787 272.635 23.176L269.051 17.432V27H268.315V16.792ZM1.376 32.328H2.144V37.08H8.864V32.328H9.632V43H8.864V37.8H2.144V43H1.376V32.328ZM36.2796 37.8H31.8796V42.28H37.9276V43H31.7196C31.5383 43 31.389 42.952 31.2716 42.856C31.165 42.7493 31.1116 42.6053 31.1116 42.424V32.328H37.5116V33.048H31.8796V37.08H36.2796V37.8ZM63.2012 42.536C63.8732 42.536 64.4972 42.4133 65.0732 42.168C65.6492 41.912 66.1506 41.5653 66.5772 41.128C67.0146 40.68 67.3559 40.1627 67.6012 39.576C67.8466 38.9787 67.9692 38.3387 67.9692 37.656C67.9692 36.9627 67.8466 36.3227 67.6012 35.736C67.3559 35.1387 67.0199 34.6213 66.5932 34.184C66.1666 33.7467 65.6599 33.4053 65.0732 33.16C64.4972 32.9147 63.8732 32.792 63.2012 32.792C62.5292 32.792 61.8999 32.9147 61.3132 33.16C60.7372 33.4053 60.2359 33.7467 59.8092 34.184C59.3826 34.6213 59.0466 35.1387 58.8012 35.736C58.5559 36.3227 58.4332 36.9627 58.4332 37.656C58.4332 38.3387 58.5559 38.9787 58.8012 39.576C59.0466 40.1627 59.3826 40.68 59.8092 41.128C60.2466 41.5653 60.7532 41.912 61.3292 42.168C61.9052 42.4133 62.5292 42.536 63.2012 42.536ZM63.2012 43.256C62.4119 43.256 61.6759 43.1173 60.9932 42.84C60.3106 42.552 59.7186 42.1573 59.2172 41.656C58.7159 41.1547 58.3212 40.5627 58.0332 39.88C57.7559 39.1973 57.6172 38.456 57.6172 37.656C57.6172 36.8667 57.7612 36.136 58.0492 35.464C58.3372 34.7813 58.7319 34.1893 59.2332 33.688C59.7346 33.1867 60.3212 32.792 60.9932 32.504C61.6759 32.216 62.4119 32.072 63.2012 32.072C63.9799 32.072 64.7106 32.216 65.3932 32.504C66.0759 32.792 66.6679 33.1867 67.1692 33.688C67.6706 34.1893 68.0652 34.7813 68.3532 35.464C68.6412 36.136 68.7852 36.8667 68.7852 37.656C68.7852 38.456 68.6412 39.1973 68.3532 39.88C68.0759 40.5627 67.6866 41.1547 67.1852 41.656C66.6839 42.1573 66.0919 42.552 65.4092 42.84C64.7266 43.1173 63.9906 43.256 63.2012 43.256ZM89.7704 32.328H96.0584V33.016H90.5384V36.648H93.2104C93.9037 36.648 94.4957 36.728 94.9864 36.888C95.477 37.0373 95.8717 37.256 96.1704 37.544C96.4797 37.8213 96.7037 38.1573 96.8424 38.552C96.981 38.9467 97.0504 39.3787 97.0504 39.848C97.0504 40.2853 96.981 40.696 96.8424 41.08C96.7037 41.4533 96.4797 41.784 96.1704 42.072C95.8717 42.36 95.477 42.5893 94.9864 42.76C94.5064 42.92 93.9197 43 93.2264 43H89.7704V32.328ZM90.5384 37.368V42.28H93.3864C94.325 42.28 95.029 42.072 95.4984 41.656C95.9784 41.24 96.2184 40.6373 96.2184 39.848C96.2184 39.0373 95.9784 38.424 95.4984 38.008C95.029 37.5813 94.325 37.368 93.3864 37.368H90.5384ZM120.669 37.448L117.005 32.328H117.933L121.101 36.808L124.301 32.328H125.197L121.549 37.4L125.549 43H124.621L121.117 38.04L117.581 43H116.685L120.669 37.448ZM150.377 42.536C151.049 42.536 151.673 42.4133 152.249 42.168C152.825 41.912 153.326 41.5653 153.753 41.128C154.19 40.68 154.532 40.1627 154.777 39.576C155.022 38.9787 155.145 38.3387 155.145 37.656C155.145 36.9627 155.022 36.3227 154.777 35.736C154.532 35.1387 154.196 34.6213 153.769 34.184C153.342 33.7467 152.836 33.4053 152.249 33.16C151.673 32.9147 151.049 32.792 150.377 32.792C149.705 32.792 149.076 32.9147 148.489 33.16C147.913 33.4053 147.412 33.7467 146.985 34.184C146.558 34.6213 146.222 35.1387 145.977 35.736C145.732 36.3227 145.609 36.9627 145.609 37.656C145.609 38.3387 145.732 38.9787 145.977 39.576C146.222 40.1627 146.558 40.68 146.985 41.128C147.422 41.5653 147.929 41.912 148.505 42.168C149.081 42.4133 149.705 42.536 150.377 42.536ZM150.377 43.256C149.588 43.256 148.852 43.1173 148.169 42.84C147.486 42.552 146.894 42.1573 146.393 41.656C145.892 41.1547 145.497 40.5627 145.209 39.88C144.932 39.1973 144.793 38.456 144.793 37.656C144.793 36.8667 144.937 36.136 145.225 35.464C145.513 34.7813 145.908 34.1893 146.409 33.688C146.91 33.1867 147.497 32.792 148.169 32.504C148.852 32.216 149.588 32.072 150.377 32.072C151.156 32.072 151.886 32.216 152.569 32.504C153.252 32.792 153.844 33.1867 154.345 33.688C154.846 34.1893 155.241 34.7813 155.529 35.464C155.817 36.136 155.961 36.8667 155.961 37.656C155.961 38.456 155.817 39.1973 155.529 39.88C155.252 40.5627 154.862 41.1547 154.361 41.656C153.86 42.1573 153.268 42.552 152.585 42.84C151.902 43.1173 151.166 43.256 150.377 43.256ZM178.773 32.808C178.805 32.488 178.992 32.328 179.333 32.328H184.741V42.28H185.477V45.464H184.741V43H175.877V45.464H175.141V42.28H175.829C176.266 41.8107 176.65 41.2827 176.981 40.696C177.312 40.1093 177.594 39.4373 177.829 38.68C178.064 37.9227 178.256 37.064 178.405 36.104C178.565 35.1333 178.688 34.0347 178.773 32.808ZM183.973 33.048H179.509C179.424 34.232 179.306 35.2933 179.157 36.232C179.008 37.1707 178.821 38.0133 178.597 38.76C178.384 39.5067 178.122 40.168 177.813 40.744C177.514 41.32 177.168 41.832 176.773 42.28H183.973V33.048ZM207.663 42.552C207.524 42.7547 207.402 42.8933 207.295 42.968C207.199 43.0427 207.087 43.08 206.959 43.08C206.81 43.08 206.687 43.0213 206.591 42.904C206.506 42.7867 206.463 42.6213 206.463 42.408V32.328H207.215V42.056L213.695 32.776C213.823 32.584 213.94 32.4507 214.047 32.376C214.154 32.2907 214.266 32.248 214.383 32.248C214.703 32.248 214.863 32.4293 214.863 32.792V43H214.111V33.336L207.663 42.552ZM236.339 32.792C236.339 32.632 236.382 32.504 236.467 32.408C236.563 32.3013 236.686 32.248 236.835 32.248C237.038 32.248 237.246 32.4133 237.459 32.744L241.347 38.856L245.251 32.744C245.464 32.4133 245.672 32.248 245.875 32.248C246.024 32.248 246.142 32.3013 246.227 32.408C246.323 32.504 246.371 32.632 246.371 32.792V43H245.635V33.432L242.019 39.176C241.891 39.3893 241.779 39.5333 241.683 39.608C241.587 39.6827 241.475 39.72 241.347 39.72C241.219 39.72 241.102 39.6827 240.995 39.608C240.888 39.5227 240.776 39.3787 240.659 39.176L237.075 33.432V43H236.339V32.792ZM272.788 42.536C273.46 42.536 274.084 42.4133 274.66 42.168C275.236 41.912 275.737 41.5653 276.164 41.128C276.601 40.68 276.943 40.1627 277.188 39.576C277.433 38.9787 277.556 38.3387 277.556 37.656C277.556 36.9627 277.433 36.3227 277.188 35.736C276.943 35.1387 276.607 34.6213 276.18 34.184C275.753 33.7467 275.247 33.4053 274.66 33.16C274.084 32.9147 273.46 32.792 272.788 32.792C272.116 32.792 271.487 32.9147 270.9 33.16C270.324 33.4053 269.823 33.7467 269.396 34.184C268.969 34.6213 268.633 35.1387 268.388 35.736C268.143 36.3227 268.02 36.9627 268.02 37.656C268.02 38.3387 268.143 38.9787 268.388 39.576C268.633 40.1627 268.969 40.68 269.396 41.128C269.833 41.5653 270.34 41.912 270.916 42.168C271.492 42.4133 272.116 42.536 272.788 42.536ZM272.788 43.256C271.999 43.256 271.263 43.1173 270.58 42.84C269.897 42.552 269.305 42.1573 268.804 41.656C268.303 41.1547 267.908 40.5627 267.62 39.88C267.343 39.1973 267.204 38.456 267.204 37.656C267.204 36.8667 267.348 36.136 267.636 35.464C267.924 34.7813 268.319 34.1893 268.82 33.688C269.321 33.1867 269.908 32.792 270.58 32.504C271.263 32.216 271.999 32.072 272.788 32.072C273.567 32.072 274.297 32.216 274.98 32.504C275.663 32.792 276.255 33.1867 276.756 33.688C277.257 34.1893 277.652 34.7813 277.94 35.464C278.228 36.136 278.372 36.8667 278.372 37.656C278.372 38.456 278.228 39.1973 277.94 39.88C277.663 40.5627 277.273 41.1547 276.772 41.656C276.271 42.1573 275.679 42.552 274.996 42.84C274.313 43.1173 273.577 43.256 272.788 43.256ZM1.376 48.328H9.712V59H8.944V49.048H2.144V59H1.376V48.328ZM16.5497 48.328H19.8298C20.5231 48.328 21.1044 48.408 21.5738 48.568C22.0538 48.7173 22.4378 48.9307 22.7258 49.208C23.0138 49.4853 23.2218 49.8107 23.3498 50.184C23.4778 50.5573 23.5417 50.9627 23.5417 51.4C23.5417 51.8373 23.4778 52.2427 23.3498 52.616C23.2218 52.9893 23.0138 53.3147 22.7258 53.592C22.4378 53.8693 22.0538 54.088 21.5738 54.248C21.1044 54.3973 20.5231 54.472 19.8298 54.472H17.3177V59H16.5497V48.328ZM20.0538 53.752C20.9498 53.752 21.6164 53.5547 22.0538 53.16C22.4911 52.7547 22.7098 52.168 22.7098 51.4C22.7098 50.632 22.4911 50.0507 22.0538 49.656C21.6164 49.2507 20.9498 49.048 20.0538 49.048H17.3177V53.752H20.0538ZM34.765 58.536C35.437 58.536 36.061 58.4133 36.637 58.168C37.213 57.912 37.7143 57.5653 38.141 57.128C38.5783 56.68 38.9197 56.1627 39.165 55.576C39.4103 54.9787 39.533 54.3387 39.533 53.656C39.533 52.9627 39.4103 52.3227 39.165 51.736C38.9197 51.1387 38.5837 50.6213 38.157 50.184C37.7303 49.7467 37.2237 49.4053 36.637 49.16C36.061 48.9147 35.437 48.792 34.765 48.792C34.093 48.792 33.4637 48.9147 32.877 49.16C32.301 49.4053 31.7997 49.7467 31.373 50.184C30.9463 50.6213 30.6103 51.1387 30.365 51.736C30.1197 52.3227 29.997 52.9627 29.997 53.656C29.997 54.3387 30.1197 54.9787 30.365 55.576C30.6103 56.1627 30.9463 56.68 31.373 57.128C31.8103 57.5653 32.317 57.912 32.893 58.168C33.469 58.4133 34.093 58.536 34.765 58.536ZM34.765 59.256C33.9757 59.256 33.2397 59.1173 32.557 58.84C31.8743 58.552 31.2823 58.1573 30.781 57.656C30.2797 57.1547 29.885 56.5627 29.597 55.88C29.3197 55.1973 29.181 54.456 29.181 53.656C29.181 52.8667 29.325 52.136 29.613 51.464C29.901 50.7813 30.2957 50.1893 30.797 49.688C31.2983 49.1867 31.885 48.792 32.557 48.504C33.2397 48.216 33.9757 48.072 34.765 48.072C35.5437 48.072 36.2743 48.216 36.957 48.504C37.6397 48.792 38.2317 49.1867 38.733 49.688C39.2343 50.1893 39.629 50.7813 39.917 51.464C40.205 52.136 40.349 52.8667 40.349 53.656C40.349 54.456 40.205 55.1973 39.917 55.88C39.6397 56.5627 39.2503 57.1547 38.749 57.656C38.2477 58.1573 37.6557 58.552 36.973 58.84C36.2903 59.1173 35.5543 59.256 34.765 59.256ZM51.3981 52.392C51.1101 52.8827 50.7155 53.24 50.2141 53.464C50.4701 53.6347 50.7475 53.8907 51.0461 54.232C51.3555 54.5733 51.6701 54.984 51.9901 55.464C52.3208 55.944 52.6568 56.4827 52.9981 57.08C53.3395 57.6773 53.6755 58.3173 54.0061 59H53.1261C52.9448 58.6267 52.7688 58.2853 52.5981 57.976C52.4381 57.656 52.2675 57.3467 52.0861 57.048C51.9048 56.7493 51.7128 56.4507 51.5101 56.152C51.3181 55.8533 51.0995 55.5333 50.8541 55.192C50.4701 54.6693 50.1395 54.3067 49.8621 54.104C49.5848 53.9013 49.2701 53.8 48.9181 53.8H47.4621V59H46.6941V48.328H47.4621V53.08H49.0141C49.4195 53.08 49.7555 53.0107 50.0221 52.872C50.2888 52.7227 50.5181 52.4827 50.7101 52.152L52.9501 48.328H53.8141L51.3981 52.392ZM64.2531 58.536C64.9251 58.536 65.5491 58.4133 66.1251 58.168C66.7011 57.912 67.2025 57.5653 67.6291 57.128C68.0665 56.68 68.4078 56.1627 68.6531 55.576C68.8985 54.9787 69.0211 54.3387 69.0211 53.656C69.0211 52.9627 68.8985 52.3227 68.6531 51.736C68.4078 51.1387 68.0718 50.6213 67.6451 50.184C67.2185 49.7467 66.7118 49.4053 66.1251 49.16C65.5491 48.9147 64.9251 48.792 64.2531 48.792C63.5811 48.792 62.9518 48.9147 62.3651 49.16C61.7891 49.4053 61.2878 49.7467 60.8611 50.184C60.4345 50.6213 60.0985 51.1387 59.8531 51.736C59.6078 52.3227 59.4851 52.9627 59.4851 53.656C59.4851 54.3387 59.6078 54.9787 59.8531 55.576C60.0985 56.1627 60.4345 56.68 60.8611 57.128C61.2985 57.5653 61.8051 57.912 62.3811 58.168C62.9571 58.4133 63.5811 58.536 64.2531 58.536ZM64.2531 59.256C63.4638 59.256 62.7278 59.1173 62.0451 58.84C61.3625 58.552 60.7705 58.1573 60.2691 57.656C59.7678 57.1547 59.3731 56.5627 59.0851 55.88C58.8078 55.1973 58.6691 54.456 58.6691 53.656C58.6691 52.8667 58.8131 52.136 59.1011 51.464C59.3891 50.7813 59.7838 50.1893 60.2851 49.688C60.7865 49.1867 61.3731 48.792 62.0451 48.504C62.7278 48.216 63.4638 48.072 64.2531 48.072C65.0318 48.072 65.7625 48.216 66.4451 48.504C67.1278 48.792 67.7198 49.1867 68.2211 49.688C68.7225 50.1893 69.1171 50.7813 69.4051 51.464C69.6931 52.136 69.8371 52.8667 69.8371 53.656C69.8371 54.456 69.6931 55.1973 69.4051 55.88C69.1278 56.5627 68.7385 57.1547 68.2371 57.656C67.7358 58.1573 67.1438 58.552 66.4611 58.84C65.7785 59.1173 65.0425 59.256 64.2531 59.256ZM76.1823 48.328H76.9503V53.08H83.6703V48.328H84.4383V59H83.6703V53.8H76.9503V59H76.1823V48.328ZM99.9019 50.504C99.4859 49.96 98.9685 49.5387 98.3499 49.24C97.7419 48.9413 97.0805 48.792 96.3659 48.792C95.6512 48.792 95.0005 48.9093 94.4139 49.144C93.8379 49.3787 93.3419 49.7093 92.9259 50.136C92.5099 50.5627 92.1899 51.0747 91.9659 51.672C91.7419 52.2693 91.6299 52.936 91.6299 53.672C91.6299 54.408 91.7419 55.0747 91.9659 55.672C92.1899 56.2693 92.5045 56.7813 92.9099 57.208C93.3152 57.624 93.8059 57.9493 94.3819 58.184C94.9685 58.4187 95.6139 58.536 96.3179 58.536C97.0539 58.536 97.7259 58.392 98.3339 58.104C98.9419 57.8053 99.4645 57.3787 99.9019 56.824L100.478 57.224C100.275 57.5333 100.019 57.8107 99.7099 58.056C99.4112 58.3013 99.0752 58.5147 98.7019 58.696C98.3392 58.8773 97.9499 59.016 97.5339 59.112C97.1179 59.208 96.6965 59.256 96.2699 59.256C95.4699 59.256 94.7339 59.1227 94.0619 58.856C93.3899 58.5787 92.8139 58.1947 92.3339 57.704C91.8539 57.2027 91.4752 56.6107 91.1979 55.928C90.9312 55.2453 90.7979 54.4933 90.7979 53.672C90.7979 52.8507 90.9365 52.0987 91.2139 51.416C91.4912 50.7227 91.8752 50.1307 92.3659 49.64C92.8565 49.1387 93.4379 48.7547 94.1099 48.488C94.7925 48.2107 95.5339 48.072 96.3339 48.072C97.1979 48.072 97.9979 48.2533 98.7339 48.616C99.4805 48.9787 100.062 49.4747 100.478 50.104L99.9019 50.504ZM113.052 48.328H113.868L109.276 57.816C109.063 58.264 108.807 58.616 108.508 58.872C108.209 59.128 107.809 59.256 107.308 59.256C106.956 59.256 106.636 59.192 106.348 59.064C106.06 58.9467 105.815 58.7973 105.612 58.616L105.996 58.04C106.177 58.1893 106.375 58.312 106.588 58.408C106.812 58.4933 107.047 58.536 107.292 58.536C107.612 58.536 107.873 58.456 108.076 58.296C108.289 58.1253 108.476 57.8693 108.636 57.528L109.276 56.2L105.02 48.328H105.9L109.676 55.352L113.052 48.328ZM119.853 48.808C119.864 48.6693 119.907 48.5573 119.981 48.472C120.067 48.376 120.2 48.328 120.381 48.328H125.934V59H125.165V49.048H120.621C120.589 49.9013 120.541 50.744 120.477 51.576C120.424 52.3973 120.339 53.1813 120.221 53.928C120.104 54.664 119.949 55.3467 119.757 55.976C119.576 56.5947 119.341 57.1333 119.053 57.592C118.776 58.04 118.44 58.392 118.045 58.648C117.651 58.904 117.187 59.032 116.653 59.032H116.477V58.328C117.107 58.328 117.629 58.104 118.045 57.656C118.461 57.208 118.792 56.5733 119.037 55.752C119.293 54.92 119.48 53.9173 119.597 52.744C119.715 51.5707 119.8 50.2587 119.853 48.808ZM132.768 48.328H133.536V52.568H136.208C136.901 52.568 137.493 52.648 137.984 52.808C138.475 52.968 138.869 53.192 139.168 53.48C139.477 53.7573 139.701 54.0987 139.84 54.504C139.979 54.8987 140.048 55.336 140.048 55.816C140.048 56.2533 139.979 56.664 139.84 57.048C139.701 57.432 139.477 57.768 139.168 58.056C138.869 58.344 138.475 58.5733 137.984 58.744C137.504 58.9147 136.917 59 136.224 59H132.768V48.328ZM133.536 53.288V58.28H136.384C137.323 58.28 138.027 58.072 138.496 57.656C138.976 57.2293 139.216 56.616 139.216 55.816C139.216 54.984 138.976 54.3547 138.496 53.928C138.027 53.5013 137.323 53.288 136.384 53.288H133.536ZM147.485 49.016H143.341V48.328H152.397V49.016H148.253V59H147.485V49.016ZM159.456 58.552C159.317 58.7547 159.195 58.8933 159.088 58.968C158.992 59.0427 158.88 59.08 158.752 59.08C158.603 59.08 158.48 59.0213 158.384 58.904C158.299 58.7867 158.256 58.6213 158.256 58.408V48.328H159.008V58.056L165.488 48.776C165.616 48.584 165.733 48.4507 165.84 48.376C165.947 48.2907 166.059 48.248 166.176 48.248C166.496 48.248 166.656 48.4293 166.656 48.792V59H165.904V49.336L159.456 58.552ZM173.492 48.328H176.772C177.466 48.328 178.047 48.408 178.516 48.568C178.996 48.7173 179.38 48.9307 179.668 49.208C179.956 49.4853 180.164 49.8107 180.292 50.184C180.42 50.5573 180.484 50.9627 180.484 51.4C180.484 51.8373 180.42 52.2427 180.292 52.616C180.164 52.9893 179.956 53.3147 179.668 53.592C179.38 53.8693 178.996 54.088 178.516 54.248C178.047 54.3973 177.466 54.472 176.772 54.472H174.26V59H173.492V48.328ZM176.996 53.752C177.892 53.752 178.559 53.5547 178.996 53.16C179.434 52.7547 179.652 52.168 179.652 51.4C179.652 50.632 179.434 50.0507 178.996 49.656C178.559 49.2507 177.892 49.048 176.996 49.048H174.26V53.752H176.996ZM191.707 58.536C192.379 58.536 193.003 58.4133 193.579 58.168C194.155 57.912 194.657 57.5653 195.083 57.128C195.521 56.68 195.862 56.1627 196.107 55.576C196.353 54.9787 196.475 54.3387 196.475 53.656C196.475 52.9627 196.353 52.3227 196.107 51.736C195.862 51.1387 195.526 50.6213 195.099 50.184C194.673 49.7467 194.166 49.4053 193.579 49.16C193.003 48.9147 192.379 48.792 191.707 48.792C191.035 48.792 190.406 48.9147 189.819 49.16C189.243 49.4053 188.742 49.7467 188.315 50.184C187.889 50.6213 187.553 51.1387 187.307 51.736C187.062 52.3227 186.939 52.9627 186.939 53.656C186.939 54.3387 187.062 54.9787 187.307 55.576C187.553 56.1627 187.889 56.68 188.315 57.128C188.753 57.5653 189.259 57.912 189.835 58.168C190.411 58.4133 191.035 58.536 191.707 58.536ZM191.707 59.256C190.918 59.256 190.182 59.1173 189.499 58.84C188.817 58.552 188.225 58.1573 187.723 57.656C187.222 57.1547 186.827 56.5627 186.539 55.88C186.262 55.1973 186.123 54.456 186.123 53.656C186.123 52.8667 186.267 52.136 186.555 51.464C186.843 50.7813 187.238 50.1893 187.739 49.688C188.241 49.1867 188.827 48.792 189.499 48.504C190.182 48.216 190.918 48.072 191.707 48.072C192.486 48.072 193.217 48.216 193.899 48.504C194.582 48.792 195.174 49.1867 195.675 49.688C196.177 50.1893 196.571 50.7813 196.859 51.464C197.147 52.136 197.291 52.8667 197.291 53.656C197.291 54.456 197.147 55.1973 196.859 55.88C196.582 56.5627 196.193 57.1547 195.691 57.656C195.19 58.1573 194.598 58.552 193.915 58.84C193.233 59.1173 192.497 59.256 191.707 59.256ZM203.637 48.328H207.173C207.695 48.328 208.143 48.4027 208.517 48.552C208.89 48.6907 209.194 48.8827 209.429 49.128C209.663 49.3627 209.834 49.64 209.941 49.96C210.047 50.2693 210.101 50.6 210.101 50.952C210.101 51.2507 210.053 51.5333 209.957 51.8C209.861 52.0667 209.727 52.312 209.557 52.536C209.397 52.7493 209.199 52.9307 208.965 53.08C208.73 53.2293 208.469 53.3307 208.181 53.384C208.458 53.4267 208.746 53.5013 209.045 53.608C209.343 53.7147 209.615 53.8747 209.861 54.088C210.106 54.2907 210.309 54.5573 210.469 54.888C210.629 55.2187 210.709 55.6293 210.709 56.12C210.709 56.696 210.602 57.1707 210.389 57.544C210.175 57.9067 209.882 58.2 209.509 58.424C209.146 58.6373 208.719 58.7867 208.229 58.872C207.749 58.9573 207.237 59 206.693 59H203.637V48.328ZM206.741 53.08C207.029 53.08 207.322 53.0427 207.621 52.968C207.93 52.8933 208.207 52.7707 208.453 52.6C208.698 52.4293 208.901 52.216 209.061 51.96C209.221 51.6933 209.301 51.3733 209.301 51C209.301 50.5733 209.221 50.232 209.061 49.976C208.911 49.72 208.714 49.5227 208.469 49.384C208.223 49.2453 207.946 49.1547 207.637 49.112C207.338 49.0693 207.039 49.048 206.741 49.048H204.405V53.08H206.741ZM206.501 58.28C206.906 58.28 207.311 58.264 207.717 58.232C208.122 58.1893 208.485 58.0987 208.805 57.96C209.135 57.8107 209.402 57.592 209.605 57.304C209.807 57.016 209.909 56.6213 209.909 56.12C209.909 55.64 209.807 55.2507 209.605 54.952C209.413 54.6427 209.162 54.408 208.853 54.248C208.554 54.0773 208.218 53.96 207.845 53.896C207.471 53.832 207.109 53.8 206.757 53.8H204.405V58.28H206.501ZM222.877 55.56H217.853L216.477 59H215.645L219.837 48.696C219.89 48.5573 219.965 48.4507 220.061 48.376C220.168 48.2907 220.28 48.248 220.397 48.248C220.642 48.248 220.829 48.3973 220.957 48.696L225.149 59H224.269L222.877 55.56ZM218.141 54.84H222.589L220.365 49.176L218.141 54.84ZM232.246 49.016H228.102V48.328H237.158V49.016H233.014V59H232.246V49.016ZM243.017 48.328H243.785V52.568H246.457C247.151 52.568 247.743 52.648 248.233 52.808C248.724 52.968 249.119 53.192 249.417 53.48C249.727 53.7573 249.951 54.0987 250.089 54.504C250.228 54.8987 250.297 55.336 250.297 55.816C250.297 56.2533 250.228 56.664 250.089 57.048C249.951 57.432 249.727 57.768 249.417 58.056C249.119 58.344 248.724 58.5733 248.233 58.744C247.753 58.9147 247.167 59 246.473 59H243.017V48.328ZM243.785 53.288V58.28H246.633C247.572 58.28 248.276 58.072 248.745 57.656C249.225 57.2293 249.465 56.616 249.465 55.816C249.465 54.984 249.225 54.3547 248.745 53.928C248.276 53.5013 247.572 53.288 246.633 53.288H243.785ZM265.268 50.504C264.852 49.96 264.335 49.5387 263.716 49.24C263.108 48.9413 262.447 48.792 261.732 48.792C261.017 48.792 260.367 48.9093 259.78 49.144C259.204 49.3787 258.708 49.7093 258.292 50.136C257.876 50.5627 257.556 51.0747 257.332 51.672C257.108 52.2693 256.996 52.936 256.996 53.672C256.996 54.408 257.108 55.0747 257.332 55.672C257.556 56.2693 257.871 56.7813 258.276 57.208C258.681 57.624 259.172 57.9493 259.748 58.184C260.335 58.4187 260.98 58.536 261.684 58.536C262.42 58.536 263.092 58.392 263.7 58.104C264.308 57.8053 264.831 57.3787 265.268 56.824L265.844 57.224C265.641 57.5333 265.385 57.8107 265.076 58.056C264.777 58.3013 264.441 58.5147 264.068 58.696C263.705 58.8773 263.316 59.016 262.9 59.112C262.484 59.208 262.063 59.256 261.636 59.256C260.836 59.256 260.1 59.1227 259.428 58.856C258.756 58.5787 258.18 58.1947 257.7 57.704C257.22 57.2027 256.841 56.6107 256.564 55.928C256.297 55.2453 256.164 54.4933 256.164 53.672C256.164 52.8507 256.303 52.0987 256.58 51.416C256.857 50.7227 257.241 50.1307 257.732 49.64C258.223 49.1387 258.804 48.7547 259.476 48.488C260.159 48.2107 260.9 48.072 261.7 48.072C262.564 48.072 263.364 48.2533 264.1 48.616C264.847 48.9787 265.428 49.4747 265.844 50.104L265.268 50.504ZM271.266 51.352C271.266 50.4027 271.581 49.6613 272.21 49.128C272.85 48.5947 273.794 48.328 275.042 48.328H278.258V59H277.49V54.376H275.186C274.674 54.376 274.279 54.552 274.002 54.904C273.575 55.448 273.181 56.0507 272.818 56.712C272.466 57.3733 272.119 58.136 271.778 59H270.962C271.143 58.4987 271.346 58.0027 271.57 57.512C271.805 57.0213 272.039 56.568 272.274 56.152C272.519 55.7253 272.759 55.3467 272.994 55.016C273.239 54.6853 273.463 54.4293 273.666 54.248C272.887 54.0773 272.29 53.7467 271.874 53.256C271.469 52.7547 271.266 52.12 271.266 51.352ZM277.49 53.656V49.048H274.818C272.994 49.048 272.082 49.816 272.082 51.352C272.082 52.1093 272.317 52.6853 272.786 53.08C273.266 53.464 273.965 53.656 274.882 53.656H277.49ZM10 66.504C9.584 65.96 9.06667 65.5387 8.448 65.24C7.84 64.9413 7.17867 64.792 6.464 64.792C5.74933 64.792 5.09867 64.9093 4.512 65.144C3.936 65.3787 3.44 65.7093 3.024 66.136C2.608 66.5627 2.288 67.0747 2.064 67.672C1.84 68.2693 1.728 68.936 1.728 69.672C1.728 70.408 1.84 71.0747 2.064 71.672C2.288 72.2693 2.60267 72.7813 3.008 73.208C3.41333 73.624 3.904 73.9493 4.48 74.184C5.06667 74.4187 5.712 74.536 6.416 74.536C7.152 74.536 7.824 74.392 8.432 74.104C9.04 73.8053 9.56267 73.3787 10 72.824L10.576 73.224C10.3733 73.5333 10.1173 73.8107 9.808 74.056C9.50933 74.3013 9.17333 74.5147 8.8 74.696C8.43733 74.8773 8.048 75.016 7.632 75.112C7.216 75.208 6.79467 75.256 6.368 75.256C5.568 75.256 4.832 75.1227 4.16 74.856C3.488 74.5787 2.912 74.1947 2.432 73.704C1.952 73.2027 1.57333 72.6107 1.296 71.928C1.02933 71.2453 0.896 70.4933 0.896 69.672C0.896 68.8507 1.03467 68.0987 1.312 67.416C1.58933 66.7227 1.97333 66.1307 2.464 65.64C2.95467 65.1387 3.536 64.7547 4.208 64.488C4.89067 64.2107 5.632 64.072 6.432 64.072C7.296 64.072 8.096 64.2533 8.832 64.616C9.57867 64.9787 10.16 65.4747 10.576 66.104L10 66.504ZM25.7156 74.536C26.3876 74.536 27.0116 74.4133 27.5876 74.168C28.1636 73.912 28.665 73.5653 29.0916 73.128C29.529 72.68 29.8703 72.1627 30.1156 71.576C30.361 70.9787 30.4836 70.3387 30.4836 69.656C30.4836 68.9627 30.361 68.3227 30.1156 67.736C29.8703 67.1387 29.5343 66.6213 29.1076 66.184C28.681 65.7467 28.1743 65.4053 27.5876 65.16C27.0116 64.9147 26.3876 64.792 25.7156 64.792C25.0436 64.792 24.4143 64.9147 23.8276 65.16C23.2516 65.4053 22.7503 65.7467 22.3236 66.184C21.897 66.6213 21.561 67.1387 21.3156 67.736C21.0703 68.3227 20.9476 68.9627 20.9476 69.656C20.9476 70.3387 21.0703 70.9787 21.3156 71.576C21.561 72.1627 21.897 72.68 22.3236 73.128C22.761 73.5653 23.2676 73.912 23.8436 74.168C24.4196 74.4133 25.0436 74.536 25.7156 74.536ZM25.7156 75.256C24.9263 75.256 24.1903 75.1173 23.5076 74.84C22.825 74.552 22.233 74.1573 21.7316 73.656C21.2303 73.1547 20.8356 72.5627 20.5476 71.88C20.2703 71.1973 20.1316 70.456 20.1316 69.656C20.1316 68.8667 20.2756 68.136 20.5636 67.464C20.8516 66.7813 21.2463 66.1893 21.7476 65.688C22.249 65.1867 22.8356 64.792 23.5076 64.504C24.1903 64.216 24.9263 64.072 25.7156 64.072C26.4943 64.072 27.225 64.216 27.9076 64.504C28.5903 64.792 29.1823 65.1867 29.6836 65.688C30.185 66.1893 30.5796 66.7813 30.8676 67.464C31.1556 68.136 31.2996 68.8667 31.2996 69.656C31.2996 70.456 31.1556 71.1973 30.8676 71.88C30.5903 72.5627 30.201 73.1547 29.6996 73.656C29.1983 74.1573 28.6063 74.552 27.9236 74.84C27.241 75.1173 26.505 75.256 25.7156 75.256ZM62.5194 66.504C62.1034 65.96 61.586 65.5387 60.9674 65.24C60.3594 64.9413 59.698 64.792 58.9834 64.792C58.2687 64.792 57.618 64.9093 57.0314 65.144C56.4554 65.3787 55.9594 65.7093 55.5434 66.136C55.1274 66.5627 54.8074 67.0747 54.5834 67.672C54.3594 68.2693 54.2474 68.936 54.2474 69.672C54.2474 70.408 54.3594 71.0747 54.5834 71.672C54.8074 72.2693 55.122 72.7813 55.5274 73.208C55.9327 73.624 56.4234 73.9493 56.9994 74.184C57.586 74.4187 58.2314 74.536 58.9354 74.536C59.6714 74.536 60.3434 74.392 60.9514 74.104C61.5594 73.8053 62.082 73.3787 62.5194 72.824L63.0954 73.224C62.8927 73.5333 62.6367 73.8107 62.3274 74.056C62.0287 74.3013 61.6927 74.5147 61.3194 74.696C60.9567 74.8773 60.5674 75.016 60.1514 75.112C59.7354 75.208 59.314 75.256 58.8874 75.256C58.0874 75.256 57.3514 75.1227 56.6794 74.856C56.0074 74.5787 55.4314 74.1947 54.9514 73.704C54.4714 73.2027 54.0927 72.6107 53.8154 71.928C53.5487 71.2453 53.4154 70.4933 53.4154 69.672C53.4154 68.8507 53.554 68.0987 53.8314 67.416C54.1087 66.7227 54.4927 66.1307 54.9834 65.64C55.474 65.1387 56.0554 64.7547 56.7274 64.488C57.41 64.2107 58.1514 64.072 58.9514 64.072C59.8154 64.072 60.6154 64.2533 61.3514 64.616C62.098 64.9787 62.6794 65.4747 63.0954 66.104L62.5194 66.504ZM73.3654 64.328H81.7014V75H80.9334V65.048H74.1334V75H73.3654V64.328ZM98.3471 69.8H93.9471V74.28H99.9951V75H93.7871C93.6058 75 93.4565 74.952 93.3391 74.856C93.2325 74.7493 93.1791 74.6053 93.1791 74.424V64.328H99.5791V65.048H93.9471V69.08H98.3471V69.8ZM119.077 77.464V75H110.805V64.328H111.573V74.28H118.309V64.328H119.077V74.28H119.813V77.464H119.077ZM132.007 74.552C131.868 74.7547 131.745 74.8933 131.639 74.968C131.543 75.0427 131.431 75.08 131.303 75.08C131.153 75.08 131.031 75.0213 130.935 74.904C130.849 74.7867 130.807 74.6213 130.807 74.408V64.328H131.559V74.056L138.039 64.776C138.167 64.584 138.284 64.4507 138.391 64.376C138.497 64.2907 138.609 64.248 138.727 64.248C139.047 64.248 139.207 64.4293 139.207 64.792V75H138.455V65.336L132.007 74.552ZM156.859 71.56H151.835L150.459 75H149.627L153.819 64.696C153.872 64.5573 153.947 64.4507 154.043 64.376C154.15 64.2907 154.262 64.248 154.379 64.248C154.624 64.248 154.811 64.3973 154.939 64.696L159.131 75H158.251L156.859 71.56ZM152.123 70.84H156.571L154.347 65.176L152.123 70.84ZM172.178 64.808C172.189 64.6693 172.231 64.5573 172.306 64.472C172.391 64.376 172.525 64.328 172.706 64.328H178.258V75H177.49V65.048H172.946C172.914 65.9013 172.866 66.744 172.802 67.576C172.749 68.3973 172.663 69.1813 172.546 69.928C172.429 70.664 172.274 71.3467 172.082 71.976C171.901 72.5947 171.666 73.1333 171.378 73.592C171.101 74.04 170.765 74.392 170.37 74.648C169.975 74.904 169.511 75.032 168.978 75.032H168.802V74.328C169.431 74.328 169.954 74.104 170.37 73.656C170.786 73.208 171.117 72.5733 171.362 71.752C171.618 70.92 171.805 69.9173 171.922 68.744C172.039 67.5707 172.125 66.2587 172.178 64.808ZM190.932 74.552C190.794 74.7547 190.671 74.8933 190.564 74.968C190.468 75.0427 190.356 75.08 190.228 75.08C190.079 75.08 189.956 75.0213 189.86 74.904C189.775 74.7867 189.732 74.6213 189.732 74.408V64.328H190.484V74.056L196.964 64.776C197.092 64.584 197.21 64.4507 197.316 64.376C197.423 64.2907 197.535 64.248 197.652 64.248C197.972 64.248 198.132 64.4293 198.132 64.792V75H197.38V65.336L190.932 74.552ZM218.232 66.504C217.816 65.96 217.299 65.5387 216.68 65.24C216.072 64.9413 215.411 64.792 214.696 64.792C213.982 64.792 213.331 64.9093 212.744 65.144C212.168 65.3787 211.672 65.7093 211.256 66.136C210.84 66.5627 210.52 67.0747 210.296 67.672C210.072 68.2693 209.96 68.936 209.96 69.672C209.96 70.408 210.072 71.0747 210.296 71.672C210.52 72.2693 210.835 72.7813 211.24 73.208C211.646 73.624 212.136 73.9493 212.712 74.184C213.299 74.4187 213.944 74.536 214.648 74.536C215.384 74.536 216.056 74.392 216.664 74.104C217.272 73.8053 217.795 73.3787 218.232 72.824L218.808 73.224C218.606 73.5333 218.35 73.8107 218.04 74.056C217.742 74.3013 217.406 74.5147 217.032 74.696C216.67 74.8773 216.28 75.016 215.864 75.112C215.448 75.208 215.027 75.256 214.6 75.256C213.8 75.256 213.064 75.1227 212.392 74.856C211.72 74.5787 211.144 74.1947 210.664 73.704C210.184 73.2027 209.806 72.6107 209.528 71.928C209.262 71.2453 209.128 70.4933 209.128 69.672C209.128 68.8507 209.267 68.0987 209.544 67.416C209.822 66.7227 210.206 66.1307 210.696 65.64C211.187 65.1387 211.768 64.7547 212.44 64.488C213.123 64.2107 213.864 64.072 214.664 64.072C215.528 64.072 216.328 64.2533 217.064 64.616C217.811 64.9787 218.392 65.4747 218.808 66.104L218.232 66.504ZM232.012 65.016H227.868V64.328H236.924V65.016H232.78V75H232.012V65.016ZM251.403 74.536C252.075 74.536 252.699 74.4133 253.275 74.168C253.851 73.912 254.352 73.5653 254.779 73.128C255.216 72.68 255.557 72.1627 255.803 71.576C256.048 70.9787 256.171 70.3387 256.171 69.656C256.171 68.9627 256.048 68.3227 255.803 67.736C255.557 67.1387 255.221 66.6213 254.795 66.184C254.368 65.7467 253.861 65.4053 253.275 65.16C252.699 64.9147 252.075 64.792 251.403 64.792C250.731 64.792 250.101 64.9147 249.515 65.16C248.939 65.4053 248.437 65.7467 248.011 66.184C247.584 66.6213 247.248 67.1387 247.003 67.736C246.757 68.3227 246.635 68.9627 246.635 69.656C246.635 70.3387 246.757 70.9787 247.003 71.576C247.248 72.1627 247.584 72.68 248.011 73.128C248.448 73.5653 248.955 73.912 249.531 74.168C250.107 74.4133 250.731 74.536 251.403 74.536ZM251.403 75.256C250.613 75.256 249.877 75.1173 249.195 74.84C248.512 74.552 247.92 74.1573 247.419 73.656C246.917 73.1547 246.523 72.5627 246.235 71.88C245.957 71.1973 245.819 70.456 245.819 69.656C245.819 68.8667 245.963 68.136 246.251 67.464C246.539 66.7813 246.933 66.1893 247.435 65.688C247.936 65.1867 248.523 64.792 249.195 64.504C249.877 64.216 250.613 64.072 251.403 64.072C252.181 64.072 252.912 64.216 253.595 64.504C254.277 64.792 254.869 65.1867 255.371 65.688C255.872 66.1893 256.267 66.7813 256.555 67.464C256.843 68.136 256.987 68.8667 256.987 69.656C256.987 70.456 256.843 71.1973 256.555 71.88C256.277 72.5627 255.888 73.1547 255.387 73.656C254.885 74.1573 254.293 74.552 253.611 74.84C252.928 75.1173 252.192 75.256 251.403 75.256ZM267.972 64.792C267.972 64.632 268.014 64.504 268.1 64.408C268.196 64.3013 268.318 64.248 268.468 64.248C268.67 64.248 268.878 64.4133 269.092 64.744L272.98 70.856L276.884 64.744C277.097 64.4133 277.305 64.248 277.508 64.248C277.657 64.248 277.774 64.3013 277.86 64.408C277.956 64.504 278.004 64.632 278.004 64.792V75H277.268V65.432L273.652 71.176C273.524 71.3893 273.412 71.5333 273.316 71.608C273.22 71.6827 273.108 71.72 272.98 71.72C272.852 71.72 272.734 71.6827 272.628 71.608C272.521 71.5227 272.409 71.3787 272.292 71.176L268.708 65.432V75H267.972V64.792Z" fill="white"/>
</svg>
