<svg width="280" height="17" viewBox="0 0 280 17" fill="none" xmlns="http://www.w3.org/2000/svg">
<path d="M2.38203 0.185387H2.88461V13.6816H2.38203V3.28135L0.505199 13.6816H0V0.185387H0.505199V10.5856L2.38203 0.185387Z" fill="white"/>
<path d="M4.12829 0.185387L5.37427 11.1974L6.62025 0.185387H7.27203V13.6816H6.76945V8.42585L6.81657 2.753L5.56535 13.6816H5.18056L3.93196 2.78081L3.9817 8.42585V13.6816H3.47912V0.185387H4.12829Z" fill="white"/>
<path d="M9.99205 7.44329H8.34033V12.2263H10.259V13.6816H7.83775V0.185387H10.2329V1.64995H8.34033V5.988H9.99205V7.44329Z" fill="white"/>
<path d="M14.7119 7.36914C14.7119 8.69157 14.6491 9.84715 14.5234 10.8359C14.3978 11.8184 14.2198 12.5692 13.9895 13.0883C13.7591 13.6074 13.4904 13.867 13.1832 13.867C12.8935 13.867 12.6335 13.6198 12.4032 13.1254C12.1746 12.631 11.9948 11.9235 11.864 11.0027C11.7348 10.082 11.6633 9.00673 11.6493 7.77699H11.1022V13.6816H10.5996V0.185387H11.1022V6.37732H11.6467C11.6519 5.10433 11.7174 3.98891 11.843 3.03108C11.9687 2.06707 12.1475 1.32243 12.3796 0.797165C12.6117 0.265722 12.8778 0 13.178 0C13.4834 0 13.7521 0.262632 13.9842 0.787895C14.2181 1.30698 14.3978 2.06398 14.5234 3.05889C14.6491 4.04762 14.7119 5.20011 14.7119 6.51636V7.36914ZM14.2119 6.49782C14.2119 4.89731 14.1212 3.67067 13.9397 2.81788C13.7582 1.95892 13.5043 1.52944 13.178 1.52944C12.8604 1.52944 12.61 1.95892 12.4267 2.81788C12.2452 3.67067 12.1519 4.85714 12.1467 6.37732V7.36914C12.1467 8.92021 12.2383 10.1407 12.4215 11.0305C12.6065 11.9142 12.8604 12.3561 13.1832 12.3561C13.5078 12.3561 13.7591 11.9389 13.9371 11.1047C14.1151 10.2643 14.2067 9.06234 14.2119 7.49891V6.49782Z" fill="white"/>
<path d="M17.5916 1.64995H16.3666V13.6816H15.8666V1.64995H14.6442V0.185387H17.5916V1.64995Z" fill="white"/>
<path d="M20.5655 9.39913C20.5184 10.8266 20.3692 11.9297 20.1179 12.7083C19.8684 13.4807 19.5359 13.867 19.1206 13.867C18.6704 13.867 18.3091 13.2953 18.0369 12.1521C17.7664 11.0089 17.6312 9.47946 17.6312 7.5638V6.26609C17.6312 5.01163 17.694 3.90858 17.8196 2.95692C17.947 2.00527 18.1268 1.27608 18.3589 0.769357C18.591 0.256452 18.8597 0 19.1651 0C19.57 0 19.8945 0.401672 20.1388 1.20502C20.3832 2.00218 20.5254 3.10832 20.5655 4.52345H20.0603C20.0167 3.4482 19.9216 2.66957 19.775 2.18757C19.6302 1.70556 19.4269 1.46456 19.1651 1.46456C18.844 1.46456 18.5918 1.88477 18.4086 2.72519C18.2271 3.56561 18.1364 4.76136 18.1364 6.31243V7.61941C18.1364 9.08397 18.2228 10.2488 18.3955 11.114C18.5683 11.9791 18.81 12.4117 19.1206 12.4117C19.3998 12.4117 19.6136 12.1892 19.7619 11.7443C19.912 11.2932 20.0115 10.5115 20.0603 9.39913H20.5655Z" fill="white"/>
<path d="M22.9269 13.6816V8.42585H22.0474L21.2595 13.6816H20.7229L21.6076 7.93457C21.1155 7.24864 20.8695 6.02199 20.8695 4.25463C20.8695 2.96928 20.9881 1.97128 21.2255 1.26063C21.4645 0.543802 21.7961 0.185387 22.2202 0.185387H23.4321V13.6816H22.9269ZM21.3721 4.25463C21.3721 5.07034 21.4436 5.72537 21.5867 6.21974C21.7315 6.7141 21.9322 6.96438 22.1887 6.97056H22.9269V1.64995H22.2123C21.9401 1.64995 21.7315 1.87859 21.5867 2.33588C21.4436 2.79317 21.3721 3.43275 21.3721 4.25463Z" fill="white"/>
<path d="M27.9429 13.6816H27.4377V1.64995H25.5582V13.6816H25.0557V0.185387H27.9429V13.6816Z" fill="white"/>
<path d="M29.04 8.39804V13.6816H28.5374V0.185387H29.9431C30.3601 0.185387 30.6865 0.562341 30.922 1.31625C31.1594 2.07016 31.278 3.06816 31.278 4.31025C31.278 5.62032 31.162 6.63068 30.9299 7.34133C30.6995 8.0458 30.3688 8.39804 29.9378 8.39804H29.04ZM29.04 6.94275H29.9431C30.2118 6.94275 30.4177 6.72028 30.5608 6.27535C30.7039 5.82425 30.7755 5.17539 30.7755 4.32879C30.7755 3.52545 30.7039 2.88277 30.5608 2.40076C30.4177 1.91876 30.2214 1.66848 29.9718 1.64995H29.04V6.94275Z" fill="white"/>
<path d="M34.5294 7.36914C34.5294 8.69157 34.4666 9.84715 34.341 10.8359C34.2153 11.8184 34.0373 12.5692 33.807 13.0883C33.5766 13.6074 33.3079 13.867 33.0007 13.867C32.7006 13.867 32.4345 13.6074 32.2024 13.0883C31.9703 12.5631 31.7897 11.8184 31.6605 10.8544C31.5331 9.88422 31.4677 8.76263 31.4642 7.48964V6.51636C31.4642 5.21865 31.5279 4.07234 31.6553 3.07743C31.7827 2.08252 31.9624 1.32243 32.1945 0.797165C32.4283 0.265722 32.6953 0 32.9955 0C33.3009 0 33.5696 0.262632 33.8017 0.787895C34.0356 1.30698 34.2153 2.06398 34.341 3.05889C34.4666 4.04762 34.5294 5.20011 34.5294 6.51636V7.36914ZM34.0295 6.49782C34.0295 4.89731 33.9387 3.67067 33.7572 2.81788C33.5757 1.95892 33.3218 1.52944 32.9955 1.52944C32.6779 1.52944 32.4275 1.95892 32.2442 2.81788C32.0628 3.67067 31.9694 4.85714 31.9642 6.37732V7.36914C31.9642 8.92021 32.0558 10.1407 32.239 11.0305C32.424 11.9142 32.6779 12.3561 33.0007 12.3561C33.3253 12.3561 33.5766 11.9389 33.7546 11.1047C33.9326 10.2643 34.0242 9.06234 34.0295 7.49891V6.49782Z" fill="white"/>
<path d="M37.5217 1.64995H36.2966V13.6816H35.7967V1.64995H34.5742V0.185387H37.5217V1.64995Z" fill="white"/>
<path d="M40.1684 0.185387H40.671V13.6816H40.1684V3.28135L38.2916 13.6816H37.7864V0.185387H38.2916V10.5856L40.1684 0.185387Z" fill="white"/>
<path d="M41.2655 13.6816V0.185387H42.5115C42.925 0.185387 43.2357 0.488186 43.4433 1.09378C43.6527 1.69938 43.7574 2.59542 43.7574 3.7819C43.7574 4.41221 43.7068 4.97147 43.6056 5.45965C43.5044 5.94166 43.3665 6.31552 43.192 6.58124C43.398 6.78517 43.5602 7.17448 43.6789 7.74918C43.7993 8.3177 43.8595 8.99746 43.8595 9.78844C43.8595 10.9996 43.7487 11.9513 43.5271 12.6434C43.3055 13.3355 42.9922 13.6816 42.5874 13.6816H41.2655ZM41.7681 7.36914V12.2263H42.5978C42.8317 12.2263 43.0158 12.0131 43.1501 11.5867C43.2863 11.1541 43.3543 10.5609 43.3543 9.80698C43.3543 8.18175 43.1048 7.36914 42.6057 7.36914H41.7681ZM41.7681 5.94166H42.5272C42.747 5.94166 42.9224 5.747 43.0533 5.35769C43.1859 4.96838 43.2522 4.44002 43.2522 3.77263C43.2522 3.03108 43.1912 2.49346 43.069 2.15976C42.9468 1.81988 42.761 1.64995 42.5115 1.64995H41.7681V5.94166Z" fill="white"/>
<path d="M47.2156 7.36914C47.2156 8.69157 47.1528 9.84715 47.0271 10.8359C46.9015 11.8184 46.7235 12.5692 46.4932 13.0883C46.2628 13.6074 45.9941 13.867 45.6869 13.867C45.3868 13.867 45.1207 13.6074 44.8886 13.0883C44.6565 12.5631 44.4758 11.8184 44.3467 10.8544C44.2193 9.88422 44.1539 8.76263 44.1504 7.48964V6.51636C44.1504 5.21865 44.2141 4.07234 44.3415 3.07743C44.4689 2.08252 44.6486 1.32243 44.8807 0.797165C45.1145 0.265722 45.3815 0 45.6817 0C45.9871 0 46.2558 0.262632 46.4879 0.787895C46.7218 1.30698 46.9015 2.06398 47.0271 3.05889C47.1528 4.04762 47.2156 5.20011 47.2156 6.51636V7.36914ZM46.7157 6.49782C46.7157 4.89731 46.6249 3.67067 46.4434 2.81788C46.2619 1.95892 46.008 1.52944 45.6817 1.52944C45.3641 1.52944 45.1137 1.95892 44.9304 2.81788C44.749 3.67067 44.6556 4.85714 44.6504 6.37732V7.36914C44.6504 8.92021 44.742 10.1407 44.9252 11.0305C45.1102 11.9142 45.3641 12.3561 45.6869 12.3561C46.0115 12.3561 46.2628 11.9389 46.4408 11.1047C46.6188 10.2643 46.7104 9.06234 46.7157 7.49891V6.49782Z" fill="white"/>
<path d="M50.5586 13.6816H50.0534V1.64995H48.174V13.6816H47.6714V0.185387H50.5586V13.6816Z" fill="white"/>
<path d="M54.0848 7.36914C54.0848 8.69157 54.022 9.84715 53.8964 10.8359C53.7707 11.8184 53.5927 12.5692 53.3624 13.0883C53.132 13.6074 52.8633 13.867 52.5562 13.867C52.256 13.867 51.9899 13.6074 51.7578 13.0883C51.5257 12.5631 51.3451 11.8184 51.2159 10.8544C51.0886 9.88422 51.0231 8.76263 51.0196 7.48964V6.51636C51.0196 5.21865 51.0833 4.07234 51.2107 3.07743C51.3381 2.08252 51.5178 1.32243 51.7499 0.797165C51.9838 0.265722 52.2508 0 52.5509 0C52.8563 0 53.1251 0.262632 53.3572 0.787895C53.591 1.30698 53.7707 2.06398 53.8964 3.05889C54.022 4.04762 54.0848 5.20011 54.0848 6.51636V7.36914ZM53.5849 6.49782C53.5849 4.89731 53.4941 3.67067 53.3127 2.81788C53.1312 1.95892 52.8773 1.52944 52.5509 1.52944C52.2333 1.52944 51.9829 1.95892 51.7997 2.81788C51.6182 3.67067 51.5248 4.85714 51.5196 6.37732V7.36914C51.5196 8.92021 51.6112 10.1407 51.7944 11.0305C51.9794 11.9142 52.2333 12.3561 52.5562 12.3561C52.8807 12.3561 53.132 11.9389 53.31 11.1047C53.488 10.2643 53.5796 9.06234 53.5849 7.49891V6.49782Z" fill="white"/>
<path d="M55.5065 7.61941H55.0432V13.6816H54.5406V0.185387H55.0432V6.13631H55.4359L56.7682 0.185387H57.3938L55.9384 6.72955L57.5011 13.6816H56.886L55.5065 7.61941Z" fill="white"/>
<path d="M59.7448 10.1592H58.148L57.7894 13.6816H57.2711L58.7265 0.185387H59.1663L60.6243 13.6816H60.1086L59.7448 10.1592ZM58.2998 8.69466H59.5955L58.9464 2.38222L58.2998 8.69466Z" fill="white"/>
<path d="M62.771 3.80971C62.771 3.09288 62.6969 2.52435 62.5485 2.10414C62.4019 1.67775 62.1951 1.46456 61.9282 1.46456C61.7048 1.46456 61.5172 1.68393 61.3654 2.12268C61.2153 2.55525 61.1403 3.09288 61.1403 3.73555H60.6377C60.6377 3.01872 60.6926 2.37605 60.8026 1.80752C60.9143 1.239 61.0696 0.797165 61.2685 0.482007C61.4675 0.160669 61.6873 0 61.9282 0C62.354 0 62.6846 0.339876 62.9202 1.01963C63.1558 1.6932 63.2736 2.6325 63.2736 3.83751C63.2736 4.46165 63.2195 5.03017 63.1113 5.54308C63.0031 6.05598 62.8522 6.46074 62.6585 6.75736C63.107 7.2888 63.3312 8.34242 63.3312 9.91821C63.3312 11.1294 63.2038 12.0903 62.949 12.801C62.6942 13.5116 62.354 13.867 61.9282 13.867C61.6751 13.867 61.4448 13.7094 61.2371 13.3942C61.0312 13.0729 60.8706 12.6187 60.7555 12.0316C60.6403 11.4446 60.5827 10.7463 60.5827 9.93675H61.0853C61.0853 10.6474 61.1647 11.2406 61.3235 11.7165C61.4823 12.1861 61.6838 12.4209 61.9282 12.4209C62.2021 12.4209 62.4203 12.1954 62.5826 11.7443C62.7466 11.2932 62.8286 10.6968 62.8286 9.95529C62.8286 8.37332 62.552 7.56688 61.9988 7.53599H61.5277V6.07143H61.9962C62.251 6.05289 62.4438 5.84896 62.5747 5.45965C62.7056 5.07034 62.771 4.52036 62.771 3.80971Z" fill="white"/>
<path d="M65.7816 10.1592H64.1848L63.8262 13.6816H63.3079L64.7633 0.185387H65.2031L66.6611 13.6816H66.1454L65.7816 10.1592ZM64.3367 8.69466H65.6324L64.9832 2.38222L64.3367 8.69466Z" fill="white"/>
<path d="M69.7816 13.6816H69.2764V7.44329H67.3551V13.6816H66.8525V0.185387H67.3551V5.988H69.2764V0.185387H69.7816V13.6816Z" fill="white"/>
<path d="M72.7555 0.185387H73.2581V13.6816H72.7555V3.28135L70.8787 13.6816H70.3735V0.185387H70.8787V10.5856L72.7555 0.185387Z" fill="white"/>
<path d="M75.8472 13.6816V8.42585H74.9677L74.1798 13.6816H73.6432L74.528 7.93457C74.0359 7.24864 73.7898 6.02199 73.7898 4.25463C73.7898 2.96928 73.9085 1.97128 74.1458 1.26063C74.3849 0.543802 74.7164 0.185387 75.1405 0.185387H76.3524V13.6816H75.8472ZM74.2924 4.25463C74.2924 5.07034 74.3639 5.72537 74.507 6.21974C74.6519 6.7141 74.8526 6.96438 75.1091 6.97056H75.8472V1.64995H75.1326C74.8604 1.64995 74.6519 1.87859 74.507 2.33588C74.3639 2.79317 74.2924 3.43275 74.2924 4.25463Z" fill="white"/>
<path d="M76.8789 12.7824C76.8789 12.4858 76.9033 12.2386 76.9522 12.0409C77.0028 11.8431 77.0778 11.7443 77.1773 11.7443C77.2768 11.7443 77.3518 11.8431 77.4024 12.0409C77.4548 12.2386 77.4809 12.4858 77.4809 12.7824C77.4809 13.0667 77.4548 13.3046 77.4024 13.4962C77.3518 13.6878 77.2768 13.7835 77.1773 13.7835C77.0778 13.7835 77.0028 13.6878 76.9522 13.4962C76.9033 13.3046 76.8789 13.0667 76.8789 12.7824Z" fill="white"/>
<path d="M81.9551 13.6816H81.4499V1.64995H79.5704V13.6816H79.0678V0.185387H81.9551V13.6816Z" fill="white"/>
<path d="M84.7039 7.44329H83.0522V12.2263H84.9709V13.6816H82.5496V0.185387H84.9447V1.64995H83.0522V5.988H84.7039V7.44329Z" fill="white"/>
<path d="M85.7774 8.39804V13.6816H85.2748V0.185387H86.6805C87.0976 0.185387 87.4239 0.562341 87.6595 1.31625C87.8968 2.07016 88.0155 3.06816 88.0155 4.31025C88.0155 5.62032 87.8994 6.63068 87.6673 7.34133C87.437 8.0458 87.1063 8.39804 86.6753 8.39804H85.7774ZM85.7774 6.94275H86.6805C86.9492 6.94275 87.1551 6.72028 87.2982 6.27535C87.4413 5.82425 87.5129 5.17539 87.5129 4.32879C87.5129 3.52545 87.4413 2.88277 87.2982 2.40076C87.1551 1.91876 86.9588 1.66848 86.7093 1.64995H85.7774V6.94275Z" fill="white"/>
<path d="M90.4894 7.44329H88.8377V12.2263H90.7564V13.6816H88.3351V0.185387H90.7302V1.64995H88.8377V5.988H90.4894V7.44329Z" fill="white"/>
<path d="M94.4894 16.9907H93.9895V13.6816H91.2541V17H90.7515L90.7489 12.2263H91.0604C91.2244 11.5712 91.3544 10.6937 91.4504 9.59378C91.5481 8.48764 91.6092 7.27645 91.6336 5.9602L91.7174 0.185387H93.9973V12.2263H94.4947L94.4894 16.9907ZM91.6336 12.2263H93.4921V1.64995H92.2017L92.1467 5.61723C92.124 7.1683 92.0655 8.49073 91.9713 9.58451C91.8788 10.6783 91.7663 11.5589 91.6336 12.2263Z" fill="white"/>
<path d="M98.6887 13.6816H98.1835V1.64995H96.3041V13.6816H95.8015V0.185387H98.6887V13.6816Z" fill="white"/>
<path d="M99.7858 8.39804V13.6816H99.2832V0.185387H100.689C101.106 0.185387 101.432 0.562341 101.668 1.31625C101.905 2.07016 102.024 3.06816 102.024 4.31025C102.024 5.62032 101.908 6.63068 101.676 7.34133C101.445 8.0458 101.115 8.39804 100.684 8.39804H99.7858ZM99.7858 6.94275H100.689C100.958 6.94275 101.164 6.72028 101.307 6.27535C101.45 5.82425 101.521 5.17539 101.521 4.32879C101.521 3.52545 101.45 2.88277 101.307 2.40076C101.164 1.91876 100.967 1.66848 100.718 1.64995H99.7858V6.94275Z" fill="white"/>
<path d="M104.746 0.185387H105.249V13.6816H104.746V3.28135L102.87 13.6816H102.364V0.185387H102.87V10.5856L104.746 0.185387Z" fill="white"/>
<path d="M106.493 0.185387L107.739 11.1974L108.985 0.185387H109.637V13.6816H109.134V8.42585L109.181 2.753L107.93 13.6816H107.545L106.296 2.78081L106.346 8.42585V13.6816H105.844V0.185387H106.493Z" fill="white"/>
<path d="M112.357 7.44329H110.705V12.2263H112.624V13.6816H110.202V0.185387H112.597V1.64995H110.705V5.988H112.357V7.44329Z" fill="white"/>
<path d="M115.857 13.6816H115.351V7.44329H113.43V13.6816H112.927V0.185387H113.43V5.988H115.351V0.185387H115.857V13.6816Z" fill="white"/>
<path d="M118.582 7.44329H116.93V12.2263H118.849V13.6816H116.428V0.185387H118.823V1.64995H116.93V5.988H118.582V7.44329Z" fill="white"/>
<path d="M122.082 13.6816H121.577V7.44329H119.655V13.6816H119.153V0.185387H119.655V5.988H121.577V0.185387H122.082V13.6816Z" fill="white"/>
<path d="M125.056 0.185387H125.558V13.6816H125.056V3.28135L123.179 13.6816H122.674V0.185387H123.179V10.5856L125.056 0.185387Z" fill="white"/>
<path d="M128.307 7.44329H126.655V12.2263H128.574V13.6816H126.153V0.185387H128.548V1.64995H126.655V5.988H128.307V7.44329Z" fill="white"/>
<path d="M129.527 0.185387L130.773 11.1974L132.019 0.185387H132.671V13.6816H132.168V8.42585L132.216 2.753L130.964 13.6816H130.58L129.331 2.78081L129.381 8.42585V13.6816H128.878V0.185387H129.527Z" fill="white"/>
<path d="M137.174 13.6816H136.669V7.44329H134.747V13.6816H134.245V0.185387H134.747V5.988H136.669V0.185387H137.174V13.6816Z" fill="white"/>
<path d="M139.899 7.44329H138.248V12.2263H140.166V13.6816H137.745V0.185387H140.14V1.64995H138.248V5.988H139.899V7.44329Z" fill="white"/>
<path d="M143.402 7.36914C143.402 8.69157 143.339 9.84715 143.213 10.8359C143.088 11.8184 142.91 12.5692 142.679 13.0883C142.449 13.6074 142.18 13.867 141.873 13.867C141.573 13.867 141.307 13.6074 141.075 13.0883C140.843 12.5631 140.662 11.8184 140.533 10.8544C140.406 9.88422 140.34 8.76263 140.337 7.48964V6.51636C140.337 5.21865 140.4 4.07234 140.528 3.07743C140.655 2.08252 140.835 1.32243 141.067 0.797165C141.301 0.265722 141.568 0 141.868 0C142.173 0 142.442 0.262632 142.674 0.787895C142.908 1.30698 143.088 2.06398 143.213 3.05889C143.339 4.04762 143.402 5.20011 143.402 6.51636V7.36914ZM142.902 6.49782C142.902 4.89731 142.811 3.67067 142.63 2.81788C142.448 1.95892 142.194 1.52944 141.868 1.52944C141.55 1.52944 141.3 1.95892 141.117 2.81788C140.935 3.67067 140.842 4.85714 140.837 6.37732V7.36914C140.837 8.92021 140.928 10.1407 141.111 11.0305C141.296 11.9142 141.55 12.3561 141.873 12.3561C142.198 12.3561 142.449 11.9389 142.627 11.1047C142.805 10.2643 142.897 9.06234 142.902 7.49891V6.49782Z" fill="white"/>
<path d="M146.159 1.64995H144.321V5.69139H145.269C145.666 5.70992 145.977 6.07143 146.2 6.7759C146.424 7.48037 146.535 8.4382 146.535 9.6494C146.535 10.8668 146.423 11.837 146.198 12.56C145.973 13.283 145.666 13.6569 145.276 13.6816H143.816V0.185387H146.159V1.64995ZM144.321 7.15594V12.2263H145.24C145.489 12.2263 145.683 11.9915 145.821 11.5218C145.96 11.0522 146.03 10.4218 146.03 9.63086C146.03 8.87077 145.963 8.27136 145.829 7.83261C145.696 7.39386 145.507 7.1683 145.261 7.15594H144.321Z" fill="white"/>
<path d="M148.101 5.35769L149.015 0.185387H149.606L148.402 6.87786L149.635 13.6816H149.038L148.101 8.41658L147.159 13.6816H146.565L147.8 6.87786L146.593 0.185387H147.182L148.101 5.35769Z" fill="white"/>
<path d="M152.761 7.36914C152.761 8.69157 152.698 9.84715 152.572 10.8359C152.447 11.8184 152.269 12.5692 152.038 13.0883C151.808 13.6074 151.539 13.867 151.232 13.867C150.932 13.867 150.666 13.6074 150.434 13.0883C150.202 12.5631 150.021 11.8184 149.892 10.8544C149.764 9.88422 149.699 8.76263 149.696 7.48964V6.51636C149.696 5.21865 149.759 4.07234 149.887 3.07743C150.014 2.08252 150.194 1.32243 150.426 0.797165C150.66 0.265722 150.927 0 151.227 0C151.532 0 151.801 0.262632 152.033 0.787895C152.267 1.30698 152.447 2.06398 152.572 3.05889C152.698 4.04762 152.761 5.20011 152.761 6.51636V7.36914ZM152.261 6.49782C152.261 4.89731 152.17 3.67067 151.989 2.81788C151.807 1.95892 151.553 1.52944 151.227 1.52944C150.909 1.52944 150.659 1.95892 150.476 2.81788C150.294 3.67067 150.201 4.85714 150.196 6.37732V7.36914C150.196 8.92021 150.287 10.1407 150.47 11.0305C150.655 11.9142 150.909 12.3561 151.232 12.3561C151.557 12.3561 151.808 11.9389 151.986 11.1047C152.164 10.2643 152.256 9.06234 152.261 7.49891V6.49782Z" fill="white"/>
<path d="M156.533 16.9907H156.033V13.6816H153.298V17H152.795L152.793 12.2263H153.104C153.268 11.5712 153.398 10.6937 153.494 9.59378C153.592 8.48764 153.653 7.27645 153.677 5.9602L153.761 0.185387H156.041V12.2263H156.538L156.533 16.9907ZM153.677 12.2263H155.536V1.64995H154.245L154.19 5.61723C154.168 7.1683 154.109 8.49073 154.015 9.58451C153.922 10.6783 153.81 11.5589 153.677 12.2263Z" fill="white"/>
<path d="M159.216 0.185387H159.719V13.6816H159.216V3.28135L157.34 13.6816H156.834V0.185387H157.34V10.5856L159.216 0.185387Z" fill="white"/>
<path d="M160.963 0.185387L162.209 11.1974L163.455 0.185387H164.106V13.6816H163.604V8.42585L163.651 2.753L162.4 13.6816H162.015L160.766 2.78081L160.816 8.42585V13.6816H160.314V0.185387H160.963Z" fill="white"/>
<path d="M167.604 7.36914C167.604 8.69157 167.541 9.84715 167.415 10.8359C167.29 11.8184 167.112 12.5692 166.881 13.0883C166.651 13.6074 166.382 13.867 166.075 13.867C165.775 13.867 165.509 13.6074 165.277 13.0883C165.045 12.5631 164.864 11.8184 164.735 10.8544C164.608 9.88422 164.542 8.76263 164.539 7.48964V6.51636C164.539 5.21865 164.602 4.07234 164.73 3.07743C164.857 2.08252 165.037 1.32243 165.269 0.797165C165.503 0.265722 165.77 0 166.07 0C166.375 0 166.644 0.262632 166.876 0.787895C167.11 1.30698 167.29 2.06398 167.415 3.05889C167.541 4.04762 167.604 5.20011 167.604 6.51636V7.36914ZM167.104 6.49782C167.104 4.89731 167.013 3.67067 166.832 2.81788C166.65 1.95892 166.396 1.52944 166.07 1.52944C165.752 1.52944 165.502 1.95892 165.319 2.81788C165.137 3.67067 165.044 4.85714 165.039 6.37732V7.36914C165.039 8.92021 165.13 10.1407 165.313 11.0305C165.498 11.9142 165.752 12.3561 166.075 12.3561C166.4 12.3561 166.651 11.9389 166.829 11.1047C167.007 10.2643 167.099 9.06234 167.104 7.49891V6.49782Z" fill="white"/>
<path d="M171.955 13.6816H171.45V1.64995H169.57V13.6816H169.068V0.185387H171.955V13.6816Z" fill="white"/>
<path d="M173.052 8.39804V13.6816H172.55V0.185387H173.955C174.372 0.185387 174.699 0.562341 174.934 1.31625C175.171 2.07016 175.29 3.06816 175.29 4.31025C175.29 5.62032 175.174 6.63068 174.942 7.34133C174.712 8.0458 174.381 8.39804 173.95 8.39804H173.052ZM173.052 6.94275H173.955C174.224 6.94275 174.43 6.72028 174.573 6.27535C174.716 5.82425 174.788 5.17539 174.788 4.32879C174.788 3.52545 174.716 2.88277 174.573 2.40076C174.43 1.91876 174.234 1.66848 173.984 1.64995H173.052V6.94275Z" fill="white"/>
<path d="M178.542 7.36914C178.542 8.69157 178.479 9.84715 178.353 10.8359C178.227 11.8184 178.049 12.5692 177.819 13.0883C177.589 13.6074 177.32 13.867 177.013 13.867C176.713 13.867 176.447 13.6074 176.214 13.0883C175.982 12.5631 175.802 11.8184 175.673 10.8544C175.545 9.88422 175.48 8.76263 175.476 7.48964V6.51636C175.476 5.21865 175.54 4.07234 175.667 3.07743C175.795 2.08252 175.975 1.32243 176.207 0.797165C176.44 0.265722 176.707 0 177.008 0C177.313 0 177.582 0.262632 177.814 0.787895C178.048 1.30698 178.227 2.06398 178.353 3.05889C178.479 4.04762 178.542 5.20011 178.542 6.51636V7.36914ZM178.042 6.49782C178.042 4.89731 177.951 3.67067 177.769 2.81788C177.588 1.95892 177.334 1.52944 177.008 1.52944C176.69 1.52944 176.44 1.95892 176.256 2.81788C176.075 3.67067 175.982 4.85714 175.976 6.37732V7.36914C175.976 8.92021 176.068 10.1407 176.251 11.0305C176.436 11.9142 176.69 12.3561 177.013 12.3561C177.337 12.3561 177.589 11.9389 177.767 11.1047C177.945 10.2643 178.036 9.06234 178.042 7.49891V6.49782Z" fill="white"/>
<path d="M179.963 7.61941H179.5V13.6816H178.997V0.185387H179.5V6.13631H179.893L181.225 0.185387H181.851L180.395 6.72955L181.958 13.6816H181.343L179.963 7.61941Z" fill="white"/>
<path d="M184.945 7.36914C184.945 8.69157 184.882 9.84715 184.756 10.8359C184.631 11.8184 184.453 12.5692 184.222 13.0883C183.992 13.6074 183.723 13.867 183.416 13.867C183.116 13.867 182.85 13.6074 182.618 13.0883C182.386 12.5631 182.205 11.8184 182.076 10.8544C181.949 9.88422 181.883 8.76263 181.88 7.48964V6.51636C181.88 5.21865 181.943 4.07234 182.071 3.07743C182.198 2.08252 182.378 1.32243 182.61 0.797165C182.844 0.265722 183.111 0 183.411 0C183.716 0 183.985 0.262632 184.217 0.787895C184.451 1.30698 184.631 2.06398 184.756 3.05889C184.882 4.04762 184.945 5.20011 184.945 6.51636V7.36914ZM184.445 6.49782C184.445 4.89731 184.354 3.67067 184.173 2.81788C183.991 1.95892 183.737 1.52944 183.411 1.52944C183.093 1.52944 182.843 1.95892 182.66 2.81788C182.478 3.67067 182.385 4.85714 182.38 6.37732V7.36914C182.38 8.92021 182.471 10.1407 182.654 11.0305C182.839 11.9142 183.093 12.3561 183.416 12.3561C183.741 12.3561 183.992 11.9389 184.17 11.1047C184.348 10.2643 184.44 9.06234 184.445 7.49891V6.49782Z" fill="white"/>
<path d="M188.306 13.6816H187.801V7.44329H185.88V13.6816H185.377V0.185387H185.88V5.988H187.801V0.185387H188.306V13.6816Z" fill="white"/>
<path d="M191.681 9.39913C191.633 10.8266 191.484 11.9297 191.233 12.7083C190.983 13.4807 190.651 13.867 190.236 13.867C189.785 13.867 189.424 13.2953 189.152 12.1521C188.881 11.0089 188.746 9.47946 188.746 7.5638V6.26609C188.746 5.01163 188.809 3.90858 188.935 2.95692C189.062 2.00527 189.242 1.27608 189.474 0.769357C189.706 0.256452 189.975 0 190.28 0C190.685 0 191.01 0.401672 191.254 1.20502C191.498 2.00218 191.64 3.10832 191.681 4.52345H191.175C191.132 3.4482 191.037 2.66957 190.89 2.18757C190.745 1.70556 190.542 1.46456 190.28 1.46456C189.959 1.46456 189.707 1.88477 189.524 2.72519C189.342 3.56561 189.251 4.76136 189.251 6.31243V7.61941C189.251 9.08397 189.338 10.2488 189.511 11.114C189.683 11.9791 189.925 12.4117 190.236 12.4117C190.515 12.4117 190.729 12.1892 190.877 11.7443C191.027 11.2932 191.127 10.5115 191.175 9.39913H191.681Z" fill="white"/>
<path d="M193.356 8.01799L194.233 0.185387H194.817L193.469 11.4291C193.378 12.1459 193.293 12.6558 193.215 12.9586C193.136 13.2552 193.044 13.4838 192.937 13.6445C192.833 13.799 192.701 13.8762 192.542 13.8762C192.404 13.8762 192.316 13.8484 192.278 13.7928L192.293 12.3839L192.532 12.4209C192.715 12.4209 192.851 12.1089 192.94 11.4847L193.005 11.0027L193.105 10.1778L191.807 0.185387H192.369L193.356 8.01799Z" fill="white"/>
<path d="M197.838 0.185387V13.6816H197.335V1.64995H195.969L195.901 6.99836C195.875 8.79044 195.822 10.1376 195.744 11.0398C195.667 11.942 195.554 12.6063 195.403 13.0327C195.253 13.4529 195.053 13.6692 194.801 13.6816H194.636V12.2263L194.741 12.2077C194.903 12.1645 195.028 11.9791 195.116 11.6516C195.203 11.3179 195.269 10.7895 195.314 10.0665C195.36 9.34351 195.392 8.23119 195.411 6.72955L195.49 0.185387H197.838Z" fill="white"/>
<path d="M198.917 5.69139H199.864C200.262 5.70992 200.573 6.07143 200.796 6.7759C201.019 7.48037 201.131 8.4382 201.131 9.6494C201.131 10.8668 201.019 11.837 200.793 12.56C200.568 13.283 200.261 13.6569 199.872 13.6816H198.414V0.185387H198.917V5.69139ZM198.917 7.15594V12.2263H199.835C200.085 12.2263 200.279 11.9915 200.416 11.5218C200.556 11.0522 200.626 10.4218 200.626 9.63086C200.626 8.87077 200.559 8.27136 200.424 7.83261C200.292 7.39386 200.102 7.1683 199.856 7.15594H198.917Z" fill="white"/>
<path d="M203.406 1.64995H202.181V13.6816H201.681V1.64995H200.459V0.185387H203.406V1.64995Z" fill="white"/>
<path d="M206.053 0.185387H206.555V13.6816H206.053V3.28135L204.176 13.6816H203.671V0.185387H204.176V10.5856L206.053 0.185387Z" fill="white"/>
<path d="M207.652 8.39804V13.6816H207.15V0.185387H208.556C208.973 0.185387 209.299 0.562341 209.535 1.31625C209.772 2.07016 209.891 3.06816 209.891 4.31025C209.891 5.62032 209.775 6.63068 209.542 7.34133C209.312 8.0458 208.981 8.39804 208.55 8.39804H207.652ZM207.652 6.94275H208.556C208.824 6.94275 209.03 6.72028 209.173 6.27535C209.316 5.82425 209.388 5.17539 209.388 4.32879C209.388 3.52545 209.316 2.88277 209.173 2.40076C209.03 1.91876 208.834 1.66848 208.584 1.64995H207.652V6.94275Z" fill="white"/>
<path d="M213.142 7.36914C213.142 8.69157 213.079 9.84715 212.953 10.8359C212.828 11.8184 212.65 12.5692 212.419 13.0883C212.189 13.6074 211.92 13.867 211.613 13.867C211.313 13.867 211.047 13.6074 210.815 13.0883C210.583 12.5631 210.402 11.8184 210.273 10.8544C210.146 9.88422 210.08 8.76263 210.077 7.48964V6.51636C210.077 5.21865 210.14 4.07234 210.268 3.07743C210.395 2.08252 210.575 1.32243 210.807 0.797165C211.041 0.265722 211.308 0 211.608 0C211.913 0 212.182 0.262632 212.414 0.787895C212.648 1.30698 212.828 2.06398 212.953 3.05889C213.079 4.04762 213.142 5.20011 213.142 6.51636V7.36914ZM212.642 6.49782C212.642 4.89731 212.551 3.67067 212.37 2.81788C212.188 1.95892 211.934 1.52944 211.608 1.52944C211.29 1.52944 211.04 1.95892 210.857 2.81788C210.675 3.67067 210.582 4.85714 210.577 6.37732V7.36914C210.577 8.92021 210.668 10.1407 210.852 11.0305C211.037 11.9142 211.29 12.3561 211.613 12.3561C211.938 12.3561 212.189 11.9389 212.367 11.1047C212.545 10.2643 212.637 9.06234 212.642 7.49891V6.49782Z" fill="white"/>
<path d="M213.574 13.6816V0.185387H214.82C215.234 0.185387 215.544 0.488186 215.752 1.09378C215.961 1.69938 216.066 2.59542 216.066 3.7819C216.066 4.41221 216.016 4.97147 215.914 5.45965C215.813 5.94166 215.675 6.31552 215.501 6.58124C215.707 6.78517 215.869 7.17448 215.988 7.74918C216.108 8.3177 216.168 8.99746 216.168 9.78844C216.168 10.9996 216.057 11.9513 215.836 12.6434C215.614 13.3355 215.301 13.6816 214.896 13.6816H213.574ZM214.077 7.36914V12.2263H214.907C215.14 12.2263 215.324 12.0131 215.459 11.5867C215.595 11.1541 215.663 10.5609 215.663 9.80698C215.663 8.18175 215.413 7.36914 214.914 7.36914H214.077ZM214.077 5.94166H214.836C215.056 5.94166 215.231 5.747 215.362 5.35769C215.495 4.96838 215.561 4.44002 215.561 3.77263C215.561 3.03108 215.5 2.49346 215.378 2.15976C215.256 1.81988 215.07 1.64995 214.82 1.64995H214.077V5.94166Z" fill="white"/>
<path d="M218.697 10.1592H217.1L216.742 13.6816H216.223L217.679 0.185387H218.119L219.577 13.6816H219.061L218.697 10.1592ZM217.252 8.69466H218.548L217.899 2.38222L217.252 8.69466Z" fill="white"/>
<path d="M222.061 1.64995H220.836V13.6816H220.336V1.64995H219.114V0.185387H222.061V1.64995Z" fill="white"/>
<path d="M222.834 5.69139H223.781C224.179 5.70992 224.49 6.07143 224.713 6.7759C224.936 7.48037 225.048 8.4382 225.048 9.6494C225.048 10.8668 224.936 11.837 224.71 12.56C224.485 13.283 224.178 13.6569 223.789 13.6816H222.331V0.185387H222.834V5.69139ZM222.834 7.15594V12.2263H223.752C224.002 12.2263 224.196 11.9915 224.333 11.5218C224.473 11.0522 224.543 10.4218 224.543 9.63086C224.543 8.87077 224.476 8.27136 224.341 7.83261C224.209 7.39386 224.019 7.1683 223.773 7.15594H222.834Z" fill="white"/>
<path d="M228.195 9.39913C228.148 10.8266 227.998 11.9297 227.747 12.7083C227.498 13.4807 227.165 13.867 226.75 13.867C226.3 13.867 225.938 13.2953 225.666 12.1521C225.396 11.0089 225.26 9.47946 225.26 7.5638V6.26609C225.26 5.01163 225.323 3.90858 225.449 2.95692C225.576 2.00527 225.756 1.27608 225.988 0.769357C226.22 0.256452 226.489 0 226.794 0C227.199 0 227.524 0.401672 227.768 1.20502C228.012 2.00218 228.155 3.10832 228.195 4.52345H227.69C227.646 3.4482 227.551 2.66957 227.404 2.18757C227.259 1.70556 227.056 1.46456 226.794 1.46456C226.473 1.46456 226.221 1.88477 226.038 2.72519C225.856 3.56561 225.766 4.76136 225.766 6.31243V7.61941C225.766 9.08397 225.852 10.2488 226.025 11.114C226.198 11.9791 226.439 12.4117 226.75 12.4117C227.029 12.4117 227.243 12.1892 227.391 11.7443C227.541 11.2932 227.641 10.5115 227.69 9.39913H228.195Z" fill="white"/>
<path d="M230.556 13.6816V8.42585H229.677L228.889 13.6816H228.352L229.237 7.93457C228.745 7.24864 228.499 6.02199 228.499 4.25463C228.499 2.96928 228.617 1.97128 228.855 1.26063C229.094 0.543802 229.425 0.185387 229.849 0.185387H231.061V13.6816H230.556ZM229.001 4.25463C229.001 5.07034 229.073 5.72537 229.216 6.21974C229.361 6.7141 229.561 6.96438 229.818 6.97056H230.556V1.64995H229.842C229.569 1.64995 229.361 1.87859 229.216 2.33588C229.073 2.79317 229.001 3.43275 229.001 4.25463Z" fill="white"/>
<path d="M235.465 9.39913C235.418 10.8266 235.268 11.9297 235.017 12.7083C234.768 13.4807 234.435 13.867 234.02 13.867C233.57 13.867 233.208 13.2953 232.936 12.1521C232.666 11.0089 232.53 9.47946 232.53 7.5638V6.26609C232.53 5.01163 232.593 3.90858 232.719 2.95692C232.846 2.00527 233.026 1.27608 233.258 0.769357C233.49 0.256452 233.759 0 234.064 0C234.469 0 234.794 0.401672 235.038 1.20502C235.282 2.00218 235.425 3.10832 235.465 4.52345H234.96C234.916 3.4482 234.821 2.66957 234.674 2.18757C234.529 1.70556 234.326 1.46456 234.064 1.46456C233.743 1.46456 233.491 1.88477 233.308 2.72519C233.126 3.56561 233.036 4.76136 233.036 6.31243V7.61941C233.036 9.08397 233.122 10.2488 233.295 11.114C233.468 11.9791 233.709 12.4117 234.02 12.4117C234.299 12.4117 234.513 12.1892 234.661 11.7443C234.811 11.2932 234.911 10.5115 234.96 9.39913H235.465Z" fill="white"/>
<path d="M238.763 7.36914C238.763 8.69157 238.7 9.84715 238.575 10.8359C238.449 11.8184 238.271 12.5692 238.041 13.0883C237.811 13.6074 237.542 13.867 237.235 13.867C236.934 13.867 236.668 13.6074 236.436 13.0883C236.204 12.5631 236.024 11.8184 235.894 10.8544C235.767 9.88422 235.702 8.76263 235.698 7.48964V6.51636C235.698 5.21865 235.762 4.07234 235.889 3.07743C236.017 2.08252 236.196 1.32243 236.428 0.797165C236.662 0.265722 236.929 0 237.229 0C237.535 0 237.804 0.262632 238.036 0.787895C238.269 1.30698 238.449 2.06398 238.575 3.05889C238.7 4.04762 238.763 5.20011 238.763 6.51636V7.36914ZM238.263 6.49782C238.263 4.89731 238.173 3.67067 237.991 2.81788C237.81 1.95892 237.556 1.52944 237.229 1.52944C236.912 1.52944 236.661 1.95892 236.478 2.81788C236.297 3.67067 236.203 4.85714 236.198 6.37732V7.36914C236.198 8.92021 236.29 10.1407 236.473 11.0305C236.658 11.9142 236.912 12.3561 237.235 12.3561C237.559 12.3561 237.811 11.9389 237.988 11.1047C238.166 10.2643 238.258 9.06234 238.263 7.49891V6.49782Z" fill="white"/>
<path d="M243.007 9.39913C242.96 10.8266 242.811 11.9297 242.559 12.7083C242.31 13.4807 241.977 13.867 241.562 13.867C241.112 13.867 240.751 13.2953 240.478 12.1521C240.208 11.0089 240.073 9.47946 240.073 7.5638V6.26609C240.073 5.01163 240.136 3.90858 240.261 2.95692C240.389 2.00527 240.568 1.27608 240.8 0.769357C241.033 0.256452 241.301 0 241.607 0C242.012 0 242.336 0.401672 242.58 1.20502C242.825 2.00218 242.967 3.10832 243.007 4.52345H242.502C242.458 3.4482 242.363 2.66957 242.217 2.18757C242.072 1.70556 241.868 1.46456 241.607 1.46456C241.286 1.46456 241.033 1.88477 240.85 2.72519C240.669 3.56561 240.578 4.76136 240.578 6.31243V7.61941C240.578 9.08397 240.664 10.2488 240.837 11.114C241.01 11.9791 241.252 12.4117 241.562 12.4117C241.841 12.4117 242.055 12.1892 242.203 11.7443C242.354 11.2932 242.453 10.5115 242.502 9.39913H243.007Z" fill="white"/>
<path d="M246.285 13.6816H245.779V1.64995H243.9V13.6816H243.397V0.185387H246.285V13.6816Z" fill="white"/>
<path d="M249.033 7.44329H247.382V12.2263H249.3V13.6816H246.879V0.185387H249.274V1.64995H247.382V5.988H249.033V7.44329Z" fill="white"/>
<path d="M249.62 0.185387H250.125V12.2263H252.005V0.185387H252.507V12.1892H252.908L252.861 16.9351H252.408V13.6816H249.62V0.185387Z" fill="white"/>
<path d="M255.607 0.185387H256.109V13.6816H255.607V3.28135L253.73 13.6816H253.225V0.185387H253.73V10.5856L255.607 0.185387Z" fill="white"/>
<path d="M258.856 10.1592H257.259L256.9 13.6816H256.382L257.837 0.185387H258.277L259.735 13.6816H259.22L258.856 10.1592ZM257.411 8.69466H258.706L258.057 2.38222L257.411 8.69466Z" fill="white"/>
<path d="M262.856 0.185387V13.6816H262.353V1.64995H260.987L260.919 6.99836C260.892 8.79044 260.84 10.1376 260.762 11.0398C260.685 11.942 260.571 12.6063 260.421 13.0327C260.271 13.4529 260.071 13.6692 259.819 13.6816H259.654V12.2263L259.759 12.2077C259.921 12.1645 260.046 11.9791 260.133 11.6516C260.221 11.3179 260.287 10.7895 260.332 10.0665C260.378 9.34351 260.41 8.23119 260.429 6.72955L260.508 0.185387H262.856Z" fill="white"/>
<path d="M265.851 0.185387H266.353V13.6816H265.851V3.28135L263.974 13.6816H263.469V0.185387H263.974V10.5856L265.851 0.185387Z" fill="white"/>
<path d="M269.751 9.39913C269.704 10.8266 269.555 11.9297 269.304 12.7083C269.054 13.4807 268.722 13.867 268.306 13.867C267.856 13.867 267.495 13.2953 267.223 12.1521C266.952 11.0089 266.817 9.47946 266.817 7.5638V6.26609C266.817 5.01163 266.88 3.90858 267.005 2.95692C267.133 2.00527 267.312 1.27608 267.544 0.769357C267.777 0.256452 268.045 0 268.351 0C268.756 0 269.08 0.401672 269.324 1.20502C269.569 2.00218 269.711 3.10832 269.751 4.52345H269.246C269.202 3.4482 269.107 2.66957 268.961 2.18757C268.816 1.70556 268.612 1.46456 268.351 1.46456C268.03 1.46456 267.777 1.88477 267.594 2.72519C267.413 3.56561 267.322 4.76136 267.322 6.31243V7.61941C267.322 9.08397 267.408 10.2488 267.581 11.114C267.754 11.9791 267.996 12.4117 268.306 12.4117C268.585 12.4117 268.799 12.1892 268.948 11.7443C269.098 11.2932 269.197 10.5115 269.246 9.39913H269.751Z" fill="white"/>
<path d="M272.673 1.64995H271.448V13.6816H270.948V1.64995H269.725V0.185387H272.673V1.64995Z" fill="white"/>
<path d="M275.775 7.36914C275.775 8.69157 275.712 9.84715 275.586 10.8359C275.461 11.8184 275.283 12.5692 275.052 13.0883C274.822 13.6074 274.553 13.867 274.246 13.867C273.946 13.867 273.68 13.6074 273.448 13.0883C273.216 12.5631 273.035 11.8184 272.906 10.8544C272.779 9.88422 272.713 8.76263 272.71 7.48964V6.51636C272.71 5.21865 272.773 4.07234 272.901 3.07743C273.028 2.08252 273.208 1.32243 273.44 0.797165C273.674 0.265722 273.941 0 274.241 0C274.546 0 274.815 0.262632 275.047 0.787895C275.281 1.30698 275.461 2.06398 275.586 3.05889C275.712 4.04762 275.775 5.20011 275.775 6.51636V7.36914ZM275.275 6.49782C275.275 4.89731 275.184 3.67067 275.003 2.81788C274.821 1.95892 274.567 1.52944 274.241 1.52944C273.923 1.52944 273.673 1.95892 273.49 2.81788C273.308 3.67067 273.215 4.85714 273.21 6.37732V7.36914C273.21 8.92021 273.301 10.1407 273.484 11.0305C273.669 11.9142 273.923 12.3561 274.246 12.3561C274.571 12.3561 274.822 11.9389 275 11.1047C275.178 10.2643 275.27 9.06234 275.275 7.49891V6.49782Z" fill="white"/>
<path d="M276.856 0.185387L278.102 11.1974L279.348 0.185387H280V13.6816H279.497V8.42585L279.545 2.753L278.293 13.6816H277.909L276.66 2.78081L276.71 8.42585V13.6816H276.207V0.185387H276.856Z" fill="white"/>
</svg>
