<svg width="280" height="17" viewBox="0 0 280 17" fill="none" xmlns="http://www.w3.org/2000/svg">
<path d="M4.56263 0.087589H5.52529V6.46407H4.56263V1.55033L0.967678 6.46407H0V0.087589H0.967678V5.00133L4.56263 0.087589Z" fill="white"/>
<path d="M8.52359 0.087589L10.9102 5.29038L13.2968 0.087589H14.5453V6.46407H13.5826V3.98092L13.6728 1.3007L11.2762 6.46407H10.5392L8.14755 1.31384L8.24281 3.98092V6.46407H7.28015V0.087589H8.52359Z" fill="white"/>
<path d="M20.3714 3.5167H17.2076V5.7765H20.8828V6.46407H16.245V0.087589H20.8327V0.779542H17.2076V2.82913H20.3714V3.5167Z" fill="white"/>
<path d="M30.0281 3.48166C30.0281 4.10647 29.9078 4.65244 29.6671 5.11958C29.4264 5.5838 29.0855 5.93854 28.6443 6.18379C28.2031 6.42903 27.6883 6.55166 27.1 6.55166C26.5451 6.55166 26.0471 6.43487 25.6059 6.2013C25.168 5.96773 24.8237 5.63343 24.573 5.19841C24.3257 4.76338 24.1886 4.25537 24.1619 3.67436H23.114V6.46407H22.1513V0.087589H23.114V3.01306H24.1569C24.1669 2.41162 24.2922 1.88462 24.5329 1.43208C24.7736 0.976618 25.1162 0.624802 25.5607 0.376633C26.0053 0.125544 26.5151 0 27.09 0C27.6749 0 28.1897 0.124084 28.6343 0.372253C29.0822 0.617503 29.4264 0.975158 29.6671 1.44522C29.9078 1.91236 30.0281 2.45687 30.0281 3.07875V3.48166ZM29.0705 3.07C29.0705 2.31381 28.8966 1.73426 28.549 1.33135C28.2014 0.925524 27.715 0.722609 27.09 0.722609C26.4816 0.722609 26.002 0.925524 25.651 1.33135C25.3034 1.73426 25.1245 2.29483 25.1145 3.01306V3.48166C25.1145 4.21449 25.29 4.79112 25.641 5.21155C25.9953 5.62905 26.4816 5.83781 27.1 5.83781C27.7217 5.83781 28.2031 5.64073 28.544 5.24658C28.8849 4.84951 29.0604 4.28164 29.0705 3.54298V3.07Z" fill="white"/>
<path d="M36.1601 0.779542H33.8136V6.46407H32.8559V0.779542H30.5145V0.087589H36.1601V0.779542Z" fill="white"/>
<path d="M42.4726 4.44076C42.3823 5.1152 42.0965 5.63635 41.6152 6.00423C41.1372 6.36918 40.5004 6.55166 39.7049 6.55166C38.8425 6.55166 38.1506 6.28159 37.6292 5.74146C37.1111 5.20133 36.852 4.47872 36.852 3.57363V2.96051C36.852 2.36782 36.9723 1.84667 37.213 1.39704C37.457 0.947421 37.8013 0.602904 38.2459 0.363494C38.6904 0.121165 39.2052 0 39.7901 0C40.5656 0 41.1873 0.189776 41.6553 0.569329C42.1233 0.945961 42.3957 1.46858 42.4726 2.13717H41.5049C41.4213 1.62916 41.2391 1.26128 40.9584 1.03355C40.6809 0.805819 40.2915 0.691953 39.7901 0.691953C39.1751 0.691953 38.6921 0.890488 38.3411 1.28756C37.9935 1.68463 37.8197 2.24958 37.8197 2.98241V3.59991C37.8197 4.29186 37.9851 4.84221 38.3161 5.25096C38.647 5.65971 39.1099 5.86409 39.7049 5.86409C40.2397 5.86409 40.6492 5.75898 40.9333 5.54876C41.2208 5.33563 41.4113 4.9663 41.5049 4.44076H42.4726Z" fill="white"/>
<path d="M47.6118 6.46407V3.98092H45.9271L44.4179 6.46407H43.3901L45.0848 3.74881C44.1422 3.42473 43.6709 2.84518 43.6709 2.01017C43.6709 1.40288 43.8982 0.931363 44.3528 0.595605C44.8107 0.256928 45.4458 0.087589 46.258 0.087589H48.5795V6.46407H47.6118ZM44.6335 2.01017C44.6335 2.39556 44.7706 2.70504 45.0447 2.93861C45.3221 3.17218 45.7065 3.29043 46.1979 3.29335H47.6118V0.779542H46.243C45.7215 0.779542 45.3221 0.887569 45.0447 1.10362C44.7706 1.31967 44.6335 1.62186 44.6335 2.01017Z" fill="white"/>
<path d="M58.4518 6.46407H57.4841V0.779542H53.8841V6.46407H52.9215V0.087589H58.4518V6.46407Z" fill="white"/>
<path d="M61.1693 3.96778V6.46407H60.2066V0.087589H62.8991C63.698 0.087589 64.323 0.265687 64.7743 0.621882C65.2289 0.978077 65.4562 1.4496 65.4562 2.03644C65.4562 2.65541 65.2339 3.13277 64.7893 3.46853C64.3481 3.80136 63.7147 3.96778 62.8891 3.96778H61.1693ZM61.1693 3.28021H62.8991C63.4139 3.28021 63.8083 3.1751 64.0824 2.96489C64.3565 2.75176 64.4935 2.44519 64.4935 2.0452C64.4935 1.66565 64.3565 1.36201 64.0824 1.13428C63.8083 0.906546 63.4322 0.788301 62.9542 0.779542H61.1693V3.28021Z" fill="white"/>
<path d="M72.3001 3.48166C72.3001 4.10647 72.1798 4.65244 71.9391 5.11958C71.6984 5.5838 71.3575 5.93854 70.9163 6.18379C70.4751 6.42903 69.9603 6.55166 69.372 6.55166C68.7971 6.55166 68.2873 6.42903 67.8428 6.18379C67.3982 5.93562 67.0523 5.5838 66.8049 5.12834C66.5609 4.66995 66.4355 4.14004 66.4289 3.5386V3.07875C66.4289 2.46563 66.5509 1.92404 66.7949 1.45398C67.0389 0.983917 67.3832 0.624802 67.8277 0.376633C68.2756 0.125544 68.7871 0 69.362 0C69.9469 0 70.4617 0.124084 70.9063 0.372253C71.3542 0.617503 71.6984 0.975158 71.9391 1.44522C72.1798 1.91236 72.3001 2.45687 72.3001 3.07875V3.48166ZM71.3425 3.07C71.3425 2.31381 71.1686 1.73426 70.821 1.33135C70.4734 0.925524 69.987 0.722609 69.362 0.722609C68.7536 0.722609 68.274 0.925524 67.923 1.33135C67.5754 1.73426 67.3965 2.29483 67.3865 3.01306V3.48166C67.3865 4.21449 67.562 4.79112 67.913 5.21155C68.2673 5.62905 68.7536 5.83781 69.372 5.83781C69.9937 5.83781 70.4751 5.64073 70.816 5.24658C71.1569 4.84951 71.3324 4.28164 71.3425 3.54298V3.07Z" fill="white"/>
<path d="M78.6477 0.779542H76.3012V6.46407H75.3435V0.779542H73.0021V0.087589H78.6477V0.779542Z" fill="white"/>
<path d="M84.3334 0.087589H85.2961V6.46407H84.3334V1.55033L80.7385 6.46407H79.7708V0.087589H80.7385V5.00133L84.3334 0.087589Z" fill="white"/>
<path d="M87.0509 6.46407V0.087589H89.4375C90.2297 0.087589 90.8247 0.230651 91.2225 0.516775C91.6236 0.802899 91.8242 1.22625 91.8242 1.78682C91.8242 2.08462 91.7272 2.34885 91.5333 2.5795C91.3395 2.80723 91.0754 2.98387 90.7412 3.10941C91.1356 3.20576 91.4464 3.3897 91.6737 3.66122C91.9044 3.92983 92.0197 4.25099 92.0197 4.6247C92.0197 5.19695 91.8074 5.64657 91.3829 5.97357C90.9584 6.30057 90.3584 6.46407 89.5829 6.46407H87.0509ZM88.0136 3.48166V5.7765H89.603C90.0509 5.7765 90.4036 5.67577 90.6609 5.47431C90.9217 5.26994 91.052 4.98965 91.052 4.63346C91.052 3.8656 90.574 3.48166 89.618 3.48166H88.0136ZM88.0136 2.80723H89.4676C89.8888 2.80723 90.2247 2.71526 90.4754 2.53132C90.7295 2.34739 90.8565 2.09776 90.8565 1.78244C90.8565 1.43208 90.7395 1.17807 90.5055 1.02041C90.2715 0.859832 89.9155 0.779542 89.4375 0.779542H88.0136V2.80723Z" fill="white"/>
<path d="M99.0642 3.48166C99.0642 4.10647 98.9439 4.65244 98.7032 5.11958C98.4625 5.5838 98.1216 5.93854 97.6804 6.18379C97.2391 6.42903 96.7244 6.55166 96.1361 6.55166C95.5612 6.55166 95.0514 6.42903 94.6069 6.18379C94.1623 5.93562 93.8163 5.5838 93.569 5.12834C93.325 4.66995 93.1996 4.14004 93.1929 3.5386V3.07875C93.1929 2.46563 93.3149 1.92404 93.559 1.45398C93.803 0.983917 94.1472 0.624802 94.5918 0.376633C95.0397 0.125544 95.5511 0 96.1261 0C96.711 0 97.2258 0.124084 97.6703 0.372253C98.1182 0.617503 98.4625 0.975158 98.7032 1.44522C98.9439 1.91236 99.0642 2.45687 99.0642 3.07875V3.48166ZM98.1065 3.07C98.1065 2.31381 97.9327 1.73426 97.5851 1.33135C97.2375 0.925524 96.7511 0.722609 96.1261 0.722609C95.5177 0.722609 95.038 0.925524 94.6871 1.33135C94.3394 1.73426 94.1606 2.29483 94.1506 3.01306V3.48166C94.1506 4.21449 94.3261 4.79112 94.677 5.21155C95.0314 5.62905 95.5177 5.83781 96.1361 5.83781C96.7578 5.83781 97.2391 5.64073 97.5801 5.24658C97.921 4.84951 98.0965 4.28164 98.1065 3.54298V3.07Z" fill="white"/>
<path d="M106.084 6.46407H105.116V0.779542H101.516V6.46407H100.553V0.087589H106.084V6.46407Z" fill="white"/>
<path d="M113.454 3.48166C113.454 4.10647 113.334 4.65244 113.093 5.11958C112.852 5.5838 112.511 5.93854 112.07 6.18379C111.629 6.42903 111.114 6.55166 110.526 6.55166C109.951 6.55166 109.441 6.42903 108.997 6.18379C108.552 5.93562 108.206 5.5838 107.959 5.12834C107.715 4.66995 107.589 4.14004 107.583 3.5386V3.07875C107.583 2.46563 107.705 1.92404 107.949 1.45398C108.193 0.983917 108.537 0.624802 108.982 0.376633C109.43 0.125544 109.941 0 110.516 0C111.101 0 111.616 0.124084 112.06 0.372253C112.508 0.617503 112.852 0.975158 113.093 1.44522C113.334 1.91236 113.454 2.45687 113.454 3.07875V3.48166ZM112.496 3.07C112.496 2.31381 112.323 1.73426 111.975 1.33135C111.627 0.925524 111.141 0.722609 110.516 0.722609C109.908 0.722609 109.428 0.925524 109.077 1.33135C108.729 1.73426 108.55 2.29483 108.54 3.01306V3.48166C108.54 4.21449 108.716 4.79112 109.067 5.21155C109.421 5.62905 109.908 5.83781 110.526 5.83781C111.148 5.83781 111.629 5.64073 111.97 5.24658C112.311 4.84951 112.486 4.28164 112.496 3.54298V3.07Z" fill="white"/>
<path d="M116.793 3.59991H115.906V6.46407H114.943V0.087589H115.906V2.8992H116.658L119.21 0.087589H120.408L117.621 3.17948L120.614 6.46407H119.436L116.793 3.59991Z" fill="white"/>
<path d="M125.527 4.79988H122.469L121.782 6.46407H120.789L123.577 0.087589H124.419L127.212 6.46407H126.224L125.527 4.79988ZM122.76 4.10793H125.242L123.998 1.12552L122.76 4.10793Z" fill="white"/>
<path d="M131.94 1.79995C131.94 1.46128 131.798 1.19267 131.514 0.994135C131.233 0.792681 130.837 0.691953 130.326 0.691953C129.898 0.691953 129.539 0.7956 129.248 1.00289C128.96 1.20727 128.817 1.46128 128.817 1.76492H127.854C127.854 1.42624 127.959 1.1226 128.17 0.853993C128.384 0.585387 128.681 0.376633 129.062 0.227731C129.443 0.0759105 129.864 0 130.326 0C131.141 0 131.775 0.16058 132.226 0.48174C132.677 0.79998 132.903 1.24376 132.903 1.81309C132.903 2.10798 132.799 2.37658 132.592 2.61891C132.385 2.86124 132.096 3.05248 131.725 3.19262C132.584 3.44371 133.013 3.94151 133.013 4.68601C133.013 5.25826 132.769 5.71226 132.281 6.04802C131.793 6.38378 131.141 6.55166 130.326 6.55166C129.841 6.55166 129.4 6.47721 129.002 6.32831C128.608 6.17649 128.3 5.96189 128.08 5.68453C127.859 5.40716 127.749 5.07724 127.749 4.69477H128.711C128.711 5.03053 128.863 5.31081 129.168 5.53563C129.472 5.75752 129.858 5.86846 130.326 5.86846C130.851 5.86846 131.268 5.7619 131.579 5.54876C131.893 5.33563 132.05 5.05389 132.05 4.70353C132.05 3.9561 131.521 3.57509 130.461 3.56049H129.559V2.86854H130.456C130.944 2.85978 131.313 2.76343 131.564 2.5795C131.815 2.39556 131.94 2.13571 131.94 1.79995Z" fill="white"/>
<path d="M138.323 4.79988H135.264L134.577 6.46407H133.585L136.372 0.087589H137.215L140.008 6.46407H139.02L138.323 4.79988ZM135.555 4.10793H138.037L136.794 1.12552L135.555 4.10793Z" fill="white"/>
<path d="M146.601 6.46407H145.633V3.5167H141.953V6.46407H140.99V0.087589H141.953V2.82913H145.633V0.087589H146.601V6.46407Z" fill="white"/>
<path d="M152.913 0.087589H153.876V6.46407H152.913V1.55033L149.318 6.46407H148.351V0.087589H149.318V5.00133L152.913 0.087589Z" fill="white"/>
<path d="M159.451 6.46407V3.98092H157.767L156.257 6.46407H155.23L156.924 3.74881C155.982 3.42473 155.51 2.84518 155.51 2.01017C155.51 1.40288 155.738 0.931363 156.192 0.595605C156.65 0.256928 157.285 0.087589 158.098 0.087589H160.419V6.46407H159.451ZM156.473 2.01017C156.473 2.39556 156.61 2.70504 156.884 2.93861C157.162 3.17218 157.546 3.29043 158.037 3.29335H159.451V0.779542H158.083C157.561 0.779542 157.162 0.887569 156.884 1.10362C156.61 1.31967 156.473 1.62186 156.473 2.01017Z" fill="white"/>
<path d="M162.044 6.03926C162.044 5.89912 162.09 5.78234 162.184 5.68891C162.281 5.59548 162.425 5.54876 162.615 5.54876C162.806 5.54876 162.949 5.59548 163.046 5.68891C163.147 5.78234 163.197 5.89912 163.197 6.03926C163.197 6.17357 163.147 6.28597 163.046 6.37648C162.949 6.46699 162.806 6.51224 162.615 6.51224C162.425 6.51224 162.281 6.46699 162.184 6.37648C162.09 6.28597 162.044 6.17357 162.044 6.03926Z" fill="white"/>
<path d="M172.999 6.46407H172.031V0.779542H168.431V6.46407H167.469V0.087589H172.999V6.46407Z" fill="white"/>
<path d="M178.88 3.5167H175.716V5.7765H179.392V6.46407H174.754V0.087589H179.341V0.779542H175.716V2.82913H178.88V3.5167Z" fill="white"/>
<path d="M181.553 3.96778V6.46407H180.59V0.087589H183.282C184.081 0.087589 184.706 0.265687 185.157 0.621882C185.612 0.978077 185.839 1.4496 185.839 2.03644C185.839 2.65541 185.617 3.13277 185.173 3.46853C184.731 3.80136 184.098 3.96778 183.272 3.96778H181.553ZM181.553 3.28021H183.282C183.797 3.28021 184.191 3.1751 184.466 2.96489C184.74 2.75176 184.877 2.44519 184.877 2.0452C184.877 1.66565 184.74 1.36201 184.466 1.13428C184.191 0.906546 183.815 0.788301 183.337 0.779542H181.553V3.28021Z" fill="white"/>
<path d="M191.194 3.5167H188.03V5.7765H191.706V6.46407H187.068V0.087589H191.655V0.779542H188.03V2.82913H191.194V3.5167Z" fill="white"/>
<path d="M199.472 8.02753H198.514V6.46407H193.275V8.03191H192.312L192.307 5.7765H192.904C193.218 5.46701 193.467 5.05243 193.651 4.53273C193.838 4.01012 193.955 3.43787 194.002 2.81599L194.162 0.087589H198.529V5.7765H199.482L199.472 8.02753ZM194.002 5.7765H197.562V0.779542H195.09L194.985 2.65395C194.941 3.38678 194.829 4.01158 194.649 4.52835C194.472 5.04513 194.256 5.46118 194.002 5.7765Z" fill="white"/>
<path d="M208.748 6.46407H207.78V0.779542H204.18V6.46407H203.217V0.087589H208.748V6.46407Z" fill="white"/>
<path d="M211.465 3.96778V6.46407H210.503V0.087589H213.195C213.994 0.087589 214.619 0.265687 215.07 0.621882C215.525 0.978077 215.752 1.4496 215.752 2.03644C215.752 2.65541 215.53 3.13277 215.085 3.46853C214.644 3.80136 214.011 3.96778 213.185 3.96778H211.465ZM211.465 3.28021H213.195C213.71 3.28021 214.104 3.1751 214.378 2.96489C214.652 2.75176 214.789 2.44519 214.789 2.0452C214.789 1.66565 214.652 1.36201 214.378 1.13428C214.104 0.906546 213.728 0.788301 213.25 0.779542H211.465V3.28021Z" fill="white"/>
<path d="M221.583 0.087589H222.546V6.46407H221.583V1.55033L217.988 6.46407H217.021V0.087589H217.988V5.00133L221.583 0.087589Z" fill="white"/>
<path d="M225.544 0.087589L227.931 5.29038L230.317 0.087589H231.566V6.46407H230.603V3.98092L230.694 1.3007L228.297 6.46407H227.56L225.168 1.31384L225.263 3.98092V6.46407H224.301V0.087589H225.544Z" fill="white"/>
<path d="M237.392 3.5167H234.228V5.7765H237.903V6.46407H233.266V0.087589H237.853V0.779542H234.228V2.82913H237.392V3.5167Z" fill="white"/>
<path d="M244.712 6.46407H243.745V3.5167H240.064V6.46407H239.102V0.087589H240.064V2.82913H243.745V0.087589H244.712V6.46407Z" fill="white"/>
<path d="M250.548 3.5167H247.385V5.7765H251.06V6.46407H246.422V0.087589H251.01V0.779542H247.385V2.82913H250.548V3.5167Z" fill="white"/>
<path d="M257.869 6.46407H256.901V3.5167H253.221V6.46407H252.258V0.087589H253.221V2.82913H256.901V0.087589H257.869V6.46407Z" fill="white"/>
<path d="M264.181 0.087589H265.144V6.46407H264.181V1.55033L260.586 6.46407H259.619V0.087589H260.586V5.00133L264.181 0.087589Z" fill="white"/>
<path d="M271.025 3.5167H267.861V5.7765H271.537V6.46407H266.899V0.087589H271.486V0.779542H267.861V2.82913H271.025V3.5167Z" fill="white"/>
<path d="M273.978 0.087589L276.365 5.29038L278.752 0.087589H280V6.46407H279.037V3.98092L279.128 1.3007L276.731 6.46407H275.994L273.602 1.31384L273.698 3.98092V6.46407H272.735V0.087589H273.978Z" fill="white"/>
<path d="M5.09961 15.4324H4.22005V12.4852H0.875V15.4324H0V9.05633H0.875V11.7977H4.22005V9.05633H5.09961V15.4324Z" fill="white"/>
<path d="M10.4043 12.4852H7.52865V14.7449H10.8691V15.4324H6.65365V9.05633H10.8236V9.74825H7.52865V11.7977H10.4043V12.4852Z" fill="white"/>
<path d="M17.0625 12.4502C17.0625 13.075 16.9531 13.6209 16.7344 14.088C16.5156 14.5522 16.2057 14.9069 15.8047 15.1522C15.4036 15.3974 14.9358 15.52 14.401 15.52C13.8785 15.52 13.4151 15.3974 13.0111 15.1522C12.607 14.904 12.2925 14.5522 12.0677 14.0968C11.8459 13.6384 11.732 13.1085 11.7259 12.5071V12.0473C11.7259 11.4342 11.8368 10.8927 12.0586 10.4226C12.2804 9.95261 12.5933 9.59351 12.9974 9.34536C13.4045 9.09429 13.8694 8.96875 14.3919 8.96875C14.9236 8.96875 15.3915 9.09283 15.7956 9.34098C16.2027 9.58622 16.5156 9.94385 16.7344 10.4139C16.9531 10.881 17.0625 11.4255 17.0625 12.0473V12.4502ZM16.1921 12.0386C16.1921 11.2824 16.0341 10.7029 15.7181 10.3C15.4021 9.89422 14.9601 9.69132 14.3919 9.69132C13.839 9.69132 13.403 9.89422 13.084 10.3C12.768 10.7029 12.6055 11.2634 12.5964 11.9816V12.4502C12.5964 13.183 12.7559 13.7596 13.0749 14.18C13.3969 14.5975 13.839 14.8062 14.401 14.8062C14.9661 14.8062 15.4036 14.6091 15.7135 14.215C16.0234 13.818 16.1829 13.2501 16.1921 12.5115V12.0386Z" fill="white"/>
<path d="M22.4219 9.74825H19.2227V11.6576H20.8724C21.5651 11.6663 22.1059 11.8371 22.4948 12.1699C22.8837 12.5028 23.0781 12.9553 23.0781 13.5275C23.0781 14.1026 22.8822 14.561 22.4902 14.9025C22.0983 15.2441 21.5636 15.4208 20.8861 15.4324H18.3431V9.05633H22.4219V9.74825ZM19.2227 12.3495V14.7449H20.8223C21.2567 14.7449 21.594 14.634 21.834 14.4121C22.077 14.1902 22.1986 13.8924 22.1986 13.5187C22.1986 13.1596 22.0816 12.8764 21.8477 12.6692C21.6168 12.4619 21.2871 12.3553 20.8587 12.3495H19.2227Z" fill="white"/>
<path d="M26.3639 11.4999L27.9544 9.05633H28.9844L26.888 12.2181L29.0345 15.4324H27.9954L26.3639 12.9451L24.7233 15.4324H23.6888L25.8398 12.2181L23.7389 9.05633H24.7643L26.3639 11.4999Z" fill="white"/>
<path d="M35.0365 12.4502C35.0365 13.075 34.9271 13.6209 34.7083 14.088C34.4896 14.5522 34.1797 14.9069 33.7786 15.1522C33.3776 15.3974 32.9097 15.52 32.375 15.52C31.8524 15.52 31.3891 15.3974 30.985 15.1522C30.5809 14.904 30.2665 14.5522 30.0417 14.0968C29.8199 13.6384 29.7059 13.1085 29.6999 12.5071V12.0473C29.6999 11.4342 29.8108 10.8927 30.0326 10.4226C30.2543 9.95261 30.5673 9.59351 30.9714 9.34536C31.3785 9.09429 31.8433 8.96875 32.3659 8.96875C32.8976 8.96875 33.3655 9.09283 33.7695 9.34098C34.1766 9.58622 34.4896 9.94385 34.7083 10.4139C34.9271 10.881 35.0365 11.4255 35.0365 12.0473V12.4502ZM34.166 12.0386C34.166 11.2824 34.008 10.7029 33.6921 10.3C33.3761 9.89422 32.934 9.69132 32.3659 9.69132C31.8129 9.69132 31.377 9.89422 31.0579 10.3C30.742 10.7029 30.5794 11.2634 30.5703 11.9816V12.4502C30.5703 13.183 30.7298 13.7596 31.0488 14.18C31.3709 14.5975 31.8129 14.8062 32.375 14.8062C32.9401 14.8062 33.3776 14.6091 33.6875 14.215C33.9974 13.818 34.1569 13.2501 34.166 12.5115V12.0386Z" fill="white"/>
<path d="M42.1641 16.9958H41.2936V15.4324H36.5313V17.0002H35.6563L35.6517 14.7449H36.194C36.4796 14.4354 36.7059 14.0209 36.873 13.5012C37.0432 12.9786 37.1495 12.4064 37.1921 11.7846L37.3379 9.05633H41.3073V14.7449H42.1732L42.1641 16.9958ZM37.1921 14.7449H40.4277V9.74825H38.181L38.0853 11.6225C38.0458 12.3553 37.944 12.9801 37.7799 13.4968C37.6189 14.0136 37.423 14.4296 37.1921 14.7449Z" fill="white"/>
<path d="M47.3958 9.05633H48.2708V15.4324H47.3958V10.519L44.1283 15.4324H43.2487V9.05633H44.1283V13.9698L47.3958 9.05633Z" fill="white"/>
<path d="M50.9961 9.05633L53.1654 14.2588L55.3346 9.05633H56.4694V15.4324H55.5944V12.9494L55.6764 10.2694L53.498 15.4324H52.8281L50.6543 10.2825L50.7409 12.9494V15.4324H49.8659V9.05633H50.9961Z" fill="white"/>
<path d="M63.1185 12.4502C63.1185 13.075 63.0091 13.6209 62.7904 14.088C62.5716 14.5522 62.2617 14.9069 61.8607 15.1522C61.4596 15.3974 60.9918 15.52 60.457 15.52C59.9345 15.52 59.4711 15.3974 59.0671 15.1522C58.663 14.904 58.3485 14.5522 58.1237 14.0968C57.9019 13.6384 57.788 13.1085 57.7819 12.5071V12.0473C57.7819 11.4342 57.8928 10.8927 58.1146 10.4226C58.3364 9.95261 58.6493 9.59351 59.0534 9.34536C59.4605 9.09429 59.9253 8.96875 60.4479 8.96875C60.9796 8.96875 61.4475 9.09283 61.8516 9.34098C62.2587 9.58622 62.5716 9.94385 62.7904 10.4139C63.0091 10.881 63.1185 11.4255 63.1185 12.0473V12.4502ZM62.248 12.0386C62.248 11.2824 62.0901 10.7029 61.7741 10.3C61.4581 9.89422 61.0161 9.69132 60.4479 9.69132C59.895 9.69132 59.459 9.89422 59.14 10.3C58.824 10.7029 58.6615 11.2634 58.6523 11.9816V12.4502C58.6523 13.183 58.8118 13.7596 59.1309 14.18C59.4529 14.5975 59.895 14.8062 60.457 14.8062C61.0221 14.8062 61.4596 14.6091 61.7695 14.215C62.0794 13.818 62.2389 13.2501 62.248 12.5115V12.0386Z" fill="white"/>
<path d="M71.8138 15.4324H70.9342V9.74825H67.6621V15.4324H66.7871V9.05633H71.8138V15.4324Z" fill="white"/>
<path d="M74.2839 12.9363V15.4324H73.4089V9.05633H75.8561C76.5822 9.05633 77.1504 9.23442 77.5605 9.59059C77.9737 9.94677 78.1803 10.4183 78.1803 11.0051C78.1803 11.624 77.9783 12.1013 77.5742 12.4371C77.1732 12.7699 76.5974 12.9363 75.847 12.9363H74.2839ZM74.2839 12.2488H75.8561C76.324 12.2488 76.6825 12.1437 76.9316 11.9335C77.1808 11.7203 77.3053 11.4138 77.3053 11.0138C77.3053 10.6343 77.1808 10.3307 76.9316 10.103C76.6825 9.87524 76.3407 9.757 75.9063 9.74825H74.2839V12.2488Z" fill="white"/>
<path d="M84.401 12.4502C84.401 13.075 84.2917 13.6209 84.0729 14.088C83.8542 14.5522 83.5443 14.9069 83.1432 15.1522C82.7422 15.3974 82.2743 15.52 81.7396 15.52C81.217 15.52 80.7537 15.3974 80.3496 15.1522C79.9455 14.904 79.6311 14.5522 79.4063 14.0968C79.1845 13.6384 79.0705 13.1085 79.0645 12.5071V12.0473C79.0645 11.4342 79.1753 10.8927 79.3971 10.4226C79.6189 9.95261 79.9319 9.59351 80.3359 9.34536C80.7431 9.09429 81.2079 8.96875 81.7305 8.96875C82.2622 8.96875 82.73 9.09283 83.1341 9.34098C83.5412 9.58622 83.8542 9.94385 84.0729 10.4139C84.2917 10.881 84.401 11.4255 84.401 12.0473V12.4502ZM83.5306 12.0386C83.5306 11.2824 83.3726 10.7029 83.0566 10.3C82.7407 9.89422 82.2986 9.69132 81.7305 9.69132C81.1775 9.69132 80.7415 9.89422 80.4225 10.3C80.1066 10.7029 79.944 11.2634 79.9349 11.9816V12.4502C79.9349 13.183 80.0944 13.7596 80.4134 14.18C80.7355 14.5975 81.1775 14.8062 81.7396 14.8062C82.3047 14.8062 82.7422 14.6091 83.0521 14.215C83.362 13.818 83.5215 13.2501 83.5306 12.5115V12.0386Z" fill="white"/>
<path d="M87.4362 12.5684H86.6296V15.4324H85.7546V9.05633H86.6296V11.8678H87.3132L89.6328 9.05633H90.722L88.1882 12.148L90.9089 15.4324H89.8379L87.4362 12.5684Z" fill="white"/>
<path d="M96.6693 12.4502C96.6693 13.075 96.5599 13.6209 96.3411 14.088C96.1224 14.5522 95.8125 14.9069 95.4115 15.1522C95.0104 15.3974 94.5425 15.52 94.0078 15.52C93.4852 15.52 93.0219 15.3974 92.6178 15.1522C92.2138 14.904 91.8993 14.5522 91.6745 14.0968C91.4527 13.6384 91.3388 13.1085 91.3327 12.5071V12.0473C91.3327 11.4342 91.4436 10.8927 91.6654 10.4226C91.8872 9.95261 92.2001 9.59351 92.6042 9.34536C93.0113 9.09429 93.4761 8.96875 93.9987 8.96875C94.5304 8.96875 94.9983 9.09283 95.4023 9.34098C95.8095 9.58622 96.1224 9.94385 96.3411 10.4139C96.5599 10.881 96.6693 11.4255 96.6693 12.0473V12.4502ZM95.7988 12.0386C95.7988 11.2824 95.6408 10.7029 95.3249 10.3C95.0089 9.89422 94.5668 9.69132 93.9987 9.69132C93.4457 9.69132 93.0098 9.89422 92.6908 10.3C92.3748 10.7029 92.2122 11.2634 92.2031 11.9816V12.4502C92.2031 13.183 92.3626 13.7596 92.6816 14.18C93.0037 14.5975 93.4457 14.8062 94.0078 14.8062C94.5729 14.8062 95.0104 14.6091 95.3203 14.215C95.6302 13.818 95.7897 13.2501 95.7988 12.5115V12.0386Z" fill="white"/>
<path d="M103.081 15.4324H102.202V12.4852H98.8568V15.4324H97.9818V9.05633H98.8568V11.7977H102.202V9.05633H103.081V15.4324Z" fill="white"/>
<path d="M109.516 13.4092C109.434 14.0836 109.174 14.6048 108.737 14.9726C108.303 15.3375 107.724 15.52 107.001 15.52C106.217 15.52 105.588 15.25 105.114 14.7099C104.643 14.1698 104.408 13.4472 104.408 12.5422V11.9291C104.408 11.3364 104.517 10.8153 104.736 10.3657C104.957 9.91611 105.27 9.57162 105.674 9.33222C106.079 9.08991 106.546 8.96875 107.078 8.96875C107.783 8.96875 108.348 9.15851 108.773 9.53804C109.199 9.91465 109.446 10.4372 109.516 11.1058H108.637C108.561 10.5978 108.395 10.23 108.14 10.0022C107.888 9.77452 107.534 9.66066 107.078 9.66066C106.519 9.66066 106.08 9.85918 105.761 10.2562C105.445 10.6533 105.287 11.2182 105.287 11.951V12.5684C105.287 13.2604 105.438 13.8107 105.738 14.2194C106.039 14.6281 106.46 14.8325 107.001 14.8325C107.487 14.8325 107.859 14.7274 108.117 14.5172C108.378 14.3041 108.552 13.9347 108.637 13.4092H109.516Z" fill="white"/>
<path d="M112.993 12.7567L114.52 9.05633H115.536L113.189 14.3683C113.031 14.7069 112.884 14.9478 112.747 15.0909C112.611 15.231 112.45 15.339 112.264 15.4149C112.082 15.4879 111.853 15.5244 111.576 15.5244C111.336 15.5244 111.183 15.5113 111.116 15.485L111.143 14.8193L111.558 14.8369C111.877 14.8369 112.114 14.6894 112.269 14.3946L112.383 14.1668L112.556 13.7771L110.296 9.05633H111.275L112.993 12.7567Z" fill="white"/>
<path d="M121.356 9.05633V15.4324H120.481V9.74825H118.102L117.984 12.275C117.938 13.1217 117.847 13.7581 117.71 14.1844C117.577 14.6106 117.379 14.9244 117.118 15.1259C116.857 15.3244 116.507 15.4266 116.07 15.4324H115.783V14.7449L115.965 14.7361C116.247 14.7157 116.465 14.6281 116.617 14.4734C116.768 14.3157 116.884 14.0661 116.963 13.7245C117.042 13.383 117.098 12.8575 117.132 12.148L117.268 9.05633H121.356Z" fill="white"/>
<path d="M123.794 11.6576H125.444C126.137 11.6663 126.678 11.8371 127.066 12.1699C127.455 12.5028 127.65 12.9553 127.65 13.5275C127.65 14.1026 127.454 14.561 127.062 14.9025C126.67 15.2441 126.135 15.4208 125.458 15.4324H122.919V9.05633H123.794V11.6576ZM123.794 12.3495V14.7449H125.394C125.828 14.7449 126.166 14.634 126.406 14.4121C126.649 14.1902 126.77 13.8924 126.77 13.5187C126.77 13.1596 126.653 12.8764 126.419 12.6692C126.188 12.4619 125.859 12.3553 125.43 12.3495H123.794Z" fill="white"/>
<path d="M132.171 9.74825H130.038V15.4324H129.167V9.74825H127.039V9.05633H132.171V9.74825Z" fill="white"/>
<path d="M137.339 9.05633H138.214V15.4324H137.339V10.519L134.071 15.4324H133.191V9.05633H134.071V13.9698L137.339 9.05633Z" fill="white"/>
<path d="M140.684 12.9363V15.4324H139.809V9.05633H142.256C142.982 9.05633 143.55 9.23442 143.96 9.59059C144.373 9.94677 144.58 10.4183 144.58 11.0051C144.58 11.624 144.378 12.1013 143.974 12.4371C143.573 12.7699 142.997 12.9363 142.247 12.9363H140.684ZM140.684 12.2488H142.256C142.724 12.2488 143.082 12.1437 143.331 11.9335C143.581 11.7203 143.705 11.4138 143.705 11.0138C143.705 10.6343 143.581 10.3307 143.331 10.103C143.082 9.87524 142.74 9.757 142.306 9.74825H140.684V12.2488Z" fill="white"/>
<path d="M150.801 12.4502C150.801 13.075 150.691 13.6209 150.473 14.088C150.254 14.5522 149.944 14.9069 149.543 15.1522C149.142 15.3974 148.674 15.52 148.139 15.52C147.617 15.52 147.153 15.3974 146.749 15.1522C146.345 14.904 146.031 14.5522 145.806 14.0968C145.584 13.6384 145.47 13.1085 145.464 12.5071V12.0473C145.464 11.4342 145.575 10.8927 145.797 10.4226C146.019 9.95261 146.332 9.59351 146.736 9.34536C147.143 9.09429 147.608 8.96875 148.13 8.96875C148.662 8.96875 149.13 9.09283 149.534 9.34098C149.941 9.58622 150.254 9.94385 150.473 10.4139C150.691 10.881 150.801 11.4255 150.801 12.0473V12.4502ZM149.93 12.0386C149.93 11.2824 149.772 10.7029 149.456 10.3C149.14 9.89422 148.698 9.69132 148.13 9.69132C147.577 9.69132 147.141 9.89422 146.822 10.3C146.506 10.7029 146.344 11.2634 146.335 11.9816V12.4502C146.335 13.183 146.494 13.7596 146.813 14.18C147.135 14.5975 147.577 14.8062 148.139 14.8062C148.704 14.8062 149.142 14.6091 149.452 14.215C149.762 13.818 149.921 13.2501 149.93 12.5115V12.0386Z" fill="white"/>
<path d="M152.113 15.4324V9.05633H154.283C155.003 9.05633 155.543 9.19939 155.905 9.48549C156.27 9.7716 156.452 10.1949 156.452 10.7555C156.452 11.0532 156.364 11.3175 156.188 11.5481C156.011 11.7758 155.771 11.9524 155.467 12.078C155.826 12.1743 156.109 12.3582 156.315 12.6297C156.525 12.8983 156.63 13.2195 156.63 13.5932C156.63 14.1654 156.437 14.615 156.051 14.942C155.665 15.2689 155.12 15.4324 154.415 15.4324H152.113ZM152.988 12.4502V14.7449H154.433C154.84 14.7449 155.161 14.6442 155.395 14.4427C155.632 14.2384 155.75 13.9581 155.75 13.6019C155.75 12.8341 155.316 12.4502 154.447 12.4502H152.988ZM152.988 11.7758H154.31C154.693 11.7758 154.998 11.6838 155.226 11.4999C155.457 11.316 155.572 11.0664 155.572 10.7511C155.572 10.4007 155.466 10.1468 155.253 9.9891C155.041 9.82853 154.717 9.74825 154.283 9.74825H152.988V11.7758Z" fill="white"/>
<path d="M161.592 13.7683H158.813L158.188 15.4324H157.286L159.82 9.05633H160.585L163.124 15.4324H162.226L161.592 13.7683ZM159.077 13.0764H161.333L160.202 10.0942L159.077 13.0764Z" fill="white"/>
<path d="M168.009 9.74825H165.876V15.4324H165.006V9.74825H162.878V9.05633H168.009V9.74825Z" fill="white"/>
<path d="M169.914 11.6576H171.564C172.257 11.6663 172.797 11.8371 173.186 12.1699C173.575 12.5028 173.77 12.9553 173.77 13.5275C173.77 14.1026 173.574 14.561 173.182 14.9025C172.79 15.2441 172.255 15.4208 171.577 15.4324H169.039V9.05633H169.914V11.6576ZM169.914 12.3495V14.7449H171.514C171.948 14.7449 172.285 14.634 172.525 14.4121C172.768 14.1902 172.89 13.8924 172.89 13.5187C172.89 13.1596 172.773 12.8764 172.539 12.6692C172.308 12.4619 171.979 12.3553 171.55 12.3495H169.914Z" fill="white"/>
<path d="M179.808 13.4092C179.726 14.0836 179.466 14.6048 179.029 14.9726C178.594 15.3375 178.015 15.52 177.292 15.52C176.508 15.52 175.88 15.25 175.406 14.7099C174.935 14.1698 174.699 13.4472 174.699 12.5422V11.9291C174.699 11.3364 174.809 10.8153 175.027 10.3657C175.249 9.91611 175.562 9.57162 175.966 9.33222C176.37 9.08991 176.838 8.96875 177.37 8.96875C178.075 8.96875 178.64 9.15851 179.065 9.53804C179.49 9.91465 179.738 10.4372 179.808 11.1058H178.928C178.852 10.5978 178.687 10.23 178.432 10.0022C178.179 9.77452 177.826 9.66066 177.37 9.66066C176.811 9.66066 176.372 9.85918 176.053 10.2562C175.737 10.6533 175.579 11.2182 175.579 11.951V12.5684C175.579 13.2604 175.729 13.8107 176.03 14.2194C176.331 14.6281 176.752 14.8325 177.292 14.8325C177.778 14.8325 178.151 14.7274 178.409 14.5172C178.67 14.3041 178.843 13.9347 178.928 13.4092H179.808Z" fill="white"/>
<path d="M184.479 15.4324V12.9494H182.948L181.576 15.4324H180.642L182.182 12.7173C181.326 12.3933 180.897 11.8138 180.897 10.9788C180.897 10.3715 181.104 9.90006 181.517 9.56432C181.933 9.22566 182.51 9.05633 183.249 9.05633H185.359V15.4324H184.479ZM181.772 10.9788C181.772 11.3642 181.897 11.6736 182.146 11.9072C182.398 12.1407 182.747 12.259 183.194 12.2619H184.479V9.74825H183.235C182.761 9.74825 182.398 9.85627 182.146 10.0723C181.897 10.2883 181.772 10.5905 181.772 10.9788Z" fill="white"/>
<path d="M194.145 13.4092C194.063 14.0836 193.803 14.6048 193.366 14.9726C192.931 15.3375 192.353 15.52 191.63 15.52C190.846 15.52 190.217 15.25 189.743 14.7099C189.272 14.1698 189.036 13.4472 189.036 12.5422V11.9291C189.036 11.3364 189.146 10.8153 189.365 10.3657C189.586 9.91611 189.899 9.57162 190.303 9.33222C190.707 9.08991 191.175 8.96875 191.707 8.96875C192.412 8.96875 192.977 9.15851 193.402 9.53804C193.828 9.91465 194.075 10.4372 194.145 11.1058H193.266C193.19 10.5978 193.024 10.23 192.769 10.0022C192.517 9.77452 192.163 9.66066 191.707 9.66066C191.148 9.66066 190.709 9.85918 190.39 10.2562C190.074 10.6533 189.916 11.2182 189.916 11.951V12.5684C189.916 13.2604 190.066 13.8107 190.367 14.2194C190.668 14.6281 191.089 14.8325 191.63 14.8325C192.116 14.8325 192.488 14.7274 192.746 14.5172C193.007 14.3041 193.181 13.9347 193.266 13.4092H194.145Z" fill="white"/>
<path d="M200.448 12.4502C200.448 13.075 200.339 13.6209 200.12 14.088C199.901 14.5522 199.591 14.9069 199.19 15.1522C198.789 15.3974 198.321 15.52 197.786 15.52C197.264 15.52 196.801 15.3974 196.396 15.1522C195.992 14.904 195.678 14.5522 195.453 14.0968C195.231 13.6384 195.117 13.1085 195.111 12.5071V12.0473C195.111 11.4342 195.222 10.8927 195.444 10.4226C195.666 9.95261 195.979 9.59351 196.383 9.34536C196.79 9.09429 197.255 8.96875 197.777 8.96875C198.309 8.96875 198.777 9.09283 199.181 9.34098C199.588 9.58622 199.901 9.94385 200.12 10.4139C200.339 10.881 200.448 11.4255 200.448 12.0473V12.4502ZM199.577 12.0386C199.577 11.2824 199.419 10.7029 199.104 10.3C198.788 9.89422 198.345 9.69132 197.777 9.69132C197.224 9.69132 196.788 9.89422 196.469 10.3C196.153 10.7029 195.991 11.2634 195.982 11.9816V12.4502C195.982 13.183 196.141 13.7596 196.46 14.18C196.782 14.5975 197.224 14.8062 197.786 14.8062C198.352 14.8062 198.789 14.6091 199.099 14.215C199.409 13.818 199.568 13.2501 199.577 12.5115V12.0386Z" fill="white"/>
<path d="M208.956 13.4092C208.874 14.0836 208.615 14.6048 208.177 14.9726C207.743 15.3375 207.164 15.52 206.441 15.52C205.657 15.52 205.028 15.25 204.554 14.7099C204.083 14.1698 203.848 13.4472 203.848 12.5422V11.9291C203.848 11.3364 203.957 10.8153 204.176 10.3657C204.398 9.91611 204.711 9.57162 205.115 9.33222C205.519 9.08991 205.987 8.96875 206.518 8.96875C207.223 8.96875 207.788 9.15851 208.214 9.53804C208.639 9.91465 208.887 10.4372 208.956 11.1058H208.077C208.001 10.5978 207.835 10.23 207.58 10.0022C207.328 9.77452 206.974 9.66066 206.518 9.66066C205.959 9.66066 205.52 9.85918 205.201 10.2562C204.885 10.6533 204.727 11.2182 204.727 11.951V12.5684C204.727 13.2604 204.878 13.8107 205.178 14.2194C205.479 14.6281 205.9 14.8325 206.441 14.8325C206.927 14.8325 207.299 14.7274 207.557 14.5172C207.819 14.3041 207.992 13.9347 208.077 13.4092H208.956Z" fill="white"/>
<path d="M215.223 15.4324H214.343V9.74825H211.071V15.4324H210.196V9.05633H215.223V15.4324Z" fill="white"/>
<path d="M220.568 12.4852H217.693V14.7449H221.033V15.4324H216.818V9.05633H220.988V9.74825H217.693V11.7977H220.568V12.4852Z" fill="white"/>
<path d="M222.15 9.05633H223.029V14.7449H226.301V9.05633H227.176V14.7274H227.874L227.792 16.9695H227.003V15.4324H222.15V9.05633Z" fill="white"/>
<path d="M233.133 9.05633H234.008V15.4324H233.133V10.519L229.865 15.4324H228.986V9.05633H229.865V13.9698L233.133 9.05633Z" fill="white"/>
<path d="M239.349 13.7683H236.569L235.945 15.4324H235.042L237.576 9.05633H238.342L240.88 15.4324H239.982L239.349 13.7683ZM236.833 13.0764H239.089L237.959 10.0942L236.833 13.0764Z" fill="white"/>
<path d="M246.873 9.05633V15.4324H245.998V9.74825H243.619L243.501 12.275C243.455 13.1217 243.364 13.7581 243.227 14.1844C243.094 14.6106 242.896 14.9244 242.635 15.1259C242.373 15.3244 242.024 15.4266 241.587 15.4324H241.299V14.7449L241.482 14.7361C241.764 14.7157 241.982 14.6281 242.133 14.4734C242.285 14.3157 242.401 14.0661 242.48 13.7245C242.559 13.383 242.615 12.8575 242.648 12.148L242.785 9.05633H246.873Z" fill="white"/>
<path d="M252.647 9.05633H253.522V15.4324H252.647V10.519L249.38 15.4324H248.5V9.05633H249.38V13.9698L252.647 9.05633Z" fill="white"/>
<path d="M259.998 13.4092C259.916 14.0836 259.656 14.6048 259.219 14.9726C258.784 15.3375 258.206 15.52 257.482 15.52C256.699 15.52 256.07 15.25 255.596 14.7099C255.125 14.1698 254.889 13.4472 254.889 12.5422V11.9291C254.889 11.3364 254.999 10.8153 255.217 10.3657C255.439 9.91611 255.752 9.57162 256.156 9.33222C256.56 9.08991 257.028 8.96875 257.56 8.96875C258.265 8.96875 258.83 9.15851 259.255 9.53804C259.681 9.91465 259.928 10.4372 259.998 11.1058H259.118C259.043 10.5978 258.877 10.23 258.622 10.0022C258.37 9.77452 258.016 9.66066 257.56 9.66066C257.001 9.66066 256.562 9.85918 256.243 10.2562C255.927 10.6533 255.769 11.2182 255.769 11.951V12.5684C255.769 13.2604 255.919 13.8107 256.22 14.2194C256.521 14.6281 256.942 14.8325 257.482 14.8325C257.969 14.8325 258.341 14.7274 258.599 14.5172C258.86 14.3041 259.033 13.9347 259.118 13.4092H259.998Z" fill="white"/>
<path d="M265.645 9.74825H263.512V15.4324H262.641V9.74825H260.513V9.05633H265.645V9.74825Z" fill="white"/>
<path d="M271.605 12.4502C271.605 13.075 271.496 13.6209 271.277 14.088C271.059 14.5522 270.749 14.9069 270.348 15.1522C269.947 15.3974 269.479 15.52 268.944 15.52C268.421 15.52 267.958 15.3974 267.554 15.1522C267.15 14.904 266.836 14.5522 266.611 14.0968C266.389 13.6384 266.275 13.1085 266.269 12.5071V12.0473C266.269 11.4342 266.38 10.8927 266.602 10.4226C266.823 9.95261 267.136 9.59351 267.54 9.34536C267.947 9.09429 268.412 8.96875 268.935 8.96875C269.467 8.96875 269.934 9.09283 270.339 9.34098C270.746 9.58622 271.059 9.94385 271.277 10.4139C271.496 10.881 271.605 11.4255 271.605 12.0473V12.4502ZM270.735 12.0386C270.735 11.2824 270.577 10.7029 270.261 10.3C269.945 9.89422 269.503 9.69132 268.935 9.69132C268.382 9.69132 267.946 9.89422 267.627 10.3C267.311 10.7029 267.148 11.2634 267.139 11.9816V12.4502C267.139 13.183 267.299 13.7596 267.618 14.18C267.94 14.5975 268.382 14.8062 268.944 14.8062C269.509 14.8062 269.947 14.6091 270.257 14.215C270.566 13.818 270.726 13.2501 270.735 12.5115V12.0386Z" fill="white"/>
<path d="M274.048 9.05633L276.217 14.2588L278.387 9.05633H279.521V15.4324H278.646V12.9494L278.729 10.2694L276.55 15.4324H275.88L273.706 10.2825L273.793 12.9494V15.4324H272.918V9.05633H274.048Z" fill="white"/>
</svg>
