<svg width="136" height="190" viewBox="0 0 136 190" fill="none" xmlns="http://www.w3.org/2000/svg">
<path d="M76.7764 108.666L87.0483 93.59H62.9004L76.7764 108.666Z" fill="#090014"/>
<path d="M52.6636 170.328C47.8456 155.613 49.7806 139.173 54.3386 124.004C37.8386 120.155 22.6126 112.881 19.7176 100.753C18.2606 94.6501 19.4756 90.1061 22.3406 86.6171C22.3406 86.6171 -16.1754 108.85 7.9376 154.867C22.6016 182.85 48.2917 189.527 70.3987 189.221C61.8387 184.779 55.3966 178.671 52.6636 170.328Z" fill="#691394"/>
<path d="M117.269 97.4039C114.97 91.1329 112.409 85.723 109.675 81.384C105.844 75.304 101.674 71.342 97.3909 70.197C97.3909 70.197 79.9059 63.571 65.7329 70.197C55.0669 75.184 31.0569 76.003 22.3399 86.616C19.4749 90.103 18.2588 94.649 19.7158 100.752C22.6128 112.88 37.8379 120.154 54.3389 124.003C71.3949 127.98 89.8129 128.298 97.3909 126.52C112.3 123.023 122.793 112.462 117.269 97.4039ZM76.7769 108.666L57.6329 87.8669H90.9489L76.7769 108.666Z" fill="#FFFDE0"/>
<path d="M76.7767 108.666L90.9497 87.868H57.6328L76.7767 108.666Z" fill="#520E20"/>
<path d="M68.9307 100.143L73.7886 105.421L82.1986 87.952C80.4256 85.89 78.9596 83.819 77.7706 81.759L68.9307 100.143Z" fill="#C87401"/>
<path d="M116.349 1.54199L77.7715 81.759C78.9595 83.82 80.4265 85.891 82.1995 87.952L121.318 6.69501L116.349 1.54199Z" fill="#FFAC81"/>
<path d="M121.257 2.32001C122.316 4.15501 122.228 6.18902 121.06 6.86402C119.892 7.53802 118.086 6.59699 117.027 4.76099C115.967 2.92699 116.056 0.894022 117.224 0.218022C118.392 -0.455978 120.198 0.485012 121.257 2.32001Z" fill="#050F39"/>
<path d="M131.628 122.103C117.822 89.892 109.685 81.3829 109.685 81.3829L109.675 81.384C112.408 85.723 114.97 91.1319 117.27 97.4039C122.791 112.463 112.301 123.024 97.3914 126.521C89.8144 128.298 71.3954 127.981 54.3394 124.003C49.7804 139.172 47.8455 155.612 52.6645 170.327C55.3965 178.671 61.8374 184.778 70.3974 189.221C84.6414 189.024 97.3965 185.928 104.753 183.764C123.527 178.243 145.432 154.314 131.628 122.103Z" fill="#DB4C63"/>
<path d="M48.4906 5.76794L67.9366 99.0629L63.9236 94.704L47.6626 18.101L48.4906 5.76794Z" fill="#050F39"/>
<path d="M48.5935 4.38806C47.4045 6.71406 40.9506 18.8121 33.3986 25.8311C24.5706 34.0381 8.27246 41.6591 8.27246 41.6591C8.27246 41.6591 36.9276 41.4431 36.7106 59.5141C36.7106 59.5141 36.9815 58.6281 37.7155 57.3391C40.5185 50.9511 48.5245 30.5661 48.5935 4.38806Z" fill="white"/>
<path d="M48.5245 4.38806C48.5245 4.38806 48.4505 4.53805 48.3145 4.80505C48.3145 4.80505 48.6335 24.6101 74.9745 55.9581C74.9745 55.9581 72.2115 45.9551 80.0985 40.1801C84.7115 36.8021 94.8735 35.4161 94.8735 35.4161C94.8735 35.4161 67.6225 35.8631 48.5245 4.38806Z" fill="white"/>
<path d="M48.5249 4.38806C48.4559 30.5661 40.5178 50.9511 37.7148 57.3401C39.4808 54.2371 43.9499 48.7821 53.9219 47.5891C65.4259 46.2121 74.9749 55.9581 74.9749 55.9581C48.6339 24.6101 48.5249 4.38806 48.5249 4.38806Z" fill="#050F39"/>
<path d="M48.3132 4.80505C48.3132 4.80505 41.9172 19.849 28.2922 22.058C28.2922 22.058 30.4253 29.0931 23.6973 33.1141C23.6983 33.1141 37.7142 27.7231 48.3132 4.80505Z" fill="#050F39"/>
<path d="M48.5244 4.38806C48.5244 4.38806 55.2194 15.5811 70.9464 20.6111C77.7714 22.7951 82.7253 22.5181 82.7253 22.5181C82.7253 22.5181 74.3354 23.7601 78.3854 31.5051C78.3854 31.5051 60.1554 24.6981 48.5244 4.38806Z" fill="#050F39"/>
</svg>
