<svg width="29" height="31" viewBox="0 0 29 31" fill="none" xmlns="http://www.w3.org/2000/svg">
<path d="M27.5054 11.557C27.7764 11.629 28.0545 11.468 28.1265 11.197L28.1354 11.162C28.1704 11.032 28.1524 10.893 28.0844 10.777C28.0174 10.66 27.9055 10.575 27.7755 10.541L25.3014 9.882L27.1245 8.83001C27.5125 8.60601 27.6454 8.11001 27.4214 7.72101L27.3974 7.67801L27.3984 7.67701L27.3754 7.63901C27.2694 7.45001 27.0914 7.31401 26.8824 7.25801C26.6744 7.20201 26.4504 7.23101 26.2654 7.33901L24.4424 8.396L25.1005 5.92101C25.1355 5.79101 25.1174 5.65101 25.0494 5.53401C24.9814 5.41801 24.8684 5.333 24.7374 5.299L24.7054 5.29101C24.4354 5.21901 24.1585 5.38101 24.0875 5.65101L23.1554 9.14301L21.7694 9.94001L22.8694 5.81601C22.9194 5.63201 22.8924 5.43801 22.7984 5.27501C22.7024 5.11101 22.5484 4.99101 22.3654 4.94401L22.2724 4.91901C21.8924 4.81801 21.5025 5.04301 21.4025 5.42301L19.9054 11.019L18.9094 11.597L19.5685 9.12301C19.6035 8.99201 19.5854 8.85401 19.5174 8.73701C19.4494 8.62001 19.3384 8.53601 19.2074 8.50101C18.9194 8.42501 18.6224 8.59701 18.5464 8.88501L17.6204 12.341L16.5425 12.966L16.9204 11.552C16.9834 11.314 16.8795 11.065 16.6675 10.942L16.6444 10.928C16.4184 10.799 16.1354 10.838 15.9524 11.021L14.9374 12.037L14.9344 10.795L17.4894 8.23101C17.5844 8.13701 17.6354 8.00901 17.6354 7.87701C17.6344 7.74401 17.5805 7.61701 17.4885 7.52401L17.4514 7.48801C17.2574 7.29301 16.9404 7.29401 16.7444 7.48901L14.9354 9.30601L14.9334 8.15401L19.0044 4.07501C19.1434 3.93701 19.2214 3.74901 19.2204 3.55301C19.2204 3.35801 19.1425 3.17001 19.0035 3.03101L18.9664 2.99501C18.6804 2.71001 18.2174 2.71001 17.9314 2.99601L14.9274 6.00301L14.9314 4.40301L17.4794 1.84301C17.6754 1.64601 17.6754 1.32501 17.4774 1.12801L17.4514 1.10301C17.2554 0.906005 16.9344 0.906005 16.7374 1.10301L14.9254 2.91501L14.9234 0.839005C14.9234 0.616005 14.8344 0.402011 14.6764 0.245011C14.5184 0.0870112 14.3044 -0.00099157 14.0794 8.43008e-06H14.0665H14.0494C13.8254 -0.00099157 13.6114 0.0870112 13.4514 0.245011C13.2944 0.403011 13.2044 0.618012 13.2044 0.841012L13.2094 2.91801L11.3954 1.104C11.3004 1.01 11.1725 0.957009 11.0385 0.957009C10.9055 0.958009 10.7774 1.01101 10.6844 1.10501L10.6764 1.11201C10.4674 1.32301 10.4684 1.66301 10.6774 1.87301L13.2094 4.40201L13.2134 6.00601L10.2434 3.04201C10.0964 2.89401 9.89544 2.81101 9.68744 2.81101C9.47944 2.81301 9.27944 2.89501 9.13144 3.04301L9.10445 3.07001C8.83345 3.34201 8.83344 3.78201 9.10544 4.05301L13.2144 8.15601V9.30701L11.4274 7.52401C11.3254 7.42301 11.1874 7.36601 11.0434 7.36601C10.8984 7.36601 10.7614 7.42401 10.6584 7.52601L10.6534 7.53401C10.4594 7.72901 10.4605 8.04601 10.6545 8.24001L13.2164 10.796L13.2204 12.042L12.2014 11.026C12.0184 10.841 11.7324 10.805 11.5084 10.937L11.5074 10.935L11.4894 10.946C11.2744 11.07 11.1704 11.324 11.2354 11.564L11.6154 12.97L10.5314 12.348L9.59345 8.86301C9.55845 8.73301 9.47344 8.62201 9.35744 8.55501C9.24044 8.48701 9.10145 8.46901 8.97145 8.50401L8.94045 8.51301C8.66945 8.58501 8.50845 8.86401 8.58145 9.13401L9.24344 11.606L8.24544 11.03L6.75345 5.48801C6.70045 5.29301 6.57245 5.12601 6.39745 5.02501C6.22345 4.92501 6.01545 4.898 5.82045 4.951L5.80644 4.95401C5.40944 5.06201 5.17444 5.46901 5.28244 5.86601L6.38045 9.95401L4.99344 9.15401L4.05444 5.66901C4.02044 5.53901 3.93445 5.42801 3.81845 5.36101C3.70145 5.29401 3.56245 5.27601 3.43245 5.31101L3.40045 5.31901C3.13045 5.39301 2.97044 5.67101 3.04344 5.94101L3.70444 8.41201L1.90744 7.37801C1.71444 7.26701 1.48445 7.23701 1.26845 7.29501C1.05345 7.35301 0.869446 7.49501 0.759446 7.68901L0.751451 7.701L0.803453 7.73101L0.802445 7.73201L0.751451 7.70301L0.71544 7.76401C0.61144 7.94701 0.581452 8.16201 0.637452 8.36501C0.692452 8.56801 0.82544 8.74101 1.00644 8.84501L2.84944 9.90501L0.378449 10.568C0.24745 10.602 0.137444 10.688 0.0694438 10.805C0.00244377 10.922 -0.0155593 11.061 0.0194407 11.19L0.0284434 11.223C0.101443 11.494 0.380453 11.654 0.650453 11.582L4.13745 10.646L5.52644 11.447L1.43944 12.545C1.24744 12.596 1.08444 12.722 0.985444 12.894C0.886444 13.066 0.860439 13.271 0.911439 13.461L0.915452 13.478C1.02545 13.881 1.44045 14.12 1.84445 14.011L7.38645 12.522L8.38445 13.095L5.91844 13.76C5.78744 13.794 5.67744 13.881 5.61044 13.997C5.54344 14.114 5.52544 14.253 5.56044 14.383L5.56944 14.417C5.64244 14.688 5.92145 14.848 6.19145 14.775L9.67545 13.838L10.7544 14.459L9.36644 14.835C9.11644 14.903 8.94345 15.129 8.94345 15.388H9.00244V15.399H8.93544C8.93444 15.656 9.10645 15.882 9.35445 15.949L10.7504 16.325L9.66945 16.947L6.18245 16.018C5.91045 15.946 5.63244 16.107 5.56044 16.378L5.55144 16.411C5.47944 16.682 5.64145 16.961 5.91045 17.032L8.38344 17.692L7.38645 18.268L1.79445 16.776C1.41345 16.674 1.02345 16.901 0.923448 17.281C0.866448 17.489 0.896441 17.71 1.00444 17.897C1.11144 18.083 1.28744 18.218 1.49544 18.274L5.51845 19.347L4.13745 20.147L0.647447 19.219C0.376447 19.147 0.0984445 19.308 0.0264445 19.579L0.0174418 19.614C-0.0175582 19.743 0.000451945 19.883 0.0684519 19.999C0.135452 20.116 0.246442 20.201 0.377442 20.235L2.85045 20.894L1.02745 21.947C0.639452 22.17 0.506439 22.666 0.730439 23.054L0.755448 23.099L0.806443 23.069V23.07L0.75644 23.099L0.778443 23.138C0.885443 23.325 1.06344 23.461 1.27144 23.517C1.48044 23.573 1.70144 23.543 1.88844 23.435L3.71144 22.379L3.05444 24.854C3.01944 24.984 3.03644 25.122 3.10544 25.239C3.17344 25.356 3.28444 25.441 3.41644 25.475L3.44745 25.484C3.71845 25.554 3.99444 25.393 4.06744 25.124L4.99844 21.634L6.38445 20.836L5.28345 24.96C5.23445 25.143 5.26144 25.337 5.35544 25.5C5.45044 25.664 5.60545 25.783 5.78745 25.831L5.88144 25.856C6.26144 25.957 6.65045 25.731 6.75145 25.351L8.24544 19.758L9.24144 19.178L8.58345 21.652C8.51145 21.923 8.67245 22.202 8.94345 22.273C9.23245 22.35 9.52844 22.179 9.60544 21.891L10.5304 18.435L11.6095 17.811L11.2324 19.225C11.1694 19.462 11.2724 19.712 11.4854 19.835L11.5064 19.847L11.5344 19.796L11.5064 19.847C11.7324 19.977 12.0144 19.939 12.1974 19.755L13.2124 18.74L13.2154 19.982L10.6594 22.544C10.5664 22.638 10.5135 22.767 10.5145 22.899C10.5145 23.032 10.5684 23.159 10.6604 23.252L10.6974 23.288C10.8924 23.483 11.2094 23.482 11.4034 23.287L13.2144 21.47L13.2154 22.621L9.14545 26.699C9.00745 26.838 8.93045 27.026 8.93045 27.222C8.93045 27.417 9.00845 27.605 9.14745 27.743L9.18344 27.78C9.46944 28.064 9.93345 28.064 10.2184 27.779L13.2215 24.773L13.2184 26.372L10.6704 28.932C10.4744 29.129 10.4744 29.45 10.6724 29.647L10.6984 29.672C10.8954 29.869 11.2164 29.869 11.4124 29.672L13.2235 27.86L13.2244 29.936C13.2244 30.159 13.3135 30.373 13.4715 30.53C13.6305 30.688 13.8445 30.776 14.0685 30.775H14.0835V30.718H14.0844V30.776H14.1004C14.3244 30.777 14.5384 30.69 14.6984 30.531C14.8574 30.374 14.9464 30.159 14.9464 29.935L14.9424 27.859L16.7574 29.672C16.8524 29.767 16.9794 29.819 17.1124 29.819C17.2454 29.819 17.3744 29.766 17.4674 29.672L17.4755 29.665C17.6855 29.454 17.6844 29.114 17.4744 28.904L14.9424 26.375L14.9394 24.771L17.9074 27.735C18.0554 27.883 18.2564 27.966 18.4654 27.966C18.6734 27.966 18.8724 27.882 19.0214 27.734L19.0484 27.707C19.3194 27.435 19.3194 26.995 19.0474 26.724L14.9384 22.62L14.9374 21.469L16.7244 23.253C16.8264 23.354 16.9644 23.41 17.1084 23.41C17.2534 23.41 17.3904 23.353 17.4924 23.251L17.4984 23.243C17.6934 23.048 17.6934 22.731 17.4964 22.536L14.9364 19.98L14.9314 18.735L15.9494 19.751C16.1344 19.935 16.4194 19.971 16.6434 19.839L16.6144 19.788H16.6154H16.6164L16.6454 19.838L16.6614 19.828C16.8784 19.703 16.9825 19.449 16.9175 19.209L16.5354 17.804L17.6204 18.426L18.5584 21.913C18.6304 22.183 18.9095 22.344 19.1805 22.271L19.2114 22.263C19.3414 22.228 19.4514 22.143 19.5204 22.026C19.5874 21.909 19.6064 21.771 19.5714 21.641L18.9094 19.168L19.9074 19.745L21.3984 25.288C21.5084 25.695 21.9255 25.935 22.3315 25.826L22.3474 25.822C22.7434 25.715 22.9794 25.307 22.8714 24.91L21.7744 20.821L23.1594 21.62L24.0985 25.106C24.1715 25.376 24.4504 25.537 24.7204 25.465L24.7535 25.456C25.0245 25.383 25.1854 25.104 25.1124 24.833L24.4504 22.364L26.2475 23.398C26.4415 23.509 26.6714 23.539 26.8864 23.481C27.1024 23.422 27.2844 23.281 27.3964 23.087L27.4045 23.075L27.3524 23.045L27.4025 23.074L27.4384 23.012C27.5424 22.83 27.5715 22.615 27.5165 22.412C27.4615 22.209 27.3284 22.036 27.1474 21.932L25.3044 20.872L27.7764 20.209C27.9064 20.175 28.0175 20.089 28.0855 19.972C28.1515 19.855 28.1704 19.716 28.1354 19.585L28.1265 19.553C28.0535 19.283 27.7744 19.123 27.5044 19.196L24.0165 20.132L22.6274 19.33L26.7154 18.232C26.9064 18.181 27.0694 18.055 27.1684 17.883C27.2684 17.711 27.2944 17.507 27.2424 17.316L27.2374 17.299C27.1294 16.896 26.7145 16.657 26.3095 16.766L20.7665 18.256L19.7694 17.682L22.2354 17.016C22.3664 16.981 22.4765 16.896 22.5445 16.778C22.6105 16.662 22.6295 16.523 22.5945 16.393L22.5855 16.36C22.5125 16.089 22.2325 15.929 21.9625 16.002L18.4784 16.939L17.3994 16.318L18.7874 15.942C19.0364 15.874 19.2114 15.648 19.2114 15.388L19.1514 15.389V15.388V15.377H19.2195C19.2205 15.12 19.0474 14.894 18.7994 14.827L17.4034 14.451L18.4845 13.828L21.9724 14.758C22.2434 14.83 22.5214 14.669 22.5934 14.398L22.6024 14.365C22.6374 14.234 22.6184 14.096 22.5514 13.979C22.4834 13.863 22.3714 13.778 22.2424 13.742L19.7694 13.084L20.7665 12.507L26.3604 14C26.5424 14.049 26.7364 14.022 26.8994 13.928C27.0624 13.833 27.1824 13.678 27.2314 13.495C27.3464 13.062 27.0885 12.617 26.6565 12.502L22.6334 11.428L24.0165 10.629L27.5054 11.557ZM11.6794 15.783L10.2224 15.398H10.1444L10.1564 15.385H10.2365L11.6854 14.995L12.3615 15.387H12.4565L12.4494 15.393H12.3524L12.3564 15.397L11.6794 15.783ZM13.2134 16.885L13.2124 17.663L12.1494 18.724L12.0385 18.918L12.0364 18.919L12.1494 18.724L12.5385 17.272L13.2134 16.885L13.2714 16.784L13.2724 16.783L13.2134 16.885ZM13.2814 13.997L13.2204 13.893L12.5434 13.505L12.1564 12.057L12.1514 12.049L13.2174 13.114L13.2224 13.894L13.2204 13.893L13.2814 13.997ZM14.8814 13.99L14.9394 13.891L14.9404 13.112L16.0035 12.051L16.1124 11.86V11.859L16.0035 12.051L15.6135 13.502L14.9384 13.891L14.8814 13.99ZM16.0064 18.735L15.9954 18.718L16.0004 18.726L14.9334 17.661L14.9305 16.881L14.9325 16.882L14.8714 16.778L14.8754 16.78L14.9325 16.878L15.6104 17.267L15.9964 18.716L16.0064 18.735ZM17.9305 15.376H18.0114L17.9964 15.391H17.9164L16.4674 15.781L15.7914 15.388L15.6944 15.389L15.7034 15.382H15.8014L15.7964 15.378L16.4735 14.992L17.9305 15.376Z" fill="#D6D6D6"/>
</svg>
