<svg width="179" height="117" viewBox="0 0 179 117" fill="none" xmlns="http://www.w3.org/2000/svg">
<path d="M178.035 0H0.00195312V116.488H178.035V0Z" fill="#000001"/>
<path d="M91.1628 71.318V45.106H102.599L93.0598 71.318H91.1628ZM60.4768 116.651L72.2058 84.423H53.9648V116.651H60.4768ZM21.0028 116.651L32.7328 84.423H23.0918L11.3618 116.651H21.0028ZM55.2318 71.318H66.5228V45.106H64.7718L55.2318 71.318ZM91.1628 32.002V0.130981L81.1308 0.16098L69.5408 32.002H91.1628V32.002ZM15.9408 71.318H19.1508L28.6908 45.106H18.8008L15.9408 52.963V71.318ZM37.5028 71.318L47.0428 45.106H28.7948V71.318H37.5028Z" fill="#696C71"/>
<path d="M91.287 32.002L102.875 0.16098L118.948 0.130981L107.349 32.002H91.287ZM55.232 71.318L64.772 45.107H53.965V71.318H55.232V71.318ZM76.555 116.652L88.285 84.423H72.206L60.476 116.651L76.555 116.652ZM32.733 84.423L28.796 95.242V116.651H38.733L50.462 84.423H32.733ZM91.163 71.318V45.107H86.517L76.976 71.318H91.163V71.318ZM69.541 32.002L81.13 0.16098H66.523L66.524 32.002H69.541V32.002ZM9.261 71.318L18.801 45.107H0V71.318H9.261V71.318ZM28.796 71.318V45.107H28.691L19.152 71.318H28.796V71.318ZM11.362 116.651L15.941 104.071V84.423H14.382H0.00300026L0 116.651H11.362ZM63.412 0.130981H45.321L33.722 32.002H51.795L63.412 0.130981ZM0.00300026 0.130981V32.002H15.941V0.16098L0.00300026 0.130981ZM28.796 32.002V17.646L23.57 32.002H28.796ZM35.17 0.130981H28.796V17.646L35.17 0.130981Z" fill="#1E252B"/>
<path d="M0.00292969 5.94997L5.27293 1.42097L5.27093 1.41897L6.75393 0.143967L6.33493 0.141968L0.00292969 5.58597V5.94997Z" fill="#495357"/>
<path d="M0.00292969 7.48797L6.35793 2.02596L6.35693 2.02396L7.17993 1.31596H15.9409V1.04297H7.07793L0.420929 6.76397L0.42193 6.76597L0.00292969 7.12697V7.48797Z" fill="#495357"/>
<path d="M0.00292969 9.02702L0.996929 8.17203L1.31293 9.56403L0.00292969 13.173V13.974L1.59793 9.58202L1.23193 7.97002L2.47293 6.90403L2.86093 8.70803L0.00292969 16.613V17.197L0.60393 17.896V17.897L6.16293 24.362L3.39993 32.001H3.69193L6.47493 24.304L6.42193 24.243L6.42293 24.242L0.16593 16.966L3.14493 8.72703L2.70893 6.70003L3.94793 5.63503L4.40893 7.85203L1.19093 16.783L1.59293 17.248V17.25L7.49993 24.121L4.73093 31.747L4.78993 32.001H5.06993L5.01593 31.764L7.81193 24.064L7.75893 24.001L7.76093 24L1.50393 16.725L4.69293 7.87202L4.18593 5.43103L5.42593 4.36603L5.95693 6.99603L2.52893 16.541L2.58093 16.6L2.57993 16.602L8.83793 23.879L6.27793 30.891L6.55193 32.001H7.09693L8.17893 31.071H15.9409V30.797H8.07593L6.80593 31.89L6.56393 30.906L9.14993 23.823L9.09693 23.759L9.09793 23.758L8.16193 22.67L8.98893 22.068H15.9409V21.793L8.89993 21.794L7.98193 22.461L7.17193 21.518L8.19593 20.737H15.9409V20.463H8.10393L6.99293 21.31L6.18193 20.367L7.40293 19.406H15.9409V19.132H7.30693L6.00293 20.159L5.19293 19.218L6.60893 18.075H15.9409V17.801H6.51393L5.01493 19.01L4.20393 18.067L5.81493 16.744H15.9419V16.392L15.8509 16.47H14.0179L15.9419 11.132V10.323L13.7269 16.47H12.4979L15.9419 6.90903V6.10103L12.2069 16.47H10.9109L15.8899 2.64803H15.9419V2.37402H7.31993L1.50793 7.37003L1.50893 7.37103L0.00392914 8.66502V9.02702H0.00292969ZM6.24093 7.01603L5.66493 4.16103L7.42593 2.64803H9.24993L3.84593 17.651L2.84193 16.484L6.24093 7.01603ZM5.71693 16.47L4.07593 17.817L9.53993 2.64803H10.8359L5.85693 16.47H5.71693ZM7.44493 16.47H6.14793L11.1279 2.64803H12.4239L7.44493 16.47ZM12.7149 2.64803H14.0109L9.03193 16.47H7.73593L12.7149 2.64803ZM10.6199 16.47H9.32393L14.3029 2.64803H15.5989L10.6199 16.47Z" fill="#495357"/>
<path d="M30.0559 14.184L30.1559 13.911H28.7959V14.184H29.5039L28.7959 16.152V16.96L29.7949 14.184H30.0559Z" fill="#495357"/>
<path d="M28.7949 12.854H30.5389L30.6399 12.58H28.7949V12.854Z" fill="#495357"/>
<path d="M28.7949 11.522H31.0239L31.1229 11.249H28.7949V11.522Z" fill="#495357"/>
<path d="M28.7949 10.192H31.5079L31.6079 9.91797H28.7949V10.192Z" fill="#495357"/>
<path d="M28.7949 8.86098H31.9919L32.0929 8.58698H28.7949V8.86098Z" fill="#495357"/>
<path d="M33.5449 1.20598L31.3499 7.23698H28.7949V7.51098H31.5419L31.5739 7.42098L33.9369 0.932983H28.7949V1.20598H33.5449Z" fill="#495357"/>
<path d="M30.7859 6.18L32.2449 2.173L28.7959 2.172V2.446H31.8519L30.5599 5.99699H28.7959V6.272H30.7519L30.7859 6.18Z" fill="#495357"/>
<path d="M15.9422 28.783L15.8472 29.043L15.9422 29.152V28.783Z" fill="#495357"/>
<path d="M7.99902 29.722H14.596L14.629 29.632L15.94 26.027V25.226L14.404 29.448H8.39003L10.586 23.417H15.94V23.144H10.394L7.99902 29.722Z" fill="#495357"/>
<path d="M13.8069 28.482L13.8389 28.391L15.2979 24.384H11.1829L9.68994 28.482H13.8069ZM11.3739 24.658H14.9069L13.6139 28.208H10.0819L11.3739 24.658Z" fill="#495357"/>
<path d="M13.0288 27.256L13.0608 27.167L13.6288 25.607H11.9628L11.3618 27.256H13.0288ZM12.1538 25.881H13.2368L12.8368 26.982H11.7538L12.1538 25.881Z" fill="#495357"/>
<path d="M0.647978 55.67H0.000976562V55.944H0.743977L2.04898 54.917L2.85998 55.858L1.44198 57.001H0.000976562V57.275H1.53798L3.03798 56.067L3.84798 57.009L2.23698 58.333H0.000976562V58.607H0.374977L0.000976562 59.644V60.453L0.665977 58.607H1.96098L0.000976562 64.05V64.859L2.25198 58.607H2.33498L3.96298 57.27L0.000976562 68.272V69.082L4.20098 57.419L5.20998 58.593L1.80998 68.06L2.38798 70.916L1.92098 71.317H2.34498L6.54398 67.708L6.54298 67.706L9.90098 64.821H11.627L11.725 64.546H9.79898L8.52898 65.638L8.28798 64.656L10.872 57.571L10.819 57.508L10.821 57.506L9.88398 56.418L10.711 55.816H14.903L15.002 55.542H10.622L9.70498 56.209L8.89298 55.266L9.91898 54.485H15.387L15.488 54.211H9.82698L8.71498 55.059L7.90498 54.115L9.12598 53.154H15.872L15.972 52.879H9.02998L7.72498 53.907L6.91398 52.965L8.33098 51.822H16.356L16.456 51.548H8.23498L6.73698 52.758L5.92498 51.815L7.53798 50.492H16.841L16.94 50.218H15.741L17.581 45.106H17.291L15.45 50.218H14.219L16.06 45.106H15.77L13.928 50.218H12.632L14.474 45.106H14.182L12.341 50.218H11.045L12.886 45.106H12.595L10.753 50.218H9.45798L11.299 45.106H11.007L9.16798 50.218H7.87098L9.71098 45.106H9.42098L7.57998 50.218H7.43998L5.79898 51.564L8.12498 45.106H7.83398L5.56798 51.399L4.56298 50.232L6.40398 45.106H6.11298L4.25198 50.29L4.30298 50.35H4.30198L10.559 57.628L8.00098 64.64L8.29498 65.838L7.05498 66.905L6.73898 65.512L9.53598 57.812L9.48098 57.749L9.48298 57.748L3.22598 50.473L5.15998 45.106H4.86798L2.91298 50.531L3.31598 50.997H3.31398L9.22298 57.87L6.45398 65.495L6.81998 67.107L5.57898 68.172L5.19098 66.369L8.19698 58.053L8.14198 57.991L8.14498 57.99L1.88798 50.713L3.91698 45.106H3.62598L1.57598 50.771L2.32798 51.645H2.32698L7.88498 58.11L4.90698 66.349L5.34298 68.376L4.10098 69.442L3.64198 67.226L6.85998 58.295L6.80698 58.232H6.80798L0.549976 50.955L2.67498 45.106H2.38398L0.237978 51.012L1.33798 52.292H1.33698L6.54798 58.352L3.35898 67.206L3.86598 69.646L2.62698 70.712L2.09398 68.082L5.52198 58.536L5.46898 58.474H5.46998L0.000976562 52.113V52.664L0.0699768 52.613L0.349977 52.94H0.348978L0.879976 53.558L0.000976562 54.229V54.573L1.05898 53.767L1.87098 54.709L0.647978 55.67Z" fill="#495357"/>
<path d="M72.21 0.161987H71.847L72.365 0.763992L70.947 1.90499H66.5229V2.17999H71.045L72.544 0.970985L73.354 1.91299L71.742 3.23699H66.5229V3.51099H66.705L66.5229 4.01499V4.82399L66.9959 3.51099H68.292L66.5229 8.42199V9.23099L68.584 3.51099H69.879L66.5229 12.828V13.636L70.17 3.51099H71.466L66.5229 17.234V17.607H70.237L76.049 12.611L76.048 12.609L76.851 11.92L77.043 11.393L76.56 11.808L76.2439 10.416L79.041 2.71599L78.987 2.65299L78.989 2.65099L76.846 0.161987H76.4819L78.728 2.77299L75.959 10.398L76.325 12.01L75.085 13.077L74.696 11.272L77.7029 2.95799L77.65 2.89499L77.651 2.89399L75.2999 0.161987H74.937L77.391 3.01499L74.4119 11.253L74.848 13.279L73.608 14.346L73.1479 12.129L76.365 3.19799L76.312 3.13699L76.313 3.13499L73.755 0.161987H73.392L76.053 3.25599L72.864 12.109L73.372 14.549L72.131 15.615L71.6 12.985L75.027 3.43999L74.974 3.37799H74.975L72.21 0.161987ZM71.7579 3.51099H71.839L73.47 2.17199L68.0089 17.333H66.779L71.7579 3.51099ZM71.316 12.964L71.893 15.82L70.132 17.333H68.2999L73.706 2.32399L74.715 3.49699L71.316 12.964Z" fill="#495357"/>
<path d="M44.4529 13.206L41.8929 20.217L42.1879 21.415L40.9459 22.482L40.6299 21.09L43.4269 13.391L43.3729 13.327L43.3749 13.325L41.3689 10.993L41.2599 11.29L43.1149 13.447L40.3449 21.072L40.7109 22.685L39.4709 23.751L39.0819 21.946L42.0889 13.631L42.0359 13.568H42.0379L40.9089 12.256L40.8009 12.553L41.7779 13.689L38.7969 21.927L39.2349 23.954L37.9949 25.019L37.5339 22.803L40.7499 13.872L40.6989 13.81H40.6999L40.4499 13.519L40.3409 13.816L40.4389 13.93L37.2499 22.783L37.7569 25.224L36.5179 26.289L36.2619 25.023L36.0829 25.517L36.2799 26.494L35.4749 27.185L35.2829 27.715L40.4369 23.285L40.4349 23.283L43.7919 20.398H51.7099L52.6299 19.729L52.9099 20.055H52.9089L53.4399 20.673L52.4149 21.454H43.9319L35.5849 28.628L35.5859 28.63L34.7629 29.338H34.6919L34.5909 29.612H34.8649L41.5219 23.89L41.5209 23.888L44.0329 21.728H52.5059L53.6189 20.881L54.4289 21.824L53.2079 22.785H44.1719L36.6709 29.234L36.6719 29.236L35.0039 30.669H34.2079L34.1069 30.943H35.1059L42.6079 24.495L42.6059 24.494L44.2749 23.059H53.3019L54.6079 22.031L55.1839 22.703L55.2919 22.407L51.7719 18.312L54.3309 11.3L54.0369 10.102L55.2779 9.03503L55.5929 10.428L52.7959 18.127L53.8979 19.407H53.8959L55.6449 21.441L55.7519 21.144L53.1089 18.07L55.8779 10.446L55.5119 8.83303L56.7519 7.76703L57.1419 9.57103L54.1339 17.886L54.8859 18.759L54.8839 18.76L56.1039 20.179L56.2119 19.883L54.4469 17.83L57.4259 9.59003L56.9899 7.56303L58.2299 6.49802L58.6889 8.71503L55.4729 17.646L55.8739 18.111V18.113L56.5649 18.916L56.6719 18.621L55.7849 17.588L58.9729 8.73502L58.4659 6.29403L59.7069 5.22903L60.2379 7.85902L56.8099 17.404L56.8619 17.464L56.8609 17.465L57.0249 17.655L57.1319 17.359L57.1219 17.347L60.5209 7.87903L59.9439 5.02402L61.7049 3.51102H62.1799L62.2799 3.23703H61.5999L55.7879 8.23203L55.7899 8.23402L52.4319 11.121H44.5139L43.5969 11.787L42.7859 10.844L43.8099 10.064H52.2929L60.6399 2.88903L60.6379 2.88702L61.4619 2.18003H62.6659L62.7659 1.90503H61.3599L54.7039 7.62703L54.7049 7.62903L52.1919 9.78902H43.7179L42.6069 10.637L41.8289 9.73003L41.7199 10.027L44.4529 13.206ZM44.6039 11.394H52.5339L53.8039 10.301L54.0459 11.285L51.4599 18.369L52.4519 19.52L51.6219 20.123H43.6909L42.4199 21.215L42.1789 20.233L44.7639 13.149L44.7099 13.085L44.7119 13.084L43.7759 11.995L44.6039 11.394Z" fill="#495357"/>
<path d="M43.3501 5.79598L45.3901 0.130981H45.3221L43.1611 6.06998H51.5701L57.3821 1.07298H57.3801L58.4751 0.130981H58.0551L57.8921 0.27198L57.8601 0.130981H57.5791L57.6571 0.473984L56.4161 1.53898L56.1141 0.130981H55.8331L56.1801 1.74298L54.9411 2.80898L54.4801 0.590981L54.6461 0.130981H54.3551L54.1961 0.570984L54.7031 3.01198L53.4631 4.07698L52.9321 1.44698L53.4051 0.130981H53.1141L52.6491 1.42698L53.2261 4.28198L51.4641 5.79598H49.6311L51.6721 0.130981H51.3811L49.3401 5.79598H48.1111L50.1521 0.130981H49.8611L47.8201 5.79598H46.5241L48.5651 0.130981H48.2731L46.2331 5.79598H44.9371L46.9771 0.130981H46.6861L44.6461 5.79598H43.3501Z" fill="#495357"/>
<path d="M42.7758 7.12698L42.6748 7.40098H51.8098L58.4678 1.67798L58.4668 1.67698L60.2648 0.130981H59.8448L52.5308 6.41798L52.5318 6.41898L51.7078 7.12698H42.7758Z" fill="#495357"/>
<path d="M42.9219 8.45798L42.0369 9.15398L41.8599 9.64297L43.0169 8.73197H52.0519L59.5529 2.28297L59.5519 2.28098L61.2209 0.847977H63.1509L63.2509 0.573975H61.1179L53.6159 7.02297L53.6179 7.02497L51.9499 8.45798H42.9219Z" fill="#495357"/>
<path d="M50.2088 19.048L50.2418 18.958L52.6038 12.469H46.0068L43.6118 19.048H50.2088V19.048ZM46.1998 12.743H52.2138L50.0178 18.775H44.0038L46.1998 12.743Z" fill="#495357"/>
<path d="M49.4202 17.808L49.4532 17.718L50.9122 13.71H46.7962L45.3042 17.808H49.4202ZM46.9892 13.984H50.5212L49.2292 17.534H45.6962L46.9892 13.984Z" fill="#495357"/>
<path d="M48.6421 16.583L48.6751 16.493L49.2421 14.934H47.5761L46.9751 16.583H48.6421ZM47.7671 15.208H48.8511L48.4501 16.309H47.3671L47.7671 15.208Z" fill="#495357"/>
<path d="M28.7948 28.006H27.9898L28.7948 25.774V24.965L27.6988 28.006H26.4028L28.7948 21.367V20.558L26.1118 28.006H25.0238L24.9238 28.281H28.7948V28.006Z" fill="#495357"/>
<path d="M25.1808 29.338L24.2738 30.069L24.0918 30.567L25.2778 29.611H28.7958V29.338H25.1808Z" fill="#495357"/>
<path d="M25.9762 30.669L24.6712 31.697L23.9762 30.888L23.8682 31.185L24.5702 32.002H24.9342L24.8502 31.905L26.0722 30.943H28.7962V30.669H25.9762Z" fill="#495357"/>
<path d="M33.7232 32L33.7222 32.001H35.6642L43.6942 25.1L43.6932 25.098L44.5162 24.391H54.0982L54.7672 23.852L54.9492 23.353L54.0022 24.116H44.4132L37.7562 29.839L37.7582 29.84L35.2452 32H33.7232Z" fill="#495357"/>
<path d="M28.795 32H26.77V32.001H28.795V32Z" fill="#495357"/>
<path d="M37.4552 32.001L38.3322 31.246L38.5042 32.001H38.7842L38.5672 31.044L39.8092 29.978L40.1962 31.782L40.1172 32.001H40.4082L40.4802 31.801L40.0452 29.775L41.2832 28.708L41.7442 30.926L41.3572 32.001H41.6482L42.0282 30.945L41.5212 28.506L42.7612 27.439L43.2922 30.069L42.6002 32.001H42.8902L43.5752 30.09L42.9992 27.236L44.7602 25.721H46.5842L44.3222 32.001H44.6132L46.8752 25.721H48.1712L45.9092 32.001H46.2002L48.4632 25.721H49.7592L47.4972 32.001H47.7882L50.0502 25.721H51.3462L49.0832 32.001H49.3752L51.6372 25.721H52.9342L50.6712 32.001H50.9622L53.2262 25.721H54.0852L54.1842 25.447H44.6542L38.8422 30.444L38.8442 30.445L37.0332 32.001H37.4552Z" fill="#495357"/>
<path d="M28.7949 46.601V46.327H28.2469L28.1479 46.601H28.7949Z" fill="#495357"/>
<path d="M28.7948 45.271V45.106H28.6908L28.6318 45.271H28.7948Z" fill="#495357"/>
<path d="M27.5942 48.121L27.8152 47.933H28.7962V47.658H27.7632L27.5942 48.121Z" fill="#495357"/>
<path d="M9.2611 71.318L9.3441 71.09L9.0791 71.318H9.2611Z" fill="#495357"/>
<path d="M3.71094 71.318H4.13394L7.62994 68.312L7.62794 68.311L10.1419 66.151H11.1409L11.2409 65.878H10.0399L3.71094 71.318Z" fill="#495357"/>
<path d="M9.72119 63.471H12.1172L12.2172 63.196H10.1122L12.3072 57.164H14.4112L14.5122 56.892H12.1162L9.72119 63.471Z" fill="#495357"/>
<path d="M11.4131 62.231H12.5681L12.6681 61.956H11.8041L13.0961 58.406H13.9601L14.0591 58.131H12.9041L11.4131 62.231Z" fill="#495357"/>
<path d="M8.714 68.915L10.383 67.482H10.656L10.756 67.208H10.28L5.5 71.318H5.923L8.716 68.916L8.714 68.915Z" fill="#495357"/>
<path d="M9.80006 69.521L9.96706 69.378L10.1581 68.852L7.28906 71.318H7.71306L9.80206 69.522L9.80006 69.521Z" fill="#495357"/>
<path d="M78.4119 0.161011H78.0269L80.0649 2.53201L77.5059 9.54301L77.5899 9.88701L80.3159 2.39901L79.3909 1.32101L80.2169 0.719009H80.9269L81.0259 0.445015H80.1279L79.2099 1.11301L78.3989 0.170013L78.4119 0.161011Z" fill="#495357"/>
<path d="M66.5229 18.663V18.938H70.477L76.035 14.162L76.227 13.631L71.199 17.955L71.2 17.956L70.377 18.663H66.5229Z" fill="#495357"/>
<path d="M66.5229 19.994V20.269H70.719L75.22 16.401L75.4129 15.87L72.285 18.559L72.2869 18.562L70.6189 19.994H66.5229Z" fill="#495357"/>
<path d="M66.5229 21.325V21.6H70.96L74.405 18.64L74.598 18.11L73.3709 19.164L73.372 19.167L70.86 21.325H66.5229Z" fill="#495357"/>
<path d="M72.472 21.839L72.714 22.821L70.127 29.905L70.252 30.05L72.951 22.636L72.7039 21.638L73.59 20.878L73.782 20.352L71.1 22.656H66.5229V22.931H71.202L72.472 21.839Z" fill="#495357"/>
<path d="M69.566 31.934L69.667 31.66H66.5229V31.934H69.566Z" fill="#495357"/>
<path d="M68.91 30.495L71.271 24.006H66.522V24.28H70.88L68.684 30.311H66.522V30.585H68.877L68.91 30.495Z" fill="#495357"/>
<path d="M68.122 29.254L69.58 25.246H66.522V25.521H69.188L67.896 29.07H66.522V29.344H68.088L68.122 29.254Z" fill="#495357"/>
<path d="M67.3419 28.03L67.909 26.47H66.5229V26.744H67.518L67.117 27.845H66.5229V28.12H67.309L67.3419 28.03Z" fill="#495357"/>
<path d="M54.2968 45.106H53.9648V45.142L54.2558 45.143L54.2968 45.106Z" fill="#495357"/>
<path d="M59.7508 45.106H59.4598L57.1948 51.394L57.5958 51.86L60.9098 55.716L61.0188 55.419L57.5068 51.336L59.7508 45.106Z" fill="#495357"/>
<path d="M58.5089 45.106H58.2179L55.8569 51.634L56.6089 52.508H56.6069L60.4499 56.978L60.5589 56.682L56.1689 51.576L58.5089 45.106Z" fill="#495357"/>
<path d="M55.62 53.155L59.992 58.241L60.1 57.944L54.832 51.819L57.268 45.106H56.977L54.519 51.875L55.62 53.155Z" fill="#495357"/>
<path d="M53.9648 50.77L56.0318 45.105H55.7408L53.9648 49.971V50.77Z" fill="#495357"/>
<path d="M56.5168 59.194H53.9648V59.47H56.6148L58.3048 58.082L59.5318 59.504L59.6398 59.208L53.9648 52.607V53.027L54.1728 53.269L53.9648 53.419V53.759L54.3508 53.478L54.6308 53.803L55.1618 54.421L54.1358 55.202H53.9648V55.476H54.2278L55.3398 54.628L56.1518 55.57L54.9288 56.533H53.9648V56.808H55.0248L56.3298 55.78L57.1398 56.722L55.7228 57.864H53.9648V58.138H55.8198L57.3188 56.93L58.1288 57.872L56.5168 59.194Z" fill="#495357"/>
<path d="M53.9648 47.209L54.3258 46.216H53.9648V47.209Z" fill="#495357"/>
<path d="M24.3799 63.527L26.2039 62.03H28.7959V61.756H28.1259L28.7959 59.895V59.087L27.8339 61.756H26.5379L28.7959 55.488V54.68L26.2469 61.756H26.1069L24.4659 63.103L28.7959 51.082V50.274L24.2339 62.937L23.2309 61.77L26.6299 52.301L26.4319 51.317L26.2509 51.811L26.3469 52.28L22.9189 61.827L22.9709 61.887H22.9699L24.3799 63.527Z" fill="#495357"/>
<path d="M15.942 102.561L15.941 102.287L12.245 102.288L5.588 108.01V108.011L3.076 110.17H0V110.444L3.177 110.445L11.523 103.27L11.521 103.269L12.345 102.561H15.942Z" fill="#495357"/>
<path d="M11.4429 97.218H15.9409V96.944H11.8329L14.0299 90.914H15.9409V90.64H13.8379L11.4429 97.218Z" fill="#495357"/>
<path d="M13.1348 95.978H15.9418V95.704H13.5258L14.8188 92.153H15.9418V91.88H14.6258L13.1348 95.978Z" fill="#495357"/>
<path d="M14.8052 94.754H15.9412V94.48H15.1962L15.5972 93.379H15.9412V93.105H15.4052L14.8052 94.754Z" fill="#495357"/>
<path d="M15.9418 104.072L15.9408 104.059L15.5488 105.149L15.9418 104.072Z" fill="#495357"/>
<path d="M8.266 101.456L8.264 101.454L11.622 98.568H15.942L15.941 98.294H11.52L10.25 99.386L10.009 98.403L12.595 91.319L12.54 91.256L12.542 91.255V91.253L11.606 90.166L12.433 89.564H15.942V89.29H12.344L11.427 89.957L10.615 89.014L11.641 88.233H15.942V87.959H11.548L10.437 88.807L9.625 87.864L10.847 86.902H15.942L15.941 86.628H10.751L9.446 87.657L8.636 86.713L10.053 85.571H15.942V85.297H9.956L8.457 86.506L7.648 85.564L9.036 84.423H8.605L7.521 85.314L7.841 84.423H7.55L7.288 85.147L6.665 84.423H6.303L12.282 91.376L9.723 98.388L10.018 99.586L8.776 100.653L8.46 99.26L11.257 91.56L11.202 91.497L11.204 91.496L5.12 84.423H4.759L5.036 84.746L10.944 91.617L8.175 99.242L8.541 100.855L7.3 101.92L6.912 100.116L9.919 91.802L9.865 91.739L9.866 91.738L3.61 84.462L3.624 84.423H3.333L3.298 84.52L4.049 85.393L4.048 85.395L9.607 91.86L6.628 100.097L7.064 102.124L5.824 103.19L5.364 100.973L8.581 92.043L8.528 91.981L8.529 91.98L2.273 84.704L2.374 84.423H2.083L1.96 84.761L3.06 86.041V86.042L8.27 92.1L5.08 100.954L5.587 103.395L4.348 104.46L3.817 101.829L7.243 92.284L7.191 92.222H7.192L0.934999 84.945L1.125 84.423H0.833L0.622 85.001L1.612 86.155L0.783001 86.758H0.00200081V87.032H0.872L1.792 86.363L2.071 86.688V86.689L2.602 87.306L1.576 88.087H0.00200081V88.361H1.669L2.781 87.515L3.592 88.458L2.369 89.418H0.00200081V89.693H2.465L3.771 88.666L4.58 89.607L3.163 90.75H0.00200081V91.023H3.26L4.759 89.815L5.569 90.757L3.958 92.081H0.00200081V92.355H0.507999L0.00200081 93.76V94.569L0.799999 92.355H2.096L0.000999451 98.168V98.976L2.387 92.355L3.683 92.354L0.000999451 102.575V103.384L3.974 92.354H4.056L5.686 91.017L0.225 106.177H0V106.451H2.453L8.266 101.456ZM5.922 91.168L6.932 92.341L3.532 101.808L4.11 104.664L2.349 106.177H0.516001L5.922 91.168Z" fill="#495357"/>
<path d="M2.695 107.782L9.351 102.06V102.058L11.864 99.899H15.942V99.625H11.761L3.415 106.799L3.416 106.8L2.593 107.508H0L0.000999451 107.782H2.695Z" fill="#495357"/>
<path d="M2.93598 109.113L10.438 102.665L10.437 102.663L12.104 101.23H15.941V100.956H12.003L4.50098 107.404L4.50198 107.406L2.83398 108.839H0.000976562V109.113H2.93598Z" fill="#495357"/>
<path d="M5.216 111.681L4.921 110.484L6.162 109.417L6.479 110.81L4.357 116.65H4.649L6.763 110.827L6.398 109.215L7.638 108.149L8.027 109.952L5.605 116.652H5.896L8.311 109.97L7.874 107.945L9.113 106.88L9.574 109.096L6.853 116.652H7.144L9.859 109.116L9.352 106.674L10.591 105.61L11.122 108.24L8.102 116.652H8.394L11.406 108.259L10.829 105.405L12.59 103.893L14.414 103.892L9.819 116.652H10.11L14.705 103.892H15.941V103.618H12.485L6.672 108.614L6.674 108.615L3.317 111.501H0V111.776H3.418L4.688 110.684L4.93 111.666L3.11 116.65H3.402L5.216 111.681Z" fill="#495357"/>
<path d="M110.071 9.09499L110.072 9.097L106.714 11.983H98.795L98.493 12.204L98.325 12.664L98.883 12.257H106.816L108.085 11.165L108.328 12.148L105.742 19.232L106.732 20.383L105.902 20.986H97.971L96.701 22.078L96.46 21.095L99.046 14.012L98.992 13.948L98.993 13.947L98.196 13.019L98.087 13.317L98.733 14.069L96.174 21.08L96.468 22.278L95.227 23.346L94.923 22.007L94.751 22.481L94.992 23.548L94.077 24.334L93.883 24.864L94.716 24.148V24.146L98.074 21.261H105.991L106.911 20.592L107.191 20.917V20.918L107.72 21.535L106.695 22.317H98.213L93.261 26.573L93.07 27.103L95.803 24.753L95.8 24.751L98.315 22.591H106.788L107.899 21.744L108.71 22.686L107.489 23.648H98.454L92.448 28.811L92.253 29.342L96.889 25.357L96.886 25.356L98.555 23.922H107.583L108.888 22.894L109.7 23.837L108.284 24.979H98.696L92.038 30.702L92.039 30.703L91.63 31.054L91.439 31.58L97.974 25.962L97.973 25.961L98.797 25.253H108.379L109.879 24.045L110.135 24.345L110.245 24.048L106.054 19.175L108.614 12.162L108.318 10.965L109.558 9.89799L109.875 11.29L107.08 18.99L108.178 20.269V20.27L110.595 23.082L110.704 22.785L107.39 18.932L110.161 11.308L109.795 9.696L111.035 8.629L111.423 10.434L108.417 18.749L109.167 19.622V19.623L111.054 21.819L111.163 21.523L108.729 18.692L111.708 10.452L111.272 8.42599L112.51 7.362L112.971 9.578L109.754 18.509L110.156 18.975H110.155L111.514 20.556L111.622 20.26L110.066 18.45L113.255 9.598L112.748 7.157L113.989 6.092L114.52 8.72099L111.091 18.267L111.143 18.327L111.973 19.294L112.082 18.998L111.404 18.21L114.802 8.741L114.225 5.88699L115.988 4.37299H117.405L117.504 4.099H115.882L110.071 9.09499Z" fill="#495357"/>
<path d="M115.641 2.76801L108.984 8.49001L108.986 8.491L106.472 10.652H99.0571L98.9561 10.925H106.574L114.919 3.75201L114.918 3.749L115.742 3.04301H117.889L117.989 2.76801H115.641Z" fill="#495357"/>
<path d="M115.4 1.43799L107.898 7.88499L107.9 7.88699L106.231 9.32099H99.5409L99.4409 9.59499H106.333L113.835 3.14699L113.833 3.14599L115.501 1.71199H118.373L118.471 1.43799H115.4Z" fill="#495357"/>
<path d="M100.51 6.65901L100.41 6.93201H105.851L111.662 1.93601L113.749 0.140015L113.327 0.141014L112.173 1.13501L111.948 0.144012H111.667L111.938 1.33701L110.698 2.40201L110.31 0.598015L110.473 0.147011H110.181L110.025 0.57901L110.461 2.60601L109.221 3.67101L108.761 1.45401L109.232 0.150009H108.94L108.477 1.43401L108.984 3.87502L107.744 4.94101L107.213 2.31001L107.989 0.152008H107.697L106.929 2.29001L107.507 5.14501L105.745 6.65901H103.913L106.255 0.155014H105.965L103.621 6.65901H102.393L104.735 0.158012H104.443L102.101 6.65901H100.806L103.147 0.160011L102.874 0.161011L100.908 5.56601L100.514 6.65901H100.51Z" fill="#495357"/>
<path d="M100.026 7.98998L99.9248 8.26298H106.091L112.749 2.54198L112.747 2.53998L115.26 0.379982H118.858L118.949 0.130981L115.122 0.137978L106.812 7.28098L106.813 7.28198L105.991 7.98998H100.026Z" fill="#495357"/>
<path d="M104.523 19.821L106.885 13.332H100.289L97.8931 19.912H104.491L104.523 19.821ZM100.48 13.606H106.494L104.299 19.638H98.2861L100.48 13.606Z" fill="#495357"/>
<path d="M105.194 14.572H101.079L99.585 18.67H103.702L103.734 18.58L105.194 14.572ZM101.27 14.847H104.801L103.51 18.397H99.977L101.27 14.847Z" fill="#495357"/>
<path d="M103.522 15.797H101.857L101.256 17.446H102.923L102.955 17.356L103.522 15.797ZM102.048 16.071H103.131L102.732 17.172H101.647L102.048 16.071Z" fill="#495357"/>
<path d="M92.8708 32.001L92.8488 31.906L94.0878 30.841L94.3388 32.001H94.6198L94.3258 30.637L95.5648 29.571L96.0248 31.788L95.9498 32.001H96.2398L96.3078 31.809L95.8028 29.368L97.0418 28.302L97.5738 30.932L97.1889 32.001H97.4799L97.8558 30.953L97.2808 28.098L99.0408 26.584H100.866L98.9128 32.001H99.2048L101.158 26.584H102.454L100.502 32.001H100.793L102.744 26.584H104.04L102.088 32.001H102.38L104.331 26.584H105.628L103.676 32.001H103.967L105.918 26.584H107.214L105.263 32.001H105.554L107.506 26.584H108.802L106.85 32.001H107.141L109.093 26.584H109.174L109.382 26.413L109.567 25.907L109.077 26.309H98.9349L93.1238 31.306L93.1248 31.308L92.3188 32.001H92.8708Z" fill="#495357"/>
<path d="M91.1632 47.19H85.7582L85.6572 47.464H91.1632V47.19Z" fill="#495357"/>
<path d="M90.6371 46.133L91.1631 45.719V45.371L90.5411 45.859H86.2421L86.1421 46.133H90.6371Z" fill="#495357"/>
<path d="M91.163 55.75V54.941L88.399 62.618H87.168L91.164 51.528V50.72L86.877 62.618H85.581L90.56 48.795H91.164V48.521H85.275L85.174 48.795H85.508L80.529 62.618H80.389L80.038 62.906L79.855 63.41L80.487 62.893L90.627 62.892L91.164 62.431V62.067L90.523 62.618H88.69L91.163 55.75ZM85.289 62.618H83.994L88.972 48.795H90.268L85.289 62.618ZM83.702 62.618H82.406L87.385 48.795H88.681L83.702 62.618ZM85.798 48.795H87.094L82.115 62.618H80.819L85.798 48.795Z" fill="#495357"/>
<path d="M61.8192 51.355H62.4972L62.5972 51.08H62.1522L64.3042 45.106H64.0132L61.8622 51.08H61.7202L60.0802 52.426L62.7162 45.106H62.4252L59.8482 52.261L58.8442 51.094L60.9952 45.106H60.7042L58.5332 51.152L58.5842 51.212L58.5832 51.213L61.3712 54.453L61.4772 54.155L61.1972 53.828L61.7642 53.37L61.9462 52.871L61.0172 53.62L60.2062 52.677L61.8192 51.355Z" fill="#495357"/>
<path d="M63.6918 107.818L63.5128 108.308L63.8548 109.959L61.4458 116.651H61.7368L64.1398 109.979L63.6918 107.818Z" fill="#495357"/>
<path d="M36.5149 108.482H30.5009L31.1659 106.623H30.8749L30.1099 108.756H36.7069L36.7399 108.666L37.4719 106.623H37.1809L36.5149 108.482Z" fill="#495357"/>
<path d="M35.7258 107.24H32.1938L32.4078 106.623H32.1168L31.8018 107.515H35.9178L35.9508 107.425L36.2318 106.623H35.9398L35.7258 107.24Z" fill="#495357"/>
<path d="M41.2618 106.622H40.9708L40.6328 107.593L41.3838 108.467H41.3828L41.6138 108.735L41.7208 108.439L40.9458 107.536L41.2618 106.622Z" fill="#495357"/>
<path d="M37.9569 108.075L38.9479 109.227L38.1179 109.83H30.1869L28.9169 110.923L28.7949 110.427V111.389L30.2899 110.105H38.2069L39.1269 109.435L39.4069 109.762L39.4059 109.763L39.9359 110.38L38.9119 111.161H30.4289L28.7949 112.566V112.927L30.5309 111.435H39.0039L40.1149 110.587L40.6939 111.26L40.8019 110.964L38.2689 108.019L38.7689 106.622H38.4779L37.9569 108.075Z" fill="#495357"/>
<path d="M39.2949 107.835L40.3949 109.113V109.114L41.1529 109.997L41.2619 109.7L39.6069 107.777L40.0149 106.622H39.7229L39.2949 107.835Z" fill="#495357"/>
<path d="M28.7949 108.814V109.612L29.8769 106.623H29.5849L28.7949 108.814Z" fill="#495357"/>
<path d="M69.1719 116.652H69.4629L73.0569 106.622H72.7659L69.1719 116.652Z" fill="#495357"/>
<path d="M65.998 116.65H66.289L69.883 106.623H69.592L65.998 116.65Z" fill="#495357"/>
<path d="M70.7598 116.652H71.0508L74.6448 106.622H74.3538L70.7598 116.652Z" fill="#495357"/>
<path d="M73.8682 116.652H74.1592L77.7522 106.622H77.4612L73.8682 116.652Z" fill="#495357"/>
<path d="M72.3472 116.652H72.6382L76.2322 106.622H75.9412L72.3472 116.652Z" fill="#495357"/>
<path d="M67.585 116.65H67.876L71.471 106.622L71.179 106.623L67.585 116.65Z" fill="#495357"/>
<path d="M64.4111 116.65H64.7021L68.2961 106.623H68.0041L64.4111 116.65Z" fill="#495357"/>
<path d="M79.4779 106.622H79.1869L76.4819 114.209L76.8259 115.909L77.0049 115.415L76.7649 114.228L79.4779 106.622Z" fill="#495357"/>
<path d="M64.0592 106.807L63.8662 107.338L64.7402 106.622H64.3162L64.0592 106.807Z" fill="#495357"/>
<path d="M65.4039 109.102L62.6929 116.651H62.9839L65.6869 109.122L65.1219 106.622H64.8419L65.4039 109.102Z" fill="#495357"/>
<path d="M33.7222 32.002H28.7962V17.646L35.1712 0.130981H45.3222L33.7222 32.002ZM53.9652 45.106H46.9902L37.4502 71.318H53.9652V45.106V45.106ZM23.5712 32.002L28.7962 17.646V0.130981L15.9422 0.16098V32.002H23.5712V32.002ZM15.9422 104.072L23.0922 84.423H15.9422V104.072ZM50.4632 84.423L38.7332 116.649L53.9652 116.651V84.423H50.4632ZM21.0042 116.65H28.7962V95.242L21.0042 116.65ZM91.2872 32.002L102.875 0.16098L91.1642 0.130981V32.002H91.2872ZM76.9762 71.318L86.5162 45.106H66.5222V71.318H76.9762ZM51.7962 32.002H53.9652H66.5232V0.16098L63.4142 0.130981L53.9652 26.089V26.042L51.7962 32.002ZM15.9422 52.964L9.26123 71.318H15.9422V52.964Z" fill="#939598"/>
<path d="M46.1251 39.257H23.7471V60.18H46.1251V39.257Z" fill="#E6E7E8"/>
<path d="M46.023 55.524C46.023 56.596 45.153 57.466 44.082 57.466H26.608C25.536 57.466 24.667 56.596 24.667 55.524V43.875C24.667 42.803 25.536 41.934 26.608 41.934H44.082C45.153 41.934 46.023 42.803 46.023 43.875V55.524Z" fill="#E6E7E8"/>
<path d="M46.2622 55.685C46.2622 56.69 45.8782 57.695 45.1122 58.463C44.3452 59.229 43.3392 59.612 42.3352 59.612H28.3552C27.3512 59.612 26.3452 59.229 25.5772 58.463C24.8112 57.695 24.4272 56.69 24.4272 55.685V43.714C24.4272 42.708 24.8112 41.704 25.5772 40.937C26.3452 40.17 27.3512 39.787 28.3562 39.787H42.3352C43.3392 39.787 44.3452 40.17 45.1122 40.937C45.8782 41.704 46.2622 42.71 46.2622 43.714V55.685Z" fill="#E6E7E8"/>
<path d="M35.1241 40.598C35.1241 40.786 35.0531 40.975 34.9091 41.12C34.7661 41.264 34.5771 41.335 34.3871 41.335H23.7471V39.256H35.1241V40.598Z" fill="#E6E7E8"/>
<path d="M35.1241 40.598C35.1241 40.786 35.0531 40.975 34.9091 41.12C34.7661 41.264 34.5771 41.335 34.3871 41.335H23.7471V39.256H35.1241V40.598Z" fill="#E6E7E8"/>
<path d="M35.1241 40.598C35.1241 40.786 35.0531 40.975 34.9091 41.12C34.7661 41.264 34.5771 41.335 34.3871 41.335H23.7471V39.256H35.1241V40.598Z" stroke="#231F20" stroke-width="0.034"/>
<path d="M35.9282 40.598C35.9282 40.786 36.0004 40.975 36.1446 41.12C36.2889 41.264 36.4783 41.335 36.6666 41.335H46.6176V39.256H35.9282V40.598Z" fill="#E6E7E8"/>
<path d="M35.9282 40.598C35.9282 40.786 36.0002 40.975 36.1442 41.12C36.2882 41.264 36.4772 41.335 36.6652 41.335H46.6102V39.256H35.9282V40.598Z" fill="#E6E7E8"/>
<path d="M35.9282 40.598C35.9282 40.786 36.0002 40.975 36.1442 41.12C36.2882 41.264 36.4772 41.335 36.6652 41.335H46.6176V39.256H35.9282V40.598Z" stroke="#231F20" stroke-width="0.034"/>
<path d="M35.7871 59.022C35.7871 58.834 35.8591 58.645 36.0021 58.501C36.1461 58.357 36.3361 58.285 36.5241 58.285H46.1271V60.18H35.7871V59.022Z" fill="#E6E7E8"/>
<path d="M35.7871 59.022C35.7871 58.834 35.8591 58.645 36.0021 58.501C36.1461 58.357 36.3361 58.285 36.5241 58.285H46.5877V60.18H35.7871V59.022Z" fill="#E6E7E8"/>
<path d="M35.7871 59.022C35.7871 58.834 35.8591 58.645 36.0021 58.501C36.1461 58.357 36.3361 58.285 36.5241 58.285H46.6025V60.18H35.7871V59.022Z" stroke="#231F20" stroke-width="0.034"/>
<path d="M35.1243 60.18V59.022C35.1243 58.832 35.0533 58.644 34.9093 58.501C34.7663 58.357 34.5773 58.284 34.3873 58.284H32.5923" fill="#E6E7E8"/>
<path d="M35.1243 60.18V59.022C35.1243 58.832 35.0533 58.644 34.9093 58.501C34.7663 58.357 34.5773 58.284 34.3873 58.284H32.5923" fill="#E6E7E8"/>
<path d="M35.1243 60.18V59.022C35.1243 58.832 35.0533 58.644 34.9093 58.501C34.7663 58.357 34.5773 58.284 34.3873 58.284H32.5923" stroke="#231F20" stroke-width="0.034"/>
<path d="M26.2981 58.842C26.2981 59.084 26.2071 59.322 26.0251 59.506C25.8411 59.689 25.6001 59.781 25.3601 59.781H23.7471V54.037H26.2981V58.842Z" fill="#E6E7E8"/>
<path d="M26.2981 58.842C26.2981 59.084 26.2071 59.322 26.0251 59.506C25.8411 59.689 25.6001 59.781 25.3601 59.781H23.7471V54.037H26.2981V58.842Z" fill="#E6E7E8"/>
<path d="M26.2981 58.842C26.2981 59.084 26.2071 59.322 26.0251 59.506C25.8411 59.689 25.6001 59.781 25.3601 59.781H23.7471V54.037H26.2981V58.842Z" stroke="#231F20" stroke-width="0.034"/>
<path d="M26.7329 59.405C26.7909 58.497 27.1309 58.27 27.4519 58.27C28.9669 58.251 30.9609 58.294 32.6629 58.284C32.6629 58.284 32.6649 57.491 32.5159 57.313C32.3689 57.136 31.9399 56.549 31.9169 55.867C31.8919 55.186 32.1989 54.67 32.3369 54.037H26.2979V59.613C26.3589 59.411 26.5899 59.635 26.7329 59.405Z" fill="#E6E7E8"/>
<path d="M26.7329 59.405C26.7909 58.497 27.1309 58.27 27.4519 58.27C28.9669 58.251 30.9609 58.294 32.6629 58.284C32.6629 58.284 32.6649 57.491 32.5159 57.313C32.3689 57.136 31.9399 56.549 31.9169 55.867C31.8919 55.186 32.1989 54.67 32.3369 54.037H26.2979V59.613C26.3589 59.411 26.5899 59.635 26.7329 59.405Z" fill="#E6E7E8"/>
<path d="M26.7329 59.405C26.7909 58.497 27.1309 58.27 27.4519 58.27C28.9669 58.251 30.9609 58.294 32.6629 58.284C32.6629 58.284 32.6649 57.491 32.5159 57.313C32.3689 57.136 31.9399 56.549 31.9169 55.867C31.8919 55.186 32.1989 54.67 32.3369 54.037H26.2979V59.613C26.3589 59.411 26.5899 59.635 26.7329 59.405Z" stroke="#231F20" stroke-width="0.034"/>
<path d="M46.6091 41.335H23.748V45.418H46.6091V41.335Z" fill="#E6E7E8"/>
<path d="M46.6091 41.335H23.748V45.418H46.6091V41.335Z" fill="#E6E7E8"/>
<path d="M46.6091 41.335H23.748V45.418H46.6091V41.335Z" stroke="#231F20" stroke-width="0.034"/>
<path d="M46.6091 45.418H23.748V49.676H46.6091V45.418Z" fill="#E6E7E8"/>
<path d="M46.6091 45.418H23.748V49.676H46.6091V45.418Z" fill="#E6E7E8"/>
<path d="M46.6091 45.418H23.748V49.676H46.6091V45.418Z" stroke="#231F20" stroke-width="0.034"/>
<path d="M46.6091 49.676H23.748V54.037H46.6091V49.676Z" fill="#E6E7E8"/>
<path d="M46.6091 49.676H23.748V54.037H46.6091V49.676Z" fill="#E6E7E8"/>
<path d="M46.6091 49.676H23.748V54.037H46.6091V49.676Z" stroke="#231F20" stroke-width="0.034"/>
<path d="M38.1489 58.221C38.1489 58.221 38.3179 57.497 38.4699 57.313C38.6239 57.13 38.9669 56.482 39.0709 55.867C39.1749 55.253 38.7889 54.669 38.6489 54.038H46.6089V58.284C43.0379 58.264 40.3179 58.234 38.1489 58.221Z" fill="#E6E7E8"/>
<path d="M38.1489 58.221C38.1489 58.221 38.3179 57.497 38.4699 57.313C38.6239 57.13 38.9669 56.482 39.0709 55.867C39.1749 55.253 38.7889 54.669 38.6489 54.038H46.6089V58.284C43.0379 58.264 40.3179 58.234 38.1489 58.221Z" fill="#E6E7E8"/>
<path d="M38.1489 58.221C38.1489 58.221 38.3179 57.497 38.4699 57.313C38.6239 57.13 38.9669 56.482 39.0709 55.867C39.1749 55.253 38.7889 54.669 38.6489 54.038H46.6089V58.284C43.0379 58.264 40.3179 58.234 38.1489 58.221Z" stroke="#231F20" stroke-width="0.034"/>
<path d="M32.4182 50.41C32.1802 51.095 31.5502 51.488 31.5382 52.25C31.5292 52.706 31.6042 53.306 31.7672 53.735C31.9762 54.286 32.3392 54.614 32.7792 54.806C34.3152 54.792 36.3472 54.788 38.2412 54.791C38.6682 54.597 39.0222 54.276 39.2242 53.735C39.3862 53.306 39.4612 52.706 39.4522 52.25C39.4392 51.488 38.8112 51.095 38.5722 50.41C38.2442 49.464 38.9372 49.167 39.3112 48.435C39.6772 47.722 39.4002 46.898 39.2162 46.17C38.8202 44.611 36.7692 44.801 35.4942 44.849C34.2222 44.801 32.1712 44.611 31.7732 46.17C31.5892 46.898 31.3142 47.722 31.6802 48.435C32.0552 49.168 32.7462 49.465 32.4182 50.41Z" fill="#E6E7E8"/>
<path d="M32.4182 50.41C32.1802 51.095 31.5502 51.488 31.5382 52.25C31.5292 52.706 31.6042 53.306 31.7672 53.735C31.9762 54.286 32.3392 54.614 32.7792 54.806C34.3152 54.792 36.3472 54.788 38.2412 54.791C38.6682 54.597 39.0222 54.276 39.2242 53.735C39.3862 53.306 39.4612 52.706 39.4522 52.25C39.4392 51.488 38.8112 51.095 38.5722 50.41C38.2442 49.464 38.9372 49.167 39.3112 48.435C39.6772 47.722 39.4002 46.898 39.2162 46.17C38.8202 44.611 36.7692 44.801 35.4942 44.849C34.2222 44.801 32.1712 44.611 31.7732 46.17C31.5892 46.898 31.3142 47.722 31.6802 48.435C32.0552 49.168 32.7462 49.465 32.4182 50.41Z" fill="#E6E7E8"/>
<path d="M32.4182 50.41C32.1802 51.095 31.5502 51.488 31.5382 52.25C31.5292 52.706 31.6042 53.306 31.7672 53.735C31.9762 54.286 32.3392 54.614 32.7792 54.806C34.3152 54.792 36.3472 54.788 38.2412 54.791C38.6682 54.597 39.0222 54.276 39.2242 53.735C39.3862 53.306 39.4612 52.706 39.4522 52.25C39.4392 51.488 38.8112 51.095 38.5722 50.41C38.2442 49.464 38.9372 49.167 39.3112 48.435C39.6772 47.722 39.4002 46.898 39.2162 46.17C38.8202 44.611 36.7692 44.801 35.4942 44.849C34.2222 44.801 32.1712 44.611 31.7732 46.17C31.5892 46.898 31.3142 47.722 31.6802 48.435C32.0552 49.168 32.7462 49.465 32.4182 50.41Z" stroke="#231F20" stroke-width="0.034"/>
<path d="M37.5441 43.317C37.5441 43.702 37.3981 44.085 37.1051 44.378C36.8131 44.67 36.4291 44.816 36.0451 44.816H35.0521C34.6641 44.816 34.2761 44.669 33.9811 44.372C33.6851 44.076 33.5371 43.689 33.5371 43.302V41.336H37.5441V43.317V43.317Z" fill="#E6E7E8"/>
<path d="M37.5441 43.317C37.5441 43.702 37.3981 44.085 37.1051 44.378C36.8131 44.67 36.4291 44.816 36.0451 44.816H35.0521C34.6641 44.816 34.2761 44.669 33.9811 44.372C33.6851 44.076 33.5371 43.689 33.5371 43.302V41.336H37.5441V43.317V43.317Z" fill="#E6E7E8"/>
<path d="M37.5441 43.317C37.5441 43.702 37.3981 44.085 37.1051 44.378C36.8131 44.67 36.4291 44.816 36.0451 44.816H35.0521C34.6641 44.816 34.2761 44.669 33.9811 44.372C33.6851 44.076 33.5371 43.689 33.5371 43.302V41.336H37.5441V43.317V43.317Z" stroke="#231F20" stroke-width="0.034"/>
<path d="M46.023 55.524C46.023 56.596 45.153 57.466 44.082 57.466H26.608C25.536 57.466 24.667 56.596 24.667 55.524V43.875C24.667 42.803 25.536 41.934 26.608 41.934H44.082C45.153 41.934 46.023 42.803 46.023 43.875V55.524Z" stroke="#181716" stroke-width="0.034" stroke-miterlimit="10"/>
<path d="M150.853 48.204C151.009 48.416 151.134 48.651 151.215 48.904C151.301 49.156 151.35 49.427 151.35 49.71C151.35 49.994 151.301 50.265 151.215 50.517C151.134 50.768 151.008 51.005 150.851 51.216C150.64 51.504 150.697 51.908 150.985 52.124C151.274 52.336 151.676 52.275 151.892 51.988C152.125 51.671 152.316 51.314 152.447 50.932C152.573 50.546 152.642 50.135 152.642 49.71C152.642 49.286 152.573 48.875 152.448 48.491C152.316 48.107 152.126 47.75 151.892 47.433C151.678 47.147 151.274 47.085 150.988 47.299C150.699 47.512 150.64 47.918 150.853 48.204Z" fill="#E2E0DF"/>
<path d="M153.07 46.997C153.558 47.787 153.84 48.713 153.84 49.71C153.84 50.708 153.559 51.634 153.07 52.424C152.884 52.729 152.98 53.126 153.284 53.314C153.588 53.502 153.986 53.406 154.174 53.103C154.784 52.119 155.135 50.952 155.134 49.71C155.135 48.469 154.784 47.303 154.174 46.317C153.986 46.012 153.588 45.917 153.284 46.106C152.98 46.295 152.884 46.694 153.07 46.997Z" fill="#E2E0DF"/>
<path d="M155.424 45.768C156.102 46.926 156.488 48.27 156.488 49.711C156.488 51.152 156.101 52.497 155.422 53.653C155.242 53.966 155.346 54.361 155.655 54.541C155.965 54.722 156.36 54.618 156.542 54.308C157.331 52.959 157.78 51.386 157.78 49.711C157.78 48.038 157.331 46.4639 156.541 45.1159C156.36 44.8059 155.965 44.704 155.656 44.883C155.346 45.061 155.245 45.458 155.424 45.768Z" fill="#E2E0DF"/>
<path d="M157.771 44.533C158.64 46.062 159.135 47.825 159.136 49.711C159.135 51.598 158.64 53.362 157.771 54.889C157.595 55.199 157.701 55.595 158.014 55.77C158.324 55.949 158.719 55.841 158.897 55.53C159.875 53.813 160.432 51.825 160.432 49.711C160.432 47.596 159.873 45.609 158.897 43.892C158.719 43.582 158.324 43.473 158.014 43.651C157.701 43.826 157.595 44.222 157.771 44.533Z" fill="#E2E0DF"/>
<path d="M143.351 104.221C143.018 104.221 142.7 104.164 142.394 104.052V103.68C142.535 103.744 142.693 103.799 142.87 103.845C143.046 103.892 143.206 103.915 143.351 103.915C143.45 103.915 143.554 103.903 143.664 103.879C143.777 103.856 143.878 103.817 143.974 103.764C144.068 103.711 144.146 103.642 144.208 103.556C144.271 103.47 144.303 103.367 144.303 103.246C144.303 103.132 144.282 103.033 144.239 102.947C144.195 102.861 144.134 102.782 144.053 102.711C143.973 102.639 143.874 102.572 143.76 102.508C143.644 102.444 143.514 102.377 143.368 102.308C143.254 102.253 143.142 102.197 143.031 102.138C142.918 102.08 142.818 102.012 142.727 101.931C142.637 101.852 142.564 101.758 142.507 101.651C142.45 101.544 142.422 101.414 142.422 101.262C142.422 101.156 142.441 101.048 142.478 100.937C142.515 100.826 142.58 100.724 142.674 100.632C142.769 100.539 142.898 100.463 143.063 100.403C143.227 100.343 143.436 100.313 143.691 100.313C143.832 100.313 143.976 100.323 144.122 100.343C144.27 100.363 144.424 100.399 144.584 100.45V100.815C144.408 100.74 144.248 100.689 144.108 100.661C143.967 100.633 143.828 100.618 143.691 100.618C143.503 100.618 143.352 100.642 143.239 100.687C143.125 100.733 143.039 100.789 142.98 100.855C142.922 100.921 142.883 100.99 142.866 101.063C142.848 101.136 142.84 101.202 142.84 101.261C142.84 101.348 142.857 101.427 142.89 101.494C142.923 101.562 142.976 101.626 143.045 101.686C143.116 101.746 143.204 101.806 143.313 101.865C143.42 101.923 143.549 101.989 143.698 102.062C143.859 102.142 144.002 102.219 144.13 102.294C144.257 102.368 144.365 102.449 144.453 102.536C144.541 102.623 144.608 102.721 144.653 102.831C144.698 102.94 144.72 103.069 144.72 103.218C144.72 103.345 144.695 103.469 144.644 103.588C144.593 103.708 144.513 103.816 144.403 103.91C144.293 104.005 144.152 104.08 143.98 104.136C143.807 104.193 143.598 104.221 143.351 104.221Z" fill="white"/>
<path d="M145.894 101.377H145.523V104.177H145.894V101.377Z" fill="white"/>
<path d="M147.79 105.399C147.641 105.399 147.505 105.388 147.382 105.364C147.259 105.34 147.129 105.301 146.991 105.247V104.93C147.132 104.992 147.276 105.037 147.423 105.066C147.569 105.095 147.716 105.11 147.861 105.11C148.177 105.11 148.43 105.031 148.622 104.873C148.812 104.714 148.907 104.477 148.907 104.16V103.675C148.844 103.784 148.776 103.873 148.702 103.942C148.627 104.011 148.551 104.067 148.472 104.108C148.395 104.15 148.315 104.179 148.232 104.196C148.15 104.212 148.072 104.221 147.998 104.221C147.829 104.221 147.667 104.194 147.51 104.141C147.354 104.088 147.215 104.004 147.096 103.888C146.976 103.771 146.88 103.621 146.807 103.437C146.736 103.253 146.7 103.033 146.7 102.774C146.7 102.512 146.736 102.291 146.807 102.108C146.88 101.927 146.976 101.778 147.096 101.664C147.215 101.549 147.354 101.465 147.51 101.413C147.667 101.36 147.829 101.333 147.998 101.333C148.221 101.333 148.411 101.394 148.567 101.513C148.723 101.633 148.845 101.781 148.93 101.956H148.949V101.377H149.278V104.193C149.278 104.248 149.274 104.315 149.265 104.395C149.258 104.475 149.239 104.56 149.207 104.649C149.176 104.738 149.129 104.827 149.065 104.917C149.003 105.005 148.917 105.086 148.806 105.156C148.698 105.228 148.558 105.286 148.393 105.331C148.225 105.377 148.026 105.399 147.79 105.399ZM148.907 102.774C148.907 102.556 148.876 102.373 148.813 102.226C148.75 102.078 148.673 101.96 148.584 101.871C148.495 101.782 148.396 101.718 148.288 101.68C148.179 101.642 148.083 101.623 147.997 101.623C147.907 101.623 147.808 101.642 147.703 101.68C147.596 101.718 147.5 101.782 147.409 101.871C147.319 101.96 147.242 102.078 147.18 102.226C147.117 102.373 147.086 102.556 147.086 102.774C147.086 102.996 147.117 103.182 147.18 103.331C147.243 103.48 147.32 103.599 147.409 103.689C147.5 103.777 147.596 103.84 147.703 103.877C147.807 103.913 147.907 103.931 147.997 103.931C148.083 103.931 148.179 103.913 148.288 103.877C148.395 103.84 148.494 103.777 148.584 103.689C148.674 103.599 148.751 103.48 148.813 103.331C148.875 103.182 148.907 102.996 148.907 102.774Z" fill="white"/>
<path d="M150.287 104.177V102.021L150.268 101.377H150.598V101.956H150.61C150.644 101.876 150.693 101.799 150.751 101.723C150.81 101.649 150.881 101.583 150.963 101.524C151.046 101.467 151.139 101.42 151.245 101.385C151.349 101.351 151.469 101.333 151.598 101.333C151.841 101.333 152.033 101.371 152.173 101.446C152.314 101.52 152.42 101.613 152.49 101.723C152.559 101.835 152.604 101.954 152.625 102.081C152.644 102.209 152.655 102.327 152.655 102.436V104.177H152.285V102.452C152.285 102.365 152.281 102.273 152.271 102.177C152.265 102.08 152.239 101.991 152.193 101.909C152.148 101.827 152.076 101.759 151.974 101.704C151.875 101.65 151.732 101.623 151.543 101.623C151.415 101.623 151.296 101.647 151.188 101.697C151.081 101.746 150.988 101.813 150.91 101.899C150.832 101.984 150.769 102.082 150.723 102.193C150.68 102.304 150.658 102.422 150.658 102.545V104.177H150.287Z" fill="white"/>
<path d="M154.395 104.221C154.07 104.221 153.822 104.146 153.652 103.996C153.482 103.848 153.396 103.653 153.396 103.412C153.396 103.278 153.425 103.153 153.484 103.038C153.543 102.924 153.634 102.825 153.76 102.742C153.885 102.658 154.049 102.591 154.249 102.542C154.452 102.493 154.696 102.469 154.981 102.469H155.316V102.375C155.316 102.114 155.257 101.922 155.14 101.803C155.022 101.682 154.852 101.622 154.627 101.622C154.48 101.622 154.326 101.639 154.169 101.672C154.014 101.704 153.863 101.755 153.718 101.824V101.508C153.844 101.457 153.983 101.415 154.135 101.383C154.288 101.349 154.452 101.333 154.627 101.333C154.978 101.333 155.24 101.419 155.417 101.59C155.597 101.761 155.687 102.023 155.687 102.375V104.177H155.374V103.702H155.364C155.301 103.811 155.23 103.899 155.152 103.967C155.073 104.034 154.992 104.087 154.905 104.125C154.819 104.163 154.732 104.188 154.646 104.202C154.561 104.215 154.477 104.221 154.395 104.221ZM154.395 103.931C154.684 103.931 154.911 103.847 155.074 103.677C155.236 103.508 155.317 103.269 155.317 102.96V102.758H154.982C154.754 102.758 154.565 102.774 154.413 102.807C154.26 102.839 154.137 102.885 154.042 102.943C153.949 103.001 153.883 103.071 153.843 103.151C153.804 103.231 153.784 103.318 153.784 103.412C153.784 103.565 153.838 103.69 153.949 103.786C154.058 103.883 154.206 103.931 154.395 103.931Z" fill="white"/>
<path d="M157.22 100.553V101.377H157.937V101.666H157.22V103.386C157.22 103.506 157.228 103.601 157.242 103.672C157.259 103.743 157.281 103.798 157.31 103.836C157.339 103.874 157.376 103.9 157.422 103.912C157.467 103.925 157.519 103.931 157.576 103.931C157.651 103.931 157.718 103.928 157.777 103.921C157.836 103.913 157.894 103.897 157.952 103.871V104.16C157.87 104.19 157.795 104.207 157.723 104.213C157.653 104.218 157.59 104.221 157.535 104.221C157.371 104.221 157.241 104.193 157.148 104.136C157.054 104.079 156.986 104.011 156.942 103.929C156.9 103.847 156.872 103.759 156.863 103.664C156.853 103.57 156.848 103.484 156.848 103.407V101.666H156.231V101.377H156.848V100.678L157.22 100.553Z" fill="white"/>
<path d="M159.006 101.377V103.216C159.006 103.274 159.012 103.344 159.024 103.426C159.036 103.508 159.063 103.586 159.106 103.661C159.149 103.735 159.214 103.799 159.302 103.852C159.391 103.905 159.511 103.931 159.663 103.931C159.789 103.931 159.906 103.908 160.019 103.863C160.13 103.817 160.227 103.753 160.309 103.669C160.391 103.585 160.457 103.487 160.506 103.375C160.555 103.262 160.579 103.136 160.579 102.998V101.377H160.948V103.538L160.972 104.177H160.625V103.62H160.619C160.541 103.802 160.419 103.948 160.252 104.057C160.086 104.166 159.889 104.221 159.661 104.221C159.559 104.221 159.449 104.209 159.33 104.185C159.21 104.161 159.1 104.113 158.998 104.041C158.896 103.968 158.81 103.864 158.738 103.73C158.669 103.595 158.634 103.415 158.634 103.189V101.377H159.006Z" fill="white"/>
<path d="M161.965 104.177V101.89L161.942 101.377H162.296V101.977H162.301C162.317 101.905 162.343 101.83 162.38 101.754C162.417 101.677 162.466 101.608 162.525 101.547C162.584 101.485 162.654 101.433 162.738 101.394C162.822 101.353 162.921 101.333 163.029 101.333C163.14 101.333 163.251 101.35 163.364 101.383V101.71C163.263 101.674 163.155 101.656 163.042 101.656C162.917 101.656 162.811 101.685 162.722 101.746C162.634 101.805 162.562 101.88 162.505 101.969C162.446 102.058 162.404 102.157 162.378 102.264C162.351 102.371 162.337 102.472 162.337 102.567V104.177H161.965Z" fill="white"/>
<path d="M164.168 102.878C164.168 102.965 164.179 103.069 164.204 103.189C164.225 103.309 164.274 103.424 164.345 103.533C164.415 103.642 164.515 103.735 164.647 103.814C164.779 103.892 164.952 103.931 165.168 103.931C165.321 103.931 165.471 103.92 165.62 103.896C165.767 103.872 165.918 103.824 166.067 103.751V104.068C165.914 104.13 165.762 104.171 165.614 104.191C165.465 104.211 165.313 104.221 165.162 104.221C164.731 104.221 164.392 104.093 164.148 103.839C163.903 103.584 163.781 103.214 163.781 102.731C163.781 102.512 163.812 102.317 163.879 102.144C163.943 101.971 164.033 101.824 164.149 101.704C164.264 101.585 164.403 101.493 164.563 101.429C164.722 101.365 164.9 101.333 165.092 101.333C165.28 101.333 165.438 101.358 165.571 101.407C165.703 101.456 165.812 101.52 165.903 101.598C165.993 101.676 166.063 101.766 166.115 101.868C166.166 101.97 166.205 102.074 166.232 102.179C166.259 102.285 166.277 102.39 166.285 102.493C166.293 102.597 166.297 102.689 166.297 102.769V102.878H164.168ZM165.908 102.589C165.908 102.534 165.902 102.452 165.889 102.343C165.878 102.234 165.845 102.127 165.792 102.021C165.739 101.916 165.658 101.823 165.549 101.743C165.44 101.663 165.287 101.623 165.091 101.623C164.937 101.623 164.804 101.651 164.692 101.707C164.579 101.764 164.483 101.838 164.407 101.928C164.331 102.019 164.273 102.123 164.233 102.239C164.194 102.356 164.172 102.472 164.169 102.589H165.908Z" fill="white"/>
<path d="M146.046 100.639C146.046 100.826 145.895 100.977 145.708 100.977C145.521 100.977 145.37 100.826 145.37 100.639C145.37 100.452 145.521 100.302 145.708 100.302C145.895 100.302 146.046 100.452 146.046 100.639Z" fill="white"/>
<path d="M143.262 85.041L138.444 96.545H135.298L132.925 87.363C132.782 86.799 132.656 86.592 132.219 86.353C131.501 85.965 130.321 85.602 129.281 85.374L129.351 85.041H134.414C135.06 85.041 135.64 85.472 135.787 86.213L137.04 92.87L140.137 85.041H143.262ZM155.59 92.789C155.604 89.753 151.395 89.583 151.419 88.229C151.43 87.816 151.824 87.376 152.682 87.264C153.108 87.21 154.286 87.166 155.618 87.78L156.139 85.34C155.42 85.082 154.5 84.831 153.357 84.831C150.414 84.831 148.344 86.393 148.328 88.633C148.31 90.289 149.807 91.213 150.933 91.764C152.09 92.328 152.481 92.69 152.476 93.194C152.467 93.966 151.548 94.309 150.697 94.321C149.199 94.345 148.331 93.916 147.639 93.594L147.099 96.114C147.794 96.434 149.078 96.712 150.408 96.727C153.535 96.727 155.579 95.18 155.59 92.789ZM163.359 96.545H166.11L163.706 85.041H161.167C160.597 85.041 160.114 85.373 159.9 85.885L155.436 96.545H158.56L159.181 94.827H162.996L163.359 96.545ZM160.035 92.47L161.603 88.15L162.504 92.47H160.035ZM147.518 85.041L145.055 96.545H142.08L144.539 85.041H147.518Z" fill="white"/>
<path d="M128.785 16.4729H118.166L118.932 14.3679H129.55L128.785 16.4729ZM128.402 17.5249H117.782L117.016 19.6299H127.634L128.402 17.5249ZM127.252 20.6829H116.635L115.869 22.7869H126.487L127.252 20.6829ZM154.074 28.0349H155.974C156.695 28.0349 157.132 27.8609 157.439 27.4679C157.591 27.2699 157.81 26.9209 157.81 26.2649C157.81 25.6099 157.591 25.1509 157.155 24.8229C156.892 24.6269 156.542 24.5169 155.953 24.5179H154.074V28.0349ZM151.56 30.1539V17.5239H159.776L159.055 19.6439H154.074V22.4409H156.105C157.745 22.4409 158.596 22.8339 159.186 23.3369C159.646 23.7299 160.431 24.6039 160.431 26.3289C160.431 28.0339 159.622 28.9739 158.945 29.4549C158.16 30.0009 157.329 30.1539 155.647 30.1539H151.56ZM144.285 30.1539V19.6439H140.638V17.5239H150.775L150.054 19.6439H146.82V30.1539H144.285ZM134.166 22.5719H135.589C136.025 22.5719 136.244 22.5719 136.461 22.5069C137.052 22.3319 137.423 21.8069 137.423 21.0869C137.423 20.2339 137.029 19.8619 136.461 19.6879C136.222 19.6219 135.982 19.5999 135.499 19.5999H134.166V22.5719ZM134.19 24.7559L134.191 28.0779H135.938C136.461 28.0779 136.943 28.0339 137.292 27.7069C137.642 27.3789 137.794 26.9639 137.794 26.4169C137.794 26.0019 137.685 25.6089 137.468 25.3249C137.096 24.8669 136.637 24.7569 135.85 24.7559H134.19ZM138.232 23.4239V23.4679C138.711 23.6429 139.17 23.9479 139.413 24.1449C140.155 24.7559 140.483 25.5649 140.483 26.6139C140.483 28.3409 139.565 29.5859 138.057 29.9789C137.598 30.1099 137.117 30.1539 136.222 30.1539H131.655V17.5249L135.698 17.5239C136.528 17.5249 137.096 17.5679 137.598 17.6989C139.062 18.0929 140.025 19.0969 140.025 20.6929C140.025 21.5459 139.719 22.2659 139.215 22.7469C138.997 22.9659 138.691 23.2289 138.232 23.4239ZM131.655 34.1079H134.307V37.5209H133.708V34.6019L132.251 34.6009V37.5209H131.654V34.1079H131.655ZM135.128 35.7659C135.128 35.5019 135.122 35.2269 135.104 35.0159H135.638C135.647 35.1199 135.657 35.2909 135.657 35.4179H135.667C135.873 35.1059 136.142 34.9589 136.523 34.9589C137.169 34.9589 137.589 35.4669 137.589 36.2399C137.589 37.0329 137.158 37.5799 136.502 37.5799C136.121 37.5799 135.848 37.3949 135.681 37.1149H135.672C135.681 37.2139 135.686 37.5799 135.686 37.7269V38.5489H135.128V35.7659ZM135.686 36.2739C135.686 36.7539 135.97 37.1359 136.362 37.1359C136.768 37.1359 137.008 36.7589 137.008 36.2689C137.008 35.7509 136.764 35.4089 136.366 35.4089C135.97 35.4079 135.686 35.7799 135.686 36.2739ZM138.187 35.0159L138.736 35.0169V35.9459C138.736 36.2399 138.726 36.5719 138.705 36.7969L138.716 36.7979L139.913 35.0159H140.499V37.5209H139.948V36.5869C139.948 36.3189 139.957 36.0009 139.976 35.7559H139.967L138.773 37.5209H138.187V35.0159ZM141.274 35.0159L142.527 35.0169C142.942 35.0159 143.369 35.1589 143.369 35.6289C143.369 35.9459 143.182 36.1379 142.885 36.2059V36.2149C143.192 36.2689 143.427 36.4709 143.427 36.8029C143.427 37.3939 142.943 37.5209 142.454 37.5209H141.275L141.274 35.0159ZM142.36 36.0249C142.628 36.0249 142.799 35.9419 142.799 35.7069C142.799 35.4819 142.623 35.4039 142.35 35.4039H141.823V36.0249H142.36ZM142.384 37.1249C142.697 37.1259 142.863 36.9779 142.863 36.7539C142.863 36.5289 142.692 36.4209 142.364 36.4209H141.822V37.1249H142.384ZM144.024 35.0169L144.572 35.0159V35.9459C144.572 36.2399 144.561 36.5719 144.542 36.7969H144.553L145.75 35.0159H146.338V37.5209H145.786V36.5869C145.786 36.3189 145.794 36.0009 145.814 35.7559H145.804L144.611 37.5209H144.024V35.0169ZM146.764 37.5209L146.788 37.0859C146.827 37.1059 146.919 37.1109 146.984 37.1109C147.35 37.1109 147.454 36.6459 147.454 35.0159H149.36V37.5209H148.807V35.4429H147.977C147.971 36.7149 147.892 37.5599 147.123 37.5599C147.017 37.5599 146.837 37.5409 146.764 37.5209ZM149.957 36.2549C149.957 35.4819 150.448 34.9589 151.181 34.9589C151.875 34.9589 152.273 35.3739 152.273 36.2499C152.273 36.2939 152.268 36.3719 152.262 36.4159H150.527C150.541 36.8609 150.869 37.1359 151.347 37.1359C151.631 37.1359 151.862 37.0669 152.08 36.9389L152.091 37.4229C151.87 37.5269 151.602 37.5799 151.292 37.5799C150.467 37.5799 149.957 37.0859 149.957 36.2549ZM151.745 36.0149C151.745 35.5699 151.51 35.3649 151.162 35.3649C150.833 35.3649 150.566 35.5949 150.527 36.0149H151.745ZM152.87 35.0159L154.582 35.0169V35.4429H153.423V37.5209H152.87V35.0159ZM155.017 35.0159H155.565V35.9459C155.565 36.2399 155.555 36.5719 155.537 36.7969L155.546 36.7979L156.744 35.0159H157.331V37.5209H156.779V36.5869C156.779 36.3189 156.788 36.0009 156.808 35.7559H156.797L155.604 37.5209H155.017V35.0159ZM158.52 36.5569C158.174 36.4649 157.948 36.2299 157.948 35.8149C157.948 35.2419 158.364 35.0159 158.947 35.0159H160.072V37.5209H159.518V36.6069H159.093L158.423 37.5209H157.762L158.52 36.5569ZM159.518 36.1999V35.4169H159.015C158.676 35.4169 158.515 35.5489 158.515 35.8179C158.516 36.0579 158.666 36.1999 159.003 36.1999H159.518Z" fill="#939598"/>
</svg>
