<?xml version="1.0" encoding="utf-8"?>
<!-- Generator: Adobe Illustrator 24.3.0, SVG Export Plug-In . SVG Version: 6.00 Build 0)  -->
<svg version="1.1" id="Слой_1" xmlns="http://www.w3.org/2000/svg" xmlns:xlink="http://www.w3.org/1999/xlink" x="0px" y="0px"
	 viewBox="0 0 1345.36 125.79" style="enable-background:new 0 0 1345.36 125.79;" xml:space="preserve">
<style type="text/css">
	.st0{clip-path:url(#SVGID_2_);fill:#FFFFFF;}
</style>
<g>
	<defs>
		<rect id="SVGID_1_" width="1345.36" height="125.79"/>
	</defs>
	<clipPath id="SVGID_2_">
		<use xlink:href="#SVGID_1_"  style="overflow:visible;"/>
	</clipPath>
	<path class="st0" d="M21.19,22.96l60.84,58.07l60.85-58.07v100.09h21.19V2.74h-21.88L82.03,60.16L21.88,2.74H0v120.31h21.19V22.96z
		 M289.85,2.74l-71.1,120.31h22.59l14.26-24.62h90.39l14.24,24.62h22.59L311.73,2.74H289.85z M339.65,87.49h-77.72l38.86-67.08
		L339.65,87.49z M528.53,2.74L475.8,60.16L423.06,2.74h-23.83l65.29,71.08v49.23h22.55V73.82l65.29-71.08H528.53z M720.42,56.72
		c7.67-5.7,12.43-13.7,12.43-22.54c0-17.36-18.37-31.44-41.01-31.44h-84.79v120.31h98.46c24.15,0,43.74-15.31,43.74-34.18
		C749.24,74.08,737.24,61.49,720.42,56.72 M700.03,65.63c15.1,0,27.34,10.39,27.34,23.24c0,12.84-12.24,23.24-27.34,23.24h-71.11
		V65.63H700.03z M628.92,13.68h57.43c13.6,0,24.62,9.19,24.62,20.5c0,11.33-11.02,20.51-24.62,20.51h-57.43V13.68z M864.11,2.74
		L793,123.05h22.58l14.26-24.62h90.39l14.26,24.62h22.59L885.96,2.74H864.11z M836.17,87.49l38.85-67.08l38.87,67.08H836.17z
		 M1140.26,8.21c-16.11-5.21-34.79-8.2-54.67-8.2c-51.35,0-92.96,28.16-92.96,62.88c0,34.75,41.6,62.9,92.96,62.9
		c19.88,0,38.56-3.02,54.67-8.22V104.9c-15.32,6.26-34.24,9.95-54.67,9.95c-38.52,0-69.73-23.28-69.73-51.96
		s31.21-51.94,69.73-51.94c20.44,0,39.35,3.67,54.67,9.93V8.21z M1219.57,2.74h-21.88v120.31h21.88V65.63h103.91v57.42h21.9V2.74
		h-21.9v51.95h-103.91V2.74z"/>
</g>
</svg>
