<?xml version="1.0" encoding="utf-8"?>
<!-- Generator: Adobe Illustrator 16.0.0, SVG Export Plug-In . SVG Version: 6.00 Build 0)  -->
<!DOCTYPE svg PUBLIC "-//W3C//DTD SVG 1.1//EN" "http://www.w3.org/Graphics/SVG/1.1/DTD/svg11.dtd">
<svg version="1.1" id="Layer_1" xmlns="http://www.w3.org/2000/svg" xmlns:xlink="http://www.w3.org/1999/xlink" x="0px" y="0px"
	 width="179.133px" height="46.464px" viewBox="0 0 179.133 46.464" enable-background="new 0 0 179.133 46.464"
	 xml:space="preserve">
<g>
	<path fill="#FFFFFF" d="M80.707,0c-7.835,0-14.208,6.248-14.208,13.916c0,7.669,6.373,13.911,14.208,13.911
		c7.831,0,14.205-6.242,14.205-13.911C94.912,6.248,88.538,0,80.707,0 M80.707,22.701c-4.928,0-8.932-3.944-8.932-8.785
		c0-4.849,4.004-8.789,8.932-8.789c4.919,0,8.929,3.94,8.929,8.789C89.636,18.757,85.626,22.701,80.707,22.701"/>
	<path fill="#FFFFFF" d="M146.132,0.667c-1.448-0.44-3.102-0.665-4.632-0.665c-8.173,0-14.824,6.246-14.824,13.912
		c0,7.671,6.651,13.915,14.824,13.915c1.598,0,3.275-0.285,4.829-0.781c0.457-0.146,0.766-0.566,0.766-1.044v-3.933
		c0-0.485-0.513-0.802-0.943-0.577c-1.417,0.748-3.073,1.209-4.651,1.209c-4.172,0-7.919-2.71-9.009-6.475h10.818
		c0.638,0,1.156-0.519,1.156-1.158v-2.463c0-0.639-0.519-1.157-1.156-1.157h-10.758c1.176-3.678,4.892-6.322,8.948-6.322
		c1.539,0,3.186,0.359,4.575,1.061c0.467,0.237,1.02-0.084,1.02-0.609V1.967C147.095,1.37,146.704,0.84,146.132,0.667"/>
	<path fill="#FFFFFF" d="M20.243,13.005V1.749c0-0.636-0.519-1.159-1.159-1.159h-2.987c-0.64,0-1.163,0.523-1.163,1.159v7.732
		c0,0.642-0.001,1.301-0.002,1.97H5.327V1.749c0-0.636-0.52-1.159-1.16-1.159H1.18c-0.64,0-1.162,0.523-1.162,1.159v7.758
		c-0.006,7.207-0.009,16.582-0.009,16.582c0,0.635,0.52,1.154,1.16,1.154h3c0.634,0,1.156-0.52,1.156-1.154l0.008-9.875h9.597
		c-0.002,5.249-0.004,9.875-0.004,9.875c0,0.635,0.519,1.154,1.159,1.154h3c0.634,0,1.157-0.52,1.157-1.154l0.009-13.074
		L20.243,13.005z"/>
	<path fill="#FFFFFF" d="M43.839,1.752v0.007l-0.007,17.232c0,2.014-0.995,4.212-2.663,5.896c-1.878,1.889-4.885,2.931-7.595,2.931
		c-1.692,0-3.22-0.399-4.542-1.053c-3.183-1.57-5.178-4.619-5.452-7.176v-0.454c0-0.636,0.538-1.159,1.195-1.159h3.065
		c0.526,0,0.97,0.333,1.13,0.79c0.016,0.094,0.036,0.186,0.056,0.278c0.539,2.203,2.337,3.647,4.548,3.647
		c2.664,0,4.933-2.015,4.933-5.012v-2.707c-1.463,0.786-2.506,1.712-4.933,1.753c-1.766,0.03-3.35-0.431-4.712-1.136
		c-3.242-1.675-5.208-4.891-5.309-7.471l0.003-6.359V1.752c0-0.082,0.007-0.156,0.024-0.235c0.108-0.526,0.574-0.924,1.133-0.924h3
		c0.558,0,1.029,0.398,1.136,0.924c0.016,0.079,0.023,0.153,0.023,0.235v0.004l-0.01,4.786c0,0.091,0.003,0.186,0.006,0.277v0.003
		c0.125,2.828,2.137,4.777,4.706,4.777c2.664,0,4.933-2.014,4.933-5.011l0.01-4.832V1.752c0-0.082,0.006-0.156,0.023-0.235
		c0.111-0.526,0.577-0.924,1.139-0.924h2.997c0.562,0,1.032,0.398,1.14,0.924C43.833,1.596,43.839,1.67,43.839,1.752"/>
	<path fill="#FFFFFF" d="M170.627,13.005V1.749c0-0.636-0.521-1.159-1.159-1.159h-2.987c-0.64,0-1.163,0.523-1.163,1.159v7.758
		c0,0.633,0,1.284-0.002,1.944h-9.604V1.749c0-0.636-0.521-1.159-1.159-1.159h-2.988c-0.64,0-1.162,0.523-1.162,1.159v7.732
		c-0.005,7.211-0.008,16.607-0.008,16.607c0,0.635,0.52,1.154,1.159,1.154h3.001c0.633,0,1.155-0.52,1.155-1.154l0.008-9.875h9.598
		c-0.003,5.249-0.005,9.875-0.005,9.875c0,0.635,0.52,1.154,1.159,1.154h3c0.634,0,1.156-0.52,1.156-1.154l0.011-13.074
		L170.627,13.005z"/>
	<path fill="#FFFFFF" d="M62.43,2.981c-1.596-1.587-4.156-2.397-7.656-2.397h-6.481c-0.633,0-1.152,0.526-1.152,1.159v1.6
		c0,0.016-0.003,0.026-0.003,4.992v4.597c0,3.197,0,7.464,0.003,13.155c0,0.637,0.519,1.155,1.155,1.155h2.994
		c0.637,0,1.159-0.519,1.159-1.155v-9.854h2.325c2.621,0,4.715-0.453,6.272-1.348c0.523-0.301,0.987-0.65,1.384-1.049
		c1.257-1.256,1.91-3.01,1.937-5.22c0.003-0.049,0.003-0.098,0.003-0.147V8.335C64.367,6.062,63.713,4.264,62.43,2.981
		 M59.394,8.469c0,0.033,0,0.065-0.003,0.098c-0.017,1.127-0.382,1.86-0.931,2.338c-0.009,0.009-0.016,0.019-0.025,0.025
		c-0.84,0.709-2.101,0.836-3.256,0.836l-2.73-0.005V5.056l2.73-0.005c1.956,0,4.209,0.369,4.215,3.284V8.469z"/>
	<path fill="#FFFFFF" d="M124.546,12.731c0-6.029-4.978-10.959-11.115-11.038c-0.029-0.61-0.531-1.103-1.152-1.103h-2.987
		c-0.62,0-1.127,0.493-1.156,1.103C101.997,1.772,97.02,6.702,97.02,12.731c0,6.021,4.972,10.949,11.102,11.034v0.072v2.25
		c0,0.637,0.521,1.155,1.16,1.155h3c0.634,0,1.155-0.519,1.155-1.155l0.003-2.321C119.572,23.683,124.546,18.753,124.546,12.731
		 M102.226,12.731c0-3.223,2.639-5.861,5.904-5.94v2.847c0,2.92-0.004,6.183-0.005,9.029
		C104.862,18.585,102.226,15.947,102.226,12.731 M113.442,18.667l0.002-1.213l0.003-4.441l-0.011-0.009V8.508V6.791
		c3.266,0.079,5.904,2.717,5.904,5.94C119.341,15.946,116.705,18.584,113.442,18.667"/>
	<path fill="#FFFFFF" d="M176.292,0.59h0.017c0.789,0,1.456,0.268,2.004,0.803c0.547,0.536,0.82,1.192,0.82,1.97
		s-0.276,1.438-0.829,1.979c-0.552,0.541-1.223,0.811-2.012,0.811c-0.801,0-1.478-0.27-2.029-0.811
		c-0.553-0.541-0.828-1.201-0.828-1.979s0.275-1.434,0.828-1.97C174.814,0.858,175.491,0.59,176.292,0.59 M176.292,1.148h-0.017
		c-0.599,0-1.103,0.218-1.514,0.651c-0.413,0.434-0.617,0.955-0.617,1.564c0,0.62,0.208,1.145,0.625,1.573
		c0.417,0.429,0.931,0.642,1.539,0.642c0.598,0.012,1.1-0.2,1.505-0.634c0.406-0.434,0.609-0.955,0.609-1.564
		c0-0.62-0.203-1.147-0.609-1.581C177.408,1.366,176.9,1.148,176.292,1.148 M175.853,3.701v1.1h-0.643V2.027
		c0.428-0.056,0.783-0.084,1.065-0.084c0.428,0,0.743,0.073,0.946,0.22c0.191,0.135,0.287,0.332,0.287,0.591
		c0,0.316-0.191,0.536-0.574,0.66v0.034c0.236,0.079,0.399,0.304,0.49,0.676c0.057,0.305,0.124,0.53,0.203,0.677h-0.677
		c-0.045-0.057-0.118-0.282-0.22-0.677c-0.045-0.281-0.236-0.423-0.575-0.423H175.853z M175.869,2.45v0.795h0.305
		c0.428,0,0.643-0.135,0.643-0.406c0-0.282-0.197-0.423-0.593-0.423C176.077,2.416,175.959,2.428,175.869,2.45"/>
</g>
<g>
	<path fill="#FFFFFF" d="M5.366,37.378v1.103H1.275v2.352h1.727c1.009,0,1.789,0.237,2.338,0.711
		c0.549,0.474,0.823,1.127,0.823,1.959c0,0.346-0.058,0.684-0.172,1.017c-0.115,0.332-0.299,0.624-0.551,0.876
		c-0.252,0.253-0.584,0.456-0.997,0.611c-0.412,0.155-0.914,0.232-1.507,0.232H0v-8.86H5.366z M1.275,45.15h1.7
		c0.584,0,1.043-0.133,1.375-0.398s0.498-0.669,0.498-1.209c0-0.531-0.166-0.935-0.498-1.209s-0.791-0.412-1.375-0.412h-1.7V45.15z"
		/>
	<path fill="#FFFFFF" d="M8.421,46.239c-0.204,0-0.368-0.058-0.492-0.173s-0.186-0.287-0.186-0.518v-8.17h5.579v1.13H9.019v2.576
		h3.241v1.143H9.019v2.869h4.623v1.143H8.421z"/>
	<path fill="#FFFFFF" d="M15.236,37.378h2.803c0.602,0,1.1,0.085,1.494,0.253s0.708,0.381,0.943,0.638
		c0.234,0.257,0.398,0.544,0.491,0.863c0.093,0.318,0.14,0.629,0.14,0.93c0,0.443-0.075,0.832-0.226,1.169
		c-0.15,0.337-0.358,0.617-0.624,0.844c-0.266,0.226-0.583,0.396-0.95,0.511c-0.368,0.115-0.769,0.173-1.202,0.173h-1.607v3.48
		h-1.262V37.378z M18.091,41.669c0.549,0,0.972-0.14,1.269-0.419c0.296-0.278,0.445-0.666,0.445-1.162
		c0-0.505-0.153-0.9-0.458-1.188c-0.305-0.288-0.724-0.432-1.255-0.432h-1.594v3.201H18.091z"/>
	<path fill="#FFFFFF" d="M23.432,46.239c-0.204,0-0.368-0.058-0.492-0.173s-0.186-0.287-0.186-0.518v-8.17h5.579v1.13h-4.304v2.576
		h3.241v1.143h-3.241v2.869h4.623v1.143H23.432z M24.242,36.382c-0.204,0-0.372-0.064-0.504-0.192s-0.199-0.299-0.199-0.512
		c0-0.212,0.066-0.383,0.199-0.511c0.133-0.129,0.301-0.193,0.504-0.193s0.372,0.064,0.505,0.193
		c0.133,0.128,0.199,0.299,0.199,0.511c0,0.213-0.066,0.384-0.199,0.512S24.445,36.382,24.242,36.382z M26.845,36.382
		c-0.204,0-0.372-0.064-0.504-0.192s-0.199-0.299-0.199-0.512c0-0.212,0.066-0.383,0.199-0.511c0.133-0.129,0.301-0.193,0.504-0.193
		s0.372,0.064,0.505,0.193c0.133,0.128,0.199,0.299,0.199,0.511c0,0.213-0.066,0.384-0.199,0.512S27.049,36.382,26.845,36.382z"/>
	<path fill="#FFFFFF" d="M30.99,37.312c0.301,0,0.562,0.187,0.784,0.559l2.79,4.622l2.736-4.543
		c0.142-0.229,0.279-0.394,0.412-0.491s0.292-0.146,0.479-0.146c0.204,0,0.37,0.073,0.498,0.22c0.128,0.146,0.192,0.339,0.192,0.577
		v8.13h-1.195v-6.974l-2.458,4.091c-0.159,0.266-0.385,0.398-0.677,0.398c-0.142,0-0.279-0.039-0.412-0.119s-0.239-0.19-0.318-0.332
		l-2.378-3.985v6.921h-1.195v-8.116c0-0.257,0.066-0.456,0.199-0.598S30.759,37.312,30.99,37.312z"/>
	<path fill="#FFFFFF" d="M43.303,37.378h3.002c0.46,0,0.859,0.061,1.195,0.18s0.615,0.281,0.837,0.484
		c0.221,0.204,0.387,0.443,0.498,0.718s0.166,0.566,0.166,0.877c0,0.283-0.049,0.535-0.146,0.757
		c-0.098,0.222-0.217,0.414-0.359,0.578s-0.299,0.294-0.471,0.392c-0.173,0.098-0.33,0.159-0.472,0.186
		c0.177,0.027,0.376,0.082,0.598,0.166c0.221,0.085,0.43,0.211,0.625,0.379c0.194,0.168,0.358,0.388,0.491,0.657
		c0.133,0.271,0.199,0.604,0.199,1.003c0,0.479-0.086,0.875-0.259,1.189s-0.408,0.569-0.704,0.764
		c-0.297,0.194-0.649,0.332-1.056,0.412c-0.407,0.079-0.841,0.119-1.302,0.119h-2.842V37.378z M46.119,41.072
		c0.195,0,0.39-0.024,0.584-0.073s0.372-0.126,0.531-0.232s0.288-0.243,0.385-0.412c0.097-0.168,0.146-0.372,0.146-0.61
		c0-0.267-0.049-0.48-0.146-0.645c-0.098-0.164-0.226-0.292-0.385-0.386c-0.159-0.093-0.336-0.154-0.531-0.186
		s-0.39-0.047-0.584-0.047h-1.581v2.591H46.119z M46.079,45.136c0.23,0,0.469-0.014,0.717-0.04s0.476-0.088,0.684-0.186
		s0.379-0.241,0.512-0.432s0.199-0.454,0.199-0.791c0-0.318-0.064-0.575-0.193-0.771c-0.128-0.194-0.292-0.35-0.491-0.465
		c-0.199-0.114-0.418-0.192-0.658-0.232c-0.239-0.039-0.469-0.06-0.691-0.06h-1.62v2.976H46.079z"/>
	<path fill="#FFFFFF" d="M55.922,43.768h-3.64l-0.903,2.471h-1.342l3.228-8.249c0.177-0.451,0.482-0.678,0.917-0.678
		c0.398,0,0.691,0.235,0.877,0.704l3.214,8.223h-1.421L55.922,43.768z M54.116,38.708l-1.448,3.984h2.869L54.116,38.708z"/>
	<path fill="#FFFFFF" d="M59.442,46.239v-8.86h1.275v7.718h4.065v-7.718h1.275v7.718h4.065v-7.718h1.275v8.86H59.442z"/>
	<path fill="#FFFFFF" d="M80.39,37.378l-3.414,7.014c-0.133,0.284-0.277,0.55-0.432,0.797c-0.155,0.248-0.328,0.468-0.518,0.658
		s-0.405,0.341-0.644,0.451c-0.239,0.11-0.514,0.166-0.824,0.166c-0.319,0-0.613-0.053-0.883-0.159s-0.507-0.234-0.71-0.385
		l0.558-0.957c0.142,0.098,0.294,0.184,0.458,0.259c0.164,0.076,0.352,0.113,0.564,0.113c0.159,0,0.301-0.026,0.425-0.08
		c0.124-0.053,0.241-0.139,0.352-0.259c0.111-0.119,0.217-0.27,0.319-0.451c0.102-0.182,0.215-0.4,0.339-0.658l-3.4-6.509h1.395
		l2.644,5.207l2.458-5.207H80.39z"/>
	<path fill="#FFFFFF" d="M89.343,37.378v1.103h-4.091v2.352h1.727c1.009,0,1.789,0.237,2.338,0.711
		c0.549,0.474,0.822,1.127,0.822,1.959c0,0.346-0.057,0.684-0.172,1.017c-0.115,0.332-0.299,0.624-0.551,0.876
		c-0.253,0.253-0.585,0.456-0.997,0.611c-0.412,0.155-0.914,0.232-1.507,0.232h-2.936v-8.86H89.343z M85.252,45.15h1.7
		c0.584,0,1.043-0.133,1.375-0.398s0.498-0.669,0.498-1.209c0-0.531-0.166-0.935-0.498-1.209s-0.791-0.412-1.375-0.412h-1.7V45.15z"
		/>
	<path fill="#FFFFFF" d="M96.011,46.464c-0.664,0-1.281-0.117-1.853-0.352s-1.063-0.561-1.475-0.977s-0.735-0.91-0.97-1.481
		s-0.352-1.188-0.352-1.853s0.119-1.279,0.358-1.847c0.239-0.566,0.566-1.058,0.982-1.475c0.416-0.416,0.908-0.741,1.475-0.976
		c0.566-0.235,1.178-0.353,1.833-0.353c0.664,0,1.28,0.117,1.847,0.353c0.566,0.234,1.058,0.56,1.475,0.976
		c0.416,0.417,0.741,0.908,0.977,1.475c0.234,0.567,0.352,1.183,0.352,1.847s-0.117,1.281-0.352,1.853
		c-0.235,0.571-0.559,1.065-0.97,1.481c-0.412,0.416-0.903,0.742-1.475,0.977S96.675,46.464,96.011,46.464z M96.011,45.269
		c0.487,0,0.935-0.086,1.342-0.259s0.757-0.412,1.05-0.718c0.292-0.306,0.52-0.673,0.684-1.103c0.164-0.429,0.246-0.896,0.246-1.401
		c0-0.522-0.08-0.996-0.239-1.421s-0.385-0.791-0.678-1.096c-0.292-0.306-0.642-0.543-1.049-0.711
		c-0.408-0.168-0.859-0.253-1.355-0.253s-0.947,0.085-1.354,0.253s-0.757,0.405-1.05,0.711c-0.292,0.305-0.518,0.671-0.677,1.096
		c-0.16,0.425-0.239,0.898-0.239,1.421c0,0.505,0.081,0.973,0.245,1.401c0.164,0.43,0.393,0.797,0.685,1.103
		s0.642,0.545,1.049,0.718S95.523,45.269,96.011,45.269z"/>
	<path fill="#FFFFFF" d="M103.449,38.136c0.009-0.23,0.073-0.414,0.193-0.552c0.119-0.137,0.29-0.206,0.511-0.206h4.862v8.86h-1.275
		v-7.718h-3.068c-0.054,1.391-0.164,2.575-0.332,3.554c-0.169,0.979-0.398,1.779-0.69,2.404c-0.293,0.624-0.653,1.08-1.083,1.368
		s-0.937,0.432-1.521,0.432h-0.186v-1.156c0.425,0,0.79-0.126,1.096-0.378c0.306-0.253,0.561-0.658,0.764-1.216
		c0.204-0.558,0.365-1.279,0.485-2.165C103.323,40.478,103.405,39.403,103.449,38.136z"/>
	<path fill="#FFFFFF" d="M112.311,37.378v3.255h1.727c1.01,0,1.788,0.246,2.338,0.737c0.549,0.491,0.823,1.167,0.823,2.025
		c0,0.363-0.058,0.716-0.173,1.057s-0.299,0.644-0.551,0.909c-0.253,0.266-0.585,0.479-0.996,0.638
		c-0.412,0.159-0.915,0.239-1.508,0.239h-2.936v-8.86H112.311z M112.311,45.15h1.7c0.584,0,1.042-0.142,1.374-0.426
		c0.333-0.283,0.499-0.708,0.499-1.274c0-0.559-0.166-0.985-0.499-1.282c-0.332-0.297-0.79-0.445-1.374-0.445h-1.7V45.15z"/>
	<path fill="#FFFFFF" d="M121.17,37.378h1.275v3.706h4.848v-3.706h1.275v8.86h-1.275v-4.012h-4.848v4.012h-1.275V37.378z"/>
	<path fill="#FFFFFF" d="M135.622,43.768h-3.64l-0.903,2.471h-1.342l3.229-8.249c0.177-0.451,0.482-0.678,0.916-0.678
		c0.398,0,0.69,0.235,0.877,0.704l3.215,8.223h-1.422L135.622,43.768z M133.815,38.708l-1.448,3.984h2.87L133.815,38.708z"/>
	<path fill="#FFFFFF" d="M148.494,39.69c-0.302-0.434-0.687-0.772-1.156-1.016c-0.469-0.244-0.97-0.366-1.501-0.366
		c-0.496,0-0.947,0.085-1.354,0.253s-0.755,0.405-1.043,0.711c-0.288,0.305-0.512,0.673-0.671,1.103s-0.239,0.909-0.239,1.44
		c0,0.523,0.078,0.995,0.232,1.415c0.155,0.421,0.377,0.782,0.664,1.083c0.288,0.301,0.632,0.533,1.03,0.697
		s0.846,0.245,1.341,0.245c0.514,0,0.983-0.102,1.408-0.305c0.426-0.204,0.859-0.54,1.302-1.01l0.891,0.744
		c-0.16,0.238-0.372,0.467-0.638,0.684s-0.563,0.405-0.891,0.564c-0.327,0.159-0.67,0.286-1.029,0.379
		c-0.358,0.093-0.706,0.14-1.043,0.14c-0.682,0-1.306-0.111-1.872-0.332c-0.567-0.222-1.055-0.536-1.462-0.943
		s-0.722-0.895-0.942-1.461c-0.222-0.567-0.332-1.191-0.332-1.873c0-0.673,0.114-1.298,0.345-1.873
		c0.23-0.576,0.552-1.069,0.963-1.481c0.412-0.412,0.901-0.734,1.468-0.97c0.567-0.234,1.187-0.352,1.86-0.352
		c0.362,0,0.719,0.042,1.069,0.126c0.35,0.084,0.679,0.201,0.989,0.352c0.31,0.151,0.596,0.335,0.856,0.552
		c0.262,0.217,0.48,0.458,0.658,0.724L148.494,39.69z"/>
	<path fill="#FFFFFF" d="M151.229,46.239c-0.203,0-0.367-0.058-0.491-0.173s-0.186-0.287-0.186-0.518v-8.17h5.579v1.13h-4.304v2.576
		h3.241v1.143h-3.241v2.869h4.622v1.143H151.229z"/>
	<path fill="#FFFFFF" d="M163.41,37.378v1.103h-4.091v2.352h1.727c1.01,0,1.788,0.237,2.338,0.711
		c0.549,0.474,0.823,1.127,0.823,1.959c0,0.346-0.058,0.684-0.173,1.017c-0.115,0.332-0.299,0.624-0.551,0.876
		c-0.253,0.253-0.585,0.456-0.996,0.611c-0.412,0.155-0.915,0.232-1.508,0.232h-2.936v-8.86H163.41z M159.319,45.15h1.7
		c0.584,0,1.042-0.133,1.374-0.398c0.333-0.266,0.499-0.669,0.499-1.209c0-0.531-0.166-0.935-0.499-1.209
		c-0.332-0.274-0.79-0.412-1.374-0.412h-1.7V45.15z"/>
	<path fill="#FFFFFF" d="M164.726,46.239c0.159-0.407,0.332-0.811,0.519-1.209c0.186-0.398,0.371-0.766,0.558-1.103
		c0.186-0.336,0.369-0.638,0.551-0.903s0.348-0.478,0.498-0.638c-0.549-0.203-0.967-0.509-1.255-0.916s-0.432-0.903-0.432-1.488
		c0-0.797,0.268-1.43,0.804-1.899c0.535-0.469,1.295-0.704,2.278-0.704h2.829v8.86h-1.235v-3.626h-1.235
		c-0.363,0-0.682,0.199-0.956,0.598c-0.267,0.398-0.532,0.856-0.798,1.375c-0.266,0.518-0.522,1.069-0.771,1.653H164.726z
		 M169.84,41.537v-3.056h-1.674c-0.531,0-0.947,0.136-1.249,0.405c-0.301,0.271-0.451,0.649-0.451,1.136
		c0,0.479,0.154,0.851,0.465,1.116c0.31,0.266,0.73,0.398,1.262,0.398H169.84z"/>
</g>
</svg>
