<svg width="114" height="137" viewBox="0 0 114 137" fill="none" xmlns="http://www.w3.org/2000/svg">
<g clip-path="url(#clip0_313_166)">
<path d="M50.32 88.09H21.61L18.1 101.72H35.45H36.49H53.83L50.32 88.09Z" stroke="#00AAFF" stroke-width="5" stroke-linecap="round" stroke-linejoin="round"/>
<path d="M62.9199 90.08L50.5499 61.33C50.3199 59.17 49.0399 57.57 47.5299 57.57H24.3999C22.8899 57.57 21.6099 59.17 21.3799 61.33L13.6899 90.08" stroke="#00AAFF" stroke-width="5" stroke-linecap="round" stroke-linejoin="round"/>
<path d="M102.87 109.42L96.86 90.51C96.56 89.06 95.56 88.08 94.61 88.08H81.11C80.1 88.08 78.99 88.87 78.07 90.55L74.06 97.74C73.26 99.18 71.57 99.28 70.66 97.93L66.22 91.63" stroke="#00AAFF" stroke-width="5" stroke-linecap="round" stroke-linejoin="round"/>
<path d="M44.8 101.72H27.13V133.7H44.8V101.72Z" stroke="#00AAFF" stroke-width="5" stroke-linecap="round" stroke-linejoin="round"/>
<path d="M35.97 101.72V131.5" stroke="#00AAFF" stroke-width="5" stroke-linecap="round" stroke-linejoin="round"/>
<path d="M82.4 111.17V133.7" stroke="#00AAFF" stroke-width="5" stroke-linecap="round" stroke-linejoin="round"/>
<path d="M90.5601 111.17V133.7" stroke="#00AAFF" stroke-width="5" stroke-linecap="round" stroke-linejoin="round"/>
<path d="M35.9701 49.67C40.7584 49.67 44.64 45.7883 44.64 41C44.64 36.2117 40.7584 32.33 35.9701 32.33C31.1817 32.33 27.3 36.2117 27.3 41C27.3 45.7883 31.1817 49.67 35.9701 49.67Z" stroke="#00AAFF" stroke-width="5" stroke-linecap="round" stroke-linejoin="round"/>
<path d="M86.48 81.03C89.0758 81.03 91.18 78.9257 91.18 76.33C91.18 73.7343 89.0758 71.63 86.48 71.63C83.8843 71.63 81.78 73.7343 81.78 76.33C81.78 78.9257 83.8843 81.03 86.48 81.03Z" stroke="#00AAFF" stroke-width="5" stroke-linecap="round" stroke-linejoin="round"/>
<path d="M93.92 101.72H79.03V110.49H93.92V101.72Z" stroke="#00AAFF" stroke-width="5" stroke-linecap="round" stroke-linejoin="round"/>
<path d="M111.09 33.53L56.8 2.5L2.5 33.53" stroke="#00AAFF" stroke-width="5" stroke-linecap="round" stroke-linejoin="round"/>
<path d="M97.84 3.72H83.3V17.31L97.84 25.62V3.72Z" stroke="#00AAFF" stroke-width="5" stroke-linecap="round" stroke-linejoin="round"/>
</g>
<defs>
<clipPath id="clip0_313_166">
<rect width="113.59" height="136.2" fill="white"/>
</clipPath>
</defs>
</svg>
