<svg width="220" height="40" viewBox="0 0 220 40" fill="none" xmlns="http://www.w3.org/2000/svg">
<path d="M1.07746 7.75467L4.87148 0.82885C5.11601 0.38867 5.39111 0.168579 5.69677 0.168579C5.89545 0.168579 6.05592 0.248186 6.17819 0.407401C6.30045 0.557249 6.36158 0.763291 6.36158 1.02553V9.60904H5.28413V2.0651L1.40986 9.1595C1.31817 9.31871 1.20736 9.44515 1.07746 9.5388C0.955193 9.63246 0.825287 9.67928 0.687739 9.67928C0.473776 9.67928 0.305662 9.59968 0.183397 9.44046C0.0611323 9.27188 0 9.05179 0 8.78019V0.238821H1.07746V7.75467Z" fill="white"/>
<path d="M8.7461 0.168579C9.00591 0.168579 9.23134 0.365255 9.42238 0.758608L11.8295 5.64742L14.1907 0.842899C14.313 0.599394 14.4314 0.426132 14.546 0.323111C14.6607 0.22009 14.7982 0.168579 14.9587 0.168579C15.1344 0.168579 15.2758 0.248186 15.3828 0.407401C15.4974 0.557249 15.5547 0.758608 15.5547 1.01148V9.60904H14.5231V2.23368L12.4026 6.56056C12.265 6.84153 12.0702 6.98201 11.818 6.98201C11.6957 6.98201 11.5773 6.93986 11.4627 6.85557C11.348 6.77128 11.2563 6.65421 11.1876 6.50437L9.13582 2.28987V9.60904H8.10421V1.02553C8.10421 0.753926 8.16152 0.543201 8.27615 0.393353C8.39077 0.243504 8.54742 0.168579 8.7461 0.168579Z" fill="white"/>
<path d="M17.8788 9.60904C17.703 9.60904 17.5617 9.54817 17.4547 9.42641C17.3477 9.30466 17.2942 9.12203 17.2942 8.87853V0.238821H22.1084V1.43293H18.3946V4.1583H21.1914V5.36645H18.3946V8.40089H22.3835V9.60904H17.8788Z" fill="white"/>
<path d="M30.4581 9.84786C29.9385 9.84786 29.4495 9.73548 28.991 9.51071C28.5401 9.28593 28.1428 8.97687 27.7989 8.58352C27.455 8.1808 27.1761 7.70784 26.9621 7.16464C26.7482 6.61207 26.6183 6.01268 26.5724 5.36645H24.8645V9.60904H23.7641V0.238821H24.8645V4.1583H26.6068C26.6756 3.5589 26.8208 3.00634 27.0424 2.5006C27.2716 1.98549 27.5582 1.54531 27.902 1.18006C28.2459 0.805436 28.6356 0.515104 29.0712 0.309062C29.5068 0.103021 29.9691 0 30.4581 0C31.0007 0 31.5088 0.126435 31.9826 0.379304C32.4564 0.622808 32.869 0.96465 33.2206 1.40483C33.5721 1.84501 33.8472 2.3648 34.0458 2.96419C34.2522 3.56359 34.3553 4.21449 34.3553 4.91691C34.3553 5.61932 34.2522 6.27491 34.0458 6.88367C33.8472 7.48307 33.5721 8.00285 33.2206 8.44303C32.8767 8.88321 32.4679 9.22974 31.9941 9.48261C31.5203 9.72611 31.0083 9.84786 30.4581 9.84786ZM30.4581 8.58352C30.8479 8.58352 31.2108 8.49454 31.5471 8.3166C31.8833 8.12929 32.1737 7.87642 32.4182 7.55799C32.6627 7.2302 32.8538 6.84153 32.9913 6.39198C33.1365 5.93307 33.2091 5.4367 33.2091 4.90286C33.2091 4.35029 33.1403 3.84924 33.0028 3.39969C32.8652 2.95014 32.6742 2.56616 32.4297 2.24773C32.1851 1.91994 31.8947 1.66707 31.5585 1.48912C31.2223 1.31118 30.8555 1.2222 30.4581 1.2222C30.0608 1.2222 29.694 1.31118 29.3578 1.48912C29.0215 1.66707 28.7311 1.91994 28.4866 2.24773C28.2421 2.56616 28.0511 2.95014 27.9135 3.39969C27.776 3.84924 27.7072 4.35029 27.7072 4.90286C27.7072 5.4367 27.776 5.93307 27.9135 6.39198C28.0587 6.84153 28.2536 7.2302 28.4981 7.55799C28.7426 7.87642 29.033 8.12929 29.3692 8.3166C29.7054 8.49454 30.0684 8.58352 30.4581 8.58352Z" fill="white"/>
<path d="M37.1237 1.41888H34.3842V0.238821H40.9521V1.41888H38.224V9.60904H37.1237V1.41888Z" fill="white"/>
<path d="M47.2882 2.68323C47.0284 2.22431 46.696 1.86842 46.291 1.61556C45.886 1.35332 45.4542 1.2222 44.9958 1.2222C44.5678 1.2222 44.1781 1.31118 43.8266 1.48912C43.4751 1.66707 43.1732 1.91994 42.9211 2.24773C42.6765 2.56616 42.4855 2.95483 42.348 3.41374C42.2104 3.86328 42.1416 4.36902 42.1416 4.93096C42.1416 5.48352 42.2066 5.98458 42.3365 6.43413C42.474 6.87431 42.6651 7.25361 42.9096 7.57204C43.1618 7.89047 43.4598 8.13865 43.8037 8.3166C44.1475 8.48518 44.5334 8.56947 44.9614 8.56947C45.4046 8.56947 45.8096 8.46176 46.1764 8.24636C46.5432 8.03095 46.9176 7.67506 47.2997 7.17869L48.0677 7.96539C47.9301 8.21826 47.7467 8.46176 47.5175 8.6959C47.2882 8.92068 47.0322 9.11735 46.7495 9.28593C46.4667 9.45451 46.1687 9.58563 45.8554 9.67928C45.5498 9.78231 45.2517 9.83382 44.9614 9.83382C44.373 9.83382 43.8342 9.71675 43.3452 9.48261C42.8561 9.24847 42.4358 8.91599 42.0843 8.48518C41.7328 8.05436 41.4615 7.53926 41.2705 6.93986C41.0795 6.34047 40.9839 5.6802 40.9839 4.95905C40.9839 4.24727 41.0833 3.587 41.282 2.97824C41.4806 2.36948 41.7557 1.84969 42.1073 1.41888C42.4664 0.978698 42.8905 0.636856 43.3796 0.393353C43.8686 0.140483 44.4035 0.0140481 44.9843 0.0140481C45.2976 0.0140481 45.6033 0.0608758 45.9013 0.154531C46.2069 0.238821 46.4935 0.360573 46.7609 0.519787C47.0284 0.679001 47.2729 0.875677 47.4945 1.10982C47.7238 1.33459 47.9148 1.58746 48.0677 1.86843L47.2882 2.68323Z" fill="white"/>
<path d="M48.4773 9.60904C48.6148 9.17823 48.7638 8.7521 48.9243 8.33065C49.0848 7.9092 49.2452 7.52053 49.4057 7.16464C49.5662 6.80875 49.7228 6.49032 49.8757 6.20935C50.0361 5.92839 50.1813 5.70361 50.3112 5.53503C49.8374 5.31963 49.4745 4.99651 49.2223 4.5657C48.9778 4.13489 48.8555 3.61041 48.8555 2.99229C48.8555 2.14939 49.0848 1.47975 49.5432 0.983381C50.0094 0.487008 50.6666 0.238821 51.5148 0.238821H53.9562V9.60904H52.8902V5.77385H51.8242C51.5109 5.77385 51.2358 5.98458 50.999 6.40603C50.7697 6.82748 50.5405 7.31449 50.3112 7.86705C50.082 8.41025 49.8604 8.99092 49.6464 9.60904H48.4773ZM52.8902 4.63594V1.40483H51.446C50.9875 1.40483 50.6283 1.55 50.3685 1.84033C50.1087 2.12129 49.9788 2.51933 49.9788 3.03443C49.9788 3.54017 50.1125 3.93353 50.38 4.21449C50.6474 4.49546 51.0104 4.63594 51.4689 4.63594H52.8902Z" fill="white"/>
<path d="M64.1206 0.238821V9.60904H63.0202V1.44698H58.8709V9.60904H57.7705V0.238821H64.1206Z" fill="white"/>
<path d="M65.8747 0.238821H68.2933C68.8129 0.238821 69.2408 0.327794 69.577 0.505739C69.9209 0.683684 70.1922 0.908457 70.3909 1.18006C70.5972 1.45166 70.7385 1.75604 70.815 2.0932C70.899 2.43036 70.9411 2.75815 70.9411 3.07658C70.9411 3.54486 70.8761 3.95694 70.7462 4.31283C70.6163 4.66872 70.4367 4.96842 70.2075 5.21192C69.9782 5.44606 69.7031 5.62401 69.3822 5.74576C69.0689 5.86751 68.725 5.92839 68.3506 5.92839H66.9636V9.60904H65.8747V0.238821ZM68.3391 4.77642C68.8129 4.77642 69.1759 4.63126 69.428 4.34093C69.6878 4.04123 69.8177 3.62915 69.8177 3.10468C69.8177 2.57084 69.684 2.15407 69.4166 1.85438C69.1568 1.54531 68.7976 1.39078 68.3391 1.39078H66.9636V4.77642H68.3391Z" fill="white"/>
<path d="M75.9574 8.58352C76.3777 8.58352 76.7636 8.49454 77.1151 8.3166C77.4666 8.12929 77.7685 7.87642 78.0206 7.55799C78.2728 7.2302 78.4677 6.84153 78.6052 6.39198C78.7504 5.93307 78.823 5.4367 78.823 4.90286C78.823 4.35029 78.7542 3.84924 78.6167 3.39969C78.4791 2.95014 78.2843 2.56616 78.0321 2.24773C77.7799 1.91994 77.4781 1.66707 77.1266 1.48912C76.7751 1.31118 76.3854 1.2222 75.9574 1.2222C75.5295 1.2222 75.1398 1.31118 74.7883 1.48912C74.4368 1.66707 74.1349 1.91994 73.8827 2.24773C73.6306 2.56616 73.4357 2.95014 73.2982 3.39969C73.1606 3.84924 73.0918 4.35029 73.0918 4.90286C73.0918 5.4367 73.1606 5.93307 73.2982 6.39198C73.4434 6.84153 73.642 7.2302 73.8942 7.55799C74.1464 7.87642 74.4482 8.12929 74.7997 8.3166C75.1512 8.49454 75.5371 8.58352 75.9574 8.58352ZM75.9574 9.84786C75.3843 9.84786 74.8494 9.72611 74.3527 9.48261C73.8636 9.22974 73.4395 8.88321 73.0804 8.44303C72.7289 8.00285 72.45 7.48307 72.2436 6.88367C72.045 6.27491 71.9456 5.61932 71.9456 4.91691C71.9456 4.21449 72.0488 3.56359 72.2551 2.96419C72.4614 2.3648 72.7442 1.84501 73.1033 1.40483C73.4625 0.96465 73.8866 0.622808 74.3756 0.379304C74.8647 0.126435 75.392 0 75.9574 0C76.5305 0 77.0616 0.126435 77.5507 0.379304C78.0397 0.622808 78.4639 0.96465 78.823 1.40483C79.1822 1.84501 79.4611 2.3648 79.6598 2.96419C79.8661 3.56359 79.9692 4.21449 79.9692 4.91691C79.9692 5.61932 79.8661 6.27491 79.6598 6.88367C79.4611 7.48307 79.1822 8.00285 78.823 8.44303C78.4715 8.88321 78.0474 9.22974 77.5507 9.48261C77.0616 9.72611 76.5305 9.84786 75.9574 9.84786Z" fill="white"/>
<path d="M82.7378 1.41888H79.9983V0.238821H86.5662V1.41888H83.8382V9.60904H82.7378V1.41888Z" fill="white"/>
<path d="M88.791 7.75467L92.585 0.82885C92.8296 0.38867 93.1047 0.168579 93.4103 0.168579C93.609 0.168579 93.7695 0.248186 93.8917 0.407401C94.014 0.557249 94.0751 0.763291 94.0751 1.02553V9.60904H92.9977V2.0651L89.1234 9.1595C89.0317 9.31871 88.9209 9.44515 88.791 9.5388C88.6687 9.63246 88.5388 9.67928 88.4013 9.67928C88.1873 9.67928 88.0192 9.59968 87.8969 9.44046C87.7747 9.27188 87.7135 9.05179 87.7135 8.78019V0.238821H88.791V7.75467Z" fill="white"/>
<path d="M95.8178 0.238821H98.4082C98.8056 0.238821 99.1495 0.304379 99.4399 0.435497C99.7302 0.557249 99.9709 0.725829 100.162 0.941236C100.353 1.15664 100.494 1.40951 100.586 1.69985C100.685 1.99018 100.735 2.29924 100.735 2.62703C100.735 2.92673 100.693 3.19365 100.609 3.42779C100.525 3.66193 100.422 3.86797 100.3 4.04591C100.177 4.21449 100.04 4.35029 99.8869 4.45331C99.7417 4.55633 99.608 4.62189 99.4857 4.64999C99.6385 4.67809 99.8105 4.73896 100.002 4.83262C100.193 4.91691 100.372 5.04803 100.54 5.22597C100.708 5.40392 100.85 5.63805 100.964 5.92839C101.079 6.20935 101.136 6.56056 101.136 6.98201C101.136 7.48775 101.06 7.9092 100.907 8.24636C100.762 8.57415 100.559 8.84107 100.3 9.04711C100.047 9.25315 99.7455 9.39832 99.394 9.48261C99.0425 9.5669 98.6681 9.60904 98.2707 9.60904H95.8178V0.238821ZM98.2134 8.44303C98.4121 8.44303 98.6184 8.42898 98.8323 8.40089C99.0463 8.37279 99.2412 8.30723 99.4169 8.20421C99.6003 8.10119 99.7493 7.95134 99.864 7.75467C99.9786 7.54862 100.036 7.26766 100.036 6.91177C100.036 6.57461 99.9786 6.30301 99.864 6.09697C99.757 5.89092 99.6156 5.72703 99.4399 5.60527C99.2717 5.48352 99.0845 5.40392 98.8782 5.36645C98.6719 5.31963 98.4732 5.29621 98.2822 5.29621H96.8838V8.44303H98.2134ZM98.2478 4.14425C98.4159 4.14425 98.584 4.12084 98.7521 4.07401C98.9202 4.01782 99.0731 3.93353 99.2106 3.82114C99.3482 3.70875 99.459 3.56359 99.543 3.38564C99.6271 3.2077 99.6691 2.99229 99.6691 2.73942C99.6691 2.45845 99.6271 2.23368 99.543 2.0651C99.459 1.88716 99.3482 1.75136 99.2106 1.6577C99.0731 1.55468 98.9202 1.48912 98.7521 1.46102C98.584 1.42356 98.4159 1.40483 98.2478 1.40483H96.8838V4.14425H98.2478Z" fill="white"/>
<path d="M106.281 8.58352C106.701 8.58352 107.087 8.49454 107.439 8.3166C107.79 8.12929 108.092 7.87642 108.344 7.55799C108.596 7.2302 108.791 6.84153 108.929 6.39198C109.074 5.93307 109.147 5.4367 109.147 4.90286C109.147 4.35029 109.078 3.84924 108.94 3.39969C108.803 2.95014 108.608 2.56616 108.356 2.24773C108.104 1.91994 107.802 1.66707 107.45 1.48912C107.099 1.31118 106.709 1.2222 106.281 1.2222C105.853 1.2222 105.463 1.31118 105.112 1.48912C104.76 1.66707 104.459 1.91994 104.206 2.24773C103.954 2.56616 103.759 2.95014 103.622 3.39969C103.484 3.84924 103.415 4.35029 103.415 4.90286C103.415 5.4367 103.484 5.93307 103.622 6.39198C103.767 6.84153 103.966 7.2302 104.218 7.55799C104.47 7.87642 104.772 8.12929 105.123 8.3166C105.475 8.49454 105.861 8.58352 106.281 8.58352ZM106.281 9.84786C105.708 9.84786 105.173 9.72611 104.676 9.48261C104.187 9.22974 103.763 8.88321 103.404 8.44303C103.053 8.00285 102.774 7.48307 102.567 6.88367C102.369 6.27491 102.269 5.61932 102.269 4.91691C102.269 4.21449 102.372 3.56359 102.579 2.96419C102.785 2.3648 103.068 1.84501 103.427 1.40483C103.786 0.96465 104.21 0.622808 104.699 0.379304C105.188 0.126435 105.716 0 106.281 0C106.854 0 107.385 0.126435 107.874 0.379304C108.363 0.622808 108.787 0.96465 109.147 1.40483C109.506 1.84501 109.785 2.3648 109.983 2.96419C110.19 3.56359 110.293 4.21449 110.293 4.91691C110.293 5.61932 110.19 6.27491 109.983 6.88367C109.785 7.48307 109.506 8.00285 109.147 8.44303C108.795 8.88321 108.371 9.22974 107.874 9.48261C107.385 9.72611 106.854 9.84786 106.281 9.84786Z" fill="white"/>
<path d="M118.074 0.238821V9.60904H116.974V1.44698H112.824V9.60904H111.724V0.238821H118.074Z" fill="white"/>
<path d="M123.531 8.58352C123.951 8.58352 124.337 8.49454 124.688 8.3166C125.04 8.12929 125.342 7.87642 125.594 7.55799C125.846 7.2302 126.041 6.84153 126.178 6.39198C126.323 5.93307 126.396 5.4367 126.396 4.90286C126.396 4.35029 126.327 3.84924 126.19 3.39969C126.052 2.95014 125.857 2.56616 125.605 2.24773C125.353 1.91994 125.051 1.66707 124.7 1.48912C124.348 1.31118 123.958 1.2222 123.531 1.2222C123.103 1.2222 122.713 1.31118 122.361 1.48912C122.01 1.66707 121.708 1.91994 121.456 2.24773C121.204 2.56616 121.009 2.95014 120.871 3.39969C120.734 3.84924 120.665 4.35029 120.665 4.90286C120.665 5.4367 120.734 5.93307 120.871 6.39198C121.016 6.84153 121.215 7.2302 121.467 7.55799C121.719 7.87642 122.021 8.12929 122.373 8.3166C122.724 8.49454 123.11 8.58352 123.531 8.58352ZM123.531 9.84786C122.957 9.84786 122.422 9.72611 121.926 9.48261C121.437 9.22974 121.013 8.88321 120.653 8.44303C120.302 8.00285 120.023 7.48307 119.817 6.88367C119.618 6.27491 119.519 5.61932 119.519 4.91691C119.519 4.21449 119.622 3.56359 119.828 2.96419C120.034 2.3648 120.317 1.84501 120.676 1.40483C121.036 0.96465 121.46 0.622808 121.949 0.379304C122.438 0.126435 122.965 0 123.531 0C124.104 0 124.635 0.126435 125.124 0.379304C125.613 0.622808 126.037 0.96465 126.396 1.40483C126.755 1.84501 127.034 2.3648 127.233 2.96419C127.439 3.56359 127.542 4.21449 127.542 4.91691C127.542 5.61932 127.439 6.27491 127.233 6.88367C127.034 7.48307 126.755 8.00285 126.396 8.44303C126.045 8.88321 125.62 9.22974 125.124 9.48261C124.635 9.72611 124.104 9.84786 123.531 9.84786Z" fill="white"/>
<path d="M133.306 3.2873C133.107 3.70875 132.924 4.03186 132.756 4.25664C132.595 4.47204 132.404 4.63126 132.183 4.73428C132.595 5.07144 133.023 5.63805 133.467 6.43413C133.91 7.2302 134.387 8.2885 134.899 9.60904H133.707C133.539 9.19696 133.398 8.8598 133.283 8.59756C133.169 8.32596 133.062 8.08714 132.962 7.8811C132.863 7.66569 132.76 7.45497 132.653 7.24893C132.546 7.04288 132.412 6.79938 132.252 6.51841C132.007 6.0876 131.778 5.7879 131.564 5.61932C131.358 5.45074 131.117 5.36645 130.842 5.36645H130.074V9.60904H128.973V0.238821H130.074V4.1583H130.979C131.262 4.1583 131.495 4.08806 131.678 3.94757C131.862 3.80709 132.03 3.57295 132.183 3.24516L133.547 0.238821H134.75L133.306 3.2873Z" fill="white"/>
<path d="M140.638 6.99606H137.498L136.718 9.60904H135.56L138.346 0.885043C138.499 0.4074 138.762 0.168579 139.137 0.168579C139.481 0.168579 139.733 0.416766 139.893 0.91314L142.667 9.60904H141.441L140.638 6.99606ZM139.079 1.64365L137.83 5.85814H140.306L139.079 1.64365Z" fill="white"/>
<path d="M144.84 4.17235H145.94C146.131 4.17235 146.311 4.14425 146.479 4.08806C146.647 4.03186 146.796 3.94289 146.926 3.82114C147.056 3.69939 147.159 3.54486 147.235 3.35755C147.312 3.17023 147.35 2.94546 147.35 2.68323C147.35 2.41163 147.308 2.18217 147.224 1.99486C147.148 1.80755 147.041 1.6577 146.903 1.54531C146.773 1.42356 146.624 1.33927 146.456 1.29244C146.288 1.23625 146.116 1.20815 145.94 1.20815C145.696 1.20815 145.478 1.2503 145.287 1.33459C145.096 1.41888 144.928 1.52658 144.783 1.6577C144.645 1.78882 144.523 1.9293 144.416 2.07915C144.309 2.229 144.217 2.3648 144.141 2.48655L143.373 1.78413C143.472 1.59682 143.594 1.40015 143.739 1.19411C143.892 0.988064 144.076 0.79607 144.29 0.618125C144.511 0.44018 144.763 0.295014 145.046 0.182628C145.337 0.0702415 145.665 0.0140481 146.032 0.0140481C146.422 0.0140481 146.765 0.0842896 147.064 0.224773C147.369 0.35589 147.621 0.533835 147.82 0.758608C148.026 0.983381 148.179 1.2503 148.279 1.55936C148.386 1.85906 148.439 2.17749 148.439 2.51465C148.439 3.03912 148.321 3.50739 148.084 3.91948C147.854 4.3222 147.533 4.58443 147.121 4.70618C147.327 4.76238 147.522 4.85603 147.705 4.98715C147.896 5.1089 148.061 5.26812 148.198 5.46479C148.343 5.66147 148.458 5.89561 148.542 6.16721C148.626 6.43881 148.668 6.75255 148.668 7.10844C148.668 7.57672 148.596 7.98412 148.45 8.33065C148.313 8.66781 148.122 8.94877 147.877 9.17355C147.633 9.39832 147.35 9.56222 147.029 9.66524C146.708 9.77762 146.364 9.83382 145.998 9.83382C145.593 9.83382 145.233 9.77294 144.92 9.65119C144.607 9.52944 144.332 9.37959 144.095 9.20164C143.866 9.0237 143.671 8.8317 143.51 8.62566C143.357 8.41962 143.235 8.23231 143.143 8.06373L143.934 7.34727C144.003 7.45965 144.091 7.59077 144.198 7.74062C144.305 7.89047 144.439 8.03095 144.599 8.16207C144.76 8.29318 144.951 8.40557 145.172 8.49923C145.394 8.59288 145.65 8.63971 145.94 8.63971C146.154 8.63971 146.357 8.61161 146.548 8.55542C146.746 8.48986 146.918 8.39152 147.064 8.26041C147.216 8.12929 147.335 7.95602 147.419 7.74062C147.511 7.51584 147.556 7.24893 147.556 6.93986C147.556 6.6308 147.511 6.37325 147.419 6.16721C147.335 5.96117 147.22 5.79727 147.075 5.67552C146.937 5.55376 146.777 5.46947 146.594 5.42265C146.41 5.36645 146.223 5.33836 146.032 5.33836H144.84V4.17235Z" fill="white"/>
<path d="M154.171 6.99606H151.031L150.251 9.60904H149.094L151.879 0.885043C152.032 0.4074 152.295 0.168579 152.67 0.168579C153.014 0.168579 153.266 0.416766 153.426 0.91314L156.2 9.60904H154.974L154.171 6.99606ZM152.613 1.64365L151.363 5.85814H153.839L152.613 1.64365Z" fill="white"/>
<path d="M157.204 0.238821H158.304V4.1583H162.488V0.238821H163.588V9.60904H162.488V5.36645H158.304V9.60904H157.204V0.238821Z" fill="white"/>
<path d="M166.408 7.75467L170.202 0.82885C170.446 0.38867 170.722 0.168579 171.027 0.168579C171.226 0.168579 171.386 0.248186 171.509 0.407401C171.631 0.557249 171.692 0.763291 171.692 1.02553V9.60904H170.615V2.0651L166.74 9.1595C166.649 9.31871 166.538 9.44515 166.408 9.5388C166.286 9.63246 166.156 9.67928 166.018 9.67928C165.804 9.67928 165.636 9.59968 165.514 9.44046C165.392 9.27188 165.33 9.05179 165.33 8.78019V0.238821H166.408V7.75467Z" fill="white"/>
<path d="M172.85 9.60904C172.988 9.17823 173.137 8.7521 173.297 8.33065C173.458 7.9092 173.618 7.52053 173.778 7.16464C173.939 6.80875 174.096 6.49032 174.248 6.20935C174.409 5.92839 174.554 5.70361 174.684 5.53503C174.21 5.31963 173.847 4.99651 173.595 4.5657C173.351 4.13489 173.228 3.61041 173.228 2.99229C173.228 2.14939 173.458 1.47975 173.916 0.983381C174.382 0.487008 175.039 0.238821 175.888 0.238821H178.329V9.60904H177.263V5.77385H176.197C175.884 5.77385 175.609 5.98458 175.372 6.40603C175.143 6.82748 174.913 7.31449 174.684 7.86705C174.455 8.41025 174.233 8.99092 174.019 9.60904H172.85ZM177.263 4.63594V1.40483H175.819C175.36 1.40483 175.001 1.55 174.741 1.84033C174.482 2.12129 174.352 2.51933 174.352 3.03443C174.352 3.54017 174.485 3.93353 174.753 4.21449C175.02 4.49546 175.383 4.63594 175.842 4.63594H177.263Z" fill="white"/>
<path d="M180.657 9.66524C180.458 9.66524 180.29 9.58563 180.153 9.42641C180.023 9.25783 179.958 9.05179 179.958 8.80829C179.958 8.56479 180.023 8.36343 180.153 8.20421C180.29 8.03563 180.458 7.95134 180.657 7.95134C180.856 7.95134 181.02 8.03563 181.15 8.20421C181.287 8.36343 181.356 8.56479 181.356 8.80829C181.356 9.05179 181.287 9.25783 181.15 9.42641C181.02 9.58563 180.856 9.66524 180.657 9.66524Z" fill="white"/>
<path d="M191.437 0.238821V9.60904H190.337V1.44698H186.188V9.60904H185.087V0.238821H191.437Z" fill="white"/>
<path d="M193.776 9.60904C193.6 9.60904 193.459 9.54817 193.352 9.42641C193.245 9.30466 193.191 9.12203 193.191 8.87853V0.238821H198.006V1.43293H194.292V4.1583H197.089V5.36645H194.292V8.40089H198.281V9.60904H193.776Z" fill="white"/>
<path d="M199.661 0.238821H202.08C202.6 0.238821 203.027 0.327794 203.364 0.505739C203.708 0.683684 203.979 0.908457 204.178 1.18006C204.384 1.45166 204.525 1.75604 204.602 2.0932C204.686 2.43036 204.728 2.75815 204.728 3.07658C204.728 3.54486 204.663 3.95694 204.533 4.31283C204.403 4.66872 204.223 4.96842 203.994 5.21192C203.765 5.44606 203.49 5.62401 203.169 5.74576C202.856 5.86751 202.512 5.92839 202.137 5.92839H200.75V9.60904H199.661V0.238821ZM202.126 4.77642C202.6 4.77642 202.963 4.63126 203.215 4.34093C203.475 4.04123 203.604 3.62915 203.604 3.10468C203.604 2.57084 203.471 2.15407 203.203 1.85438C202.943 1.54531 202.584 1.39078 202.126 1.39078H200.75V4.77642H202.126Z" fill="white"/>
<path d="M206.738 9.60904C206.563 9.60904 206.421 9.54817 206.314 9.42641C206.207 9.30466 206.154 9.12203 206.154 8.87853V0.238821H210.968V1.43293H207.254V4.1583H210.051V5.36645H207.254V8.40089H211.243V9.60904H206.738Z" fill="white"/>
<path d="M218.292 1.44698H215.667C215.606 2.31797 215.53 3.09531 215.438 3.77899C215.346 4.46268 215.232 5.0808 215.094 5.63337C214.964 6.17657 214.808 6.67295 214.624 7.12249C214.448 7.57204 214.25 7.99817 214.028 8.40089H218.292V1.44698ZM214.681 0.885043C214.697 0.688367 214.75 0.533836 214.842 0.421449C214.934 0.299697 215.067 0.238821 215.243 0.238821H219.358V8.40089H220V11.7725H219.003V9.60904H213.214V11.7725H212.217V8.40089H212.813C213.104 7.94198 213.352 7.45965 213.558 6.95391C213.765 6.44817 213.94 5.89561 214.085 5.29621C214.238 4.69682 214.361 4.03655 214.452 3.3154C214.544 2.59425 214.62 1.78413 214.681 0.885043Z" fill="white"/>
<path d="M8.45784 14.3526V23.7228H6.99222V15.5607H1.46562V23.7228H0V14.3526H8.45784Z" fill="white"/>
<path d="M10.7941 14.3526H14.0154C14.7075 14.3526 15.2775 14.4416 15.7253 14.6195C16.1833 14.7975 16.5447 15.0222 16.8093 15.2938C17.0841 15.5654 17.2724 15.8698 17.3742 16.207C17.4861 16.5441 17.5421 16.8719 17.5421 17.1903C17.5421 17.6586 17.4556 18.0707 17.2826 18.4266C17.1095 18.7825 16.8703 19.0822 16.565 19.3257C16.2597 19.5598 15.8933 19.7378 15.4658 19.8595C15.0485 19.9813 14.5905 20.0422 14.0918 20.0422H12.2445V23.7228H10.7941V14.3526ZM14.0765 18.8902C14.7075 18.8902 15.191 18.745 15.5269 18.4547C15.8729 18.155 16.0459 17.7429 16.0459 17.2184C16.0459 16.6846 15.8678 16.2678 15.5116 15.9681C15.1656 15.6591 14.6872 15.5046 14.0765 15.5046H12.2445V18.8902H14.0765Z" fill="white"/>
<path d="M20.8765 21.8684L25.9298 14.9426C26.2555 14.5024 26.6219 14.2823 27.029 14.2823C27.2936 14.2823 27.5074 14.362 27.6702 14.5212C27.8331 14.671 27.9145 14.8771 27.9145 15.1393V23.7228H26.4794V16.1789L21.3192 23.2733C21.1971 23.4325 21.0495 23.5589 20.8765 23.6526C20.7136 23.7462 20.5406 23.7931 20.3574 23.7931C20.0724 23.7931 19.8485 23.7134 19.6857 23.5542C19.5228 23.3857 19.4414 23.1656 19.4414 22.894V14.3526H20.8765V21.8684Z" fill="white"/>
<path d="M31.0905 14.2823C31.4365 14.2823 31.7368 14.479 31.9912 14.8724L35.1972 19.7612L38.3422 14.9567C38.5051 14.7132 38.6628 14.5399 38.8155 14.4369C38.9682 14.3339 39.1514 14.2823 39.3651 14.2823C39.5992 14.2823 39.7875 14.362 39.93 14.5212C40.0826 14.671 40.159 14.8724 40.159 15.1252V23.7228H38.785V16.3475L35.9606 20.6743C35.7774 20.9553 35.5179 21.0958 35.182 21.0958C35.0191 21.0958 34.8614 21.0536 34.7087 20.9693C34.556 20.8851 34.4339 20.768 34.3423 20.6181L31.6095 16.4036V23.7228H30.2355V15.1393C30.2355 14.8677 30.3119 14.657 30.4645 14.5071C30.6172 14.3573 30.8258 14.2823 31.0905 14.2823Z" fill="white"/>
<path d="M43.2544 23.7228C43.0204 23.7228 42.8321 23.6619 42.6896 23.5402C42.5471 23.4184 42.4758 23.2358 42.4758 22.9923V14.3526H48.8879V15.5467H43.9415V18.2721H47.6666V19.4802H43.9415V22.5147H49.2543V23.7228H43.2544Z" fill="white"/>
<path d="M51.0933 14.3526H52.5589V18.2721H58.1313V14.3526H59.5969V23.7228H58.1313V19.4802H52.5589V23.7228H51.0933V14.3526Z" fill="white"/>
<path d="M62.6958 23.7228C62.4617 23.7228 62.2734 23.6619 62.131 23.5402C61.9885 23.4184 61.9172 23.2358 61.9172 22.9923V14.3526H68.3293V15.5467H63.3828V18.2721H67.108V19.4802H63.3828V22.5147H68.6957V23.7228H62.6958Z" fill="white"/>
<path d="M70.5346 14.3526H72.0003V18.2721H77.5727V14.3526H79.0383V23.7228H77.5727V19.4802H72.0003V23.7228H70.5346V14.3526Z" fill="white"/>
<path d="M82.7937 21.8684L87.847 14.9426C88.1727 14.5024 88.5391 14.2823 88.9462 14.2823C89.2109 14.2823 89.4246 14.362 89.5874 14.5212C89.7503 14.671 89.8317 14.8771 89.8317 15.1393V23.7228H88.3966V16.1789L83.2364 23.2733C83.1143 23.4325 82.9667 23.5589 82.7937 23.6526C82.6308 23.7462 82.4578 23.7931 82.2746 23.7931C81.9896 23.7931 81.7657 23.7134 81.6029 23.5542C81.44 23.3857 81.3586 23.1656 81.3586 22.894V14.3526H82.7937V21.8684Z" fill="white"/>
<path d="M92.9314 23.7228C92.6973 23.7228 92.509 23.6619 92.3665 23.5402C92.224 23.4184 92.1527 23.2358 92.1527 22.9923V14.3526H98.5648V15.5467H93.6184V18.2721H97.3435V19.4802H93.6184V22.5147H98.9312V23.7228H92.9314Z" fill="white"/>
<path d="M101.625 14.2823C101.971 14.2823 102.271 14.479 102.526 14.8724L105.732 19.7612L108.877 14.9567C109.04 14.7132 109.197 14.5399 109.35 14.4369C109.503 14.3339 109.686 14.2823 109.9 14.2823C110.134 14.2823 110.322 14.362 110.465 14.5212C110.617 14.671 110.694 14.8724 110.694 15.1252V23.7228H109.32V16.3475L106.495 20.6743C106.312 20.9553 106.052 21.0958 105.717 21.0958C105.554 21.0958 105.396 21.0536 105.243 20.9693C105.091 20.8851 104.969 20.768 104.877 20.6181L102.144 16.4036V23.7228H100.77V15.1393C100.77 14.8677 100.847 14.657 100.999 14.5071C101.152 14.3573 101.36 14.2823 101.625 14.2823Z" fill="white"/>
<path d="M115.769 14.3526H117.234V18.2721H122.807V14.3526H124.272V23.7228H122.807V19.4802H117.234V23.7228H115.769V14.3526Z" fill="white"/>
<path d="M127.371 23.7228C127.137 23.7228 126.949 23.6619 126.806 23.5402C126.664 23.4184 126.593 23.2358 126.593 22.9923V14.3526H133.005V15.5467H128.058V18.2721H131.783V19.4802H128.058V22.5147H133.371V23.7228H127.371Z" fill="white"/>
<path d="M139.53 22.6973C140.09 22.6973 140.604 22.6083 141.072 22.4304C141.54 22.2431 141.942 21.9902 142.278 21.6718C142.614 21.344 142.873 20.9553 143.057 20.5057C143.25 20.0468 143.347 19.5505 143.347 19.0166C143.347 18.4641 143.255 17.963 143.072 17.5135C142.889 17.0639 142.629 16.6799 142.293 16.3615C141.957 16.0337 141.555 15.7808 141.087 15.6029C140.619 15.4249 140.1 15.336 139.53 15.336C138.96 15.336 138.441 15.4249 137.973 15.6029C137.505 15.7808 137.103 16.0337 136.767 16.3615C136.431 16.6799 136.171 17.0639 135.988 17.5135C135.805 17.963 135.713 18.4641 135.713 19.0166C135.713 19.5505 135.805 20.0468 135.988 20.5057C136.181 20.9553 136.446 21.344 136.782 21.6718C137.118 21.9902 137.52 22.2431 137.988 22.4304C138.456 22.6083 138.97 22.6973 139.53 22.6973ZM139.53 23.9616C138.767 23.9616 138.054 23.8399 137.393 23.5964C136.741 23.3435 136.176 22.997 135.698 22.5568C135.23 22.1166 134.858 21.5968 134.584 20.9974C134.319 20.3887 134.187 19.7331 134.187 19.0307C134.187 18.3283 134.324 17.6774 134.599 17.078C134.874 16.4786 135.25 15.9588 135.729 15.5186C136.207 15.0784 136.772 14.7366 137.423 14.4931C138.075 14.2402 138.777 14.1138 139.53 14.1138C140.293 14.1138 141.001 14.2402 141.652 14.4931C142.303 14.7366 142.868 15.0784 143.347 15.5186C143.825 15.9588 144.197 16.4786 144.461 17.078C144.736 17.6774 144.873 18.3283 144.873 19.0307C144.873 19.7331 144.736 20.3887 144.461 20.9974C144.197 21.5968 143.825 22.1166 143.347 22.5568C142.878 22.997 142.314 23.3435 141.652 23.5964C141.001 23.8399 140.293 23.9616 139.53 23.9616Z" fill="white"/>
<path d="M152.947 14.3526V15.5186H148.245V18.0052H150.23C151.39 18.0052 152.286 18.258 152.917 18.7638C153.548 19.2601 153.863 19.9485 153.863 20.8289C153.863 21.1941 153.797 21.5547 153.665 21.9106C153.532 22.2571 153.319 22.5662 153.024 22.8378C152.739 23.1 152.357 23.3154 151.879 23.484C151.41 23.6432 150.835 23.7228 150.153 23.7228H146.779V14.3526H152.947ZM148.245 22.5709H150.199C150.871 22.5709 151.395 22.4304 151.772 22.1494C152.158 21.8684 152.352 21.4423 152.352 20.871C152.352 20.3091 152.158 19.8829 151.772 19.5926C151.395 19.3023 150.871 19.1571 150.199 19.1571H148.245V22.5709Z" fill="white"/>
<path d="M158.291 18.8761L154.932 14.3526H156.703L159.176 17.7663L161.619 14.3526H163.222L159.955 18.834L163.573 23.7228H161.817L159.085 19.9438L156.352 23.7228H154.734L158.291 18.8761Z" fill="white"/>
<path d="M169.199 22.6973C169.759 22.6973 170.273 22.6083 170.741 22.4304C171.209 22.2431 171.611 21.9902 171.947 21.6718C172.283 21.344 172.542 20.9553 172.726 20.5057C172.919 20.0468 173.016 19.5505 173.016 19.0166C173.016 18.4641 172.924 17.963 172.741 17.5135C172.558 17.0639 172.298 16.6799 171.962 16.3615C171.626 16.0337 171.224 15.7808 170.756 15.6029C170.288 15.4249 169.769 15.336 169.199 15.336C168.629 15.336 168.11 15.4249 167.642 15.6029C167.174 15.7808 166.772 16.0337 166.436 16.3615C166.1 16.6799 165.84 17.0639 165.657 17.5135C165.474 17.963 165.382 18.4641 165.382 19.0166C165.382 19.5505 165.474 20.0468 165.657 20.5057C165.85 20.9553 166.115 21.344 166.451 21.6718C166.787 21.9902 167.189 22.2431 167.657 22.4304C168.125 22.6083 168.639 22.6973 169.199 22.6973ZM169.199 23.9616C168.436 23.9616 167.723 23.8399 167.062 23.5964C166.41 23.3435 165.845 22.997 165.367 22.5568C164.899 22.1166 164.527 21.5968 164.252 20.9974C163.988 20.3887 163.856 19.7331 163.856 19.0307C163.856 18.3283 163.993 17.6774 164.268 17.078C164.543 16.4786 164.919 15.9588 165.397 15.5186C165.876 15.0784 166.441 14.7366 167.092 14.4931C167.744 14.2402 168.446 14.1138 169.199 14.1138C169.962 14.1138 170.67 14.2402 171.321 14.4931C171.972 14.7366 172.537 15.0784 173.016 15.5186C173.494 15.9588 173.866 16.4786 174.13 17.078C174.405 17.6774 174.542 18.3283 174.542 19.0307C174.542 19.7331 174.405 20.3887 174.13 20.9974C173.866 21.5968 173.494 22.1166 173.016 22.5568C172.547 22.997 171.983 23.3435 171.321 23.5964C170.67 23.8399 169.962 23.9616 169.199 23.9616Z" fill="white"/>
<path d="M182.701 15.5607H179.205C179.124 16.4317 179.022 17.2091 178.9 17.8928C178.778 18.5764 178.625 19.1946 178.442 19.7471C178.269 20.2903 178.06 20.7867 177.816 21.2363C177.582 21.6858 177.317 22.1119 177.022 22.5147H182.701V15.5607ZM177.892 14.9988C177.913 14.8021 177.984 14.6476 178.106 14.5352C178.228 14.4135 178.406 14.3526 178.64 14.3526H184.121V22.5147H184.976V25.8863H183.648V23.7228H175.938V25.8863H174.61V22.5147H175.404C175.79 22.0557 176.121 21.5734 176.396 21.0677C176.671 20.5619 176.905 20.0094 177.098 19.41C177.302 18.8106 177.465 18.1503 177.587 17.4292C177.709 16.708 177.811 15.8979 177.892 14.9988Z" fill="white"/>
<path d="M188.126 21.8684L193.179 14.9426C193.505 14.5024 193.871 14.2823 194.279 14.2823C194.543 14.2823 194.757 14.362 194.92 14.5212C195.083 14.671 195.164 14.8771 195.164 15.1393V23.7228H193.729V16.1789L188.569 23.2733C188.447 23.4325 188.299 23.5589 188.126 23.6526C187.963 23.7462 187.79 23.7931 187.607 23.7931C187.322 23.7931 187.098 23.7134 186.935 23.5542C186.772 23.3857 186.691 23.1656 186.691 22.894V14.3526H188.126V21.8684Z" fill="white"/>
<path d="M198.34 14.2823C198.686 14.2823 198.986 14.479 199.241 14.8724L202.447 19.7612L205.592 14.9567C205.755 14.7132 205.912 14.5399 206.065 14.4369C206.218 14.3339 206.401 14.2823 206.615 14.2823C206.849 14.2823 207.037 14.362 207.18 14.5212C207.332 14.671 207.409 14.8724 207.409 15.1252V23.7228H206.035V16.3475L203.21 20.6743C203.027 20.9553 202.767 21.0958 202.432 21.0958C202.269 21.0958 202.111 21.0536 201.958 20.9693C201.806 20.8851 201.683 20.768 201.592 20.6181L198.859 16.4036V23.7228H197.485V15.1393C197.485 14.8677 197.561 14.657 197.714 14.5071C197.867 14.3573 198.075 14.2823 198.34 14.2823Z" fill="white"/>
<path d="M214.657 22.6973C215.216 22.6973 215.73 22.6083 216.199 22.4304C216.667 22.2431 217.069 21.9902 217.405 21.6718C217.74 21.344 218 20.9553 218.183 20.5057C218.377 20.0468 218.473 19.5505 218.473 19.0166C218.473 18.4641 218.382 17.963 218.199 17.5135C218.015 17.0639 217.756 16.6799 217.42 16.3615C217.084 16.0337 216.682 15.7808 216.214 15.6029C215.746 15.4249 215.227 15.336 214.657 15.336C214.087 15.336 213.568 15.4249 213.099 15.6029C212.631 15.7808 212.229 16.0337 211.893 16.3615C211.557 16.6799 211.298 17.0639 211.115 17.5135C210.931 17.963 210.84 18.4641 210.84 19.0166C210.84 19.5505 210.931 20.0468 211.115 20.5057C211.308 20.9553 211.573 21.344 211.909 21.6718C212.244 21.9902 212.646 22.2431 213.115 22.4304C213.583 22.6083 214.097 22.6973 214.657 22.6973ZM214.657 23.9616C213.893 23.9616 213.181 23.8399 212.519 23.5964C211.868 23.3435 211.303 22.997 210.825 22.5568C210.356 22.1166 209.985 21.5968 209.71 20.9974C209.446 20.3887 209.313 19.7331 209.313 19.0307C209.313 18.3283 209.451 17.6774 209.725 17.078C210 16.4786 210.377 15.9588 210.855 15.5186C211.334 15.0784 211.898 14.7366 212.55 14.4931C213.201 14.2402 213.903 14.1138 214.657 14.1138C215.42 14.1138 216.127 14.2402 216.779 14.4931C217.43 14.7366 217.995 15.0784 218.473 15.5186C218.952 15.9588 219.323 16.4786 219.588 17.078C219.863 17.6774 220 18.3283 220 19.0307C220 19.7331 219.863 20.3887 219.588 20.9974C219.323 21.5968 218.952 22.1166 218.473 22.5568C218.005 22.997 217.44 23.3435 216.779 23.5964C216.127 23.8399 215.42 23.9616 214.657 23.9616Z" fill="white"/>
<path d="M5.38543 28.4664V37.8366H4.45221V29.6745H0.933215V37.8366H0V28.4664H5.38543Z" fill="white"/>
<path d="M6.87304 28.4664H8.92417C9.36486 28.4664 9.72777 28.5553 10.0129 28.7333C10.3046 28.9112 10.5346 29.136 10.7031 29.4076C10.8781 29.6792 10.998 29.9836 11.0628 30.3207C11.1341 30.6579 11.1697 30.9857 11.1697 31.3041C11.1697 31.7724 11.1146 32.1845 11.0045 32.5404C10.8943 32.8963 10.742 33.196 10.5476 33.4395C10.3532 33.6736 10.1199 33.8515 9.84766 33.9733C9.58196 34.095 9.29033 34.1559 8.97278 34.1559H7.79654V37.8366H6.87304V28.4664ZM8.96305 33.004C9.36486 33.004 9.67269 32.8588 9.88655 32.5685C10.1069 32.2688 10.2171 31.8567 10.2171 31.3322C10.2171 30.7984 10.1037 30.3816 9.87683 30.0819C9.65649 29.7729 9.35189 29.6183 8.96305 29.6183H7.79654V33.004H8.96305Z" fill="white"/>
<path d="M15.424 36.8111C15.7805 36.8111 16.1077 36.7221 16.4058 36.5441C16.7039 36.3568 16.9599 36.104 17.1738 35.7855C17.3877 35.4577 17.5529 35.0691 17.6696 34.6195C17.7927 34.1606 17.8543 33.6642 17.8543 33.1304C17.8543 32.5778 17.7959 32.0768 17.6793 31.6272C17.5626 31.1777 17.3974 30.7937 17.1835 30.4753C16.9697 30.1475 16.7137 29.8946 16.4156 29.7167C16.1174 29.5387 15.7869 29.4497 15.424 29.4497C15.0611 29.4497 14.7306 29.5387 14.4325 29.7167C14.1344 29.8946 13.8784 30.1475 13.6645 30.4753C13.4507 30.7937 13.2854 31.1777 13.1687 31.6272C13.0521 32.0768 12.9938 32.5778 12.9938 33.1304C12.9938 33.6642 13.0521 34.1606 13.1687 34.6195C13.2919 35.0691 13.4604 35.4577 13.6742 35.7855C13.8881 36.104 14.1441 36.3568 14.4422 36.5441C14.7403 36.7221 15.0676 36.8111 15.424 36.8111ZM15.424 38.0754C14.938 38.0754 14.4843 37.9537 14.0631 37.7101C13.6483 37.4573 13.2886 37.1108 12.9841 36.6706C12.6859 36.2304 12.4494 35.7106 12.2744 35.1112C12.1059 34.5025 12.0217 33.8469 12.0217 33.1444C12.0217 32.442 12.1092 31.7911 12.2841 31.1917C12.4591 30.5923 12.6989 30.0726 13.0035 29.6324C13.3081 29.1922 13.6678 28.8503 14.0825 28.6068C14.4973 28.354 14.9444 28.2275 15.424 28.2275C15.9101 28.2275 16.3605 28.354 16.7752 28.6068C17.19 28.8503 17.5497 29.1922 17.8543 29.6324C18.1589 30.0726 18.3954 30.5923 18.5639 31.1917C18.7389 31.7911 18.8264 32.442 18.8264 33.1444C18.8264 33.8469 18.7389 34.5025 18.5639 35.1112C18.3954 35.7106 18.1589 36.2304 17.8543 36.6706C17.5562 37.1108 17.1965 37.4573 16.7752 37.7101C16.3605 37.9537 15.9101 38.0754 15.424 38.0754Z" fill="white"/>
<path d="M23.7146 31.5148C23.5461 31.9363 23.3905 32.2594 23.248 32.4842C23.1119 32.6996 22.9499 32.8588 22.7619 32.9618C23.1119 33.299 23.4748 33.8656 23.8507 34.6617C24.2265 35.4577 24.6316 36.516 25.0658 37.8366H24.0548C23.9122 37.4245 23.7923 37.0873 23.6951 36.8251C23.5979 36.5535 23.5072 36.3147 23.4229 36.1086C23.3387 35.8932 23.2512 35.6825 23.1605 35.4765C23.0698 35.2704 22.9563 35.0269 22.8202 34.746C22.6129 34.3151 22.4184 34.0154 22.237 33.8469C22.062 33.6783 21.8579 33.594 21.6246 33.594H20.9733V37.8366H20.04V28.4664H20.9733V32.3858H21.7412C21.981 32.3858 22.1787 32.3156 22.3342 32.1751C22.4897 32.0346 22.6323 31.8005 22.7619 31.4727L23.9187 28.4664H24.9394L23.7146 31.5148Z" fill="white"/>
<path d="M28.6575 36.8111C29.0139 36.8111 29.3412 36.7221 29.6393 36.5441C29.9374 36.3568 30.1934 36.104 30.4072 35.7855C30.6211 35.4577 30.7864 35.0691 30.903 34.6195C31.0262 34.1606 31.0877 33.6642 31.0877 33.1304C31.0877 32.5778 31.0294 32.0768 30.9127 31.6272C30.7961 31.1777 30.6308 30.7937 30.417 30.4753C30.2031 30.1475 29.9471 29.8946 29.649 29.7167C29.3509 29.5387 29.0204 29.4497 28.6575 29.4497C28.2946 29.4497 27.964 29.5387 27.6659 29.7167C27.3678 29.8946 27.1118 30.1475 26.898 30.4753C26.6841 30.7937 26.5189 31.1777 26.4022 31.6272C26.2856 32.0768 26.2272 32.5778 26.2272 33.1304C26.2272 33.6642 26.2856 34.1606 26.4022 34.6195C26.5253 35.0691 26.6938 35.4577 26.9077 35.7855C27.1216 36.104 27.3775 36.3568 27.6757 36.5441C27.9738 36.7221 28.301 36.8111 28.6575 36.8111ZM28.6575 38.0754C28.1714 38.0754 27.7178 37.9537 27.2965 37.7101C26.8818 37.4573 26.5221 37.1108 26.2175 36.6706C25.9194 36.2304 25.6829 35.7106 25.5079 35.1112C25.3394 34.5025 25.2551 33.8469 25.2551 33.1444C25.2551 32.442 25.3426 31.7911 25.5176 31.1917C25.6926 30.5923 25.9324 30.0726 26.2369 29.6324C26.5415 29.1922 26.9012 28.8503 27.316 28.6068C27.7307 28.354 28.1779 28.2275 28.6575 28.2275C29.1435 28.2275 29.5939 28.354 30.0087 28.6068C30.4235 28.8503 30.7831 29.1922 31.0877 29.6324C31.3923 30.0726 31.6289 30.5923 31.7974 31.1917C31.9723 31.7911 32.0598 32.442 32.0598 33.1444C32.0598 33.8469 31.9723 34.5025 31.7974 35.1112C31.6289 35.7106 31.3923 36.2304 31.0877 36.6706C30.7896 37.1108 30.4299 37.4573 30.0087 37.7101C29.5939 37.9537 29.1435 38.0754 28.6575 38.0754Z" fill="white"/>
<path d="M33.2735 28.4664H34.2067V32.3858H37.7549V28.4664H38.6881V37.8366H37.7549V33.594H34.2067V37.8366H33.2735V28.4664Z" fill="white"/>
<path d="M45.2496 30.9108C45.0293 30.4519 44.7474 30.096 44.4039 29.8431C44.0604 29.5809 43.6942 29.4497 43.3054 29.4497C42.9425 29.4497 42.612 29.5387 42.3139 29.7167C42.0158 29.8946 41.7598 30.1475 41.5459 30.4753C41.3385 30.7937 41.1765 31.1824 41.0599 31.6413C40.9432 32.0908 40.8849 32.5966 40.8849 33.1585C40.8849 33.7111 40.94 34.2121 41.0501 34.6617C41.1668 35.1018 41.3288 35.4811 41.5362 35.7996C41.75 36.118 42.0028 36.3662 42.2944 36.5441C42.5861 36.7127 42.9133 36.797 43.2762 36.797C43.6521 36.797 43.9956 36.6893 44.3067 36.4739C44.6177 36.2585 44.9353 35.9026 45.2593 35.4062L45.9106 36.1929C45.794 36.4458 45.6384 36.6893 45.444 36.9234C45.2496 37.1482 45.0325 37.3449 44.7927 37.5135C44.5529 37.6821 44.3002 37.8132 44.0345 37.9068C43.7753 38.0098 43.5225 38.0614 43.2762 38.0614C42.7772 38.0614 42.3203 37.9443 41.9056 37.7101C41.4908 37.476 41.1344 37.1435 40.8363 36.7127C40.5382 36.2819 40.3081 35.7668 40.1461 35.1674C39.9841 34.568 39.9031 33.9077 39.9031 33.1866C39.9031 32.4748 39.9873 31.8145 40.1558 31.2058C40.3243 30.597 40.5576 30.0772 40.8557 29.6464C41.1603 29.2062 41.52 28.8644 41.9347 28.6209C42.3495 28.368 42.8032 28.2416 43.2957 28.2416C43.5614 28.2416 43.8206 28.2884 44.0734 28.3821C44.3326 28.4664 44.5756 28.5881 44.8024 28.7473C45.0293 28.9065 45.2366 29.1032 45.4246 29.3374C45.619 29.5621 45.781 29.815 45.9106 30.096L45.2496 30.9108Z" fill="white"/>
<path d="M51.8573 28.4664L49.359 35.8839C49.2618 36.1836 49.1549 36.4645 49.0382 36.7268C48.928 36.989 48.8017 37.2231 48.6591 37.4292C48.523 37.6259 48.3675 37.7804 48.1925 37.8928C48.0175 38.0145 47.8166 38.0754 47.5898 38.0754C47.3565 38.0754 47.1394 38.0192 46.9385 37.9068C46.7441 37.7944 46.5723 37.6586 46.4233 37.4994L46.8315 36.4879C46.9352 36.591 47.0454 36.6846 47.1621 36.7689C47.2852 36.8438 47.4245 36.8813 47.5801 36.8813C47.6967 36.8813 47.8004 36.8532 47.8911 36.797C47.9819 36.7408 48.0661 36.6518 48.1439 36.5301C48.2281 36.399 48.3059 36.2398 48.3772 36.0524C48.4549 35.8558 48.5392 35.6216 48.6299 35.35L46.1414 28.4664H47.1621L49.0965 33.9733L50.8949 28.4664H51.8573Z" fill="white"/>
<path d="M52.9097 29.2671C52.9161 29.0236 52.9615 28.8316 53.0458 28.6911C53.1365 28.5413 53.2629 28.4664 53.4249 28.4664H56.9828V37.8366H56.0495V29.6745H53.804C53.7651 31.1449 53.6841 32.3999 53.561 33.4395C53.4378 34.4697 53.2693 35.3173 53.0555 35.9822C52.8416 36.6378 52.5759 37.1201 52.2584 37.4292C51.9473 37.7289 51.5779 37.8787 51.1502 37.8787H51.0141V36.6565C51.3251 36.6565 51.5909 36.5254 51.8112 36.2632C52.038 35.9916 52.226 35.5608 52.375 34.9707C52.5241 34.3807 52.6407 33.6174 52.725 32.6809C52.8157 31.7443 52.8773 30.6064 52.9097 29.2671Z" fill="white"/>
<path d="M59.392 36.6846H60.6363C61.0641 36.6846 61.3978 36.5348 61.6376 36.2351C61.8839 35.9354 62.007 35.4858 62.007 34.8864C62.007 34.2964 61.8839 33.8469 61.6376 33.5378C61.3978 33.2194 61.0641 33.0602 60.6363 33.0602H59.392V36.6846ZM59.392 28.4664V31.9082H60.6558C61.3946 31.9082 61.9649 32.1704 62.3667 32.6949C62.7685 33.21 62.9694 33.9218 62.9694 34.8302C62.9694 35.2142 62.9272 35.5889 62.843 35.9541C62.7587 36.31 62.6227 36.6284 62.4347 36.9094C62.2533 37.1904 62.0102 37.4151 61.7056 37.5837C61.4075 37.7523 61.0414 37.8366 60.6072 37.8366H58.4588V28.4664H59.392Z" fill="white"/>
<path d="M64.4726 29.6464H62.1493V28.4664H67.7194V29.6464H65.4058V37.8366H64.4726V29.6464Z" fill="white"/>
<path d="M69.6062 35.9822L72.8239 29.0564C73.0312 28.6162 73.2646 28.3961 73.5238 28.3961C73.6923 28.3961 73.8284 28.4757 73.9321 28.6349C74.0358 28.7848 74.0876 28.9908 74.0876 29.2531V37.8366H73.1738V30.2926L69.8881 37.387C69.8104 37.5463 69.7164 37.6727 69.6062 37.7663C69.5025 37.86 69.3924 37.9068 69.2757 37.9068C69.0943 37.9068 68.9517 37.8272 68.848 37.668C68.7443 37.4994 68.6924 37.2793 68.6924 37.0077V28.4664H69.6062V35.9822Z" fill="white"/>
<path d="M75.5655 28.4664H77.6166C78.0573 28.4664 78.4202 28.5553 78.7054 28.7333C78.997 28.9112 79.2271 29.136 79.3956 29.4076C79.5705 29.6792 79.6904 29.9836 79.7552 30.3207C79.8265 30.6579 79.8622 30.9857 79.8622 31.3041C79.8622 31.7724 79.8071 32.1845 79.6969 32.5404C79.5867 32.8963 79.4344 33.196 79.24 33.4395C79.0456 33.6736 78.8123 33.8515 78.5401 33.9733C78.2744 34.095 77.9828 34.1559 77.6652 34.1559H76.489V37.8366H75.5655V28.4664ZM77.6555 33.004C78.0573 33.004 78.3651 32.8588 78.579 32.5685C78.7993 32.2688 78.9095 31.8567 78.9095 31.3322C78.9095 30.7984 78.7961 30.3816 78.5693 30.0819C78.3489 29.7729 78.0443 29.6183 77.6555 29.6183H76.489V33.004H77.6555Z" fill="white"/>
<path d="M84.1165 36.8111C84.4729 36.8111 84.8002 36.7221 85.0983 36.5441C85.3964 36.3568 85.6524 36.104 85.8662 35.7855C86.0801 35.4577 86.2454 35.0691 86.362 34.6195C86.4851 34.1606 86.5467 33.6642 86.5467 33.1304C86.5467 32.5778 86.4884 32.0768 86.3717 31.6272C86.2551 31.1777 86.0898 30.7937 85.876 30.4753C85.6621 30.1475 85.4061 29.8946 85.108 29.7167C84.8099 29.5387 84.4794 29.4497 84.1165 29.4497C83.7535 29.4497 83.423 29.5387 83.1249 29.7167C82.8268 29.8946 82.5708 30.1475 82.357 30.4753C82.1431 30.7937 81.9779 31.1777 81.8612 31.6272C81.7445 32.0768 81.6862 32.5778 81.6862 33.1304C81.6862 33.6642 81.7445 34.1606 81.8612 34.6195C81.9843 35.0691 82.1528 35.4577 82.3667 35.7855C82.5806 36.104 82.8365 36.3568 83.1346 36.5441C83.4328 36.7221 83.76 36.8111 84.1165 36.8111ZM84.1165 38.0754C83.6304 38.0754 83.1768 37.9537 82.7555 37.7101C82.3408 37.4573 81.9811 37.1108 81.6765 36.6706C81.3784 36.2304 81.1418 35.7106 80.9669 35.1112C80.7984 34.5025 80.7141 33.8469 80.7141 33.1444C80.7141 32.442 80.8016 31.7911 80.9766 31.1917C81.1516 30.5923 81.3914 30.0726 81.6959 29.6324C82.0005 29.1922 82.3602 28.8503 82.775 28.6068C83.1897 28.354 83.6369 28.2275 84.1165 28.2275C84.6025 28.2275 85.0529 28.354 85.4677 28.6068C85.8824 28.8503 86.2421 29.1922 86.5467 29.6324C86.8513 30.0726 87.0878 30.5923 87.2563 31.1917C87.4313 31.7911 87.5188 32.442 87.5188 33.1444C87.5188 33.8469 87.4313 34.5025 87.2563 35.1112C87.0878 35.7106 86.8513 36.2304 86.5467 36.6706C86.2486 37.1108 85.8889 37.4573 85.4677 37.7101C85.0529 37.9537 84.6025 38.0754 84.1165 38.0754Z" fill="white"/>
<path d="M88.7325 28.4664H90.9294C91.2664 28.4664 91.5581 28.5319 91.8043 28.663C92.0506 28.7848 92.2547 28.9534 92.4167 29.1688C92.5788 29.3842 92.6987 29.6371 92.7764 29.9274C92.8607 30.2177 92.9028 30.5268 92.9028 30.8546C92.9028 31.1543 92.8672 31.4212 92.7959 31.6553C92.7246 31.8895 92.6371 32.0955 92.5334 32.2735C92.4297 32.442 92.3131 32.5778 92.1834 32.6809C92.0603 32.7839 91.9469 32.8494 91.8432 32.8775C91.9728 32.9056 92.1186 32.9665 92.2807 33.0602C92.4427 33.1444 92.595 33.2756 92.7375 33.4535C92.8801 33.6315 93 33.8656 93.0972 34.1559C93.1944 34.4369 93.243 34.7881 93.243 35.2095C93.243 35.7153 93.1782 36.1367 93.0486 36.4739C92.9255 36.8017 92.7537 37.0686 92.5334 37.2746C92.3195 37.4807 92.0636 37.6259 91.7654 37.7101C91.4673 37.7944 91.1498 37.8366 90.8128 37.8366H88.7325V28.4664ZM90.7642 36.6706C90.9327 36.6706 91.1077 36.6565 91.2891 36.6284C91.4706 36.6003 91.6358 36.5348 91.7849 36.4318C91.9404 36.3287 92.0668 36.1789 92.164 35.9822C92.2612 35.7762 92.3098 35.4952 92.3098 35.1393C92.3098 34.8021 92.2612 34.5305 92.164 34.3245C92.0733 34.1185 91.9534 33.9546 91.8043 33.8328C91.6618 33.7111 91.503 33.6315 91.328 33.594C91.153 33.5472 90.9845 33.5238 90.8225 33.5238H89.6365V36.6706H90.7642ZM90.7933 32.3718C90.9359 32.3718 91.0785 32.3484 91.2211 32.3015C91.3636 32.2454 91.4933 32.1611 91.6099 32.0487C91.7266 31.9363 91.8205 31.7911 91.8918 31.6132C91.9631 31.4352 91.9987 31.2198 91.9987 30.967C91.9987 30.686 91.9631 30.4612 91.8918 30.2926C91.8205 30.1147 91.7266 29.9789 91.6099 29.8852C91.4933 29.7822 91.3636 29.7167 91.2211 29.6886C91.0785 29.6511 90.9359 29.6324 90.7933 29.6324H89.6365V32.3718H90.7933Z" fill="white"/>
<path d="M97.9607 35.2236H95.2972L94.6362 37.8366H93.6544L96.0166 29.1126C96.1462 28.6349 96.3697 28.3961 96.6873 28.3961C96.9789 28.3961 97.1928 28.6443 97.3289 29.1407L99.6814 37.8366H98.6412L97.9607 35.2236ZM96.6387 29.8712L95.5791 34.0857H97.6788L96.6387 29.8712Z" fill="white"/>
<path d="M101.23 29.6464H98.9068V28.4664H104.477V29.6464H102.163V37.8366H101.23V29.6464Z" fill="white"/>
<path d="M106.383 36.6846H107.627C108.055 36.6846 108.389 36.5348 108.629 36.2351C108.875 35.9354 108.998 35.4858 108.998 34.8864C108.998 34.2964 108.875 33.8469 108.629 33.5378C108.389 33.2194 108.055 33.0602 107.627 33.0602H106.383V36.6846ZM106.383 28.4664V31.9082H107.647C108.386 31.9082 108.956 32.1704 109.358 32.6949C109.76 33.21 109.96 33.9218 109.96 34.8302C109.96 35.2142 109.918 35.5889 109.834 35.9541C109.75 36.31 109.614 36.6284 109.426 36.9094C109.244 37.1904 109.001 37.4151 108.697 37.5837C108.399 37.7523 108.032 37.8366 107.598 37.8366H105.45V28.4664H106.383Z" fill="white"/>
<path d="M116.192 30.9108C115.972 30.4519 115.69 30.096 115.346 29.8431C115.003 29.5809 114.637 29.4497 114.248 29.4497C113.885 29.4497 113.554 29.5387 113.256 29.7167C112.958 29.8946 112.702 30.1475 112.488 30.4753C112.281 30.7937 112.119 31.1824 112.002 31.6413C111.886 32.0908 111.827 32.5966 111.827 33.1585C111.827 33.7111 111.882 34.2121 111.992 34.6617C112.109 35.1018 112.271 35.4811 112.479 35.7996C112.692 36.118 112.945 36.3662 113.237 36.5441C113.528 36.7127 113.856 36.797 114.219 36.797C114.594 36.797 114.938 36.6893 115.249 36.4739C115.56 36.2585 115.878 35.9026 116.202 35.4062L116.853 36.1929C116.736 36.4458 116.581 36.6893 116.386 36.9234C116.192 37.1482 115.975 37.3449 115.735 37.5135C115.495 37.6821 115.243 37.8132 114.977 37.9068C114.718 38.0098 114.465 38.0614 114.219 38.0614C113.72 38.0614 113.263 37.9443 112.848 37.7101C112.433 37.476 112.077 37.1435 111.779 36.7127C111.48 36.2819 111.25 35.7668 111.088 35.1674C110.926 34.568 110.845 33.9077 110.845 33.1866C110.845 32.4748 110.93 31.8145 111.098 31.2058C111.267 30.597 111.5 30.0772 111.798 29.6464C112.103 29.2062 112.462 28.8644 112.877 28.6209C113.292 28.368 113.745 28.2416 114.238 28.2416C114.504 28.2416 114.763 28.2884 115.016 28.3821C115.275 28.4664 115.518 28.5881 115.745 28.7473C115.972 28.9065 116.179 29.1032 116.367 29.3374C116.561 29.5621 116.723 29.815 116.853 30.096L116.192 30.9108Z" fill="white"/>
<path d="M117.2 37.8366C117.317 37.4058 117.443 36.9796 117.579 36.5582C117.716 36.1367 117.852 35.7481 117.988 35.3922C118.124 35.0363 118.257 34.7179 118.386 34.4369C118.522 34.1559 118.646 33.9312 118.756 33.7626C118.354 33.5472 118.046 33.2241 117.832 32.7932C117.625 32.3624 117.521 31.838 117.521 31.2198C117.521 30.3769 117.716 29.7073 118.104 29.2109C118.5 28.7145 119.057 28.4664 119.776 28.4664H121.847V37.8366H120.943V34.0014H120.039C119.773 34.0014 119.54 34.2121 119.339 34.6336C119.145 35.055 118.95 35.542 118.756 36.0946C118.561 36.6378 118.373 37.2185 118.192 37.8366H117.2ZM120.943 32.8635V29.6324H119.718C119.329 29.6324 119.025 29.7775 118.804 30.0679C118.584 30.3488 118.474 30.7469 118.474 31.262C118.474 31.7677 118.587 32.1611 118.814 32.442C119.041 32.723 119.349 32.8635 119.738 32.8635H120.943Z" fill="white"/>
<path d="M130.166 30.9108C129.946 30.4519 129.664 30.096 129.32 29.8431C128.977 29.5809 128.61 29.4497 128.222 29.4497C127.859 29.4497 127.528 29.5387 127.23 29.7167C126.932 29.8946 126.676 30.1475 126.462 30.4753C126.255 30.7937 126.093 31.1824 125.976 31.6413C125.859 32.0908 125.801 32.5966 125.801 33.1585C125.801 33.7111 125.856 34.2121 125.966 34.6617C126.083 35.1018 126.245 35.4811 126.452 35.7996C126.666 36.118 126.919 36.3662 127.211 36.5441C127.502 36.7127 127.83 36.797 128.192 36.797C128.568 36.797 128.912 36.6893 129.223 36.4739C129.534 36.2585 129.852 35.9026 130.176 35.4062L130.827 36.1929C130.71 36.4458 130.555 36.6893 130.36 36.9234C130.166 37.1482 129.949 37.3449 129.709 37.5135C129.469 37.6821 129.216 37.8132 128.951 37.9068C128.692 38.0098 128.439 38.0614 128.192 38.0614C127.693 38.0614 127.237 37.9443 126.822 37.7101C126.407 37.476 126.051 37.1435 125.753 36.7127C125.454 36.2819 125.224 35.7668 125.062 35.1674C124.9 34.568 124.819 33.9077 124.819 33.1866C124.819 32.4748 124.904 31.8145 125.072 31.2058C125.241 30.597 125.474 30.0772 125.772 29.6464C126.077 29.2062 126.436 28.8644 126.851 28.6209C127.266 28.368 127.719 28.2416 128.212 28.2416C128.478 28.2416 128.737 28.2884 128.99 28.3821C129.249 28.4664 129.492 28.5881 129.719 28.7473C129.946 28.9065 130.153 29.1032 130.341 29.3374C130.535 29.5621 130.697 29.815 130.827 30.096L130.166 30.9108Z" fill="white"/>
<path d="M134.639 36.8111C134.995 36.8111 135.323 36.7221 135.621 36.5441C135.919 36.3568 136.175 36.104 136.389 35.7855C136.603 35.4577 136.768 35.0691 136.885 34.6195C137.008 34.1606 137.069 33.6642 137.069 33.1304C137.069 32.5778 137.011 32.0768 136.894 31.6272C136.778 31.1777 136.612 30.7937 136.399 30.4753C136.185 30.1475 135.929 29.8946 135.631 29.7167C135.332 29.5387 135.002 29.4497 134.639 29.4497C134.276 29.4497 133.946 29.5387 133.647 29.7167C133.349 29.8946 133.093 30.1475 132.88 30.4753C132.666 30.7937 132.5 31.1777 132.384 31.6272C132.267 32.0768 132.209 32.5778 132.209 33.1304C132.209 33.6642 132.267 34.1606 132.384 34.6195C132.507 35.0691 132.675 35.4577 132.889 35.7855C133.103 36.104 133.359 36.3568 133.657 36.5441C133.955 36.7221 134.283 36.8111 134.639 36.8111ZM134.639 38.0754C134.153 38.0754 133.699 37.9537 133.278 37.7101C132.863 37.4573 132.504 37.1108 132.199 36.6706C131.901 36.2304 131.664 35.7106 131.489 35.1112C131.321 34.5025 131.237 33.8469 131.237 33.1444C131.237 32.442 131.324 31.7911 131.499 31.1917C131.674 30.5923 131.914 30.0726 132.218 29.6324C132.523 29.1922 132.883 28.8503 133.298 28.6068C133.712 28.354 134.159 28.2275 134.639 28.2275C135.125 28.2275 135.575 28.354 135.99 28.6068C136.405 28.8503 136.765 29.1922 137.069 29.6324C137.374 30.0726 137.61 30.5923 137.779 31.1917C137.954 31.7911 138.041 32.442 138.041 33.1444C138.041 33.8469 137.954 34.5025 137.779 35.1112C137.61 35.7106 137.374 36.2304 137.069 36.6706C136.771 37.1108 136.411 37.4573 135.99 37.7101C135.575 37.9537 135.125 38.0754 134.639 38.0754Z" fill="white"/>
<path d="M146.095 30.9108C145.875 30.4519 145.593 30.096 145.25 29.8431C144.906 29.5809 144.54 29.4497 144.151 29.4497C143.788 29.4497 143.458 29.5387 143.16 29.7167C142.862 29.8946 142.606 30.1475 142.392 30.4753C142.184 30.7937 142.022 31.1824 141.906 31.6413C141.789 32.0908 141.731 32.5966 141.731 33.1585C141.731 33.7111 141.786 34.2121 141.896 34.6617C142.013 35.1018 142.175 35.4811 142.382 35.7996C142.596 36.118 142.849 36.3662 143.14 36.5441C143.432 36.7127 143.759 36.797 144.122 36.797C144.498 36.797 144.841 36.6893 145.152 36.4739C145.463 36.2585 145.781 35.9026 146.105 35.4062L146.756 36.1929C146.64 36.4458 146.484 36.6893 146.29 36.9234C146.095 37.1482 145.878 37.3449 145.638 37.5135C145.399 37.6821 145.146 37.8132 144.88 37.9068C144.621 38.0098 144.368 38.0614 144.122 38.0614C143.623 38.0614 143.166 37.9443 142.751 37.7101C142.337 37.476 141.98 37.1435 141.682 36.7127C141.384 36.2819 141.154 35.7668 140.992 35.1674C140.83 34.568 140.749 33.9077 140.749 33.1866C140.749 32.4748 140.833 31.8145 141.002 31.2058C141.17 30.597 141.403 30.0772 141.701 29.6464C142.006 29.2062 142.366 28.8644 142.781 28.6209C143.195 28.368 143.649 28.2416 144.141 28.2416C144.407 28.2416 144.666 28.2884 144.919 28.3821C145.178 28.4664 145.421 28.5881 145.648 28.7473C145.875 28.9065 146.082 29.1032 146.27 29.3374C146.465 29.5621 146.627 29.815 146.756 30.096L146.095 30.9108Z" fill="white"/>
<path d="M152.985 28.4664V37.8366H152.052V29.6745H148.533V37.8366H147.6V28.4664H152.985Z" fill="white"/>
<path d="M154.968 37.8366C154.819 37.8366 154.699 37.7757 154.609 37.654C154.518 37.5322 154.473 37.3496 154.473 37.1061V28.4664H158.555V29.6605H155.406V32.3858H157.778V33.594H155.406V36.6284H158.789V37.8366H154.968Z" fill="white"/>
<path d="M164.995 37.8366H159.96V28.4664H160.893V36.6284H164.363V28.4664H165.296V36.6284H165.841V40H164.995V37.8366Z" fill="white"/>
<path d="M167.841 35.9822L171.059 29.0564C171.266 28.6162 171.5 28.3961 171.759 28.3961C171.927 28.3961 172.064 28.4757 172.167 28.6349C172.271 28.7848 172.323 28.9908 172.323 29.2531V37.8366H171.409V30.2926L168.123 37.387C168.045 37.5463 167.952 37.6727 167.841 37.7663C167.738 37.86 167.627 37.9068 167.511 37.9068C167.329 37.9068 167.187 37.8272 167.083 37.668C166.979 37.4994 166.928 37.2793 166.928 37.0077V28.4664H167.841V35.9822Z" fill="white"/>
<path d="M177.485 35.2236H174.821L174.16 37.8366H173.178L175.541 29.1126C175.67 28.6349 175.894 28.3961 176.211 28.3961C176.503 28.3961 176.717 28.6443 176.853 29.1407L179.205 37.8366H178.165L177.485 35.2236ZM176.163 29.8712L175.103 34.0857H177.203L176.163 29.8712Z" fill="white"/>
<path d="M181.751 29.2671C181.757 29.0236 181.803 28.8316 181.887 28.6911C181.978 28.5413 182.104 28.4664 182.266 28.4664H185.824V37.8366H184.891V29.6745H182.645C182.606 31.1449 182.525 32.3999 182.402 33.4395C182.279 34.4697 182.11 35.3173 181.897 35.9822C181.683 36.6378 181.417 37.1201 181.099 37.4292C180.788 37.7289 180.419 37.8787 179.991 37.8787H179.855V36.6565C180.166 36.6565 180.432 36.5254 180.652 36.2632C180.879 35.9916 181.067 35.5608 181.216 34.9707C181.365 34.3807 181.482 33.6174 181.566 32.6809C181.657 31.7443 181.718 30.6064 181.751 29.2671Z" fill="white"/>
<path d="M188.214 35.9822L191.431 29.0564C191.639 28.6162 191.872 28.3961 192.131 28.3961C192.3 28.3961 192.436 28.4757 192.54 28.6349C192.643 28.7848 192.695 28.9908 192.695 29.2531V37.8366H191.781V30.2926L188.496 37.387C188.418 37.5463 188.324 37.6727 188.214 37.7663C188.11 37.86 188 37.9068 187.883 37.9068C187.702 37.9068 187.559 37.8272 187.455 37.668C187.352 37.4994 187.3 37.2793 187.3 37.0077V28.4664H188.214V35.9822Z" fill="white"/>
<path d="M199.257 30.9108C199.037 30.4519 198.755 30.096 198.411 29.8431C198.068 29.5809 197.702 29.4497 197.313 29.4497C196.95 29.4497 196.619 29.5387 196.321 29.7167C196.023 29.8946 195.767 30.1475 195.553 30.4753C195.346 30.7937 195.184 31.1824 195.067 31.6413C194.951 32.0908 194.892 32.5966 194.892 33.1585C194.892 33.7111 194.947 34.2121 195.058 34.6617C195.174 35.1018 195.336 35.4811 195.544 35.7996C195.757 36.118 196.01 36.3662 196.302 36.5441C196.593 36.7127 196.921 36.797 197.284 36.797C197.66 36.797 198.003 36.6893 198.314 36.4739C198.625 36.2585 198.943 35.9026 199.267 35.4062L199.918 36.1929C199.801 36.4458 199.646 36.6893 199.451 36.9234C199.257 37.1482 199.04 37.3449 198.8 37.5135C198.56 37.6821 198.308 37.8132 198.042 37.9068C197.783 38.0098 197.53 38.0614 197.284 38.0614C196.785 38.0614 196.328 37.9443 195.913 37.7101C195.498 37.476 195.142 37.1435 194.844 36.7127C194.546 36.2819 194.316 35.7668 194.153 35.1674C193.991 34.568 193.91 33.9077 193.91 33.1866C193.91 32.4748 193.995 31.8145 194.163 31.2058C194.332 30.597 194.565 30.0772 194.863 29.6464C195.168 29.2062 195.527 28.8644 195.942 28.6209C196.357 28.368 196.811 28.2416 197.303 28.2416C197.569 28.2416 197.828 28.2884 198.081 28.3821C198.34 28.4664 198.583 28.5881 198.81 28.7473C199.037 28.9065 199.244 29.1032 199.432 29.3374C199.626 29.5621 199.788 29.815 199.918 30.096L199.257 30.9108Z" fill="white"/>
<path d="M202.389 29.6464H200.066V28.4664H205.636V29.6464H203.322V37.8366H202.389V29.6464Z" fill="white"/>
<path d="M209.065 36.8111C209.422 36.8111 209.749 36.7221 210.047 36.5441C210.345 36.3568 210.601 36.104 210.815 35.7855C211.029 35.4577 211.194 35.0691 211.311 34.6195C211.434 34.1606 211.496 33.6642 211.496 33.1304C211.496 32.5778 211.437 32.0768 211.321 31.6272C211.204 31.1777 211.039 30.7937 210.825 30.4753C210.611 30.1475 210.355 29.8946 210.057 29.7167C209.759 29.5387 209.428 29.4497 209.065 29.4497C208.702 29.4497 208.372 29.5387 208.074 29.7167C207.776 29.8946 207.52 30.1475 207.306 30.4753C207.092 30.7937 206.927 31.1777 206.81 31.6272C206.693 32.0768 206.635 32.5778 206.635 33.1304C206.635 33.6642 206.693 34.1606 206.81 34.6195C206.933 35.0691 207.102 35.4577 207.316 35.7855C207.529 36.104 207.785 36.3568 208.084 36.5441C208.382 36.7221 208.709 36.8111 209.065 36.8111ZM209.065 38.0754C208.579 38.0754 208.126 37.9537 207.704 37.7101C207.29 37.4573 206.93 37.1108 206.625 36.6706C206.327 36.2304 206.091 35.7106 205.916 35.1112C205.747 34.5025 205.663 33.8469 205.663 33.1444C205.663 32.442 205.75 31.7911 205.925 31.1917C206.1 30.5923 206.34 30.0726 206.645 29.6324C206.949 29.1922 207.309 28.8503 207.724 28.6068C208.139 28.354 208.586 28.2275 209.065 28.2275C209.551 28.2275 210.002 28.354 210.417 28.6068C210.831 28.8503 211.191 29.1922 211.496 29.6324C211.8 30.0726 212.037 30.5923 212.205 31.1917C212.38 31.7911 212.468 32.442 212.468 33.1444C212.468 33.8469 212.38 34.5025 212.205 35.1112C212.037 35.7106 211.8 36.2304 211.496 36.6706C211.197 37.1108 210.838 37.4573 210.417 37.7101C210.002 37.9537 209.551 38.0754 209.065 38.0754Z" fill="white"/>
<path d="M214.226 28.3961C214.446 28.3961 214.637 28.5928 214.799 28.9861L216.841 33.875L218.843 29.0704C218.947 28.8269 219.047 28.6537 219.145 28.5507C219.242 28.4476 219.358 28.3961 219.495 28.3961C219.644 28.3961 219.763 28.4757 219.854 28.6349C219.951 28.7848 220 28.9861 220 29.239V37.8366H219.125V30.4612L217.327 34.7881C217.21 35.0691 217.045 35.2095 216.831 35.2095C216.727 35.2095 216.627 35.1674 216.53 35.0831C216.432 34.9988 216.355 34.8818 216.296 34.7319L214.556 30.5174V37.8366H213.681V29.2531C213.681 28.9815 213.73 28.7707 213.827 28.6209C213.924 28.471 214.057 28.3961 214.226 28.3961Z" fill="white"/>
</svg>
