<svg width="156" height="81" viewBox="0 0 156 81" fill="none" xmlns="http://www.w3.org/2000/svg">
<path d="M83.1117 28.889H69.7705V30.3901H83.1117V28.889Z" fill="white" stroke="white" stroke-width="0.4"/>
<path d="M76.4411 16.0111L72.4705 8.50554L76.4411 1L80.4117 8.58455L76.4411 16.0111ZM74.1381 8.42653L76.4411 12.7718L78.744 8.42653L76.4411 4.08122L74.1381 8.42653Z" fill="white" stroke="white" stroke-width="0.4"/>
<path d="M1 79.2946L4.33529 49.0354L17.0412 76.0553L29.747 49.0354L33.0823 79.2946H31.1765L28.6353 55.8299L17.1206 80.4006L5.52647 55.7509L2.90588 79.2156L1 79.2946Z" fill="white" stroke="white" stroke-width="0.4"/>
<path d="M38.4028 55.4348C38.4028 54.5658 39.1175 53.8547 39.9911 53.8547C40.8646 53.8547 41.5793 54.5658 41.5793 55.4348C41.5793 56.3039 40.8646 57.015 39.9911 57.015C39.1175 57.015 38.4028 56.3039 38.4028 55.4348ZM40.8646 61.3603V79.2156H39.1175V61.3603H40.8646Z" fill="white" stroke="white" stroke-width="0.4"/>
<path d="M48.25 47.2974V79.2946H46.5029V47.2974H48.25Z" fill="white" stroke="white" stroke-width="0.4"/>
<path d="M55.5559 47.2974V79.2946H53.8088V47.2974H55.5559Z" fill="white" stroke="white" stroke-width="0.4"/>
<path d="M85.5735 55.9879C83.1117 53.0647 79.4588 51.4056 75.647 51.4056C68.1029 51.4056 62.4647 57.41 62.4647 64.8366C62.4647 73.5272 69.7705 78.0305 75.647 78.0305C79.3794 77.9515 82.9529 76.3714 85.4941 73.6062V76.1344C82.7941 78.5045 79.3 79.7686 75.7264 79.7686C67.3882 80.0057 60.3999 73.4482 60.2411 65.0736C60.0823 56.699 66.5941 49.8255 75.0117 49.6675C75.25 49.6675 75.4882 49.6675 75.7264 49.6675C79.3794 49.6675 82.9529 51.0106 85.5735 53.4598V55.9879Z" fill="white" stroke="white" stroke-width="0.4"/>
<path d="M90.1794 61.3604H91.9265V63.6515C92.5618 61.9924 94.15 60.9653 95.8971 60.9653C96.5324 60.9653 97.1677 61.1233 97.803 61.4394L96.9295 63.0195C96.5324 62.7825 96.0559 62.6244 95.5795 62.7035C91.9265 62.7035 91.9265 67.4438 91.9265 69.735V79.3737H90.1794V61.3604Z" fill="white" stroke="white" stroke-width="0.4"/>
<path d="M100.662 70.525C100.424 74.3963 103.362 77.7935 107.253 78.0306C107.412 78.0306 107.65 78.0306 107.809 78.0306C110.509 78.0306 112.971 76.4504 114.082 73.9223L115.591 74.7913C114.162 77.7935 111.065 79.6897 107.729 79.6897C102.171 79.6897 98.9148 75.5814 98.9148 70.367C98.9148 64.1256 103.203 60.9653 107.65 60.9653C112.494 60.9653 116.306 64.8366 116.147 70.525H100.662ZM114.162 68.8659C113.685 65.3106 111.065 62.6245 107.491 62.6245C103.918 62.6245 101.218 65.3896 100.741 68.8659H114.162Z" fill="white" stroke="white" stroke-width="0.4"/>
<path d="M121.309 70.525C121.071 74.3963 124.009 77.7935 127.9 78.0306C128.059 78.0306 128.297 78.0306 128.456 78.0306C131.156 78.0306 133.618 76.4504 134.729 73.9223L136.238 74.7913C134.809 77.7935 131.712 79.6897 128.377 79.6897C122.738 79.6897 119.482 75.5814 119.482 70.367C119.482 64.1256 123.771 60.9653 128.218 60.9653C133.062 60.9653 136.874 64.8366 136.715 70.525H121.309ZM134.809 68.8659C134.332 65.3106 131.712 62.6245 128.138 62.6245C124.565 62.6245 121.865 65.3896 121.388 68.8659H134.809Z" fill="white" stroke="white" stroke-width="0.4"/>
<path d="M142.909 47.2974V69.0239L150.294 61.3604H152.597L145.053 69.1029L155.138 79.2156H152.756L143.862 70.367L142.909 71.3151V79.2156H141.162V47.2974H142.909Z" fill="white" stroke="white" stroke-width="0.4"/>
</svg>
