<svg width="281" height="61" viewBox="0 0 281 61" fill="none" xmlns="http://www.w3.org/2000/svg">
<path d="M4.73841 0.33547H5.70107V24.7577H4.73841V5.93782L1.14346 24.7577H0.175781V0.33547H1.14346V19.1553L4.73841 0.33547Z" fill="white"/>
<path d="M8.69937 0.33547L11.086 20.2624L13.4726 0.33547H14.721V24.7577H13.7584V15.2471L13.8486 4.98173L11.452 24.7577H10.715L8.32333 5.03205L8.4186 15.2471V24.7577H7.45593V0.33547H8.69937Z" fill="white"/>
<path d="M20.5472 13.4691H17.3834V22.1243H21.0586V24.7577H16.4207V0.33547H21.0084V2.98568H17.3834V10.8357H20.5472V13.4691Z" fill="white"/>
<path d="M30.2039 13.3349C30.2039 15.728 30.0836 17.8191 29.8429 19.6082C29.6022 21.3862 29.2613 22.7449 28.8201 23.6842C28.3788 24.6235 27.8641 25.0932 27.2758 25.0932C26.7209 25.0932 26.2229 24.6459 25.7817 23.7513C25.3438 22.8567 24.9995 21.5763 24.7488 19.9102C24.5014 18.244 24.3644 16.2983 24.3377 14.073H23.2898V24.7577H22.3271V0.33547H23.2898V11.5402H24.3326C24.3427 9.23661 24.468 7.2182 24.7087 5.48494C24.9494 3.74049 25.292 2.39302 25.7365 1.44252C26.1811 0.480841 26.6908 0 27.2658 0C27.8507 0 28.3655 0.475249 28.81 1.42575C29.2579 2.36506 29.6022 3.7349 29.8429 5.53526C30.0836 7.32443 30.2039 9.40994 30.2039 11.7918V13.3349ZM29.2462 11.7582C29.2462 8.862 29.0724 6.64231 28.7248 5.09915C28.3772 3.5448 27.8908 2.76763 27.2658 2.76763C26.6574 2.76763 26.1778 3.5448 25.8268 5.09915C25.4792 6.64231 25.3003 8.78932 25.2903 11.5402V13.3349C25.2903 16.1417 25.4658 18.3502 25.8168 19.9605C26.1711 21.5595 26.6574 22.3591 27.2758 22.3591C27.8975 22.3591 28.3788 21.6043 28.7198 20.0947C29.0607 18.5739 29.2362 16.3989 29.2462 13.5698V11.7582Z" fill="white"/>
<path d="M36.3359 2.98568H33.9894V24.7577H33.0317V2.98568H30.6902V0.33547H36.3359V2.98568Z" fill="white"/>
<path d="M42.6483 17.0083C42.5581 19.5915 42.2723 21.5875 41.791 22.9965C41.313 24.3943 40.6762 25.0932 39.8807 25.0932C39.0183 25.0932 38.3264 24.0588 37.8049 21.9901C37.2868 19.9213 37.0278 17.1537 37.0278 13.6872V11.3389C37.0278 9.06888 37.1481 7.07283 37.3888 5.35075C37.6328 3.62867 37.9771 2.30915 38.4216 1.3922C38.8662 0.464067 39.381 0 39.9659 0C40.7414 0 41.3631 0.726852 41.8311 2.18056C42.299 3.62308 42.5715 5.62472 42.6483 8.18547H41.6807C41.5971 6.23975 41.4149 4.83077 41.1341 3.95855C40.8567 3.08633 40.4673 2.65021 39.9659 2.65021C39.3509 2.65021 38.8679 3.41061 38.5169 4.93141C38.1693 6.45221 37.9955 8.61599 37.9955 11.4228V13.7878C37.9955 16.438 38.1609 18.5459 38.4918 20.1114C38.8228 21.677 39.2857 22.4597 39.8807 22.4597C40.4155 22.4597 40.825 22.0572 41.1091 21.252C41.3965 20.4357 41.5871 19.0212 41.6807 17.0083H42.6483Z" fill="white"/>
<path d="M47.7876 24.7577V15.2471H46.1029L44.5937 24.7577H43.5659L45.2606 14.3581C44.318 13.1169 43.8467 10.8972 43.8467 7.69904C43.8467 5.37311 44.074 3.56717 44.5285 2.2812C44.9865 0.984046 45.6216 0.33547 46.4338 0.33547H48.7552V24.7577H47.7876ZM44.8093 7.69904C44.8093 9.17511 44.9464 10.3604 45.2205 11.255C45.4979 12.1496 45.8823 12.6025 46.3737 12.6137H47.7876V2.98568H46.4188C45.8973 2.98568 45.4979 3.39943 45.2205 4.22692C44.9464 5.05442 44.8093 6.21179 44.8093 7.69904Z" fill="white"/>
<path d="M58.6276 24.7577H57.6599V2.98568H54.0599V24.7577H53.0973V0.33547H58.6276V24.7577Z" fill="white"/>
<path d="M61.3451 15.1968V24.7577H60.3824V0.33547H63.0749C63.8738 0.33547 64.4988 1.01759 64.9501 2.38184C65.4047 3.74608 65.632 5.55203 65.632 7.79968C65.632 10.1703 65.4097 11.9986 64.9651 13.2846C64.5239 14.5594 63.8905 15.1968 63.0648 15.1968H61.3451ZM61.3451 12.5634H63.0749C63.5896 12.5634 63.9841 12.1608 64.2582 11.3557C64.5322 10.5394 64.6693 9.36521 64.6693 7.83323C64.6693 6.37952 64.5322 5.21656 64.2582 4.34434C63.9841 3.47212 63.608 3.01923 63.13 2.98568H61.3451V12.5634Z" fill="white"/>
<path d="M72.4759 13.3349C72.4759 15.728 72.3556 17.8191 72.1149 19.6082C71.8742 21.3862 71.5333 22.7449 71.0921 23.6842C70.6508 24.6235 70.1361 25.0932 69.5478 25.0932C68.9729 25.0932 68.4631 24.6235 68.0186 23.6842C67.574 22.7337 67.228 21.3862 66.9807 19.6418C66.7367 17.8862 66.6113 15.8566 66.6046 13.553V11.7918C66.6046 9.44349 66.7267 7.36916 66.9707 5.5688C67.2147 3.76845 67.559 2.39302 68.0035 1.44252C68.4514 0.480841 68.9628 0 69.5378 0C70.1227 0 70.6375 0.475249 71.082 1.42575C71.5299 2.36506 71.8742 3.7349 72.1149 5.53526C72.3556 7.32443 72.4759 9.40994 72.4759 11.7918V13.3349ZM71.5182 11.7582C71.5182 8.862 71.3444 6.64231 70.9968 5.09915C70.6492 3.5448 70.1628 2.76763 69.5378 2.76763C68.9294 2.76763 68.4498 3.5448 68.0988 5.09915C67.7512 6.64231 67.5723 8.78932 67.5623 11.5402V13.3349C67.5623 16.1417 67.7378 18.3502 68.0888 19.9605C68.4431 21.5595 68.9294 22.3591 69.5478 22.3591C70.1695 22.3591 70.6508 21.6043 70.9918 20.0947C71.3327 18.5739 71.5082 16.3989 71.5182 13.5698V11.7582Z" fill="white"/>
<path d="M78.8235 2.98568H76.477V24.7577H75.5193V2.98568H73.1778V0.33547H78.8235V2.98568Z" fill="white"/>
<path d="M84.5092 0.33547H85.4719V24.7577H84.5092V5.93782L80.9143 24.7577H79.9466V0.33547H80.9143V19.1553L84.5092 0.33547Z" fill="white"/>
<path d="M87.2267 24.7577V0.33547H89.6133C90.4055 0.33547 91.0005 0.883405 91.3983 1.97927C91.7994 3.07514 91.9999 4.69658 91.9999 6.84359C91.9999 7.98419 91.903 8.99619 91.7091 9.8796C91.5153 10.7518 91.2512 11.4284 90.9169 11.9092C91.3114 12.2782 91.6222 12.9827 91.8495 14.0227C92.0802 15.0514 92.1955 16.2815 92.1955 17.7128C92.1955 19.9046 91.9832 21.6266 91.5587 22.8791C91.1342 24.1315 90.5342 24.7577 89.7587 24.7577H87.2267ZM88.1894 13.3349V22.1243H89.7788C90.2267 22.1243 90.5793 21.7385 90.8367 20.9669C91.0974 20.1841 91.2278 19.1106 91.2278 17.7464C91.2278 14.8054 90.7498 13.3349 89.7938 13.3349H88.1894ZM88.1894 10.7518H89.6434C90.0646 10.7518 90.4005 10.3996 90.6512 9.69509C90.9052 8.9906 91.0323 8.03451 91.0323 6.82682C91.0323 5.48494 90.9153 4.51207 90.6813 3.90823C90.4473 3.2932 90.0913 2.98568 89.6133 2.98568H88.1894V10.7518Z" fill="white"/>
<path d="M99.24 13.3349C99.24 15.728 99.1196 17.8191 98.879 19.6082C98.6383 21.3862 98.2974 22.7449 97.8561 23.6842C97.4149 24.6235 96.9002 25.0932 96.3119 25.0932C95.7369 25.0932 95.2272 24.6235 94.7826 23.6842C94.3381 22.7337 93.9921 21.3862 93.7448 19.6418C93.5008 17.8862 93.3754 15.8566 93.3687 13.553V11.7918C93.3687 9.44349 93.4907 7.36916 93.7347 5.5688C93.9787 3.76845 94.323 2.39302 94.7676 1.44252C95.2155 0.480841 95.7269 0 96.3018 0C96.8868 0 97.4016 0.475249 97.8461 1.42575C98.294 2.36506 98.6383 3.7349 98.879 5.53526C99.1196 7.32443 99.24 9.40994 99.24 11.7918V13.3349ZM98.2823 11.7582C98.2823 8.862 98.1085 6.64231 97.7609 5.09915C97.4133 3.5448 96.9269 2.76763 96.3018 2.76763C95.6935 2.76763 95.2138 3.5448 94.8629 5.09915C94.5152 6.64231 94.3364 8.78932 94.3264 11.5402V13.3349C94.3264 16.1417 94.5019 18.3502 94.8528 19.9605C95.2071 21.5595 95.6935 22.3591 96.3119 22.3591C96.9336 22.3591 97.4149 21.6043 97.7559 20.0947C98.0968 18.5739 98.2723 16.3989 98.2823 13.5698V11.7582Z" fill="white"/>
<path d="M106.259 24.7577H105.292V2.98568H101.692V24.7577H100.729V0.33547H106.259V24.7577Z" fill="white"/>
<path d="M113.63 13.3349C113.63 15.728 113.509 17.8191 113.269 19.6082C113.028 21.3862 112.687 22.7449 112.246 23.6842C111.805 24.6235 111.29 25.0932 110.702 25.0932C110.127 25.0932 109.617 24.6235 109.172 23.6842C108.728 22.7337 108.382 21.3862 108.135 19.6418C107.891 17.8862 107.765 15.8566 107.759 13.553V11.7918C107.759 9.44349 107.881 7.36916 108.125 5.5688C108.369 3.76845 108.713 2.39302 109.157 1.44252C109.605 0.480841 110.117 0 110.692 0C111.277 0 111.791 0.475249 112.236 1.42575C112.684 2.36506 113.028 3.7349 113.269 5.53526C113.509 7.32443 113.63 9.40994 113.63 11.7918V13.3349ZM112.672 11.7582C112.672 8.862 112.498 6.64231 112.151 5.09915C111.803 3.5448 111.317 2.76763 110.692 2.76763C110.083 2.76763 109.604 3.5448 109.253 5.09915C108.905 6.64231 108.726 8.78932 108.716 11.5402V13.3349C108.716 16.1417 108.892 18.3502 109.243 19.9605C109.597 21.5595 110.083 22.3591 110.702 22.3591C111.323 22.3591 111.805 21.6043 112.146 20.0947C112.487 18.5739 112.662 16.3989 112.672 13.5698V11.7582Z" fill="white"/>
<path d="M116.969 13.7878H116.082V24.7577H115.119V0.33547H116.082V11.1041H116.834L119.386 0.33547H120.584L117.796 12.1776L120.79 24.7577H119.611L116.969 13.7878Z" fill="white"/>
<path d="M125.703 18.3838H122.645L121.958 24.7577H120.965L123.753 0.33547H124.595L127.388 24.7577H126.4L125.703 18.3838ZM122.936 15.7336H125.417L124.174 4.31079L122.936 15.7336Z" fill="white"/>
<path d="M132.116 6.89391C132.116 5.59676 131.974 4.56799 131.69 3.80759C131.409 3.03601 131.013 2.65021 130.502 2.65021C130.074 2.65021 129.714 3.04719 129.424 3.84113C129.136 4.6239 128.992 5.59676 128.992 6.75972H128.03C128.03 5.46257 128.135 4.29961 128.346 3.27083C128.559 2.24206 128.857 1.44252 129.238 0.872222C129.619 0.290741 130.04 0 130.502 0C131.317 0 131.951 0.615029 132.402 1.84509C132.853 3.06396 133.079 4.76368 133.079 6.94423C133.079 8.07365 132.975 9.10242 132.768 10.0306C132.561 10.9587 132.271 11.6911 131.9 12.2279C132.759 13.1896 133.189 15.0962 133.189 17.9477C133.189 20.1394 132.945 21.8782 132.457 23.1642C131.969 24.4502 131.317 25.0932 130.502 25.0932C130.017 25.0932 129.576 24.808 129.178 24.2377C128.783 23.6562 128.476 22.8343 128.255 21.772C128.035 20.7097 127.924 19.4461 127.924 17.9812H128.887C128.887 19.2672 129.039 20.3407 129.343 21.2017C129.647 22.0516 130.034 22.4765 130.502 22.4765C131.026 22.4765 131.444 22.0683 131.755 21.252C132.069 20.4357 132.226 19.3566 132.226 18.0147C132.226 15.1521 131.696 13.6928 130.637 13.6369H129.734V10.9866H130.632C131.12 10.9531 131.489 10.5841 131.74 9.8796C131.991 9.17511 132.116 8.17988 132.116 6.89391Z" fill="white"/>
<path d="M138.499 18.3838H135.44L134.753 24.7577H133.761L136.548 0.33547H137.391L140.183 24.7577H139.196L138.499 18.3838ZM135.731 15.7336H138.213L136.969 4.31079L135.731 15.7336Z" fill="white"/>
<path d="M146.777 24.7577H145.809V13.4691H142.129V24.7577H141.166V0.33547H142.129V10.8357H145.809V0.33547H146.777V24.7577Z" fill="white"/>
<path d="M153.089 0.33547H154.052V24.7577H153.089V5.93782L149.494 24.7577H148.526V0.33547H149.494V19.1553L153.089 0.33547Z" fill="white"/>
<path d="M159.627 24.7577V15.2471H157.942L156.433 24.7577H155.405L157.1 14.3581C156.158 13.1169 155.686 10.8972 155.686 7.69904C155.686 5.37311 155.914 3.56717 156.368 2.2812C156.826 0.984046 157.461 0.33547 158.273 0.33547H160.595V24.7577H159.627ZM156.649 7.69904C156.649 9.17511 156.786 10.3604 157.06 11.255C157.337 12.1496 157.722 12.6025 158.213 12.6137H159.627V2.98568H158.258C157.737 2.98568 157.337 3.39943 157.06 4.22692C156.786 5.05442 156.649 6.21179 156.649 7.69904Z" fill="white"/>
<path d="M162.219 23.1307C162.219 22.5939 162.266 22.1466 162.36 21.7888C162.457 21.431 162.6 21.252 162.791 21.252C162.981 21.252 163.125 21.431 163.222 21.7888C163.322 22.1466 163.372 22.5939 163.372 23.1307C163.372 23.6451 163.322 24.0756 163.222 24.4222C163.125 24.7689 162.981 24.9422 162.791 24.9422C162.6 24.9422 162.457 24.7689 162.36 24.4222C162.266 24.0756 162.219 23.6451 162.219 23.1307Z" fill="white"/>
<path d="M173.175 24.7577H172.207V2.98568H168.607V24.7577H167.644V0.33547H173.175V24.7577Z" fill="white"/>
<path d="M179.056 13.4691H175.892V22.1243H179.567V24.7577H174.929V0.33547H179.517V2.98568H175.892V10.8357H179.056V13.4691Z" fill="white"/>
<path d="M181.728 15.1968V24.7577H180.766V0.33547H183.458C184.257 0.33547 184.882 1.01759 185.333 2.38184C185.788 3.74608 186.015 5.55203 186.015 7.79968C186.015 10.1703 185.793 11.9986 185.348 13.2846C184.907 14.5594 184.274 15.1968 183.448 15.1968H181.728ZM181.728 12.5634H183.458C183.973 12.5634 184.367 12.1608 184.641 11.3557C184.915 10.5394 185.052 9.36521 185.052 7.83323C185.052 6.37952 184.915 5.21656 184.641 4.34434C184.367 3.47212 183.991 3.01923 183.513 2.98568H181.728V12.5634Z" fill="white"/>
<path d="M191.37 13.4691H188.206V22.1243H191.881V24.7577H187.244V0.33547H191.831V2.98568H188.206V10.8357H191.37V13.4691Z" fill="white"/>
<path d="M199.648 30.7458H198.69V24.7577H193.451V30.7626H192.488L192.483 22.1243H193.08C193.394 20.9389 193.643 19.351 193.827 17.3606C194.014 15.3589 194.131 13.1672 194.178 10.7854L194.338 0.33547H198.705V22.1243H199.658L199.648 30.7458ZM194.178 22.1243H197.738V2.98568H195.266L195.16 10.1647C195.117 12.9715 195.005 15.3645 194.825 17.3438C194.647 19.3231 194.432 20.9166 194.178 22.1243Z" fill="white"/>
<path d="M208.924 24.7577H207.956V2.98568H204.356V24.7577H203.393V0.33547H208.924V24.7577Z" fill="white"/>
<path d="M211.641 15.1968V24.7577H210.678V0.33547H213.371C214.17 0.33547 214.795 1.01759 215.246 2.38184C215.701 3.74608 215.928 5.55203 215.928 7.79968C215.928 10.1703 215.706 11.9986 215.261 13.2846C214.82 14.5594 214.186 15.1968 213.361 15.1968H211.641ZM211.641 12.5634H213.371C213.886 12.5634 214.28 12.1608 214.554 11.3557C214.828 10.5394 214.965 9.36521 214.965 7.83323C214.965 6.37952 214.828 5.21656 214.554 4.34434C214.28 3.47212 213.904 3.01923 213.426 2.98568H211.641V12.5634Z" fill="white"/>
<path d="M221.759 0.33547H222.722V24.7577H221.759V5.93782L218.164 24.7577H217.196V0.33547H218.164V19.1553L221.759 0.33547Z" fill="white"/>
<path d="M225.72 0.33547L228.107 20.2624L230.493 0.33547H231.742V24.7577H230.779V15.2471L230.869 4.98173L228.473 24.7577H227.736L225.344 5.03205L225.439 15.2471V24.7577H224.477V0.33547H225.72Z" fill="white"/>
<path d="M237.568 13.4691H234.404V22.1243H238.079V24.7577H233.441V0.33547H238.029V2.98568H234.404V10.8357H237.568V13.4691Z" fill="white"/>
<path d="M244.888 24.7577H243.92V13.4691H240.24V24.7577H239.278V0.33547H240.24V10.8357H243.92V0.33547H244.888V24.7577Z" fill="white"/>
<path d="M250.724 13.4691H247.561V22.1243H251.236V24.7577H246.598V0.33547H251.186V2.98568H247.561V10.8357H250.724V13.4691Z" fill="white"/>
<path d="M258.045 24.7577H257.077V13.4691H253.397V24.7577H252.434V0.33547H253.397V10.8357H257.077V0.33547H258.045V24.7577Z" fill="white"/>
<path d="M264.357 0.33547H265.32V24.7577H264.357V5.93782L260.762 24.7577H259.794V0.33547H260.762V19.1553L264.357 0.33547Z" fill="white"/>
<path d="M271.201 13.4691H268.037V22.1243H271.712V24.7577H267.075V0.33547H271.662V2.98568H268.037V10.8357H271.201V13.4691Z" fill="white"/>
<path d="M274.154 0.33547L276.541 20.2624L278.927 0.33547H280.176V24.7577H279.213V15.2471L279.303 4.98173L276.907 24.7577H276.17L273.778 5.03205L273.873 15.2471V24.7577H272.911V0.33547H274.154Z" fill="white"/>
<path d="M5.10834 55.2929H4.22728V44.0043H0.876498V55.2929H0V30.8706H0.876498V41.3708H4.22728V30.8706H5.10834V55.2929Z" fill="white"/>
<path d="M10.4221 44.0043H7.54153V52.6594H10.8877V55.2929H6.66504V30.8706H10.8421V33.5208H7.54153V41.3708H10.4221V44.0043Z" fill="white"/>
<path d="M17.0917 43.8701C17.0917 46.2631 16.9821 48.3542 16.763 50.1434C16.5439 51.9214 16.2335 53.28 15.8317 54.2194C15.43 55.1587 14.9613 55.6283 14.4257 55.6283C13.9022 55.6283 13.4381 55.1587 13.0333 54.2194C12.6286 53.2689 12.3136 51.9214 12.0884 50.1769C11.8662 48.4213 11.7521 46.3917 11.746 44.0882V42.3269C11.746 39.9786 11.8571 37.9043 12.0792 36.104C12.3014 34.3036 12.6149 32.9282 13.0196 31.9777C13.4275 31.016 13.8931 30.5352 14.4166 30.5352C14.9492 30.5352 15.4178 31.0104 15.8226 31.9609C16.2304 32.9002 16.5439 34.2701 16.763 36.0704C16.9821 37.8596 17.0917 39.9451 17.0917 42.3269V43.8701ZM16.2198 42.2934C16.2198 39.3972 16.0615 37.1775 15.745 35.6343C15.4285 34.08 14.9857 33.3028 14.4166 33.3028C13.8627 33.3028 13.4259 34.08 13.1064 35.6343C12.7899 37.1775 12.627 39.3245 12.6179 42.0753V43.8701C12.6179 46.6769 12.7777 48.8854 13.0973 50.4956C13.4199 52.0947 13.8627 52.8942 14.4257 52.8942C14.9918 52.8942 15.43 52.1394 15.7404 50.6298C16.0509 49.109 16.2106 46.9341 16.2198 44.1049V42.2934Z" fill="white"/>
<path d="M22.4603 33.5208H19.2556V40.8341H20.9081C21.602 40.8676 22.1437 41.5218 22.5333 42.7966C22.9229 44.0714 23.1176 45.8046 23.1176 47.9964C23.1176 50.1993 22.9213 51.9549 22.5287 53.2633C22.1361 54.5716 21.6005 55.2481 20.9218 55.2929H18.3745V30.8706H22.4603V33.5208ZM19.2556 43.4843V52.6594H20.8579C21.2931 52.6594 21.6309 52.2345 21.8714 51.3846C22.1148 50.5348 22.2366 49.3942 22.2366 47.9628C22.2366 46.5874 22.1194 45.5027 21.8851 44.7088C21.6538 43.9148 21.3236 43.5067 20.8944 43.4843H19.2556Z" fill="white"/>
<path d="M26.4091 40.2302L28.0023 30.8706H29.034L26.9341 42.9811L29.0842 55.2929H28.0434L26.4091 45.7655L24.7656 55.2929H23.7294L25.8841 42.9811L23.7796 30.8706H24.8067L26.4091 40.2302Z" fill="white"/>
<path d="M35.0964 43.8701C35.0964 46.2631 34.9869 48.3542 34.7677 50.1434C34.5486 51.9214 34.2382 53.28 33.8365 54.2194C33.4347 55.1587 32.9661 55.6283 32.4304 55.6283C31.907 55.6283 31.4428 55.1587 31.0381 54.2194C30.6333 53.2689 30.3183 51.9214 30.0931 50.1769C29.8709 48.4213 29.7568 46.3917 29.7507 44.0882V42.3269C29.7507 39.9786 29.8618 37.9043 30.084 36.104C30.3061 34.3036 30.6196 32.9282 31.0244 31.9777C31.4322 31.016 31.8978 30.5352 32.4213 30.5352C32.9539 30.5352 33.4226 31.0104 33.8273 31.9609C34.2352 32.9002 34.5486 34.2701 34.7677 36.0704C34.9869 37.8596 35.0964 39.9451 35.0964 42.3269V43.8701ZM34.2245 42.2934C34.2245 39.3972 34.0662 37.1775 33.7497 35.6343C33.4332 34.08 32.9904 33.3028 32.4213 33.3028C31.8674 33.3028 31.4307 34.08 31.1111 35.6343C30.7946 37.1775 30.6318 39.3245 30.6226 42.0753V43.8701C30.6226 46.6769 30.7824 48.8854 31.102 50.4956C31.4246 52.0947 31.8674 52.8942 32.4304 52.8942C32.9965 52.8942 33.4347 52.1394 33.7452 50.6298C34.0556 49.109 34.2154 46.9341 34.2245 44.1049V42.2934Z" fill="white"/>
<path d="M42.2362 61.281H41.3643V55.2929H36.5938V61.2978H35.7173L35.7127 52.6594H36.256C36.542 51.4741 36.7688 49.8862 36.9362 47.8957C37.1066 45.8941 37.2131 43.7024 37.2557 41.3205L37.4018 30.8706H41.378V52.6594H42.2454L42.2362 61.281ZM37.2557 52.6594H40.4969V33.5208H38.2464L38.1505 40.6999C38.1109 43.5067 38.009 45.8997 37.8446 47.879C37.6833 49.8582 37.487 51.4517 37.2557 52.6594Z" fill="white"/>
<path d="M47.477 30.8706H48.3535V55.2929H47.477V36.473L44.2038 55.2929H43.3227V30.8706H44.2038V49.6905L47.477 30.8706Z" fill="white"/>
<path d="M51.0834 30.8706L53.2564 50.7976L55.4294 30.8706H56.5661V55.2929H55.6896V45.7823L55.7717 35.5169L53.5896 55.2929H52.9186L50.741 35.5672L50.8277 45.7823V55.2929H49.9513V30.8706H51.0834Z" fill="white"/>
<path d="M63.2265 43.8701C63.2265 46.2631 63.117 48.3542 62.8979 50.1434C62.6787 51.9214 62.3683 53.28 61.9666 54.2194C61.5648 55.1587 61.0962 55.6283 60.5605 55.6283C60.0371 55.6283 59.5729 55.1587 59.1682 54.2194C58.7634 53.2689 58.4484 51.9214 58.2232 50.1769C58.001 48.4213 57.8869 46.3917 57.8808 44.0882V42.3269C57.8808 39.9786 57.9919 37.9043 58.2141 36.104C58.4362 34.3036 58.7497 32.9282 59.1545 31.9777C59.5623 31.016 60.0279 30.5352 60.5514 30.5352C61.084 30.5352 61.5527 31.0104 61.9574 31.9609C62.3653 32.9002 62.6787 34.2701 62.8979 36.0704C63.117 37.8596 63.2265 39.9451 63.2265 42.3269V43.8701ZM62.3546 42.2934C62.3546 39.3972 62.1964 37.1775 61.8798 35.6343C61.5633 34.08 61.1205 33.3028 60.5514 33.3028C59.9975 33.3028 59.5608 34.08 59.2412 35.6343C58.9247 37.1775 58.7619 39.3245 58.7527 42.0753V43.8701C58.7527 46.6769 58.9125 48.8854 59.2321 50.4956C59.5547 52.0947 59.9975 52.8942 60.5605 52.8942C61.1266 52.8942 61.5648 52.1394 61.8753 50.6298C62.1857 49.109 62.3455 46.9341 62.3546 44.1049V42.2934Z" fill="white"/>
<path d="M71.9367 55.2929H71.0557V33.5208H67.7779V55.2929H66.9014V30.8706H71.9367V55.2929Z" fill="white"/>
<path d="M74.411 45.732V55.2929H73.5345V30.8706H75.986C76.7133 30.8706 77.2825 31.5527 77.6933 32.917C78.1072 34.2812 78.3142 36.0872 78.3142 38.3348C78.3142 40.7055 78.1118 42.5338 77.707 43.8198C77.3053 45.0946 76.7286 45.732 75.9768 45.732H74.411ZM74.411 43.0985H75.986C76.4547 43.0985 76.8138 42.6959 77.0633 41.8908C77.3129 41.0745 77.4377 39.9004 77.4377 38.3684C77.4377 36.9147 77.3129 35.7517 77.0633 34.8795C76.8138 34.0073 76.4714 33.5544 76.0362 33.5208H74.411V43.0985Z" fill="white"/>
<path d="M84.5455 43.8701C84.5455 46.2631 84.436 48.3542 84.2168 50.1434C83.9977 51.9214 83.6873 53.28 83.2856 54.2194C82.8838 55.1587 82.4151 55.6283 81.8795 55.6283C81.356 55.6283 80.8919 55.1587 80.4872 54.2194C80.0824 53.2689 79.7674 51.9214 79.5422 50.1769C79.32 48.4213 79.2059 46.3917 79.1998 44.0882V42.3269C79.1998 39.9786 79.3109 37.9043 79.5331 36.104C79.7552 34.3036 80.0687 32.9282 80.4735 31.9777C80.8813 31.016 81.3469 30.5352 81.8704 30.5352C82.403 30.5352 82.8717 31.0104 83.2764 31.9609C83.6842 32.9002 83.9977 34.2701 84.2168 36.0704C84.436 37.8596 84.5455 39.9451 84.5455 42.3269V43.8701ZM83.6736 42.2934C83.6736 39.3972 83.5153 37.1775 83.1988 35.6343C82.8823 34.08 82.4395 33.3028 81.8704 33.3028C81.3165 33.3028 80.8798 34.08 80.5602 35.6343C80.2437 37.1775 80.0809 39.3245 80.0717 42.0753V43.8701C80.0717 46.6769 80.2315 48.8854 80.5511 50.4956C80.8737 52.0947 81.3165 52.8942 81.8795 52.8942C82.4456 52.8942 82.8838 52.1394 83.1943 50.6298C83.5047 49.109 83.6645 46.9341 83.6736 44.1049V42.2934Z" fill="white"/>
<path d="M87.5859 44.323H86.7779V55.2929H85.9014V30.8706H86.7779V41.6392H87.4626L89.7863 30.8706H90.8773L88.3391 42.7127L91.0645 55.2929H89.9917L87.5859 44.323Z" fill="white"/>
<path d="M96.8348 43.8701C96.8348 46.2631 96.7252 48.3542 96.5061 50.1434C96.2869 51.9214 95.9765 53.28 95.5748 54.2194C95.1731 55.1587 94.7044 55.6283 94.1687 55.6283C93.6453 55.6283 93.1812 55.1587 92.7764 54.2194C92.3716 53.2689 92.0566 51.9214 91.8314 50.1769C91.6092 48.4213 91.4951 46.3917 91.489 44.0882V42.3269C91.489 39.9786 91.6001 37.9043 91.8223 36.104C92.0445 34.3036 92.3579 32.9282 92.7627 31.9777C93.1705 31.016 93.6361 30.5352 94.1596 30.5352C94.6922 30.5352 95.1609 31.0104 95.5657 31.9609C95.9735 32.9002 96.2869 34.2701 96.5061 36.0704C96.7252 37.8596 96.8348 39.9451 96.8348 42.3269V43.8701ZM95.9628 42.2934C95.9628 39.3972 95.8046 37.1775 95.4881 35.6343C95.1715 34.08 94.7287 33.3028 94.1596 33.3028C93.6057 33.3028 93.169 34.08 92.8494 35.6343C92.5329 37.1775 92.3701 39.3245 92.361 42.0753V43.8701C92.361 46.6769 92.5207 48.8854 92.8403 50.4956C93.1629 52.0947 93.6057 52.8942 94.1687 52.8942C94.7348 52.8942 95.1731 52.1394 95.4835 50.6298C95.7939 49.109 95.9537 46.9341 95.9628 44.1049V42.2934Z" fill="white"/>
<path d="M103.258 55.2929H102.377V44.0043H99.026V55.2929H98.1495V30.8706H99.026V41.3708H102.377V30.8706H103.258V55.2929Z" fill="white"/>
<path d="M109.704 47.5435C109.622 50.1266 109.361 52.1227 108.923 53.5316C108.488 54.9294 107.908 55.6283 107.184 55.6283C106.399 55.6283 105.769 54.594 105.294 52.5252C104.822 50.4565 104.586 47.6889 104.586 44.2223V41.874C104.586 39.604 104.696 37.608 104.915 35.8859C105.137 34.1638 105.451 32.8443 105.855 31.9274C106.26 30.9992 106.729 30.5352 107.261 30.5352C107.967 30.5352 108.534 31.262 108.96 32.7157C109.386 34.1582 109.634 36.1599 109.704 38.7206H108.823C108.747 36.7749 108.581 35.3659 108.325 34.4937C108.072 33.6215 107.718 33.1854 107.261 33.1854C106.701 33.1854 106.262 33.9458 105.942 35.4666C105.626 36.9874 105.467 39.1511 105.467 41.9579V44.323C105.467 46.9732 105.618 49.0811 105.919 50.6466C106.221 52.2121 106.642 52.9949 107.184 52.9949C107.671 52.9949 108.044 52.5923 108.302 51.7872C108.564 50.9709 108.737 49.5563 108.823 47.5435H109.704Z" fill="white"/>
<path d="M113.187 45.0442L114.716 30.8706H115.734L113.383 51.2169C113.225 52.514 113.077 53.4366 112.94 53.9845C112.803 54.5213 112.642 54.935 112.457 55.2258C112.274 55.5053 112.044 55.6451 111.767 55.6451C111.527 55.6451 111.373 55.5948 111.306 55.4941L111.333 52.9446L111.749 53.0117C112.068 53.0117 112.306 52.4469 112.461 51.3175L112.575 50.4453L112.749 48.9525L110.484 30.8706H111.466L113.187 45.0442Z" fill="white"/>
<path d="M121.564 30.8706V55.2929H120.687V33.5208H118.304L118.186 43.1992C118.14 46.442 118.049 48.8798 117.912 50.5124C117.778 52.145 117.58 53.3471 117.318 54.1187C117.057 54.8791 116.707 55.2705 116.268 55.2929H115.981V52.6594L116.163 52.6259C116.446 52.5476 116.664 52.2121 116.816 51.6195C116.968 51.0156 117.084 50.0595 117.163 48.7512C117.242 47.4429 117.299 45.43 117.332 42.7127L117.469 30.8706H121.564Z" fill="white"/>
<path d="M124.006 40.8341H125.659C126.353 40.8676 126.894 41.5218 127.284 42.7966C127.673 44.0714 127.868 45.8046 127.868 47.9964C127.868 50.1993 127.672 51.9549 127.279 53.2633C126.887 54.5716 126.351 55.2481 125.672 55.2929H123.13V30.8706H124.006V40.8341ZM124.006 43.4843V52.6594H125.609C126.044 52.6594 126.382 52.2345 126.622 51.3846C126.865 50.5348 126.987 49.3942 126.987 47.9628C126.987 46.5874 126.87 45.5027 126.636 44.7088C126.404 43.9148 126.074 43.5067 125.645 43.4843H124.006Z" fill="white"/>
<path d="M132.397 33.5208H130.26V55.2929H129.388V33.5208H127.257V30.8706H132.397V33.5208Z" fill="white"/>
<path d="M137.574 30.8706H138.45V55.2929H137.574V36.473L134.3 55.2929H133.419V30.8706H134.3V49.6905L137.574 30.8706Z" fill="white"/>
<path d="M140.924 45.732V55.2929H140.048V30.8706H142.499C143.227 30.8706 143.796 31.5527 144.207 32.917C144.621 34.2812 144.828 36.0872 144.828 38.3348C144.828 40.7055 144.625 42.5338 144.22 43.8198C143.819 45.0946 143.242 45.732 142.49 45.732H140.924ZM140.924 43.0985H142.499C142.968 43.0985 143.327 42.6959 143.577 41.8908C143.826 41.0745 143.951 39.9004 143.951 38.3684C143.951 36.9147 143.826 35.7517 143.577 34.8795C143.327 34.0073 142.985 33.5544 142.55 33.5208H140.924V43.0985Z" fill="white"/>
<path d="M151.059 43.8701C151.059 46.2631 150.949 48.3542 150.73 50.1434C150.511 51.9214 150.201 53.28 149.799 54.2194C149.397 55.1587 148.929 55.6283 148.393 55.6283C147.869 55.6283 147.405 55.1587 147.001 54.2194C146.596 53.2689 146.281 51.9214 146.056 50.1769C145.833 48.4213 145.719 46.3917 145.713 44.0882V42.3269C145.713 39.9786 145.824 37.9043 146.046 36.104C146.269 34.3036 146.582 32.9282 146.987 31.9777C147.395 31.016 147.86 30.5352 148.384 30.5352C148.916 30.5352 149.385 31.0104 149.79 31.9609C150.198 32.9002 150.511 34.2701 150.73 36.0704C150.949 37.8596 151.059 39.9451 151.059 42.3269V43.8701ZM150.187 42.2934C150.187 39.3972 150.029 37.1775 149.712 35.6343C149.396 34.08 148.953 33.3028 148.384 33.3028C147.83 33.3028 147.393 34.08 147.074 35.6343C146.757 37.1775 146.594 39.3245 146.585 42.0753V43.8701C146.585 46.6769 146.745 48.8854 147.064 50.4956C147.387 52.0947 147.83 52.8942 148.393 52.8942C148.959 52.8942 149.397 52.1394 149.708 50.6298C150.018 49.109 150.178 46.9341 150.187 44.1049V42.2934Z" fill="white"/>
<path d="M152.374 55.2929V30.8706H154.547C155.268 30.8706 155.81 31.4186 156.172 32.5144C156.537 33.6103 156.72 35.2317 156.72 37.3787C156.72 38.5193 156.631 39.5313 156.455 40.4148C156.278 41.287 156.038 41.9635 155.734 42.4443C156.093 42.8134 156.376 43.5179 156.583 44.5578C156.793 45.5866 156.898 46.8166 156.898 48.248C156.898 50.4397 156.704 52.1618 156.318 53.4142C155.931 54.6666 155.385 55.2929 154.679 55.2929H152.374ZM153.25 43.8701V52.6594H154.697C155.105 52.6594 155.426 52.2736 155.661 51.502C155.898 50.7193 156.017 49.6458 156.017 48.2815C156.017 45.3406 155.581 43.8701 154.711 43.8701H153.25ZM153.25 41.287H154.574C154.958 41.287 155.263 40.9347 155.492 40.2302C155.723 39.5258 155.839 38.5697 155.839 37.362C155.839 36.0201 155.732 35.0472 155.519 34.4434C155.306 33.8284 154.982 33.5208 154.547 33.5208H153.25V41.287Z" fill="white"/>
<path d="M161.869 48.9189H159.084L158.459 55.2929H157.555L160.093 30.8706H160.86L163.403 55.2929H162.504L161.869 48.9189ZM159.349 46.2687H161.609L160.477 34.8459L159.349 46.2687Z" fill="white"/>
<path d="M168.297 33.5208H166.16V55.2929H165.288V33.5208H163.156V30.8706H168.297V33.5208Z" fill="white"/>
<path d="M170.205 40.8341H171.857C172.551 40.8676 173.093 41.5218 173.483 42.7966C173.872 44.0714 174.067 45.8046 174.067 47.9964C174.067 50.1993 173.871 51.9549 173.478 53.2633C173.086 54.5716 172.55 55.2481 171.871 55.2929H169.328V30.8706H170.205V40.8341ZM170.205 43.4843V52.6594H171.807C172.242 52.6594 172.58 52.2345 172.821 51.3846C173.064 50.5348 173.186 49.3942 173.186 47.9628C173.186 46.5874 173.069 45.5027 172.834 44.7088C172.603 43.9148 172.273 43.5067 171.844 43.4843H170.205Z" fill="white"/>
<path d="M180.116 47.5435C180.034 50.1266 179.773 52.1227 179.335 53.5316C178.9 54.9294 178.32 55.6283 177.596 55.6283C176.811 55.6283 176.181 54.594 175.706 52.5252C175.234 50.4565 174.998 47.6889 174.998 44.2223V41.874C174.998 39.604 175.108 37.608 175.327 35.8859C175.549 34.1638 175.863 32.8443 176.267 31.9274C176.672 30.9992 177.141 30.5352 177.673 30.5352C178.379 30.5352 178.946 31.262 179.372 32.7157C179.798 34.1582 180.046 36.1599 180.116 38.7206H179.235C179.159 36.7749 178.993 35.3659 178.737 34.4937C178.484 33.6215 178.13 33.1854 177.673 33.1854C177.113 33.1854 176.674 33.9458 176.354 35.4666C176.038 36.9874 175.879 39.1511 175.879 41.9579V44.323C175.879 46.9732 176.03 49.0811 176.331 50.6466C176.633 52.2121 177.054 52.9949 177.596 52.9949C178.083 52.9949 178.456 52.5923 178.714 51.7872C178.976 50.9709 179.149 49.5563 179.235 47.5435H180.116Z" fill="white"/>
<path d="M184.795 55.2929V45.7823H183.261L181.887 55.2929H180.951L182.494 44.8933C181.636 43.652 181.207 41.4323 181.207 38.2342C181.207 35.9083 181.414 34.1023 181.828 32.8164C182.245 31.5192 182.823 30.8706 183.562 30.8706H185.676V55.2929H184.795ZM182.083 38.2342C182.083 39.7103 182.208 40.8956 182.458 41.7902C182.71 42.6848 183.06 43.1377 183.508 43.1488H184.795V33.5208H183.549C183.074 33.5208 182.71 33.9346 182.458 34.7621C182.208 35.5896 182.083 36.7469 182.083 38.2342Z" fill="white"/>
<path d="M194.478 47.5435C194.395 50.1266 194.135 52.1227 193.697 53.5316C193.262 54.9294 192.682 55.6283 191.958 55.6283C191.172 55.6283 190.542 54.594 190.068 52.5252C189.596 50.4565 189.36 47.6889 189.36 44.2223V41.874C189.36 39.604 189.47 37.608 189.689 35.8859C189.911 34.1638 190.224 32.8443 190.629 31.9274C191.034 30.9992 191.503 30.5352 192.035 30.5352C192.741 30.5352 193.307 31.262 193.733 32.7157C194.16 34.1582 194.408 36.1599 194.478 38.7206H193.596C193.52 36.7749 193.355 35.3659 193.099 34.4937C192.846 33.6215 192.492 33.1854 192.035 33.1854C191.475 33.1854 191.035 33.9458 190.716 35.4666C190.399 36.9874 190.241 39.1511 190.241 41.9579V44.323C190.241 46.9732 190.392 49.0811 190.693 50.6466C190.994 52.2121 191.416 52.9949 191.958 52.9949C192.445 52.9949 192.817 52.5923 193.076 51.7872C193.338 50.9709 193.511 49.5563 193.596 47.5435H194.478Z" fill="white"/>
<path d="M200.791 43.8701C200.791 46.2631 200.681 48.3542 200.462 50.1434C200.243 51.9214 199.933 53.28 199.531 54.2194C199.129 55.1587 198.661 55.6283 198.125 55.6283C197.602 55.6283 197.137 55.1587 196.733 54.2194C196.328 53.2689 196.013 51.9214 195.788 50.1769C195.566 48.4213 195.451 46.3917 195.445 44.0882V42.3269C195.445 39.9786 195.556 37.9043 195.779 36.104C196.001 34.3036 196.314 32.9282 196.719 31.9777C197.127 31.016 197.592 30.5352 198.116 30.5352C198.649 30.5352 199.117 31.0104 199.522 31.9609C199.93 32.9002 200.243 34.2701 200.462 36.0704C200.681 37.8596 200.791 39.9451 200.791 42.3269V43.8701ZM199.919 42.2934C199.919 39.3972 199.761 37.1775 199.444 35.6343C199.128 34.08 198.685 33.3028 198.116 33.3028C197.562 33.3028 197.125 34.08 196.806 35.6343C196.489 37.1775 196.326 39.3245 196.317 42.0753V43.8701C196.317 46.6769 196.477 48.8854 196.797 50.4956C197.119 52.0947 197.562 52.8942 198.125 52.8942C198.691 52.8942 199.129 52.1394 199.44 50.6298C199.75 49.109 199.91 46.9341 199.919 44.1049V42.2934Z" fill="white"/>
<path d="M209.314 47.5435C209.232 50.1266 208.972 52.1227 208.533 53.5316C208.098 54.9294 207.518 55.6283 206.794 55.6283C206.009 55.6283 205.379 54.594 204.904 52.5252C204.432 50.4565 204.197 47.6889 204.197 44.2223V41.874C204.197 39.604 204.306 37.608 204.525 35.8859C204.747 34.1638 205.061 32.8443 205.466 31.9274C205.87 30.9992 206.339 30.5352 206.872 30.5352C207.578 30.5352 208.144 31.262 208.57 32.7157C208.996 34.1582 209.244 36.1599 209.314 38.7206H208.433C208.357 36.7749 208.191 35.3659 207.935 34.4937C207.683 33.6215 207.328 33.1854 206.872 33.1854C206.312 33.1854 205.872 33.9458 205.552 35.4666C205.236 36.9874 205.078 39.1511 205.078 41.9579V44.323C205.078 46.9732 205.228 49.0811 205.53 50.6466C205.831 52.2121 206.252 52.9949 206.794 52.9949C207.281 52.9949 207.654 52.5923 207.913 51.7872C208.174 50.9709 208.348 49.5563 208.433 47.5435H209.314Z" fill="white"/>
<path d="M215.591 55.2929H214.71V33.5208H211.432V55.2929H210.556V30.8706H215.591V55.2929Z" fill="white"/>
<path d="M220.946 44.0043H218.065V52.6594H221.412V55.2929H217.189V30.8706H221.366V33.5208H218.065V41.3708H220.946V44.0043Z" fill="white"/>
<path d="M222.53 30.8706H223.411V52.6594H226.689V30.8706H227.565V52.5923H228.264L228.182 61.1804H227.392V55.2929H222.53V30.8706Z" fill="white"/>
<path d="M233.532 30.8706H234.408V55.2929H233.532V36.473L230.259 55.2929H229.378V30.8706H230.259V49.6905L233.532 30.8706Z" fill="white"/>
<path d="M239.759 48.9189H236.974L236.349 55.2929H235.445L237.983 30.8706H238.75L241.293 55.2929H240.393L239.759 48.9189ZM237.239 46.2687H239.498L238.366 34.8459L237.239 46.2687Z" fill="white"/>
<path d="M247.296 30.8706V55.2929H246.419V33.5208H244.036L243.917 43.1992C243.872 46.442 243.781 48.8798 243.644 50.5124C243.51 52.145 243.312 53.3471 243.05 54.1187C242.788 54.8791 242.438 55.2705 242 55.2929H241.713V52.6594L241.895 52.6259C242.178 52.5476 242.396 52.2121 242.548 51.6195C242.7 51.0156 242.816 50.0595 242.895 48.7512C242.974 47.4429 243.03 45.43 243.064 42.7127L243.201 30.8706H247.296Z" fill="white"/>
<path d="M253.08 30.8706H253.956V55.2929H253.08V36.473L249.806 55.2929H248.925V30.8706H249.806V49.6905L253.08 30.8706Z" fill="white"/>
<path d="M260.443 47.5435C260.361 50.1266 260.101 52.1227 259.663 53.5316C259.227 54.9294 258.648 55.6283 257.923 55.6283C257.138 55.6283 256.508 54.594 256.033 52.5252C255.562 50.4565 255.326 47.6889 255.326 44.2223V41.874C255.326 39.604 255.435 37.608 255.654 35.8859C255.877 34.1638 256.19 32.8443 256.595 31.9274C257 30.9992 257.468 30.5352 258.001 30.5352C258.707 30.5352 259.273 31.262 259.699 32.7157C260.125 34.1582 260.373 36.1599 260.443 38.7206H259.562C259.486 36.7749 259.32 35.3659 259.064 34.4937C258.812 33.6215 258.457 33.1854 258.001 33.1854C257.441 33.1854 257.001 33.9458 256.681 35.4666C256.365 36.9874 256.207 39.1511 256.207 41.9579V44.323C256.207 46.9732 256.357 49.0811 256.659 50.6466C256.96 52.2121 257.381 52.9949 257.923 52.9949C258.41 52.9949 258.783 52.5923 259.042 51.7872C259.303 50.9709 259.477 49.5563 259.562 47.5435H260.443Z" fill="white"/>
<path d="M266.099 33.5208H263.963V55.2929H263.091V33.5208H260.959V30.8706H266.099V33.5208Z" fill="white"/>
<path d="M272.07 43.8701C272.07 46.2631 271.961 48.3542 271.742 50.1434C271.523 51.9214 271.212 53.28 270.81 54.2194C270.409 55.1587 269.94 55.6283 269.404 55.6283C268.881 55.6283 268.417 55.1587 268.012 54.2194C267.607 53.2689 267.292 51.9214 267.067 50.1769C266.845 48.4213 266.731 46.3917 266.725 44.0882V42.3269C266.725 39.9786 266.836 37.9043 267.058 36.104C267.28 34.3036 267.594 32.9282 267.998 31.9777C268.406 31.016 268.872 30.5352 269.395 30.5352C269.928 30.5352 270.397 31.0104 270.801 31.9609C271.209 32.9002 271.523 34.2701 271.742 36.0704C271.961 37.8596 272.07 39.9451 272.07 42.3269V43.8701ZM271.198 42.2934C271.198 39.3972 271.04 37.1775 270.724 35.6343C270.407 34.08 269.964 33.3028 269.395 33.3028C268.841 33.3028 268.405 34.08 268.085 35.6343C267.769 37.1775 267.606 39.3245 267.597 42.0753V43.8701C267.597 46.6769 267.756 48.8854 268.076 50.4956C268.399 52.0947 268.841 52.8942 269.404 52.8942C269.97 52.8942 270.409 52.1394 270.719 50.6298C271.03 49.109 271.189 46.9341 271.198 44.1049V42.2934Z" fill="white"/>
<path d="M274.517 30.8706L276.69 50.7976L278.863 30.8706H280V55.2929H279.123V45.7823L279.206 35.5169L277.024 55.2929H276.352L274.175 35.5672L274.262 45.7823V55.2929H273.385V30.8706H274.517Z" fill="white"/>
</svg>
