<svg width="474" height="73" viewBox="0 0 474 73" fill="none" xmlns="http://www.w3.org/2000/svg">
<path d="M182.268 21.8399C185.761 21.6434 188.571 22.5178 190.699 24.4632C192.828 26.4085 194 29.3126 194.218 33.1753C194.374 35.9509 193.965 38.3755 192.991 40.4489C192.039 42.498 190.609 44.0983 188.702 45.2497C186.817 46.3999 184.591 47.0472 182.024 47.1917C180.659 47.2685 179.343 47.1801 178.076 46.9266C176.81 46.6962 175.722 46.3281 174.812 45.8225L177.033 40.7552C178.259 41.5215 179.775 41.8539 181.579 41.7524C183.314 41.6548 184.686 41.1019 185.697 40.0937C186.729 39.061 187.287 37.6259 187.369 35.7882C186.047 37.0459 184.265 37.7379 182.021 37.8641C180.495 37.95 179.078 37.7165 177.77 37.1636C176.462 36.5875 175.393 35.7427 174.565 34.6291C173.758 33.4912 173.313 32.1704 173.228 30.667C173.136 29.0248 173.471 27.5557 174.233 26.2598C175.018 24.9395 176.108 23.9036 177.504 23.1522C178.922 22.3763 180.51 21.9389 182.268 21.8399ZM183.375 32.8457C184.369 32.7897 185.163 32.4666 185.757 31.8763C186.349 31.2629 186.618 30.4936 186.566 29.5684C186.516 28.6664 186.162 27.9553 185.507 27.4354C184.873 26.8909 184.035 26.648 182.994 26.7066C182.023 26.7612 181.241 27.0837 180.647 27.674C180.077 28.2629 179.819 29.0316 179.872 29.9799C179.924 30.9051 180.267 31.6284 180.899 32.1496C181.555 32.6696 182.38 32.9016 183.375 32.8457ZM207.366 45.7658C205.284 45.8829 203.406 45.4897 201.731 44.5862C200.056 43.6828 198.702 42.3087 197.67 40.4641C196.66 38.5951 196.082 36.3537 195.934 33.74C195.787 31.1263 196.112 28.8457 196.907 26.8983C197.724 24.9264 198.914 23.3977 200.477 22.312C202.04 21.2263 203.863 20.6249 205.945 20.5077C208.003 20.3919 209.87 20.7857 211.545 21.6892C213.22 22.5927 214.563 23.979 215.573 25.848C216.605 27.6926 217.194 29.9218 217.341 32.5355C217.488 35.1492 217.153 37.442 216.336 39.4138C215.541 41.3612 214.362 42.8778 212.798 43.9635C211.235 45.0492 209.424 45.6499 207.366 45.7658ZM207.05 40.1452C208.206 40.0801 209.088 39.4736 209.697 38.3256C210.327 37.1532 210.574 35.3526 210.437 32.924C210.3 30.4953 209.854 28.7454 209.097 27.6742C208.363 26.5785 207.417 26.0633 206.261 26.1283C205.081 26.1947 204.176 26.8141 203.546 27.9865C202.938 29.1345 202.702 30.9228 202.839 33.3515C202.975 35.7802 203.411 37.5423 204.146 38.6379C204.902 39.7091 205.87 40.2115 207.05 40.1452ZM230.423 44.4684C228.341 44.5855 226.463 44.1924 224.788 43.2889C223.113 42.3854 221.759 41.0113 220.728 39.1667C219.717 37.2977 219.139 35.0563 218.992 32.4426C218.845 29.8289 219.169 27.5483 219.964 25.6009C220.781 23.6291 221.972 22.1003 223.535 21.0146C225.098 19.9289 226.92 19.3275 229.002 19.2104C231.061 19.0945 232.927 19.4883 234.602 20.3918C236.278 21.2953 237.62 22.6816 238.63 24.5506C239.662 26.3952 240.252 28.6244 240.399 31.2381C240.546 33.8518 240.211 36.1446 239.394 38.1164C238.598 40.0639 237.419 41.5804 235.856 42.6661C234.293 43.7518 232.482 44.3526 230.423 44.4684ZM230.107 38.8478C231.263 38.7827 232.146 38.1762 232.754 37.0282C233.384 35.8558 233.631 34.0552 233.494 31.6266C233.358 29.1979 232.911 27.448 232.155 26.3768C231.42 25.2812 230.475 24.7659 229.318 24.831C228.139 24.8973 227.234 25.5167 226.604 26.6892C225.995 27.8371 225.759 29.6255 225.896 32.0541C226.033 34.4828 226.468 36.2449 227.203 37.3406C227.959 38.4118 228.927 38.9142 230.107 38.8478ZM262.883 42.6419C260.802 42.7591 258.923 42.3659 257.248 41.4624C255.573 40.5589 254.22 39.1849 253.188 37.3403C252.178 35.4712 251.599 33.2298 251.452 30.6161C251.305 28.0024 251.629 25.7219 252.424 23.7745C253.242 21.8026 254.432 20.2738 255.995 19.1881C257.558 18.1024 259.381 17.501 261.462 17.3839C263.521 17.2681 265.388 17.6619 267.063 18.5654C268.738 19.4689 270.08 20.8551 271.09 22.7242C272.122 24.5688 272.712 26.7979 272.859 29.4116C273.006 32.0253 272.671 34.3181 271.854 36.29C271.058 38.2374 269.879 39.754 268.316 40.8396C266.753 41.9253 264.942 42.5261 262.883 42.6419ZM262.567 37.0213C263.724 36.9563 264.606 36.3497 265.214 35.2017C265.845 34.0293 266.091 32.2288 265.955 29.8001C265.818 27.3715 265.371 25.6215 264.615 24.5503C263.881 23.4547 262.935 22.9394 261.778 23.0045C260.599 23.0709 259.694 23.6903 259.064 24.8627C258.456 26.0107 258.22 27.799 258.356 30.2277C258.493 32.6563 258.929 34.4185 259.663 35.5141C260.42 36.5853 261.388 37.0877 262.567 37.0213ZM285.941 41.3446C283.859 41.4617 281.981 41.0685 280.306 40.165C278.631 39.2615 277.277 37.8875 276.245 36.0429C275.235 34.1738 274.656 31.9325 274.509 29.3188C274.362 26.7051 274.686 24.4245 275.482 22.4771C276.299 20.5052 277.489 18.9765 279.052 17.8908C280.615 16.8051 282.438 16.2036 284.52 16.0865C286.578 15.9707 288.445 16.3645 290.12 17.268C291.795 18.1715 293.138 19.5578 294.148 21.4268C295.18 23.2714 295.769 25.5006 295.916 28.1143C296.063 30.728 295.728 33.0207 294.911 34.9926C294.116 36.94 292.937 38.4566 291.373 39.5423C289.81 40.628 287.999 41.2287 285.941 41.3446ZM285.625 35.7239C286.781 35.6589 287.663 35.0523 288.272 33.9044C288.902 32.7319 289.149 30.9314 289.012 28.5027C288.875 26.0741 288.429 24.3242 287.672 23.253C286.938 22.1573 285.992 21.642 284.836 21.7071C283.656 21.7735 282.751 22.3929 282.121 23.5653C281.513 24.7133 281.277 26.5016 281.414 28.9303C281.55 31.3589 281.986 33.1211 282.721 34.2167C283.477 35.2879 284.445 35.7903 285.625 35.7239ZM308.998 40.0472C306.916 40.1643 305.038 39.7711 303.363 38.8676C301.688 37.9642 300.334 36.5901 299.302 34.7455C298.292 32.8765 297.714 30.6351 297.567 28.0214C297.42 25.4077 297.744 23.1271 298.539 21.1797C299.356 19.2078 300.547 17.6791 302.11 16.5934C303.673 15.5077 305.495 14.9063 307.577 14.7891C309.636 14.6733 311.502 15.0671 313.177 15.9706C314.852 16.8741 316.195 18.2604 317.205 20.1294C318.237 21.974 318.827 24.2032 318.974 26.8169C319.121 29.4306 318.786 31.7234 317.968 33.6952C317.173 35.6426 315.994 37.1592 314.431 38.2449C312.868 39.3306 311.057 39.9313 308.998 40.0472ZM308.682 34.4266C309.838 34.3615 310.721 33.755 311.329 32.607C311.959 31.4346 312.206 29.634 312.069 27.2054C311.933 24.7767 311.486 23.0268 310.73 21.9556C309.995 20.8599 309.05 20.3447 307.893 20.4097C306.714 20.4761 305.809 21.0955 305.179 22.2679C304.57 23.4159 304.334 25.2042 304.471 27.6329C304.608 30.0616 305.043 31.8237 305.778 32.9193C306.534 33.9905 307.502 34.4929 308.682 34.4266ZM341.458 38.2207C339.377 38.3379 337.498 37.9447 335.823 37.0412C334.148 36.1377 332.795 34.7636 331.763 32.919C330.753 31.05 330.174 28.8086 330.027 26.1949C329.88 23.5812 330.204 21.3007 330.999 19.3532C331.817 17.3814 333.007 15.8526 334.57 14.7669C336.133 13.6812 337.955 13.0798 340.037 12.9627C342.096 12.8468 343.963 13.2407 345.638 14.1442C347.313 15.0477 348.655 16.4339 349.665 18.303C350.697 20.1476 351.287 22.3767 351.434 24.9904C351.581 27.6041 351.246 29.8969 350.429 31.8687C349.633 33.8162 348.454 35.3327 346.891 36.4184C345.328 37.5041 343.517 38.1049 341.458 38.2207ZM341.142 32.6001C342.299 32.535 343.181 31.9285 343.789 30.7805C344.419 29.6081 344.666 27.8076 344.53 25.3789C344.393 22.9502 343.946 21.2003 343.19 20.1291C342.455 19.0335 341.51 18.5182 340.353 18.5833C339.174 18.6497 338.269 19.2691 337.639 20.4415C337.031 21.5895 336.795 23.3778 336.931 25.8064C337.068 28.2351 337.504 29.9972 338.238 31.0929C338.995 32.1641 339.963 32.6665 341.142 32.6001ZM364.516 36.9233C362.434 37.0405 360.556 36.6473 358.881 35.7438C357.206 34.8403 355.852 33.4663 354.82 31.6217C353.81 29.7526 353.231 27.5112 353.084 24.8975C352.937 22.2838 353.261 20.0033 354.057 18.0559C354.874 16.084 356.064 14.5552 357.627 13.4695C359.19 12.3838 361.013 11.7824 363.095 11.6653C365.153 11.5495 367.02 11.9433 368.695 12.8468C370.37 13.7503 371.713 15.1365 372.723 17.0056C373.755 18.8502 374.344 21.0793 374.491 23.693C374.638 26.3067 374.303 28.5995 373.486 30.5714C372.691 32.5188 371.511 34.0354 369.948 35.121C368.385 36.2067 366.574 36.8075 364.516 36.9233ZM364.199 31.3027C365.356 31.2377 366.238 30.6311 366.847 29.4831C367.477 28.3107 367.724 26.5102 367.587 24.0815C367.45 21.6529 367.004 19.9029 366.247 18.8317C365.513 17.7361 364.567 17.2208 363.411 17.2859C362.231 17.3523 361.326 17.9717 360.696 19.1441C360.088 20.2921 359.852 22.0804 359.989 24.5091C360.125 26.9377 360.561 28.6999 361.295 29.7955C362.052 30.8667 363.02 31.3691 364.199 31.3027ZM387.573 35.626C385.491 35.7431 383.613 35.3499 381.938 34.4464C380.263 33.5429 378.909 32.1689 377.877 30.3243C376.867 28.4552 376.289 26.2139 376.142 23.6002C375.995 20.9865 376.319 18.7059 377.114 16.7585C377.931 14.7866 379.121 13.2579 380.685 12.1722C382.248 11.0865 384.07 10.485 386.152 10.3679C388.21 10.2521 390.077 10.6459 391.752 11.5494C393.427 12.4529 394.77 13.8392 395.78 15.7082C396.812 17.5528 397.402 19.782 397.549 22.3957C397.696 25.0094 397.361 27.3021 396.543 29.274C395.748 31.2214 394.569 32.738 393.006 33.8237C391.443 34.9094 389.632 35.5101 387.573 35.626ZM387.257 30.0053C388.413 29.9403 389.296 29.3337 389.904 28.1858C390.534 27.0133 390.781 25.2128 390.644 22.7841C390.508 20.3555 390.061 18.6056 389.305 17.5344C388.57 16.4387 387.625 15.9234 386.468 15.9885C385.289 16.0549 384.384 16.6743 383.754 17.8467C383.145 18.9947 382.909 20.783 383.046 23.2117C383.183 25.6403 383.618 27.4025 384.353 28.4981C385.109 29.5693 386.077 30.0717 387.257 30.0053ZM418.836 25.5137L418.94 27.3525L426.33 26.9367L426.519 30.3021L419.129 30.7179L419.277 33.3548L412.373 33.7433L412.225 31.1064L408.998 31.288L408.809 27.9226L412.035 27.741L411.007 9.45667L422.109 8.83196C425.509 8.64064 428.197 9.18553 430.171 10.4666C432.146 11.7477 433.21 13.7413 433.362 16.4476C433.514 19.1538 432.681 21.2542 430.862 22.7487C429.044 24.2432 426.434 25.0861 423.034 25.2774L418.836 25.5137ZM426.427 16.9074C426.375 15.9822 425.988 15.2962 425.267 14.8496C424.567 14.3784 423.593 14.178 422.344 14.2483L418.215 14.4806L418.541 20.2747L422.67 20.0424C423.919 19.9721 424.865 19.6637 425.507 19.1171C426.172 18.5692 426.479 17.8326 426.427 16.9074Z" fill="black"/>
<path d="M59.2208 50.3327L59.5723 56.5808L55.7773 56.7944L55.611 53.8381L46.2179 54.3666L46.3842 57.3229L42.5682 57.5376L42.2167 51.2895L42.7408 51.26C43.6067 51.1973 44.1813 50.569 44.4647 49.3752C44.762 48.1806 44.8905 46.4767 44.8501 44.2635L44.763 39.7252L56.5883 39.0598L57.2289 50.4448L59.2208 50.3327ZM48.4974 44.4158C48.5296 45.9845 48.4785 47.3194 48.3442 48.4207C48.2098 49.522 47.9565 50.3776 47.5842 50.9875L53.1404 50.6749L52.685 42.5817L48.4707 42.8188L48.4974 44.4158ZM75.1227 47.1033L73.3825 47.2012L73.6987 52.8203L69.6311 53.0492L69.3149 47.4301L67.5747 47.528L65.0184 53.3087L60.217 53.5789L63.9564 45.6493L59.6428 38.8879L64.0039 38.6426L67.2601 44.1804L69.1262 44.0754L68.8053 38.3724L72.8728 38.1435L73.1937 43.8465L74.9759 43.7462L77.6533 37.8745L81.9934 37.6303L78.4655 44.8329L83.0708 52.293L78.2904 52.5619L75.1227 47.1033ZM96.2229 48.3348L96.4035 51.5428L84.6201 52.2058L83.7943 37.529L95.3051 36.8813L95.4856 40.0892L88.0843 40.5057L88.2235 42.9798L94.7442 42.6129L94.9188 45.716L88.3981 46.0829L88.5491 48.7666L96.2229 48.3348ZM104.596 45.4449L102.709 45.5511L103.025 51.1702L98.8944 51.4026L98.0686 36.7258L102.199 36.4934L102.52 42.1964L104.512 42.0843L107.692 36.1843L112.053 35.9389L107.86 43.2841L112.921 50.6133L108.246 50.8764L104.596 45.4449ZM127.412 35.0747L128.238 49.7515L124.128 49.9827L123.488 38.5978L117.911 38.9116L118.551 50.2966L114.463 50.5266L113.637 35.8498L127.412 35.0747ZM138.814 49.4509C137.263 49.5382 135.846 49.2884 134.565 48.7014C133.298 48.1136 132.276 47.2597 131.498 46.1397C130.733 45.0188 130.31 43.7316 130.229 42.2779C130.147 40.8242 130.423 39.4976 131.056 38.2981C131.704 37.0978 132.624 36.1346 133.817 35.4084C135.024 34.6815 136.404 34.2743 137.955 34.187C139.507 34.0997 140.916 34.3499 142.183 34.9377C143.464 35.5247 144.487 36.3786 145.251 37.4994C146.029 38.6195 146.459 39.9063 146.541 41.36C146.623 42.8137 146.34 44.1407 145.692 45.341C145.058 46.5405 144.138 47.5037 142.931 48.2307C141.738 48.9568 140.366 49.3636 138.814 49.4509ZM138.621 46.0123C139.361 45.9706 140.023 45.7582 140.604 45.3749C141.185 44.9916 141.633 44.4757 141.947 43.827C142.26 43.1643 142.394 42.4207 142.347 41.596C142.301 40.7713 142.085 40.0543 141.701 39.4449C141.315 38.8216 140.812 38.3521 140.191 38.0365C139.57 37.7209 138.89 37.5839 138.149 37.6256C137.408 37.6673 136.747 37.8797 136.165 38.263C135.584 38.6463 135.137 39.1692 134.823 39.8319C134.509 40.4805 134.376 41.2172 134.422 42.0419C134.468 42.8666 134.684 43.5906 135.07 44.214C135.455 44.8233 135.958 45.2858 136.578 45.6014C137.199 45.917 137.88 46.054 138.621 46.0123ZM160.363 36.5229L155.876 36.7753L156.517 48.1603L152.428 48.3904L151.788 37.0054L147.28 37.259L147.094 33.9672L160.178 33.2311L160.363 36.5229Z" fill="black"/>
</svg>
