<svg width="580" height="40" viewBox="0 0 580 40" fill="none" xmlns="http://www.w3.org/2000/svg">
<path d="M5.54039 0.436205H6.70935V32.1919H5.54039V7.72083L1.17505 32.1919H0V0.436205H1.17505V24.9073L5.54039 0.436205Z" fill="white"/>
<path d="M10.3502 0.436205L13.2482 26.3468L16.1463 0.436205H17.6623V32.1919H16.4933V19.8255L16.6029 6.47764L13.6927 32.1919H12.7977L9.89356 6.54307L10.0092 19.8255V32.1919H8.84028V0.436205H10.3502Z" fill="white"/>
<path d="M24.7369 17.5136H20.8952V28.7677H25.358V32.1919H19.7262V0.436205H25.2971V3.88222H20.8952V14.0894H24.7369V17.5136Z" fill="white"/>
<path d="M36.4631 17.3391C36.4631 20.4507 36.317 23.1698 36.0247 25.4962C35.7325 27.8081 35.3185 29.5747 34.7827 30.7961C34.2469 32.0174 33.6219 32.6281 32.9075 32.6281C32.2337 32.6281 31.6289 32.0465 31.0932 30.8833C30.5615 29.7201 30.1434 28.0553 29.839 25.8888C29.5386 23.7223 29.3722 21.1923 29.3397 18.2988H28.0673V32.1919H26.8983V0.436205H28.0673V15.0055H29.3336C29.3458 12.0102 29.498 9.38568 29.7903 7.13195C30.0825 4.86369 30.4985 3.1116 31.0384 1.87568C31.5782 0.625227 32.1972 0 32.8953 0C33.6056 0 34.2307 0.617957 34.7705 1.85387C35.3144 3.07525 35.7325 4.85642 36.0247 7.19738C36.317 9.52381 36.4631 12.2356 36.4631 15.3326V17.3391ZM35.3002 15.289C35.3002 11.5231 35.0892 8.63686 34.667 6.63032C34.2449 4.60923 33.6543 3.59869 32.8953 3.59869C32.1566 3.59869 31.5742 4.60923 31.148 6.63032C30.7258 8.63686 30.5087 11.4286 30.4965 15.0055V17.3391C30.4965 20.9887 30.7096 23.8604 31.1358 25.9542C31.566 28.0334 32.1566 29.0731 32.9075 29.0731C33.6625 29.0731 34.2469 28.0916 34.6609 26.1287C35.0749 24.1512 35.288 21.3232 35.3002 17.6445V15.289Z" fill="white"/>
<path d="M43.9091 3.88222H41.0598V32.1919H39.8969V3.88222H37.0537V0.436205H43.9091V3.88222Z" fill="white"/>
<path d="M51.5744 22.1156C51.4648 25.4744 51.1177 28.0698 50.5333 29.9019C49.9528 31.7194 49.1796 32.6281 48.2136 32.6281C47.1664 32.6281 46.3262 31.2832 45.693 28.5932C45.0639 25.9033 44.7493 22.3046 44.7493 17.7972V14.7437C44.7493 11.7921 44.8954 9.19666 45.1877 6.95747C45.484 4.71828 45.9021 3.00254 46.4419 1.81025C46.9817 0.603417 47.6068 0 48.3171 0C49.2588 0 50.0137 0.945111 50.582 2.83533C51.1502 4.71101 51.481 7.3137 51.5744 10.6434H50.3993C50.2978 8.11341 50.0766 6.28135 49.7357 5.14722C49.3988 4.01309 48.9259 3.44602 48.3171 3.44602C47.5703 3.44602 46.9837 4.43475 46.5576 6.41221C46.1354 8.38968 45.9244 11.2032 45.9244 14.8528V17.928C45.9244 21.374 46.1253 24.1149 46.5271 26.1505C46.929 28.1861 47.4911 29.2039 48.2136 29.2039C48.863 29.2039 49.3602 28.6805 49.7052 27.6336C50.0543 26.5722 50.2857 24.7328 50.3993 22.1156H51.5744Z" fill="white"/>
<path d="M57.8149 32.1919V19.8255H55.7692L53.9366 32.1919H52.6885L54.7464 18.6696C53.6018 17.0556 53.0295 14.1694 53.0295 10.0109C53.0295 6.98655 53.3055 4.63831 53.8575 2.96619C54.4136 1.27953 55.1847 0.436205 56.1711 0.436205H58.99V32.1919H57.8149ZM54.1984 10.0109C54.1984 11.9302 54.3649 13.4715 54.6977 14.6347C55.0346 15.7979 55.5013 16.3868 56.098 16.4013H57.8149V3.88222H56.1528C55.5196 3.88222 55.0346 4.42021 54.6977 5.49618C54.3649 6.57216 54.1984 8.07706 54.1984 10.0109Z" fill="white"/>
<path d="M70.9779 32.1919H69.8029V3.88222H65.4314V32.1919H64.2625V0.436205H70.9779V32.1919Z" fill="white"/>
<path d="M74.2778 19.7601V32.1919H73.1088V0.436205H76.3783C77.3483 0.436205 78.1074 1.32316 78.6553 3.09706C79.2073 4.87096 79.4833 7.21919 79.4833 10.1418C79.4833 13.2243 79.2134 15.6016 78.6736 17.2737C78.1378 18.9313 77.3686 19.7601 76.3661 19.7601H74.2778ZM74.2778 16.3359H76.3783C77.0033 16.3359 77.4823 15.8124 77.8151 14.7655C78.148 13.7041 78.3144 12.1774 78.3144 10.1854C78.3144 8.29516 78.148 6.78299 77.8151 5.64885C77.4823 4.51472 77.0257 3.92584 76.4452 3.88222H74.2778V16.3359Z" fill="white"/>
<path d="M87.7939 17.3391C87.7939 20.4507 87.6478 23.1698 87.3556 25.4962C87.0633 27.8081 86.6493 29.5747 86.1135 30.7961C85.5778 32.0174 84.9527 32.6281 84.2383 32.6281C83.5402 32.6281 82.9212 32.0174 82.3814 30.7961C81.8415 29.5602 81.4215 27.8081 81.1211 25.5398C80.8248 23.257 80.6726 20.618 80.6645 17.6227V15.3326C80.6645 12.2792 80.8126 9.58197 81.1089 7.241C81.4052 4.90004 81.8233 3.1116 82.3631 1.87568C82.907 0.625227 83.528 0 84.2261 0C84.9365 0 85.5615 0.617957 86.1014 1.85387C86.6453 3.07525 87.0633 4.85642 87.3556 7.19738C87.6478 9.52381 87.7939 12.2356 87.7939 15.3326V17.3391ZM86.631 15.289C86.631 11.5231 86.42 8.63686 85.9979 6.63032C85.5757 4.60923 84.9852 3.59869 84.2261 3.59869C83.4874 3.59869 82.905 4.60923 82.4788 6.63032C82.0567 8.63686 81.8395 11.4286 81.8273 15.0055V17.3391C81.8273 20.9887 82.0404 23.8604 82.4666 25.9542C82.8969 28.0334 83.4874 29.0731 84.2383 29.0731C84.9933 29.0731 85.5778 28.0916 85.9918 26.1287C86.4058 24.1512 86.6189 21.3232 86.631 17.6445V15.289Z" fill="white"/>
<path d="M95.5018 3.88222H92.6524V32.1919H91.4895V3.88222H88.6463V0.436205H95.5018V3.88222Z" fill="white"/>
<path d="M102.406 0.436205H103.575V32.1919H102.406V7.72083L98.0406 32.1919H96.8655V0.436205H98.0406V24.9073L102.406 0.436205Z" fill="white"/>
<path d="M105.706 32.1919V0.436205H108.604C109.566 0.436205 110.288 1.14867 110.771 2.57361C111.258 3.99855 111.502 6.10687 111.502 8.89858C111.502 10.3817 111.384 11.6976 111.149 12.8462C110.913 13.9804 110.593 14.8601 110.187 15.4853C110.666 15.9651 111.043 16.8811 111.319 18.2334C111.599 19.5711 111.739 21.1705 111.739 23.0316C111.739 25.8815 111.482 28.1207 110.966 29.7492C110.451 31.3777 109.722 32.1919 108.78 32.1919H105.706ZM106.875 17.3391V28.7677H108.805C109.349 28.7677 109.777 28.2661 110.089 27.2628C110.406 26.245 110.564 24.8491 110.564 23.0752C110.564 19.2512 109.984 17.3391 108.823 17.3391H106.875ZM106.875 13.9804H108.64C109.152 13.9804 109.56 13.5224 109.864 12.6063C110.173 11.6903 110.327 10.4471 110.327 8.87677C110.327 7.13195 110.185 5.86696 109.901 5.08179C109.617 4.28208 109.184 3.88222 108.604 3.88222H106.875V13.9804Z" fill="white"/>
<path d="M120.293 17.3391C120.293 20.4507 120.147 23.1698 119.855 25.4962C119.563 27.8081 119.149 29.5747 118.613 30.7961C118.077 32.0174 117.452 32.6281 116.738 32.6281C116.04 32.6281 115.421 32.0174 114.881 30.7961C114.341 29.5602 113.921 27.8081 113.621 25.5398C113.324 23.257 113.172 20.618 113.164 17.6227V15.3326C113.164 12.2792 113.312 9.58197 113.608 7.241C113.905 4.90004 114.323 3.1116 114.863 1.87568C115.407 0.625227 116.028 0 116.726 0C117.436 0 118.061 0.617957 118.601 1.85387C119.145 3.07525 119.563 4.85642 119.855 7.19738C120.147 9.52381 120.293 12.2356 120.293 15.3326V17.3391ZM119.131 15.289C119.131 11.5231 118.92 8.63686 118.497 6.63032C118.075 4.60923 117.485 3.59869 116.726 3.59869C115.987 3.59869 115.405 4.60923 114.978 6.63032C114.556 8.63686 114.339 11.4286 114.327 15.0055V17.3391C114.327 20.9887 114.54 23.8604 114.966 25.9542C115.396 28.0334 115.987 29.0731 116.738 29.0731C117.493 29.0731 118.077 28.0916 118.491 26.1287C118.905 24.1512 119.118 21.3232 119.131 17.6445V15.289Z" fill="white"/>
<path d="M128.817 32.1919H127.642V3.88222H123.271V32.1919H122.102V0.436205H128.817V32.1919Z" fill="white"/>
<path d="M137.767 17.3391C137.767 20.4507 137.621 23.1698 137.329 25.4962C137.036 27.8081 136.622 29.5747 136.087 30.7961C135.551 32.0174 134.926 32.6281 134.211 32.6281C133.513 32.6281 132.894 32.0174 132.355 30.7961C131.815 29.5602 131.395 27.8081 131.094 25.5398C130.798 23.257 130.646 20.618 130.638 17.6227V15.3326C130.638 12.2792 130.786 9.58197 131.082 7.241C131.378 4.90004 131.796 3.1116 132.336 1.87568C132.88 0.625227 133.501 0 134.199 0C134.91 0 135.535 0.617957 136.074 1.85387C136.618 3.07525 137.036 4.85642 137.329 7.19738C137.621 9.52381 137.767 12.2356 137.767 15.3326V17.3391ZM136.604 15.289C136.604 11.5231 136.393 8.63686 135.971 6.63032C135.549 4.60923 134.958 3.59869 134.199 3.59869C133.461 3.59869 132.878 4.60923 132.452 6.63032C132.03 8.63686 131.813 11.4286 131.8 15.0055V17.3391C131.8 20.9887 132.014 23.8604 132.44 25.9542C132.87 28.0334 133.461 29.0731 134.211 29.0731C134.966 29.0731 135.551 28.0916 135.965 26.1287C136.379 24.1512 136.592 21.3232 136.604 17.6445V15.289Z" fill="white"/>
<path d="M141.822 17.928H140.744V32.1919H139.575V0.436205H140.744V14.4384H141.657L144.756 0.436205H146.212L142.826 15.8342L146.461 32.1919H145.03L141.822 17.928Z" fill="white"/>
<path d="M152.428 23.904H148.714L147.88 32.1919H146.674L150.059 0.436205H151.082L154.473 32.1919H153.274L152.428 23.904ZM149.067 20.458H152.081L150.571 5.60523L149.067 20.458Z" fill="white"/>
<path d="M160.215 8.96401C160.215 7.27735 160.042 5.93966 159.697 4.95093C159.356 3.94766 158.875 3.44602 158.254 3.44602C157.735 3.44602 157.298 3.9622 156.945 4.99455C156.596 6.01236 156.422 7.27735 156.422 8.78953H155.253C155.253 7.10287 155.381 5.59069 155.636 4.253C155.896 2.9153 156.257 1.87568 156.72 1.13413C157.183 0.378044 157.694 0 158.254 0C159.245 0 160.014 0.799709 160.562 2.39913C161.11 3.98401 161.384 6.19411 161.384 9.02944C161.384 10.498 161.258 11.8357 161.006 13.0425C160.755 14.2494 160.404 15.2017 159.953 15.8997C160.996 17.1501 161.518 19.6292 161.518 23.337C161.518 26.1868 161.221 28.4478 160.629 30.12C160.036 31.7921 159.245 32.6281 158.254 32.6281C157.666 32.6281 157.13 32.2574 156.647 31.5158C156.168 30.7597 155.795 29.691 155.527 28.3097C155.259 26.9284 155.125 25.2853 155.125 23.3806H156.294C156.294 25.0527 156.479 26.4486 156.848 27.5682C157.217 28.6732 157.686 29.2257 158.254 29.2257C158.892 29.2257 159.399 28.695 159.776 27.6336C160.158 26.5722 160.349 25.169 160.349 23.4242C160.349 19.7019 159.705 17.8044 158.419 17.7317H157.323V14.2857H158.413C159.005 14.2421 159.454 13.7623 159.758 12.8462C160.063 11.9302 160.215 10.6361 160.215 8.96401Z" fill="white"/>
<path d="M167.965 23.904H164.251L163.417 32.1919H162.212L165.597 0.436205H166.62L170.011 32.1919H168.812L167.965 23.904ZM164.604 20.458H167.618L166.108 5.60523L164.604 20.458Z" fill="white"/>
<path d="M178.017 32.1919H176.842V17.5136H172.373V32.1919H171.204V0.436205H172.373V14.0894H176.842V0.436205H178.017V32.1919Z" fill="white"/>
<path d="M185.682 0.436205H186.851V32.1919H185.682V7.72083L181.317 32.1919H180.142V0.436205H181.317V24.9073L185.682 0.436205Z" fill="white"/>
<path d="M193.622 32.1919V19.8255H191.576L189.743 32.1919H188.495L190.553 18.6696C189.408 17.0556 188.836 14.1694 188.836 10.0109C188.836 6.98655 189.112 4.63831 189.664 2.96619C190.22 1.27953 190.991 0.436205 191.978 0.436205H194.797V32.1919H193.622ZM190.005 10.0109C190.005 11.9302 190.171 13.4715 190.504 14.6347C190.841 15.7979 191.308 16.3868 191.905 16.4013H193.622V3.88222H191.959C191.326 3.88222 190.841 4.42021 190.504 5.49618C190.171 6.57216 190.005 8.07706 190.005 10.0109Z" fill="white"/>
<path d="M198.005 23.2279H196.988L196.909 0.436205H198.09L198.005 23.2279ZM196.867 30.1636C196.867 29.5093 196.921 28.964 197.031 28.5278C197.145 28.0771 197.311 27.8517 197.53 27.8517C197.749 27.8517 197.916 28.0771 198.029 28.5278C198.143 28.964 198.2 29.5093 198.2 30.1636C198.2 30.8179 198.143 31.3631 198.029 31.7993C197.916 32.221 197.749 32.4318 197.53 32.4318C197.311 32.4318 197.145 32.221 197.031 31.7993C196.921 31.3631 196.867 30.8179 196.867 30.1636Z" fill="white"/>
<path d="M210.042 32.1919H208.867V17.5136H204.398V32.1919H203.229V0.436205H204.398V14.0894H208.867V0.436205H210.042V32.1919Z" fill="white"/>
<path d="M217.129 17.5136H213.287V28.7677H217.75V32.1919H212.118V0.436205H217.689V3.88222H213.287V14.0894H217.129V17.5136Z" fill="white"/>
<path d="M226.024 17.3391C226.024 20.4507 225.878 23.1698 225.585 25.4962C225.293 27.8081 224.879 29.5747 224.343 30.7961C223.808 32.0174 223.182 32.6281 222.468 32.6281C221.77 32.6281 221.151 32.0174 220.611 30.7961C220.071 29.5602 219.651 27.8081 219.351 25.5398C219.055 23.257 218.902 20.618 218.894 17.6227V15.3326C218.894 12.2792 219.042 9.58197 219.339 7.241C219.635 4.90004 220.053 3.1116 220.593 1.87568C221.137 0.625227 221.758 0 222.456 0C223.166 0 223.791 0.617957 224.331 1.85387C224.875 3.07525 225.293 4.85642 225.585 7.19738C225.878 9.52381 226.024 12.2356 226.024 15.3326V17.3391ZM224.861 15.289C224.861 11.5231 224.65 8.63686 224.228 6.63032C223.805 4.60923 223.215 3.59869 222.456 3.59869C221.717 3.59869 221.135 4.60923 220.709 6.63032C220.286 8.63686 220.069 11.4286 220.057 15.0055V17.3391C220.057 20.9887 220.27 23.8604 220.696 25.9542C221.127 28.0334 221.717 29.0731 222.468 29.0731C223.223 29.0731 223.808 28.0916 224.222 26.1287C224.636 24.1512 224.849 21.3232 224.861 17.6445V15.289Z" fill="white"/>
<path d="M233.184 3.88222H228.91V13.3915H231.114C232.039 13.4351 232.761 14.2857 233.281 15.9433C233.801 17.6009 234.06 19.8546 234.06 22.7045C234.06 25.5689 233.798 27.8517 233.275 29.5529C232.751 31.2541 232.037 32.1338 231.132 32.1919H227.734V0.436205H233.184V3.88222ZM228.91 16.8375V28.7677H231.047C231.627 28.7677 232.078 28.2152 232.398 27.1101C232.723 26.0051 232.885 24.522 232.885 22.6608C232.885 20.8724 232.729 19.462 232.416 18.4297C232.108 17.3973 231.668 16.8666 231.095 16.8375H228.91Z" fill="white"/>
<path d="M238.45 12.6063L240.575 0.436205H241.951L239.15 16.1832L242.018 32.1919H240.63L238.45 19.8037L236.258 32.1919H234.876L237.75 16.1832L234.943 0.436205H236.313L238.45 12.6063Z" fill="white"/>
<path d="M250.036 17.3391C250.036 20.4507 249.89 23.1698 249.598 25.4962C249.306 27.8081 248.891 29.5747 248.356 30.7961C247.82 32.0174 247.195 32.6281 246.481 32.6281C245.782 32.6281 245.163 32.0174 244.624 30.7961C244.084 29.5602 243.664 27.8081 243.363 25.5398C243.067 23.257 242.915 20.618 242.907 17.6227V15.3326C242.907 12.2792 243.055 9.58197 243.351 7.241C243.647 4.90004 244.065 3.1116 244.605 1.87568C245.149 0.625227 245.77 0 246.468 0C247.179 0 247.804 0.617957 248.344 1.85387C248.887 3.07525 249.306 4.85642 249.598 7.19738C249.89 9.52381 250.036 12.2356 250.036 15.3326V17.3391ZM248.873 15.289C248.873 11.5231 248.662 8.63686 248.24 6.63032C247.818 4.60923 247.227 3.59869 246.468 3.59869C245.73 3.59869 245.147 4.60923 244.721 6.63032C244.299 8.63686 244.082 11.4286 244.07 15.0055V17.3391C244.07 20.9887 244.283 23.8604 244.709 25.9542C245.139 28.0334 245.73 29.0731 246.481 29.0731C247.235 29.0731 247.82 28.0916 248.234 26.1287C248.648 24.1512 248.861 21.3232 248.873 17.6445V15.289Z" fill="white"/>
<path d="M259.558 39.9782H258.395V32.1919H252.033V40H250.864L250.858 28.7677H251.583C251.964 27.2265 252.266 25.1618 252.49 22.5736C252.717 19.9709 252.859 17.121 252.916 14.024L253.111 0.436205H258.414V28.7677H259.57L259.558 39.9782ZM252.916 28.7677H257.239V3.88222H254.237L254.109 13.217C254.056 16.8666 253.92 19.9782 253.701 22.5518C253.486 25.1254 253.224 27.1974 252.916 28.7677Z" fill="white"/>
<path d="M266.548 0.436205H267.717V32.1919H266.548V7.72083L262.182 32.1919H261.007V0.436205H262.182V24.9073L266.548 0.436205Z" fill="white"/>
<path d="M271.357 0.436205L274.256 26.3468L277.154 0.436205H278.67V32.1919H277.501V19.8255L277.61 6.47764L274.7 32.1919H273.805L270.901 6.54307L271.017 19.8255V32.1919H269.848V0.436205H271.357Z" fill="white"/>
<path d="M287.552 17.3391C287.552 20.4507 287.406 23.1698 287.114 25.4962C286.822 27.8081 286.408 29.5747 285.872 30.7961C285.336 32.0174 284.711 32.6281 283.997 32.6281C283.299 32.6281 282.68 32.0174 282.14 30.7961C281.6 29.5602 281.18 27.8081 280.88 25.5398C280.583 23.257 280.431 20.618 280.423 17.6227V15.3326C280.423 12.2792 280.571 9.58197 280.867 7.241C281.164 4.90004 281.582 3.1116 282.122 1.87568C282.666 0.625227 283.287 0 283.985 0C284.695 0 285.32 0.617957 285.86 1.85387C286.404 3.07525 286.822 4.85642 287.114 7.19738C287.406 9.52381 287.552 12.2356 287.552 15.3326V17.3391ZM286.39 15.289C286.39 11.5231 286.179 8.63686 285.756 6.63032C285.334 4.60923 284.744 3.59869 283.985 3.59869C283.246 3.59869 282.664 4.60923 282.237 6.63032C281.815 8.63686 281.598 11.4286 281.586 15.0055V17.3391C281.586 20.9887 281.799 23.8604 282.225 25.9542C282.655 28.0334 283.246 29.0731 283.997 29.0731C284.752 29.0731 285.336 28.0916 285.75 26.1287C286.164 24.1512 286.377 21.3232 286.39 17.6445V15.289Z" fill="white"/>
<path d="M299.169 32.1919H297.994V3.88222H293.623V32.1919H292.454V0.436205H299.169V32.1919Z" fill="white"/>
<path d="M302.469 19.7601V32.1919H301.3V0.436205H304.569C305.539 0.436205 306.298 1.32316 306.846 3.09706C307.398 4.87096 307.674 7.21919 307.674 10.1418C307.674 13.2243 307.405 15.6016 306.865 17.2737C306.329 18.9313 305.56 19.7601 304.557 19.7601H302.469ZM302.469 16.3359H304.569C305.194 16.3359 305.673 15.8124 306.006 14.7655C306.339 13.7041 306.505 12.1774 306.505 10.1854C306.505 8.29516 306.339 6.78299 306.006 5.64885C305.673 4.51472 305.217 3.92584 304.636 3.88222H302.469V16.3359Z" fill="white"/>
<path d="M315.985 17.3391C315.985 20.4507 315.839 23.1698 315.547 25.4962C315.254 27.8081 314.84 29.5747 314.305 30.7961C313.769 32.0174 313.144 32.6281 312.429 32.6281C311.731 32.6281 311.112 32.0174 310.573 30.7961C310.033 29.5602 309.613 27.8081 309.312 25.5398C309.016 23.257 308.864 20.618 308.856 17.6227V15.3326C308.856 12.2792 309.004 9.58197 309.3 7.241C309.596 4.90004 310.014 3.1116 310.554 1.87568C311.098 0.625227 311.719 0 312.417 0C313.128 0 313.753 0.617957 314.292 1.85387C314.836 3.07525 315.254 4.85642 315.547 7.19738C315.839 9.52381 315.985 12.2356 315.985 15.3326V17.3391ZM314.822 15.289C314.822 11.5231 314.611 8.63686 314.189 6.63032C313.767 4.60923 313.176 3.59869 312.417 3.59869C311.679 3.59869 311.096 4.60923 310.67 6.63032C310.248 8.63686 310.031 11.4286 310.018 15.0055V17.3391C310.018 20.9887 310.232 23.8604 310.658 25.9542C311.088 28.0334 311.679 29.0731 312.429 29.0731C313.184 29.0731 313.769 28.0916 314.183 26.1287C314.597 24.1512 314.81 21.3232 314.822 17.6445V15.289Z" fill="white"/>
<path d="M320.04 17.928H318.962V32.1919H317.793V0.436205H318.962V14.4384H319.875L322.974 0.436205H324.43L321.044 15.8342L324.679 32.1919H323.248L320.04 17.928Z" fill="white"/>
<path d="M332.375 17.3391C332.375 20.4507 332.229 23.1698 331.937 25.4962C331.644 27.8081 331.23 29.5747 330.694 30.7961C330.159 32.0174 329.534 32.6281 328.819 32.6281C328.121 32.6281 327.502 32.0174 326.962 30.7961C326.422 29.5602 326.002 27.8081 325.702 25.5398C325.406 23.257 325.254 20.618 325.245 17.6227V15.3326C325.245 12.2792 325.394 9.58197 325.69 7.241C325.986 4.90004 326.404 3.1116 326.944 1.87568C327.488 0.625227 328.109 0 328.807 0C329.517 0 330.142 0.617957 330.682 1.85387C331.226 3.07525 331.644 4.85642 331.937 7.19738C332.229 9.52381 332.375 12.2356 332.375 15.3326V17.3391ZM331.212 15.289C331.212 11.5231 331.001 8.63686 330.579 6.63032C330.157 4.60923 329.566 3.59869 328.807 3.59869C328.068 3.59869 327.486 4.60923 327.06 6.63032C326.638 8.63686 326.42 11.4286 326.408 15.0055V17.3391C326.408 20.9887 326.621 23.8604 327.048 25.9542C327.478 28.0334 328.068 29.0731 328.819 29.0731C329.574 29.0731 330.159 28.0916 330.573 26.1287C330.987 24.1512 331.2 21.3232 331.212 17.6445V15.289Z" fill="white"/>
<path d="M340.941 32.1919H339.766V17.5136H335.297V32.1919H334.128V0.436205H335.297V14.0894H339.766V0.436205H340.941V32.1919Z" fill="white"/>
<path d="M349.538 22.1156C349.428 25.4744 349.081 28.0698 348.497 29.9019C347.916 31.7194 347.143 32.6281 346.177 32.6281C345.13 32.6281 344.29 31.2832 343.657 28.5932C343.027 25.9033 342.713 22.3046 342.713 17.7972V14.7437C342.713 11.7921 342.859 9.19666 343.151 6.95747C343.448 4.71828 343.866 3.00254 344.405 1.81025C344.945 0.603417 345.57 0 346.281 0C347.222 0 347.977 0.945111 348.546 2.83533C349.114 4.71101 349.445 7.3137 349.538 10.6434H348.363C348.261 8.11341 348.04 6.28135 347.699 5.14722C347.362 4.01309 346.889 3.44602 346.281 3.44602C345.534 3.44602 344.947 4.43475 344.521 6.41221C344.099 8.38968 343.888 11.2032 343.888 14.8528V17.928C343.888 21.374 344.089 24.1149 344.491 26.1505C344.892 28.1861 345.455 29.2039 346.177 29.2039C346.827 29.2039 347.324 28.6805 347.669 27.6336C348.018 26.5722 348.249 24.7328 348.363 22.1156H349.538Z" fill="white"/>
<path d="M354.183 18.8659L356.223 0.436205H357.581L354.445 26.892C354.234 28.5787 354.037 29.7783 353.855 30.4907C353.672 31.1887 353.457 31.7266 353.209 32.1047C352.966 32.4682 352.659 32.6499 352.29 32.6499C351.969 32.6499 351.764 32.5845 351.675 32.4537L351.711 29.1385L352.265 29.2257C352.692 29.2257 353.008 28.4915 353.215 27.0229L353.367 25.8888L353.599 23.9477L350.579 0.436205H351.888L354.183 18.8659Z" fill="white"/>
<path d="M365.355 0.436205V32.1919H364.186V3.88222H361.008L360.85 16.4667C360.789 20.6834 360.667 23.8531 360.485 25.976C360.306 28.0989 360.042 29.6619 359.693 30.6652C359.344 31.6539 358.877 32.1628 358.293 32.1919H357.909V28.7677L358.153 28.7241C358.53 28.6223 358.821 28.1861 359.024 27.4155C359.226 26.6303 359.381 25.3871 359.486 23.6859C359.592 21.9847 359.667 19.3675 359.712 15.8342L359.894 0.436205H365.355Z" fill="white"/>
<path d="M368.613 13.3915H370.817C371.742 13.4351 372.465 14.2857 372.984 15.9433C373.504 17.6009 373.763 19.8546 373.763 22.7045C373.763 25.5689 373.502 27.8517 372.978 29.5529C372.454 31.2541 371.74 32.1338 370.835 32.1919H367.444V0.436205H368.613V13.3915ZM368.613 16.8375V28.7677H370.75C371.33 28.7677 371.781 28.2152 372.101 27.1101C372.426 26.0051 372.588 24.522 372.588 22.6608C372.588 20.8724 372.432 19.462 372.12 18.4297C371.811 17.3973 371.371 16.8666 370.798 16.8375H368.613Z" fill="white"/>
<path d="M379.803 3.88222H376.954V32.1919H375.791V3.88222H372.948V0.436205H379.803V3.88222Z" fill="white"/>
<path d="M386.707 0.436205H387.876V32.1919H386.707V7.72083L382.342 32.1919H381.167V0.436205H382.342V24.9073L386.707 0.436205Z" fill="white"/>
<path d="M391.176 19.7601V32.1919H390.007V0.436205H393.277C394.247 0.436205 395.006 1.32316 395.554 3.09706C396.106 4.87096 396.382 7.21919 396.382 10.1418C396.382 13.2243 396.112 15.6016 395.572 17.2737C395.036 18.9313 394.267 19.7601 393.264 19.7601H391.176ZM391.176 16.3359H393.277C393.902 16.3359 394.381 15.8124 394.713 14.7655C395.046 13.7041 395.213 12.1774 395.213 10.1854C395.213 8.29516 395.046 6.78299 394.713 5.64885C394.381 4.51472 393.924 3.92584 393.344 3.88222H391.176V16.3359Z" fill="white"/>
<path d="M404.692 17.3391C404.692 20.4507 404.546 23.1698 404.254 25.4962C403.962 27.8081 403.548 29.5747 403.012 30.7961C402.476 32.0174 401.851 32.6281 401.137 32.6281C400.438 32.6281 399.82 32.0174 399.28 30.7961C398.74 29.5602 398.32 27.8081 398.019 25.5398C397.723 23.257 397.571 20.618 397.563 17.6227V15.3326C397.563 12.2792 397.711 9.58197 398.007 7.241C398.304 4.90004 398.722 3.1116 399.261 1.87568C399.805 0.625227 400.426 0 401.124 0C401.835 0 402.46 0.617957 403 1.85387C403.544 3.07525 403.962 4.85642 404.254 7.19738C404.546 9.52381 404.692 12.2356 404.692 15.3326V17.3391ZM403.529 15.289C403.529 11.5231 403.318 8.63686 402.896 6.63032C402.474 4.60923 401.883 3.59869 401.124 3.59869C400.386 3.59869 399.803 4.60923 399.377 6.63032C398.955 8.63686 398.738 11.4286 398.726 15.0055V17.3391C398.726 20.9887 398.939 23.8604 399.365 25.9542C399.795 28.0334 400.386 29.0731 401.137 29.0731C401.892 29.0731 402.476 28.0916 402.89 26.1287C403.304 24.1512 403.517 21.3232 403.529 17.6445V15.289Z" fill="white"/>
<path d="M406.446 32.1919V0.436205H409.344C410.306 0.436205 411.028 1.14867 411.511 2.57361C411.998 3.99855 412.242 6.10687 412.242 8.89858C412.242 10.3817 412.124 11.6976 411.889 12.8462C411.653 13.9804 411.333 14.8601 410.927 15.4853C411.406 15.9651 411.783 16.8811 412.059 18.2334C412.339 19.5711 412.479 21.1705 412.479 23.0316C412.479 25.8815 412.221 28.1207 411.706 29.7492C411.191 31.3777 410.462 32.1919 409.52 32.1919H406.446ZM407.615 17.3391V28.7677H409.545C410.089 28.7677 410.517 28.2661 410.829 27.2628C411.146 26.245 411.304 24.8491 411.304 23.0752C411.304 19.2512 410.724 17.3391 409.563 17.3391H407.615ZM407.615 13.9804H409.38C409.892 13.9804 410.3 13.5224 410.604 12.6063C410.912 11.6903 411.067 10.4471 411.067 8.87677C411.067 7.13195 410.925 5.86696 410.641 5.08179C410.356 4.28208 409.924 3.88222 409.344 3.88222H407.615V13.9804Z" fill="white"/>
<path d="M419.109 23.904H415.396L414.561 32.1919H413.356L416.741 0.436205H417.764L421.155 32.1919H419.956L419.109 23.904ZM415.749 20.458H418.762L417.252 5.60523L415.749 20.458Z" fill="white"/>
<path d="M427.682 3.88222H424.832V32.1919H423.67V3.88222H420.826V0.436205H427.682V3.88222Z" fill="white"/>
<path d="M430.227 13.3915H432.431C433.356 13.4351 434.079 14.2857 434.598 15.9433C435.118 17.6009 435.377 19.8546 435.377 22.7045C435.377 25.5689 435.116 27.8517 434.592 29.5529C434.068 31.2541 433.354 32.1338 432.449 32.1919H429.058V0.436205H430.227V13.3915ZM430.227 16.8375V28.7677H432.364C432.944 28.7677 433.395 28.2152 433.715 27.1101C434.04 26.0051 434.202 24.522 434.202 22.6608C434.202 20.8724 434.046 19.462 433.734 18.4297C433.425 17.3973 432.985 16.8666 432.412 16.8375H430.227Z" fill="white"/>
<path d="M443.445 22.1156C443.335 25.4744 442.988 28.0698 442.403 29.9019C441.823 31.7194 441.05 32.6281 440.084 32.6281C439.037 32.6281 438.196 31.2832 437.563 28.5932C436.934 25.9033 436.619 22.3046 436.619 17.7972V14.7437C436.619 11.7921 436.766 9.19666 437.058 6.95747C437.354 4.71828 437.772 3.00254 438.312 1.81025C438.852 0.603417 439.477 0 440.187 0C441.129 0 441.884 0.945111 442.452 2.83533C443.02 4.71101 443.351 7.3137 443.445 10.6434H442.269C442.168 8.11341 441.947 6.28135 441.606 5.14722C441.269 4.01309 440.796 3.44602 440.187 3.44602C439.44 3.44602 438.854 4.43475 438.428 6.41221C438.006 8.38968 437.795 11.2032 437.795 14.8528V17.928C437.795 21.374 437.995 24.1149 438.397 26.1505C438.799 28.1861 439.361 29.2039 440.084 29.2039C440.733 29.2039 441.23 28.6805 441.575 27.6336C441.924 26.5722 442.156 24.7328 442.269 22.1156H443.445Z" fill="white"/>
<path d="M449.685 32.1919V19.8255H447.639L445.807 32.1919H444.559L446.617 18.6696C445.472 17.0556 444.9 14.1694 444.9 10.0109C444.9 6.98655 445.176 4.63831 445.728 2.96619C446.284 1.27953 447.055 0.436205 448.041 0.436205H450.86V32.1919H449.685ZM446.069 10.0109C446.069 11.9302 446.235 13.4715 446.568 14.6347C446.905 15.7979 447.372 16.3868 447.968 16.4013H449.685V3.88222H448.023C447.39 3.88222 446.905 4.42021 446.568 5.49618C446.235 6.57216 446.069 8.07706 446.069 10.0109Z" fill="white"/>
<path d="M462.598 22.1156C462.489 25.4744 462.142 28.0698 461.557 29.9019C460.977 31.7194 460.204 32.6281 459.238 32.6281C458.19 32.6281 457.35 31.2832 456.717 28.5932C456.088 25.9033 455.773 22.3046 455.773 17.7972V14.7437C455.773 11.7921 455.92 9.19666 456.212 6.95747C456.508 4.71828 456.926 3.00254 457.466 1.81025C458.006 0.603417 458.631 0 459.341 0C460.283 0 461.038 0.945111 461.606 2.83533C462.174 4.71101 462.505 7.3137 462.598 10.6434H461.423C461.322 8.11341 461.101 6.28135 460.76 5.14722C460.423 4.01309 459.95 3.44602 459.341 3.44602C458.594 3.44602 458.008 4.43475 457.582 6.41221C457.16 8.38968 456.948 11.2032 456.948 14.8528V17.928C456.948 21.374 457.149 24.1149 457.551 26.1505C457.953 28.1861 458.515 29.2039 459.238 29.2039C459.887 29.2039 460.384 28.6805 460.729 27.6336C461.078 26.5722 461.31 24.7328 461.423 22.1156H462.598Z" fill="white"/>
<path d="M471.019 17.3391C471.019 20.4507 470.873 23.1698 470.58 25.4962C470.288 27.8081 469.874 29.5747 469.338 30.7961C468.802 32.0174 468.177 32.6281 467.463 32.6281C466.765 32.6281 466.146 32.0174 465.606 30.7961C465.066 29.5602 464.646 27.8081 464.346 25.5398C464.05 23.257 463.897 20.618 463.889 17.6227V15.3326C463.889 12.2792 464.037 9.58197 464.334 7.241C464.63 4.90004 465.048 3.1116 465.588 1.87568C466.132 0.625227 466.753 0 467.451 0C468.161 0 468.786 0.617957 469.326 1.85387C469.87 3.07525 470.288 4.85642 470.58 7.19738C470.873 9.52381 471.019 12.2356 471.019 15.3326V17.3391ZM469.856 15.289C469.856 11.5231 469.645 8.63686 469.223 6.63032C468.8 4.60923 468.21 3.59869 467.451 3.59869C466.712 3.59869 466.13 4.60923 465.704 6.63032C465.281 8.63686 465.064 11.4286 465.052 15.0055V17.3391C465.052 20.9887 465.265 23.8604 465.691 25.9542C466.122 28.0334 466.712 29.0731 467.463 29.0731C468.218 29.0731 468.802 28.0916 469.216 26.1287C469.63 24.1512 469.844 21.3232 469.856 17.6445V15.289Z" fill="white"/>
<path d="M482.386 22.1156C482.276 25.4744 481.929 28.0698 481.344 29.9019C480.764 31.7194 479.991 32.6281 479.025 32.6281C477.978 32.6281 477.137 31.2832 476.504 28.5932C475.875 25.9033 475.561 22.3046 475.561 17.7972V14.7437C475.561 11.7921 475.707 9.19666 475.999 6.95747C476.295 4.71828 476.713 3.00254 477.253 1.81025C477.793 0.603417 478.418 0 479.128 0C480.07 0 480.825 0.945111 481.393 2.83533C481.961 4.71101 482.292 7.3137 482.386 10.6434H481.211C481.109 8.11341 480.888 6.28135 480.547 5.14722C480.21 4.01309 479.737 3.44602 479.128 3.44602C478.381 3.44602 477.795 4.43475 477.369 6.41221C476.947 8.38968 476.736 11.2032 476.736 14.8528V17.928C476.736 21.374 476.936 24.1149 477.338 26.1505C477.74 28.1861 478.302 29.2039 479.025 29.2039C479.674 29.2039 480.171 28.6805 480.516 27.6336C480.866 26.5722 481.097 24.7328 481.211 22.1156H482.386Z" fill="white"/>
<path d="M490.757 32.1919H489.582V3.88222H485.211V32.1919H484.042V0.436205H490.757V32.1919Z" fill="white"/>
<path d="M497.899 17.5136H494.057V28.7677H498.52V32.1919H492.888V0.436205H498.459V3.88222H494.057V14.0894H497.899V17.5136Z" fill="white"/>
<path d="M500.011 0.436205H501.186V28.7677H505.558V0.436205H506.727V28.6805H507.658L507.549 39.8473H506.495V32.1919H500.011V0.436205Z" fill="white"/>
<path d="M514.684 0.436205H515.853V32.1919H514.684V7.72083L510.319 32.1919H509.144V0.436205H510.319V24.9073L514.684 0.436205Z" fill="white"/>
<path d="M522.989 23.904H519.275L518.441 32.1919H517.235L520.62 0.436205H521.643L525.034 32.1919H523.835L522.989 23.904ZM519.628 20.458H522.642L521.132 5.60523L519.628 20.458Z" fill="white"/>
<path d="M533.041 0.436205V32.1919H531.872V3.88222H528.694L528.535 16.4667C528.474 20.6834 528.353 23.8531 528.17 25.976C527.991 28.0989 527.727 29.6619 527.378 30.6652C527.029 31.6539 526.563 32.1628 525.978 32.1919H525.595V28.7677L525.838 28.7241C526.216 28.6223 526.506 28.1861 526.709 27.4155C526.912 26.6303 527.066 25.3871 527.171 23.6859C527.277 21.9847 527.352 19.3675 527.397 15.8342L527.579 0.436205H533.041Z" fill="white"/>
<path d="M540.755 0.436205H541.923V32.1919H540.755V7.72083L536.389 32.1919H535.214V0.436205H536.389V24.9073L540.755 0.436205Z" fill="white"/>
<path d="M550.575 22.1156C550.465 25.4744 550.118 28.0698 549.534 29.9019C548.953 31.7194 548.18 32.6281 547.214 32.6281C546.167 32.6281 545.327 31.2832 544.694 28.5932C544.065 25.9033 543.75 22.3046 543.75 17.7972V14.7437C543.75 11.7921 543.896 9.19666 544.188 6.95747C544.485 4.71828 544.903 3.00254 545.443 1.81025C545.982 0.603417 546.607 0 547.318 0C548.259 0 549.014 0.945111 549.583 2.83533C550.151 4.71101 550.482 7.3137 550.575 10.6434H549.4C549.298 8.11341 549.077 6.28135 548.736 5.14722C548.399 4.01309 547.927 3.44602 547.318 3.44602C546.571 3.44602 545.984 4.43475 545.558 6.41221C545.136 8.38968 544.925 11.2032 544.925 14.8528V17.928C544.925 21.374 545.126 24.1149 545.528 26.1505C545.93 28.1861 546.492 29.2039 547.214 29.2039C547.864 29.2039 548.361 28.6805 548.706 27.6336C549.055 26.5722 549.286 24.7328 549.4 22.1156H550.575Z" fill="white"/>
<path d="M558.118 3.88222H555.269V32.1919H554.106V3.88222H551.263V0.436205H558.118V3.88222Z" fill="white"/>
<path d="M566.082 17.3391C566.082 20.4507 565.936 23.1698 565.644 25.4962C565.351 27.8081 564.937 29.5747 564.402 30.7961C563.866 32.0174 563.241 32.6281 562.526 32.6281C561.828 32.6281 561.209 32.0174 560.669 30.7961C560.13 29.5602 559.71 27.8081 559.409 25.5398C559.113 23.257 558.961 20.618 558.953 17.6227V15.3326C558.953 12.2792 559.101 9.58197 559.397 7.241C559.693 4.90004 560.111 3.1116 560.651 1.87568C561.195 0.625227 561.816 0 562.514 0C563.225 0 563.85 0.617957 564.389 1.85387C564.933 3.07525 565.351 4.85642 565.644 7.19738C565.936 9.52381 566.082 12.2356 566.082 15.3326V17.3391ZM564.919 15.289C564.919 11.5231 564.708 8.63686 564.286 6.63032C563.864 4.60923 563.273 3.59869 562.514 3.59869C561.776 3.59869 561.193 4.60923 560.767 6.63032C560.345 8.63686 560.128 11.4286 560.115 15.0055V17.3391C560.115 20.9887 560.329 23.8604 560.755 25.9542C561.185 28.0334 561.776 29.0731 562.526 29.0731C563.281 29.0731 563.866 28.0916 564.28 26.1287C564.694 24.1512 564.907 21.3232 564.919 17.6445V15.289Z" fill="white"/>
<path d="M569.345 0.436205L572.243 26.3468L575.141 0.436205H576.657V32.1919H575.489V19.8255L575.598 6.47764L572.688 32.1919H571.793L568.889 6.54307L569.004 19.8255V32.1919H567.835V0.436205H569.345Z" fill="white"/>
<path d="M579.805 23.2279H578.788L578.709 0.436205H579.89L579.805 23.2279ZM578.667 30.1636C578.667 29.5093 578.721 28.964 578.831 28.5278C578.945 28.0771 579.111 27.8517 579.33 27.8517C579.549 27.8517 579.716 28.0771 579.83 28.5278C579.943 28.964 580 29.5093 580 30.1636C580 30.8179 579.943 31.3631 579.83 31.7993C579.716 32.221 579.549 32.4318 579.33 32.4318C579.111 32.4318 578.945 32.221 578.831 31.7993C578.721 31.3631 578.667 30.8179 578.667 30.1636Z" fill="white"/>
</svg>
