<svg width="631" height="190" viewBox="0 0 631 190" fill="none" xmlns="http://www.w3.org/2000/svg">
<path d="M599.832 40.0742C595.273 40.0742 591.29 43.5366 591.29 48.0142C591.29 52.4374 595.171 55.9562 599.832 55.9562C604.527 55.9562 608.385 52.3804 608.385 48.0142C608.385 43.5366 604.457 40.0742 599.832 40.0742ZM599.812 41.3536C603.747 41.3536 607.018 44.3057 607.018 48.0039C607.018 51.6282 603.794 54.6877 599.812 54.6877C595.883 54.6877 592.662 51.7104 592.662 48.0039C592.661 44.2509 595.927 41.3536 599.812 41.3536ZM596.617 52.4577H598.49V48.8945H600.15C600.833 48.8945 601.002 49.149 601.153 49.6544C601.153 49.7725 601.458 52.0565 601.522 52.4577H603.541C603.263 52.0565 603.149 50.827 603.056 50.1123C602.875 48.9843 602.774 48.1924 601.458 48.1018C602.144 47.8938 603.263 47.545 603.263 45.9197C603.263 43.5592 601.057 43.5592 599.93 43.5592H596.617V52.4577H596.617ZM598.428 44.9916H599.976C600.47 44.9916 601.369 44.9916 601.369 46.2135C601.369 46.6772 601.153 47.4701 599.93 47.4701H598.428V44.9916Z" fill="black"/>
<path d="M377.741 122.484C359.514 122.484 349.468 111.545 350.766 92.7711C352.128 73.0908 367.966 62.4146 385.805 62.4146C391.272 62.4146 396.275 63.4402 401.197 65.6586L400.595 74.3889C396.504 71.3935 391.552 69.5727 386.35 69.5727C374.368 69.5727 367.186 79.3403 366.302 92.1213C365.41 105.021 371.252 114.67 384.014 114.67C389.211 114.67 393.834 113.892 399.014 112.317L398.605 118.188C391.632 121.19 385.163 122.484 377.741 122.484Z" fill="black"/>
<path d="M570.943 123.744C552.722 123.744 542.673 112.788 543.967 94.0206C545.326 74.3393 561.172 63.6582 579.004 63.6582C584.476 63.6582 589.473 64.6954 594.398 66.9126L593.791 75.6442C589.71 72.6365 584.757 70.8225 579.552 70.8225C567.573 70.8225 560.385 80.5955 559.506 93.3707C558.612 106.275 564.46 115.931 577.208 115.931C582.417 115.931 587.03 115.134 592.212 113.573L591.808 119.436C584.832 122.444 578.365 123.744 570.943 123.744Z" fill="black"/>
<path d="M67.99 122.248C44.1534 122.248 23.7885 108.975 25.8171 79.6269C27.571 54.2829 47.914 34.9775 79.2452 34.9775C85.2658 34.9775 92.0201 36.0645 98.1847 37.9297C98.1317 38.7306 97.5666 46.9064 97.4655 48.3795C92.1844 45.3105 85.2124 43.5634 78.6485 43.5634C53.3491 43.5634 43.7245 64.6117 42.7736 78.2771C41.0902 102.674 54.932 113.538 70.0618 113.538C79.9657 113.538 89.6231 111.388 96.9901 107.49C96.2882 117.689 96.2437 118.355 96.2437 118.355C88.3059 120.775 79.5051 122.248 67.99 122.248Z" fill="black"/>
<path d="M188.989 122.186C182.087 122.186 177.039 119.845 173.981 115.152L171.925 144.858H157.738L162.567 75.0175C162.899 70.1885 163.152 66.5266 159.588 63.4075H176.912L177.024 71.0963C181.094 64.9752 187.814 61.9785 196.008 61.9785C211.761 61.9785 218.597 76.0419 217.614 90.268C216.406 107.725 207.208 122.186 188.989 122.186ZM190.099 70.3125C183.066 70.3125 176.626 76.8369 175.868 87.7927L175.212 97.2909C174.403 109.025 178.907 115.41 187.106 115.41C199.211 115.41 201.365 101.329 202.005 92.0828C202.633 82.9537 201.812 70.3125 190.099 70.3125Z" fill="black"/>
<path d="M282.588 92.5246H241.715C240.822 105.424 249.177 114.541 262.196 114.541C267.406 114.541 273.037 114.026 278.221 112.453L277.816 118.327C270.836 121.324 263.339 122.366 255.922 122.366C237.313 122.366 225.051 111.422 226.376 92.2511C227.59 74.6698 241.466 62.2866 258.907 62.2866C275.82 62.2866 284.002 74.0145 282.884 90.1611C282.83 90.9687 282.641 91.7411 282.588 92.5246ZM257.773 69.1927C253.087 69.1927 249.289 71.5338 246.577 74.9162C244.014 78.1819 242.643 82.8811 242.269 86.3922H268.567C269.107 78.5794 267.412 69.1927 257.773 69.1927Z" fill="black"/>
<path d="M152.258 61.856H102.674L102.046 70.9227H119.538L116.014 121.935H130.412L133.939 70.9227H151.634L152.258 61.856Z" fill="black"/>
<path d="M330.047 71.0581L326.573 121.302H339.581L343.606 63.1045H293.973L289.949 121.302H302.405H303.538L307.007 71.0966L330.047 71.0581Z" fill="black"/>
<path d="M521.632 71.0581L518.159 121.302H531.164L535.188 63.1045H485.561L482.53 106.925C482.53 106.925 482.438 109.149 480.921 110.733C478.902 112.402 475.306 113.976 475.306 113.976L474.598 122.949C474.598 122.949 483.107 123.614 488.733 121.374C494.355 119.129 496.001 108.577 496.001 108.577L498.597 71.0966L521.632 71.0581Z" fill="black"/>
<path d="M421.494 123.457L452.053 80.4663L449.086 123.457H455.355L455.364 123.396H461.112L465.276 63.1268H459.529V63.0825H453.582L422.477 106.852L425.499 63.0825H419.15L419.148 63.121H413.096L408.929 123.457H421.494Z" fill="black"/>
</svg>
