<svg width="103" height="108" viewBox="0 0 103 108" fill="none" xmlns="http://www.w3.org/2000/svg">
<path d="M91.202 0H11.798C5.28213 0 0 5.24681 0 11.7191V96.2809C0 102.753 5.28213 108 11.798 108H91.202C97.7179 108 103 102.753 103 96.2809V11.7191C103 5.24681 97.7179 0 91.202 0Z" fill="#FFE501"/>
<path d="M16.5077 62.8938V70.2262L20.5676 66.8634V81.4396C20.6345 82.7051 20.5919 83.9739 20.4404 85.2322C20.4404 85.3586 20.0713 85.662 20.0967 85.5229C20.6313 82.1601 19.015 80.0363 16.9277 80.2639C14.8405 80.4914 13.9114 82.7923 13.9114 85.662C13.9114 88.5317 15.1841 92.5139 18.7859 92.7794C19.4939 92.8014 20.1991 92.682 20.8598 92.4284C21.5206 92.1747 22.1233 91.792 22.6324 91.3028C23.1416 90.8136 23.5467 90.2279 23.8238 89.5803C24.1009 88.9328 24.2444 88.2366 24.2458 87.533V64.9166L28.4711 62.6157V81.882L26.4094 83.1462V92.7288H34.542V81.5533L32.3274 81.1109V60.8585L35.0129 59.7839V48.8108C35.0129 48.8108 29.222 52.2873 25.5312 55.0306C22.35 57.4487 19.3355 60.0756 16.5077 62.8938Z" fill="#EA1816"/>
<path d="M54.9659 64.9165L58.275 65.5992V55.6879L61.3931 56.1304V79.2272L59.0004 80.0616V92.7288H67.5784V80.7569L65.1857 79.3662V56.7499L67.8584 57.3314V67.8874L70.7474 68.9872V50.176C65.8595 47.542 60.4708 45.953 54.9277 45.5112L54.9659 64.9165Z" fill="#EA1816"/>
<path d="M52.3058 84.8278V52.6162C52.3058 48.4949 50.1931 45.031 45.2296 45.031C43.2824 45.0033 41.3981 45.7155 39.9621 47.0221C38.526 48.3286 37.6468 50.1308 37.5042 52.0599V84.0314C37.5042 84.0314 36.7279 92.767 44.3387 92.767C52.5985 92.729 52.3058 84.8278 52.3058 84.8278ZM48.4877 77.091C48.4877 80.6813 46.7695 81.68 45.115 81.68C41.526 81.68 41.2969 79.3918 41.2969 78.2667C41.2969 76.244 41.2969 59.7968 41.2969 59.7968C41.2969 57.2684 43.995 56.5731 44.7459 56.4467C45.4968 56.3203 48.424 56.5478 48.4368 60.3151L48.4877 77.091Z" fill="#EA1816"/>
<path d="M76.3623 54.209C73.206 54.702 73.0405 58.3302 73.0405 58.3302V84.9921C73.0405 88.7846 77.075 92.7795 80.4986 92.7795C80.4986 92.7795 86.493 92.9565 86.493 87.3435V65.6752C86.5439 60.9598 81.9113 52.9195 76.3623 54.209ZM82.8531 81.9074C82.8566 82.25 82.7795 82.5886 82.6279 82.8963C82.4763 83.204 82.2544 83.4723 81.98 83.6798C81.7056 83.8874 81.3862 84.0283 81.0473 84.0915C80.7083 84.1547 80.3592 84.1384 80.0277 84.0439C79.1246 83.9333 78.2972 83.4872 77.7116 82.7954C77.1261 82.1036 76.8259 81.2172 76.8713 80.3145V66.1809C76.9732 64.0823 78.2586 61.7815 81.1349 63.741C83.0949 65.0684 82.8658 69.0632 82.8531 70.062C82.8531 71.5031 82.8531 81.9074 82.8531 81.9074Z" fill="#EA1816"/>
<path d="M39.1093 27.7988C38.8088 25.961 39.0382 24.0763 39.7711 22.3627C40.6492 20.4917 41.731 20.5676 42.3165 20.5676C42.8841 20.6856 43.4132 20.9419 43.8564 21.3135L44.2637 21.6169V17.5841H40.9674C39.0456 17.5841 35.8766 20.9974 36.1693 27.4574C36.4239 33.6393 39.8729 38.5444 45.651 40.3395L45.9946 40.4407V36.7998L45.7146 36.7113C41.7183 35.839 39.5802 32.3625 39.1093 27.7988Z" fill="black"/>
<path d="M64.5767 35.3965C64.7353 32.7388 64.0832 30.0953 62.7058 27.8114C61.768 26.3604 60.7482 24.9634 59.6513 23.6269L66.0148 17.5841H60.4658C60.6807 17.844 60.8565 18.1336 60.9877 18.4437C61.0767 18.8988 60.9113 19.7838 59.384 21.2755C58.5343 22.0747 57.6331 22.8179 56.6859 23.5005V19.0758L56.9659 17.5841H53.4278L54.0387 19.0758V35.1437C52.766 34.7265 48.5279 34.1197 47.1152 27.862C46.7651 26.753 46.6923 25.5761 46.903 24.4329C47.1136 23.2897 47.6014 22.2147 48.3242 21.3008C48.6331 20.9493 49.0378 20.6941 49.4895 20.5662C49.9413 20.4384 50.4206 20.4432 50.8696 20.5802C51.5356 20.7294 52.1475 21.0574 52.6387 21.5284L52.5496 17.5841H49.0115C47.9951 17.7458 47.082 18.2945 46.4661 19.1137C45.6779 20.0586 45.0873 21.1502 44.7289 22.3246C44.3705 23.4989 44.2515 24.7324 44.3788 25.953C44.427 27.7966 44.846 29.612 45.6109 31.2924C46.3759 32.9728 47.4715 34.4843 48.8333 35.7379C51.3787 38.1399 57.0932 39.796 57.0932 39.796L56.7495 37.8491V28.3297C56.7773 27.1547 57.229 26.0287 58.0222 25.1566C58.4677 25.6243 61.5349 28.1274 61.8403 34.992C61.8403 34.992 61.8403 37.3687 61.8403 38.0261C61.8173 38.8743 61.8899 39.7223 62.0567 40.5545L65.3658 41.4394C65.0285 40.3509 64.7941 39.2336 64.6657 38.1019C64.6148 36.8757 64.5767 35.3965 64.5767 35.3965Z" fill="black"/>
<path d="M35.6711 17.5841H32.1966L32.5657 19.0885V33.3107C32.5736 34.0803 32.5226 34.8495 32.413 35.6115C29.1803 33.9807 27.4622 24.9923 27.4622 24.9923L29.2949 20.0872C29.3596 19.7821 29.3591 19.4668 29.2933 19.1619C29.2275 18.857 29.098 18.5693 28.913 18.3173C28.7411 18.0918 28.5203 17.9077 28.2669 17.7785C28.0135 17.6494 27.7341 17.5786 27.4494 17.5714H16.5042L17.1023 19.0632V53.6263L16.5042 56.0661L20.475 52.9562L19.8259 51.4139V45.093L25.8967 29.0756C26.4822 32.1729 28.8494 36.6608 31.3185 38.4306C30.7022 40.2639 29.5984 41.8976 28.124 43.1587C27.5842 43.5585 26.9763 43.8582 26.3294 44.0436V48.7844C30.2096 45.6349 33.0438 41.3967 34.462 36.6228C34.9408 34.5967 35.18 32.5221 35.1747 30.441V19.0632L35.6711 17.5841ZM25.7822 22.5271L19.7368 39.265V20.5297H25.2858C25.4076 20.5388 25.5252 20.5784 25.6276 20.6447C25.7299 20.711 25.8137 20.8019 25.8713 20.9089C26.0211 21.4434 25.9898 22.012 25.7822 22.5271Z" fill="black"/>
<path d="M85.411 20.5297L86.4801 21.8192V17.5841H77.9402L78.5384 19.0632V45.5228L77.9148 46.2434L86.4801 54.5617V49.3659H85.9328L81.1729 45.2067V28.0895L84.9783 28.9366V26.7621L81.1729 26.0795V20.5297H85.411Z" fill="black"/>
<path d="M71.4724 17.3321C66.318 17.3321 65.6562 25.4862 65.7325 30.4039V30.7832C65.6562 35.7009 66.318 43.8675 71.4724 43.8549C76.4233 43.8549 77.2378 36.6743 77.3015 30.72V30.5809C77.2378 24.4622 76.4869 17.3448 71.4724 17.3321ZM74.3742 30.5556V30.6441C74.3742 32.9323 74.1706 36.333 74.0306 37.3443C73.7251 39.5819 72.7579 40.5554 71.4852 40.5554C70.2125 40.5554 69.3598 39.544 69.0416 37.4707C68.7466 35.2458 68.6274 33.0013 68.6852 30.7579V30.366C68.6274 28.1226 68.7466 25.878 69.0416 23.6531C69.3598 21.5798 70.2379 20.5685 71.4852 20.5685C72.7324 20.5685 73.6742 21.5293 74.0306 23.7795C74.1706 24.7909 74.3488 28.1916 74.3742 30.4798V30.5556Z" fill="black"/>
</svg>
