<svg version="1.1" id="logo" xmlns="http://www.w3.org/2000/svg" xmlns:xlink="http://www.w3.org/1999/xlink" viewBox="0 0 139.458 139.457"><path fill="#DB0007" d="M12.081,139.457c0,0-12.08,0-12.08-12.08V12.08C0,12.08,0,0,12.081,0h115.296c0,0,12.081,0,12.081,12.08v115.297c0,0,0,12.08-12.081,12.08H12.081z"/><path fill="#FFBC0D" d="M89.988,28.659c-8.182,0-15.478,10.901-20.253,27.946C64.965,39.56,57.665,28.659,49.483,28.659c-14.38,0-26.041,36.27-26.041,81.008h11.575c0-41.543,6.478-75.221,14.466-75.221c7.989,0,14.466,31.089,14.466,69.436h11.573c0-38.347,6.477-69.436,14.466-69.436s14.469,33.678,14.469,75.221h11.569C116.026,64.929,104.368,28.659,89.988,28.659"/></svg>