<svg width="281" height="32" viewBox="0 0 281 32" fill="none" xmlns="http://www.w3.org/2000/svg">
<path d="M1.89652 10.0785L5.36289 1.78457C5.5863 1.25744 5.83763 0.993873 6.1169 0.993873C6.29842 0.993873 6.44503 1.08921 6.55674 1.27987C6.66845 1.45932 6.7243 1.70606 6.7243 2.0201V12.2992H5.73989V3.26504L2.20022 11.7609C2.11644 11.9515 2.0152 12.1029 1.89652 12.2151C1.78481 12.3273 1.66612 12.3833 1.54045 12.3833C1.34497 12.3833 1.19137 12.288 1.07967 12.0973C0.967962 11.8955 0.912109 11.6319 0.912109 11.3066V1.07799H1.89652V10.0785Z" fill="white"/>
<path d="M8.90289 0.993873C9.14026 0.993873 9.34622 1.2294 9.52076 1.70046L11.72 7.55501L13.8773 1.8014C13.989 1.50979 14.0972 1.3023 14.2019 1.17893C14.3067 1.05556 14.4323 0.993873 14.5789 0.993873C14.7395 0.993873 14.8687 1.08921 14.9664 1.27987C15.0711 1.45932 15.1235 1.70046 15.1235 2.00328V12.2992H14.181V3.46692L12.2436 8.64853C12.1179 8.985 11.9399 9.15323 11.7095 9.15323C11.5978 9.15323 11.4896 9.10276 11.3848 9.00182C11.2801 8.90088 11.1963 8.76069 11.1335 8.58124L9.25895 3.53421V12.2992H8.31643V2.0201C8.31643 1.69485 8.3688 1.4425 8.47352 1.26305C8.57824 1.0836 8.72137 0.993873 8.90289 0.993873Z" fill="white"/>
<path d="M17.2469 12.2992C17.0863 12.2992 16.9571 12.2263 16.8594 12.0805C16.7616 11.9347 16.7128 11.716 16.7128 11.4244V1.07799H21.1112V2.50798H17.7181V5.77173H20.2734V7.21854H17.7181V10.8524H21.3625V12.2992H17.2469Z" fill="white"/>
<path d="M28.7398 12.5852C28.2651 12.5852 27.8183 12.4506 27.3994 12.1814C26.9875 11.9123 26.6244 11.5422 26.3102 11.0711C25.9961 10.5888 25.7412 10.0224 25.5458 9.37194C25.3503 8.71022 25.2316 7.99242 25.1897 7.21854H23.6293V12.2992H22.624V1.07799H23.6293V5.77173H25.2211C25.284 5.05393 25.4166 4.3922 25.6191 3.78656C25.8285 3.1697 26.0903 2.64257 26.4045 2.20516C26.7187 1.75653 27.0747 1.40885 27.4727 1.16211C27.8706 0.915364 28.293 0.791992 28.7398 0.791992C29.2355 0.791992 29.6998 0.943403 30.1327 1.24622C30.5655 1.53783 30.9425 1.9472 31.2637 2.47433C31.5849 3.00147 31.8362 3.62394 32.0177 4.34173C32.2062 5.05953 32.3005 5.83902 32.3005 6.68019C32.3005 7.52136 32.2062 8.30645 32.0177 9.03547C31.8362 9.75327 31.5849 10.3757 31.2637 10.9029C30.9495 11.43 30.576 11.845 30.1432 12.1478C29.7103 12.4394 29.2425 12.5852 28.7398 12.5852ZM28.7398 11.0711C29.0959 11.0711 29.4275 10.9646 29.7347 10.7515C30.0419 10.5271 30.3072 10.2243 30.5306 9.84299C30.754 9.45045 30.9286 8.985 31.0543 8.44665C31.1869 7.89708 31.2532 7.30266 31.2532 6.66337C31.2532 6.00165 31.1904 5.40161 31.0647 4.86326C30.9391 4.32491 30.7645 3.86507 30.5411 3.48374C30.3177 3.09119 30.0524 2.78837 29.7452 2.57527C29.438 2.36218 29.1029 2.25563 28.7398 2.25563C28.3768 2.25563 28.0417 2.36218 27.7345 2.57527C27.4273 2.78837 27.162 3.09119 26.9386 3.48374C26.7152 3.86507 26.5406 4.32491 26.415 4.86326C26.2893 5.40161 26.2265 6.00165 26.2265 6.66337C26.2265 7.30266 26.2893 7.89708 26.415 8.44665C26.5476 8.985 26.7257 9.45045 26.9491 9.84299C27.1725 10.2243 27.4378 10.5271 27.745 10.7515C28.0522 10.9646 28.3838 11.0711 28.7398 11.0711Z" fill="white"/>
<path d="M34.8297 2.49116H32.3268V1.07799H38.3275V2.49116H35.8351V12.2992H34.8297V2.49116Z" fill="white"/>
<path d="M44.1165 4.00527C43.8791 3.4557 43.5754 3.02951 43.2054 2.72669C42.8353 2.41265 42.4409 2.25563 42.022 2.25563C41.631 2.25563 41.2749 2.36218 40.9538 2.57527C40.6326 2.78837 40.3569 3.09119 40.1265 3.48374C39.9031 3.86507 39.7285 4.33052 39.6028 4.88008C39.4772 5.41843 39.4143 6.02408 39.4143 6.69701C39.4143 7.35873 39.4737 7.95877 39.5924 8.49712C39.718 9.02425 39.8926 9.47849 40.116 9.85982C40.3464 10.2411 40.6187 10.5384 40.9328 10.7515C41.247 10.9533 41.5996 11.0543 41.9906 11.0543C42.3955 11.0543 42.7655 10.9253 43.1006 10.6673C43.4358 10.4094 43.7779 9.98319 44.1269 9.38876L44.8286 10.3309C44.7029 10.6337 44.5354 10.9253 44.3259 11.2057C44.1165 11.4749 43.8826 11.7104 43.6243 11.9123C43.3659 12.1142 43.0937 12.2712 42.8074 12.3833C42.5281 12.5067 42.2559 12.5684 41.9906 12.5684C41.453 12.5684 40.9608 12.4282 40.5139 12.1478C40.0671 11.8674 39.6831 11.4693 39.362 10.9533C39.0408 10.4374 38.793 9.82056 38.6184 9.10276C38.4439 8.38496 38.3566 7.59426 38.3566 6.73066C38.3566 5.87827 38.4474 5.08757 38.6289 4.35856C38.8104 3.62954 39.0618 3.00708 39.3829 2.49116C39.7111 1.96402 40.0985 1.55465 40.5454 1.26305C40.9922 0.960226 41.4809 0.808815 42.0115 0.808815C42.2977 0.808815 42.577 0.864893 42.8493 0.977049C43.1286 1.07799 43.3904 1.22379 43.6347 1.41446C43.8791 1.60512 44.1025 1.84065 44.305 2.12104C44.5144 2.39022 44.689 2.69304 44.8286 3.02951L44.1165 4.00527Z" fill="white"/>
<path d="M45.2028 12.2992C45.3285 11.7833 45.4646 11.273 45.6112 10.7683C45.7578 10.2636 45.9045 9.79813 46.0511 9.37194C46.1977 8.94574 46.3408 8.56441 46.4804 8.22794C46.6271 7.89148 46.7597 7.6223 46.8784 7.42042C46.4455 7.16246 46.1139 6.77552 45.8835 6.2596C45.6601 5.74369 45.5484 5.11561 45.5484 4.37538C45.5484 3.36598 45.7578 2.56406 46.1767 1.96963C46.6026 1.3752 47.203 1.07799 47.978 1.07799H50.2086V12.2992H49.2347V7.70642H48.2608C47.9745 7.70642 47.7232 7.95877 47.5067 8.46347C47.2973 8.96818 47.0878 9.55139 46.8784 10.2131C46.6689 10.8636 46.4665 11.559 46.271 12.2992H45.2028ZM49.2347 6.34372V2.47433H47.9152C47.4963 2.47433 47.1681 2.64818 46.9308 2.99586C46.6934 3.33233 46.5747 3.80899 46.5747 4.42585C46.5747 5.03149 46.6969 5.50255 46.9412 5.83902C47.1856 6.17549 47.5172 6.34372 47.9361 6.34372H49.2347Z" fill="white"/>
<path d="M59.4952 1.07799V12.2992H58.4898V2.5248H54.6988V12.2992H53.6935V1.07799H59.4952Z" fill="white"/>
<path d="M61.0978 1.07799H63.3075C63.7822 1.07799 64.1732 1.18454 64.4804 1.39764C64.7946 1.61073 65.0424 1.87991 65.2239 2.20516C65.4124 2.53041 65.5416 2.89492 65.6114 3.29868C65.6882 3.70244 65.7266 4.09499 65.7266 4.47632C65.7266 5.0371 65.6673 5.53059 65.5486 5.95678C65.4299 6.38298 65.2658 6.74188 65.0564 7.03348C64.8469 7.31387 64.5956 7.52697 64.3024 7.67277C64.0161 7.81857 63.7019 7.89148 63.3598 7.89148H62.0927V12.2992H61.0978V1.07799ZM63.3494 6.51196C63.7822 6.51196 64.1139 6.33811 64.3443 5.99043C64.5816 5.63153 64.7003 5.13804 64.7003 4.50997C64.7003 3.87068 64.5781 3.37158 64.3338 3.01268C64.0964 2.64257 63.7683 2.45751 63.3494 2.45751H62.0927V6.51196H63.3494Z" fill="white"/>
<path d="M70.3098 11.0711C70.6938 11.0711 71.0463 10.9646 71.3675 10.7515C71.6886 10.5271 71.9644 10.2243 72.1948 9.84299C72.4252 9.45045 72.6032 8.985 72.7289 8.44665C72.8615 7.89708 72.9279 7.30266 72.9279 6.66337C72.9279 6.00165 72.865 5.40161 72.7394 4.86326C72.6137 4.32491 72.4357 3.86507 72.2053 3.48374C71.9749 3.09119 71.6991 2.78837 71.3779 2.57527C71.0568 2.36218 70.7007 2.25563 70.3098 2.25563C69.9188 2.25563 69.5627 2.36218 69.2416 2.57527C68.9204 2.78837 68.6447 3.09119 68.4143 3.48374C68.1839 3.86507 68.0058 4.32491 67.8802 4.86326C67.7545 5.40161 67.6917 6.00165 67.6917 6.66337C67.6917 7.30266 67.7545 7.89708 67.8802 8.44665C68.0128 8.985 68.1943 9.45045 68.4247 9.84299C68.6551 10.2243 68.9309 10.5271 69.2521 10.7515C69.5732 10.9646 69.9258 11.0711 70.3098 11.0711ZM70.3098 12.5852C69.7861 12.5852 69.2974 12.4394 68.8436 12.1478C68.3968 11.845 68.0093 11.43 67.6812 10.9029C67.36 10.3757 67.1052 9.75327 66.9167 9.03547C66.7352 8.30645 66.6444 7.52136 66.6444 6.68019C66.6444 5.83902 66.7387 5.05953 66.9272 4.34173C67.1157 3.62394 67.374 3.00147 67.7021 2.47433C68.0303 1.9472 68.4178 1.53783 68.8646 1.24622C69.3114 0.943403 69.7931 0.791992 70.3098 0.791992C70.8334 0.791992 71.3186 0.943403 71.7654 1.24622C72.2123 1.53783 72.5997 1.9472 72.9279 2.47433C73.256 3.00147 73.5108 3.62394 73.6924 4.34173C73.8809 5.05953 73.9751 5.83902 73.9751 6.68019C73.9751 7.52136 73.8809 8.30645 73.6924 9.03547C73.5108 9.75327 73.256 10.3757 72.9279 10.9029C72.6067 11.43 72.2192 11.845 71.7654 12.1478C71.3186 12.4394 70.8334 12.5852 70.3098 12.5852Z" fill="white"/>
<path d="M76.5046 2.49116H74.0017V1.07799H80.0024V2.49116H77.51V12.2992H76.5046V2.49116Z" fill="white"/>
<path d="M82.035 10.0785L85.5014 1.78457C85.7248 1.25744 85.9761 0.993873 86.2554 0.993873C86.4369 0.993873 86.5835 1.08921 86.6952 1.27987C86.807 1.45932 86.8628 1.70606 86.8628 2.0201V12.2992H85.8784V3.26504L82.3387 11.7609C82.2549 11.9515 82.1537 12.1029 82.035 12.2151C81.9233 12.3273 81.8046 12.3833 81.679 12.3833C81.4835 12.3833 81.3299 12.288 81.2182 12.0973C81.1065 11.8955 81.0506 11.6319 81.0506 11.3066V1.07799H82.035V10.0785Z" fill="white"/>
<path d="M88.4549 1.07799H90.8217C91.1847 1.07799 91.4989 1.1565 91.7642 1.31352C92.0295 1.45932 92.2494 1.6612 92.424 1.91916C92.5985 2.17712 92.7277 2.47994 92.8115 2.82763C92.9022 3.17531 92.9476 3.54543 92.9476 3.93797C92.9476 4.29687 92.9092 4.61652 92.8324 4.89691C92.7556 5.1773 92.6614 5.42404 92.5497 5.63714C92.4379 5.83902 92.3123 6.00164 92.1726 6.12502C92.04 6.24839 91.9178 6.3269 91.8061 6.36054C91.9457 6.39419 92.1028 6.46709 92.2774 6.57925C92.4519 6.68019 92.616 6.83721 92.7696 7.05031C92.9232 7.2634 93.0523 7.54379 93.1571 7.89148C93.2618 8.22794 93.3141 8.64853 93.3141 9.15323C93.3141 9.75888 93.2443 10.2636 93.1047 10.6673C92.972 11.0599 92.787 11.3795 92.5497 11.6263C92.3193 11.873 92.0435 12.0469 91.7223 12.1478C91.4012 12.2487 91.0591 12.2992 90.696 12.2992H88.4549V1.07799ZM90.6437 10.9029C90.8252 10.9029 91.0137 10.886 91.2092 10.8524C91.4047 10.8188 91.5827 10.7402 91.7433 10.6169C91.9108 10.4935 92.047 10.314 92.1517 10.0785C92.2564 9.83178 92.3088 9.49531 92.3088 9.06912C92.3088 8.66535 92.2564 8.3401 92.1517 8.09336C92.054 7.84661 91.9248 7.65034 91.7642 7.50454C91.6106 7.35873 91.4396 7.2634 91.2511 7.21854C91.0626 7.16246 90.8811 7.13442 90.7065 7.13442H89.4289V10.9029H90.6437ZM90.6751 5.7549C90.8287 5.7549 90.9823 5.72686 91.1359 5.67078C91.2895 5.60349 91.4291 5.50255 91.5548 5.36796C91.6804 5.23338 91.7817 5.05953 91.8585 4.84644C91.9353 4.63334 91.9737 4.37538 91.9737 4.07256C91.9737 3.73609 91.9353 3.46692 91.8585 3.26504C91.7817 3.05194 91.6804 2.88931 91.5548 2.77716C91.4291 2.65378 91.2895 2.57527 91.1359 2.54163C90.9823 2.49677 90.8287 2.47433 90.6751 2.47433H89.4289V5.7549H90.6751Z" fill="white"/>
<path d="M98.0146 11.0711C98.3986 11.0711 98.7512 10.9646 99.0723 10.7515C99.3935 10.5271 99.6693 10.2243 99.8997 9.84299C100.13 9.45045 100.308 8.985 100.434 8.44665C100.566 7.89708 100.633 7.30266 100.633 6.66337C100.633 6.00165 100.57 5.40161 100.444 4.86326C100.319 4.32491 100.141 3.86507 99.9101 3.48374C99.6797 3.09119 99.404 2.78837 99.0828 2.57527C98.7616 2.36218 98.4056 2.25563 98.0146 2.25563C97.6236 2.25563 97.2676 2.36218 96.9464 2.57527C96.6253 2.78837 96.3495 3.09119 96.1191 3.48374C95.8887 3.86507 95.7107 4.32491 95.585 4.86326C95.4593 5.40161 95.3965 6.00165 95.3965 6.66337C95.3965 7.30266 95.4593 7.89708 95.585 8.44665C95.7177 8.985 95.8992 9.45045 96.1296 9.84299C96.36 10.2243 96.6357 10.5271 96.9569 10.7515C97.2781 10.9646 97.6306 11.0711 98.0146 11.0711ZM98.0146 12.5852C97.491 12.5852 97.0023 12.4394 96.5485 12.1478C96.1017 11.845 95.7142 11.43 95.386 10.9029C95.0649 10.3757 94.8101 9.75327 94.6216 9.03547C94.44 8.30645 94.3493 7.52136 94.3493 6.68019C94.3493 5.83902 94.4435 5.05953 94.632 4.34173C94.8205 3.62394 95.0789 3.00147 95.407 2.47433C95.7351 1.9472 96.1226 1.53783 96.5694 1.24622C97.0162 0.943403 97.498 0.791992 98.0146 0.791992C98.5382 0.791992 99.0235 0.943403 99.4703 1.24622C99.9171 1.53783 100.305 1.9472 100.633 2.47433C100.961 3.00147 101.216 3.62394 101.397 4.34173C101.586 5.05953 101.68 5.83902 101.68 6.68019C101.68 7.52136 101.586 8.30645 101.397 9.03547C101.216 9.75327 100.961 10.3757 100.633 10.9029C100.312 11.43 99.9241 11.845 99.4703 12.1478C99.0235 12.4394 98.5382 12.5852 98.0146 12.5852Z" fill="white"/>
<path d="M108.789 1.07799V12.2992H107.784V2.5248H103.993V12.2992H102.987V1.07799H108.789Z" fill="white"/>
<path d="M113.774 11.0711C114.158 11.0711 114.511 10.9646 114.832 10.7515C115.153 10.5271 115.429 10.2243 115.659 9.84299C115.89 9.45045 116.068 8.985 116.193 8.44665C116.326 7.89708 116.392 7.30266 116.392 6.66337C116.392 6.00165 116.33 5.40161 116.204 4.86326C116.078 4.32491 115.9 3.86507 115.67 3.48374C115.439 3.09119 115.164 2.78837 114.843 2.57527C114.521 2.36218 114.165 2.25563 113.774 2.25563C113.383 2.25563 113.027 2.36218 112.706 2.57527C112.385 2.78837 112.109 3.09119 111.879 3.48374C111.648 3.86507 111.47 4.32491 111.345 4.86326C111.219 5.40161 111.156 6.00165 111.156 6.66337C111.156 7.30266 111.219 7.89708 111.345 8.44665C111.477 8.985 111.659 9.45045 111.889 9.84299C112.12 10.2243 112.396 10.5271 112.717 10.7515C113.038 10.9646 113.39 11.0711 113.774 11.0711ZM113.774 12.5852C113.251 12.5852 112.762 12.4394 112.308 12.1478C111.861 11.845 111.474 11.43 111.146 10.9029C110.825 10.3757 110.57 9.75327 110.381 9.03547C110.2 8.30645 110.109 7.52136 110.109 6.68019C110.109 5.83902 110.203 5.05953 110.392 4.34173C110.58 3.62394 110.839 3.00147 111.167 2.47433C111.495 1.9472 111.882 1.53783 112.329 1.24622C112.776 0.943403 113.258 0.791992 113.774 0.791992C114.298 0.791992 114.783 0.943403 115.23 1.24622C115.677 1.53783 116.064 1.9472 116.392 2.47433C116.721 3.00147 116.975 3.62394 117.157 4.34173C117.345 5.05953 117.44 5.83902 117.44 6.68019C117.44 7.52136 117.345 8.30645 117.157 9.03547C116.975 9.75327 116.721 10.3757 116.392 10.9029C116.071 11.43 115.684 11.845 115.23 12.1478C114.783 12.4394 114.298 12.5852 113.774 12.5852Z" fill="white"/>
<path d="M122.706 4.72867C122.524 5.23338 122.357 5.62031 122.203 5.88949C122.057 6.14745 121.882 6.33811 121.679 6.46149C122.056 6.86525 122.447 7.54379 122.852 8.49712C123.257 9.45045 123.694 10.7178 124.161 12.2992H123.072C122.919 11.8057 122.79 11.402 122.685 11.0879C122.58 10.7627 122.482 10.4767 122.392 10.2299C122.301 9.97197 122.207 9.71962 122.109 9.47288C122.011 9.22613 121.889 8.93453 121.742 8.59806C121.519 8.08214 121.309 7.72324 121.114 7.52136C120.925 7.31948 120.706 7.21854 120.454 7.21854H119.753V12.2992H118.747V1.07799H119.753V5.77173H120.58C120.838 5.77173 121.051 5.68761 121.219 5.51937C121.386 5.35114 121.54 5.07075 121.679 4.6782L122.926 1.07799H124.025L122.706 4.72867Z" fill="white"/>
<path d="M129.405 9.17006H126.535L125.823 12.2992H124.765L127.31 1.85187C127.45 1.27987 127.691 0.993873 128.033 0.993873C128.347 0.993873 128.577 1.29109 128.724 1.88551L131.258 12.2992H130.138L129.405 9.17006ZM127.98 2.76033L126.839 7.80736H129.101L127.98 2.76033Z" fill="white"/>
<path d="M133.243 5.78855H134.249C134.423 5.78855 134.587 5.7549 134.741 5.68761C134.895 5.62031 135.031 5.51377 135.149 5.36796C135.268 5.22216 135.362 5.0371 135.432 4.81279C135.502 4.58848 135.537 4.3193 135.537 4.00527C135.537 3.68001 135.498 3.40523 135.422 3.18092C135.352 2.95661 135.254 2.77716 135.128 2.64257C135.01 2.49677 134.874 2.39583 134.72 2.33975C134.566 2.27245 134.409 2.23881 134.249 2.23881C134.025 2.23881 133.826 2.28928 133.652 2.39022C133.477 2.49116 133.324 2.62014 133.191 2.77716C133.065 2.93417 132.954 3.10241 132.856 3.28186C132.758 3.46131 132.674 3.62393 132.605 3.76974L131.903 2.92857C131.994 2.70425 132.105 2.46873 132.238 2.22198C132.378 1.97524 132.545 1.74532 132.741 1.53222C132.943 1.31913 133.174 1.14528 133.432 1.0107C133.697 0.876109 133.997 0.808815 134.333 0.808815C134.689 0.808815 135.003 0.892932 135.275 1.06117C135.554 1.21819 135.785 1.43128 135.966 1.70046C136.155 1.96963 136.294 2.28928 136.385 2.65939C136.483 3.01829 136.532 3.39962 136.532 3.80338C136.532 4.43146 136.424 4.99224 136.207 5.48573C135.998 5.968 135.704 6.28204 135.327 6.42784C135.516 6.49513 135.694 6.60729 135.862 6.76431C136.036 6.91011 136.186 7.10078 136.312 7.3363C136.444 7.57183 136.549 7.85222 136.626 8.17747C136.703 8.50273 136.741 8.87845 136.741 9.30464C136.741 9.86542 136.675 10.3533 136.542 10.7683C136.417 11.172 136.242 11.5085 136.019 11.7777C135.795 12.0469 135.537 12.2431 135.244 12.3665C134.95 12.5011 134.636 12.5684 134.301 12.5684C133.931 12.5684 133.603 12.4955 133.317 12.3497C133.03 12.2039 132.779 12.0244 132.563 11.8113C132.353 11.5982 132.175 11.3683 132.029 11.1216C131.889 10.8748 131.777 10.6505 131.693 10.4486L132.416 9.59064C132.479 9.72523 132.559 9.88225 132.657 10.0617C132.755 10.2411 132.877 10.4094 133.023 10.5664C133.17 10.7234 133.345 10.858 133.547 10.9702C133.75 11.0823 133.983 11.1384 134.249 11.1384C134.444 11.1384 134.629 11.1047 134.804 11.0375C134.985 10.9589 135.142 10.8412 135.275 10.6842C135.415 10.5271 135.523 10.3197 135.6 10.0617C135.683 9.79252 135.725 9.47288 135.725 9.10276C135.725 8.73265 135.683 8.42422 135.6 8.17747C135.523 7.93073 135.418 7.73446 135.286 7.58865C135.16 7.44285 135.013 7.34191 134.846 7.28583C134.678 7.21854 134.507 7.18489 134.333 7.18489H133.243V5.78855Z" fill="white"/>
<path d="M141.769 9.17006H138.9L138.188 12.2992H137.13L139.675 1.85187C139.814 1.27987 140.055 0.993873 140.397 0.993873C140.711 0.993873 140.942 1.29109 141.088 1.88551L143.623 12.2992H142.502L141.769 9.17006ZM140.345 2.76033L139.203 7.80736H141.465L140.345 2.76033Z" fill="white"/>
<path d="M144.54 1.07799H145.545V5.77173H149.367V1.07799H150.373V12.2992H149.367V7.21854H145.545V12.2992H144.54V1.07799Z" fill="white"/>
<path d="M152.949 10.0785L156.415 1.78457C156.639 1.25744 156.89 0.993873 157.169 0.993873C157.351 0.993873 157.497 1.08921 157.609 1.27987C157.721 1.45932 157.777 1.70606 157.777 2.0201V12.2992H156.792V3.26504L153.253 11.7609C153.169 11.9515 153.067 12.1029 152.949 12.2151C152.837 12.3273 152.718 12.3833 152.593 12.3833C152.397 12.3833 152.244 12.288 152.132 12.0973C152.02 11.8955 151.964 11.6319 151.964 11.3066V1.07799H152.949V10.0785Z" fill="white"/>
<path d="M158.835 12.2992C158.96 11.7833 159.096 11.273 159.243 10.7683C159.39 10.2636 159.536 9.79813 159.683 9.37194C159.83 8.94574 159.973 8.56441 160.112 8.22794C160.259 7.89148 160.392 7.6223 160.51 7.42042C160.077 7.16246 159.746 6.77552 159.515 6.2596C159.292 5.74369 159.18 5.11561 159.18 4.37538C159.18 3.36598 159.39 2.56406 159.809 1.96963C160.234 1.3752 160.835 1.07799 161.61 1.07799H163.84V12.2992H162.867V7.70642H161.893C161.606 7.70642 161.355 7.95877 161.139 8.46347C160.929 8.96818 160.72 9.55139 160.51 10.2131C160.301 10.8636 160.098 11.559 159.903 12.2992H158.835ZM162.867 6.34372V2.47433H161.547C161.128 2.47433 160.8 2.64818 160.563 2.99586C160.325 3.33233 160.207 3.80899 160.207 4.42585C160.207 5.03149 160.329 5.50255 160.573 5.83902C160.817 6.17549 161.149 6.34372 161.568 6.34372H162.867Z" fill="white"/>
<path d="M165.967 12.3665C165.786 12.3665 165.632 12.2712 165.507 12.0805C165.388 11.8786 165.329 11.6319 165.329 11.3403C165.329 11.0487 165.388 10.8075 165.507 10.6169C165.632 10.415 165.786 10.314 165.967 10.314C166.149 10.314 166.299 10.415 166.418 10.6169C166.543 10.8075 166.606 11.0487 166.606 11.3403C166.606 11.6319 166.543 11.8786 166.418 12.0805C166.299 12.2712 166.149 12.3665 165.967 12.3665Z" fill="white"/>
<path d="M175.817 1.07799V12.2992H174.811V2.5248H171.02V12.2992H170.015V1.07799H175.817Z" fill="white"/>
<path d="M177.953 12.2992C177.793 12.2992 177.664 12.2263 177.566 12.0805C177.468 11.9347 177.419 11.716 177.419 11.4244V1.07799H181.818V2.50798H178.425V5.77173H180.98V7.21854H178.425V10.8524H182.069V12.2992H177.953Z" fill="white"/>
<path d="M183.331 1.07799H185.54C186.015 1.07799 186.406 1.18454 186.713 1.39764C187.027 1.61073 187.275 1.87991 187.457 2.20516C187.645 2.53041 187.774 2.89492 187.844 3.29868C187.921 3.70244 187.959 4.09499 187.959 4.47632C187.959 5.0371 187.9 5.53059 187.781 5.95678C187.663 6.38298 187.499 6.74188 187.289 7.03348C187.08 7.31387 186.828 7.52697 186.535 7.67277C186.249 7.81857 185.935 7.89148 185.593 7.89148H184.325V12.2992H183.331V1.07799ZM185.582 6.51196C186.015 6.51196 186.347 6.33811 186.577 5.99043C186.814 5.63153 186.933 5.13804 186.933 4.50997C186.933 3.87068 186.811 3.37158 186.566 3.01268C186.329 2.64257 186.001 2.45751 185.582 2.45751H184.325V6.51196H185.582Z" fill="white"/>
<path d="M189.796 12.2992C189.636 12.2992 189.506 12.2263 189.409 12.0805C189.311 11.9347 189.262 11.716 189.262 11.4244V1.07799H193.661V2.50798H190.267V5.77173H192.823V7.21854H190.267V10.8524H193.912V12.2992H189.796Z" fill="white"/>
<path d="M200.352 2.5248H197.954C197.898 3.56786 197.828 4.49875 197.745 5.31749C197.661 6.13623 197.556 6.87646 197.43 7.53818C197.312 8.18869 197.169 8.78312 197.001 9.32147C196.841 9.85982 196.659 10.3701 196.457 10.8524H200.352V2.5248ZM197.053 1.85187C197.067 1.61634 197.116 1.43128 197.2 1.29669C197.284 1.15089 197.406 1.07799 197.567 1.07799H201.326V10.8524H201.913V14.89H201.002V12.2992H195.713V14.89H194.802V10.8524H195.346C195.612 10.3028 195.839 9.72523 196.027 9.11959C196.216 8.51394 196.376 7.85222 196.509 7.13442C196.649 6.41662 196.76 5.62592 196.844 4.76232C196.928 3.89872 196.998 2.92857 197.053 1.85187Z" fill="white"/>
<path d="M210.783 1.07799V12.2992H209.777V2.5248H205.986V12.2992H204.981V1.07799H210.783Z" fill="white"/>
<path d="M212.385 1.07799H214.595C215.07 1.07799 215.461 1.18454 215.768 1.39764C216.082 1.61073 216.33 1.87991 216.511 2.20516C216.7 2.53041 216.829 2.89492 216.899 3.29868C216.976 3.70244 217.014 4.09499 217.014 4.47632C217.014 5.0371 216.955 5.53059 216.836 5.95678C216.717 6.38298 216.553 6.74188 216.344 7.03348C216.134 7.31387 215.883 7.52697 215.59 7.67277C215.304 7.81857 214.989 7.89148 214.647 7.89148H213.38V12.2992H212.385V1.07799ZM214.637 6.51196C215.07 6.51196 215.401 6.33811 215.632 5.99043C215.869 5.63153 215.988 5.13804 215.988 4.50997C215.988 3.87068 215.866 3.37158 215.621 3.01268C215.384 2.64257 215.056 2.45751 214.637 2.45751H213.38V6.51196H214.637Z" fill="white"/>
<path d="M219.301 10.0785L222.768 1.78457C222.991 1.25744 223.242 0.993873 223.522 0.993873C223.703 0.993873 223.85 1.08921 223.962 1.27987C224.073 1.45932 224.129 1.70606 224.129 2.0201V12.2992H223.145V3.26504L219.605 11.7609C219.521 11.9515 219.42 12.1029 219.301 12.2151C219.19 12.3273 219.071 12.3833 218.945 12.3833C218.75 12.3833 218.596 12.288 218.485 12.0973C218.373 11.8955 218.317 11.6319 218.317 11.3066V1.07799H219.301V10.0785Z" fill="white"/>
<path d="M226.308 0.993873C226.545 0.993873 226.751 1.2294 226.926 1.70046L229.125 7.55501L231.282 1.8014C231.394 1.50979 231.502 1.3023 231.607 1.17893C231.711 1.05556 231.837 0.993873 231.984 0.993873C232.144 0.993873 232.274 1.08921 232.371 1.27987C232.476 1.45932 232.528 1.70046 232.528 2.00328V12.2992H231.586V3.46692L229.648 8.64853C229.523 8.985 229.345 9.15323 229.114 9.15323C229.003 9.15323 228.894 9.10276 228.79 9.00182C228.685 8.90088 228.601 8.76069 228.538 8.58124L226.664 3.53421V12.2992H225.721V2.0201C225.721 1.69485 225.774 1.4425 225.878 1.26305C225.983 1.0836 226.126 0.993873 226.308 0.993873Z" fill="white"/>
<path d="M234.652 12.2992C234.491 12.2992 234.362 12.2263 234.264 12.0805C234.166 11.9347 234.118 11.716 234.118 11.4244V1.07799H238.516V2.50798H235.123V5.77173H237.678V7.21854H235.123V10.8524H238.767V12.2992H234.652Z" fill="white"/>
<path d="M240.029 1.07799H241.034V5.77173H244.857V1.07799H245.862V12.2992H244.857V7.21854H241.034V12.2992H240.029V1.07799Z" fill="white"/>
<path d="M247.988 12.2992C247.827 12.2992 247.698 12.2263 247.6 12.0805C247.502 11.9347 247.454 11.716 247.454 11.4244V1.07799H251.852V2.50798H248.459V5.77173H251.014V7.21854H248.459V10.8524H252.103V12.2992H247.988Z" fill="white"/>
<path d="M253.365 1.07799H254.37V5.77173H258.193V1.07799H259.198V12.2992H258.193V7.21854H254.37V12.2992H253.365V1.07799Z" fill="white"/>
<path d="M261.774 10.0785L265.24 1.78457C265.464 1.25744 265.715 0.993873 265.994 0.993873C266.176 0.993873 266.322 1.08921 266.434 1.27987C266.546 1.45932 266.602 1.70606 266.602 2.0201V12.2992H265.617V3.26504L262.078 11.7609C261.994 11.9515 261.893 12.1029 261.774 12.2151C261.662 12.3273 261.544 12.3833 261.418 12.3833C261.222 12.3833 261.069 12.288 260.957 12.0973C260.845 11.8955 260.79 11.6319 260.79 11.3066V1.07799H261.774V10.0785Z" fill="white"/>
<path d="M268.728 12.2992C268.567 12.2992 268.438 12.2263 268.34 12.0805C268.243 11.9347 268.194 11.716 268.194 11.4244V1.07799H272.592V2.50798H269.199V5.77173H271.754V7.21854H269.199V10.8524H272.844V12.2992H268.728Z" fill="white"/>
<path d="M274.692 0.993873C274.929 0.993873 275.135 1.2294 275.309 1.70046L277.509 7.55501L279.666 1.8014C279.778 1.50979 279.886 1.3023 279.991 1.17893C280.095 1.05556 280.221 0.993873 280.368 0.993873C280.528 0.993873 280.657 1.08921 280.755 1.27987C280.86 1.45932 280.912 1.70046 280.912 2.00328V12.2992H279.97V3.46692L278.032 8.64853C277.907 8.985 277.729 9.15323 277.498 9.15323C277.386 9.15323 277.278 9.10276 277.173 9.00182C277.069 8.90088 276.985 8.76069 276.922 8.58124L275.048 3.53421V12.2992H274.105V2.0201C274.105 1.69485 274.157 1.4425 274.262 1.26305C274.367 1.0836 274.51 0.993873 274.692 0.993873Z" fill="white"/>
<path d="M0.912109 17.98H1.81521V22.6737H5.24885V17.98H6.15195V29.2012H5.24885V24.1205H1.81521V29.2012H0.912109V17.98Z" fill="white"/>
<path d="M8.06148 29.2012C7.91723 29.2012 7.80121 29.1283 7.71341 28.9825C7.62561 28.8367 7.58171 28.618 7.58171 28.3264V17.98H11.5328V19.41H8.4848V22.6737H10.7802V24.1205H8.4848V27.7544H11.7585V29.2012H8.06148Z" fill="white"/>
<path d="M15.5535 27.9731C15.8985 27.9731 16.2152 27.8665 16.5037 27.6534C16.7922 27.4291 17.0399 27.1263 17.2469 26.745C17.4538 26.3524 17.6137 25.887 17.7266 25.3486C17.8458 24.7991 17.9054 24.2046 17.9054 23.5653C17.9054 22.9036 17.8489 22.3036 17.736 21.7652C17.6231 21.2269 17.4632 20.767 17.2563 20.3857C17.0493 19.9932 16.8016 19.6903 16.5131 19.4773C16.2246 19.2642 15.9048 19.1576 15.5535 19.1576C15.2023 19.1576 14.8825 19.2642 14.594 19.4773C14.3055 19.6903 14.0578 19.9932 13.8508 20.3857C13.6439 20.767 13.484 21.2269 13.3711 21.7652C13.2582 22.3036 13.2017 22.9036 13.2017 23.5653C13.2017 24.2046 13.2582 24.7991 13.3711 25.3486C13.4902 25.887 13.6533 26.3524 13.8602 26.745C14.0672 27.1263 14.3149 27.4291 14.6034 27.6534C14.8919 27.8665 15.2086 27.9731 15.5535 27.9731ZM15.5535 29.4872C15.0832 29.4872 14.6442 29.3414 14.2365 29.0498C13.8352 28.747 13.4871 28.332 13.1923 27.8048C12.9038 27.2777 12.6749 26.6552 12.5056 25.9374C12.3425 25.2084 12.261 24.4233 12.261 23.5822C12.261 22.741 12.3457 21.9615 12.515 21.2437C12.6843 20.5259 12.9164 19.9034 13.2111 19.3763C13.5059 18.8492 13.854 18.4398 14.2553 18.1482C14.6567 17.8454 15.0895 17.694 15.5535 17.694C16.0239 17.694 16.4598 17.8454 16.8612 18.1482C17.2625 18.4398 17.6106 18.8492 17.9054 19.3763C18.2001 19.9034 18.429 20.5259 18.5921 21.2437C18.7614 21.9615 18.8461 22.741 18.8461 23.5822C18.8461 24.4233 18.7614 25.2084 18.5921 25.9374C18.429 26.6552 18.2001 27.2777 17.9054 27.8048C17.6169 28.332 17.2688 28.747 16.8612 29.0498C16.4598 29.3414 16.0239 29.4872 15.5535 29.4872Z" fill="white"/>
<path d="M23.8211 17.98V19.3763H20.9237V22.3541H22.1466C22.8616 22.3541 23.4135 22.6569 23.8023 23.2625C24.1911 23.857 24.3856 24.6813 24.3856 25.7356C24.3856 26.173 24.3448 26.6048 24.2633 27.031C24.1817 27.4459 24.05 27.8161 23.8682 28.1413C23.6926 28.4554 23.4574 28.7133 23.1626 28.9152C22.8741 29.1059 22.5198 29.2012 22.0996 29.2012H20.0206V17.98H23.8211ZM20.9237 27.8217H22.1278C22.5417 27.8217 22.8647 27.6534 23.0968 27.317C23.3351 26.9805 23.4542 26.4702 23.4542 25.786C23.4542 25.1131 23.3351 24.6028 23.0968 24.2551C22.8647 23.9074 22.5417 23.7336 22.1278 23.7336H20.9237V27.8217Z" fill="white"/>
<path d="M27.1137 23.3971L25.0441 17.98H26.1354L27.6594 22.0681L29.1645 17.98H30.1523L28.1391 23.3466L30.3687 29.2012H29.2868L27.6029 24.6757L25.919 29.2012H24.9219L27.1137 23.3971Z" fill="white"/>
<path d="M33.8352 27.9731C34.1802 27.9731 34.4969 27.8665 34.7854 27.6534C35.0739 27.4291 35.3216 27.1263 35.5285 26.745C35.7355 26.3524 35.8954 25.887 36.0083 25.3486C36.1275 24.7991 36.187 24.2046 36.187 23.5653C36.187 22.9036 36.1306 22.3036 36.0177 21.7652C35.9048 21.2269 35.7449 20.767 35.5379 20.3857C35.331 19.9932 35.0833 19.6903 34.7948 19.4773C34.5063 19.2642 34.1864 19.1576 33.8352 19.1576C33.484 19.1576 33.1642 19.2642 32.8757 19.4773C32.5872 19.6903 32.3395 19.9932 32.1325 20.3857C31.9256 20.767 31.7656 21.2269 31.6527 21.7652C31.5399 22.3036 31.4834 22.9036 31.4834 23.5653C31.4834 24.2046 31.5399 24.7991 31.6527 25.3486C31.7719 25.887 31.935 26.3524 32.1419 26.745C32.3489 27.1263 32.5966 27.4291 32.8851 27.6534C33.1736 27.8665 33.4903 27.9731 33.8352 27.9731ZM33.8352 29.4872C33.3649 29.4872 32.9259 29.3414 32.5182 29.0498C32.1168 28.747 31.7688 28.332 31.474 27.8048C31.1855 27.2777 30.9566 26.6552 30.7873 25.9374C30.6242 25.2084 30.5427 24.4233 30.5427 23.5822C30.5427 22.741 30.6274 21.9615 30.7967 21.2437C30.966 20.5259 31.1981 19.9034 31.4928 19.3763C31.7876 18.8492 32.1357 18.4398 32.537 18.1482C32.9384 17.8454 33.3711 17.694 33.8352 17.694C34.3056 17.694 34.7415 17.8454 35.1428 18.1482C35.5442 18.4398 35.8923 18.8492 36.187 19.3763C36.4818 19.9034 36.7107 20.5259 36.8738 21.2437C37.0431 21.9615 37.1278 22.741 37.1278 23.5822C37.1278 24.4233 37.0431 25.2084 36.8738 25.9374C36.7107 26.6552 36.4818 27.2777 36.187 27.8048C35.8986 28.332 35.5505 28.747 35.1428 29.0498C34.7415 29.3414 34.3056 29.4872 33.8352 29.4872Z" fill="white"/>
<path d="M42.1552 19.4268H40.001C39.9508 20.4698 39.8881 21.4007 39.8128 22.2195C39.7375 23.0382 39.6435 23.7784 39.5306 24.4402C39.424 25.0907 39.2954 25.6851 39.1449 26.2234C39.0006 26.7618 38.8376 27.2721 38.6557 27.7544H42.1552V19.4268ZM39.1919 18.7538C39.2045 18.5183 39.2484 18.3333 39.3236 18.1987C39.3989 18.0529 39.5086 17.98 39.6529 17.98H43.0301V27.7544H43.5569V31.792H42.7385V29.2012H37.9878V31.792H37.1694V27.7544H37.6585C37.8969 27.2048 38.1007 26.6272 38.27 26.0216C38.4393 25.4159 38.5836 24.7542 38.7028 24.0364C38.8282 23.3186 38.9285 22.5279 39.0038 21.6643C39.079 20.8007 39.1418 19.8305 39.1919 18.7538Z" fill="white"/>
<path d="M45.4979 26.9805L48.6117 18.6866C48.8124 18.1594 49.0381 17.8959 49.289 17.8959C49.4521 17.8959 49.5838 17.9912 49.6841 18.1818C49.7844 18.3613 49.8346 18.608 49.8346 18.9221V29.2012H48.9503V20.167L45.7707 28.6628C45.6954 28.8535 45.6045 29.0049 45.4979 29.1171C45.3975 29.2292 45.2909 29.2853 45.178 29.2853C45.0024 29.2853 44.8645 29.19 44.7641 28.9993C44.6638 28.7974 44.6136 28.5339 44.6136 28.2086V17.98H45.4979V26.9805Z" fill="white"/>
<path d="M51.7916 17.8959C52.0049 17.8959 52.1899 18.1314 52.3467 18.6024L54.3222 24.457L56.2601 18.7034C56.3604 18.4118 56.4576 18.2043 56.5517 18.0809C56.6458 17.9575 56.7587 17.8959 56.8904 17.8959C57.0346 17.8959 57.1506 17.9912 57.2384 18.1818C57.3325 18.3613 57.3795 18.6024 57.3795 18.9053V29.2012H56.5329V20.3689L54.7925 25.5505C54.6797 25.887 54.5197 26.0552 54.3128 26.0552C54.2124 26.0552 54.1152 26.0047 54.0211 25.9038C53.9271 25.8029 53.8518 25.6627 53.7954 25.4832L52.1115 20.4362V29.2012H51.2648V18.9221C51.2648 18.5968 51.3119 18.3445 51.4059 18.165C51.5 17.9856 51.6286 17.8959 51.7916 17.8959Z" fill="white"/>
<path d="M61.8457 27.9731C62.1906 27.9731 62.5073 27.8665 62.7958 27.6534C63.0843 27.4291 63.3321 27.1263 63.539 26.745C63.746 26.3524 63.9059 25.887 64.0188 25.3486C64.1379 24.7991 64.1975 24.2046 64.1975 23.5653C64.1975 22.9036 64.1411 22.3036 64.0282 21.7652C63.9153 21.2269 63.7554 20.767 63.5484 20.3857C63.3415 19.9932 63.0937 19.6903 62.8052 19.4773C62.5168 19.2642 62.1969 19.1576 61.8457 19.1576C61.4945 19.1576 61.1747 19.2642 60.8862 19.4773C60.5977 19.6903 60.35 19.9932 60.143 20.3857C59.936 20.767 59.7761 21.2269 59.6632 21.7652C59.5503 22.3036 59.4939 22.9036 59.4939 23.5653C59.4939 24.2046 59.5503 24.7991 59.6632 25.3486C59.7824 25.887 59.9454 26.3524 60.1524 26.745C60.3594 27.1263 60.6071 27.4291 60.8956 27.6534C61.1841 27.8665 61.5008 27.9731 61.8457 27.9731ZM61.8457 29.4872C61.3753 29.4872 60.9363 29.3414 60.5287 29.0498C60.1273 28.747 59.7792 28.332 59.4845 27.8048C59.196 27.2777 58.9671 26.6552 58.7978 25.9374C58.6347 25.2084 58.5532 24.4233 58.5532 23.5822C58.5532 22.741 58.6378 21.9615 58.8072 21.2437C58.9765 20.5259 59.2085 19.9034 59.5033 19.3763C59.7981 18.8492 60.1461 18.4398 60.5475 18.1482C60.9489 17.8454 61.3816 17.694 61.8457 17.694C62.3161 17.694 62.7519 17.8454 63.1533 18.1482C63.5547 18.4398 63.9028 18.8492 64.1975 19.3763C64.4923 19.9034 64.7212 20.5259 64.8842 21.2437C65.0536 21.9615 65.1382 22.741 65.1382 23.5822C65.1382 24.4233 65.0536 25.2084 64.8842 25.9374C64.7212 26.6552 64.4923 27.2777 64.1975 27.8048C63.909 28.332 63.561 28.747 63.1533 29.0498C62.7519 29.3414 62.3161 29.4872 61.8457 29.4872Z" fill="white"/>
<path d="M73.2239 17.98V29.2012H72.3208V19.4268H68.9154V29.2012H68.0123V17.98H73.2239Z" fill="white"/>
<path d="M74.6635 17.98H76.6485C77.0749 17.98 77.4261 18.0865 77.7021 18.2996C77.9843 18.5127 78.2069 18.7819 78.37 19.1071C78.5393 19.4324 78.6553 19.7969 78.7181 20.2007C78.787 20.6044 78.8215 20.997 78.8215 21.3783C78.8215 21.9391 78.7682 22.4326 78.6616 22.8588C78.555 23.285 78.4076 23.6439 78.2195 23.9355C78.0313 24.2158 77.8056 24.4289 77.5421 24.5747C77.285 24.7206 77.0028 24.7935 76.6955 24.7935H75.5572V29.2012H74.6635V17.98ZM76.6861 23.4139C77.0749 23.4139 77.3728 23.2401 77.5798 22.8924C77.793 22.5335 77.8996 22.04 77.8996 21.4119C77.8996 20.7727 77.7899 20.2736 77.5704 19.9147C77.3571 19.5445 77.0624 19.3595 76.6861 19.3595H75.5572V23.4139H76.6861Z" fill="white"/>
<path d="M82.9385 27.9731C83.2835 27.9731 83.6002 27.8665 83.8887 27.6534C84.1772 27.4291 84.4249 27.1263 84.6318 26.745C84.8388 26.3524 84.9987 25.887 85.1116 25.3486C85.2308 24.7991 85.2904 24.2046 85.2904 23.5653C85.2904 22.9036 85.2339 22.3036 85.121 21.7652C85.0081 21.2269 84.8482 20.767 84.6413 20.3857C84.4343 19.9932 84.1866 19.6903 83.8981 19.4773C83.6096 19.2642 83.2897 19.1576 82.9385 19.1576C82.5873 19.1576 82.2675 19.2642 81.979 19.4773C81.6905 19.6903 81.4428 19.9932 81.2358 20.3857C81.0289 20.767 80.8689 21.2269 80.7561 21.7652C80.6432 22.3036 80.5867 22.9036 80.5867 23.5653C80.5867 24.2046 80.6432 24.7991 80.7561 25.3486C80.8752 25.887 81.0383 26.3524 81.2452 26.745C81.4522 27.1263 81.6999 27.4291 81.9884 27.6534C82.2769 27.8665 82.5936 27.9731 82.9385 27.9731ZM82.9385 29.4872C82.4682 29.4872 82.0292 29.3414 81.6215 29.0498C81.2201 28.747 80.8721 28.332 80.5773 27.8048C80.2888 27.2777 80.0599 26.6552 79.8906 25.9374C79.7275 25.2084 79.646 24.4233 79.646 23.5822C79.646 22.741 79.7307 21.9615 79.9 21.2437C80.0693 20.5259 80.3014 19.9034 80.5961 19.3763C80.8909 18.8492 81.239 18.4398 81.6403 18.1482C82.0417 17.8454 82.4744 17.694 82.9385 17.694C83.4089 17.694 83.8448 17.8454 84.2461 18.1482C84.6475 18.4398 84.9956 18.8492 85.2904 19.3763C85.5851 19.9034 85.814 20.5259 85.9771 21.2437C86.1464 21.9615 86.2311 22.741 86.2311 23.5822C86.2311 24.4233 86.1464 25.2084 85.9771 25.9374C85.814 26.6552 85.5851 27.2777 85.2904 27.8048C85.0019 28.332 84.6538 28.747 84.2461 29.0498C83.8448 29.3414 83.4089 29.4872 82.9385 29.4872Z" fill="white"/>
<path d="M90.9615 21.6307C90.7985 22.1354 90.648 22.5223 90.51 22.7915C90.3783 23.0494 90.2215 23.2401 90.0396 23.3635C90.3783 23.7672 90.7295 24.4458 91.0932 25.3991C91.457 26.3524 91.8489 27.6198 92.2691 29.2012H91.2908C91.1528 28.7077 91.0368 28.3039 90.9427 27.9899C90.8486 27.6647 90.7608 27.3787 90.6793 27.1319C90.5978 26.874 90.5131 26.6216 90.4253 26.3749C90.3375 26.1281 90.2278 25.8365 90.0961 25.5C89.8954 24.9841 89.7072 24.6252 89.5316 24.4233C89.3623 24.2215 89.1647 24.1205 88.939 24.1205H88.3087V29.2012H87.4056V17.98H88.3087V22.6737H89.0519C89.2839 22.6737 89.4752 22.5896 89.6257 22.4214C89.7762 22.2531 89.9142 21.9727 90.0396 21.5802L91.1591 17.98H92.1468L90.9615 21.6307Z" fill="white"/>
<path d="M95.7449 27.9731C96.0898 27.9731 96.4065 27.8665 96.695 27.6534C96.9835 27.4291 97.2312 27.1263 97.4382 26.745C97.6452 26.3524 97.8051 25.887 97.918 25.3486C98.0371 24.7991 98.0967 24.2046 98.0967 23.5653C98.0967 22.9036 98.0403 22.3036 97.9274 21.7652C97.8145 21.2269 97.6546 20.767 97.4476 20.3857C97.2407 19.9932 96.9929 19.6903 96.7044 19.4773C96.4159 19.2642 96.0961 19.1576 95.7449 19.1576C95.3937 19.1576 95.0738 19.2642 94.7854 19.4773C94.4969 19.6903 94.2491 19.9932 94.0422 20.3857C93.8352 20.767 93.6753 21.2269 93.5624 21.7652C93.4495 22.3036 93.3931 22.9036 93.3931 23.5653C93.3931 24.2046 93.4495 24.7991 93.5624 25.3486C93.6816 25.887 93.8446 26.3524 94.0516 26.745C94.2586 27.1263 94.5063 27.4291 94.7948 27.6534C95.0833 27.8665 95.4 27.9731 95.7449 27.9731ZM95.7449 29.4872C95.2745 29.4872 94.8355 29.3414 94.4279 29.0498C94.0265 28.747 93.6784 28.332 93.3837 27.8048C93.0952 27.2777 92.8663 26.6552 92.6969 25.9374C92.5339 25.2084 92.4524 24.4233 92.4524 23.5822C92.4524 22.741 92.537 21.9615 92.7064 21.2437C92.8757 20.5259 93.1077 19.9034 93.4025 19.3763C93.6973 18.8492 94.0453 18.4398 94.4467 18.1482C94.8481 17.8454 95.2808 17.694 95.7449 17.694C96.2153 17.694 96.6511 17.8454 97.0525 18.1482C97.4539 18.4398 97.802 18.8492 98.0967 19.3763C98.3915 19.9034 98.6204 20.5259 98.7834 21.2437C98.9528 21.9615 99.0374 22.741 99.0374 23.5822C99.0374 24.4233 98.9528 25.2084 98.7834 25.9374C98.6204 26.6552 98.3915 27.2777 98.0967 27.8048C97.8082 28.332 97.4602 28.747 97.0525 29.0498C96.6511 29.3414 96.2153 29.4872 95.7449 29.4872Z" fill="white"/>
<path d="M100.212 17.98H101.115V22.6737H104.549V17.98H105.452V29.2012H104.549V24.1205H101.115V29.2012H100.212V17.98Z" fill="white"/>
<path d="M111.802 20.9072C111.588 20.3577 111.315 19.9315 110.983 19.6287C110.651 19.3146 110.296 19.1576 109.92 19.1576C109.569 19.1576 109.249 19.2642 108.961 19.4773C108.672 19.6903 108.424 19.9932 108.217 20.3857C108.017 20.767 107.86 21.2325 107.747 21.7821C107.634 22.3204 107.578 22.9261 107.578 23.599C107.578 24.2607 107.631 24.8607 107.738 25.3991C107.85 25.9262 108.007 26.3805 108.208 26.7618C108.415 27.1431 108.66 27.4403 108.942 27.6534C109.224 27.8553 109.541 27.9563 109.892 27.9563C110.256 27.9563 110.588 27.8273 110.889 27.5693C111.19 27.3114 111.497 26.8852 111.811 26.2907L112.441 27.2328C112.328 27.5357 112.178 27.8273 111.99 28.1077C111.802 28.3768 111.591 28.6124 111.359 28.8143C111.127 29.0161 110.883 29.1732 110.626 29.2853C110.375 29.4087 110.13 29.4704 109.892 29.4704C109.409 29.4704 108.967 29.3302 108.565 29.0498C108.164 28.7694 107.819 28.3712 107.531 27.8553C107.242 27.3394 107.02 26.7225 106.863 26.0047C106.706 25.2869 106.628 24.4962 106.628 23.6326C106.628 22.7803 106.709 21.9895 106.872 21.2605C107.035 20.5315 107.261 19.9091 107.549 19.3931C107.844 18.866 108.192 18.4566 108.594 18.165C108.995 17.8622 109.434 17.7108 109.911 17.7108C110.168 17.7108 110.419 17.7669 110.663 17.879C110.914 17.98 111.149 18.1258 111.369 18.3164C111.588 18.5071 111.789 18.7426 111.971 19.023C112.159 19.2922 112.316 19.595 112.441 19.9315L111.802 20.9072Z" fill="white"/>
<path d="M118.196 17.98L115.778 26.8627C115.684 27.2216 115.581 27.5581 115.468 27.8721C115.361 28.1862 115.239 28.4666 115.101 28.7133C114.969 28.9488 114.819 29.1339 114.649 29.2685C114.48 29.4143 114.286 29.4872 114.066 29.4872C113.84 29.4872 113.63 29.4199 113.436 29.2853C113.248 29.1507 113.082 28.9881 112.937 28.7974L113.332 27.5861C113.433 27.7095 113.539 27.8217 113.652 27.9226C113.771 28.0123 113.906 28.0572 114.057 28.0572C114.17 28.0572 114.27 28.0236 114.358 27.9563C114.446 27.889 114.527 27.7824 114.602 27.6366C114.684 27.4796 114.759 27.2889 114.828 27.0646C114.903 26.8291 114.985 26.5487 115.073 26.2234L112.665 17.98H113.652L115.524 24.5747L117.265 17.98H118.196Z" fill="white"/>
<path d="M119.214 18.9389C119.221 18.6473 119.265 18.4174 119.346 18.2491C119.434 18.0697 119.556 17.98 119.713 17.98H123.156V29.2012H122.253V19.4268H120.08C120.042 21.1876 119.964 22.6905 119.845 23.9355C119.726 25.1692 119.562 26.1842 119.356 26.9805C119.149 27.7656 118.891 28.3432 118.584 28.7133C118.283 29.0722 117.926 29.2517 117.512 29.2517H117.38V27.788C117.681 27.788 117.938 27.631 118.151 27.317C118.371 26.9917 118.553 26.4758 118.697 25.7692C118.841 25.0626 118.954 24.1486 119.036 23.027C119.123 21.9054 119.183 20.5427 119.214 18.9389Z" fill="white"/>
<path d="M125.488 27.8217H126.692C127.106 27.8217 127.429 27.6422 127.661 27.2833C127.899 26.9244 128.018 26.3861 128.018 25.6683C128.018 24.9617 127.899 24.4233 127.661 24.0532C127.429 23.6719 127.106 23.4812 126.692 23.4812H125.488V27.8217ZM125.488 17.98V22.1017H126.711C127.425 22.1017 127.977 22.4157 128.366 23.0438C128.755 23.6607 128.949 24.5131 128.949 25.601C128.949 26.0608 128.909 26.5094 128.827 26.9469C128.746 27.373 128.614 27.7544 128.432 28.0908C128.256 28.4273 128.021 28.6965 127.726 28.8984C127.438 29.1002 127.084 29.2012 126.663 29.2012H124.584V17.98H125.488Z" fill="white"/>
<path d="M130.404 19.3931H128.156V17.98H133.546V19.3931H131.307V29.2012H130.404V19.3931Z" fill="white"/>
<path d="M135.372 26.9805L138.486 18.6866C138.687 18.1594 138.912 17.8959 139.163 17.8959C139.326 17.8959 139.458 17.9912 139.558 18.1818C139.659 18.3613 139.709 18.608 139.709 18.9221V29.2012H138.825V20.167L135.645 28.6628C135.57 28.8535 135.479 29.0049 135.372 29.1171C135.272 29.2292 135.165 29.2853 135.052 29.2853C134.877 29.2853 134.739 29.19 134.638 28.9993C134.538 28.7974 134.488 28.5339 134.488 28.2086V17.98H135.372V26.9805Z" fill="white"/>
<path d="M141.139 17.98H143.124C143.55 17.98 143.902 18.0865 144.178 18.2996C144.46 18.5127 144.682 18.7819 144.845 19.1071C145.015 19.4324 145.131 19.7969 145.194 20.2007C145.263 20.6044 145.297 20.997 145.297 21.3783C145.297 21.9391 145.244 22.4326 145.137 22.8588C145.031 23.285 144.883 23.6439 144.695 23.9355C144.507 24.2158 144.281 24.4289 144.018 24.5747C143.761 24.7206 143.478 24.7935 143.171 24.7935H142.033V29.2012H141.139V17.98ZM143.162 23.4139C143.55 23.4139 143.848 23.2401 144.055 22.8924C144.269 22.5335 144.375 22.04 144.375 21.4119C144.375 20.7727 144.265 20.2736 144.046 19.9147C143.833 19.5445 143.538 19.3595 143.162 19.3595H142.033V23.4139H143.162Z" fill="white"/>
<path d="M149.414 27.9731C149.759 27.9731 150.076 27.8665 150.364 27.6534C150.653 27.4291 150.9 27.1263 151.107 26.745C151.314 26.3524 151.474 25.887 151.587 25.3486C151.706 24.7991 151.766 24.2046 151.766 23.5653C151.766 22.9036 151.709 22.3036 151.597 21.7652C151.484 21.2269 151.324 20.767 151.117 20.3857C150.91 19.9932 150.662 19.6903 150.374 19.4773C150.085 19.2642 149.765 19.1576 149.414 19.1576C149.063 19.1576 148.743 19.2642 148.454 19.4773C148.166 19.6903 147.918 19.9932 147.711 20.3857C147.504 20.767 147.344 21.2269 147.232 21.7652C147.119 22.3036 147.062 22.9036 147.062 23.5653C147.062 24.2046 147.119 24.7991 147.232 25.3486C147.351 25.887 147.514 26.3524 147.721 26.745C147.928 27.1263 148.175 27.4291 148.464 27.6534C148.752 27.8665 149.069 27.9731 149.414 27.9731ZM149.414 29.4872C148.944 29.4872 148.505 29.3414 148.097 29.0498C147.696 28.747 147.348 28.332 147.053 27.8048C146.764 27.2777 146.535 26.6552 146.366 25.9374C146.203 25.2084 146.121 24.4233 146.121 23.5822C146.121 22.741 146.206 21.9615 146.375 21.2437C146.545 20.5259 146.777 19.9034 147.072 19.3763C147.366 18.8492 147.714 18.4398 148.116 18.1482C148.517 17.8454 148.95 17.694 149.414 17.694C149.884 17.694 150.32 17.8454 150.722 18.1482C151.123 18.4398 151.471 18.8492 151.766 19.3763C152.061 19.9034 152.29 20.5259 152.453 21.2437C152.622 21.9615 152.707 22.741 152.707 23.5822C152.707 24.4233 152.622 25.2084 152.453 25.9374C152.29 26.6552 152.061 27.2777 151.766 27.8048C151.477 28.332 151.129 28.747 150.722 29.0498C150.32 29.3414 149.884 29.4872 149.414 29.4872Z" fill="white"/>
<path d="M153.881 17.98H156.007C156.333 17.98 156.615 18.0585 156.854 18.2155C157.092 18.3613 157.29 18.5632 157.446 18.8211C157.603 19.0791 157.719 19.3819 157.795 19.7296C157.876 20.0773 157.917 20.4474 157.917 20.8399C157.917 21.1988 157.882 21.5185 157.813 21.7989C157.744 22.0793 157.66 22.326 157.559 22.5391C157.459 22.741 157.346 22.9036 157.221 23.027C157.101 23.1504 156.992 23.2289 156.891 23.2625C157.017 23.2962 157.158 23.3691 157.315 23.4812C157.472 23.5822 157.619 23.7392 157.757 23.9523C157.895 24.1654 158.011 24.4458 158.105 24.7935C158.199 25.1299 158.246 25.5505 158.246 26.0552C158.246 26.6609 158.183 27.1656 158.058 27.5693C157.939 27.9619 157.773 28.2815 157.559 28.5283C157.352 28.775 157.105 28.9488 156.816 29.0498C156.528 29.1507 156.22 29.2012 155.894 29.2012H153.881V17.98ZM155.847 27.8048C156.01 27.8048 156.18 27.788 156.355 27.7544C156.531 27.7207 156.691 27.6422 156.835 27.5188C156.985 27.3955 157.108 27.216 157.202 26.9805C157.296 26.7338 157.343 26.3973 157.343 25.9711C157.343 25.5673 157.296 25.2421 157.202 24.9953C157.114 24.7486 156.998 24.5523 156.854 24.4065C156.716 24.2607 156.562 24.1654 156.393 24.1205C156.223 24.0644 156.06 24.0364 155.904 24.0364H154.756V27.8048H155.847ZM155.875 22.6569C156.013 22.6569 156.151 22.6288 156.289 22.5728C156.427 22.5055 156.553 22.4045 156.666 22.2699C156.779 22.1354 156.869 21.9615 156.938 21.7484C157.007 21.5353 157.042 21.2774 157.042 20.9745C157.042 20.6381 157.007 20.3689 156.938 20.167C156.869 19.9539 156.779 19.7913 156.666 19.6791C156.553 19.5558 156.427 19.4773 156.289 19.4436C156.151 19.3987 156.013 19.3763 155.875 19.3763H154.756V22.6569H155.875Z" fill="white"/>
<path d="M162.812 26.072H160.234L159.594 29.2012H158.644L160.93 18.7538C161.055 18.1818 161.272 17.8959 161.579 17.8959C161.861 17.8959 162.068 18.1931 162.2 18.7875L164.477 29.2012H163.47L162.812 26.072ZM161.532 19.6623L160.507 24.7093H162.539L161.532 19.6623Z" fill="white"/>
<path d="M165.975 19.3931H163.727V17.98H169.117V19.3931H166.878V29.2012H165.975V19.3931Z" fill="white"/>
<path d="M170.962 27.8217H172.166C172.58 27.8217 172.903 27.6422 173.135 27.2833C173.373 26.9244 173.493 26.3861 173.493 25.6683C173.493 24.9617 173.373 24.4233 173.135 24.0532C172.903 23.6719 172.58 23.4812 172.166 23.4812H170.962V27.8217ZM170.962 17.98V22.1017H172.185C172.9 22.1017 173.452 22.4157 173.841 23.0438C174.23 23.6607 174.424 24.5131 174.424 25.601C174.424 26.0608 174.383 26.5094 174.302 26.9469C174.22 27.373 174.088 27.7544 173.907 28.0908C173.731 28.4273 173.496 28.6965 173.201 28.8984C172.913 29.1002 172.558 29.2012 172.138 29.2012H170.059V17.98H170.962Z" fill="white"/>
<path d="M180.454 20.9072C180.241 20.3577 179.968 19.9315 179.636 19.6287C179.303 19.3146 178.949 19.1576 178.573 19.1576C178.222 19.1576 177.902 19.2642 177.613 19.4773C177.325 19.6903 177.077 19.9932 176.87 20.3857C176.669 20.767 176.513 21.2325 176.4 21.7821C176.287 22.3204 176.23 22.9261 176.23 23.599C176.23 24.2607 176.284 24.8607 176.39 25.3991C176.503 25.9262 176.66 26.3805 176.861 26.7618C177.068 27.1431 177.312 27.4403 177.595 27.6534C177.877 27.8553 178.193 27.9563 178.545 27.9563C178.908 27.9563 179.241 27.8273 179.542 27.5693C179.843 27.3114 180.15 26.8852 180.464 26.2907L181.094 27.2328C180.981 27.5357 180.831 27.8273 180.642 28.1077C180.454 28.3768 180.244 28.6124 180.012 28.8143C179.78 29.0161 179.536 29.1732 179.278 29.2853C179.028 29.4087 178.783 29.4704 178.545 29.4704C178.062 29.4704 177.62 29.3302 177.218 29.0498C176.817 28.7694 176.472 28.3712 176.183 27.8553C175.895 27.3394 175.672 26.7225 175.515 26.0047C175.359 25.2869 175.28 24.4962 175.28 23.6326C175.28 22.7803 175.362 21.9895 175.525 21.2605C175.688 20.5315 175.914 19.9091 176.202 19.3931C176.497 18.866 176.845 18.4566 177.246 18.165C177.648 17.8622 178.087 17.7108 178.563 17.7108C178.821 17.7108 179.071 17.7669 179.316 17.879C179.567 17.98 179.802 18.1258 180.022 18.3164C180.241 18.5071 180.442 18.7426 180.624 19.023C180.812 19.2922 180.969 19.595 181.094 19.9315L180.454 20.9072Z" fill="white"/>
<path d="M181.43 29.2012C181.543 28.6853 181.665 28.175 181.797 27.6703C181.929 27.1656 182.06 26.7001 182.192 26.2739C182.324 25.8477 182.452 25.4664 182.578 25.1299C182.71 24.7935 182.829 24.5243 182.935 24.3224C182.546 24.0644 182.249 23.6775 182.042 23.1616C181.841 22.6457 181.741 22.0176 181.741 21.2774C181.741 20.268 181.929 19.466 182.305 18.8716C182.688 18.2772 183.227 17.98 183.923 17.98H185.927V29.2012H185.052V24.6084H184.177C183.92 24.6084 183.694 24.8607 183.5 25.3655C183.312 25.8702 183.123 26.4534 182.935 27.1151C182.747 27.7656 182.565 28.461 182.39 29.2012H181.43ZM185.052 23.2457V19.3763H183.867C183.49 19.3763 183.196 19.5502 182.982 19.8978C182.769 20.2343 182.663 20.711 182.663 21.3278C182.663 21.9335 182.772 22.4045 182.992 22.741C183.211 23.0775 183.509 23.2457 183.885 23.2457H185.052Z" fill="white"/>
<path d="M193.977 20.9072C193.764 20.3577 193.491 19.9315 193.159 19.6287C192.826 19.3146 192.472 19.1576 192.096 19.1576C191.745 19.1576 191.425 19.2642 191.136 19.4773C190.848 19.6903 190.6 19.9932 190.393 20.3857C190.192 20.767 190.036 21.2325 189.923 21.7821C189.81 22.3204 189.753 22.9261 189.753 23.599C189.753 24.2607 189.807 24.8607 189.913 25.3991C190.026 25.9262 190.183 26.3805 190.384 26.7618C190.591 27.1431 190.835 27.4403 191.117 27.6534C191.4 27.8553 191.716 27.9563 192.068 27.9563C192.431 27.9563 192.764 27.8273 193.065 27.5693C193.366 27.3114 193.673 26.8852 193.987 26.2907L194.617 27.2328C194.504 27.5357 194.354 27.8273 194.165 28.1077C193.977 28.3768 193.767 28.6124 193.535 28.8143C193.303 29.0161 193.058 29.1732 192.801 29.2853C192.55 29.4087 192.306 29.4704 192.068 29.4704C191.585 29.4704 191.143 29.3302 190.741 29.0498C190.34 28.7694 189.995 28.3712 189.706 27.8553C189.418 27.3394 189.195 26.7225 189.038 26.0047C188.882 25.2869 188.803 24.4962 188.803 23.6326C188.803 22.7803 188.885 21.9895 189.048 21.2605C189.211 20.5315 189.437 19.9091 189.725 19.3931C190.02 18.866 190.368 18.4566 190.769 18.165C191.171 17.8622 191.61 17.7108 192.086 17.7108C192.344 17.7108 192.594 17.7669 192.839 17.879C193.09 17.98 193.325 18.1258 193.545 18.3164C193.764 18.5071 193.965 18.7426 194.147 19.023C194.335 19.2922 194.491 19.595 194.617 19.9315L193.977 20.9072Z" fill="white"/>
<path d="M198.306 27.9731C198.651 27.9731 198.968 27.8665 199.256 27.6534C199.545 27.4291 199.792 27.1263 199.999 26.745C200.206 26.3524 200.366 25.887 200.479 25.3486C200.598 24.7991 200.658 24.2046 200.658 23.5653C200.658 22.9036 200.601 22.3036 200.489 21.7652C200.376 21.2269 200.216 20.767 200.009 20.3857C199.802 19.9932 199.554 19.6903 199.266 19.4773C198.977 19.2642 198.657 19.1576 198.306 19.1576C197.955 19.1576 197.635 19.2642 197.346 19.4773C197.058 19.6903 196.81 19.9932 196.603 20.3857C196.396 20.767 196.236 21.2269 196.124 21.7652C196.011 22.3036 195.954 22.9036 195.954 23.5653C195.954 24.2046 196.011 24.7991 196.124 25.3486C196.243 25.887 196.406 26.3524 196.613 26.745C196.82 27.1263 197.067 27.4291 197.356 27.6534C197.644 27.8665 197.961 27.9731 198.306 27.9731ZM198.306 29.4872C197.836 29.4872 197.397 29.3414 196.989 29.0498C196.588 28.747 196.24 28.332 195.945 27.8048C195.656 27.2777 195.427 26.6552 195.258 25.9374C195.095 25.2084 195.014 24.4233 195.014 23.5822C195.014 22.741 195.098 21.9615 195.268 21.2437C195.437 20.5259 195.669 19.9034 195.964 19.3763C196.258 18.8492 196.606 18.4398 197.008 18.1482C197.409 17.8454 197.842 17.694 198.306 17.694C198.776 17.694 199.212 17.8454 199.614 18.1482C200.015 18.4398 200.363 18.8492 200.658 19.3763C200.953 19.9034 201.182 20.5259 201.345 21.2437C201.514 21.9615 201.599 22.741 201.599 23.5822C201.599 24.4233 201.514 25.2084 201.345 25.9374C201.182 26.6552 200.953 27.2777 200.658 27.8048C200.369 28.332 200.021 28.747 199.614 29.0498C199.212 29.3414 198.776 29.4872 198.306 29.4872Z" fill="white"/>
<path d="M209.393 20.9072C209.179 20.3577 208.907 19.9315 208.574 19.6287C208.242 19.3146 207.887 19.1576 207.511 19.1576C207.16 19.1576 206.84 19.2642 206.552 19.4773C206.263 19.6903 206.015 19.9932 205.808 20.3857C205.608 20.767 205.451 21.2325 205.338 21.7821C205.225 22.3204 205.169 22.9261 205.169 23.599C205.169 24.2607 205.222 24.8607 205.329 25.3991C205.442 25.9262 205.598 26.3805 205.799 26.7618C206.006 27.1431 206.251 27.4403 206.533 27.6534C206.815 27.8553 207.132 27.9563 207.483 27.9563C207.847 27.9563 208.179 27.8273 208.48 27.5693C208.781 27.3114 209.088 26.8852 209.402 26.2907L210.032 27.2328C209.919 27.5357 209.769 27.8273 209.581 28.1077C209.393 28.3768 209.183 28.6124 208.951 28.8143C208.718 29.0161 208.474 29.1732 208.217 29.2853C207.966 29.4087 207.721 29.4704 207.483 29.4704C207 29.4704 206.558 29.3302 206.157 29.0498C205.755 28.7694 205.41 28.3712 205.122 27.8553C204.833 27.3394 204.611 26.7225 204.454 26.0047C204.297 25.2869 204.219 24.4962 204.219 23.6326C204.219 22.7803 204.3 21.9895 204.463 21.2605C204.626 20.5315 204.852 19.9091 205.141 19.3931C205.435 18.866 205.783 18.4566 206.185 18.165C206.586 17.8622 207.025 17.7108 207.502 17.7108C207.759 17.7108 208.01 17.7669 208.254 17.879C208.505 17.98 208.74 18.1258 208.96 18.3164C209.179 18.5071 209.38 18.7426 209.562 19.023C209.75 19.2922 209.907 19.595 210.032 19.9315L209.393 20.9072Z" fill="white"/>
<path d="M216.06 17.98V29.2012H215.157V19.4268H211.751V29.2012H210.848V17.98H216.06Z" fill="white"/>
<path d="M217.979 29.2012C217.835 29.2012 217.719 29.1283 217.631 28.9825C217.543 28.8367 217.499 28.618 217.499 28.3264V17.98H221.451V19.41H218.403V22.6737H220.698V24.1205H218.403V27.7544H221.676V29.2012H217.979Z" fill="white"/>
<path d="M227.682 29.2012H222.809V17.98H223.713V27.7544H227.071V17.98H227.974V27.7544H228.501V31.792H227.682V29.2012Z" fill="white"/>
<path d="M230.437 26.9805L233.551 18.6866C233.751 18.1594 233.977 17.8959 234.228 17.8959C234.391 17.8959 234.523 17.9912 234.623 18.1818C234.723 18.3613 234.774 18.608 234.774 18.9221V29.2012H233.889V20.167L230.71 28.6628C230.634 28.8535 230.543 29.0049 230.437 29.1171C230.336 29.2292 230.23 29.2853 230.117 29.2853C229.941 29.2853 229.803 29.19 229.703 28.9993C229.603 28.7974 229.553 28.5339 229.553 28.2086V17.98H230.437V26.9805Z" fill="white"/>
<path d="M239.769 26.072H237.192L236.552 29.2012H235.602L237.888 18.7538C238.013 18.1818 238.229 17.8959 238.537 17.8959C238.819 17.8959 239.026 18.1931 239.158 18.7875L241.434 29.2012H240.428L239.769 26.072ZM238.49 19.6623L237.464 24.7093H239.496L238.49 19.6623Z" fill="white"/>
<path d="M243.897 18.9389C243.904 18.6473 243.947 18.4174 244.029 18.2491C244.117 18.0697 244.239 17.98 244.396 17.98H247.839V29.2012H246.936V19.4268H244.763C244.725 21.1876 244.647 22.6905 244.528 23.9355C244.408 25.1692 244.245 26.1842 244.038 26.9805C243.831 27.7656 243.574 28.3432 243.267 28.7133C242.966 29.0722 242.608 29.2517 242.195 29.2517H242.063V27.788C242.364 27.788 242.621 27.631 242.834 27.317C243.054 26.9917 243.236 26.4758 243.38 25.7692C243.524 25.0626 243.637 24.1486 243.719 23.027C243.806 21.9054 243.866 20.5427 243.897 18.9389Z" fill="white"/>
<path d="M250.152 26.9805L253.265 18.6866C253.466 18.1594 253.692 17.8959 253.943 17.8959C254.106 17.8959 254.238 17.9912 254.338 18.1818C254.438 18.3613 254.488 18.608 254.488 18.9221V29.2012H253.604V20.167L250.424 28.6628C250.349 28.8535 250.258 29.0049 250.152 29.1171C250.051 29.2292 249.945 29.2853 249.832 29.2853C249.656 29.2853 249.518 29.19 249.418 28.9993C249.318 28.7974 249.267 28.5339 249.267 28.2086V17.98H250.152V26.9805Z" fill="white"/>
<path d="M260.839 20.9072C260.625 20.3577 260.353 19.9315 260.02 19.6287C259.688 19.3146 259.333 19.1576 258.957 19.1576C258.606 19.1576 258.286 19.2642 257.998 19.4773C257.709 19.6903 257.461 19.9932 257.254 20.3857C257.054 20.767 256.897 21.2325 256.784 21.7821C256.671 22.3204 256.615 22.9261 256.615 23.599C256.615 24.2607 256.668 24.8607 256.775 25.3991C256.888 25.9262 257.044 26.3805 257.245 26.7618C257.452 27.1431 257.697 27.4403 257.979 27.6534C258.261 27.8553 258.578 27.9563 258.929 27.9563C259.293 27.9563 259.625 27.8273 259.926 27.5693C260.227 27.3114 260.534 26.8852 260.848 26.2907L261.478 27.2328C261.365 27.5357 261.215 27.8273 261.027 28.1077C260.839 28.3768 260.628 28.6124 260.396 28.8143C260.164 29.0161 259.92 29.1732 259.663 29.2853C259.412 29.4087 259.167 29.4704 258.929 29.4704C258.446 29.4704 258.004 29.3302 257.602 29.0498C257.201 28.7694 256.856 28.3712 256.568 27.8553C256.279 27.3394 256.057 26.7225 255.9 26.0047C255.743 25.2869 255.665 24.4962 255.665 23.6326C255.665 22.7803 255.746 21.9895 255.909 21.2605C256.072 20.5315 256.298 19.9091 256.586 19.3931C256.881 18.866 257.229 18.4566 257.631 18.165C258.032 17.8622 258.471 17.7108 258.948 17.7108C259.205 17.7108 259.456 17.7669 259.7 17.879C259.951 17.98 260.186 18.1258 260.406 18.3164C260.625 18.5071 260.826 18.7426 261.008 19.023C261.196 19.2922 261.353 19.595 261.478 19.9315L260.839 20.9072Z" fill="white"/>
<path d="M263.87 19.3931H261.621V17.98H267.012V19.3931H264.773V29.2012H263.87V19.3931Z" fill="white"/>
<path d="M270.33 27.9731C270.675 27.9731 270.992 27.8665 271.28 27.6534C271.569 27.4291 271.817 27.1263 272.024 26.745C272.231 26.3524 272.391 25.887 272.503 25.3486C272.623 24.7991 272.682 24.2046 272.682 23.5653C272.682 22.9036 272.626 22.3036 272.513 21.7652C272.4 21.2269 272.24 20.767 272.033 20.3857C271.826 19.9932 271.578 19.6903 271.29 19.4773C271.001 19.2642 270.682 19.1576 270.33 19.1576C269.979 19.1576 269.659 19.2642 269.371 19.4773C269.082 19.6903 268.835 19.9932 268.628 20.3857C268.421 20.767 268.261 21.2269 268.148 21.7652C268.035 22.3036 267.979 22.9036 267.979 23.5653C267.979 24.2046 268.035 24.7991 268.148 25.3486C268.267 25.887 268.43 26.3524 268.637 26.745C268.844 27.1263 269.092 27.4291 269.38 27.6534C269.669 27.8665 269.985 27.9731 270.33 27.9731ZM270.33 29.4872C269.86 29.4872 269.421 29.3414 269.013 29.0498C268.612 28.747 268.264 28.332 267.969 27.8048C267.681 27.2777 267.452 26.6552 267.282 25.9374C267.119 25.2084 267.038 24.4233 267.038 23.5822C267.038 22.741 267.122 21.9615 267.292 21.2437C267.461 20.5259 267.693 19.9034 267.988 19.3763C268.283 18.8492 268.631 18.4398 269.032 18.1482C269.434 17.8454 269.866 17.694 270.33 17.694C270.801 17.694 271.237 17.8454 271.638 18.1482C272.039 18.4398 272.387 18.8492 272.682 19.3763C272.977 19.9034 273.206 20.5259 273.369 21.2437C273.538 21.9615 273.623 22.741 273.623 23.5822C273.623 24.4233 273.538 25.2084 273.369 25.9374C273.206 26.6552 272.977 27.2777 272.682 27.8048C272.394 28.332 272.046 28.747 271.638 29.0498C271.237 29.3414 270.801 29.4872 270.33 29.4872Z" fill="white"/>
<path d="M275.324 17.8959C275.537 17.8959 275.722 18.1314 275.879 18.6024L277.855 24.457L279.793 18.7034C279.893 18.4118 279.99 18.2043 280.084 18.0809C280.178 17.9575 280.291 17.8959 280.423 17.8959C280.567 17.8959 280.683 17.9912 280.771 18.1818C280.865 18.3613 280.912 18.6024 280.912 18.9053V29.2012H280.065V20.3689L278.325 25.5505C278.212 25.887 278.052 26.0552 277.845 26.0552C277.745 26.0552 277.648 26.0047 277.554 25.9038C277.46 25.8029 277.384 25.6627 277.328 25.4832L275.644 20.4362V29.2012H274.797V18.9221C274.797 18.5968 274.844 18.3445 274.939 18.165C275.033 17.9856 275.161 17.8959 275.324 17.8959Z" fill="white"/>
</svg>
