<svg width="1500" height="1500" fill="none" xmlns="http://www.w3.org/2000/svg"><g filter="url(#a)"><path d="M300 750.026C300 998.549 501.466 1200 749.991 1200 998.533 1200 1200 998.549 1200 750.026 1200 501.486 998.533 300 749.991 300 501.466 300 300 501.486 300 750.026" fill="url(#b)" fill-opacity=".6"/></g><path d="M749.994 450C584.31 450 450 584.324 450 750.018 450 915.7 584.31 1050 749.994 1050 915.689 1050 1050 915.7 1050 750.018 1050 584.324 915.689 450 749.994 450z" fill="#E62A30"/><path d="M750.015 519.617c-127.243 0-230.42 103.135-230.42 230.38 0 127.234 103.177 230.393 230.42 230.393 127.234 0 230.386-103.159 230.386-230.393 0-127.245-103.152-230.38-230.386-230.38z" fill="#FAB600"/><path d="M750.015 589.208c-88.828 0-160.802 72.026-160.802 160.813 0 88.797 71.974 160.779 160.802 160.779 88.794 0 160.779-71.982 160.779-160.779 0-88.787-71.985-160.813-160.779-160.813z" fill="#FE0"/><path d="M750.019 658.815c-50.376 0-91.23 40.804-91.23 91.188 0 50.339 40.854 91.188 91.23 91.188 50.354 0 91.193-40.849 91.193-91.188 0-50.384-40.839-91.188-91.193-91.188z" fill="#fff"/><defs><radialGradient id="b" cx="0" cy="0" r="1" gradientUnits="userSpaceOnUse" gradientTransform="matrix(450.017 0 0 449.983 750 750)"><stop stop-color="#fff" stop-opacity="0"/><stop offset="1" stop-color="#fff"/></radialGradient><filter id="a" x="0" y="0" width="1500" height="1500" filterUnits="userSpaceOnUse" color-interpolation-filters="sRGB"><feFlood flood-opacity="0" result="BackgroundImageFix"/><feBlend in="SourceGraphic" in2="BackgroundImageFix" result="shape"/><feGaussianBlur stdDeviation="150" result="effect1_foregroundBlur_29_3"/></filter></defs></svg>