<svg width="140" height="40" viewBox="0 0 140 40" fill="none" xmlns="http://www.w3.org/2000/svg">
<path d="M3.8213 0.106952H4.90514V7.89305H3.8213V2.34759L1.08384 7.89305H0V0.106952H1.08384V5.65775L3.8213 0.106952Z" fill="white"/>
<path d="M7.60832 0.106952L9.40759 6.07487L11.2026 0.106952H12.6034V7.89305H11.5239V5.3262L11.631 1.89305L9.78886 7.89305H9.01346L7.17564 1.8984L7.28274 5.3262V7.89305H6.20318V0.106952H7.60832Z" fill="white"/>
<path d="M17.5343 4.41711H14.9725V6.81283H17.967V7.89305H13.8886V0.106952H17.937V1.19786H14.9725V3.34759H17.5343V4.41711Z" fill="white"/>
<path d="M25.9223 4.20321C25.9223 4.96613 25.8166 5.63636 25.6053 6.2139C25.3939 6.78788 25.0912 7.22995 24.6971 7.54011C24.3058 7.8467 23.8545 8 23.3433 8C22.8664 8 22.4394 7.86453 22.0624 7.59358C21.6854 7.32264 21.3841 6.93405 21.1585 6.42781C20.9329 5.92157 20.8001 5.33155 20.7601 4.65775H19.9804V7.89305H18.9009V0.106952H19.9804V3.60963H20.7472C20.7644 2.89305 20.8829 2.26025 21.1028 1.71123C21.3227 1.15865 21.6255 0.736185 22.011 0.44385C22.3994 0.14795 22.8407 0 23.3348 0C23.8431 0 24.2929 0.153298 24.6842 0.459893C25.0783 0.762923 25.3825 1.20143 25.5967 1.7754C25.8109 2.34581 25.9194 3.0107 25.9223 3.77005V4.20321ZM24.8384 3.79679C24.8384 2.93405 24.7071 2.27273 24.4443 1.81283C24.1844 1.35294 23.8146 1.12299 23.3348 1.12299C22.8664 1.12299 22.4994 1.35294 22.2338 1.81283C21.971 2.26916 21.8368 2.91622 21.8311 3.75401V4.20321C21.8311 5.05882 21.9639 5.72014 22.2295 6.18717C22.498 6.65419 22.8692 6.8877 23.3433 6.8877C23.8231 6.8877 24.1916 6.65954 24.4486 6.20321C24.7085 5.74688 24.8384 5.08021 24.8384 4.20321V3.79679Z" fill="white"/>
<path d="M31.2644 1.19786H29.3195V7.89305H28.2442V1.19786H26.3164V0.106952H31.2644V1.19786Z" fill="white"/>
<path d="M36.7264 5.35829C36.6636 6.18895 36.418 6.83779 35.9896 7.30481C35.5612 7.76827 34.9914 8 34.2803 8C33.7834 8 33.345 7.85383 32.9651 7.5615C32.5881 7.2656 32.2968 6.8467 32.0912 6.30481C31.8856 5.76292 31.7785 5.13369 31.7699 4.41711V3.68984C31.7699 2.95544 31.8741 2.30838 32.0826 1.74866C32.2911 1.18895 32.5896 0.757576 32.978 0.454545C33.3692 0.151515 33.8205 0 34.3317 0C35.02 0 35.5741 0.233512 35.9939 0.700535C36.4137 1.16756 36.6579 1.82709 36.7264 2.67914H35.6469C35.5955 2.11943 35.4641 1.71658 35.2528 1.47059C35.0443 1.22103 34.7372 1.09626 34.3317 1.09626C33.8605 1.09626 33.4978 1.31194 33.2436 1.74332C32.9922 2.17112 32.8637 2.80036 32.858 3.63102V4.32086C32.858 5.16221 32.978 5.80392 33.2179 6.24599C33.4606 6.68806 33.8148 6.90909 34.2803 6.90909C34.7058 6.90909 35.0257 6.78966 35.2399 6.5508C35.4541 6.31194 35.5898 5.91444 35.6469 5.35829H36.7264Z" fill="white"/>
<path d="M40.7748 7.89305V4.98396H39.5667L38.3629 7.89305H37.202L38.5942 4.58289C37.8688 4.15508 37.5061 3.45455 37.5061 2.48128C37.5061 1.73619 37.7018 1.15686 38.093 0.743316C38.4871 0.326203 39.0355 0.114082 39.7381 0.106952H41.8586V7.89305H40.7748ZM38.5857 2.54011C38.5857 2.97861 38.6842 3.32086 38.8813 3.56685C39.0783 3.81283 39.3739 3.93583 39.7681 3.93583H40.7748V1.19786H39.7681C39.3682 1.19786 39.0712 1.31729 38.877 1.55615C38.6828 1.79501 38.5857 2.12299 38.5857 2.54011Z" fill="white"/>
<path d="M50.2681 7.89305H49.1885V1.19786H46.4425V7.89305H45.3629V0.106952H50.2681V7.89305Z" fill="white"/>
<path d="M52.6628 5V7.89305H51.5789V0.106952H53.9651C54.662 0.106952 55.2146 0.333333 55.623 0.786096C56.0343 1.23886 56.2399 1.83779 56.2399 2.58289C56.2399 3.34581 56.0386 3.93939 55.6359 4.36364C55.236 4.78788 54.6748 5 53.9523 5H52.6628ZM52.6628 3.91444H53.9651C54.3507 3.91444 54.6448 3.80214 54.8476 3.57754C55.0504 3.34938 55.1518 3.02139 55.1518 2.59358C55.1518 2.17291 55.049 1.83779 54.8433 1.58824C54.6377 1.33512 54.355 1.20499 53.9951 1.19786H52.6628V3.91444Z" fill="white"/>
<path d="M62.1689 4.20321C62.1689 4.96613 62.0632 5.63636 61.8519 6.2139C61.6406 6.78788 61.3378 7.22995 60.9437 7.54011C60.5524 7.8467 60.1012 8 59.59 8C59.0845 8 58.6332 7.8467 58.2362 7.54011C57.8421 7.22995 57.5365 6.78966 57.3195 6.21925C57.1053 5.64884 56.9967 4.99109 56.9939 4.24599V3.80749C56.9939 3.04813 57.101 2.3779 57.3152 1.79679C57.5322 1.21569 57.8364 0.771836 58.2277 0.465241C58.6218 0.15508 59.073 0 59.5814 0C60.0898 0 60.5396 0.153298 60.9308 0.459893C61.325 0.762923 61.6291 1.20143 61.8433 1.7754C62.0575 2.34581 62.1661 3.0107 62.1689 3.77005V4.20321ZM61.0851 3.79679C61.0851 2.93405 60.9537 2.27273 60.6909 1.81283C60.431 1.35294 60.0612 1.12299 59.5814 1.12299C59.113 1.12299 58.746 1.35294 58.4804 1.81283C58.2177 2.26916 58.0834 2.91622 58.0777 3.75401V4.20321C58.0777 5.05882 58.2105 5.72014 58.4761 6.18717C58.7446 6.65419 59.1159 6.8877 59.59 6.8877C60.0698 6.8877 60.4382 6.65954 60.6952 6.20321C60.9551 5.74688 61.0851 5.08021 61.0851 4.20321V3.79679Z" fill="white"/>
<path d="M67.3868 1.19786H65.4419V7.89305H64.3666V1.19786H62.4388V0.106952H67.3868V1.19786Z" fill="white"/>
<path d="M72.0306 0.106952H73.1144V7.89305H72.0306V2.34759L69.2931 7.89305H68.2093V0.106952H69.2931V5.65775L72.0306 0.106952Z" fill="white"/>
<path d="M74.4125 7.89305V0.106952H76.5502C77.2556 0.106952 77.7925 0.283422 78.161 0.636364C78.5294 0.989305 78.7136 1.51515 78.7136 2.2139C78.7136 2.57041 78.6365 2.89127 78.4823 3.17647C78.328 3.46168 78.1024 3.68271 77.8054 3.83957C78.1424 3.95365 78.4023 4.16934 78.5851 4.48663C78.7707 4.80036 78.8635 5.17825 78.8635 5.62032C78.8635 6.35116 78.675 6.91266 78.298 7.30481C77.9239 7.69697 77.387 7.89305 76.6873 7.89305H74.4125ZM75.4963 4.37968V6.81283H76.7001C77.04 6.81283 77.3056 6.70767 77.4969 6.49733C77.6883 6.28699 77.784 5.99465 77.784 5.62032C77.784 4.81105 77.4527 4.3975 76.7901 4.37968H75.4963ZM75.4963 3.38503H76.5588C76.8958 3.38503 77.1585 3.29055 77.347 3.1016C77.5384 2.90909 77.634 2.63815 77.634 2.28877C77.634 1.90374 77.5455 1.62567 77.3684 1.45455C77.1942 1.28342 76.9215 1.19786 76.5502 1.19786H75.4963V3.38503Z" fill="white"/>
<path d="M84.9253 4.20321C84.9253 4.96613 84.8197 5.63636 84.6083 6.2139C84.397 6.78788 84.0942 7.22995 83.7001 7.54011C83.3089 7.8467 82.8576 8 82.3464 8C81.8409 8 81.3896 7.8467 80.9927 7.54011C80.5985 7.22995 80.2929 6.78966 80.0759 6.21925C79.8617 5.64884 79.7532 4.99109 79.7503 4.24599V3.80749C79.7503 3.04813 79.8574 2.3779 80.0716 1.79679C80.2887 1.21569 80.5928 0.771836 80.9841 0.465241C81.3782 0.15508 81.8295 0 82.3378 0C82.8462 0 83.296 0.153298 83.6873 0.459893C84.0814 0.762923 84.3856 1.20143 84.5998 1.7754C84.814 2.34581 84.9225 3.0107 84.9253 3.77005V4.20321ZM83.8415 3.79679C83.8415 2.93405 83.7101 2.27273 83.4474 1.81283C83.1875 1.35294 82.8176 1.12299 82.3378 1.12299C81.8694 1.12299 81.5024 1.35294 81.2368 1.81283C80.9741 2.26916 80.8399 2.91622 80.8341 3.75401V4.20321C80.8341 5.05882 80.967 5.72014 81.2326 6.18717C81.501 6.65419 81.8723 6.8877 82.3464 6.8877C82.8262 6.8877 83.1946 6.65954 83.4517 6.20321C83.7115 5.74688 83.8415 5.08021 83.8415 4.20321V3.79679Z" fill="white"/>
<path d="M90.94 7.89305H89.8605V1.19786H87.1144V7.89305H86.0349V0.106952H90.94V7.89305Z" fill="white"/>
<path d="M97.2289 4.20321C97.2289 4.96613 97.1232 5.63636 96.9119 6.2139C96.7005 6.78788 96.3978 7.22995 96.0037 7.54011C95.6124 7.8467 95.1612 8 94.6499 8C94.1444 8 93.6932 7.8467 93.2962 7.54011C92.9021 7.22995 92.5965 6.78966 92.3794 6.21925C92.1652 5.64884 92.0567 4.99109 92.0539 4.24599V3.80749C92.0539 3.04813 92.161 2.3779 92.3752 1.79679C92.5922 1.21569 92.8964 0.771836 93.2876 0.465241C93.6818 0.15508 94.133 0 94.6414 0C95.1497 0 95.5995 0.153298 95.9908 0.459893C96.3849 0.762923 96.6891 1.20143 96.9033 1.7754C97.1175 2.34581 97.226 3.0107 97.2289 3.77005V4.20321ZM96.145 3.79679C96.145 2.93405 96.0137 2.27273 95.7509 1.81283C95.491 1.35294 95.1212 1.12299 94.6414 1.12299C94.173 1.12299 93.806 1.35294 93.5404 1.81283C93.2776 2.26916 93.1434 2.91622 93.1377 3.75401V4.20321C93.1377 5.05882 93.2705 5.72014 93.5361 6.18717C93.8046 6.65419 94.1758 6.8877 94.6499 6.8877C95.1297 6.8877 95.4982 6.65954 95.7552 6.20321C96.0151 5.74688 96.145 5.08021 96.145 4.20321V3.79679Z" fill="white"/>
<path d="M100.155 4.55615H99.418V7.89305H98.3384V0.106952H99.418V3.37968H100.013L101.847 0.106952H103.175L101.033 3.83422L103.364 7.89305H102.061L100.155 4.55615Z" fill="white"/>
<path d="M107.455 6.08021H105.039L104.533 7.89305H103.406L105.763 0.106952H106.735L109.095 7.89305H107.965L107.455 6.08021ZM105.343 4.9893H107.151L106.247 1.75936L105.343 4.9893Z" fill="white"/>
<path d="M112.925 2.22995C112.925 1.88057 112.82 1.6025 112.608 1.39572C112.397 1.18895 112.11 1.08556 111.747 1.08556C111.436 1.08556 111.176 1.18895 110.968 1.39572C110.759 1.59893 110.655 1.86275 110.655 2.18717H109.575C109.575 1.76292 109.67 1.38503 109.858 1.05348C110.047 0.721925 110.308 0.465241 110.642 0.283422C110.976 0.0980392 111.345 0.00534759 111.747 0.00534759C112.461 0.00534759 113.015 0.199644 113.409 0.588235C113.806 0.976827 114.005 1.5205 114.005 2.21925C114.005 2.57219 113.919 2.89661 113.748 3.19251C113.576 3.48841 113.337 3.72193 113.028 3.89305C113.377 4.04278 113.642 4.27094 113.825 4.57754C114.011 4.88057 114.103 5.25847 114.103 5.71123C114.103 6.40998 113.889 6.96613 113.461 7.37968C113.032 7.78966 112.461 7.99465 111.747 7.99465C111.307 7.99465 110.909 7.89661 110.552 7.70053C110.198 7.50446 109.931 7.23708 109.751 6.8984C109.574 6.55971 109.485 6.17112 109.485 5.73262H110.565C110.565 6.06774 110.676 6.35116 110.899 6.58289C111.122 6.81105 111.405 6.92513 111.747 6.92513C112.13 6.92513 112.437 6.81283 112.668 6.58824C112.902 6.36364 113.02 6.0713 113.02 5.71123C113.02 5.27273 112.917 4.95544 112.711 4.75936C112.508 4.55971 112.21 4.45989 111.816 4.45989H111.083V3.39037H111.777C112.543 3.39037 112.925 3.00357 112.925 2.22995Z" fill="white"/>
<path d="M118.602 6.08021H116.185L115.68 7.89305H114.553L116.909 0.106952H117.882L120.242 7.89305H119.111L118.602 6.08021ZM116.49 4.9893H118.297L117.394 1.75936L116.49 4.9893Z" fill="white"/>
<path d="M125.906 7.89305H124.826V4.43316H122.037V7.89305H120.953V0.106952H122.037V3.34759H124.826V0.106952H125.906V7.89305Z" fill="white"/>
<path d="M131.012 0.106952H132.096V7.89305H131.012V2.34759L128.275 7.89305H127.191V0.106952H128.275V5.65775L131.012 0.106952Z" fill="white"/>
<path d="M136.47 7.89305V4.98396H135.262L134.058 7.89305H132.897L134.289 4.58289C133.564 4.15508 133.201 3.45455 133.201 2.48128C133.201 1.73619 133.397 1.15686 133.788 0.743316C134.182 0.326203 134.731 0.114082 135.433 0.106952H137.554V7.89305H136.47ZM134.281 2.54011C134.281 2.97861 134.379 3.32086 134.576 3.56685C134.774 3.81283 135.069 3.93583 135.463 3.93583H136.47V1.19786H135.463C135.063 1.19786 134.766 1.31729 134.572 1.55615C134.378 1.79501 134.281 2.12299 134.281 2.54011Z" fill="white"/>
<path d="M139.392 6.52406C139.586 6.52406 139.736 6.59358 139.841 6.73262C139.947 6.86809 140 7.03922 140 7.24599C140 7.4492 139.947 7.61854 139.841 7.75401C139.736 7.88592 139.586 7.95187 139.392 7.95187C139.206 7.95187 139.059 7.88592 138.95 7.75401C138.842 7.6221 138.788 7.45276 138.788 7.24599C138.788 7.03922 138.84 6.86809 138.946 6.73262C139.052 6.59358 139.2 6.52406 139.392 6.52406Z" fill="white"/>
<path d="M4.31204 19.048H3.36301V12.2214H0.949025V19.048H0V11.1091H4.31204V19.048Z" fill="white"/>
<path d="M8.66927 15.5038H6.41722V17.9466H9.04963V19.048H5.46443V11.1091H9.02327V12.2214H6.41722V14.4133H8.66927V15.5038Z" fill="white"/>
<path d="M10.7782 16.0981V19.048H9.82542V11.1091H11.9231C12.5357 11.1091 13.0215 11.3399 13.3805 11.8015C13.742 12.2632 13.9228 12.8739 13.9228 13.6336C13.9228 14.4115 13.7458 15.0167 13.3918 15.4493C13.0403 15.8819 12.547 16.0981 11.9118 16.0981H10.7782ZM10.7782 14.9913H11.9231C12.262 14.9913 12.5206 14.8768 12.6989 14.6478C12.8771 14.4151 12.9662 14.0807 12.9662 13.6445C12.9662 13.2156 12.8759 12.8739 12.6951 12.6194C12.5143 12.3613 12.2658 12.2286 11.9494 12.2214H10.7782V14.9913Z" fill="white"/>
<path d="M17.9637 15.5038H15.7116V17.9466H18.344V19.048H14.7588V11.1091H18.3177V12.2214H15.7116V14.4133H17.9637V15.5038Z" fill="white"/>
<path d="M24.1625 21H23.2586V19.048H19.6471V21H18.7282L18.6981 17.9466H19.1387C19.3571 17.6412 19.5316 17.1977 19.6621 16.6161C19.7927 16.0309 19.8768 15.3693 19.9145 14.6314L20.0576 11.1091H23.5147V17.9466H24.2114L24.1625 21ZM20.2157 17.9466H22.5657V12.2214H20.9652L20.8748 14.4569C20.807 15.9509 20.5873 17.1141 20.2157 17.9466Z" fill="white"/>
<path d="M31.186 19.048H30.237V12.2214H27.823V19.048H26.874V11.1091H31.186V19.048Z" fill="white"/>
<path d="M33.2912 16.0981V19.048H32.3384V11.1091H34.436C35.0486 11.1091 35.5345 11.3399 35.8935 11.8015C36.255 12.2632 36.4358 12.8739 36.4358 13.6336C36.4358 14.4115 36.2588 15.0167 35.9048 15.4493C35.5533 15.8819 35.0599 16.0981 34.4247 16.0981H33.2912ZM33.2912 14.9913H34.436C34.775 14.9913 35.0336 14.8768 35.2118 14.6478C35.3901 14.4151 35.4792 14.0807 35.4792 13.6445C35.4792 13.2156 35.3888 12.8739 35.2081 12.6194C35.0273 12.3613 34.7787 12.2286 34.4624 12.2214H33.2912V14.9913Z" fill="white"/>
<path d="M40.6311 11.1091H41.5839V19.048H40.6311V13.3937L38.2246 19.048H37.2718V11.1091H38.2246V16.7688L40.6311 11.1091Z" fill="white"/>
<path d="M43.9602 11.1091L45.5419 17.1941L47.1198 11.1091H48.3513V19.048H47.4023V16.4308L47.4964 12.9302L45.8771 19.048H45.1954L43.5798 12.9357L43.674 16.4308V19.048H42.725V11.1091H43.9602Z" fill="white"/>
<path d="M52.6859 15.5038H50.4339V17.9466H53.0663V19.048H49.4811V11.1091H53.0399V12.2214H50.4339V14.4133H52.6859V15.5038Z" fill="white"/>
<path d="M58.1956 19.048H57.2465V15.5202H54.7949V19.048H53.8421V11.1091H54.7949V14.4133H57.2465V11.1091H58.1956V19.048Z" fill="white"/>
<path d="M62.5302 15.5038H60.2781V17.9466H62.9106V19.048H59.3254V11.1091H62.8842V12.2214H60.2781V14.4133H62.5302V15.5038Z" fill="white"/>
<path d="M68.0398 19.048H67.0908V15.5202H64.6391V19.048H63.6863V11.1091H64.6391V14.4133H67.0908V11.1091H68.0398V19.048Z" fill="white"/>
<path d="M72.5289 11.1091H73.4816V19.048H72.5289V13.3937L70.1224 19.048H69.1696V11.1091H70.1224V16.7688L72.5289 11.1091Z" fill="white"/>
<path d="M77.8276 15.5038H75.5755V17.9466H78.2079V19.048H74.6227V11.1091H78.1816V12.2214H75.5755V14.4133H77.8276V15.5038Z" fill="white"/>
<path d="M80.219 11.1091L81.8007 17.1941L83.3786 11.1091H84.6101V19.048H83.6611V16.4308L83.7552 12.9302L82.1358 19.048H81.4542L79.8386 12.9357L79.9328 16.4308V19.048H78.9837V11.1091H80.219Z" fill="white"/>
<path d="M92.014 19.048H91.065V15.5202H88.6133V19.048H87.6605V11.1091H88.6133V14.4133H91.065V11.1091H92.014V19.048Z" fill="white"/>
<path d="M96.3486 15.5038H94.0966V17.9466H96.729V19.048H93.1438V11.1091H96.7026V12.2214H94.0966V14.4133H96.3486V15.5038Z" fill="white"/>
<path d="M101.881 15.2857C101.881 16.0636 101.788 16.747 101.602 17.3359C101.416 17.9211 101.15 18.3719 100.804 18.6881C100.46 19.0007 100.063 19.157 99.6137 19.157C99.1693 19.157 98.7727 19.0007 98.4237 18.6881C98.0772 18.3719 97.8086 17.9229 97.6178 17.3413C97.4295 16.7597 97.3341 16.0891 97.3315 15.3293V14.8822C97.3315 14.108 97.4257 13.4246 97.614 12.8321C97.8048 12.2395 98.0722 11.787 98.4161 11.4744C98.7626 11.1581 99.1593 11 99.6062 11C100.053 11 100.449 11.1563 100.792 11.4689C101.139 11.7779 101.406 12.225 101.595 12.8103C101.783 13.3919 101.878 14.0698 101.881 14.8441V15.2857ZM100.928 14.8713C100.928 13.9916 100.813 13.3173 100.582 12.8484C100.353 12.3795 100.028 12.145 99.6062 12.145C99.1944 12.145 98.8718 12.3795 98.6383 12.8484C98.4074 13.3137 98.2894 13.9735 98.2843 14.8277V15.2857C98.2843 16.1581 98.4011 16.8324 98.6346 17.3086C98.8706 17.7848 99.197 18.0229 99.6137 18.0229C100.036 18.0229 100.359 17.7903 100.585 17.325C100.814 16.8597 100.928 16.1799 100.928 15.2857V14.8713Z" fill="white"/>
<path d="M106.295 12.2214H103.768V14.1461H104.89C105.292 14.1461 105.642 14.2461 105.941 14.446C106.239 14.6459 106.467 14.9295 106.622 15.2966C106.778 15.6638 106.856 16.0891 106.856 16.5725C106.856 17.3141 106.681 17.9102 106.332 18.361C105.986 18.8117 105.512 19.0407 104.912 19.048H102.815V11.1091H106.295V12.2214ZM103.768 15.253V17.9466H104.886C105.207 17.9466 105.457 17.8212 105.636 17.5703C105.816 17.3159 105.907 16.9796 105.907 16.5616C105.907 16.1618 105.819 15.8455 105.643 15.6129C105.467 15.3802 105.224 15.2603 104.912 15.253H103.768Z" fill="white"/>
<path d="M109.514 13.9771L110.667 11.1091H111.767L110.109 15.0458L111.804 19.048H110.693L109.514 16.1363L108.332 19.048H107.225L108.923 15.0458L107.262 11.1091H108.362L109.514 13.9771Z" fill="white"/>
<path d="M116.787 15.2857C116.787 16.0636 116.694 16.747 116.508 17.3359C116.322 17.9211 116.056 18.3719 115.709 18.6881C115.366 19.0007 114.969 19.157 114.519 19.157C114.075 19.157 113.678 19.0007 113.329 18.6881C112.983 18.3719 112.714 17.9229 112.523 17.3413C112.335 16.7597 112.24 16.0891 112.237 15.3293V14.8822C112.237 14.108 112.331 13.4246 112.52 12.8321C112.711 12.2395 112.978 11.787 113.322 11.4744C113.668 11.1581 114.065 11 114.512 11C114.959 11 115.354 11.1563 115.698 11.4689C116.045 11.7779 116.312 12.225 116.5 12.8103C116.689 13.3919 116.784 14.0698 116.787 14.8441V15.2857ZM115.834 14.8713C115.834 13.9916 115.718 13.3173 115.487 12.8484C115.259 12.3795 114.934 12.145 114.512 12.145C114.1 12.145 113.778 12.3795 113.544 12.8484C113.313 13.3137 113.195 13.9735 113.19 14.8277V15.2857C113.19 16.1581 113.307 16.8324 113.54 17.3086C113.776 17.7848 114.103 18.0229 114.519 18.0229C114.941 18.0229 115.265 17.7903 115.491 17.325C115.72 16.8597 115.834 16.1799 115.834 15.2857V14.8713Z" fill="white"/>
<path d="M122.65 21H121.746V19.048H118.135V21H117.216L117.186 17.9466H117.626C117.845 17.6412 118.019 17.1977 118.15 16.6161C118.28 16.0309 118.364 15.3693 118.402 14.6314L118.545 11.1091H122.002V17.9466H122.699L122.65 21ZM118.703 17.9466H121.053V12.2214H119.453L119.362 14.4569C119.295 15.9509 119.075 17.1141 118.703 17.9466Z" fill="white"/>
<path d="M126.774 11.1091H127.727V19.048H126.774V13.3937L124.367 19.048H123.415V11.1091H124.367V16.7688L126.774 11.1091Z" fill="white"/>
<path d="M130.103 11.1091L131.685 17.1941L133.263 11.1091H134.494V19.048H133.545V16.4308L133.639 12.9302L132.02 19.048H131.338L129.723 12.9357L129.817 16.4308V19.048H128.868V11.1091H130.103Z" fill="white"/>
<path d="M140 15.2857C140 16.0636 139.907 16.747 139.721 17.3359C139.536 17.9211 139.269 18.3719 138.923 18.6881C138.579 19.0007 138.182 19.157 137.733 19.157C137.289 19.157 136.892 19.0007 136.543 18.6881C136.196 18.3719 135.928 17.9229 135.737 17.3413C135.549 16.7597 135.453 16.0891 135.451 15.3293V14.8822C135.451 14.108 135.545 13.4246 135.733 12.8321C135.924 12.2395 136.191 11.787 136.535 11.4744C136.882 11.1581 137.278 11 137.725 11C138.172 11 138.568 11.1563 138.912 11.4689C139.258 11.7779 139.525 12.225 139.714 12.8103C139.902 13.3919 139.997 14.0698 140 14.8441V15.2857ZM139.047 14.8713C139.047 13.9916 138.932 13.3173 138.701 12.8484C138.472 12.3795 138.147 12.145 137.725 12.145C137.314 12.145 136.991 12.3795 136.758 12.8484C136.527 13.3137 136.409 13.9735 136.403 14.8277V15.2857C136.403 16.1581 136.52 16.8324 136.754 17.3086C136.99 17.7848 137.316 18.0229 137.733 18.0229C138.155 18.0229 138.479 17.7903 138.705 17.325C138.933 16.8597 139.047 16.1799 139.047 15.2857V14.8713Z" fill="white"/>
<path d="M6.08211 29.8878H4.74351V23.1971H1.33859V29.8878H0V22.1069H6.08211V29.8878Z" fill="white"/>
<path d="M9.05145 26.9967V29.8878H7.70754V22.1069H10.6663C11.5303 22.1069 12.2156 22.3331 12.722 22.7856C13.2319 23.238 13.4869 23.8366 13.4869 24.5812C13.4869 25.3436 13.2372 25.9368 12.7379 26.3607C12.2421 26.7847 11.5463 26.9967 10.6503 26.9967H9.05145ZM9.05145 25.9118H10.6663C11.1443 25.9118 11.5091 25.7996 11.7605 25.5752C12.0119 25.3471 12.1377 25.0194 12.1377 24.5919C12.1377 24.1715 12.0102 23.8366 11.7552 23.5872C11.5002 23.3342 11.1496 23.2042 10.7034 23.1971H9.05145V25.9118Z" fill="white"/>
<path d="M20.8385 26.2004C20.8385 26.9628 20.7075 27.6326 20.4454 28.2098C20.1834 28.7833 19.808 29.2251 19.3193 29.5351C18.8342 29.8415 18.2746 29.9947 17.6408 29.9947C17.014 29.9947 16.4544 29.8415 15.9622 29.5351C15.4735 29.2251 15.0946 28.7851 14.8255 28.2151C14.5599 27.6451 14.4253 26.9878 14.4218 26.2432V25.8049C14.4218 25.0461 14.5546 24.3763 14.8202 23.7956C15.0893 23.2149 15.4664 22.7713 15.9516 22.4649C16.4403 22.155 16.9998 22 17.6301 22C18.2605 22 18.8182 22.1532 19.3034 22.4596C19.7921 22.7624 20.1692 23.2006 20.4348 23.7742C20.7004 24.3442 20.835 25.0087 20.8385 25.7675V26.2004ZM19.4946 25.7943C19.4946 24.9321 19.3317 24.2712 19.0059 23.8116C18.6837 23.352 18.2251 23.1222 17.6301 23.1222C17.0494 23.1222 16.5943 23.352 16.265 23.8116C15.9392 24.2676 15.7728 24.9143 15.7657 25.7515V26.2004C15.7657 27.0554 15.9303 27.7163 16.2597 28.183C16.5926 28.6497 17.0529 28.8831 17.6408 28.8831C18.2357 28.8831 18.6925 28.6551 19.0112 28.1991C19.3335 27.743 19.4946 27.0768 19.4946 26.2004V25.7943Z" fill="white"/>
<path d="M24.4665 26.5531H23.5529V29.8878H22.2143V22.1069H23.5529V25.3774H24.2912L26.5647 22.1069H28.2114L25.5555 25.8317L28.4451 29.8878H26.8303L24.4665 26.5531Z" fill="white"/>
<path d="M35.1912 26.2004C35.1912 26.9628 35.0602 27.6326 34.7981 28.2098C34.5361 28.7833 34.1607 29.2251 33.672 29.5351C33.1869 29.8415 32.6274 29.9947 31.9935 29.9947C31.3667 29.9947 30.8072 29.8415 30.3149 29.5351C29.8262 29.2251 29.4473 28.7851 29.1782 28.2151C28.9126 27.6451 28.778 26.9878 28.7745 26.2432V25.8049C28.7745 25.0461 28.9073 24.3763 29.1729 23.7956C29.442 23.2149 29.8191 22.7713 30.3043 22.4649C30.793 22.155 31.3525 22 31.9829 22C32.6132 22 33.1709 22.1532 33.6561 22.4596C34.1448 22.7624 34.5219 23.2006 34.7875 23.7742C35.0531 24.3442 35.1877 25.0087 35.1912 25.7675V26.2004ZM33.8473 25.7943C33.8473 24.9321 33.6844 24.2712 33.3586 23.8116C33.0364 23.352 32.5778 23.1222 31.9829 23.1222C31.4021 23.1222 30.947 23.352 30.6177 23.8116C30.2919 24.2676 30.1255 24.9143 30.1184 25.7515V26.2004C30.1184 27.0554 30.283 27.7163 30.6124 28.183C30.9453 28.6497 31.4056 28.8831 31.9935 28.8831C32.5884 28.8831 33.0452 28.6551 33.3639 28.1991C33.6862 27.743 33.8473 27.0768 33.8473 26.2004V25.7943Z" fill="white"/>
<path d="M42.6704 29.8878H41.3318V26.4302H37.8737V29.8878H36.5298V22.1069H37.8737V25.3454H41.3318V22.1069H42.6704V29.8878Z" fill="white"/>
<path d="M50.1654 27.3547C50.0875 28.1848 49.783 28.8332 49.2518 29.2999C48.7206 29.7631 48.0141 29.9947 47.1323 29.9947C46.5162 29.9947 45.9726 29.8486 45.5016 29.5564C45.0341 29.2607 44.6729 28.8421 44.418 28.3006C44.163 27.7591 44.0302 27.1303 44.0196 26.4142V25.6874C44.0196 24.9535 44.1488 24.3068 44.4073 23.7475C44.6659 23.1882 45.0359 22.7571 45.5175 22.4542C46.0027 22.1514 46.5622 22 47.1961 22C48.0495 22 48.7365 22.2334 49.2571 22.7001C49.7777 23.1668 50.0804 23.8259 50.1654 24.6774H48.8268C48.7631 24.118 48.6002 23.7154 48.3381 23.4696C48.0796 23.2202 47.6989 23.0955 47.1961 23.0955C46.6118 23.0955 46.162 23.3111 45.8469 23.7422C45.5352 24.1697 45.3759 24.7985 45.3688 25.6286V26.318C45.3688 27.1588 45.5175 27.8 45.815 28.2418C46.116 28.6836 46.5551 28.9045 47.1323 28.9045C47.66 28.9045 48.0566 28.7851 48.3222 28.5464C48.5878 28.3077 48.756 27.9105 48.8268 27.3547H50.1654Z" fill="white"/>
<path d="M54.1547 26.1737L55.7057 22.1069H57.1984L54.5052 28.5625L54.2609 29.0488C53.9068 29.6829 53.3331 30 52.5398 30L51.9874 29.9679L51.998 28.8991C52.083 28.9134 52.2335 28.9205 52.4495 28.9205C52.832 28.9205 53.1011 28.7566 53.2569 28.4289L53.5332 27.7715L50.8878 22.1069H52.3539L54.1547 26.1737Z" fill="white"/>
<path d="M64.0188 22.1069V29.8878H62.6802V23.1971H60.3111L60.173 26.2057C60.1199 27.1463 60.0048 27.8766 59.8277 28.3968C59.6542 28.9134 59.401 29.291 59.0681 29.5297C58.7353 29.7684 58.2891 29.8878 57.7295 29.8878H57.3896V28.8083L57.6021 28.7923C57.9102 28.7637 58.1474 28.6551 58.3139 28.4663C58.4838 28.2774 58.6113 27.9924 58.6963 27.6112C58.7848 27.2265 58.8468 26.6618 58.8822 25.9172L59.031 22.1069H64.0188Z" fill="white"/>
<path d="M66.9616 25.0835H68.5445C69.1111 25.0835 69.6052 25.1815 70.0266 25.3774C70.448 25.5734 70.7685 25.8513 70.988 26.2111C71.2076 26.5709 71.3173 26.9878 71.3173 27.4616C71.3173 28.1884 71.0712 28.7727 70.579 29.2144C70.0903 29.6562 69.4228 29.8807 68.5764 29.8878H65.6177V22.1069H66.9616V25.0835ZM66.9616 26.1683V28.8083H68.5392C68.9925 28.8083 69.3449 28.6854 69.5963 28.4395C69.8513 28.1902 69.9788 27.8606 69.9788 27.4509C69.9788 27.059 69.8548 26.7491 69.6069 26.521C69.359 26.293 69.0155 26.1755 68.5764 26.1683H66.9616Z" fill="white"/>
<path d="M77.5482 23.1971H75.1366V29.8878H73.8033V23.1971H71.413V22.1069H77.5482V23.1971Z" fill="white"/>
<path d="M83.3063 22.1069H84.6502V29.8878H83.3063V24.346L79.912 29.8878H78.5681V22.1069H79.912V27.654L83.3063 22.1069Z" fill="white"/>
<path d="M87.6036 26.9967V29.8878H86.2597V22.1069H89.2184C90.0825 22.1069 90.7677 22.3331 91.2741 22.7856C91.784 23.238 92.039 23.8366 92.039 24.5812C92.039 25.3436 91.7893 25.9368 91.29 26.3607C90.7943 26.7847 90.0984 26.9967 89.2025 26.9967H87.6036ZM87.6036 25.9118H89.2184C89.6965 25.9118 90.0612 25.7996 90.3126 25.5752C90.5641 25.3471 90.6898 25.0194 90.6898 24.5919C90.6898 24.1715 90.5623 23.8366 90.3073 23.5872C90.0524 23.3342 89.7018 23.2042 89.2556 23.1971H87.6036V25.9118Z" fill="white"/>
<path d="M99.3907 26.2004C99.3907 26.9628 99.2596 27.6326 98.9976 28.2098C98.7355 28.7833 98.3601 29.2251 97.8715 29.5351C97.3863 29.8415 96.8268 29.9947 96.1929 29.9947C95.5661 29.9947 95.0066 29.8415 94.5143 29.5351C94.0256 29.2251 93.6467 28.7851 93.3776 28.2151C93.112 27.6451 92.9774 26.9878 92.9739 26.2432V25.8049C92.9739 25.0461 93.1067 24.3763 93.3723 23.7956C93.6414 23.2149 94.0186 22.7713 94.5037 22.4649C94.9924 22.155 95.5519 22 96.1823 22C96.8126 22 97.3704 22.1532 97.8555 22.4596C98.3442 22.7624 98.7214 23.2006 98.9869 23.7742C99.2525 24.3442 99.3871 25.0087 99.3907 25.7675V26.2004ZM98.0467 25.7943C98.0467 24.9321 97.8838 24.2712 97.5581 23.8116C97.2358 23.352 96.7772 23.1222 96.1823 23.1222C95.6015 23.1222 95.1465 23.352 94.8171 23.8116C94.4913 24.2676 94.3249 24.9143 94.3178 25.7515V26.2004C94.3178 27.0554 94.4825 27.7163 94.8118 28.183C95.1447 28.6497 95.605 28.8831 96.1929 28.8831C96.7878 28.8831 97.2447 28.6551 97.5634 28.1991C97.8856 27.743 98.0467 27.0768 98.0467 26.2004V25.7943Z" fill="white"/>
<path d="M100.729 29.8878V22.1069H103.38C104.255 22.1069 104.92 22.2832 105.377 22.6359C105.834 22.9886 106.062 23.5141 106.062 24.2124C106.062 24.5687 105.967 24.8893 105.776 25.1743C105.584 25.4594 105.305 25.6802 104.936 25.837C105.354 25.951 105.676 26.1666 105.903 26.4836C106.133 26.7971 106.248 27.1748 106.248 27.6166C106.248 28.3469 106.015 28.908 105.547 29.2999C105.083 29.6918 104.417 29.8878 103.55 29.8878H100.729ZM102.073 26.3768V28.8083H103.566C103.987 28.8083 104.317 28.7032 104.554 28.493C104.791 28.2828 104.91 27.9906 104.91 27.6166C104.91 26.8078 104.499 26.3946 103.677 26.3768H102.073ZM102.073 25.3828H103.39C103.808 25.3828 104.134 25.2884 104.368 25.0995C104.605 24.9071 104.724 24.6364 104.724 24.2872C104.724 23.9025 104.614 23.6246 104.394 23.4536C104.178 23.2826 103.84 23.1971 103.38 23.1971H102.073V25.3828Z" fill="white"/>
<path d="M111.921 28.0762H108.925L108.299 29.8878H106.902L109.823 22.1069H111.029L113.956 29.8878H112.553L111.921 28.0762ZM109.303 26.986H111.544L110.423 23.7582L109.303 26.986Z" fill="white"/>
<path d="M119.788 23.1971H117.377V29.8878H116.043V23.1971H113.653V22.1069H119.788V23.1971Z" fill="white"/>
<path d="M122.216 25.0835H123.799C124.365 25.0835 124.859 25.1815 125.281 25.3774C125.702 25.5734 126.023 25.8513 126.242 26.2111C126.462 26.5709 126.572 26.9878 126.572 27.4616C126.572 28.1884 126.325 28.7727 125.833 29.2144C125.345 29.6562 124.677 29.8807 123.831 29.8878H120.872V22.1069H122.216V25.0835ZM122.216 26.1683V28.8083H123.793C124.247 28.8083 124.599 28.6854 124.851 28.4395C125.105 28.1902 125.233 27.8606 125.233 27.4509C125.233 27.059 125.109 26.7491 124.861 26.521C124.613 26.293 124.27 26.1755 123.831 26.1683H122.216Z" fill="white"/>
<path d="M133.636 27.3547C133.558 28.1848 133.254 28.8332 132.723 29.2999C132.192 29.7631 131.485 29.9947 130.603 29.9947C129.987 29.9947 129.444 29.8486 128.973 29.5564C128.505 29.2607 128.144 28.8421 127.889 28.3006C127.634 27.7591 127.501 27.1303 127.491 26.4142V25.6874C127.491 24.9535 127.62 24.3068 127.878 23.7475C128.137 23.1882 128.507 22.7571 128.988 22.4542C129.474 22.1514 130.033 22 130.667 22C131.52 22 132.207 22.2334 132.728 22.7001C133.249 23.1668 133.551 23.8259 133.636 24.6774H132.298C132.234 24.118 132.071 23.7154 131.809 23.4696C131.551 23.2202 131.17 23.0955 130.667 23.0955C130.083 23.0955 129.633 23.3111 129.318 23.7422C129.006 24.1697 128.847 24.7985 128.84 25.6286V26.318C128.84 27.1588 128.988 27.8 129.286 28.2418C129.587 28.6836 130.026 28.9045 130.603 28.9045C131.131 28.9045 131.528 28.7851 131.793 28.5464C132.059 28.3077 132.227 27.9105 132.298 27.3547H133.636Z" fill="white"/>
<path d="M138.656 29.8878V26.9806H137.158L135.666 29.8878H134.226L135.952 26.5798C135.053 26.1523 134.603 25.4522 134.603 24.4796C134.603 23.735 134.846 23.1561 135.331 22.7428C135.82 22.326 136.499 22.114 137.371 22.1069H140V29.8878H138.656ZM135.942 24.5384C135.942 24.9766 136.064 25.3186 136.308 25.5645C136.553 25.8103 136.919 25.9332 137.408 25.9332H138.656V23.1971H137.408C136.912 23.1971 136.544 23.3164 136.303 23.5551C136.062 23.7938 135.942 24.1216 135.942 24.5384Z" fill="white"/>
<path d="M8.11117 36.3875C8.00835 37.0677 7.60641 37.599 6.90536 37.9814C6.20431 38.3609 5.27191 38.5506 4.10816 38.5506C3.29494 38.5506 2.57753 38.4309 1.95593 38.1916C1.33901 37.9493 0.862293 37.6063 0.525789 37.1626C0.189284 36.7188 0.014021 36.2036 0 35.6169V35.0213C0 34.42 0.170589 33.8902 0.511768 33.4319C0.852946 32.9735 1.34135 32.6203 1.97697 32.3722C2.61726 32.1241 3.3557 32 4.19229 32C5.31864 32 6.22534 32.1912 6.91237 32.5736C7.5994 32.956 7.999 33.4961 8.11117 34.1938H6.34452C6.26039 33.7354 6.0454 33.4056 5.69955 33.2042C5.35837 32.9998 4.85595 32.8976 4.19229 32.8976C3.42113 32.8976 2.82757 33.0743 2.41162 33.4275C2.00033 33.7778 1.79002 34.293 1.78067 34.9732V35.538C1.78067 36.227 1.97697 36.7524 2.36955 37.1144C2.76682 37.4764 3.34635 37.6574 4.10816 37.6574C4.80454 37.6574 5.32799 37.5596 5.67852 37.364C6.02904 37.1684 6.25104 36.8429 6.34452 36.3875H8.11117Z" fill="white"/>
<path d="M17.8488 35.4417C17.8488 36.0664 17.6758 36.6152 17.33 37.0881C16.9841 37.5581 16.4887 37.9201 15.8438 38.1741C15.2035 38.4251 14.465 38.5506 13.6284 38.5506C12.8012 38.5506 12.0628 38.4251 11.4131 38.1741C10.7682 37.9201 10.2681 37.5596 9.91287 37.0925C9.56234 36.6254 9.38474 36.0868 9.38007 35.4767V35.1177C9.38007 34.4959 9.55533 33.9471 9.90586 33.4713C10.2611 32.9954 10.7588 32.632 11.3991 32.381C12.0441 32.127 12.7825 32 13.6144 32C14.4463 32 15.1824 32.1255 15.8227 32.3766C16.4677 32.6247 16.9654 32.9838 17.316 33.4537C17.6665 33.9208 17.8441 34.4652 17.8488 35.087V35.4417ZM16.0751 35.1089C16.0751 34.4025 15.8601 33.861 15.4301 33.4844C15.0048 33.1078 14.3996 32.9195 13.6144 32.9195C12.8479 32.9195 12.2474 33.1078 11.8127 33.4844C11.3827 33.8581 11.1631 34.3879 11.1537 35.0739V35.4417C11.1537 36.1423 11.3711 36.6838 11.8057 37.0662C12.245 37.4486 12.8526 37.6398 13.6284 37.6398C14.4136 37.6398 15.0165 37.453 15.4372 37.0794C15.8625 36.7057 16.0751 36.1598 16.0751 35.4417V35.1089Z" fill="white"/>
<path d="M30.9795 36.3875C30.8766 37.0677 30.4747 37.599 29.7737 37.9814C29.0726 38.3609 28.1402 38.5506 26.9765 38.5506C26.1632 38.5506 25.4458 38.4309 24.8242 38.1916C24.2073 37.9493 23.7306 37.6063 23.3941 37.1626C23.0576 36.7188 22.8823 36.2036 22.8683 35.6169V35.0213C22.8683 34.42 23.0389 33.8902 23.3801 33.4319C23.7212 32.9735 24.2096 32.6203 24.8453 32.3722C25.4856 32.1241 26.224 32 27.0606 32C28.1869 32 29.0936 32.1912 29.7807 32.5736C30.4677 32.956 30.8673 33.4961 30.9795 34.1938H29.2128C29.1287 33.7354 28.9137 33.4056 28.5679 33.2042C28.2267 32.9998 27.7243 32.8976 27.0606 32.8976C26.2894 32.8976 25.6959 33.0743 25.2799 33.4275C24.8686 33.7778 24.6583 34.293 24.649 34.9732V35.538C24.649 36.227 24.8453 36.7524 25.2379 37.1144C25.6351 37.4764 26.2147 37.6574 26.9765 37.6574C27.6728 37.6574 28.1963 37.5596 28.5468 37.364C28.8973 37.1684 29.1193 36.8429 29.2128 36.3875H30.9795Z" fill="white"/>
<path d="M40.647 38.4631H38.8803V32.9808H34.3866V38.4631H32.6199V32.0876H40.647V38.4631Z" fill="white"/>
<path d="M48.7581 35.6169H44.5659V37.5785H49.4662V38.4631H42.7922V32.0876H49.4171V32.9808H44.5659V34.7411H48.7581V35.6169Z" fill="white"/>
<path d="M50.8963 32.0876H52.67V37.5785H57.1637V32.0876H58.9374V37.5698H60.1713L60.031 40H58.4046V38.4631H50.8963V32.0876Z" fill="white"/>
<path d="M67.8898 32.0876H69.6635V38.4631H67.8898V33.9223L63.4101 38.4631H61.6365V32.0876H63.4101V36.6327L67.8898 32.0876Z" fill="white"/>
<path d="M77.6274 36.9787H73.6735L72.8463 38.4631H71.0025L74.8583 32.0876H76.4497L80.3125 38.4631H78.4617L77.6274 36.9787ZM74.1713 36.0854H77.1297L75.6505 33.4406L74.1713 36.0854Z" fill="white"/>
<path d="M89.6294 32.0876V38.4631H87.8628V32.9808H84.7361L84.5538 35.4461C84.4837 36.2167 84.3318 36.8152 84.0982 37.2414C83.8691 37.6647 83.535 37.9741 83.0956 38.1697C82.6563 38.3653 82.0674 38.4631 81.329 38.4631H80.8803V37.5785L81.1607 37.5654C81.5674 37.5421 81.8805 37.453 82.1002 37.2983C82.3245 37.1436 82.4927 36.9101 82.6049 36.5977C82.7218 36.2824 82.8035 35.8197 82.8503 35.2096L83.0466 32.0876H89.6294Z" fill="white"/>
<path d="M98.021 32.0876H99.7947V38.4631H98.021V33.9223L93.5413 38.4631H91.7677V32.0876H93.5413V36.6327L98.021 32.0876Z" fill="white"/>
<path d="M109.708 36.3875C109.605 37.0677 109.203 37.599 108.502 37.9814C107.801 38.3609 106.868 38.5506 105.705 38.5506C104.891 38.5506 104.174 38.4309 103.552 38.1916C102.935 37.9493 102.459 37.6063 102.122 37.1626C101.786 36.7188 101.61 36.2036 101.596 35.6169V35.0213C101.596 34.42 101.767 33.8902 102.108 33.4319C102.449 32.9735 102.938 32.6203 103.573 32.3722C104.214 32.1241 104.952 32 105.789 32C106.915 32 107.822 32.1912 108.509 32.5736C109.196 32.956 109.595 33.4961 109.708 34.1938H107.941C107.857 33.7354 107.642 33.4056 107.296 33.2042C106.955 32.9998 106.452 32.8976 105.789 32.8976C105.018 32.8976 104.424 33.0743 104.008 33.4275C103.597 33.7778 103.386 34.293 103.377 34.9732V35.538C103.377 36.227 103.573 36.7524 103.966 37.1144C104.363 37.4764 104.943 37.6574 105.705 37.6574C106.401 37.6574 106.924 37.5596 107.275 37.364C107.625 37.1684 107.847 36.8429 107.941 36.3875H109.708Z" fill="white"/>
<path d="M118.464 32.9808H115.281V38.4631H113.521V32.9808H110.367V32.0876H118.464V32.9808Z" fill="white"/>
<path d="M127.76 35.4417C127.76 36.0664 127.587 36.6152 127.241 37.0881C126.895 37.5581 126.4 37.9201 125.755 38.1741C125.114 38.4251 124.376 38.5506 123.539 38.5506C122.712 38.5506 121.974 38.4251 121.324 38.1741C120.679 37.9201 120.179 37.5596 119.824 37.0925C119.473 36.6254 119.296 36.0868 119.291 35.4767V35.1177C119.291 34.4959 119.466 33.9471 119.817 33.4713C120.172 32.9954 120.67 32.632 121.31 32.381C121.955 32.127 122.693 32 123.525 32C124.357 32 125.093 32.1255 125.734 32.3766C126.379 32.6247 126.876 32.9838 127.227 33.4537C127.577 33.9208 127.755 34.4652 127.76 35.087V35.4417ZM125.986 35.1089C125.986 34.4025 125.771 33.861 125.341 33.4844C124.916 33.1078 124.31 32.9195 123.525 32.9195C122.759 32.9195 122.158 33.1078 121.724 33.4844C121.294 33.8581 121.074 34.3879 121.065 35.0739V35.4417C121.065 36.1423 121.282 36.6838 121.717 37.0662C122.156 37.4486 122.763 37.6398 123.539 37.6398C124.324 37.6398 124.927 37.453 125.348 37.0794C125.773 36.7057 125.986 36.1598 125.986 35.4417V35.1089Z" fill="white"/>
<path d="M131.826 32.0876L134.77 36.9743L137.708 32.0876H140V38.4631H138.233V36.3612L138.409 33.5501L135.394 38.4631H134.125L131.118 33.5545L131.293 36.3612V38.4631H129.526V32.0876H131.826Z" fill="white"/>
</svg>
