<svg width="140" height="41" viewBox="0 0 140 41" fill="none" xmlns="http://www.w3.org/2000/svg">
<path d="M3.8213 0.106952H4.90514V7.89305H3.8213V2.34759L1.08384 7.89305H0V0.106952H1.08384V5.65775L3.8213 0.106952Z" fill="white"/>
<path d="M7.60832 0.106952L9.40759 6.07487L11.2026 0.106952H12.6034V7.89305H11.5239V5.3262L11.631 1.89305L9.78886 7.89305H9.01346L7.17564 1.8984L7.28274 5.3262V7.89305H6.20318V0.106952H7.60832Z" fill="white"/>
<path d="M17.5343 4.41711H14.9725V6.81283H17.967V7.89305H13.8886V0.106952H17.937V1.19786H14.9725V3.34759H17.5343V4.41711Z" fill="white"/>
<path d="M25.9223 4.20321C25.9223 4.96613 25.8166 5.63636 25.6053 6.2139C25.3939 6.78788 25.0912 7.22995 24.6971 7.54011C24.3058 7.8467 23.8545 8 23.3433 8C22.8664 8 22.4394 7.86453 22.0624 7.59358C21.6854 7.32264 21.3841 6.93405 21.1585 6.42781C20.9329 5.92157 20.8001 5.33155 20.7601 4.65775H19.9804V7.89305H18.9009V0.106952H19.9804V3.60963H20.7472C20.7644 2.89305 20.8829 2.26025 21.1028 1.71123C21.3227 1.15865 21.6255 0.736185 22.011 0.44385C22.3994 0.14795 22.8407 0 23.3348 0C23.8431 0 24.2929 0.153298 24.6842 0.459893C25.0783 0.762923 25.3825 1.20143 25.5967 1.7754C25.8109 2.34581 25.9194 3.0107 25.9223 3.77005V4.20321ZM24.8384 3.79679C24.8384 2.93405 24.7071 2.27273 24.4443 1.81283C24.1844 1.35294 23.8146 1.12299 23.3348 1.12299C22.8664 1.12299 22.4994 1.35294 22.2338 1.81283C21.971 2.26916 21.8368 2.91622 21.8311 3.75401V4.20321C21.8311 5.05882 21.9639 5.72014 22.2295 6.18717C22.498 6.65419 22.8692 6.8877 23.3433 6.8877C23.8231 6.8877 24.1916 6.65954 24.4486 6.20321C24.7085 5.74688 24.8384 5.08021 24.8384 4.20321V3.79679Z" fill="white"/>
<path d="M31.2644 1.19786H29.3195V7.89305H28.2442V1.19786H26.3164V0.106952H31.2644V1.19786Z" fill="white"/>
<path d="M36.7264 5.35829C36.6636 6.18895 36.418 6.83779 35.9896 7.30481C35.5612 7.76827 34.9914 8 34.2803 8C33.7834 8 33.345 7.85383 32.9651 7.5615C32.5881 7.2656 32.2968 6.8467 32.0912 6.30481C31.8856 5.76292 31.7785 5.13369 31.7699 4.41711V3.68984C31.7699 2.95544 31.8741 2.30838 32.0826 1.74866C32.2911 1.18895 32.5896 0.757576 32.978 0.454545C33.3692 0.151515 33.8205 0 34.3317 0C35.02 0 35.5741 0.233512 35.9939 0.700535C36.4137 1.16756 36.6579 1.82709 36.7264 2.67914H35.6469C35.5955 2.11943 35.4641 1.71658 35.2528 1.47059C35.0443 1.22103 34.7373 1.09626 34.3317 1.09626C33.8605 1.09626 33.4978 1.31194 33.2436 1.74332C32.9922 2.17112 32.8637 2.80036 32.858 3.63102V4.32086C32.858 5.16221 32.978 5.80392 33.2179 6.24599C33.4606 6.68806 33.8148 6.90909 34.2803 6.90909C34.7058 6.90909 35.0257 6.78966 35.2399 6.5508C35.4541 6.31194 35.5898 5.91444 35.6469 5.35829H36.7264Z" fill="white"/>
<path d="M40.7748 7.89305V4.98396H39.5667L38.3629 7.89305H37.202L38.5942 4.58289C37.8688 4.15508 37.5061 3.45455 37.5061 2.48128C37.5061 1.73619 37.7018 1.15686 38.093 0.743316C38.4871 0.326203 39.0355 0.114082 39.7381 0.106952H41.8586V7.89305H40.7748ZM38.5857 2.54011C38.5857 2.97861 38.6842 3.32086 38.8813 3.56684C39.0783 3.81283 39.3739 3.93583 39.7681 3.93583H40.7748V1.19786H39.7681C39.3682 1.19786 39.0712 1.31729 38.877 1.55615C38.6828 1.79501 38.5857 2.12299 38.5857 2.54011Z" fill="white"/>
<path d="M50.2681 7.89305H49.1885V1.19786H46.4425V7.89305H45.3629V0.106952H50.2681V7.89305Z" fill="white"/>
<path d="M52.6628 5V7.89305H51.5789V0.106952H53.9651C54.662 0.106952 55.2146 0.333333 55.623 0.786096C56.0343 1.23886 56.2399 1.83779 56.2399 2.58289C56.2399 3.34581 56.0386 3.93939 55.6359 4.36364C55.236 4.78788 54.6748 5 53.9523 5H52.6628ZM52.6628 3.91444H53.9651C54.3507 3.91444 54.6448 3.80214 54.8476 3.57754C55.0504 3.34938 55.1518 3.02139 55.1518 2.59358C55.1518 2.17291 55.049 1.83779 54.8433 1.58824C54.6377 1.33512 54.355 1.20499 53.9951 1.19786H52.6628V3.91444Z" fill="white"/>
<path d="M62.1689 4.20321C62.1689 4.96613 62.0632 5.63636 61.8519 6.2139C61.6406 6.78788 61.3378 7.22995 60.9437 7.54011C60.5524 7.8467 60.1012 8 59.59 8C59.0845 8 58.6332 7.8467 58.2362 7.54011C57.8421 7.22995 57.5365 6.78966 57.3195 6.21925C57.1053 5.64884 56.9967 4.99109 56.9939 4.24599V3.80749C56.9939 3.04813 57.101 2.3779 57.3152 1.79679C57.5322 1.21569 57.8364 0.771836 58.2277 0.465241C58.6218 0.15508 59.073 0 59.5814 0C60.0898 0 60.5396 0.153298 60.9308 0.459893C61.325 0.762923 61.6291 1.20143 61.8433 1.7754C62.0575 2.34581 62.1661 3.0107 62.1689 3.77005V4.20321ZM61.0851 3.79679C61.0851 2.93405 60.9537 2.27273 60.6909 1.81283C60.431 1.35294 60.0612 1.12299 59.5814 1.12299C59.113 1.12299 58.746 1.35294 58.4804 1.81283C58.2177 2.26916 58.0834 2.91622 58.0777 3.75401V4.20321C58.0777 5.05882 58.2105 5.72014 58.4761 6.18717C58.7446 6.65419 59.1159 6.8877 59.59 6.8877C60.0698 6.8877 60.4382 6.65954 60.6952 6.20321C60.9551 5.74688 61.0851 5.08021 61.0851 4.20321V3.79679Z" fill="white"/>
<path d="M67.3868 1.19786H65.4419V7.89305H64.3666V1.19786H62.4388V0.106952H67.3868V1.19786Z" fill="white"/>
<path d="M72.0306 0.106952H73.1144V7.89305H72.0306V2.34759L69.2931 7.89305H68.2093V0.106952H69.2931V5.65775L72.0306 0.106952Z" fill="white"/>
<path d="M74.4125 7.89305V0.106952H76.5502C77.2556 0.106952 77.7925 0.283422 78.1609 0.636364C78.5294 0.989305 78.7136 1.51515 78.7136 2.2139C78.7136 2.57041 78.6365 2.89127 78.4823 3.17647C78.328 3.46168 78.1024 3.68271 77.8054 3.83957C78.1424 3.95365 78.4023 4.16934 78.5851 4.48663C78.7707 4.80036 78.8635 5.17825 78.8635 5.62032C78.8635 6.35116 78.675 6.91266 78.298 7.30481C77.9239 7.69697 77.387 7.89305 76.6873 7.89305H74.4125ZM75.4963 4.37968V6.81283H76.7001C77.04 6.81283 77.3056 6.70766 77.4969 6.49733C77.6883 6.28699 77.784 5.99465 77.784 5.62032C77.784 4.81105 77.4527 4.3975 76.7901 4.37968H75.4963ZM75.4963 3.38503H76.5588C76.8958 3.38503 77.1585 3.29055 77.347 3.1016C77.5384 2.90909 77.634 2.63815 77.634 2.28877C77.634 1.90374 77.5455 1.62567 77.3684 1.45455C77.1942 1.28342 76.9215 1.19786 76.5502 1.19786H75.4963V3.38503Z" fill="white"/>
<path d="M84.9253 4.20321C84.9253 4.96613 84.8197 5.63636 84.6083 6.2139C84.397 6.78788 84.0942 7.22995 83.7001 7.54011C83.3089 7.8467 82.8576 8 82.3464 8C81.8409 8 81.3896 7.8467 80.9927 7.54011C80.5985 7.22995 80.2929 6.78966 80.0759 6.21925C79.8617 5.64884 79.7532 4.99109 79.7503 4.24599V3.80749C79.7503 3.04813 79.8574 2.3779 80.0716 1.79679C80.2887 1.21569 80.5928 0.771836 80.9841 0.465241C81.3782 0.15508 81.8295 0 82.3378 0C82.8462 0 83.296 0.153298 83.6873 0.459893C84.0814 0.762923 84.3856 1.20143 84.5998 1.7754C84.8139 2.34581 84.9225 3.0107 84.9253 3.77005V4.20321ZM83.8415 3.79679C83.8415 2.93405 83.7101 2.27273 83.4474 1.81283C83.1875 1.35294 82.8176 1.12299 82.3378 1.12299C81.8694 1.12299 81.5024 1.35294 81.2368 1.81283C80.9741 2.26916 80.8399 2.91622 80.8341 3.75401V4.20321C80.8341 5.05882 80.9669 5.72014 81.2326 6.18717C81.501 6.65419 81.8723 6.8877 82.3464 6.8877C82.8262 6.8877 83.1946 6.65954 83.4517 6.20321C83.7115 5.74688 83.8415 5.08021 83.8415 4.20321V3.79679Z" fill="white"/>
<path d="M90.94 7.89305H89.8605V1.19786H87.1144V7.89305H86.0349V0.106952H90.94V7.89305Z" fill="white"/>
<path d="M97.2289 4.20321C97.2289 4.96613 97.1232 5.63636 96.9119 6.2139C96.7005 6.78788 96.3978 7.22995 96.0037 7.54011C95.6124 7.8467 95.1612 8 94.6499 8C94.1444 8 93.6932 7.8467 93.2962 7.54011C92.9021 7.22995 92.5965 6.78966 92.3794 6.21925C92.1652 5.64884 92.0567 4.99109 92.0539 4.24599V3.80749C92.0539 3.04813 92.1609 2.3779 92.3752 1.79679C92.5922 1.21569 92.8964 0.771836 93.2876 0.465241C93.6818 0.15508 94.133 0 94.6414 0C95.1497 0 95.5995 0.153298 95.9908 0.459893C96.3849 0.762923 96.6891 1.20143 96.9033 1.7754C97.1175 2.34581 97.226 3.0107 97.2289 3.77005V4.20321ZM96.145 3.79679C96.145 2.93405 96.0137 2.27273 95.7509 1.81283C95.491 1.35294 95.1212 1.12299 94.6414 1.12299C94.173 1.12299 93.806 1.35294 93.5404 1.81283C93.2776 2.26916 93.1434 2.91622 93.1377 3.75401V4.20321C93.1377 5.05882 93.2705 5.72014 93.5361 6.18717C93.8046 6.65419 94.1758 6.8877 94.6499 6.8877C95.1297 6.8877 95.4982 6.65954 95.7552 6.20321C96.0151 5.74688 96.145 5.08021 96.145 4.20321V3.79679Z" fill="white"/>
<path d="M100.155 4.55615H99.418V7.89305H98.3384V0.106952H99.418V3.37968H100.013L101.847 0.106952H103.175L101.033 3.83422L103.364 7.89305H102.061L100.155 4.55615Z" fill="white"/>
<path d="M107.455 6.08021H105.039L104.533 7.89305H103.406L105.763 0.106952H106.735L109.095 7.89305H107.965L107.455 6.08021ZM105.343 4.98931H107.151L106.247 1.75936L105.343 4.98931Z" fill="white"/>
<path d="M112.925 2.22995C112.925 1.88057 112.82 1.6025 112.608 1.39572C112.397 1.18895 112.11 1.08556 111.747 1.08556C111.436 1.08556 111.176 1.18895 110.968 1.39572C110.759 1.59893 110.655 1.86275 110.655 2.18717H109.575C109.575 1.76292 109.67 1.38503 109.858 1.05348C110.047 0.721925 110.308 0.465241 110.642 0.283422C110.976 0.0980392 111.345 0.00534759 111.747 0.00534759C112.461 0.00534759 113.015 0.199644 113.409 0.588235C113.806 0.976827 114.005 1.5205 114.005 2.21925C114.005 2.57219 113.919 2.89661 113.748 3.19251C113.576 3.48841 113.337 3.72193 113.028 3.89305C113.377 4.04278 113.642 4.27095 113.825 4.57754C114.011 4.88057 114.103 5.25847 114.103 5.71123C114.103 6.40998 113.889 6.96613 113.461 7.37968C113.032 7.78966 112.461 7.99465 111.747 7.99465C111.307 7.99465 110.909 7.89661 110.552 7.70053C110.198 7.50446 109.931 7.23708 109.751 6.8984C109.574 6.55971 109.485 6.17112 109.485 5.73262H110.565C110.565 6.06774 110.676 6.35116 110.899 6.58289C111.122 6.81105 111.405 6.92513 111.747 6.92513C112.13 6.92513 112.437 6.81283 112.668 6.58824C112.902 6.36364 113.02 6.0713 113.02 5.71123C113.02 5.27273 112.917 4.95544 112.711 4.75936C112.508 4.55971 112.21 4.45989 111.816 4.45989H111.083V3.39037H111.777C112.543 3.39037 112.925 3.00357 112.925 2.22995Z" fill="white"/>
<path d="M118.602 6.08021H116.185L115.68 7.89305H114.553L116.909 0.106952H117.882L120.242 7.89305H119.111L118.602 6.08021ZM116.49 4.98931H118.297L117.394 1.75936L116.49 4.98931Z" fill="white"/>
<path d="M125.906 7.89305H124.826V4.43316H122.037V7.89305H120.953V0.106952H122.037V3.34759H124.826V0.106952H125.906V7.89305Z" fill="white"/>
<path d="M131.012 0.106952H132.096V7.89305H131.012V2.34759L128.275 7.89305H127.191V0.106952H128.275V5.65775L131.012 0.106952Z" fill="white"/>
<path d="M136.47 7.89305V4.98396H135.262L134.058 7.89305H132.897L134.289 4.58289C133.564 4.15508 133.201 3.45455 133.201 2.48128C133.201 1.73619 133.397 1.15686 133.788 0.743316C134.182 0.326203 134.731 0.114082 135.433 0.106952H137.554V7.89305H136.47ZM134.281 2.54011C134.281 2.97861 134.379 3.32086 134.576 3.56684C134.774 3.81283 135.069 3.93583 135.463 3.93583H136.47V1.19786H135.463C135.063 1.19786 134.766 1.31729 134.572 1.55615C134.378 1.79501 134.281 2.12299 134.281 2.54011Z" fill="white"/>
<path d="M139.392 6.52406C139.586 6.52406 139.736 6.59358 139.841 6.73262C139.947 6.86809 140 7.03922 140 7.24599C140 7.4492 139.947 7.61854 139.841 7.75401C139.736 7.88592 139.586 7.95187 139.392 7.95187C139.206 7.95187 139.059 7.88592 138.95 7.75401C138.842 7.6221 138.788 7.45276 138.788 7.24599C138.788 7.03922 138.84 6.86809 138.946 6.73262C139.052 6.59358 139.2 6.52406 139.392 6.52406Z" fill="white"/>
<path d="M4.31204 17.4384H3.36301V11.9771H0.949025V17.4384H0V11.0872H4.31204V17.4384Z" fill="white"/>
<path d="M8.66927 14.6031H6.41722V16.5573H9.04963V17.4384H5.46443V11.0872H9.02327V11.9771H6.41722V13.7306H8.66927V14.6031Z" fill="white"/>
<path d="M10.7782 15.0785V17.4384H9.82542V11.0872H11.9231C12.5357 11.0872 13.0215 11.2719 13.3805 11.6412C13.742 12.0105 13.9228 12.4991 13.9228 13.1069C13.9228 13.7292 13.7458 14.2134 13.3918 14.5594C13.0403 14.9055 12.547 15.0785 11.9118 15.0785H10.7782ZM10.7782 14.193H11.9231C12.262 14.193 12.5206 14.1014 12.6989 13.9182C12.8771 13.7321 12.9662 13.4646 12.9662 13.1156C12.9662 12.7724 12.8759 12.4991 12.6951 12.2955C12.5143 12.0891 12.2658 11.9829 11.9494 11.9771H10.7782V14.193Z" fill="white"/>
<path d="M17.9637 14.6031H15.7116V16.5573H18.344V17.4384H14.7588V11.0872H18.3177V11.9771H15.7116V13.7306H17.9637V14.6031Z" fill="white"/>
<path d="M24.1625 19H23.2586V17.4384H19.6471V19H18.7282L18.698 16.5573H19.1387C19.3571 16.313 19.5316 15.9582 19.6621 15.4929C19.7927 15.0247 19.8768 14.4955 19.9145 13.9051L20.0576 11.0872H23.5147V16.5573H24.2114L24.1625 19ZM20.2157 16.5573H22.5657V11.9771H20.9652L20.8748 13.7655C20.807 14.9607 20.5873 15.8913 20.2157 16.5573Z" fill="white"/>
<path d="M31.186 17.4384H30.237V11.9771H27.823V17.4384H26.874V11.0872H31.186V17.4384Z" fill="white"/>
<path d="M33.2912 15.0785V17.4384H32.3384V11.0872H34.436C35.0486 11.0872 35.5345 11.2719 35.8935 11.6412C36.255 12.0105 36.4358 12.4991 36.4358 13.1069C36.4358 13.7292 36.2588 14.2134 35.9048 14.5594C35.5533 14.9055 35.0599 15.0785 34.4247 15.0785H33.2912ZM33.2912 14.193H34.436C34.775 14.193 35.0336 14.1014 35.2118 13.9182C35.3901 13.7321 35.4792 13.4646 35.4792 13.1156C35.4792 12.7724 35.3888 12.4991 35.2081 12.2955C35.0273 12.0891 34.7788 11.9829 34.4624 11.9771H33.2912V14.193Z" fill="white"/>
<path d="M40.6311 11.0872H41.5839V17.4384H40.6311V12.9149L38.2246 17.4384H37.2718V11.0872H38.2246V15.615L40.6311 11.0872Z" fill="white"/>
<path d="M43.9602 11.0872L45.5419 15.9553L47.1198 11.0872H48.3513V17.4384H47.4023V15.3446L47.4964 12.5442L45.8771 17.4384H45.1954L43.5798 12.5485L43.674 15.3446V17.4384H42.7249V11.0872H43.9602Z" fill="white"/>
<path d="M52.6859 14.6031H50.4339V16.5573H53.0663V17.4384H49.4811V11.0872H53.0399V11.9771H50.4339V13.7306H52.6859V14.6031Z" fill="white"/>
<path d="M58.1956 17.4384H57.2465V14.6161H54.7949V17.4384H53.8421V11.0872H54.7949V13.7306H57.2465V11.0872H58.1956V17.4384Z" fill="white"/>
<path d="M62.5302 14.6031H60.2781V16.5573H62.9106V17.4384H59.3254V11.0872H62.8842V11.9771H60.2781V13.7306H62.5302V14.6031Z" fill="white"/>
<path d="M68.0398 17.4384H67.0908V14.6161H64.6391V17.4384H63.6863V11.0872H64.6391V13.7306H67.0908V11.0872H68.0398V17.4384Z" fill="white"/>
<path d="M72.5289 11.0872H73.4816V17.4384H72.5289V12.9149L70.1224 17.4384H69.1696V11.0872H70.1224V15.615L72.5289 11.0872Z" fill="white"/>
<path d="M77.8276 14.6031H75.5755V16.5573H78.2079V17.4384H74.6227V11.0872H78.1816V11.9771H75.5755V13.7306H77.8276V14.6031Z" fill="white"/>
<path d="M80.219 11.0872L81.8007 15.9553L83.3786 11.0872H84.6101V17.4384H83.6611V15.3446L83.7552 12.5442L82.1358 17.4384H81.4542L79.8386 12.5485L79.9328 15.3446V17.4384H78.9837V11.0872H80.219Z" fill="white"/>
<path d="M92.014 17.4384H91.065V14.6161H88.6133V17.4384H87.6605V11.0872H88.6133V13.7306H91.065V11.0872H92.014V17.4384Z" fill="white"/>
<path d="M96.3486 14.6031H94.0966V16.5573H96.729V17.4384H93.1438V11.0872H96.7026V11.9771H94.0966V13.7306H96.3486V14.6031Z" fill="white"/>
<path d="M101.881 14.4286C101.881 15.0509 101.788 15.5976 101.602 16.0687C101.416 16.5369 101.15 16.8975 100.804 17.1505C100.46 17.4006 100.063 17.5256 99.6137 17.5256C99.1693 17.5256 98.7727 17.4006 98.4237 17.1505C98.0772 16.8975 97.8086 16.5383 97.6178 16.0731C97.4295 15.6078 97.3341 15.0712 97.3315 14.4635V14.1058C97.3315 13.4864 97.4257 12.9397 97.614 12.4656C97.8048 11.9916 98.0722 11.6296 98.4161 11.3795C98.7626 11.1265 99.1593 11 99.6062 11C100.053 11 100.449 11.125 100.792 11.3751C101.139 11.6223 101.406 11.98 101.595 12.4482C101.783 12.9135 101.878 13.4558 101.881 14.0752V14.4286ZM100.928 14.0971C100.928 13.3933 100.813 12.8539 100.582 12.4787C100.353 12.1036 100.028 11.916 99.6062 11.916C99.1944 11.916 98.8718 12.1036 98.6383 12.4787C98.4074 12.851 98.2894 13.3788 98.2843 14.0622V14.4286C98.2843 15.1265 98.4011 15.6659 98.6346 16.0469C98.8706 16.4278 99.197 16.6183 99.6137 16.6183C100.036 16.6183 100.359 16.4322 100.585 16.06C100.814 15.6877 100.928 15.1439 100.928 14.4286V14.0971Z" fill="white"/>
<path d="M106.295 11.9771H103.768V13.5169H104.89C105.292 13.5169 105.642 13.5969 105.941 13.7568C106.239 13.9168 106.467 14.1436 106.622 14.4373C106.778 14.731 106.856 15.0712 106.856 15.458C106.856 16.0513 106.681 16.5282 106.332 16.8888C105.986 17.2494 105.512 17.4326 104.912 17.4384H102.815V11.0872H106.295V11.9771ZM103.768 14.4024V16.5573H104.886C105.207 16.5573 105.457 16.4569 105.636 16.2563C105.816 16.0527 105.907 15.7837 105.907 15.4493C105.907 15.1294 105.819 14.8764 105.643 14.6903C105.467 14.5042 105.224 14.4082 104.912 14.4024H103.768Z" fill="white"/>
<path d="M109.514 13.3817L110.667 11.0872H111.767L110.109 14.2366L111.804 17.4384H110.693L109.514 15.1091L108.332 17.4384H107.225L108.923 14.2366L107.262 11.0872H108.362L109.514 13.3817Z" fill="white"/>
<path d="M116.787 14.4286C116.787 15.0509 116.694 15.5976 116.508 16.0687C116.322 16.5369 116.056 16.8975 115.709 17.1505C115.366 17.4006 114.969 17.5256 114.519 17.5256C114.075 17.5256 113.678 17.4006 113.329 17.1505C112.983 16.8975 112.714 16.5383 112.523 16.0731C112.335 15.6078 112.24 15.0712 112.237 14.4635V14.1058C112.237 13.4864 112.331 12.9397 112.52 12.4656C112.711 11.9916 112.978 11.6296 113.322 11.3795C113.668 11.1265 114.065 11 114.512 11C114.959 11 115.354 11.125 115.698 11.3751C116.045 11.6223 116.312 11.98 116.5 12.4482C116.689 12.9135 116.784 13.4558 116.787 14.0752V14.4286ZM115.834 14.0971C115.834 13.3933 115.718 12.8539 115.487 12.4787C115.259 12.1036 114.934 11.916 114.512 11.916C114.1 11.916 113.778 12.1036 113.544 12.4787C113.313 12.851 113.195 13.3788 113.19 14.0622V14.4286C113.19 15.1265 113.307 15.6659 113.54 16.0469C113.776 16.4278 114.103 16.6183 114.519 16.6183C114.941 16.6183 115.265 16.4322 115.491 16.06C115.72 15.6877 115.834 15.1439 115.834 14.4286V14.0971Z" fill="white"/>
<path d="M122.65 19H121.746V17.4384H118.135V19H117.216L117.186 16.5573H117.626C117.845 16.313 118.019 15.9582 118.15 15.4929C118.28 15.0247 118.364 14.4955 118.402 13.9051L118.545 11.0872H122.002V16.5573H122.699L122.65 19ZM118.703 16.5573H121.053V11.9771H119.453L119.362 13.7655C119.295 14.9607 119.075 15.8913 118.703 16.5573Z" fill="white"/>
<path d="M126.774 11.0872H127.727V17.4384H126.774V12.9149L124.367 17.4384H123.415V11.0872H124.367V15.615L126.774 11.0872Z" fill="white"/>
<path d="M130.103 11.0872L131.685 15.9553L133.263 11.0872H134.494V17.4384H133.545V15.3446L133.639 12.5442L132.02 17.4384H131.338L129.723 12.5485L129.817 15.3446V17.4384H128.868V11.0872H130.103Z" fill="white"/>
<path d="M140 14.4286C140 15.0509 139.907 15.5976 139.721 16.0687C139.536 16.5369 139.269 16.8975 138.923 17.1505C138.579 17.4006 138.182 17.5256 137.733 17.5256C137.288 17.5256 136.892 17.4006 136.543 17.1505C136.196 16.8975 135.928 16.5383 135.737 16.0731C135.549 15.6078 135.453 15.0712 135.451 14.4635V14.1058C135.451 13.4864 135.545 12.9397 135.733 12.4656C135.924 11.9916 136.191 11.6296 136.535 11.3795C136.882 11.1265 137.278 11 137.725 11C138.172 11 138.568 11.125 138.912 11.3751C139.258 11.6223 139.525 11.98 139.714 12.4482C139.902 12.9135 139.997 13.4558 140 14.0752V14.4286ZM139.047 14.0971C139.047 13.3933 138.932 12.8539 138.701 12.4787C138.472 12.1036 138.147 11.916 137.725 11.916C137.314 11.916 136.991 12.1036 136.758 12.4787C136.527 12.851 136.409 13.3788 136.404 14.0622V14.4286C136.404 15.1265 136.52 15.6659 136.754 16.0469C136.99 16.4278 137.316 16.6183 137.733 16.6183C138.155 16.6183 138.479 16.4322 138.705 16.06C138.933 15.6877 139.047 15.1439 139.047 14.4286V14.0971Z" fill="white"/>
<path d="M6.08211 29.8878H4.74351V23.1971H1.33859V29.8878H0V22.1069H6.08211V29.8878Z" fill="white"/>
<path d="M9.05145 26.9967V29.8878H7.70754V22.1069H10.6663C11.5303 22.1069 12.2156 22.3331 12.722 22.7856C13.2319 23.238 13.4869 23.8366 13.4869 24.5812C13.4869 25.3436 13.2372 25.9368 12.7379 26.3607C12.2421 26.7847 11.5463 26.9967 10.6503 26.9967H9.05145ZM9.05145 25.9118H10.6663C11.1443 25.9118 11.5091 25.7996 11.7605 25.5752C12.0119 25.3471 12.1377 25.0194 12.1377 24.5919C12.1377 24.1715 12.0102 23.8366 11.7552 23.5872C11.5002 23.3342 11.1496 23.2042 10.7034 23.1971H9.05145V25.9118Z" fill="white"/>
<path d="M20.8385 26.2004C20.8385 26.9628 20.7075 27.6326 20.4454 28.2098C20.1834 28.7833 19.808 29.2251 19.3193 29.5351C18.8342 29.8415 18.2747 29.9947 17.6408 29.9947C17.014 29.9947 16.4544 29.8415 15.9622 29.5351C15.4735 29.2251 15.0946 28.7851 14.8255 28.2151C14.5599 27.6451 14.4253 26.9878 14.4218 26.2432V25.8049C14.4218 25.0461 14.5546 24.3763 14.8202 23.7956C15.0893 23.2149 15.4664 22.7713 15.9516 22.4649C16.4403 22.155 16.9998 22 17.6301 22C18.2605 22 18.8182 22.1532 19.3034 22.4596C19.7921 22.7624 20.1692 23.2006 20.4348 23.7742C20.7004 24.3442 20.835 25.0087 20.8385 25.7675V26.2004ZM19.4946 25.7943C19.4946 24.9321 19.3317 24.2712 19.0059 23.8116C18.6837 23.352 18.2251 23.1222 17.6301 23.1222C17.0494 23.1222 16.5943 23.352 16.265 23.8116C15.9392 24.2676 15.7728 24.9143 15.7657 25.7515V26.2004C15.7657 27.0554 15.9303 27.7163 16.2597 28.183C16.5926 28.6497 17.0529 28.8831 17.6408 28.8831C18.2357 28.8831 18.6925 28.6551 19.0112 28.1991C19.3335 27.743 19.4946 27.0768 19.4946 26.2004V25.7943Z" fill="white"/>
<path d="M24.4665 26.5531H23.5529V29.8878H22.2143V22.1069H23.5529V25.3774H24.2912L26.5647 22.1069H28.2114L25.5555 25.8317L28.4451 29.8878H26.8303L24.4665 26.5531Z" fill="white"/>
<path d="M35.1912 26.2004C35.1912 26.9628 35.0602 27.6326 34.7981 28.2098C34.5361 28.7833 34.1607 29.2251 33.672 29.5351C33.1869 29.8415 32.6274 29.9947 31.9935 29.9947C31.3667 29.9947 30.8072 29.8415 30.3149 29.5351C29.8262 29.2251 29.4473 28.7851 29.1782 28.2151C28.9126 27.6451 28.778 26.9878 28.7745 26.2432V25.8049C28.7745 25.0461 28.9073 24.3763 29.1729 23.7956C29.442 23.2149 29.8191 22.7713 30.3043 22.4649C30.793 22.155 31.3525 22 31.9829 22C32.6132 22 33.1709 22.1532 33.6561 22.4596C34.1448 22.7624 34.5219 23.2006 34.7875 23.7742C35.0531 24.3442 35.1877 25.0087 35.1912 25.7675V26.2004ZM33.8473 25.7943C33.8473 24.9321 33.6844 24.2712 33.3586 23.8116C33.0364 23.352 32.5778 23.1222 31.9829 23.1222C31.4021 23.1222 30.947 23.352 30.6177 23.8116C30.2919 24.2676 30.1255 24.9143 30.1184 25.7515V26.2004C30.1184 27.0554 30.283 27.7163 30.6124 28.183C30.9453 28.6497 31.4056 28.8831 31.9935 28.8831C32.5884 28.8831 33.0452 28.6551 33.3639 28.1991C33.6862 27.743 33.8473 27.0768 33.8473 26.2004V25.7943Z" fill="white"/>
<path d="M42.6704 29.8878H41.3318V26.4302H37.8737V29.8878H36.5298V22.1069H37.8737V25.3454H41.3318V22.1069H42.6704V29.8878Z" fill="white"/>
<path d="M50.1654 27.3547C50.0875 28.1848 49.783 28.8332 49.2518 29.2999C48.7206 29.7631 48.0141 29.9947 47.1323 29.9947C46.5162 29.9947 45.9726 29.8486 45.5016 29.5564C45.0341 29.2607 44.6729 28.8421 44.418 28.3006C44.163 27.7591 44.0302 27.1303 44.0196 26.4142V25.6874C44.0196 24.9535 44.1488 24.3068 44.4073 23.7475C44.6659 23.1882 45.0359 22.7571 45.5175 22.4542C46.0027 22.1514 46.5622 22 47.1961 22C48.0495 22 48.7365 22.2334 49.2571 22.7001C49.7777 23.1668 50.0804 23.8259 50.1654 24.6774H48.8268C48.7631 24.118 48.6002 23.7154 48.3381 23.4696C48.0796 23.2202 47.6989 23.0955 47.1961 23.0955C46.6118 23.0955 46.162 23.3111 45.8469 23.7422C45.5352 24.1697 45.3759 24.7985 45.3688 25.6286V26.318C45.3688 27.1588 45.5175 27.8 45.815 28.2418C46.116 28.6836 46.5551 28.9045 47.1323 28.9045C47.66 28.9045 48.0566 28.7851 48.3222 28.5464C48.5878 28.3077 48.756 27.9105 48.8268 27.3547H50.1654Z" fill="white"/>
<path d="M54.1547 26.1737L55.7057 22.1069H57.1984L54.5052 28.5625L54.2609 29.0488C53.9068 29.6829 53.3331 30 52.5398 30L51.9874 29.9679L51.998 28.8991C52.083 28.9134 52.2335 28.9205 52.4495 28.9205C52.832 28.9205 53.1011 28.7566 53.2569 28.4289L53.5332 27.7715L50.8878 22.1069H52.3539L54.1547 26.1737Z" fill="white"/>
<path d="M64.0188 22.1069V29.8878H62.6802V23.1971H60.3111L60.173 26.2057C60.1199 27.1463 60.0048 27.8766 59.8277 28.3968C59.6542 28.9134 59.401 29.291 59.0681 29.5297C58.7353 29.7684 58.2891 29.8878 57.7295 29.8878H57.3896V28.8083L57.6021 28.7923C57.9102 28.7637 58.1474 28.6551 58.3139 28.4663C58.4838 28.2774 58.6113 27.9924 58.6963 27.6112C58.7848 27.2265 58.8468 26.6618 58.8822 25.9172L59.031 22.1069H64.0188Z" fill="white"/>
<path d="M66.9616 25.0835H68.5445C69.1111 25.0835 69.6051 25.1815 70.0266 25.3774C70.448 25.5734 70.7685 25.8513 70.988 26.2111C71.2076 26.5709 71.3173 26.9878 71.3173 27.4616C71.3173 28.1884 71.0712 28.7727 70.579 29.2144C70.0903 29.6562 69.4228 29.8807 68.5764 29.8878H65.6177V22.1069H66.9616V25.0835ZM66.9616 26.1683V28.8083H68.5392C68.9925 28.8083 69.3449 28.6854 69.5963 28.4395C69.8513 28.1902 69.9788 27.8606 69.9788 27.4509C69.9788 27.059 69.8548 26.7491 69.6069 26.521C69.359 26.293 69.0155 26.1755 68.5764 26.1683H66.9616Z" fill="white"/>
<path d="M77.5482 23.1971H75.1366V29.8878H73.8033V23.1971H71.413V22.1069H77.5482V23.1971Z" fill="white"/>
<path d="M83.3063 22.1069H84.6502V29.8878H83.3063V24.346L79.912 29.8878H78.5681V22.1069H79.912V27.654L83.3063 22.1069Z" fill="white"/>
<path d="M87.6036 26.9967V29.8878H86.2597V22.1069H89.2184C90.0825 22.1069 90.7677 22.3331 91.2741 22.7856C91.784 23.238 92.039 23.8366 92.039 24.5812C92.039 25.3436 91.7893 25.9368 91.29 26.3607C90.7943 26.7847 90.0984 26.9967 89.2025 26.9967H87.6036ZM87.6036 25.9118H89.2184C89.6965 25.9118 90.0612 25.7996 90.3126 25.5752C90.5641 25.3471 90.6898 25.0194 90.6898 24.5919C90.6898 24.1715 90.5623 23.8366 90.3073 23.5872C90.0524 23.3342 89.7018 23.2042 89.2556 23.1971H87.6036V25.9118Z" fill="white"/>
<path d="M99.3906 26.2004C99.3906 26.9628 99.2596 27.6326 98.9976 28.2098C98.7355 28.7833 98.3601 29.2251 97.8715 29.5351C97.3863 29.8415 96.8268 29.9947 96.1929 29.9947C95.5661 29.9947 95.0066 29.8415 94.5143 29.5351C94.0257 29.2251 93.6467 28.7851 93.3776 28.2151C93.112 27.6451 92.9774 26.9878 92.9739 26.2432V25.8049C92.9739 25.0461 93.1067 24.3763 93.3723 23.7956C93.6414 23.2149 94.0186 22.7713 94.5037 22.4649C94.9924 22.155 95.5519 22 96.1823 22C96.8126 22 97.3704 22.1532 97.8555 22.4596C98.3442 22.7624 98.7214 23.2006 98.9869 23.7742C99.2525 24.3442 99.3871 25.0087 99.3906 25.7675V26.2004ZM98.0467 25.7943C98.0467 24.9321 97.8839 24.2712 97.5581 23.8116C97.2358 23.352 96.7772 23.1222 96.1823 23.1222C95.6015 23.1222 95.1465 23.352 94.8171 23.8116C94.4913 24.2676 94.3249 24.9143 94.3178 25.7515V26.2004C94.3178 27.0554 94.4825 27.7163 94.8118 28.183C95.1447 28.6497 95.605 28.8831 96.1929 28.8831C96.7878 28.8831 97.2447 28.6551 97.5634 28.1991C97.8856 27.743 98.0467 27.0768 98.0467 26.2004V25.7943Z" fill="white"/>
<path d="M100.729 29.8878V22.1069H103.38C104.255 22.1069 104.92 22.2832 105.377 22.6359C105.834 22.9886 106.062 23.5141 106.062 24.2124C106.062 24.5687 105.967 24.8893 105.776 25.1743C105.584 25.4594 105.305 25.6802 104.936 25.837C105.354 25.951 105.676 26.1666 105.903 26.4836C106.133 26.7971 106.248 27.1748 106.248 27.6166C106.248 28.3469 106.015 28.908 105.547 29.2999C105.083 29.6918 104.417 29.8878 103.55 29.8878H100.729ZM102.073 26.3768V28.8083H103.566C103.987 28.8083 104.317 28.7032 104.554 28.493C104.791 28.2828 104.91 27.9906 104.91 27.6166C104.91 26.8078 104.499 26.3946 103.677 26.3768H102.073ZM102.073 25.3828H103.391C103.808 25.3828 104.134 25.2884 104.368 25.0995C104.605 24.9071 104.724 24.6364 104.724 24.2872C104.724 23.9025 104.614 23.6246 104.394 23.4536C104.178 23.2826 103.84 23.1971 103.38 23.1971H102.073V25.3828Z" fill="white"/>
<path d="M111.921 28.0762H108.925L108.299 29.8878H106.902L109.823 22.1069H111.029L113.956 29.8878H112.553L111.921 28.0762ZM109.303 26.986H111.544L110.423 23.7582L109.303 26.986Z" fill="white"/>
<path d="M119.788 23.1971H117.377V29.8878H116.043V23.1971H113.653V22.1069H119.788V23.1971Z" fill="white"/>
<path d="M122.216 25.0835H123.799C124.365 25.0835 124.859 25.1815 125.281 25.3774C125.702 25.5734 126.023 25.8513 126.242 26.2111C126.462 26.5709 126.572 26.9878 126.572 27.4616C126.572 28.1884 126.325 28.7727 125.833 29.2144C125.345 29.6562 124.677 29.8807 123.831 29.8878H120.872V22.1069H122.216V25.0835ZM122.216 26.1683V28.8083H123.793C124.247 28.8083 124.599 28.6854 124.851 28.4395C125.105 28.1902 125.233 27.8606 125.233 27.4509C125.233 27.059 125.109 26.7491 124.861 26.521C124.613 26.293 124.27 26.1755 123.831 26.1683H122.216Z" fill="white"/>
<path d="M133.636 27.3547C133.558 28.1848 133.254 28.8332 132.723 29.2999C132.192 29.7631 131.485 29.9947 130.603 29.9947C129.987 29.9947 129.444 29.8486 128.973 29.5564C128.505 29.2607 128.144 28.8421 127.889 28.3006C127.634 27.7591 127.501 27.1303 127.491 26.4142V25.6874C127.491 24.9535 127.62 24.3068 127.878 23.7475C128.137 23.1882 128.507 22.7571 128.988 22.4542C129.474 22.1514 130.033 22 130.667 22C131.52 22 132.207 22.2334 132.728 22.7001C133.249 23.1668 133.551 23.8259 133.636 24.6774H132.298C132.234 24.118 132.071 23.7154 131.809 23.4696C131.551 23.2202 131.17 23.0955 130.667 23.0955C130.083 23.0955 129.633 23.3111 129.318 23.7422C129.006 24.1697 128.847 24.7985 128.84 25.6286V26.318C128.84 27.1588 128.988 27.8 129.286 28.2418C129.587 28.6836 130.026 28.9045 130.603 28.9045C131.131 28.9045 131.528 28.7851 131.793 28.5464C132.059 28.3077 132.227 27.9105 132.298 27.3547H133.636Z" fill="white"/>
<path d="M138.656 29.8878V26.9806H137.158L135.665 29.8878H134.226L135.952 26.5798C135.053 26.1523 134.603 25.4522 134.603 24.4796C134.603 23.735 134.846 23.1561 135.331 22.7428C135.82 22.326 136.499 22.114 137.371 22.1069H140V29.8878H138.656ZM135.942 24.5384C135.942 24.9766 136.064 25.3186 136.308 25.5645C136.553 25.8103 136.919 25.9332 137.408 25.9332H138.656V23.1971H137.408C136.912 23.1971 136.544 23.3164 136.303 23.5551C136.062 23.7938 135.942 24.1216 135.942 24.5384Z" fill="white"/>
<path d="M8.11117 37.3875C8.00835 38.0677 7.60641 38.599 6.90536 38.9814C6.20431 39.3609 5.27191 39.5506 4.10816 39.5506C3.29494 39.5506 2.57753 39.4309 1.95593 39.1916C1.33901 38.9493 0.862293 38.6063 0.525789 38.1626C0.189284 37.7188 0.014021 37.2036 0 36.6169V36.0213C0 35.42 0.170589 34.8902 0.511768 34.4319C0.852946 33.9735 1.34135 33.6203 1.97697 33.3722C2.61726 33.1241 3.3557 33 4.19229 33C5.31865 33 6.22534 33.1912 6.91237 33.5736C7.5994 33.956 7.999 34.4961 8.11117 35.1938H6.34452C6.26039 34.7354 6.0454 34.4056 5.69955 34.2042C5.35837 33.9998 4.85595 33.8976 4.19229 33.8976C3.42113 33.8976 2.82757 34.0743 2.41162 34.4275C2.00033 34.7778 1.79002 35.293 1.78067 35.9732V36.538C1.78067 37.227 1.97697 37.7524 2.36955 38.1144C2.76682 38.4764 3.34635 38.6574 4.10816 38.6574C4.80454 38.6574 5.32799 38.5596 5.67852 38.364C6.02904 38.1684 6.25104 37.8429 6.34452 37.3875H8.11117Z" fill="white"/>
<path d="M17.8488 36.4417C17.8488 37.0664 17.6758 37.6152 17.33 38.0881C16.9841 38.5581 16.4887 38.9201 15.8438 39.1741C15.2035 39.4251 14.465 39.5506 13.6284 39.5506C12.8012 39.5506 12.0628 39.4251 11.4131 39.1741C10.7682 38.9201 10.2681 38.5596 9.91287 38.0925C9.56234 37.6254 9.38474 37.0868 9.38007 36.4767V36.1177C9.38007 35.4959 9.55533 34.9471 9.90586 34.4713C10.2611 33.9954 10.7588 33.632 11.3991 33.381C12.0441 33.127 12.7825 33 13.6144 33C14.4463 33 15.1824 33.1255 15.8227 33.3766C16.4677 33.6247 16.9654 33.9838 17.316 34.4537C17.6665 34.9208 17.8441 35.4652 17.8488 36.087V36.4417ZM16.0751 36.1089C16.0751 35.4025 15.8601 34.861 15.4301 34.4844C15.0048 34.1078 14.3996 33.9195 13.6144 33.9195C12.8479 33.9195 12.2474 34.1078 11.8127 34.4844C11.3827 34.8581 11.1631 35.3879 11.1537 36.0739V36.4417C11.1537 37.1423 11.3711 37.6838 11.8057 38.0662C12.245 38.4486 12.8526 38.6398 13.6284 38.6398C14.4136 38.6398 15.0165 38.453 15.4372 38.0794C15.8625 37.7057 16.0751 37.1598 16.0751 36.4417V36.1089Z" fill="white"/>
<path d="M30.9795 37.3875C30.8766 38.0677 30.4747 38.599 29.7737 38.9814C29.0726 39.3609 28.1402 39.5506 26.9765 39.5506C26.1632 39.5506 25.4458 39.4309 24.8242 39.1916C24.2073 38.9493 23.7306 38.6063 23.3941 38.1626C23.0576 37.7188 22.8823 37.2036 22.8683 36.6169V36.0213C22.8683 35.42 23.0389 34.8902 23.3801 34.4319C23.7212 33.9735 24.2096 33.6203 24.8453 33.3722C25.4856 33.1241 26.224 33 27.0606 33C28.1869 33 29.0936 33.1912 29.7807 33.5736C30.4677 33.956 30.8673 34.4961 30.9795 35.1938H29.2128C29.1287 34.7354 28.9137 34.4056 28.5679 34.2042C28.2267 33.9998 27.7243 33.8976 27.0606 33.8976C26.2894 33.8976 25.6959 34.0743 25.2799 34.4275C24.8686 34.7778 24.6583 35.293 24.649 35.9732V36.538C24.649 37.227 24.8453 37.7524 25.2379 38.1144C25.6351 38.4764 26.2147 38.6574 26.9765 38.6574C27.6728 38.6574 28.1963 38.5596 28.5468 38.364C28.8973 38.1684 29.1193 37.8429 29.2128 37.3875H30.9795Z" fill="white"/>
<path d="M40.647 39.4631H38.8803V33.9808H34.3866V39.4631H32.6199V33.0876H40.647V39.4631Z" fill="white"/>
<path d="M48.7581 36.6169H44.5658V38.5785H49.4662V39.4631H42.7922V33.0876H49.4171V33.9808H44.5658V35.7411H48.7581V36.6169Z" fill="white"/>
<path d="M50.8963 33.0876H52.67V38.5785H57.1637V33.0876H58.9374V38.5698H60.1713L60.031 41H58.4046V39.4631H50.8963V33.0876Z" fill="white"/>
<path d="M67.8898 33.0876H69.6635V39.4631H67.8898V34.9223L63.4101 39.4631H61.6365V33.0876H63.4101V37.6327L67.8898 33.0876Z" fill="white"/>
<path d="M77.6274 37.9787H73.6735L72.8463 39.4631H71.0025L74.8583 33.0876H76.4497L80.3125 39.4631H78.4617L77.6274 37.9787ZM74.1713 37.0854H77.1297L75.6505 34.4406L74.1713 37.0854Z" fill="white"/>
<path d="M89.6294 33.0876V39.4631H87.8628V33.9808H84.7361L84.5538 36.4461C84.4837 37.2167 84.3318 37.8152 84.0982 38.2414C83.8691 38.6647 83.535 38.9741 83.0956 39.1697C82.6563 39.3653 82.0674 39.4631 81.329 39.4631H80.8803V38.5785L81.1607 38.5654C81.5674 38.5421 81.8805 38.453 82.1002 38.2983C82.3245 38.1436 82.4927 37.9101 82.6049 37.5977C82.7217 37.2824 82.8035 36.8197 82.8503 36.2096L83.0466 33.0876H89.6294Z" fill="white"/>
<path d="M98.021 33.0876H99.7947V39.4631H98.021V34.9223L93.5413 39.4631H91.7677V33.0876H93.5413V37.6327L98.021 33.0876Z" fill="white"/>
<path d="M109.708 37.3875C109.605 38.0677 109.203 38.599 108.502 38.9814C107.801 39.3609 106.868 39.5506 105.705 39.5506C104.891 39.5506 104.174 39.4309 103.552 39.1916C102.935 38.9493 102.459 38.6063 102.122 38.1626C101.786 37.7188 101.61 37.2036 101.596 36.6169V36.0213C101.596 35.42 101.767 34.8902 102.108 34.4319C102.449 33.9735 102.938 33.6203 103.573 33.3722C104.214 33.1241 104.952 33 105.789 33C106.915 33 107.822 33.1912 108.509 33.5736C109.196 33.956 109.595 34.4961 109.708 35.1938H107.941C107.857 34.7354 107.642 34.4056 107.296 34.2042C106.955 33.9998 106.452 33.8976 105.789 33.8976C105.018 33.8976 104.424 34.0743 104.008 34.4275C103.597 34.7778 103.386 35.293 103.377 35.9732V36.538C103.377 37.227 103.573 37.7524 103.966 38.1144C104.363 38.4764 104.943 38.6574 105.705 38.6574C106.401 38.6574 106.924 38.5596 107.275 38.364C107.625 38.1684 107.847 37.8429 107.941 37.3875H109.708Z" fill="white"/>
<path d="M118.464 33.9808H115.281V39.4631H113.521V33.9808H110.367V33.0876H118.464V33.9808Z" fill="white"/>
<path d="M127.76 36.4417C127.76 37.0664 127.587 37.6152 127.241 38.0881C126.895 38.5581 126.4 38.9201 125.755 39.1741C125.114 39.4251 124.376 39.5506 123.539 39.5506C122.712 39.5506 121.974 39.4251 121.324 39.1741C120.679 38.9201 120.179 38.5596 119.824 38.0925C119.473 37.6254 119.296 37.0868 119.291 36.4767V36.1177C119.291 35.4959 119.466 34.9471 119.817 34.4713C120.172 33.9954 120.67 33.632 121.31 33.381C121.955 33.127 122.693 33 123.525 33C124.357 33 125.093 33.1255 125.734 33.3766C126.379 33.6247 126.876 33.9838 127.227 34.4537C127.577 34.9208 127.755 35.4652 127.76 36.087V36.4417ZM125.986 36.1089C125.986 35.4025 125.771 34.861 125.341 34.4844C124.916 34.1078 124.31 33.9195 123.525 33.9195C122.759 33.9195 122.158 34.1078 121.724 34.4844C121.294 34.8581 121.074 35.3879 121.065 36.0739V36.4417C121.065 37.1423 121.282 37.6838 121.717 38.0662C122.156 38.4486 122.763 38.6398 123.539 38.6398C124.324 38.6398 124.927 38.453 125.348 38.0794C125.773 37.7057 125.986 37.1598 125.986 36.4417V36.1089Z" fill="white"/>
<path d="M131.826 33.0876L134.77 37.9743L137.708 33.0876H140V39.4631H138.233V37.3612L138.409 34.5501L135.394 39.4631H134.125L131.118 34.5545L131.293 37.3612V39.4631H129.526V33.0876H131.826Z" fill="white"/>
</svg>
