<?xml version="1.0" encoding="utf-8"?>
<!-- Generator: Adobe Illustrator 16.0.0, SVG Export Plug-In . SVG Version: 6.00 Build 0)  -->
<!DOCTYPE svg PUBLIC "-//W3C//DTD SVG 1.1//EN" "http://www.w3.org/Graphics/SVG/1.1/DTD/svg11.dtd">
<svg version="1.1" id="Layer_1" xmlns="http://www.w3.org/2000/svg" xmlns:xlink="http://www.w3.org/1999/xlink" x="0px" y="0px"
	 width="487.566px" height="487.604px" viewBox="0 0 487.566 487.604" enable-background="new 0 0 487.566 487.604"
	 xml:space="preserve">
<path fill="#E4052D" d="M243.778,0.001C109.143,0.001,0,109.16,0,243.815c0,134.646,109.142,243.789,243.778,243.789
	c134.646,0,243.788-109.143,243.788-243.789C487.566,109.16,378.424,0.001,243.778,0.001"/>
<path fill="#FFA400" d="M243.795,56.578c-103.4,0-187.24,83.813-187.24,187.223c0,103.399,83.84,187.233,187.24,187.233
	c103.392,0,187.213-83.834,187.213-187.233C431.008,140.391,347.187,56.578,243.795,56.578"/>
<path fill="#FFED00" d="M243.795,113.131c-72.183,0-130.668,58.534-130.668,130.688c0,72.164,58.485,130.661,130.668,130.661
	c72.154,0,130.651-58.497,130.651-130.661C374.446,171.665,315.949,113.131,243.795,113.131"/>
<path fill="#FFFFFF" d="M243.799,169.7c-40.938,0-74.135,33.159-74.135,74.105c0,40.909,33.198,74.107,74.135,74.107
	c40.917,0,74.104-33.198,74.104-74.107C317.902,202.859,284.716,169.7,243.799,169.7"/>
</svg>
