<svg width="950" height="15" viewBox="0 0 950 15" fill="none" xmlns="http://www.w3.org/2000/svg">
<path d="M8.08187 0.163577H9.78706V12.072H8.08187V2.89531L1.71407 12.072H0V0.163577H1.71407V9.34024L8.08187 0.163577Z" fill="white"/>
<path d="M14.0067 0.163577L18.2341 9.88004L22.4616 0.163577H24.673V12.072H22.9678V7.43457L23.1277 2.42912L18.8824 12.072H17.5769L13.3406 2.45365L13.5093 7.43457V12.072H11.8041V0.163577H14.0067Z" fill="white"/>
<path d="M33.9016 6.56761H28.2976V10.7879H34.8075V12.072H26.5924V0.163577H34.7187V1.45583H28.2976V5.28353H33.9016V6.56761Z" fill="white"/>
<path d="M49.9154 6.50218C49.9154 7.66903 49.7023 8.68866 49.276 9.56107C48.8497 10.428 48.2458 11.0905 47.4642 11.5485C46.6827 12.0065 45.7709 12.2356 44.7288 12.2356C43.746 12.2356 42.8638 12.0174 42.0822 11.5812C41.3066 11.145 40.6968 10.5207 40.2527 9.70829C39.8146 8.89586 39.5718 7.94711 39.5244 6.86205H37.6683V12.072H35.9631V0.163577H37.6683V5.62704H39.5156C39.5333 4.50382 39.7553 3.51963 40.1816 2.67448C40.6079 1.82388 41.2148 1.16685 42.0023 0.703381C42.7897 0.23446 43.6927 0 44.711 0C45.7472 0 46.659 0.231734 47.4464 0.695202C48.2398 1.15322 48.8497 1.82116 49.276 2.69902C49.7023 3.57143 49.9154 4.58833 49.9154 5.74973V6.50218ZM48.2191 5.73337C48.2191 4.32116 47.9112 3.23882 47.2955 2.48637C46.6797 1.72846 45.8182 1.34951 44.711 1.34951C43.6335 1.34951 42.7838 1.72846 42.1621 2.48637C41.5464 3.23882 41.2296 4.28571 41.2119 5.62704V6.50218C41.2119 7.87077 41.5227 8.94766 42.1444 9.73282C42.772 10.5125 43.6335 10.9024 44.7288 10.9024C45.8301 10.9024 46.6827 10.5344 47.2866 9.79826C47.8905 9.05671 48.2013 7.99618 48.2191 6.61669V5.73337Z" fill="white"/>
<path d="M59.6858 1.45583H55.5294V12.072H53.8331V1.45583H49.6856V0.163577H59.6858V1.45583Z" fill="white"/>
<path d="M69.7759 8.29335C69.616 9.55289 69.1098 10.5262 68.2572 11.2132C67.4105 11.8948 66.2826 12.2356 64.8734 12.2356C63.3459 12.2356 62.1203 11.7312 61.1966 10.7225C60.2789 9.71374 59.8201 8.36423 59.8201 6.67394V5.5289C59.8201 4.42203 60.0332 3.44875 60.4595 2.60905C60.8917 1.76936 61.5016 1.12595 62.289 0.678844C63.0765 0.226281 63.9883 0 65.0244 0C66.398 0 67.4993 0.354417 68.3282 1.06325C69.1571 1.76663 69.6397 2.74264 69.7759 3.99128H68.0618C67.9138 3.04253 67.5911 2.35551 67.0937 1.93021C66.6023 1.50491 65.9125 1.29226 65.0244 1.29226C63.935 1.29226 63.0794 1.66303 62.4578 2.40458C61.842 3.14613 61.5341 4.2012 61.5341 5.56979V6.72301C61.5341 8.01527 61.8272 9.04308 62.4134 9.80643C62.9995 10.5698 63.8195 10.9515 64.8734 10.9515C65.8208 10.9515 66.5461 10.7552 67.0493 10.3626C67.5585 9.96456 67.896 9.27481 68.0618 8.29335H69.7759Z" fill="white"/>
<path d="M77.7877 12.072V7.43457H74.8037L72.1304 12.072H70.3098L73.3116 7.00109C71.642 6.39586 70.8071 5.31352 70.8071 3.75409C70.8071 2.61996 71.2098 1.73937 72.015 1.11232C72.8261 0.479826 73.9511 0.163577 75.3898 0.163577H79.5018V12.072H77.7877ZM72.5123 3.75409C72.5123 4.47383 72.7551 5.0518 73.2406 5.488C73.732 5.92421 74.4129 6.14504 75.2833 6.15049H77.7877V1.45583H75.3632C74.4395 1.45583 73.732 1.65758 73.2406 2.06107C72.7551 2.46456 72.5123 3.0289 72.5123 3.75409Z" fill="white"/>
<path d="M94.8062 12.072H93.0921V1.45583H86.7155V12.072H85.0103V0.163577H94.8062V12.072Z" fill="white"/>
<path d="M98.5285 7.41003V12.072H96.8233V0.163577H101.592C103.008 0.163577 104.115 0.496183 104.914 1.1614C105.719 1.82661 106.122 2.7072 106.122 3.80316C106.122 4.95911 105.728 5.8506 104.941 6.47764C104.159 7.09924 103.037 7.41003 101.575 7.41003H98.5285ZM98.5285 6.12595H101.592C102.504 6.12595 103.203 5.92966 103.688 5.53708C104.174 5.13904 104.417 4.56652 104.417 3.81952C104.417 3.11069 104.174 2.54362 103.688 2.11832C103.203 1.69302 102.537 1.47219 101.69 1.45583H98.5285V6.12595Z" fill="white"/>
<path d="M117.153 6.50218C117.153 7.66903 116.94 8.68866 116.514 9.56107C116.088 10.428 115.484 11.0905 114.702 11.5485C113.921 12.0065 113.009 12.2356 111.967 12.2356C110.948 12.2356 110.045 12.0065 109.258 11.5485C108.471 11.0851 107.858 10.428 107.42 9.57743C106.987 8.72137 106.765 7.73173 106.754 6.60851V5.74973C106.754 4.60469 106.97 3.59324 107.402 2.71538C107.834 1.83751 108.444 1.16685 109.231 0.703381C110.025 0.23446 110.931 0 111.949 0C112.985 0 113.897 0.231734 114.684 0.695202C115.478 1.15322 116.088 1.82116 116.514 2.69902C116.94 3.57143 117.153 4.58833 117.153 5.74973V6.50218ZM115.457 5.73337C115.457 4.32116 115.149 3.23882 114.533 2.48637C113.918 1.72846 113.056 1.34951 111.949 1.34951C110.871 1.34951 110.022 1.72846 109.4 2.48637C108.784 3.23882 108.468 4.28571 108.45 5.62704V6.50218C108.45 7.87077 108.761 8.94766 109.382 9.73282C110.01 10.5125 110.871 10.9024 111.967 10.9024C113.068 10.9024 113.921 10.5344 114.525 9.79826C115.128 9.05671 115.439 7.99618 115.457 6.61669V5.73337Z" fill="white"/>
<path d="M127.306 1.45583H123.149V12.072H121.453V1.45583H117.305V0.163577H127.306V1.45583Z" fill="white"/>
<path d="M136.286 0.163577H137.991V12.072H136.286V2.89531L129.918 12.072H128.204V0.163577H129.918V9.34024L136.286 0.163577Z" fill="white"/>
<path d="M140.008 12.072V0.163577H144.235C145.639 0.163577 146.692 0.430752 147.397 0.965104C148.107 1.49945 148.463 2.29008 148.463 3.33697C148.463 3.89313 148.291 4.38659 147.948 4.81734C147.604 5.24264 147.136 5.57252 146.544 5.80698C147.243 5.98691 147.794 6.33043 148.196 6.83751C148.605 7.33915 148.809 7.93893 148.809 8.63686C148.809 9.70556 148.433 10.5453 147.681 11.1559C146.929 11.7666 145.866 12.072 144.493 12.072H140.008ZM141.713 6.50218V10.7879H144.528C145.322 10.7879 145.946 10.5998 146.402 10.2236C146.864 9.84188 147.095 9.31843 147.095 8.65322C147.095 7.21919 146.248 6.50218 144.555 6.50218H141.713ZM141.713 5.24264H144.289C145.035 5.24264 145.63 5.07088 146.074 4.72737C146.524 4.38386 146.749 3.91767 146.749 3.32879C146.749 2.67448 146.541 2.20011 146.127 1.90567C145.713 1.60578 145.082 1.45583 144.235 1.45583H141.713V5.24264Z" fill="white"/>
<path d="M160.196 6.50218C160.196 7.66903 159.983 8.68866 159.556 9.56107C159.13 10.428 158.526 11.0905 157.745 11.5485C156.963 12.0065 156.051 12.2356 155.009 12.2356C153.991 12.2356 153.088 12.0065 152.3 11.5485C151.513 11.0851 150.9 10.428 150.462 9.57743C150.03 8.72137 149.808 7.73173 149.796 6.60851V5.74973C149.796 4.60469 150.012 3.59324 150.444 2.71538C150.877 1.83751 151.486 1.16685 152.274 0.703381C153.067 0.23446 153.973 0 154.991 0C156.028 0 156.939 0.231734 157.727 0.695202C158.52 1.15322 159.13 1.82116 159.556 2.69902C159.983 3.57143 160.196 4.58833 160.196 5.74973V6.50218ZM158.5 5.73337C158.5 4.32116 158.192 3.23882 157.576 2.48637C156.96 1.72846 156.099 1.34951 154.991 1.34951C153.914 1.34951 153.064 1.72846 152.443 2.48637C151.827 3.23882 151.51 4.28571 151.492 5.62704V6.50218C151.492 7.87077 151.803 8.94766 152.425 9.73282C153.052 10.5125 153.914 10.9024 155.009 10.9024C156.11 10.9024 156.963 10.5344 157.567 9.79826C158.171 9.05671 158.482 7.99618 158.5 6.61669V5.73337Z" fill="white"/>
<path d="M171.538 12.072H169.824V1.45583H163.447V12.072H161.742V0.163577H171.538V12.072Z" fill="white"/>
<path d="M183.502 6.50218C183.502 7.66903 183.289 8.68866 182.863 9.56107C182.436 10.428 181.833 11.0905 181.051 11.5485C180.269 12.0065 179.358 12.2356 178.316 12.2356C177.297 12.2356 176.394 12.0065 175.607 11.5485C174.819 11.0851 174.207 10.428 173.768 9.57743C173.336 8.72137 173.114 7.73173 173.102 6.60851V5.74973C173.102 4.60469 173.318 3.59324 173.751 2.71538C174.183 1.83751 174.793 1.16685 175.58 0.703381C176.374 0.23446 177.279 0 178.298 0C179.334 0 180.246 0.231734 181.033 0.695202C181.827 1.15322 182.436 1.82116 182.863 2.69902C183.289 3.57143 183.502 4.58833 183.502 5.74973V6.50218ZM181.806 5.73337C181.806 4.32116 181.498 3.23882 180.882 2.48637C180.266 1.72846 179.405 1.34951 178.298 1.34951C177.22 1.34951 176.371 1.72846 175.749 2.48637C175.133 3.23882 174.816 4.28571 174.799 5.62704V6.50218C174.799 7.87077 175.109 8.94766 175.731 9.73282C176.359 10.5125 177.22 10.9024 178.316 10.9024C179.417 10.9024 180.269 10.5344 180.873 9.79826C181.477 9.05671 181.788 7.99618 181.806 6.61669V5.73337Z" fill="white"/>
<path d="M188.326 6.72301H186.754V12.072H185.049V0.163577H186.754V5.41439H188.086L192.606 0.163577H194.729L189.791 5.93784L195.093 12.072H193.006L188.326 6.72301Z" fill="white"/>
<path d="M202.705 8.96401H197.288L196.071 12.072H194.313L199.251 0.163577H200.743L205.689 12.072H203.94L202.705 8.96401ZM197.803 7.67176H202.199L199.997 2.10196L197.803 7.67176Z" fill="white"/>
<path d="M212.973 3.36151C212.973 2.72901 212.721 2.22737 212.218 1.8566C211.721 1.48037 211.019 1.29226 210.113 1.29226C209.356 1.29226 208.719 1.48582 208.204 1.87296C207.695 2.25463 207.44 2.72901 207.44 3.29607H205.735C205.735 2.66358 205.921 2.09651 206.294 1.59487C206.673 1.09324 207.2 0.703381 207.875 0.4253C208.55 0.141767 209.296 0 210.113 0C211.558 0 212.68 0.299891 213.479 0.899673C214.279 1.494 214.678 2.32279 214.678 3.38604C214.678 3.93675 214.495 4.43839 214.128 4.89095C213.761 5.34351 213.248 5.70065 212.591 5.96238C214.113 6.4313 214.874 7.36096 214.874 8.75136C214.874 9.82007 214.441 10.6679 213.577 11.295C212.713 11.922 211.558 12.2356 210.113 12.2356C209.255 12.2356 208.473 12.0965 207.769 11.8184C207.07 11.5349 206.525 11.1341 206.135 10.6161C205.744 10.0981 205.548 9.48201 205.548 8.76772H207.254C207.254 9.39477 207.523 9.91821 208.062 10.3381C208.601 10.7525 209.284 10.9597 210.113 10.9597C211.043 10.9597 211.783 10.7606 212.334 10.3626C212.89 9.96456 213.169 9.43839 213.169 8.78408C213.169 7.38822 212.23 6.67666 210.353 6.6494H208.755V5.35714H210.344C211.209 5.34079 211.863 5.16085 212.307 4.81734C212.751 4.47383 212.973 3.98855 212.973 3.36151Z" fill="white"/>
<path d="M223.188 8.96401H217.77L216.553 12.072H214.795L219.733 0.163577H221.225L226.172 12.072H224.422L223.188 8.96401ZM218.285 7.67176H222.681L220.479 2.10196L218.285 7.67176Z" fill="white"/>
<path d="M236.759 12.072H235.045V6.56761H228.526V12.072H226.821V0.163577H228.526V5.28353H235.045V0.163577H236.759V12.072Z" fill="white"/>
<path d="M246.849 0.163577H248.554V12.072H246.849V2.89531L240.481 12.072H238.767V0.163577H240.481V9.34024L246.849 0.163577Z" fill="white"/>
<path d="M257.339 12.072V7.43457H254.355L251.682 12.072H249.861L252.863 7.00109C251.193 6.39586 250.358 5.31352 250.358 3.75409C250.358 2.61996 250.761 1.73937 251.566 1.11232C252.377 0.479826 253.502 0.163577 254.941 0.163577H259.053V12.072H257.339ZM252.063 3.75409C252.063 4.47383 252.306 5.0518 252.792 5.488C253.283 5.92421 253.964 6.14504 254.834 6.15049H257.339V1.45583H254.914C253.991 1.45583 253.283 1.65758 252.792 2.06107C252.306 2.46456 252.063 3.0289 252.063 3.75409Z" fill="white"/>
<path d="M260.839 11.2786C260.839 11.0169 260.922 10.7988 261.088 10.6243C261.259 10.4498 261.514 10.3626 261.852 10.3626C262.189 10.3626 262.444 10.4498 262.615 10.6243C262.793 10.7988 262.882 11.0169 262.882 11.2786C262.882 11.5294 262.793 11.7394 262.615 11.9084C262.444 12.0774 262.189 12.1619 261.852 12.1619C261.514 12.1619 261.259 12.0774 261.088 11.9084C260.922 11.7394 260.839 11.5294 260.839 11.2786Z" fill="white"/>
<path d="M278.062 12.072H276.348V1.45583H269.971V12.072H268.266V0.163577H278.062V12.072Z" fill="white"/>
<path d="M287.388 6.56761H281.784V10.7879H288.294V12.072H280.079V0.163577H288.205V1.45583H281.784V5.28353H287.388V6.56761Z" fill="white"/>
<path d="M291.031 7.41003V12.072H289.325V0.163577H294.095C295.51 0.163577 296.617 0.496183 297.416 1.1614C298.221 1.82661 298.624 2.7072 298.624 3.80316C298.624 4.95911 298.23 5.8506 297.443 6.47764C296.661 7.09924 295.539 7.41003 294.077 7.41003H291.031ZM291.031 6.12595H294.095C295.006 6.12595 295.705 5.92966 296.19 5.53708C296.676 5.13904 296.919 4.56652 296.919 3.81952C296.919 3.11069 296.676 2.54362 296.19 2.11832C295.705 1.69302 295.039 1.47219 294.192 1.45583H291.031V6.12595Z" fill="white"/>
<path d="M307.018 6.56761H301.414V10.7879H307.924V12.072H299.708V0.163577H307.835V1.45583H301.414V5.28353H307.018V6.56761Z" fill="white"/>
<path d="M320.589 14.9918H318.893V12.072H309.612V15H307.907L307.898 10.7879H308.955C309.511 10.2099 309.952 9.43566 310.278 8.4651C310.61 7.4891 310.817 6.42039 310.9 5.259L311.184 0.163577H318.92V10.7879H320.607L320.589 14.9918ZM310.9 10.7879H317.205V1.45583H312.827L312.641 4.95638C312.564 6.32497 312.365 7.49182 312.045 8.45693C311.732 9.42203 311.35 10.199 310.9 10.7879Z" fill="white"/>
<path d="M334.837 12.072H333.123V1.45583H326.746V12.072H325.041V0.163577H334.837V12.072Z" fill="white"/>
<path d="M338.559 7.41003V12.072H336.854V0.163577H341.623C343.038 0.163577 344.145 0.496183 344.945 1.1614C345.75 1.82661 346.152 2.7072 346.152 3.80316C346.152 4.95911 345.759 5.8506 344.971 6.47764C344.19 7.09924 343.068 7.41003 341.605 7.41003H338.559ZM338.559 6.12595H341.623C342.535 6.12595 343.233 5.92966 343.719 5.53708C344.204 5.13904 344.447 4.56652 344.447 3.81952C344.447 3.11069 344.204 2.54362 343.719 2.11832C343.233 1.69302 342.567 1.47219 341.721 1.45583H338.559V6.12595Z" fill="white"/>
<path d="M355.39 0.163577H357.095V12.072H355.39V2.89531L349.022 12.072H347.308V0.163577H349.022V9.34024L355.39 0.163577Z" fill="white"/>
<path d="M361.315 0.163577L365.542 9.88004L369.77 0.163577H371.981V12.072H370.276V7.43457L370.436 2.42912L366.19 12.072H364.885L360.649 2.45365L360.817 7.43457V12.072H359.112V0.163577H361.315Z" fill="white"/>
<path d="M381.21 6.56761H375.606V10.7879H382.115V12.072H373.9V0.163577H382.027V1.45583H375.606V5.28353H381.21V6.56761Z" fill="white"/>
<path d="M393.085 12.072H391.371V6.56761H384.852V12.072H383.147V0.163577H384.852V5.28353H391.371V0.163577H393.085V12.072Z" fill="white"/>
<path d="M402.331 6.56761H396.727V10.7879H403.237V12.072H395.022V0.163577H403.148V1.45583H396.727V5.28353H402.331V6.56761Z" fill="white"/>
<path d="M414.206 12.072H412.492V6.56761H405.974V12.072H404.268V0.163577H405.974V5.28353H412.492V0.163577H414.206V12.072Z" fill="white"/>
<path d="M424.296 0.163577H426.002V12.072H424.296V2.89531L417.929 12.072H416.215V0.163577H417.929V9.34024L424.296 0.163577Z" fill="white"/>
<path d="M435.328 6.56761H429.724V10.7879H436.234V12.072H428.019V0.163577H436.145V1.45583H429.724V5.28353H435.328V6.56761Z" fill="white"/>
<path d="M439.468 0.163577L443.695 9.88004L447.923 0.163577H450.134V12.072H448.429V7.43457L448.589 2.42912L444.343 12.072H443.038L438.802 2.45365L438.97 7.43457V12.072H437.265V0.163577H439.468Z" fill="white"/>
<path d="M465.412 12.072H463.698V6.56761H457.179V12.072H455.474V0.163577H457.179V5.28353H463.698V0.163577H465.412V12.072Z" fill="white"/>
<path d="M474.658 6.56761H469.054V10.7879H475.564V12.072H467.349V0.163577H475.475V1.45583H469.054V5.28353H474.658V6.56761Z" fill="white"/>
<path d="M486.542 6.50218C486.542 7.66903 486.329 8.68866 485.903 9.56107C485.476 10.428 484.873 11.0905 484.091 11.5485C483.309 12.0065 482.398 12.2356 481.356 12.2356C480.337 12.2356 479.434 12.0065 478.647 11.5485C477.859 11.0851 477.247 10.428 476.808 9.57743C476.376 8.72137 476.154 7.73173 476.142 6.60851V5.74973C476.142 4.60469 476.358 3.59324 476.791 2.71538C477.223 1.83751 477.833 1.16685 478.62 0.703381C479.414 0.23446 480.319 0 481.338 0C482.374 0 483.286 0.231734 484.073 0.695202C484.867 1.15322 485.476 1.82116 485.903 2.69902C486.329 3.57143 486.542 4.58833 486.542 5.74973V6.50218ZM484.846 5.73337C484.846 4.32116 484.538 3.23882 483.922 2.48637C483.306 1.72846 482.445 1.34951 481.338 1.34951C480.26 1.34951 479.411 1.72846 478.789 2.48637C478.173 3.23882 477.856 4.28571 477.839 5.62704V6.50218C477.839 7.87077 478.149 8.94766 478.771 9.73282C479.399 10.5125 480.26 10.9024 481.356 10.9024C482.457 10.9024 483.309 10.5344 483.913 9.79826C484.517 9.05671 484.828 7.99618 484.846 6.61669V5.73337Z" fill="white"/>
<path d="M495.895 1.45583H489.66V5.02181H492.875C494.225 5.03817 495.279 5.35714 496.037 5.97874C496.795 6.60033 497.174 7.44547 497.174 8.51418C497.174 9.58833 496.792 10.4444 496.028 11.0823C495.265 11.7203 494.222 12.0502 492.902 12.072H487.946V0.163577H495.895V1.45583ZM489.66 6.31407V10.7879H492.778C493.624 10.7879 494.282 10.5807 494.749 10.1663C495.223 9.75191 495.46 9.19575 495.46 8.49782C495.46 7.82715 495.232 7.29826 494.776 6.91112C494.326 6.52399 493.684 6.32497 492.849 6.31407H489.66Z" fill="white"/>
<path d="M502.486 4.72737L505.586 0.163577H507.593L503.507 6.0687L507.69 12.072H505.665L502.486 7.42639L499.289 12.072H497.273L501.465 6.0687L497.37 0.163577H499.369L502.486 4.72737Z" fill="white"/>
<path d="M518.296 6.50218C518.296 7.66903 518.082 8.68866 517.656 9.56107C517.23 10.428 516.626 11.0905 515.844 11.5485C515.063 12.0065 514.151 12.2356 513.109 12.2356C512.091 12.2356 511.188 12.0065 510.4 11.5485C509.613 11.0851 509 10.428 508.562 9.57743C508.13 8.72137 507.908 7.73173 507.896 6.60851V5.74973C507.896 4.60469 508.112 3.59324 508.544 2.71538C508.976 1.83751 509.586 1.16685 510.374 0.703381C511.167 0.23446 512.073 0 513.091 0C514.127 0 515.039 0.231734 515.827 0.695202C516.62 1.15322 517.23 1.82116 517.656 2.69902C518.082 3.57143 518.296 4.58833 518.296 5.74973V6.50218ZM516.599 5.73337C516.599 4.32116 516.291 3.23882 515.676 2.48637C515.06 1.72846 514.198 1.34951 513.091 1.34951C512.014 1.34951 511.164 1.72846 510.542 2.48637C509.927 3.23882 509.61 4.28571 509.592 5.62704V6.50218C509.592 7.87077 509.903 8.94766 510.525 9.73282C511.152 10.5125 512.014 10.9024 513.109 10.9024C514.21 10.9024 515.063 10.5344 515.667 9.79826C516.271 9.05671 516.581 7.99618 516.599 6.61669V5.73337Z" fill="white"/>
<path d="M531.094 14.9918H529.398V12.072H520.117V15H518.412L518.403 10.7879H519.46C520.017 10.2099 520.458 9.43566 520.783 8.4651C521.115 7.4891 521.322 6.42039 521.405 5.259L521.689 0.163577H529.425V10.7879H531.112L531.094 14.9918ZM521.405 10.7879H527.711V1.45583H523.332L523.146 4.95638C523.069 6.32497 522.87 7.49182 522.551 8.45693C522.237 9.42203 521.855 10.199 521.405 10.7879Z" fill="white"/>
<path d="M540.199 0.163577H541.904V12.072H540.199V2.89531L533.831 12.072H532.117V0.163577H533.831V9.34024L540.199 0.163577Z" fill="white"/>
<path d="M546.123 0.163577L550.351 9.88004L554.578 0.163577H556.79V12.072H555.085V7.43457L555.244 2.42912L550.999 12.072H549.694L545.457 2.45365L545.626 7.43457V12.072H543.921V0.163577H546.123Z" fill="white"/>
<path d="M568.656 6.50218C568.656 7.66903 568.443 8.68866 568.017 9.56107C567.59 10.428 566.986 11.0905 566.205 11.5485C565.423 12.0065 564.512 12.2356 563.469 12.2356C562.451 12.2356 561.548 12.0065 560.761 11.5485C559.973 11.0851 559.36 10.428 558.922 9.57743C558.49 8.72137 558.268 7.73173 558.256 6.60851V5.74973C558.256 4.60469 558.472 3.59324 558.905 2.71538C559.337 1.83751 559.947 1.16685 560.734 0.703381C561.527 0.23446 562.433 0 563.452 0C564.488 0 565.4 0.231734 566.187 0.695202C566.981 1.15322 567.59 1.82116 568.017 2.69902C568.443 3.57143 568.656 4.58833 568.656 5.74973V6.50218ZM566.96 5.73337C566.96 4.32116 566.652 3.23882 566.036 2.48637C565.42 1.72846 564.559 1.34951 563.452 1.34951C562.374 1.34951 561.525 1.72846 560.903 2.48637C560.287 3.23882 559.97 4.28571 559.953 5.62704V6.50218C559.953 7.87077 560.263 8.94766 560.885 9.73282C561.513 10.5125 562.374 10.9024 563.469 10.9024C564.571 10.9024 565.423 10.5344 566.027 9.79826C566.631 9.05671 566.942 7.99618 566.96 6.61669V5.73337Z" fill="white"/>
<path d="M583.419 12.072H581.705V1.45583H575.328V12.072H573.623V0.163577H583.419V12.072Z" fill="white"/>
<path d="M587.141 7.41003V12.072H585.436V0.163577H590.205C591.62 0.163577 592.727 0.496183 593.527 1.1614C594.332 1.82661 594.734 2.7072 594.734 3.80316C594.734 4.95911 594.341 5.8506 593.553 6.47764C592.772 7.09924 591.65 7.41003 590.187 7.41003H587.141ZM587.141 6.12595H590.205C591.117 6.12595 591.815 5.92966 592.301 5.53708C592.787 5.13904 593.029 4.56652 593.029 3.81952C593.029 3.11069 592.787 2.54362 592.301 2.11832C591.815 1.69302 591.149 1.47219 590.303 1.45583H587.141V6.12595Z" fill="white"/>
<path d="M605.766 6.50218C605.766 7.66903 605.553 8.68866 605.126 9.56107C604.7 10.428 604.096 11.0905 603.315 11.5485C602.533 12.0065 601.621 12.2356 600.579 12.2356C599.561 12.2356 598.658 12.0065 597.871 11.5485C597.083 11.0851 596.47 10.428 596.032 9.57743C595.6 8.72137 595.378 7.73173 595.366 6.60851V5.74973C595.366 4.60469 595.582 3.59324 596.014 2.71538C596.447 1.83751 597.056 1.16685 597.844 0.703381C598.637 0.23446 599.543 0 600.562 0C601.598 0 602.509 0.231734 603.297 0.695202C604.09 1.15322 604.7 1.82116 605.126 2.69902C605.553 3.57143 605.766 4.58833 605.766 5.74973V6.50218ZM604.07 5.73337C604.07 4.32116 603.762 3.23882 603.146 2.48637C602.53 1.72846 601.669 1.34951 600.562 1.34951C599.484 1.34951 598.634 1.72846 598.013 2.48637C597.397 3.23882 597.08 4.28571 597.062 5.62704V6.50218C597.062 7.87077 597.373 8.94766 597.995 9.73282C598.622 10.5125 599.484 10.9024 600.579 10.9024C601.681 10.9024 602.533 10.5344 603.137 9.79826C603.741 9.05671 604.052 7.99618 604.07 6.61669V5.73337Z" fill="white"/>
<path d="M610.589 6.72301H609.017V12.072H607.312V0.163577H609.017V5.41439H610.35L614.87 0.163577H616.993L612.055 5.93784L617.357 12.072H615.27L610.589 6.72301Z" fill="white"/>
<path d="M627.491 6.50218C627.491 7.66903 627.278 8.68866 626.852 9.56107C626.426 10.428 625.822 11.0905 625.04 11.5485C624.259 12.0065 623.347 12.2356 622.305 12.2356C621.286 12.2356 620.383 12.0065 619.596 11.5485C618.809 11.0851 618.196 10.428 617.758 9.57743C617.325 8.72137 617.103 7.73173 617.092 6.60851V5.74973C617.092 4.60469 617.308 3.59324 617.74 2.71538C618.172 1.83751 618.782 1.16685 619.569 0.703381C620.363 0.23446 621.269 0 622.287 0C623.323 0 624.235 0.231734 625.022 0.695202C625.816 1.15322 626.426 1.82116 626.852 2.69902C627.278 3.57143 627.491 4.58833 627.491 5.74973V6.50218ZM625.795 5.73337C625.795 4.32116 625.487 3.23882 624.871 2.48637C624.256 1.72846 623.394 1.34951 622.287 1.34951C621.209 1.34951 620.36 1.72846 619.738 2.48637C619.122 3.23882 618.806 4.28571 618.788 5.62704V6.50218C618.788 7.87077 619.099 8.94766 619.72 9.73282C620.348 10.5125 621.209 10.9024 622.305 10.9024C623.406 10.9024 624.259 10.5344 624.863 9.79826C625.466 9.05671 625.777 7.99618 625.795 6.61669V5.73337Z" fill="white"/>
<path d="M638.896 12.072H637.182V6.56761H630.663V12.072H628.958V0.163577H630.663V5.28353H637.182V0.163577H638.896V12.072Z" fill="white"/>
<path d="M650.345 8.29335C650.185 9.55289 649.679 10.5262 648.826 11.2132C647.979 11.8948 646.852 12.2356 645.442 12.2356C643.915 12.2356 642.689 11.7312 641.766 10.7225C640.848 9.71374 640.389 8.36423 640.389 6.67394V5.5289C640.389 4.42203 640.602 3.44875 641.028 2.60905C641.461 1.76936 642.071 1.12595 642.858 0.678844C643.645 0.226281 644.557 0 645.593 0C646.967 0 648.068 0.354417 648.897 1.06325C649.726 1.76663 650.209 2.74264 650.345 3.99128H648.631C648.483 3.04253 648.16 2.35551 647.663 1.93021C647.171 1.50491 646.482 1.29226 645.593 1.29226C644.504 1.29226 643.648 1.66303 643.027 2.40458C642.411 3.14613 642.103 4.2012 642.103 5.56979V6.72301C642.103 8.01527 642.396 9.04308 642.982 9.80643C643.568 10.5698 644.389 10.9515 645.442 10.9515C646.39 10.9515 647.115 10.7552 647.618 10.3626C648.127 9.96456 648.465 9.27481 648.631 8.29335H650.345Z" fill="white"/>
<path d="M656.03 7.0747L659.005 0.163577H660.986L656.412 10.0845C656.104 10.717 655.817 11.1668 655.55 11.434C655.284 11.6957 654.97 11.8975 654.609 12.0393C654.254 12.1756 653.807 12.2437 653.268 12.2437C652.8 12.2437 652.501 12.2192 652.371 12.1701L652.424 10.9269L653.232 10.9597C653.854 10.9597 654.316 10.6843 654.618 10.1336L654.84 9.70829L655.177 8.98037L650.772 0.163577H652.682L656.03 7.0747Z" fill="white"/>
<path d="M671.235 0.163577V12.072H669.53V1.45583H664.894L664.663 6.17503C664.575 7.75627 664.397 8.94493 664.131 9.741C663.87 10.5371 663.485 11.1232 662.976 11.4995C662.467 11.8702 661.786 12.0611 660.933 12.072H660.374V10.7879L660.729 10.7715C661.28 10.7334 661.703 10.5698 661.999 10.2808C662.295 9.98637 662.52 9.52017 662.674 8.88222C662.828 8.24428 662.937 7.26281 663.003 5.93784L663.269 0.163577H671.235Z" fill="white"/>
<path d="M674.896 5.02181H678.111C679.46 5.03817 680.514 5.35714 681.272 5.97874C682.03 6.60033 682.409 7.44547 682.409 8.51418C682.409 9.58833 682.027 10.4444 681.263 11.0823C680.5 11.7203 679.458 12.0502 678.137 12.072H673.19V0.163577H674.896V5.02181ZM674.896 6.31407V10.7879H678.013C678.86 10.7879 679.517 10.5807 679.984 10.1663C680.458 9.75191 680.695 9.19575 680.695 8.49782C680.695 7.82715 680.467 7.29826 680.011 6.91112C679.561 6.52399 678.919 6.32497 678.084 6.31407H674.896Z" fill="white"/>
<path d="M690.128 1.45583H685.971V12.072H684.275V1.45583H680.128V0.163577H690.128V1.45583Z" fill="white"/>
<path d="M699.108 0.163577H700.813V12.072H699.108V2.89531L692.74 12.072H691.026V0.163577H692.74V9.34024L699.108 0.163577Z" fill="white"/>
<path d="M704.535 7.41003V12.072H702.83V0.163577H707.599C709.014 0.163577 710.122 0.496183 710.921 1.1614C711.726 1.82661 712.129 2.7072 712.129 3.80316C712.129 4.95911 711.735 5.8506 710.947 6.47764C710.166 7.09924 709.044 7.41003 707.581 7.41003H704.535ZM704.535 6.12595H707.599C708.511 6.12595 709.21 5.92966 709.695 5.53708C710.181 5.13904 710.423 4.56652 710.423 3.81952C710.423 3.11069 710.181 2.54362 709.695 2.11832C709.21 1.69302 708.544 1.47219 707.697 1.45583H704.535V6.12595Z" fill="white"/>
<path d="M723.16 6.50218C723.16 7.66903 722.947 8.68866 722.521 9.56107C722.094 10.428 721.49 11.0905 720.709 11.5485C719.927 12.0065 719.016 12.2356 717.974 12.2356C716.955 12.2356 716.052 12.0065 715.265 11.5485C714.477 11.0851 713.865 10.428 713.426 9.57743C712.994 8.72137 712.772 7.73173 712.76 6.60851V5.74973C712.76 4.60469 712.976 3.59324 713.409 2.71538C713.841 1.83751 714.451 1.16685 715.238 0.703381C716.032 0.23446 716.937 0 717.956 0C718.992 0 719.904 0.231734 720.691 0.695202C721.485 1.15322 722.094 1.82116 722.521 2.69902C722.947 3.57143 723.16 4.58833 723.16 5.74973V6.50218ZM721.464 5.73337C721.464 4.32116 721.156 3.23882 720.54 2.48637C719.924 1.72846 719.063 1.34951 717.956 1.34951C716.878 1.34951 716.029 1.72846 715.407 2.48637C714.791 3.23882 714.474 4.28571 714.457 5.62704V6.50218C714.457 7.87077 714.767 8.94766 715.389 9.73282C716.017 10.5125 716.878 10.9024 717.974 10.9024C719.075 10.9024 719.927 10.5344 720.531 9.79826C721.135 9.05671 721.446 7.99618 721.464 6.61669V5.73337Z" fill="white"/>
<path d="M724.627 12.072V0.163577H728.854C730.257 0.163577 731.311 0.430752 732.016 0.965104C732.726 1.49945 733.081 2.29008 733.081 3.33697C733.081 3.89313 732.91 4.38659 732.566 4.81734C732.223 5.24264 731.755 5.57252 731.163 5.80698C731.862 5.98691 732.412 6.33043 732.815 6.83751C733.224 7.33915 733.428 7.93893 733.428 8.63686C733.428 9.70556 733.052 10.5453 732.3 11.1559C731.548 11.7666 730.485 12.072 729.112 12.072H724.627ZM726.332 6.50218V10.7879H729.147C729.94 10.7879 730.565 10.5998 731.021 10.2236C731.483 9.84188 731.714 9.31843 731.714 8.65322C731.714 7.21919 730.867 6.50218 729.174 6.50218H726.332ZM726.332 5.24264H728.907C729.653 5.24264 730.248 5.07088 730.692 4.72737C731.142 4.38386 731.367 3.91767 731.367 3.32879C731.367 2.67448 731.16 2.20011 730.746 1.90567C730.331 1.60578 729.701 1.45583 728.854 1.45583H726.332V5.24264Z" fill="white"/>
<path d="M742.008 8.96401H736.591L735.374 12.072H733.615L738.553 0.163577H740.045L744.992 12.072H743.243L742.008 8.96401ZM737.106 7.67176H741.502L739.299 2.10196L737.106 7.67176Z" fill="white"/>
<path d="M753.422 1.45583H749.265V12.072H747.569V1.45583H743.421V0.163577H753.422V1.45583Z" fill="white"/>
<path d="M756.043 5.02181H759.258C760.607 5.03817 761.661 5.35714 762.419 5.97874C763.177 6.60033 763.556 7.44547 763.556 8.51418C763.556 9.58833 763.174 10.4444 762.41 11.0823C761.647 11.7203 760.604 12.0502 759.284 12.072H754.337V0.163577H756.043V5.02181ZM756.043 6.31407V10.7879H759.16C760.006 10.7879 760.664 10.5807 761.131 10.1663C761.605 9.75191 761.842 9.19575 761.842 8.49782C761.842 7.82715 761.614 7.29826 761.158 6.91112C760.708 6.52399 760.066 6.32497 759.231 6.31407H756.043Z" fill="white"/>
<path d="M774.232 8.29335C774.072 9.55289 773.566 10.5262 772.714 11.2132C771.867 11.8948 770.739 12.2356 769.33 12.2356C767.802 12.2356 766.577 11.7312 765.653 10.7225C764.735 9.71374 764.276 8.36423 764.276 6.67394V5.5289C764.276 4.42203 764.49 3.44875 764.916 2.60905C765.348 1.76936 765.958 1.12595 766.745 0.678844C767.533 0.226281 768.445 0 769.481 0C770.854 0 771.956 0.354417 772.785 1.06325C773.614 1.76663 774.096 2.74264 774.232 3.99128H772.518C772.37 3.04253 772.047 2.35551 771.55 1.93021C771.059 1.50491 770.369 1.29226 769.481 1.29226C768.391 1.29226 767.536 1.66303 766.914 2.40458C766.298 3.14613 765.991 4.2012 765.991 5.56979V6.72301C765.991 8.01527 766.284 9.04308 766.87 9.80643C767.456 10.5698 768.276 10.9515 769.33 10.9515C770.277 10.9515 771.002 10.7552 771.506 10.3626C772.015 9.96456 772.352 9.27481 772.518 8.29335H774.232Z" fill="white"/>
<path d="M782.244 12.072V7.43457H779.26L776.587 12.072H774.766L777.768 7.00109C776.098 6.39586 775.264 5.31352 775.264 3.75409C775.264 2.61996 775.666 1.73937 776.471 1.11232C777.282 0.479826 778.407 0.163577 779.846 0.163577H783.958V12.072H782.244ZM776.969 3.75409C776.969 4.47383 777.211 5.0518 777.697 5.488C778.188 5.92421 778.869 6.14504 779.74 6.15049H782.244V1.45583H779.82C778.896 1.45583 778.188 1.65758 777.697 2.06107C777.211 2.46456 776.969 3.0289 776.969 3.75409Z" fill="white"/>
<path d="M798.898 8.29335C798.739 9.55289 798.232 10.5262 797.38 11.2132C796.533 11.8948 795.405 12.2356 793.996 12.2356C792.469 12.2356 791.243 11.7312 790.319 10.7225C789.402 9.71374 788.943 8.36423 788.943 6.67394V5.5289C788.943 4.42203 789.156 3.44875 789.582 2.60905C790.014 1.76936 790.624 1.12595 791.412 0.678844C792.199 0.226281 793.111 0 794.147 0C795.521 0 796.622 0.354417 797.451 1.06325C798.28 1.76663 798.762 2.74264 798.898 3.99128H797.184C797.036 3.04253 796.714 2.35551 796.216 1.93021C795.725 1.50491 795.035 1.29226 794.147 1.29226C793.058 1.29226 792.202 1.66303 791.58 2.40458C790.965 3.14613 790.657 4.2012 790.657 5.56979V6.72301C790.657 8.01527 790.95 9.04308 791.536 9.80643C792.122 10.5698 792.942 10.9515 793.996 10.9515C794.943 10.9515 795.669 10.7552 796.172 10.3626C796.681 9.96456 797.019 9.27481 797.184 8.29335H798.898Z" fill="white"/>
<path d="M810.09 6.50218C810.09 7.66903 809.877 8.68866 809.45 9.56107C809.024 10.428 808.42 11.0905 807.639 11.5485C806.857 12.0065 805.945 12.2356 804.903 12.2356C803.885 12.2356 802.982 12.0065 802.194 11.5485C801.407 11.0851 800.794 10.428 800.356 9.57743C799.924 8.72137 799.702 7.73173 799.69 6.60851V5.74973C799.69 4.60469 799.906 3.59324 800.338 2.71538C800.77 1.83751 801.38 1.16685 802.168 0.703381C802.961 0.23446 803.867 0 804.885 0C805.922 0 806.833 0.231734 807.621 0.695202C808.414 1.15322 809.024 1.82116 809.45 2.69902C809.877 3.57143 810.09 4.58833 810.09 5.74973V6.50218ZM808.394 5.73337C808.394 4.32116 808.086 3.23882 807.47 2.48637C806.854 1.72846 805.993 1.34951 804.885 1.34951C803.808 1.34951 802.958 1.72846 802.337 2.48637C801.721 3.23882 801.404 4.28571 801.386 5.62704V6.50218C801.386 7.87077 801.697 8.94766 802.319 9.73282C802.946 10.5125 803.808 10.9024 804.903 10.9024C806.004 10.9024 806.857 10.5344 807.461 9.79826C808.065 9.05671 808.376 7.99618 808.394 6.61669V5.73337Z" fill="white"/>
<path d="M824.488 8.29335C824.328 9.55289 823.822 10.5262 822.97 11.2132C822.123 11.8948 820.995 12.2356 819.586 12.2356C818.058 12.2356 816.833 11.7312 815.909 10.7225C814.991 9.71374 814.533 8.36423 814.533 6.67394V5.5289C814.533 4.42203 814.746 3.44875 815.172 2.60905C815.604 1.76936 816.214 1.12595 817.001 0.678844C817.789 0.226281 818.701 0 819.737 0C821.111 0 822.212 0.354417 823.041 1.06325C823.87 1.76663 824.352 2.74264 824.488 3.99128H822.774C822.626 3.04253 822.304 2.35551 821.806 1.93021C821.315 1.50491 820.625 1.29226 819.737 1.29226C818.647 1.29226 817.792 1.66303 817.17 2.40458C816.554 3.14613 816.247 4.2012 816.247 5.56979V6.72301C816.247 8.01527 816.54 9.04308 817.126 9.80643C817.712 10.5698 818.532 10.9515 819.586 10.9515C820.533 10.9515 821.259 10.7552 821.762 10.3626C822.271 9.96456 822.608 9.27481 822.774 8.29335H824.488Z" fill="white"/>
<path d="M835.609 12.072H833.895V1.45583H827.518V12.072H825.813V0.163577H835.609V12.072Z" fill="white"/>
<path d="M844.935 6.56761H839.331V10.7879H845.841V12.072H837.626V0.163577H845.752V1.45583H839.331V5.28353H844.935V6.56761Z" fill="white"/>
<path d="M846.925 0.163577H848.639V10.7879H855.016V0.163577H856.721V10.7552H858.08L857.92 14.9427H856.384V12.072H846.925V0.163577Z" fill="white"/>
<path d="M867.238 0.163577H868.943V12.072H867.238V2.89531L860.87 12.072H859.156V0.163577H860.87V9.34024L867.238 0.163577Z" fill="white"/>
<path d="M878.26 8.96401H872.843L871.626 12.072H869.868L874.806 0.163577H876.298L881.244 12.072H879.495L878.26 8.96401ZM873.358 7.67176H877.754L875.552 2.10196L873.358 7.67176Z" fill="white"/>
<path d="M891.832 0.163577V12.072H890.127V1.45583H885.491L885.26 6.17503C885.171 7.75627 884.993 8.94493 884.727 9.741C884.466 10.5371 884.082 11.1232 883.572 11.4995C883.063 11.8702 882.382 12.0611 881.53 12.072H880.97V10.7879L881.325 10.7715C881.876 10.7334 882.299 10.5698 882.595 10.2808C882.891 9.98637 883.116 9.52017 883.27 8.88222C883.424 8.24428 883.534 7.26281 883.599 5.93784L883.865 0.163577H891.832Z" fill="white"/>
<path d="M901.993 0.163577H903.698V12.072H901.993V2.89531L895.625 12.072H893.911V0.163577H895.625V9.34024L901.993 0.163577Z" fill="white"/>
<path d="M915.227 8.29335C915.067 9.55289 914.561 10.5262 913.708 11.2132C912.862 11.8948 911.734 12.2356 910.325 12.2356C908.797 12.2356 907.571 11.7312 906.648 10.7225C905.73 9.71374 905.271 8.36423 905.271 6.67394V5.5289C905.271 4.42203 905.484 3.44875 905.911 2.60905C906.343 1.76936 906.953 1.12595 907.74 0.678844C908.528 0.226281 909.439 0 910.476 0C911.849 0 912.95 0.354417 913.779 1.06325C914.608 1.76663 915.091 2.74264 915.227 3.99128H913.513C913.365 3.04253 913.042 2.35551 912.545 1.93021C912.053 1.50491 911.364 1.29226 910.476 1.29226C909.386 1.29226 908.531 1.66303 907.909 2.40458C907.293 3.14613 906.985 4.2012 906.985 5.56979V6.72301C906.985 8.01527 907.278 9.04308 907.865 9.80643C908.451 10.5698 909.271 10.9515 910.325 10.9515C911.272 10.9515 911.997 10.7552 912.5 10.3626C913.01 9.96456 913.347 9.27481 913.513 8.29335H915.227Z" fill="white"/>
<path d="M925.139 1.45583H920.983V12.072H919.287V1.45583H915.139V0.163577H925.139V1.45583Z" fill="white"/>
<path d="M935.665 6.50218C935.665 7.66903 935.452 8.68866 935.025 9.56107C934.599 10.428 933.995 11.0905 933.213 11.5485C932.432 12.0065 931.52 12.2356 930.478 12.2356C929.46 12.2356 928.557 12.0065 927.769 11.5485C926.982 11.0851 926.369 10.428 925.931 9.57743C925.499 8.72137 925.277 7.73173 925.265 6.60851V5.74973C925.265 4.60469 925.481 3.59324 925.913 2.71538C926.345 1.83751 926.955 1.16685 927.743 0.703381C928.536 0.23446 929.442 0 930.46 0C931.496 0 932.408 0.231734 933.196 0.695202C933.989 1.15322 934.599 1.82116 935.025 2.69902C935.452 3.57143 935.665 4.58833 935.665 5.74973V6.50218ZM933.968 5.73337C933.968 4.32116 933.66 3.23882 933.045 2.48637C932.429 1.72846 931.567 1.34951 930.46 1.34951C929.383 1.34951 928.533 1.72846 927.911 2.48637C927.296 3.23882 926.979 4.28571 926.961 5.62704V6.50218C926.961 7.87077 927.272 8.94766 927.894 9.73282C928.521 10.5125 929.383 10.9024 930.478 10.9024C931.579 10.9024 932.432 10.5344 933.036 9.79826C933.64 9.05671 933.951 7.99618 933.968 6.61669V5.73337Z" fill="white"/>
<path d="M939.334 0.163577L943.561 9.88004L947.789 0.163577H950V12.072H948.295V7.43457L948.455 2.42912L944.209 12.072H942.904L938.668 2.45365L938.836 7.43457V12.072H937.131V0.163577H939.334Z" fill="white"/>
</svg>
