<svg width="316" height="36" viewBox="0 0 316 36" fill="none" xmlns="http://www.w3.org/2000/svg">
<path d="M1.11097 10.7844L5.02302 1.15268C5.27515 0.54052 5.55881 0.234442 5.87398 0.234442C6.07884 0.234442 6.2443 0.345151 6.37037 0.566569C6.49644 0.774962 6.55947 1.0615 6.55947 1.42619V13.3632H5.4485V2.87192L1.45372 12.738C1.35917 12.9595 1.24492 13.1353 1.11097 13.2655C0.984906 13.3958 0.850958 13.4609 0.709132 13.4609C0.488513 13.4609 0.31517 13.3502 0.189102 13.1288C0.063034 12.8943 0 12.5883 0 12.2105V0.332126H1.11097V10.7844Z" fill="white"/>
<path d="M9.01816 0.234442C9.28606 0.234442 9.5185 0.507958 9.71548 1.05499L12.1974 7.85383L14.6321 1.17221C14.7582 0.833573 14.8803 0.592618 14.9985 0.449348C15.1167 0.306077 15.2585 0.234442 15.424 0.234442C15.6052 0.234442 15.751 0.345151 15.8613 0.566569C15.9795 0.774962 16.0386 1.05499 16.0386 1.40665V13.3632H14.9749V3.10636L12.7884 9.12372C12.6466 9.51446 12.4456 9.70983 12.1856 9.70983C12.0596 9.70983 11.9374 9.65122 11.8192 9.534C11.701 9.41677 11.6065 9.25397 11.5356 9.04557L9.42001 3.18451V13.3632H8.35631V1.42619C8.35631 1.04848 8.4154 0.755426 8.53359 0.547033C8.65178 0.338639 8.8133 0.234442 9.01816 0.234442Z" fill="white"/>
<path d="M18.4349 13.3632C18.2537 13.3632 18.1079 13.2786 17.9976 13.1092C17.8873 12.9399 17.8322 12.6859 17.8322 12.3473V0.332126H22.7961V1.99276H18.9668V5.78292H21.8506V7.46309H18.9668V11.6831H23.0798V13.3632H18.4349Z" fill="white"/>
<path d="M31.4056 13.6954C30.8698 13.6954 30.3655 13.5391 29.8928 13.2265C29.4279 12.9139 29.0182 12.4841 28.6636 11.937C28.309 11.377 28.0215 10.7192 27.8008 9.96381C27.5802 9.19536 27.4463 8.36178 27.399 7.46309H25.638V13.3632H24.5034V0.332126H25.638V5.78292H27.4345C27.5054 4.94934 27.6551 4.18089 27.8836 3.47756C28.1199 2.76121 28.4154 2.14906 28.77 1.6411C29.1246 1.12011 29.5264 0.716351 29.9755 0.42981C30.4246 0.14327 30.9013 0 31.4056 0C31.965 0 32.489 0.175832 32.9775 0.527496C33.466 0.866135 33.8915 1.34153 34.2539 1.95369C34.6164 2.56584 34.9 3.28871 35.1049 4.12228C35.3176 4.95585 35.424 5.86106 35.424 6.83791C35.424 7.81475 35.3176 8.72647 35.1049 9.57307C34.9 10.4066 34.6164 11.1295 34.2539 11.7417C33.8994 12.3538 33.4778 12.8357 32.9893 13.1874C32.5008 13.526 31.9729 13.6954 31.4056 13.6954ZM31.4056 11.937C31.8074 11.937 32.1817 11.8133 32.5284 11.5658C32.8751 11.3053 33.1745 10.9537 33.4266 10.5108C33.6788 10.055 33.8757 9.51446 34.0176 8.88928C34.1673 8.25107 34.2421 7.56077 34.2421 6.81837C34.2421 6.04992 34.1712 5.3531 34.0294 4.72792C33.8876 4.10274 33.6906 3.56874 33.4384 3.1259C33.1863 2.67004 32.8869 2.31838 32.5402 2.07091C32.1935 1.82344 31.8153 1.69971 31.4056 1.69971C30.9959 1.69971 30.6177 1.82344 30.271 2.07091C29.9243 2.31838 29.6249 2.67004 29.3727 3.1259C29.1206 3.56874 28.9236 4.10274 28.7818 4.72792C28.64 5.3531 28.5691 6.04992 28.5691 6.81837C28.5691 7.56077 28.64 8.25107 28.7818 8.88928C28.9315 9.51446 29.1324 10.055 29.3846 10.5108C29.6367 10.9537 29.9361 11.3053 30.2828 11.5658C30.6295 11.8133 31.0037 11.937 31.4056 11.937Z" fill="white"/>
<path d="M38.2784 1.97322H35.4537V0.332126H42.2259V1.97322H39.4131V13.3632H38.2784V1.97322Z" fill="white"/>
<path d="M48.7592 3.73154C48.4913 3.09334 48.1486 2.5984 47.731 2.24674C47.3134 1.88205 46.8682 1.69971 46.3954 1.69971C45.9542 1.69971 45.5523 1.82344 45.1899 2.07091C44.8275 2.31838 44.5162 2.67004 44.2562 3.1259C44.0041 3.56874 43.8071 4.10926 43.6653 4.74746C43.5234 5.37264 43.4525 6.07597 43.4525 6.85744C43.4525 7.62589 43.5195 8.32271 43.6534 8.94789C43.7953 9.56005 43.9923 10.0875 44.2444 10.5304C44.5044 10.9732 44.8117 11.3184 45.1663 11.5658C45.5208 11.8003 45.9187 11.9175 46.36 11.9175C46.817 11.9175 47.2346 11.7677 47.6128 11.4681C47.991 11.1686 48.3771 10.6736 48.771 9.98334L49.5629 11.0774C49.4211 11.4291 49.2319 11.7677 48.9956 12.0933C48.7592 12.4059 48.4952 12.6794 48.2037 12.9139C47.9122 13.1483 47.6049 13.3307 47.2818 13.4609C46.9667 13.6042 46.6594 13.6758 46.36 13.6758C45.7533 13.6758 45.1978 13.513 44.6935 13.1874C44.1892 12.8618 43.7559 12.3994 43.3934 11.8003C43.031 11.2011 42.7513 10.4848 42.5543 9.65122C42.3573 8.81764 42.2588 7.89941 42.2588 6.89652C42.2588 5.90665 42.3612 4.98842 42.5661 4.14182C42.771 3.29522 43.0546 2.57236 43.4171 1.97322C43.7874 1.36107 44.2247 0.885671 44.729 0.547033C45.2332 0.195369 45.7848 0.0195366 46.3836 0.0195366C46.7067 0.0195366 47.0218 0.0846595 47.3291 0.214905C47.6443 0.332127 47.9398 0.501446 48.2155 0.722864C48.4913 0.944282 48.7434 1.2178 48.9719 1.54341C49.2083 1.856 49.4053 2.20767 49.5629 2.5984L48.7592 3.73154Z" fill="white"/>
<path d="M49.9852 13.3632C50.127 12.7641 50.2807 12.1715 50.4462 11.5854C50.6116 10.9993 50.7771 10.4587 50.9425 9.96381C51.108 9.46887 51.2695 9.02604 51.4271 8.6353C51.5926 8.24456 51.7423 7.93197 51.8762 7.69753C51.3877 7.39796 51.0135 6.94862 50.7534 6.34948C50.5013 5.75035 50.3752 5.02098 50.3752 4.16135C50.3752 2.98914 50.6116 2.05788 51.0844 1.36758C51.565 0.677278 52.2426 0.332126 53.1172 0.332126H55.6346V13.3632H54.5355V8.02966H53.4363C53.1133 8.02966 52.8296 8.32271 52.5854 8.90882C52.349 9.49492 52.1126 10.1722 51.8762 10.9407C51.6399 11.6961 51.4114 12.5036 51.1907 13.3632H49.9852ZM54.5355 6.44717V1.95369H53.0463C52.5735 1.95369 52.2032 2.15557 51.9353 2.55933C51.6674 2.95007 51.5335 3.50361 51.5335 4.21997C51.5335 4.92329 51.6714 5.47033 51.9472 5.86106C52.2229 6.2518 52.5972 6.44717 53.0699 6.44717H54.5355Z" fill="white"/>
<path d="M66.1152 0.332126V13.3632H64.9806V2.0123H60.7022V13.3632H59.5675V0.332126H66.1152Z" fill="white"/>
<path d="M67.9239 0.332126H70.4176C70.9534 0.332126 71.3947 0.45586 71.7414 0.703328C72.0959 0.950795 72.3756 1.26338 72.5805 1.6411C72.7932 2.01881 72.939 2.44211 73.0178 2.91099C73.1045 3.37988 73.1478 3.83574 73.1478 4.27858C73.1478 4.92981 73.0808 5.50289 72.9469 5.99782C72.8129 6.49276 72.6278 6.90954 72.3914 7.24818C72.155 7.5738 71.8714 7.82126 71.5404 7.99058C71.2174 8.1599 70.8628 8.24456 70.4767 8.24456H69.0466V13.3632H67.9239V0.332126ZM70.4649 6.64254C70.9534 6.64254 71.3277 6.44066 71.5877 6.03689C71.8556 5.62011 71.9895 5.04703 71.9895 4.31765C71.9895 3.57525 71.8517 2.99565 71.5759 2.57887C71.308 2.14906 70.9377 1.93415 70.4649 1.93415H69.0466V6.64254H70.4649Z" fill="white"/>
<path d="M78.3202 11.937C78.7536 11.937 79.1515 11.8133 79.5139 11.5658C79.8764 11.3053 80.1876 10.9537 80.4476 10.5108C80.7076 10.055 80.9085 9.51446 81.0504 8.88928C81.2001 8.25107 81.2749 7.56077 81.2749 6.81837C81.2749 6.04992 81.204 5.3531 81.0622 4.72792C80.9204 4.10274 80.7194 3.56874 80.4594 3.1259C80.1994 2.67004 79.8882 2.31838 79.5257 2.07091C79.1633 1.82344 78.7614 1.69971 78.3202 1.69971C77.879 1.69971 77.4771 1.82344 77.1147 2.07091C76.7522 2.31838 76.441 2.67004 76.181 3.1259C75.921 3.56874 75.7201 4.10274 75.5782 4.72792C75.4364 5.3531 75.3655 6.04992 75.3655 6.81837C75.3655 7.56077 75.4364 8.25107 75.5782 8.88928C75.7279 9.51446 75.9328 10.055 76.1928 10.5108C76.4528 10.9537 76.7641 11.3053 77.1265 11.5658C77.489 11.8133 77.8869 11.937 78.3202 11.937ZM78.3202 13.6954C77.7293 13.6954 77.1777 13.526 76.6656 13.1874C76.1613 12.8357 75.724 12.3538 75.3537 11.7417C74.9912 11.1295 74.7036 10.4066 74.4909 9.57307C74.286 8.72647 74.1836 7.81475 74.1836 6.83791C74.1836 5.86106 74.29 4.95585 74.5027 4.12228C74.7155 3.28871 75.007 2.56584 75.3773 1.95369C75.7476 1.34153 76.1849 0.866135 76.6892 0.527496C77.1935 0.175832 77.7371 0 78.3202 0C78.9112 0 79.4588 0.175832 79.963 0.527496C80.4673 0.866135 80.9046 1.34153 81.2749 1.95369C81.6453 2.56584 81.9328 3.28871 82.1377 4.12228C82.3504 4.95585 82.4568 5.86106 82.4568 6.83791C82.4568 7.81475 82.3504 8.72647 82.1377 9.57307C81.9328 10.4066 81.6453 11.1295 81.2749 11.7417C80.9125 12.3538 80.4752 12.8357 79.963 13.1874C79.4588 13.526 78.9112 13.6954 78.3202 13.6954Z" fill="white"/>
<path d="M85.3115 1.97322H82.4868V0.332126H89.259V1.97322H86.4461V13.3632H85.3115V1.97322Z" fill="white"/>
<path d="M91.553 10.7844L95.465 1.15268C95.7172 0.54052 96.0008 0.234442 96.316 0.234442C96.5209 0.234442 96.6863 0.345151 96.8124 0.566569C96.9385 0.774962 97.0015 1.0615 97.0015 1.42619V13.3632H95.8905V2.87192L91.8957 12.738C91.8012 12.9595 91.6869 13.1353 91.553 13.2655C91.4269 13.3958 91.293 13.4609 91.1512 13.4609C90.9305 13.4609 90.7572 13.3502 90.6311 13.1288C90.5051 12.8943 90.442 12.5883 90.442 12.2105V0.332126H91.553V10.7844Z" fill="white"/>
<path d="M98.7983 0.332126H101.469C101.879 0.332126 102.234 0.423298 102.533 0.605642C102.833 0.774962 103.081 1.0094 103.278 1.30897C103.475 1.60854 103.62 1.9602 103.715 2.36396C103.817 2.76772 103.869 3.19754 103.869 3.6534C103.869 4.07018 103.825 4.44138 103.739 4.767C103.652 5.09261 103.546 5.37915 103.42 5.62662C103.293 5.86106 103.152 6.04992 102.994 6.19319C102.844 6.33646 102.706 6.42763 102.58 6.46671C102.738 6.50578 102.915 6.59044 103.112 6.72069C103.309 6.83791 103.494 7.02025 103.668 7.26772C103.841 7.51519 103.987 7.8408 104.105 8.24456C104.223 8.6353 104.282 9.12372 104.282 9.70983C104.282 10.4132 104.204 10.9993 104.046 11.4681C103.896 11.924 103.687 12.2952 103.42 12.5817C103.16 12.8683 102.848 13.0702 102.486 13.1874C102.123 13.3046 101.737 13.3632 101.328 13.3632H98.7983V0.332126ZM101.268 11.7417C101.473 11.7417 101.686 11.7221 101.907 11.6831C102.127 11.644 102.328 11.5528 102.509 11.4095C102.699 11.2663 102.852 11.0579 102.97 10.7844C103.089 10.4978 103.148 10.1071 103.148 9.61214C103.148 9.14326 103.089 8.76555 102.97 8.479C102.86 8.19246 102.714 7.96453 102.533 7.79521C102.36 7.62589 102.167 7.51519 101.954 7.46309C101.741 7.39796 101.536 7.3654 101.339 7.3654H99.8975V11.7417H101.268ZM101.304 5.76338C101.477 5.76338 101.651 5.73082 101.824 5.66569C101.997 5.58755 102.155 5.47033 102.297 5.31403C102.439 5.15774 102.553 4.95585 102.639 4.70839C102.726 4.46092 102.769 4.16135 102.769 3.80969C102.769 3.41895 102.726 3.10636 102.639 2.87192C102.553 2.62445 102.439 2.4356 102.297 2.30535C102.155 2.16208 101.997 2.07091 101.824 2.03183C101.651 1.97974 101.477 1.95369 101.304 1.95369H99.8975V5.76338H101.304Z" fill="white"/>
<path d="M109.587 11.937C110.02 11.937 110.418 11.8133 110.781 11.5658C111.143 11.3053 111.454 10.9537 111.715 10.5108C111.975 10.055 112.175 9.51446 112.317 8.88928C112.467 8.25107 112.542 7.56077 112.542 6.81837C112.542 6.04992 112.471 5.3531 112.329 4.72792C112.187 4.10274 111.986 3.56874 111.726 3.1259C111.466 2.67004 111.155 2.31838 110.793 2.07091C110.43 1.82344 110.028 1.69971 109.587 1.69971C109.146 1.69971 108.744 1.82344 108.382 2.07091C108.019 2.31838 107.708 2.67004 107.448 3.1259C107.188 3.56874 106.987 4.10274 106.845 4.72792C106.703 5.3531 106.632 6.04992 106.632 6.81837C106.632 7.56077 106.703 8.25107 106.845 8.88928C106.995 9.51446 107.2 10.055 107.46 10.5108C107.72 10.9537 108.031 11.3053 108.393 11.5658C108.756 11.8133 109.154 11.937 109.587 11.937ZM109.587 13.6954C108.996 13.6954 108.445 13.526 107.932 13.1874C107.428 12.8357 106.991 12.3538 106.621 11.7417C106.258 11.1295 105.971 10.4066 105.758 9.57307C105.553 8.72647 105.451 7.81475 105.451 6.83791C105.451 5.86106 105.557 4.95585 105.77 4.12228C105.982 3.28871 106.274 2.56584 106.644 1.95369C107.015 1.34153 107.452 0.866135 107.956 0.527496C108.46 0.175832 109.004 0 109.587 0C110.178 0 110.726 0.175832 111.23 0.527496C111.734 0.866135 112.172 1.34153 112.542 1.95369C112.912 2.56584 113.2 3.28871 113.405 4.12228C113.617 4.95585 113.724 5.86106 113.724 6.83791C113.724 7.81475 113.617 8.72647 113.405 9.57307C113.2 10.4066 112.912 11.1295 112.542 11.7417C112.179 12.3538 111.742 12.8357 111.23 13.1874C110.726 13.526 110.178 13.6954 109.587 13.6954Z" fill="white"/>
<path d="M121.747 0.332126V13.3632H120.612V2.0123H116.334V13.3632H115.199V0.332126H121.747Z" fill="white"/>
<path d="M127.373 11.937C127.806 11.937 128.204 11.8133 128.567 11.5658C128.929 11.3053 129.241 10.9537 129.501 10.5108C129.761 10.055 129.961 9.51446 130.103 8.88928C130.253 8.25107 130.328 7.56077 130.328 6.81837C130.328 6.04992 130.257 5.3531 130.115 4.72792C129.973 4.10274 129.772 3.56874 129.512 3.1259C129.252 2.67004 128.941 2.31838 128.579 2.07091C128.216 1.82344 127.814 1.69971 127.373 1.69971C126.932 1.69971 126.53 1.82344 126.168 2.07091C125.805 2.31838 125.494 2.67004 125.234 3.1259C124.974 3.56874 124.773 4.10274 124.631 4.72792C124.489 5.3531 124.418 6.04992 124.418 6.81837C124.418 7.56077 124.489 8.25107 124.631 8.88928C124.781 9.51446 124.986 10.055 125.246 10.5108C125.506 10.9537 125.817 11.3053 126.179 11.5658C126.542 11.8133 126.94 11.937 127.373 11.937ZM127.373 13.6954C126.782 13.6954 126.231 13.526 125.718 13.1874C125.214 12.8357 124.777 12.3538 124.407 11.7417C124.044 11.1295 123.757 10.4066 123.544 9.57307C123.339 8.72647 123.237 7.81475 123.237 6.83791C123.237 5.86106 123.343 4.95585 123.556 4.12228C123.768 3.28871 124.06 2.56584 124.43 1.95369C124.801 1.34153 125.238 0.866135 125.742 0.527496C126.246 0.175832 126.79 0 127.373 0C127.964 0 128.512 0.175832 129.016 0.527496C129.52 0.866135 129.958 1.34153 130.328 1.95369C130.698 2.56584 130.986 3.28871 131.191 4.12228C131.403 4.95585 131.51 5.86106 131.51 6.83791C131.51 7.81475 131.403 8.72647 131.191 9.57307C130.986 10.4066 130.698 11.1295 130.328 11.7417C129.965 12.3538 129.528 12.8357 129.016 13.1874C128.512 13.526 127.964 13.6954 127.373 13.6954Z" fill="white"/>
<path d="M137.453 4.57163C137.248 5.15774 137.059 5.60708 136.886 5.91967C136.72 6.21924 136.523 6.44066 136.295 6.58393C136.72 7.05281 137.161 7.8408 137.618 8.94789C138.075 10.055 138.568 11.5268 139.096 13.3632H137.867C137.693 12.7901 137.547 12.3213 137.429 11.9566C137.311 11.5789 137.201 11.2467 137.098 10.9602C136.996 10.6606 136.89 10.3676 136.779 10.081C136.669 9.79449 136.531 9.45585 136.366 9.06511C136.113 8.46598 135.877 8.04919 135.656 7.81475C135.444 7.58031 135.195 7.46309 134.912 7.46309H134.12V13.3632H132.985V0.332126H134.12V5.78292H135.054C135.345 5.78292 135.585 5.68523 135.775 5.48986C135.964 5.29449 136.137 4.96888 136.295 4.51302L137.701 0.332126H138.942L137.453 4.57163Z" fill="white"/>
<path d="M145.013 9.72937H141.775L140.971 13.3632H139.777L142.649 1.23082C142.807 0.566569 143.079 0.234442 143.465 0.234442C143.819 0.234442 144.079 0.579594 144.245 1.2699L147.105 13.3632H145.84L145.013 9.72937ZM143.406 2.28581L142.117 8.14688H144.67L143.406 2.28581Z" fill="white"/>
<path d="M149.345 5.80245H150.48C150.677 5.80245 150.862 5.76338 151.035 5.68523C151.209 5.60708 151.362 5.48335 151.496 5.31403C151.63 5.14471 151.737 4.92981 151.815 4.66931C151.894 4.40882 151.934 4.09623 151.934 3.73154C151.934 3.35383 151.89 3.03473 151.804 2.77424C151.725 2.51374 151.615 2.30535 151.473 2.14906C151.339 1.97974 151.185 1.86252 151.012 1.79739C150.838 1.71924 150.661 1.68017 150.48 1.68017C150.228 1.68017 150.003 1.73878 149.806 1.856C149.609 1.97322 149.436 2.12301 149.286 2.30535C149.144 2.4877 149.018 2.68306 148.908 2.89146C148.798 3.09985 148.703 3.28871 148.624 3.45803L147.833 2.48118C147.935 2.22069 148.061 1.94718 148.211 1.66063C148.368 1.37409 148.557 1.10709 148.778 0.859622C149.007 0.612155 149.267 0.410274 149.558 0.25398C149.857 0.0976843 150.196 0.0195366 150.574 0.0195366C150.976 0.0195366 151.331 0.117221 151.638 0.31259C151.953 0.494934 152.213 0.742401 152.418 1.05499C152.631 1.36758 152.789 1.73878 152.891 2.16859C153.001 2.58538 153.056 3.02822 153.056 3.4971C153.056 4.22648 152.934 4.87771 152.69 5.45079C152.454 6.01085 152.123 6.37553 151.697 6.54485C151.91 6.623 152.111 6.75325 152.3 6.93559C152.497 7.10491 152.666 7.32633 152.808 7.59985C152.958 7.87336 153.076 8.19898 153.163 8.57669C153.249 8.9544 153.293 9.39073 153.293 9.88566C153.293 10.5369 153.218 11.1035 153.068 11.5854C152.926 12.0543 152.729 12.445 152.477 12.7576C152.225 13.0702 151.934 13.2981 151.603 13.4414C151.272 13.5977 150.917 13.6758 150.539 13.6758C150.121 13.6758 149.751 13.5912 149.428 13.4218C149.105 13.2525 148.821 13.0441 148.577 12.7967C148.341 12.5492 148.14 12.2822 147.974 11.9956C147.817 11.7091 147.691 11.4486 147.596 11.2142L148.412 10.2178C148.483 10.3741 148.573 10.5564 148.683 10.7648C148.794 10.9732 148.932 11.1686 149.097 11.3509C149.263 11.5333 149.46 11.6896 149.688 11.8198C149.917 11.9501 150.181 12.0152 150.48 12.0152C150.701 12.0152 150.909 11.9761 151.106 11.898C151.311 11.8068 151.488 11.67 151.638 11.4877C151.796 11.3053 151.918 11.0644 152.005 10.7648C152.099 10.4522 152.146 10.081 152.146 9.65122C152.146 9.22141 152.099 8.86323 152.005 8.57669C151.918 8.29015 151.8 8.06222 151.65 7.8929C151.508 7.72358 151.343 7.60636 151.154 7.54123C150.965 7.46309 150.771 7.42401 150.574 7.42401H149.345V5.80245Z" fill="white"/>
<path d="M158.967 9.72937H155.729L154.925 13.3632H153.731L156.603 1.23082C156.761 0.566569 157.033 0.234442 157.419 0.234442C157.773 0.234442 158.033 0.579594 158.199 1.2699L161.059 13.3632H159.794L158.967 9.72937ZM157.36 2.28581L156.072 8.14688H158.624L157.36 2.28581Z" fill="white"/>
<path d="M162.094 0.332126H163.229V5.78292H167.542V0.332126H168.677V13.3632H167.542V7.46309H163.229V13.3632H162.094V0.332126Z" fill="white"/>
<path d="M171.584 10.7844L175.496 1.15268C175.748 0.54052 176.032 0.234442 176.347 0.234442C176.552 0.234442 176.718 0.345151 176.844 0.566569C176.97 0.774962 177.033 1.0615 177.033 1.42619V13.3632H175.922V2.87192L171.927 12.738C171.832 12.9595 171.718 13.1353 171.584 13.2655C171.458 13.3958 171.324 13.4609 171.182 13.4609C170.962 13.4609 170.788 13.3502 170.662 13.1288C170.536 12.8943 170.473 12.5883 170.473 12.2105V0.332126H171.584V10.7844Z" fill="white"/>
<path d="M178.227 13.3632C178.369 12.7641 178.522 12.1715 178.688 11.5854C178.853 10.9993 179.019 10.4587 179.184 9.96381C179.35 9.46887 179.511 9.02604 179.669 8.6353C179.834 8.24456 179.984 7.93197 180.118 7.69753C179.629 7.39796 179.255 6.94862 178.995 6.34948C178.743 5.75035 178.617 5.02098 178.617 4.16135C178.617 2.98914 178.853 2.05788 179.326 1.36758C179.807 0.677278 180.484 0.332126 181.359 0.332126H183.876V13.3632H182.777V8.02966H181.678C181.355 8.02966 181.071 8.32271 180.827 8.90882C180.591 9.49492 180.354 10.1722 180.118 10.9407C179.881 11.6961 179.653 12.5036 179.432 13.3632H178.227ZM182.777 6.44717V1.95369H181.288C180.815 1.95369 180.445 2.15557 180.177 2.55933C179.909 2.95007 179.775 3.50361 179.775 4.21997C179.775 4.92329 179.913 5.47033 180.189 5.86106C180.465 6.2518 180.839 6.44717 181.312 6.44717H182.777Z" fill="white"/>
<path d="M186.277 13.4414C186.072 13.4414 185.898 13.3307 185.757 13.1092C185.623 12.8748 185.556 12.5883 185.556 12.2496C185.556 11.911 185.623 11.631 185.757 11.4095C185.898 11.1751 186.072 11.0579 186.277 11.0579C186.482 11.0579 186.651 11.1751 186.785 11.4095C186.927 11.631 186.998 11.911 186.998 12.2496C186.998 12.5883 186.927 12.8748 186.785 13.1092C186.651 13.3307 186.482 13.4414 186.277 13.4414Z" fill="white"/>
<path d="M197.392 0.332126V13.3632H196.258V2.0123H191.979V13.3632H190.845V0.332126H197.392Z" fill="white"/>
<path d="M199.804 13.3632C199.623 13.3632 199.477 13.2786 199.366 13.1092C199.256 12.9399 199.201 12.6859 199.201 12.3473V0.332126H204.165V1.99276H200.336V5.78292H203.219V7.46309H200.336V11.6831H204.449V13.3632H199.804Z" fill="white"/>
<path d="M205.872 0.332126H208.366C208.902 0.332126 209.343 0.45586 209.69 0.703328C210.044 0.950795 210.324 1.26338 210.529 1.6411C210.742 2.01881 210.887 2.44211 210.966 2.91099C211.053 3.37988 211.096 3.83574 211.096 4.27858C211.096 4.92981 211.029 5.50289 210.895 5.99782C210.761 6.49276 210.576 6.90954 210.34 7.24818C210.103 7.5738 209.82 7.82126 209.489 7.99058C209.166 8.1599 208.811 8.24456 208.425 8.24456H206.995V13.3632H205.872V0.332126ZM208.413 6.64254C208.902 6.64254 209.276 6.44066 209.536 6.03689C209.804 5.62011 209.938 5.04703 209.938 4.31765C209.938 3.57525 209.8 2.99565 209.524 2.57887C209.256 2.14906 208.886 1.93415 208.413 1.93415H206.995V6.64254H208.413Z" fill="white"/>
<path d="M213.169 13.3632C212.988 13.3632 212.842 13.2786 212.732 13.1092C212.622 12.9399 212.566 12.6859 212.566 12.3473V0.332126H217.53V1.99276H213.701V5.78292H216.585V7.46309H213.701V11.6831H217.814V13.3632H213.169Z" fill="white"/>
<path d="M225.082 2.0123H222.376C222.313 3.22358 222.234 4.30462 222.14 5.25542C222.045 6.20621 221.927 7.06584 221.785 7.83429C221.651 8.58971 221.49 9.28002 221.3 9.9052C221.119 10.5304 220.914 11.123 220.686 11.6831H225.082V2.0123ZM221.36 1.23082C221.375 0.957307 221.43 0.742401 221.525 0.586106C221.62 0.416786 221.757 0.332126 221.939 0.332126H226.182V11.6831H226.843V16.3719H225.815V13.3632H219.847V16.3719H218.818V11.6831H219.433C219.732 11.0448 219.989 10.3741 220.201 9.67075C220.414 8.96743 220.595 8.19898 220.745 7.3654C220.903 6.53183 221.029 5.6136 221.123 4.6107C221.218 3.60781 221.296 2.48118 221.36 1.23082Z" fill="white"/>
<path d="M236.854 0.332126V13.3632H235.719V2.0123H231.441V13.3632H230.306V0.332126H236.854Z" fill="white"/>
<path d="M238.663 0.332126H241.156C241.692 0.332126 242.133 0.45586 242.48 0.703328C242.835 0.950795 243.114 1.26338 243.319 1.6411C243.532 2.01881 243.678 2.44211 243.757 2.91099C243.843 3.37988 243.887 3.83574 243.887 4.27858C243.887 4.92981 243.82 5.50289 243.686 5.99782C243.552 6.49276 243.367 6.90954 243.13 7.24818C242.894 7.5738 242.61 7.82126 242.279 7.99058C241.956 8.1599 241.602 8.24456 241.215 8.24456H239.785V13.3632H238.663V0.332126ZM241.204 6.64254C241.692 6.64254 242.066 6.44066 242.326 6.03689C242.594 5.62011 242.728 5.04703 242.728 4.31765C242.728 3.57525 242.59 2.99565 242.315 2.57887C242.047 2.14906 241.676 1.93415 241.204 1.93415H239.785V6.64254H241.204Z" fill="white"/>
<path d="M246.468 10.7844L250.38 1.15268C250.632 0.54052 250.916 0.234442 251.231 0.234442C251.436 0.234442 251.601 0.345151 251.727 0.566569C251.853 0.774962 251.916 1.0615 251.916 1.42619V13.3632H250.805V2.87192L246.811 12.738C246.716 12.9595 246.602 13.1353 246.468 13.2655C246.342 13.3958 246.208 13.4609 246.066 13.4609C245.845 13.4609 245.672 13.3502 245.546 13.1288C245.42 12.8943 245.357 12.5883 245.357 12.2105V0.332126H246.468V10.7844Z" fill="white"/>
<path d="M254.375 0.234442C254.643 0.234442 254.875 0.507958 255.072 1.05499L257.554 7.85383L259.989 1.17221C260.115 0.833573 260.237 0.592618 260.355 0.449348C260.474 0.306077 260.615 0.234442 260.781 0.234442C260.962 0.234442 261.108 0.345151 261.218 0.566569C261.336 0.774962 261.395 1.05499 261.395 1.40665V13.3632H260.332V3.10636L258.145 9.12372C258.003 9.51446 257.803 9.70983 257.543 9.70983C257.416 9.70983 257.294 9.65122 257.176 9.534C257.058 9.41677 256.963 9.25397 256.892 9.04557L254.777 3.18451V13.3632H253.713V1.42619C253.713 1.04848 253.772 0.755426 253.89 0.547033C254.009 0.338639 254.17 0.234442 254.375 0.234442Z" fill="white"/>
<path d="M263.792 13.3632C263.611 13.3632 263.465 13.2786 263.355 13.1092C263.244 12.9399 263.189 12.6859 263.189 12.3473V0.332126H268.153V1.99276H264.324V5.78292H267.207V7.46309H264.324V11.6831H268.437V13.3632H263.792Z" fill="white"/>
<path d="M269.86 0.332126H270.995V5.78292H275.309V0.332126H276.443V13.3632H275.309V7.46309H270.995V13.3632H269.86V0.332126Z" fill="white"/>
<path d="M278.842 13.3632C278.661 13.3632 278.515 13.2786 278.405 13.1092C278.295 12.9399 278.24 12.6859 278.24 12.3473V0.332126H283.204V1.99276H279.374V5.78292H282.258V7.46309H279.374V11.6831H283.487V13.3632H278.842Z" fill="white"/>
<path d="M284.911 0.332126H286.045V5.78292H290.359V0.332126H291.494V13.3632H290.359V7.46309H286.045V13.3632H284.911V0.332126Z" fill="white"/>
<path d="M294.401 10.7844L298.313 1.15268C298.565 0.54052 298.849 0.234442 299.164 0.234442C299.369 0.234442 299.535 0.345151 299.661 0.566569C299.787 0.774962 299.85 1.0615 299.85 1.42619V13.3632H298.739V2.87192L294.744 12.738C294.649 12.9595 294.535 13.1353 294.401 13.2655C294.275 13.3958 294.141 13.4609 293.999 13.4609C293.779 13.4609 293.605 13.3502 293.479 13.1288C293.353 12.8943 293.29 12.5883 293.29 12.2105V0.332126H294.401V10.7844Z" fill="white"/>
<path d="M302.249 13.3632C302.068 13.3632 301.922 13.2786 301.812 13.1092C301.702 12.9399 301.647 12.6859 301.647 12.3473V0.332126H306.61V1.99276H302.781V5.78292H305.665V7.46309H302.781V11.6831H306.894V13.3632H302.249Z" fill="white"/>
<path d="M308.98 0.234442C309.248 0.234442 309.48 0.507958 309.677 1.05499L312.159 7.85383L314.594 1.17221C314.72 0.833573 314.842 0.592618 314.96 0.449348C315.078 0.306077 315.22 0.234442 315.385 0.234442C315.567 0.234442 315.712 0.345151 315.823 0.566569C315.941 0.774962 316 1.05499 316 1.40665V13.3632H314.936V3.10636L312.75 9.12372C312.608 9.51446 312.407 9.70983 312.147 9.70983C312.021 9.70983 311.899 9.65122 311.781 9.534C311.662 9.41677 311.568 9.25397 311.497 9.04557L309.381 3.18451V13.3632H308.318V1.42619C308.318 1.04848 308.377 0.755426 308.495 0.547033C308.613 0.338639 308.775 0.234442 308.98 0.234442Z" fill="white"/>
<path d="M0 19.9601H1.01921V25.4108H4.89433V19.9601H5.91354V32.9912H4.89433V27.091H1.01921V32.9912H0V19.9601Z" fill="white"/>
<path d="M8.06857 32.9912C7.90578 32.9912 7.77484 32.9065 7.67575 32.7372C7.57666 32.5679 7.52712 32.3139 7.52712 31.9752V19.9601H11.9862V21.6207H8.54633V25.4108H11.1368V27.091H8.54633V31.311H12.241V32.9912H8.06857Z" fill="white"/>
<path d="M16.5239 31.565C16.9132 31.565 17.2706 31.4412 17.5962 31.1938C17.9218 30.9333 18.2014 30.5816 18.4349 30.1388C18.6685 29.6829 18.849 29.1424 18.9764 28.5172C19.1109 27.879 19.1781 27.1887 19.1781 26.4463C19.1781 25.6778 19.1144 24.981 18.987 24.3559C18.8596 23.7307 18.6791 23.1967 18.4455 22.7538C18.212 22.298 17.9324 21.9463 17.6068 21.6988C17.2812 21.4514 16.9203 21.3276 16.5239 21.3276C16.1276 21.3276 15.7666 21.4514 15.441 21.6988C15.1154 21.9463 14.8358 22.298 14.6023 22.7538C14.3687 23.1967 14.1882 23.7307 14.0608 24.3559C13.9334 24.981 13.8697 25.6778 13.8697 26.4463C13.8697 27.1887 13.9334 27.879 14.0608 28.5172C14.1953 29.1424 14.3793 29.6829 14.6129 30.1388C14.8465 30.5816 15.126 30.9333 15.4516 31.1938C15.7772 31.4412 16.1346 31.565 16.5239 31.565ZM16.5239 33.3233C15.9931 33.3233 15.4976 33.154 15.0376 32.8153C14.5846 32.4637 14.1918 31.9817 13.8591 31.3696C13.5335 30.7574 13.2752 30.0346 13.0841 29.201C12.9001 28.3544 12.808 27.4427 12.808 26.4658C12.808 25.489 12.9036 24.5838 13.0947 23.7502C13.2858 22.9166 13.5477 22.1938 13.8803 21.5816C14.213 20.9695 14.6058 20.4941 15.0588 20.1554C15.5118 19.8038 16.0001 19.6279 16.5239 19.6279C17.0547 19.6279 17.5467 19.8038 17.9996 20.1554C18.4526 20.4941 18.8454 20.9695 19.1781 21.5816C19.5108 22.1938 19.7691 22.9166 19.9531 23.7502C20.1442 24.5838 20.2398 25.489 20.2398 26.4658C20.2398 27.4427 20.1442 28.3544 19.9531 29.201C19.7691 30.0346 19.5108 30.7574 19.1781 31.3696C18.8525 31.9817 18.4597 32.4637 17.9996 32.8153C17.5467 33.154 17.0547 33.3233 16.5239 33.3233Z" fill="white"/>
<path d="M25.8545 19.9601V21.5816H22.5845V25.0396H23.9647C24.7716 25.0396 25.3944 25.3913 25.8332 26.0946C26.2721 26.7849 26.4915 27.7422 26.4915 28.9666C26.4915 29.4745 26.4455 29.976 26.3535 30.4709C26.2614 30.9528 26.1128 31.3826 25.9076 31.7603C25.7094 32.125 25.444 32.4246 25.1113 32.659C24.7857 32.8804 24.3858 32.9912 23.9116 32.9912H21.5653V19.9601H25.8545ZM22.5845 31.3891H23.9435C24.4106 31.3891 24.7751 31.1938 25.037 30.803C25.3059 30.4123 25.4404 29.8197 25.4404 29.0252C25.4404 28.2437 25.3059 27.6511 25.037 27.2473C24.7751 26.8435 24.4106 26.6417 23.9435 26.6417H22.5845V31.3891Z" fill="white"/>
<path d="M29.5704 26.2509L27.2347 19.9601H28.4663L30.1862 24.7075L31.8849 19.9601H32.9996L30.7276 26.1923L33.2438 32.9912H32.0229L30.1225 27.7357L28.2221 32.9912H27.0967L29.5704 26.2509Z" fill="white"/>
<path d="M37.1561 31.565C37.5454 31.565 37.9028 31.4412 38.2284 31.1938C38.554 30.9333 38.8335 30.5816 39.0671 30.1388C39.3007 29.6829 39.4812 29.1424 39.6086 28.5172C39.743 27.879 39.8103 27.1887 39.8103 26.4463C39.8103 25.6778 39.7466 24.981 39.6192 24.3559C39.4918 23.7307 39.3113 23.1967 39.0777 22.7538C38.8442 22.298 38.5646 21.9463 38.239 21.6988C37.9134 21.4514 37.5525 21.3276 37.1561 21.3276C36.7597 21.3276 36.3988 21.4514 36.0732 21.6988C35.7476 21.9463 35.468 22.298 35.2345 22.7538C35.0009 23.1967 34.8204 23.7307 34.693 24.3559C34.5656 24.981 34.5019 25.6778 34.5019 26.4463C34.5019 27.1887 34.5656 27.879 34.693 28.5172C34.8275 29.1424 35.0115 29.6829 35.2451 30.1388C35.4786 30.5816 35.7582 30.9333 36.0838 31.1938C36.4094 31.4412 36.7668 31.565 37.1561 31.565ZM37.1561 33.3233C36.6253 33.3233 36.1298 33.154 35.6697 32.8153C35.2168 32.4637 34.8239 31.9817 34.4913 31.3696C34.1657 30.7574 33.9074 30.0346 33.7163 29.201C33.5322 28.3544 33.4402 27.4427 33.4402 26.4658C33.4402 25.489 33.5358 24.5838 33.7269 23.7502C33.918 22.9166 34.1799 22.1938 34.5125 21.5816C34.8452 20.9695 35.238 20.4941 35.691 20.1554C36.144 19.8038 36.6323 19.6279 37.1561 19.6279C37.6869 19.6279 38.1788 19.8038 38.6318 20.1554C39.0848 20.4941 39.4776 20.9695 39.8103 21.5816C40.1429 22.1938 40.4013 22.9166 40.5853 23.7502C40.7764 24.5838 40.872 25.489 40.872 26.4658C40.872 27.4427 40.7764 28.3544 40.5853 29.201C40.4013 30.0346 40.1429 30.7574 39.8103 31.3696C39.4847 31.9817 39.0919 32.4637 38.6318 32.8153C38.1788 33.154 37.6869 33.3233 37.1561 33.3233Z" fill="white"/>
<path d="M46.5458 21.6402H44.1146C44.0579 22.8515 43.9872 23.9326 43.9022 24.8833C43.8173 25.8341 43.7111 26.6938 43.5837 27.4622C43.4634 28.2176 43.3183 28.9079 43.1484 29.5331C42.9856 30.1583 42.8016 30.7509 42.5964 31.311H46.5458V21.6402ZM43.2015 20.8588C43.2157 20.5852 43.2652 20.3703 43.3501 20.214C43.4351 20.0447 43.5589 19.9601 43.7217 19.9601H47.5331V31.311H48.1277V35.9998H47.204V32.9912H41.8426V35.9998H40.9189V31.311H41.471C41.7399 30.6728 41.97 30.002 42.1611 29.2987C42.3522 28.5954 42.515 27.8269 42.6494 26.9933C42.791 26.1598 42.9042 25.2415 42.9892 24.2386C43.0741 23.2357 43.1449 22.1091 43.2015 20.8588Z" fill="white"/>
<path d="M50.3182 30.4123L53.8324 20.7806C54.0589 20.1684 54.3137 19.8624 54.5968 19.8624C54.7808 19.8624 54.9294 19.9731 55.0427 20.1945C55.1559 20.4029 55.2125 20.6894 55.2125 21.0541V32.9912H54.2146V22.4999L50.6261 32.366C50.5412 32.5874 50.4385 32.7632 50.3182 32.8935C50.205 33.0237 50.0847 33.0888 49.9573 33.0888C49.7591 33.0888 49.6034 32.9781 49.4901 32.7567C49.3769 32.5223 49.3202 32.2162 49.3202 31.8385V19.9601H50.3182V30.4123Z" fill="white"/>
<path d="M57.4212 19.8624C57.6618 19.8624 57.8706 20.1359 58.0476 20.6829L60.2771 27.4818L62.4641 20.8001C62.5774 20.4615 62.6871 20.2205 62.7933 20.0773C62.8994 19.934 63.0268 19.8624 63.1755 19.8624C63.3382 19.8624 63.4692 19.9731 63.5683 20.1945C63.6744 20.4029 63.7275 20.6829 63.7275 21.0346V32.9912H62.772V22.7343L60.8079 28.7517C60.6805 29.1424 60.5 29.3378 60.2665 29.3378C60.1532 29.3378 60.0435 29.2791 59.9373 29.1619C59.8312 29.0447 59.7462 28.8819 59.6825 28.6735L57.7821 22.8124V32.9912H56.8266V21.0541C56.8266 20.6764 56.8797 20.3834 56.9859 20.175C57.092 19.9666 57.2371 19.8624 57.4212 19.8624Z" fill="white"/>
<path d="M68.7679 31.565C69.1572 31.565 69.5146 31.4412 69.8402 31.1938C70.1658 30.9333 70.4454 30.5816 70.6789 30.1388C70.9125 29.6829 71.093 29.1424 71.2204 28.5172C71.3549 27.879 71.4221 27.1887 71.4221 26.4463C71.4221 25.6778 71.3584 24.981 71.231 24.3559C71.1036 23.7307 70.9231 23.1967 70.6896 22.7538C70.456 22.298 70.1764 21.9463 69.8508 21.6988C69.5252 21.4514 69.1643 21.3276 68.7679 21.3276C68.3716 21.3276 68.0106 21.4514 67.685 21.6988C67.3594 21.9463 67.0799 22.298 66.8463 22.7538C66.6127 23.1967 66.4322 23.7307 66.3048 24.3559C66.1774 24.981 66.1137 25.6778 66.1137 26.4463C66.1137 27.1887 66.1774 27.879 66.3048 28.5172C66.4393 29.1424 66.6233 29.6829 66.8569 30.1388C67.0905 30.5816 67.37 30.9333 67.6956 31.1938C68.0212 31.4412 68.3786 31.565 68.7679 31.565ZM68.7679 33.3233C68.2371 33.3233 67.7416 33.154 67.2816 32.8153C66.8286 32.4637 66.4358 31.9817 66.1031 31.3696C65.7775 30.7574 65.5192 30.0346 65.3281 29.201C65.1441 28.3544 65.052 27.4427 65.052 26.4658C65.052 25.489 65.1476 24.5838 65.3387 23.7502C65.5298 22.9166 65.7917 22.1938 66.1243 21.5816C66.457 20.9695 66.8498 20.4941 67.3028 20.1554C67.7558 19.8038 68.2442 19.6279 68.7679 19.6279C69.2988 19.6279 69.7907 19.8038 70.2436 20.1554C70.6966 20.4941 71.0894 20.9695 71.4221 21.5816C71.7548 22.1938 72.0131 22.9166 72.1971 23.7502C72.3882 24.5838 72.4838 25.489 72.4838 26.4658C72.4838 27.4427 72.3882 28.3544 72.1971 29.201C72.0131 30.0346 71.7548 30.7574 71.4221 31.3696C71.0965 31.9817 70.7037 32.4637 70.2436 32.8153C69.7907 33.154 69.2988 33.3233 68.7679 33.3233Z" fill="white"/>
<path d="M81.6091 19.9601V32.9912H80.5898V21.6402H76.7466V32.9912H75.7274V19.9601H81.6091Z" fill="white"/>
<path d="M83.2337 19.9601H85.4739C85.9552 19.9601 86.3515 20.0838 86.663 20.3313C86.9815 20.5787 87.2327 20.8913 87.4168 21.269C87.6079 21.6467 87.7388 22.07 87.8096 22.5389C87.8874 23.0078 87.9264 23.4637 87.9264 23.9065C87.9264 24.5577 87.8662 25.1308 87.7459 25.6258C87.6255 26.1207 87.4592 26.5375 87.2469 26.8761C87.0346 27.2017 86.7797 27.4492 86.4825 27.6185C86.1923 27.7878 85.8738 27.8725 85.527 27.8725H84.2423V32.9912H83.2337V19.9601ZM85.5164 26.2705C85.9552 26.2705 86.2914 26.0686 86.5249 25.6648C86.7656 25.248 86.8859 24.675 86.8859 23.9456C86.8859 23.2032 86.7621 22.6236 86.5143 22.2068C86.2737 21.777 85.941 21.5621 85.5164 21.5621H84.2423V26.2705H85.5164Z" fill="white"/>
<path d="M92.5727 31.565C92.962 31.565 93.3194 31.4412 93.645 31.1938C93.9706 30.9333 94.2501 30.5816 94.4837 30.1388C94.7173 29.6829 94.8978 29.1424 95.0252 28.5172C95.1596 27.879 95.2269 27.1887 95.2269 26.4463C95.2269 25.6778 95.1632 24.981 95.0358 24.3559C94.9084 23.7307 94.7279 23.1967 94.4943 22.7538C94.2608 22.298 93.9812 21.9463 93.6556 21.6988C93.33 21.4514 92.969 21.3276 92.5727 21.3276C92.1763 21.3276 91.8154 21.4514 91.4898 21.6988C91.1642 21.9463 90.8846 22.298 90.6511 22.7538C90.4175 23.1967 90.237 23.7307 90.1096 24.3559C89.9822 24.981 89.9185 25.6778 89.9185 26.4463C89.9185 27.1887 89.9822 27.879 90.1096 28.5172C90.2441 29.1424 90.4281 29.6829 90.6617 30.1388C90.8952 30.5816 91.1748 30.9333 91.5004 31.1938C91.826 31.4412 92.1834 31.565 92.5727 31.565ZM92.5727 33.3233C92.0418 33.3233 91.5464 33.154 91.0863 32.8153C90.6334 32.4637 90.2405 31.9817 89.9079 31.3696C89.5823 30.7574 89.324 30.0346 89.1329 29.201C88.9488 28.3544 88.8568 27.4427 88.8568 26.4658C88.8568 25.489 88.9524 24.5838 89.1435 23.7502C89.3346 22.9166 89.5965 22.1938 89.9291 21.5816C90.2618 20.9695 90.6546 20.4941 91.1076 20.1554C91.5606 19.8038 92.0489 19.6279 92.5727 19.6279C93.1035 19.6279 93.5954 19.8038 94.0484 20.1554C94.5014 20.4941 94.8942 20.9695 95.2269 21.5816C95.5595 22.1938 95.8179 22.9166 96.0019 23.7502C96.193 24.5838 96.2885 25.489 96.2885 26.4658C96.2885 27.4427 96.193 28.3544 96.0019 29.201C95.8179 30.0346 95.5595 30.7574 95.2269 31.3696C94.9013 31.9817 94.5085 32.4637 94.0484 32.8153C93.5954 33.154 93.1035 33.3233 92.5727 33.3233Z" fill="white"/>
<path d="M101.627 24.1996C101.443 24.7857 101.273 25.235 101.118 25.5476C100.969 25.8472 100.792 26.0686 100.587 26.2119C100.969 26.6807 101.365 27.4687 101.776 28.5758C102.186 29.6829 102.629 31.1547 103.103 32.9912H101.999C101.843 32.4181 101.712 31.9492 101.606 31.5845C101.5 31.2068 101.401 30.8747 101.309 30.5881C101.217 30.2886 101.121 29.9955 101.022 29.709C100.923 29.4224 100.799 29.0838 100.65 28.693C100.424 28.0939 100.212 27.6771 100.013 27.4427C99.8224 27.2082 99.5994 27.091 99.3446 27.091H98.6333V32.9912H97.6141V19.9601H98.6333V25.4108H99.472C99.7339 25.4108 99.9498 25.3132 100.12 25.1178C100.289 24.9224 100.445 24.5968 100.587 24.1409L101.85 19.9601H102.965L101.627 24.1996Z" fill="white"/>
<path d="M107.026 31.565C107.415 31.565 107.772 31.4412 108.098 31.1938C108.423 30.9333 108.703 30.5816 108.937 30.1388C109.17 29.6829 109.351 29.1424 109.478 28.5172C109.613 27.879 109.68 27.1887 109.68 26.4463C109.68 25.6778 109.616 24.981 109.489 24.3559C109.361 23.7307 109.181 23.1967 108.947 22.7538C108.714 22.298 108.434 21.9463 108.108 21.6988C107.783 21.4514 107.422 21.3276 107.026 21.3276C106.629 21.3276 106.268 21.4514 105.943 21.6988C105.617 21.9463 105.338 22.298 105.104 22.7538C104.87 23.1967 104.69 23.7307 104.562 24.3559C104.435 24.981 104.371 25.6778 104.371 26.4463C104.371 27.1887 104.435 27.879 104.562 28.5172C104.697 29.1424 104.881 29.6829 105.115 30.1388C105.348 30.5816 105.628 30.9333 105.953 31.1938C106.279 31.4412 106.636 31.565 107.026 31.565ZM107.026 33.3233C106.495 33.3233 105.999 33.154 105.539 32.8153C105.086 32.4637 104.693 31.9817 104.361 31.3696C104.035 30.7574 103.777 30.0346 103.586 29.201C103.402 28.3544 103.31 27.4427 103.31 26.4658C103.31 25.489 103.405 24.5838 103.596 23.7502C103.787 22.9166 104.049 22.1938 104.382 21.5816C104.715 20.9695 105.107 20.4941 105.56 20.1554C106.013 19.8038 106.502 19.6279 107.026 19.6279C107.556 19.6279 108.048 19.8038 108.501 20.1554C108.954 20.4941 109.347 20.9695 109.68 21.5816C110.012 22.1938 110.271 22.9166 110.455 23.7502C110.646 24.5838 110.741 25.489 110.741 26.4658C110.741 27.4427 110.646 28.3544 110.455 29.201C110.271 30.0346 110.012 30.7574 109.68 31.3696C109.354 31.9817 108.961 32.4637 108.501 32.8153C108.048 33.154 107.556 33.3233 107.026 33.3233Z" fill="white"/>
<path d="M112.067 19.9601H113.086V25.4108H116.961V19.9601H117.981V32.9912H116.961V27.091H113.086V32.9912H112.067V19.9601Z" fill="white"/>
<path d="M125.147 23.3595C124.906 22.7213 124.598 22.2263 124.223 21.8747C123.848 21.51 123.448 21.3276 123.023 21.3276C122.627 21.3276 122.266 21.4514 121.94 21.6988C121.615 21.9463 121.335 22.298 121.102 22.7538C120.875 23.1967 120.698 23.7372 120.571 24.3754C120.443 25.0006 120.38 25.7039 120.38 26.4854C120.38 27.2538 120.44 27.9506 120.56 28.5758C120.688 29.188 120.865 29.7155 121.091 30.1583C121.325 30.6011 121.601 30.9463 121.919 31.1938C122.238 31.4282 122.595 31.5454 122.991 31.5454C123.402 31.5454 123.777 31.3956 124.117 31.0961C124.457 30.7965 124.803 30.3016 125.157 29.6113L125.869 30.7053C125.741 31.057 125.571 31.3956 125.359 31.7213C125.147 32.0338 124.91 32.3074 124.648 32.5418C124.386 32.7762 124.11 32.9586 123.82 33.0888C123.536 33.2321 123.26 33.3037 122.991 33.3037C122.446 33.3037 121.947 33.1409 121.494 32.8153C121.041 32.4897 120.652 32.0273 120.327 31.4282C120.001 30.8291 119.75 30.1127 119.573 29.2791C119.396 28.4456 119.307 27.5273 119.307 26.5244C119.307 25.5346 119.399 24.6163 119.583 23.7697C119.767 22.9231 120.022 22.2003 120.348 21.6012C120.681 20.989 121.073 20.5136 121.526 20.175C121.979 19.8233 122.475 19.6475 123.013 19.6475C123.303 19.6475 123.586 19.7126 123.862 19.8428C124.145 19.9601 124.411 20.1294 124.658 20.3508C124.906 20.5722 125.132 20.8457 125.338 21.1713C125.55 21.4839 125.727 21.8356 125.869 22.2263L125.147 23.3595Z" fill="white"/>
<path d="M132.363 19.9601L129.635 30.2755C129.529 30.6923 129.412 31.0831 129.284 31.4477C129.164 31.8124 129.026 32.138 128.87 32.4246C128.722 32.6981 128.552 32.913 128.361 33.0693C128.17 33.2386 127.95 33.3233 127.702 33.3233C127.448 33.3233 127.211 33.2451 126.991 33.0888C126.779 32.9325 126.591 32.7437 126.428 32.5223L126.874 31.1156C126.988 31.2589 127.108 31.3891 127.235 31.5064C127.37 31.6105 127.522 31.6626 127.692 31.6626C127.819 31.6626 127.933 31.6236 128.032 31.5454C128.131 31.4673 128.223 31.3435 128.308 31.1742C128.4 30.9919 128.485 30.7705 128.562 30.51C128.647 30.2365 128.739 29.9108 128.838 29.5331L126.121 19.9601H127.235L129.348 27.6185L131.312 19.9601H132.363Z" fill="white"/>
<path d="M133.513 21.0737C133.52 20.735 133.569 20.468 133.661 20.2726C133.76 20.0643 133.898 19.9601 134.075 19.9601H137.961V32.9912H136.942V21.6402H134.489C134.447 23.6851 134.358 25.4304 134.224 26.8761C134.089 28.3088 133.905 29.4875 133.672 30.4123C133.438 31.324 133.148 31.9948 132.801 32.4246C132.462 32.8414 132.058 33.0498 131.591 33.0498H131.442V31.3501C131.782 31.3501 132.072 31.1677 132.313 30.803C132.561 30.4253 132.766 29.8262 132.929 29.0056C133.091 28.1851 133.219 27.1236 133.311 25.8211C133.41 24.5187 133.477 22.9362 133.513 21.0737Z" fill="white"/>
<path d="M140.592 31.3891H141.951C142.418 31.3891 142.783 31.1807 143.045 30.7639C143.314 30.3472 143.448 29.722 143.448 28.8884C143.448 28.0679 143.314 27.4427 143.045 27.0129C142.783 26.57 142.418 26.3486 141.951 26.3486H140.592V31.3891ZM140.592 19.9601V24.7466H141.972C142.779 24.7466 143.402 25.1113 143.841 25.8407C144.28 26.557 144.499 27.5469 144.499 28.8103C144.499 29.3443 144.453 29.8653 144.361 30.3732C144.269 30.8681 144.121 31.311 143.915 31.7017C143.717 32.0925 143.452 32.405 143.119 32.6395C142.793 32.8739 142.394 32.9912 141.919 32.9912H139.573V19.9601H140.592Z" fill="white"/>
<path d="M146.141 21.6012H143.604V19.9601H149.687V21.6012H147.16V32.9912H146.141V21.6012Z" fill="white"/>
<path d="M151.748 30.4123L155.262 20.7806C155.488 20.1684 155.743 19.8624 156.026 19.8624C156.21 19.8624 156.359 19.9731 156.472 20.1945C156.585 20.4029 156.642 20.6894 156.642 21.0541V32.9912H155.644V22.4999L152.056 32.366C151.971 32.5874 151.868 32.7632 151.748 32.8935C151.634 33.0237 151.514 33.0888 151.387 33.0888C151.189 33.0888 151.033 32.9781 150.92 32.7567C150.806 32.5223 150.75 32.2162 150.75 31.8385V19.9601H151.748V30.4123Z" fill="white"/>
<path d="M158.256 19.9601H160.496C160.978 19.9601 161.374 20.0838 161.685 20.3313C162.004 20.5787 162.255 20.8913 162.439 21.269C162.63 21.6467 162.761 22.07 162.832 22.5389C162.91 23.0078 162.949 23.4637 162.949 23.9065C162.949 24.5577 162.889 25.1308 162.768 25.6258C162.648 26.1207 162.482 26.5375 162.269 26.8761C162.057 27.2017 161.802 27.4492 161.505 27.6185C161.215 27.7878 160.896 27.8725 160.549 27.8725H159.265V32.9912H158.256V19.9601ZM160.539 26.2705C160.978 26.2705 161.314 26.0686 161.547 25.6648C161.788 25.248 161.908 24.675 161.908 23.9456C161.908 23.2032 161.784 22.6236 161.537 22.2068C161.296 21.777 160.963 21.5621 160.539 21.5621H159.265V26.2705H160.539Z" fill="white"/>
<path d="M167.595 31.565C167.984 31.565 168.342 31.4412 168.667 31.1938C168.993 30.9333 169.272 30.5816 169.506 30.1388C169.74 29.6829 169.92 29.1424 170.047 28.5172C170.182 27.879 170.249 27.1887 170.249 26.4463C170.249 25.6778 170.186 24.981 170.058 24.3559C169.931 23.7307 169.75 23.1967 169.517 22.7538C169.283 22.298 169.004 21.9463 168.678 21.6988C168.352 21.4514 167.991 21.3276 167.595 21.3276C167.199 21.3276 166.838 21.4514 166.512 21.6988C166.187 21.9463 165.907 22.298 165.673 22.7538C165.44 23.1967 165.259 23.7307 165.132 24.3559C165.005 24.981 164.941 25.6778 164.941 26.4463C164.941 27.1887 165.005 27.879 165.132 28.5172C165.266 29.1424 165.45 29.6829 165.684 30.1388C165.918 30.5816 166.197 30.9333 166.523 31.1938C166.848 31.4412 167.206 31.565 167.595 31.565ZM167.595 33.3233C167.064 33.3233 166.569 33.154 166.109 32.8153C165.656 32.4637 165.263 31.9817 164.93 31.3696C164.605 30.7574 164.346 30.0346 164.155 29.201C163.971 28.3544 163.879 27.4427 163.879 26.4658C163.879 25.489 163.975 24.5838 164.166 23.7502C164.357 22.9166 164.619 22.1938 164.951 21.5816C165.284 20.9695 165.677 20.4941 166.13 20.1554C166.583 19.8038 167.071 19.6279 167.595 19.6279C168.126 19.6279 168.618 19.8038 169.071 20.1554C169.524 20.4941 169.917 20.9695 170.249 21.5816C170.582 22.1938 170.84 22.9166 171.024 23.7502C171.215 24.5838 171.311 25.489 171.311 26.4658C171.311 27.4427 171.215 28.3544 171.024 29.201C170.84 30.0346 170.582 30.7574 170.249 31.3696C169.924 31.9817 169.531 32.4637 169.071 32.8153C168.618 33.154 168.126 33.3233 167.595 33.3233Z" fill="white"/>
<path d="M172.636 19.9601H175.036C175.404 19.9601 175.722 20.0512 175.991 20.2336C176.26 20.4029 176.483 20.6373 176.66 20.9369C176.837 21.2365 176.968 21.5881 177.053 21.9919C177.145 22.3957 177.191 22.8255 177.191 23.2813C177.191 23.6981 177.152 24.0693 177.074 24.3949C176.996 24.7205 176.901 25.0071 176.788 25.2546C176.674 25.489 176.547 25.6778 176.405 25.8211C176.271 25.9644 176.147 26.0556 176.034 26.0946C176.175 26.1337 176.335 26.2184 176.512 26.3486C176.688 26.4658 176.855 26.6482 177.011 26.8956C177.166 27.1431 177.297 27.4687 177.403 27.8725C177.51 28.2632 177.563 28.7517 177.563 29.3378C177.563 30.0411 177.492 30.6272 177.35 31.0961C177.216 31.5519 177.028 31.9231 176.788 32.2097C176.554 32.4962 176.274 32.6981 175.949 32.8153C175.623 32.9325 175.276 32.9912 174.908 32.9912H172.636V19.9601ZM174.855 31.3696C175.039 31.3696 175.23 31.3501 175.429 31.311C175.627 31.2719 175.807 31.1807 175.97 31.0375C176.14 30.8942 176.278 30.6858 176.384 30.4123C176.49 30.1257 176.543 29.735 176.543 29.2401C176.543 28.7712 176.49 28.3935 176.384 28.1069C176.285 27.8204 176.154 27.5925 175.991 27.4231C175.836 27.2538 175.662 27.1431 175.471 27.091C175.28 27.0259 175.096 26.9933 174.919 26.9933H173.624V31.3696H174.855ZM174.887 25.3913C175.043 25.3913 175.199 25.3587 175.354 25.2936C175.51 25.2155 175.652 25.0983 175.779 24.942C175.906 24.7857 176.009 24.5838 176.087 24.3363C176.165 24.0888 176.204 23.7893 176.204 23.4376C176.204 23.0469 176.165 22.7343 176.087 22.4999C176.009 22.2524 175.906 22.0635 175.779 21.9333C175.652 21.79 175.51 21.6988 175.354 21.6598C175.199 21.6077 175.043 21.5816 174.887 21.5816H173.624V25.3913H174.887Z" fill="white"/>
<path d="M182.715 29.3573H179.806L179.084 32.9912H178.012L180.592 20.8588C180.733 20.1945 180.977 19.8624 181.324 19.8624C181.643 19.8624 181.876 20.2075 182.025 20.8978L184.594 32.9912H183.458L182.715 29.3573ZM181.271 21.9137L180.114 27.7748H182.407L181.271 21.9137Z" fill="white"/>
<path d="M186.286 21.6012H183.748V19.9601H189.832V21.6012H187.305V32.9912H186.286V21.6012Z" fill="white"/>
<path d="M191.914 31.3891H193.273C193.74 31.3891 194.104 31.1807 194.366 30.7639C194.635 30.3472 194.769 29.722 194.769 28.8884C194.769 28.0679 194.635 27.4427 194.366 27.0129C194.104 26.57 193.74 26.3486 193.273 26.3486H191.914V31.3891ZM191.914 19.9601V24.7466H193.294C194.101 24.7466 194.723 25.1113 195.162 25.8407C195.601 26.557 195.821 27.5469 195.821 28.8103C195.821 29.3443 195.775 29.8653 195.683 30.3732C195.59 30.8681 195.442 31.311 195.237 31.7017C195.038 32.0925 194.773 32.405 194.44 32.6395C194.115 32.8739 193.715 32.9912 193.241 32.9912H190.894V19.9601H191.914Z" fill="white"/>
<path d="M202.626 23.3595C202.386 22.7213 202.078 22.2263 201.703 21.8747C201.327 21.51 200.928 21.3276 200.503 21.3276C200.106 21.3276 199.746 21.4514 199.42 21.6988C199.094 21.9463 198.815 22.298 198.581 22.7538C198.355 23.1967 198.178 23.7372 198.05 24.3754C197.923 25.0006 197.859 25.7039 197.859 26.4854C197.859 27.2538 197.919 27.9506 198.04 28.5758C198.167 29.188 198.344 29.7155 198.571 30.1583C198.804 30.6011 199.08 30.9463 199.399 31.1938C199.717 31.4282 200.075 31.5454 200.471 31.5454C200.882 31.5454 201.257 31.3956 201.596 31.0961C201.936 30.7965 202.283 30.3016 202.637 29.6113L203.348 30.7053C203.221 31.057 203.051 31.3956 202.839 31.7213C202.626 32.0338 202.389 32.3074 202.127 32.5418C201.865 32.7762 201.589 32.9586 201.299 33.0888C201.016 33.2321 200.74 33.3037 200.471 33.3037C199.926 33.3037 199.427 33.1409 198.974 32.8153C198.521 32.4897 198.132 32.0273 197.806 31.4282C197.481 30.8291 197.229 30.1127 197.052 29.2791C196.875 28.4456 196.787 27.5273 196.787 26.5244C196.787 25.5346 196.879 24.6163 197.063 23.7697C197.247 22.9231 197.502 22.2003 197.827 21.6012C198.16 20.989 198.553 20.5136 199.006 20.175C199.459 19.8233 199.954 19.6475 200.492 19.6475C200.782 19.6475 201.066 19.7126 201.342 19.8428C201.625 19.9601 201.89 20.1294 202.138 20.3508C202.386 20.5722 202.612 20.8457 202.817 21.1713C203.03 21.4839 203.207 21.8356 203.348 22.2263L202.626 23.3595Z" fill="white"/>
<path d="M203.728 32.9912C203.855 32.392 203.993 31.7994 204.142 31.2133C204.29 30.6272 204.439 30.0867 204.587 29.5917C204.736 29.0968 204.881 28.654 205.023 28.2632C205.171 27.8725 205.306 27.5599 205.426 27.3255C204.987 27.0259 204.651 26.5765 204.418 25.9774C204.191 25.3783 204.078 24.6489 204.078 23.7893C204.078 22.6171 204.29 21.6858 204.715 20.9955C205.147 20.3052 205.755 19.9601 206.541 19.9601H208.802V32.9912H207.815V27.6576H206.828C206.537 27.6576 206.283 27.9506 206.063 28.5367C205.851 29.1229 205.639 29.8001 205.426 30.5686C205.214 31.324 205.009 32.1315 204.81 32.9912H203.728ZM207.815 26.0751V21.5816H206.477C206.053 21.5816 205.72 21.7835 205.479 22.1873C205.239 22.578 205.118 23.1315 205.118 23.8479C205.118 24.5512 205.242 25.0983 205.49 25.489C205.738 25.8797 206.074 26.0751 206.498 26.0751H207.815Z" fill="white"/>
<path d="M217.888 23.3595C217.647 22.7213 217.339 22.2263 216.964 21.8747C216.589 21.51 216.189 21.3276 215.764 21.3276C215.368 21.3276 215.007 21.4514 214.682 21.6988C214.356 21.9463 214.076 22.298 213.843 22.7538C213.616 23.1967 213.439 23.7372 213.312 24.3754C213.185 25.0006 213.121 25.7039 213.121 26.4854C213.121 27.2538 213.181 27.9506 213.301 28.5758C213.429 29.188 213.606 29.7155 213.832 30.1583C214.066 30.6011 214.342 30.9463 214.66 31.1938C214.979 31.4282 215.336 31.5454 215.733 31.5454C216.143 31.5454 216.518 31.3956 216.858 31.0961C217.198 30.7965 217.545 30.3016 217.898 29.6113L218.61 30.7053C218.482 31.057 218.312 31.3956 218.1 31.7213C217.888 32.0338 217.651 32.3074 217.389 32.5418C217.127 32.7762 216.851 32.9586 216.561 33.0888C216.278 33.2321 216.002 33.3037 215.733 33.3037C215.188 33.3037 214.689 33.1409 214.236 32.8153C213.783 32.4897 213.393 32.0273 213.068 31.4282C212.742 30.8291 212.491 30.1127 212.314 29.2791C212.137 28.4456 212.049 27.5273 212.049 26.5244C212.049 25.5346 212.141 24.6163 212.325 23.7697C212.509 22.9231 212.763 22.2003 213.089 21.6012C213.422 20.989 213.814 20.5136 214.267 20.175C214.72 19.8233 215.216 19.6475 215.754 19.6475C216.044 19.6475 216.327 19.7126 216.603 19.8428C216.886 19.9601 217.152 20.1294 217.399 20.3508C217.647 20.5722 217.874 20.8457 218.079 21.1713C218.291 21.4839 218.468 21.8356 218.61 22.2263L217.888 23.3595Z" fill="white"/>
<path d="M222.773 31.565C223.162 31.565 223.52 31.4412 223.845 31.1938C224.171 30.9333 224.451 30.5816 224.684 30.1388C224.918 29.6829 225.098 29.1424 225.226 28.5172C225.36 27.879 225.427 27.1887 225.427 26.4463C225.427 25.6778 225.364 24.981 225.236 24.3559C225.109 23.7307 224.928 23.1967 224.695 22.7538C224.461 22.298 224.182 21.9463 223.856 21.6988C223.53 21.4514 223.17 21.3276 222.773 21.3276C222.377 21.3276 222.016 21.4514 221.69 21.6988C221.365 21.9463 221.085 22.298 220.852 22.7538C220.618 23.1967 220.437 23.7307 220.31 24.3559C220.183 24.981 220.119 25.6778 220.119 26.4463C220.119 27.1887 220.183 27.879 220.31 28.5172C220.445 29.1424 220.629 29.6829 220.862 30.1388C221.096 30.5816 221.375 30.9333 221.701 31.1938C222.026 31.4412 222.384 31.565 222.773 31.565ZM222.773 33.3233C222.242 33.3233 221.747 33.154 221.287 32.8153C220.834 32.4637 220.441 31.9817 220.108 31.3696C219.783 30.7574 219.524 30.0346 219.333 29.201C219.149 28.3544 219.057 27.4427 219.057 26.4658C219.057 25.489 219.153 24.5838 219.344 23.7502C219.535 22.9166 219.797 22.1938 220.13 21.5816C220.462 20.9695 220.855 20.4941 221.308 20.1554C221.761 19.8038 222.249 19.6279 222.773 19.6279C223.304 19.6279 223.796 19.8038 224.249 20.1554C224.702 20.4941 225.095 20.9695 225.427 21.5816C225.76 22.1938 226.018 22.9166 226.202 23.7502C226.393 24.5838 226.489 25.489 226.489 26.4658C226.489 27.4427 226.393 28.3544 226.202 29.201C226.018 30.0346 225.76 30.7574 225.427 31.3696C225.102 31.9817 224.709 32.4637 224.249 32.8153C223.796 33.154 223.304 33.3233 222.773 33.3233Z" fill="white"/>
<path d="M235.285 23.3595C235.045 22.7213 234.737 22.2263 234.362 21.8747C233.986 21.51 233.587 21.3276 233.162 21.3276C232.765 21.3276 232.405 21.4514 232.079 21.6988C231.753 21.9463 231.474 22.298 231.24 22.7538C231.014 23.1967 230.837 23.7372 230.709 24.3754C230.582 25.0006 230.518 25.7039 230.518 26.4854C230.518 27.2538 230.578 27.9506 230.699 28.5758C230.826 29.188 231.003 29.7155 231.23 30.1583C231.463 30.6011 231.739 30.9463 232.058 31.1938C232.376 31.4282 232.734 31.5454 233.13 31.5454C233.54 31.5454 233.916 31.3956 234.255 31.0961C234.595 30.7965 234.942 30.3016 235.296 29.6113L236.007 30.7053C235.88 31.057 235.71 31.3956 235.498 31.7213C235.285 32.0338 235.048 32.3074 234.786 32.5418C234.524 32.7762 234.248 32.9586 233.958 33.0888C233.675 33.2321 233.399 33.3037 233.13 33.3037C232.585 33.3037 232.086 33.1409 231.633 32.8153C231.18 32.4897 230.791 32.0273 230.465 31.4282C230.14 30.8291 229.888 30.1127 229.711 29.2791C229.534 28.4456 229.446 27.5273 229.446 26.5244C229.446 25.5346 229.538 24.6163 229.722 23.7697C229.906 22.9231 230.161 22.2003 230.486 21.6012C230.819 20.989 231.212 20.5136 231.665 20.175C232.118 19.8233 232.613 19.6475 233.151 19.6475C233.441 19.6475 233.725 19.7126 234.001 19.8428C234.284 19.9601 234.549 20.1294 234.797 20.3508C235.045 20.5722 235.271 20.8457 235.476 21.1713C235.689 21.4839 235.866 21.8356 236.007 22.2263L235.285 23.3595Z" fill="white"/>
<path d="M242.81 19.9601V32.9912H241.79V21.6402H237.947V32.9912H236.928V19.9601H242.81Z" fill="white"/>
<path d="M244.976 32.9912C244.813 32.9912 244.682 32.9065 244.583 32.7372C244.484 32.5679 244.434 32.3139 244.434 31.9752V19.9601H248.893V21.6207H245.454V25.4108H248.044V27.091H245.454V31.311H249.148V32.9912H244.976Z" fill="white"/>
<path d="M255.926 32.9912H250.427V19.9601H251.446V31.311H255.236V19.9601H256.256V31.311H256.85V35.9998H255.926V32.9912Z" fill="white"/>
<path d="M259.035 30.4123L262.549 20.7806C262.776 20.1684 263.03 19.8624 263.314 19.8624C263.498 19.8624 263.646 19.9731 263.759 20.1945C263.873 20.4029 263.929 20.6894 263.929 21.0541V32.9912H262.931V22.4999L259.343 32.366C259.258 32.5874 259.155 32.7632 259.035 32.8935C258.922 33.0237 258.801 33.0888 258.674 33.0888C258.476 33.0888 258.32 32.9781 258.207 32.7567C258.094 32.5223 258.037 32.2162 258.037 31.8385V19.9601H259.035V30.4123Z" fill="white"/>
<path d="M269.567 29.3573H266.658L265.936 32.9912H264.864L267.444 20.8588C267.585 20.1945 267.83 19.8624 268.176 19.8624C268.495 19.8624 268.728 20.2075 268.877 20.8978L271.446 32.9912H270.31L269.567 29.3573ZM268.123 21.9137L266.966 27.7748H269.259L268.123 21.9137Z" fill="white"/>
<path d="M274.226 21.0737C274.233 20.735 274.283 20.468 274.375 20.2726C274.474 20.0643 274.612 19.9601 274.789 19.9601H278.675V32.9912H277.655V21.6402H275.203C275.16 23.6851 275.072 25.4304 274.937 26.8761C274.803 28.3088 274.619 29.4875 274.385 30.4123C274.152 31.324 273.862 31.9948 273.515 32.4246C273.175 32.8414 272.772 33.0498 272.304 33.0498H272.156V31.3501C272.496 31.3501 272.786 31.1677 273.026 30.803C273.274 30.4253 273.479 29.8262 273.642 29.0056C273.805 28.1851 273.932 27.1236 274.024 25.8211C274.124 24.5187 274.191 22.9362 274.226 21.0737Z" fill="white"/>
<path d="M281.285 30.4123L284.799 20.7806C285.025 20.1684 285.28 19.8624 285.563 19.8624C285.747 19.8624 285.896 19.9731 286.009 20.1945C286.122 20.4029 286.179 20.6894 286.179 21.0541V32.9912H285.181V22.4999L281.593 32.366C281.508 32.5874 281.405 32.7632 281.285 32.8935C281.171 33.0237 281.051 33.0888 280.924 33.0888C280.725 33.0888 280.57 32.9781 280.456 32.7567C280.343 32.5223 280.287 32.2162 280.287 31.8385V19.9601H281.285V30.4123Z" fill="white"/>
<path d="M293.346 23.3595C293.105 22.7213 292.797 22.2263 292.422 21.8747C292.047 21.51 291.647 21.3276 291.222 21.3276C290.826 21.3276 290.465 21.4514 290.139 21.6988C289.814 21.9463 289.534 22.298 289.301 22.7538C289.074 23.1967 288.897 23.7372 288.77 24.3754C288.642 25.0006 288.579 25.7039 288.579 26.4854C288.579 27.2538 288.639 27.9506 288.759 28.5758C288.887 29.188 289.063 29.7155 289.29 30.1583C289.524 30.6011 289.8 30.9463 290.118 31.1938C290.437 31.4282 290.794 31.5454 291.19 31.5454C291.601 31.5454 291.976 31.3956 292.316 31.0961C292.656 30.7965 293.002 30.3016 293.356 29.6113L294.068 30.7053C293.94 31.057 293.77 31.3956 293.558 31.7213C293.346 32.0338 293.108 32.3074 292.847 32.5418C292.585 32.7762 292.309 32.9586 292.018 33.0888C291.735 33.2321 291.459 33.3037 291.19 33.3037C290.645 33.3037 290.146 33.1409 289.693 32.8153C289.24 32.4897 288.851 32.0273 288.526 31.4282C288.2 30.8291 287.949 30.1127 287.772 29.2791C287.595 28.4456 287.506 27.5273 287.506 26.5244C287.506 25.5346 287.598 24.6163 287.782 23.7697C287.966 22.9231 288.221 22.2003 288.547 21.6012C288.879 20.989 289.272 20.5136 289.725 20.175C290.178 19.8233 290.674 19.6475 291.212 19.6475C291.502 19.6475 291.785 19.7126 292.061 19.8428C292.344 19.9601 292.609 20.1294 292.857 20.3508C293.105 20.5722 293.331 20.8457 293.537 21.1713C293.749 21.4839 293.926 21.8356 294.068 22.2263L293.346 23.3595Z" fill="white"/>
<path d="M296.766 21.6012H294.229V19.9601H300.312V21.6012H297.786V32.9912H296.766V21.6012Z" fill="white"/>
<path d="M304.058 31.565C304.447 31.565 304.804 31.4412 305.13 31.1938C305.456 30.9333 305.735 30.5816 305.969 30.1388C306.202 29.6829 306.383 29.1424 306.51 28.5172C306.645 27.879 306.712 27.1887 306.712 26.4463C306.712 25.6778 306.648 24.981 306.521 24.3559C306.393 23.7307 306.213 23.1967 305.979 22.7538C305.746 22.298 305.466 21.9463 305.141 21.6988C304.815 21.4514 304.454 21.3276 304.058 21.3276C303.661 21.3276 303.3 21.4514 302.975 21.6988C302.649 21.9463 302.37 22.298 302.136 22.7538C301.903 23.1967 301.722 23.7307 301.595 24.3559C301.467 24.981 301.404 25.6778 301.404 26.4463C301.404 27.1887 301.467 27.879 301.595 28.5172C301.729 29.1424 301.913 29.6829 302.147 30.1388C302.38 30.5816 302.66 30.9333 302.985 31.1938C303.311 31.4412 303.668 31.565 304.058 31.565ZM304.058 33.3233C303.527 33.3233 303.031 33.154 302.571 32.8153C302.118 32.4637 301.726 31.9817 301.393 31.3696C301.067 30.7574 300.809 30.0346 300.618 29.201C300.434 28.3544 300.342 27.4427 300.342 26.4658C300.342 25.489 300.437 24.5838 300.629 23.7502C300.82 22.9166 301.082 22.1938 301.414 21.5816C301.747 20.9695 302.14 20.4941 302.593 20.1554C303.046 19.8038 303.534 19.6279 304.058 19.6279C304.589 19.6279 305.08 19.8038 305.533 20.1554C305.986 20.4941 306.379 20.9695 306.712 21.5816C307.045 22.1938 307.303 22.9166 307.487 23.7502C307.678 24.5838 307.774 25.489 307.774 26.4658C307.774 27.4427 307.678 28.3544 307.487 29.201C307.303 30.0346 307.045 30.7574 306.712 31.3696C306.386 31.9817 305.994 32.4637 305.533 32.8153C305.08 33.154 304.589 33.3233 304.058 33.3233Z" fill="white"/>
<path d="M309.694 19.8624C309.934 19.8624 310.143 20.1359 310.32 20.6829L312.55 27.4818L314.737 20.8001C314.85 20.4615 314.96 20.2205 315.066 20.0773C315.172 19.934 315.299 19.8624 315.448 19.8624C315.611 19.8624 315.742 19.9731 315.841 20.1945C315.947 20.4029 316 20.6829 316 21.0346V32.9912H315.045V22.7343L313.08 28.7517C312.953 29.1424 312.773 29.3378 312.539 29.3378C312.426 29.3378 312.316 29.2791 312.21 29.1619C312.104 29.0447 312.019 28.8819 311.955 28.6735L310.055 22.8124V32.9912H309.099V21.0541C309.099 20.6764 309.152 20.3834 309.258 20.175C309.365 19.9666 309.51 19.8624 309.694 19.8624Z" fill="white"/>
</svg>
