<svg width="316" height="6" viewBox="0 0 316 6" fill="none" xmlns="http://www.w3.org/2000/svg">
<path d="M2.68829 0.0654308H3.25548V4.82879H2.68829V1.15812L0.570153 4.82879H0V0.0654308H0.570153V3.7361L2.68829 0.0654308Z" fill="white"/>
<path d="M4.65907 0.0654308L6.06525 3.95202L7.47143 0.0654308H8.20701V4.82879H7.63981V2.97383L7.69299 0.971647L6.2809 4.82879H5.84664L4.4375 0.981461L4.49363 2.97383V4.82879H3.92643V0.0654308H4.65907Z" fill="white"/>
<path d="M11.2767 2.62704H9.41266V4.31516H11.5781V4.82879H8.84546V0.0654308H11.5485V0.582334H9.41266V2.11341H11.2767V2.62704Z" fill="white"/>
<path d="M16.6034 2.60087C16.6034 3.06761 16.5325 3.47546 16.3907 3.82443C16.2489 4.17121 16.0481 4.43621 15.7881 4.61941C15.5281 4.80262 15.2248 4.89422 14.8782 4.89422C14.5513 4.89422 14.2578 4.80698 13.9979 4.6325C13.7399 4.45802 13.537 4.20829 13.3893 3.88332C13.2436 3.55834 13.1628 3.17884 13.1471 2.74482H12.5297V4.82879H11.9625V0.0654308H12.5297V2.25082H13.1441C13.15 1.80153 13.2239 1.40785 13.3657 1.06979C13.5075 0.729553 13.7094 0.466739 13.9713 0.281352C14.2332 0.0937841 14.5336 0 14.8723 0C15.217 0 15.5203 0.0926936 15.7822 0.278081C16.0461 0.461287 16.2489 0.728462 16.3907 1.07961C16.5325 1.42857 16.6034 1.83533 16.6034 2.29989V2.60087ZM16.0392 2.29335C16.0392 1.72846 15.9368 1.29553 15.732 0.994547C15.5271 0.691385 15.2406 0.539804 14.8723 0.539804C14.5139 0.539804 14.2313 0.691385 14.0245 0.994547C13.8196 1.29553 13.7143 1.71429 13.7084 2.25082V2.60087C13.7084 3.14831 13.8118 3.57906 14.0186 3.89313C14.2273 4.20502 14.5139 4.36096 14.8782 4.36096C15.2445 4.36096 15.5281 4.21374 15.729 3.9193C15.9299 3.62268 16.0333 3.19847 16.0392 2.64667V2.29335Z" fill="white"/>
<path d="M19.8534 0.582334H18.4708V4.82879H17.9066V0.582334H16.527V0.0654308H19.8534V0.582334Z" fill="white"/>
<path d="M23.2097 3.31734C23.1565 3.82116 22.9881 4.21047 22.7045 4.48528C22.4229 4.75791 22.0477 4.89422 21.579 4.89422C21.0708 4.89422 20.6632 4.69248 20.3559 4.28899C20.0507 3.8855 19.898 3.34569 19.898 2.66957V2.21156C19.898 1.76881 19.9689 1.3795 20.1107 1.04362C20.2545 0.707743 20.4574 0.450382 20.7193 0.271538C20.9812 0.0905125 21.2845 0 21.6292 0C22.0861 0 22.4524 0.141767 22.7281 0.4253C23.0038 0.706652 23.1644 1.09706 23.2097 1.59651H22.6395C22.5903 1.21701 22.4829 0.942203 22.3175 0.772083C22.154 0.601963 21.9246 0.516903 21.6292 0.516903C21.2668 0.516903 20.9822 0.665213 20.7754 0.961832C20.5706 1.25845 20.4682 1.68048 20.4682 2.22792V2.6892C20.4682 3.20611 20.5657 3.61723 20.7607 3.92257C20.9556 4.22792 21.2284 4.38059 21.579 4.38059C21.8941 4.38059 22.1353 4.30207 22.3027 4.14504C22.4721 3.98582 22.5844 3.70992 22.6395 3.31734H23.2097Z" fill="white"/>
<path d="M25.8747 4.82879V2.97383H24.8821L23.9929 4.82879H23.3873L24.3858 2.80044C23.8304 2.55834 23.5527 2.12541 23.5527 1.50164C23.5527 1.04798 23.6866 0.695747 23.9545 0.444929C24.2243 0.19193 24.5985 0.0654308 25.077 0.0654308H26.4448V4.82879H25.8747ZM24.1199 1.50164C24.1199 1.78953 24.2006 2.02072 24.3621 2.1952C24.5256 2.36968 24.7521 2.45802 25.0416 2.4602H25.8747V0.582334H25.0682C24.7609 0.582334 24.5256 0.663032 24.3621 0.824427C24.2006 0.985823 24.1199 1.21156 24.1199 1.50164Z" fill="white"/>
<path d="M31.5355 4.82879H30.9654V0.582334H28.8443V4.82879H28.2771V0.0654308H31.5355V4.82879Z" fill="white"/>
<path d="M32.7737 2.96401V4.82879H32.2065V0.0654308H33.7929C34.2636 0.0654308 34.6319 0.198473 34.8977 0.464558C35.1656 0.730643 35.2995 1.08288 35.2995 1.52127C35.2995 1.98364 35.1685 2.34024 34.9066 2.59106C34.6466 2.83969 34.2734 2.96401 33.787 2.96401H32.7737ZM32.7737 2.45038H33.7929C34.0962 2.45038 34.3286 2.37186 34.4901 2.21483C34.6516 2.05562 34.7323 1.82661 34.7323 1.52781C34.7323 1.24427 34.6516 1.01745 34.4901 0.847328C34.3286 0.677208 34.107 0.588877 33.8254 0.582334H32.7737V2.45038Z" fill="white"/>
<path d="M38.9689 2.60087C38.9689 3.06761 38.898 3.47546 38.7562 3.82443C38.6144 4.17121 38.4135 4.43621 38.1536 4.61941C37.8936 4.80262 37.5903 4.89422 37.2437 4.89422C36.9049 4.89422 36.6046 4.80262 36.3427 4.61941C36.0807 4.43402 35.8769 4.17121 35.7312 3.83097C35.5874 3.48855 35.5135 3.09269 35.5096 2.6434V2.29989C35.5096 1.84188 35.5815 1.4373 35.7253 1.08615C35.869 0.735005 36.0719 0.466739 36.3338 0.281352C36.5977 0.0937841 36.899 0 37.2378 0C37.5824 0 37.8857 0.0926936 38.1477 0.278081C38.4116 0.461287 38.6144 0.728462 38.7562 1.07961C38.898 1.42857 38.9689 1.83533 38.9689 2.29989V2.60087ZM38.4047 2.29335C38.4047 1.72846 38.3023 1.29553 38.0974 0.994547C37.8926 0.691385 37.6061 0.539804 37.2378 0.539804C36.8793 0.539804 36.5967 0.691385 36.3899 0.994547C36.1851 1.29553 36.0797 1.71429 36.0738 2.25082V2.60087C36.0738 3.14831 36.1772 3.57906 36.384 3.89313C36.5928 4.20502 36.8793 4.36096 37.2437 4.36096C37.61 4.36096 37.8936 4.21374 38.0945 3.9193C38.2954 3.62268 38.3988 3.19847 38.4047 2.64667V2.29335Z" fill="white"/>
<path d="M42.3459 0.582334H40.9633V4.82879H40.3991V0.582334H39.0195V0.0654308H42.3459V0.582334Z" fill="white"/>
<path d="M45.3329 0.0654308H45.9001V4.82879H45.3329V1.15812L43.2148 4.82879H42.6446V0.0654308H43.2148V3.7361L45.3329 0.0654308Z" fill="white"/>
<path d="M46.571 4.82879V0.0654308H47.9772C48.444 0.0654308 48.7945 0.172301 49.0289 0.386041C49.2652 0.599782 49.3834 0.916031 49.3834 1.33479C49.3834 1.55725 49.3263 1.75463 49.2121 1.92694C49.0978 2.09706 48.9422 2.22901 48.7453 2.32279C48.9777 2.39477 49.1608 2.53217 49.2948 2.73501C49.4307 2.93566 49.4986 3.17557 49.4986 3.45474C49.4986 3.88222 49.3735 4.2181 49.1234 4.46238C48.8733 4.70665 48.5198 4.82879 48.0629 4.82879H46.571ZM47.1382 2.60087V4.31516H48.0747C48.3386 4.31516 48.5464 4.23991 48.698 4.08942C48.8516 3.93675 48.9285 3.72737 48.9285 3.46129C48.9285 2.88768 48.6468 2.60087 48.0836 2.60087H47.1382ZM47.1382 2.09706H47.9949C48.2431 2.09706 48.441 2.02835 48.5887 1.89095C48.7384 1.75354 48.8132 1.56707 48.8132 1.33152C48.8132 1.06979 48.7443 0.880044 48.6065 0.762268C48.4686 0.642312 48.2588 0.582334 47.9772 0.582334H47.1382V2.09706Z" fill="white"/>
<path d="M53.2862 2.60087C53.2862 3.06761 53.2153 3.47546 53.0735 3.82443C52.9317 4.17121 52.7308 4.43621 52.4708 4.61941C52.2109 4.80262 51.9076 4.89422 51.561 4.89422C51.2222 4.89422 50.9219 4.80262 50.6599 4.61941C50.398 4.43402 50.1942 4.17121 50.0484 3.83097C49.9047 3.48855 49.8308 3.09269 49.8269 2.6434V2.29989C49.8269 1.84188 49.8988 1.4373 50.0425 1.08615C50.1863 0.735005 50.3892 0.466739 50.6511 0.281352C50.915 0.0937841 51.2163 0 51.5551 0C51.8997 0 52.203 0.0926936 52.4649 0.278081C52.7288 0.461287 52.9317 0.728462 53.0735 1.07961C53.2153 1.42857 53.2862 1.83533 53.2862 2.29989V2.60087ZM52.722 2.29335C52.722 1.72846 52.6195 1.29553 52.4147 0.994547C52.2099 0.691385 51.9233 0.539804 51.5551 0.539804C51.1966 0.539804 50.914 0.691385 50.7072 0.994547C50.5024 1.29553 50.397 1.71429 50.3911 2.25082V2.60087C50.3911 3.14831 50.4945 3.57906 50.7013 3.89313C50.9101 4.20502 51.1966 4.36096 51.561 4.36096C51.9273 4.36096 52.2109 4.21374 52.4118 3.9193C52.6126 3.62268 52.716 3.19847 52.722 2.64667V2.29335Z" fill="white"/>
<path d="M57.059 4.82879H56.4889V0.582334H54.3678V4.82879H53.8006V0.0654308H57.059V4.82879Z" fill="white"/>
<path d="M61.0386 2.60087C61.0386 3.06761 60.9677 3.47546 60.8259 3.82443C60.6841 4.17121 60.4832 4.43621 60.2233 4.61941C59.9633 4.80262 59.66 4.89422 59.3134 4.89422C58.9746 4.89422 58.6743 4.80262 58.4124 4.61941C58.1504 4.43402 57.9466 4.17121 57.8009 3.83097C57.6571 3.48855 57.5832 3.09269 57.5793 2.6434V2.29989C57.5793 1.84188 57.6512 1.4373 57.795 1.08615C57.9387 0.735005 58.1416 0.466739 58.4035 0.281352C58.6674 0.0937841 58.9687 0 59.3075 0C59.6521 0 59.9554 0.0926936 60.2174 0.278081C60.4813 0.461287 60.6841 0.728462 60.8259 1.07961C60.9677 1.42857 61.0386 1.83533 61.0386 2.29989V2.60087ZM60.4744 2.29335C60.4744 1.72846 60.372 1.29553 60.1671 0.994547C59.9623 0.691385 59.6758 0.539804 59.3075 0.539804C58.949 0.539804 58.6664 0.691385 58.4596 0.994547C58.2548 1.29553 58.1495 1.71429 58.1435 2.25082V2.60087C58.1435 3.14831 58.2469 3.57906 58.4537 3.89313C58.6625 4.20502 58.949 4.36096 59.3134 4.36096C59.6797 4.36096 59.9633 4.21374 60.1642 3.9193C60.3651 3.62268 60.4685 3.19847 60.4744 2.64667V2.29335Z" fill="white"/>
<path d="M62.6431 2.6892H62.1202V4.82879H61.553V0.0654308H62.1202V2.16576H62.5633L64.067 0.0654308H64.773L63.1305 2.37514L64.8942 4.82879H64.1999L62.6431 2.6892Z" fill="white"/>
<path d="M67.4262 3.58561H65.6242L65.2195 4.82879H64.6345L66.2771 0.0654308H66.7734L68.4188 4.82879H67.8369L67.4262 3.58561ZM65.7955 3.0687H67.2578L66.5252 0.840785L65.7955 3.0687Z" fill="white"/>
<path d="M70.8416 1.3446C70.8416 1.0916 70.7579 0.890949 70.5905 0.742639C70.4251 0.592148 70.1917 0.516903 69.8904 0.516903C69.6383 0.516903 69.4265 0.594329 69.2552 0.749182C69.0858 0.901854 69.0011 1.0916 69.0011 1.31843H68.4339C68.4339 1.06543 68.496 0.838604 68.6201 0.63795C68.7461 0.437296 68.9214 0.281352 69.1459 0.17012C69.3704 0.0567067 69.6186 0 69.8904 0C70.3709 0 70.7441 0.119956 71.01 0.359869C71.2759 0.597601 71.4088 0.929117 71.4088 1.35442C71.4088 1.5747 71.3477 1.77535 71.2256 1.95638C71.1035 2.1374 70.9332 2.28026 70.7146 2.38495C71.2207 2.57252 71.4738 2.94438 71.4738 3.50055C71.4738 3.92803 71.33 4.26718 71.0425 4.51799C70.7549 4.76881 70.3709 4.89422 69.8904 4.89422C69.6048 4.89422 69.3448 4.8386 69.1105 4.72737C68.8781 4.61396 68.6969 4.45365 68.5669 4.24646C68.4369 4.03926 68.3719 3.7928 68.3719 3.50709H68.9391C68.9391 3.75791 69.0287 3.96728 69.2079 4.13522C69.3872 4.30098 69.6146 4.38386 69.8904 4.38386C70.1996 4.38386 70.4457 4.30425 70.6289 4.14504C70.814 3.98582 70.9066 3.77535 70.9066 3.51363C70.9066 2.95529 70.5944 2.67067 69.9701 2.65976H69.4384V2.14286H69.9672C70.2547 2.13631 70.4723 2.06434 70.62 1.92694C70.7677 1.78953 70.8416 1.59542 70.8416 1.3446Z" fill="white"/>
<path d="M74.2392 3.58561H72.4372L72.0325 4.82879H71.4475L73.0901 0.0654308H73.5864L75.2318 4.82879H74.6499L74.2392 3.58561ZM72.6085 3.0687H74.0708L73.3382 0.840785L72.6085 3.0687Z" fill="white"/>
<path d="M78.7535 4.82879H78.1834V2.62704H76.015V4.82879H75.4478V0.0654308H76.015V2.11341H78.1834V0.0654308H78.7535V4.82879Z" fill="white"/>
<path d="M82.1098 0.0654308H82.677V4.82879H82.1098V1.15812L79.9917 4.82879H79.4215V0.0654308H79.9917V3.7361L82.1098 0.0654308Z" fill="white"/>
<path d="M85.599 4.82879V2.97383H84.6064L83.7172 4.82879H83.1116L84.1101 2.80044C83.5548 2.55834 83.2771 2.12541 83.2771 1.50164C83.2771 1.04798 83.411 0.695747 83.6788 0.444929C83.9486 0.19193 84.3228 0.0654308 84.8014 0.0654308H86.1692V4.82879H85.599ZM83.8443 1.50164C83.8443 1.78953 83.925 2.02072 84.0865 2.1952C84.25 2.36968 84.4765 2.45802 84.766 2.4602H85.599V0.582334H84.7926C84.4853 0.582334 84.25 0.663032 84.0865 0.824427C83.925 0.985823 83.8443 1.21156 83.8443 1.50164Z" fill="white"/>
<path d="M86.7633 4.51145C86.7633 4.40676 86.7909 4.31952 86.846 4.24973C86.9032 4.17993 86.9878 4.14504 87.1001 4.14504C87.2124 4.14504 87.2971 4.17993 87.3542 4.24973C87.4132 4.31952 87.4428 4.40676 87.4428 4.51145C87.4428 4.61178 87.4132 4.69575 87.3542 4.76336C87.2971 4.83097 87.2124 4.86478 87.1001 4.86478C86.9878 4.86478 86.9032 4.83097 86.846 4.76336C86.7909 4.69575 86.7633 4.61178 86.7633 4.51145Z" fill="white"/>
<path d="M92.4922 4.82879H91.922V0.582334H89.8009V4.82879H89.2337V0.0654308H92.4922V4.82879Z" fill="white"/>
<path d="M95.5944 2.62704H93.7303V4.31516H95.8957V4.82879H93.1631V0.0654308H95.8662V0.582334H93.7303V2.11341H95.5944V2.62704Z" fill="white"/>
<path d="M96.8059 2.96401V4.82879H96.2387V0.0654308H97.8251C98.2958 0.0654308 98.6641 0.198473 98.93 0.464558C99.1978 0.730643 99.3317 1.08288 99.3317 1.52127C99.3317 1.98364 99.2008 2.34024 98.9388 2.59106C98.6789 2.83969 98.3057 2.96401 97.8192 2.96401H96.8059ZM96.8059 2.45038H97.8251C98.1284 2.45038 98.3608 2.37186 98.5223 2.21483C98.6838 2.05562 98.7646 1.82661 98.7646 1.52781C98.7646 1.24427 98.6838 1.01745 98.5223 0.847328C98.3608 0.677208 98.1393 0.588877 97.8576 0.582334H96.8059V2.45038Z" fill="white"/>
<path d="M102.124 2.62704H100.26V4.31516H102.425V4.82879H99.6925V0.0654308H102.396V0.582334H100.26V2.11341H102.124V2.62704Z" fill="white"/>
<path d="M106.638 5.99673H106.074V4.82879H102.987V6H102.42L102.417 4.31516H102.768C102.953 4.08397 103.1 3.77426 103.208 3.38604C103.319 2.99564 103.388 2.56816 103.415 2.1036L103.51 0.0654308H106.083V4.31516H106.644L106.638 5.99673ZM103.415 4.31516H105.513V0.582334H104.056L103.994 1.98255C103.969 2.52999 103.903 2.99673 103.796 3.38277C103.692 3.76881 103.565 4.07961 103.415 4.31516Z" fill="white"/>
<path d="M111.377 4.82879H110.807V0.582334H108.686V4.82879H108.119V0.0654308H111.377V4.82879Z" fill="white"/>
<path d="M112.615 2.96401V4.82879H112.048V0.0654308H113.635C114.105 0.0654308 114.474 0.198473 114.739 0.464558C115.007 0.730643 115.141 1.08288 115.141 1.52127C115.141 1.98364 115.01 2.34024 114.748 2.59106C114.488 2.83969 114.115 2.96401 113.629 2.96401H112.615ZM112.615 2.45038H113.635C113.938 2.45038 114.17 2.37186 114.332 2.21483C114.493 2.05562 114.574 1.82661 114.574 1.52781C114.574 1.24427 114.493 1.01745 114.332 0.847328C114.17 0.677208 113.949 0.588877 113.667 0.582334H112.615V2.45038Z" fill="white"/>
<path d="M118.214 0.0654308H118.781V4.82879H118.214V1.15812L116.096 4.82879H115.526V0.0654308H116.096V3.7361L118.214 0.0654308Z" fill="white"/>
<path d="M120.185 0.0654308L121.591 3.95202L122.997 0.0654308H123.733V4.82879H123.165V2.97383L123.219 0.971647L121.807 4.82879H121.372L119.963 0.981461L120.019 2.97383V4.82879H119.452V0.0654308H120.185Z" fill="white"/>
<path d="M126.802 2.62704H124.938V4.31516H127.104V4.82879H124.371V0.0654308H127.074V0.582334H124.938V2.11341H126.802V2.62704Z" fill="white"/>
<path d="M130.752 4.82879H130.182V2.62704H128.014V4.82879H127.447V0.0654308H128.014V2.11341H130.182V0.0654308H130.752V4.82879Z" fill="white"/>
<path d="M133.828 2.62704H131.964V4.31516H134.129V4.82879H131.397V0.0654308H134.1V0.582334H131.964V2.11341H133.828V2.62704Z" fill="white"/>
<path d="M137.778 4.82879H137.208V2.62704H135.04V4.82879H134.472V0.0654308H135.04V2.11341H137.208V0.0654308H137.778V4.82879Z" fill="white"/>
<path d="M141.134 0.0654308H141.702V4.82879H141.134V1.15812L139.016 4.82879H138.446V0.0654308H139.016V3.7361L141.134 0.0654308Z" fill="white"/>
<path d="M144.804 2.62704H142.94V4.31516H145.105V4.82879H142.373V0.0654308H145.076V0.582334H142.94V2.11341H144.804V2.62704Z" fill="white"/>
<path d="M146.181 0.0654308L147.587 3.95202L148.993 0.0654308H149.729V4.82879H149.162V2.97383L149.215 0.971647L147.803 4.82879H147.368L145.959 0.981461L146.015 2.97383V4.82879H145.448V0.0654308H146.181Z" fill="white"/>
<path d="M154.811 4.82879H154.24V2.62704H152.072V4.82879H151.505V0.0654308H152.072V2.11341H154.24V0.0654308H154.811V4.82879Z" fill="white"/>
<path d="M157.886 2.62704H156.022V4.31516H158.188V4.82879H155.455V0.0654308H158.158V0.582334H156.022V2.11341H157.886V2.62704Z" fill="white"/>
<path d="M161.839 2.60087C161.839 3.06761 161.768 3.47546 161.627 3.82443C161.485 4.17121 161.284 4.43621 161.024 4.61941C160.764 4.80262 160.461 4.89422 160.114 4.89422C159.775 4.89422 159.475 4.80262 159.213 4.61941C158.951 4.43402 158.747 4.17121 158.602 3.83097C158.458 3.48855 158.384 3.09269 158.38 2.6434V2.29989C158.38 1.84188 158.452 1.4373 158.596 1.08615C158.739 0.735005 158.942 0.466739 159.204 0.281352C159.468 0.0937841 159.769 0 160.108 0C160.453 0 160.756 0.0926936 161.018 0.278081C161.282 0.461287 161.485 0.728462 161.627 1.07961C161.768 1.42857 161.839 1.83533 161.839 2.29989V2.60087ZM161.275 2.29335C161.275 1.72846 161.173 1.29553 160.968 0.994547C160.763 0.691385 160.476 0.539804 160.108 0.539804C159.75 0.539804 159.467 0.691385 159.26 0.994547C159.055 1.29553 158.95 1.71429 158.944 2.25082V2.60087C158.944 3.14831 159.048 3.57906 159.254 3.89313C159.463 4.20502 159.75 4.36096 160.114 4.36096C160.48 4.36096 160.764 4.21374 160.965 3.9193C161.166 3.62268 161.269 3.19847 161.275 2.64667V2.29335Z" fill="white"/>
<path d="M164.95 0.582334H162.877V2.00872H163.946C164.395 2.01527 164.746 2.14286 164.998 2.39149C165.25 2.64013 165.376 2.97819 165.376 3.40567C165.376 3.83533 165.249 4.17775 164.995 4.43293C164.741 4.68811 164.394 4.82007 163.955 4.82879H162.306V0.0654308H164.95V0.582334ZM162.877 2.52563V4.31516H163.913C164.195 4.31516 164.414 4.23228 164.569 4.06652C164.727 3.90076 164.806 3.6783 164.806 3.39913C164.806 3.13086 164.73 2.9193 164.578 2.76445C164.428 2.6096 164.215 2.52999 163.937 2.52563H162.877Z" fill="white"/>
<path d="M167.143 1.89095L168.174 0.0654308H168.841L167.482 2.42748L168.874 4.82879H168.2L167.143 2.97056L166.079 4.82879H165.409L166.803 2.42748L165.441 0.0654308H166.106L167.143 1.89095Z" fill="white"/>
<path d="M172.401 2.60087C172.401 3.06761 172.331 3.47546 172.189 3.82443C172.047 4.17121 171.846 4.43621 171.586 4.61941C171.326 4.80262 171.023 4.89422 170.676 4.89422C170.338 4.89422 170.037 4.80262 169.775 4.61941C169.513 4.43402 169.309 4.17121 169.164 3.83097C169.02 3.48855 168.946 3.09269 168.942 2.6434V2.29989C168.942 1.84188 169.014 1.4373 169.158 1.08615C169.302 0.735005 169.504 0.466739 169.766 0.281352C170.03 0.0937841 170.332 0 170.67 0C171.015 0 171.318 0.0926936 171.58 0.278081C171.844 0.461287 172.047 0.728462 172.189 1.07961C172.331 1.42857 172.401 1.83533 172.401 2.29989V2.60087ZM171.837 2.29335C171.837 1.72846 171.735 1.29553 171.53 0.994547C171.325 0.691385 171.039 0.539804 170.67 0.539804C170.312 0.539804 170.029 0.691385 169.822 0.994547C169.618 1.29553 169.512 1.71429 169.506 2.25082V2.60087C169.506 3.14831 169.61 3.57906 169.817 3.89313C170.025 4.20502 170.312 4.36096 170.676 4.36096C171.043 4.36096 171.326 4.21374 171.527 3.9193C171.728 3.62268 171.831 3.19847 171.837 2.64667V2.29335Z" fill="white"/>
<path d="M176.659 5.99673H176.095V4.82879H173.007V6H172.44L172.437 4.31516H172.789C172.974 4.08397 173.121 3.77426 173.229 3.38604C173.339 2.99564 173.408 2.56816 173.436 2.1036L173.53 0.0654308H176.103V4.31516H176.665L176.659 5.99673ZM173.436 4.31516H175.533V0.582334H174.077L174.015 1.98255C173.989 2.52999 173.923 2.99673 173.817 3.38277C173.712 3.76881 173.585 4.07961 173.436 4.31516Z" fill="white"/>
<path d="M179.687 0.0654308H180.254V4.82879H179.687V1.15812L177.569 4.82879H176.999V0.0654308H177.569V3.7361L179.687 0.0654308Z" fill="white"/>
<path d="M181.658 0.0654308L183.064 3.95202L184.47 0.0654308H185.206V4.82879H184.639V2.97383L184.692 0.971647L183.28 4.82879H182.845L181.436 0.981461L181.492 2.97383V4.82879H180.925V0.0654308H181.658Z" fill="white"/>
<path d="M189.153 2.60087C189.153 3.06761 189.082 3.47546 188.94 3.82443C188.798 4.17121 188.598 4.43621 188.338 4.61941C188.078 4.80262 187.774 4.89422 187.428 4.89422C187.089 4.89422 186.789 4.80262 186.527 4.61941C186.265 4.43402 186.061 4.17121 185.915 3.83097C185.771 3.48855 185.698 3.09269 185.694 2.6434V2.29989C185.694 1.84188 185.766 1.4373 185.909 1.08615C186.053 0.735005 186.256 0.466739 186.518 0.281352C186.782 0.0937841 187.083 0 187.422 0C187.767 0 188.07 0.0926936 188.332 0.278081C188.596 0.461287 188.798 0.728462 188.94 1.07961C189.082 1.42857 189.153 1.83533 189.153 2.29989V2.60087ZM188.589 2.29335C188.589 1.72846 188.486 1.29553 188.282 0.994547C188.077 0.691385 187.79 0.539804 187.422 0.539804C187.063 0.539804 186.781 0.691385 186.574 0.994547C186.369 1.29553 186.264 1.71429 186.258 2.25082V2.60087C186.258 3.14831 186.361 3.57906 186.568 3.89313C186.777 4.20502 187.063 4.36096 187.428 4.36096C187.794 4.36096 188.078 4.21374 188.279 3.9193C188.479 3.62268 188.583 3.19847 188.589 2.64667V2.29335Z" fill="white"/>
<path d="M194.064 4.82879H193.493V0.582334H191.372V4.82879H190.805V0.0654308H194.064V4.82879Z" fill="white"/>
<path d="M195.302 2.96401V4.82879H194.734V0.0654308H196.321C196.792 0.0654308 197.16 0.198473 197.426 0.464558C197.694 0.730643 197.827 1.08288 197.827 1.52127C197.827 1.98364 197.697 2.34024 197.435 2.59106C197.175 2.83969 196.801 2.96401 196.315 2.96401H195.302ZM195.302 2.45038H196.321C196.624 2.45038 196.857 2.37186 197.018 2.21483C197.18 2.05562 197.26 1.82661 197.26 1.52781C197.26 1.24427 197.18 1.01745 197.018 0.847328C196.857 0.677208 196.635 0.588877 196.353 0.582334H195.302V2.45038Z" fill="white"/>
<path d="M201.497 2.60087C201.497 3.06761 201.426 3.47546 201.284 3.82443C201.142 4.17121 200.942 4.43621 200.682 4.61941C200.422 4.80262 200.118 4.89422 199.772 4.89422C199.433 4.89422 199.133 4.80262 198.871 4.61941C198.609 4.43402 198.405 4.17121 198.259 3.83097C198.115 3.48855 198.041 3.09269 198.038 2.6434V2.29989C198.038 1.84188 198.109 1.4373 198.253 1.08615C198.397 0.735005 198.6 0.466739 198.862 0.281352C199.126 0.0937841 199.427 0 199.766 0C200.11 0 200.414 0.0926936 200.676 0.278081C200.94 0.461287 201.142 0.728462 201.284 1.07961C201.426 1.42857 201.497 1.83533 201.497 2.29989V2.60087ZM200.933 2.29335C200.933 1.72846 200.83 1.29553 200.625 0.994547C200.421 0.691385 200.134 0.539804 199.766 0.539804C199.407 0.539804 199.125 0.691385 198.918 0.994547C198.713 1.29553 198.608 1.71429 198.602 2.25082V2.60087C198.602 3.14831 198.705 3.57906 198.912 3.89313C199.121 4.20502 199.407 4.36096 199.772 4.36096C200.138 4.36096 200.422 4.21374 200.622 3.9193C200.823 3.62268 200.927 3.19847 200.933 2.64667V2.29335Z" fill="white"/>
<path d="M203.101 2.6892H202.578V4.82879H202.011V0.0654308H202.578V2.16576H203.022L204.525 0.0654308H205.231L203.589 2.37514L205.352 4.82879H204.658L203.101 2.6892Z" fill="white"/>
<path d="M208.723 2.60087C208.723 3.06761 208.653 3.47546 208.511 3.82443C208.369 4.17121 208.168 4.43621 207.908 4.61941C207.648 4.80262 207.345 4.89422 206.998 4.89422C206.659 4.89422 206.359 4.80262 206.097 4.61941C205.835 4.43402 205.631 4.17121 205.486 3.83097C205.342 3.48855 205.268 3.09269 205.264 2.6434V2.29989C205.264 1.84188 205.336 1.4373 205.48 1.08615C205.624 0.735005 205.826 0.466739 206.088 0.281352C206.352 0.0937841 206.654 0 206.992 0C207.337 0 207.64 0.0926936 207.902 0.278081C208.166 0.461287 208.369 0.728462 208.511 1.07961C208.653 1.42857 208.723 1.83533 208.723 2.29989V2.60087ZM208.159 2.29335C208.159 1.72846 208.057 1.29553 207.852 0.994547C207.647 0.691385 207.361 0.539804 206.992 0.539804C206.634 0.539804 206.351 0.691385 206.144 0.994547C205.94 1.29553 205.834 1.71429 205.828 2.25082V2.60087C205.828 3.14831 205.932 3.57906 206.139 3.89313C206.347 4.20502 206.634 4.36096 206.998 4.36096C207.365 4.36096 207.648 4.21374 207.849 3.9193C208.05 3.62268 208.153 3.19847 208.159 2.64667V2.29335Z" fill="white"/>
<path d="M212.517 4.82879H211.947V2.62704H209.778V4.82879H209.211V0.0654308H209.778V2.11341H211.947V0.0654308H212.517V4.82879Z" fill="white"/>
<path d="M216.325 3.31734C216.272 3.82116 216.104 4.21047 215.82 4.48528C215.538 4.75791 215.163 4.89422 214.695 4.89422C214.186 4.89422 213.779 4.69248 213.472 4.28899C213.166 3.8855 213.014 3.34569 213.014 2.66957V2.21156C213.014 1.76881 213.085 1.3795 213.226 1.04362C213.37 0.707743 213.573 0.450382 213.835 0.271538C214.097 0.0905125 214.4 0 214.745 0C215.202 0 215.568 0.141767 215.844 0.4253C216.119 0.706652 216.28 1.09706 216.325 1.59651H215.755C215.706 1.21701 215.599 0.942203 215.433 0.772083C215.27 0.601963 215.04 0.516903 214.745 0.516903C214.382 0.516903 214.098 0.665213 213.891 0.961832C213.686 1.25845 213.584 1.68048 213.584 2.22792V2.6892C213.584 3.20611 213.681 3.61723 213.876 3.92257C214.071 4.22792 214.344 4.38059 214.695 4.38059C215.01 4.38059 215.251 4.30207 215.418 4.14504C215.588 3.98582 215.7 3.70992 215.755 3.31734H216.325Z" fill="white"/>
<path d="M218.216 2.82988L219.206 0.0654308H219.865L218.343 4.03381C218.241 4.2868 218.145 4.46674 218.057 4.57361C217.968 4.6783 217.864 4.759 217.744 4.8157C217.625 4.87023 217.477 4.89749 217.298 4.89749C217.142 4.89749 217.042 4.88768 216.999 4.86805L217.017 4.37077L217.286 4.38386C217.492 4.38386 217.646 4.27372 217.747 4.05344L217.82 3.88332L217.933 3.59215L216.467 0.0654308H217.103L218.216 2.82988Z" fill="white"/>
<path d="M223.274 0.0654308V4.82879H222.707V0.582334H221.165L221.088 2.47001C221.059 3.10251 220.999 3.57797 220.911 3.8964C220.824 4.21483 220.696 4.44929 220.527 4.59978C220.357 4.74809 220.131 4.82443 219.847 4.82879H219.661V4.31516L219.779 4.30862C219.963 4.29335 220.103 4.22792 220.202 4.11232C220.3 3.99455 220.375 3.80807 220.426 3.55289C220.478 3.29771 220.514 2.90513 220.536 2.37514L220.624 0.0654308H223.274Z" fill="white"/>
<path d="M224.492 2.00872H225.561C226.01 2.01527 226.361 2.14286 226.613 2.39149C226.865 2.64013 226.991 2.97819 226.991 3.40567C226.991 3.83533 226.864 4.17775 226.61 4.43293C226.356 4.68811 226.009 4.82007 225.57 4.82879H223.924V0.0654308H224.492V2.00872ZM224.492 2.52563V4.31516H225.528C225.81 4.31516 226.029 4.23228 226.184 4.06652C226.342 3.90076 226.421 3.6783 226.421 3.39913C226.421 3.13086 226.345 2.9193 226.193 2.76445C226.044 2.6096 225.83 2.52999 225.552 2.52563H224.492Z" fill="white"/>
<path d="M229.558 0.582334H228.176V4.82879H227.612V0.582334H226.232V0.0654308H229.558V0.582334Z" fill="white"/>
<path d="M232.545 0.0654308H233.113V4.82879H232.545V1.15812L230.427 4.82879H229.857V0.0654308H230.427V3.7361L232.545 0.0654308Z" fill="white"/>
<path d="M234.351 2.96401V4.82879H233.783V0.0654308H235.37C235.841 0.0654308 236.209 0.198473 236.475 0.464558C236.743 0.730643 236.876 1.08288 236.876 1.52127C236.876 1.98364 236.746 2.34024 236.484 2.59106C236.224 2.83969 235.85 2.96401 235.364 2.96401H234.351ZM234.351 2.45038H235.37C235.673 2.45038 235.906 2.37186 236.067 2.21483C236.229 2.05562 236.309 1.82661 236.309 1.52781C236.309 1.24427 236.229 1.01745 236.067 0.847328C235.906 0.677208 235.684 0.588877 235.402 0.582334H234.351V2.45038Z" fill="white"/>
<path d="M240.546 2.60087C240.546 3.06761 240.475 3.47546 240.333 3.82443C240.191 4.17121 239.991 4.43621 239.731 4.61941C239.471 4.80262 239.167 4.89422 238.821 4.89422C238.482 4.89422 238.182 4.80262 237.92 4.61941C237.658 4.43402 237.454 4.17121 237.308 3.83097C237.164 3.48855 237.091 3.09269 237.087 2.6434V2.29989C237.087 1.84188 237.158 1.4373 237.302 1.08615C237.446 0.735005 237.649 0.466739 237.911 0.281352C238.175 0.0937841 238.476 0 238.815 0C239.159 0 239.463 0.0926936 239.725 0.278081C239.989 0.461287 240.191 0.728462 240.333 1.07961C240.475 1.42857 240.546 1.83533 240.546 2.29989V2.60087ZM239.982 2.29335C239.982 1.72846 239.879 1.29553 239.674 0.994547C239.47 0.691385 239.183 0.539804 238.815 0.539804C238.456 0.539804 238.174 0.691385 237.967 0.994547C237.762 1.29553 237.657 1.71429 237.651 2.25082V2.60087C237.651 3.14831 237.754 3.57906 237.961 3.89313C238.17 4.20502 238.456 4.36096 238.821 4.36096C239.187 4.36096 239.471 4.21374 239.671 3.9193C239.872 3.62268 239.976 3.19847 239.982 2.64667V2.29335Z" fill="white"/>
<path d="M241.034 4.82879V0.0654308H242.44C242.907 0.0654308 243.257 0.172301 243.492 0.386041C243.728 0.599782 243.846 0.916031 243.846 1.33479C243.846 1.55725 243.789 1.75463 243.675 1.92694C243.56 2.09706 243.405 2.22901 243.208 2.32279C243.44 2.39477 243.624 2.53217 243.757 2.73501C243.893 2.93566 243.961 3.17557 243.961 3.45474C243.961 3.88222 243.836 4.2181 243.586 4.46238C243.336 4.70665 242.982 4.82879 242.526 4.82879H241.034ZM241.601 2.60087V4.31516H242.537C242.801 4.31516 243.009 4.23991 243.161 4.08942C243.314 3.93675 243.391 3.72737 243.391 3.46129C243.391 2.88768 243.109 2.60087 242.546 2.60087H241.601ZM241.601 2.09706H242.458C242.706 2.09706 242.904 2.02835 243.051 1.89095C243.201 1.75354 243.276 1.56707 243.276 1.33152C243.276 1.06979 243.207 0.880044 243.069 0.762268C242.931 0.642312 242.722 0.582334 242.44 0.582334H241.601V2.09706Z" fill="white"/>
<path d="M246.815 3.58561H245.013L244.609 4.82879H244.024L245.666 0.0654308H246.162L247.808 4.82879H247.226L246.815 3.58561ZM245.185 3.0687H246.647L245.914 0.840785L245.185 3.0687Z" fill="white"/>
<path d="M250.612 0.582334H249.229V4.82879H248.665V0.582334H247.285V0.0654308H250.612V0.582334Z" fill="white"/>
<path d="M251.484 2.00872H252.553C253.002 2.01527 253.353 2.14286 253.605 2.39149C253.857 2.64013 253.983 2.97819 253.983 3.40567C253.983 3.83533 253.856 4.17775 253.602 4.43293C253.348 4.68811 253.001 4.82007 252.562 4.82879H250.916V0.0654308H251.484V2.00872ZM251.484 2.52563V4.31516H252.521C252.802 4.31516 253.021 4.23228 253.176 4.06652C253.334 3.90076 253.413 3.6783 253.413 3.39913C253.413 3.13086 253.337 2.9193 253.185 2.76445C253.036 2.6096 252.822 2.52999 252.544 2.52563H251.484Z" fill="white"/>
<path d="M257.534 3.31734C257.481 3.82116 257.313 4.21047 257.029 4.48528C256.747 4.75791 256.372 4.89422 255.903 4.89422C255.395 4.89422 254.988 4.69248 254.68 4.28899C254.375 3.8855 254.223 3.34569 254.223 2.66957V2.21156C254.223 1.76881 254.293 1.3795 254.435 1.04362C254.579 0.707743 254.782 0.450382 255.044 0.271538C255.306 0.0905125 255.609 0 255.954 0C256.411 0 256.777 0.141767 257.053 0.4253C257.328 0.706652 257.489 1.09706 257.534 1.59651H256.964C256.915 1.21701 256.807 0.942203 256.642 0.772083C256.478 0.601963 256.249 0.516903 255.954 0.516903C255.591 0.516903 255.307 0.665213 255.1 0.961832C254.895 1.25845 254.793 1.68048 254.793 2.22792V2.6892C254.793 3.20611 254.89 3.61723 255.085 3.92257C255.28 4.22792 255.553 4.38059 255.903 4.38059C256.219 4.38059 256.46 4.30207 256.627 4.14504C256.797 3.98582 256.909 3.70992 256.964 3.31734H257.534Z" fill="white"/>
<path d="M260.199 4.82879V2.97383H259.207L258.317 4.82879H257.712L258.71 2.80044C258.155 2.55834 257.877 2.12541 257.877 1.50164C257.877 1.04798 258.011 0.695747 258.279 0.444929C258.549 0.19193 258.923 0.0654308 259.401 0.0654308H260.769V4.82879H260.199ZM258.444 1.50164C258.444 1.78953 258.525 2.02072 258.687 2.1952C258.85 2.36968 259.077 2.45802 259.366 2.4602H260.199V0.582334H259.393C259.085 0.582334 258.85 0.663032 258.687 0.824427C258.525 0.985823 258.444 1.21156 258.444 1.50164Z" fill="white"/>
<path d="M265.739 3.31734C265.686 3.82116 265.517 4.21047 265.234 4.48528C264.952 4.75791 264.577 4.89422 264.108 4.89422C263.6 4.89422 263.192 4.69248 262.885 4.28899C262.58 3.8855 262.427 3.34569 262.427 2.66957V2.21156C262.427 1.76881 262.498 1.3795 262.64 1.04362C262.784 0.707743 262.987 0.450382 263.249 0.271538C263.51 0.0905125 263.814 0 264.158 0C264.615 0 264.982 0.141767 265.257 0.4253C265.533 0.706652 265.694 1.09706 265.739 1.59651H265.169C265.119 1.21701 265.012 0.942203 264.847 0.772083C264.683 0.601963 264.454 0.516903 264.158 0.516903C263.796 0.516903 263.511 0.665213 263.305 0.961832C263.1 1.25845 262.997 1.68048 262.997 2.22792V2.6892C262.997 3.20611 263.095 3.61723 263.29 3.92257C263.485 4.22792 263.758 4.38059 264.108 4.38059C264.423 4.38059 264.665 4.30207 264.832 4.14504C265.001 3.98582 265.114 3.70992 265.169 3.31734H265.739Z" fill="white"/>
<path d="M269.461 2.60087C269.461 3.06761 269.391 3.47546 269.249 3.82443C269.107 4.17121 268.906 4.43621 268.646 4.61941C268.386 4.80262 268.083 4.89422 267.736 4.89422C267.398 4.89422 267.097 4.80262 266.835 4.61941C266.573 4.43402 266.369 4.17121 266.224 3.83097C266.08 3.48855 266.006 3.09269 266.002 2.6434V2.29989C266.002 1.84188 266.074 1.4373 266.218 1.08615C266.362 0.735005 266.564 0.466739 266.826 0.281352C267.09 0.0937841 267.392 0 267.73 0C268.075 0 268.378 0.0926936 268.64 0.278081C268.904 0.461287 269.107 0.728462 269.249 1.07961C269.391 1.42857 269.461 1.83533 269.461 2.29989V2.60087ZM268.897 2.29335C268.897 1.72846 268.795 1.29553 268.59 0.994547C268.385 0.691385 268.099 0.539804 267.73 0.539804C267.372 0.539804 267.089 0.691385 266.882 0.994547C266.678 1.29553 266.572 1.71429 266.566 2.25082V2.60087C266.566 3.14831 266.67 3.57906 266.877 3.89313C267.085 4.20502 267.372 4.36096 267.736 4.36096C268.103 4.36096 268.386 4.21374 268.587 3.9193C268.788 3.62268 268.891 3.19847 268.897 2.64667V2.29335Z" fill="white"/>
<path d="M274.251 3.31734C274.198 3.82116 274.029 4.21047 273.746 4.48528C273.464 4.75791 273.089 4.89422 272.62 4.89422C272.112 4.89422 271.704 4.69248 271.397 4.28899C271.092 3.8855 270.939 3.34569 270.939 2.66957V2.21156C270.939 1.76881 271.01 1.3795 271.152 1.04362C271.296 0.707743 271.499 0.450382 271.761 0.271538C272.022 0.0905125 272.326 0 272.67 0C273.127 0 273.494 0.141767 273.769 0.4253C274.045 0.706652 274.206 1.09706 274.251 1.59651H273.681C273.631 1.21701 273.524 0.942203 273.359 0.772083C273.195 0.601963 272.966 0.516903 272.67 0.516903C272.308 0.516903 272.023 0.665213 271.817 0.961832C271.612 1.25845 271.509 1.68048 271.509 2.22792V2.6892C271.509 3.20611 271.607 3.61723 271.802 3.92257C271.997 4.22792 272.27 4.38059 272.62 4.38059C272.935 4.38059 273.177 4.30207 273.344 4.14504C273.513 3.98582 273.626 3.70992 273.681 3.31734H274.251Z" fill="white"/>
<path d="M277.95 4.82879H277.38V0.582334H275.259V4.82879H274.691V0.0654308H277.95V4.82879Z" fill="white"/>
<path d="M281.052 2.62704H279.188V4.31516H281.353V4.82879H278.621V0.0654308H281.324V0.582334H279.188V2.11341H281.052V2.62704Z" fill="white"/>
<path d="M281.714 0.0654308H282.284V4.31516H284.405V0.0654308H284.973V4.30207H285.425L285.371 5.9771H284.86V4.82879H281.714V0.0654308Z" fill="white"/>
<path d="M288.471 0.0654308H289.038V4.82879H288.471V1.15812L286.353 4.82879H285.782V0.0654308H286.353V3.7361L288.471 0.0654308Z" fill="white"/>
<path d="M292.137 3.58561H290.335L289.93 4.82879H289.345L290.988 0.0654308H291.484L293.13 4.82879H292.548L292.137 3.58561ZM290.506 3.0687H291.969L291.236 0.840785L290.506 3.0687Z" fill="white"/>
<path d="M296.651 0.0654308V4.82879H296.084V0.582334H294.542L294.465 2.47001C294.436 3.10251 294.377 3.57797 294.288 3.8964C294.201 4.21483 294.073 4.44929 293.904 4.59978C293.735 4.74809 293.508 4.82443 293.225 4.82879H293.039V4.31516L293.157 4.30862C293.34 4.29335 293.481 4.22792 293.579 4.11232C293.678 3.99455 293.752 3.80807 293.804 3.55289C293.855 3.29771 293.891 2.90513 293.913 2.37514L294.002 0.0654308H296.651Z" fill="white"/>
<path d="M300.031 0.0654308H300.599V4.82879H300.031V1.15812L297.913 4.82879H297.343V0.0654308H297.913V3.7361L300.031 0.0654308Z" fill="white"/>
<path d="M304.433 3.31734C304.38 3.82116 304.212 4.21047 303.928 4.48528C303.647 4.75791 303.271 4.89422 302.803 4.89422C302.295 4.89422 301.887 4.69248 301.58 4.28899C301.274 3.8855 301.122 3.34569 301.122 2.66957V2.21156C301.122 1.76881 301.193 1.3795 301.335 1.04362C301.478 0.707743 301.681 0.450382 301.943 0.271538C302.205 0.0905125 302.508 0 302.853 0C303.31 0 303.676 0.141767 303.952 0.4253C304.228 0.706652 304.388 1.09706 304.433 1.59651H303.863C303.814 1.21701 303.707 0.942203 303.541 0.772083C303.378 0.601963 303.148 0.516903 302.853 0.516903C302.491 0.516903 302.206 0.665213 301.999 0.961832C301.794 1.25845 301.692 1.68048 301.692 2.22792V2.6892C301.692 3.20611 301.789 3.61723 301.984 3.92257C302.179 4.22792 302.452 4.38059 302.803 4.38059C303.118 4.38059 303.359 4.30207 303.527 4.14504C303.696 3.98582 303.808 3.70992 303.863 3.31734H304.433Z" fill="white"/>
<path d="M307.731 0.582334H306.348V4.82879H305.784V0.582334H304.404V0.0654308H307.731V0.582334Z" fill="white"/>
<path d="M311.232 2.60087C311.232 3.06761 311.161 3.47546 311.019 3.82443C310.877 4.17121 310.676 4.43621 310.416 4.61941C310.156 4.80262 309.853 4.89422 309.506 4.89422C309.168 4.89422 308.867 4.80262 308.605 4.61941C308.343 4.43402 308.14 4.17121 307.994 3.83097C307.85 3.48855 307.776 3.09269 307.772 2.6434V2.29989C307.772 1.84188 307.844 1.4373 307.988 1.08615C308.132 0.735005 308.335 0.466739 308.597 0.281352C308.86 0.0937841 309.162 0 309.501 0C309.845 0 310.148 0.0926936 310.41 0.278081C310.674 0.461287 310.877 0.728462 311.019 1.07961C311.161 1.42857 311.232 1.83533 311.232 2.29989V2.60087ZM310.667 2.29335C310.667 1.72846 310.565 1.29553 310.36 0.994547C310.155 0.691385 309.869 0.539804 309.501 0.539804C309.142 0.539804 308.859 0.691385 308.653 0.994547C308.448 1.29553 308.342 1.71429 308.337 2.25082V2.60087C308.337 3.14831 308.44 3.57906 308.647 3.89313C308.856 4.20502 309.142 4.36096 309.506 4.36096C309.873 4.36096 310.156 4.21374 310.357 3.9193C310.558 3.62268 310.661 3.19847 310.667 2.64667V2.29335Z" fill="white"/>
<path d="M312.452 0.0654308L313.858 3.95202L315.264 0.0654308H316V4.82879H315.433V2.97383L315.486 0.971647L314.074 4.82879H313.64L312.231 0.981461L312.287 2.97383V4.82879H311.719V0.0654308H312.452Z" fill="white"/>
</svg>
