<svg width="1795" height="1795" viewBox="0 0 1795 1795" fill="none" xmlns="http://www.w3.org/2000/svg">
<g filter="url(#filter0_f_19_3)">
<path d="M300.683 897.709C300.683 1227.46 567.973 1494.75 897.699 1494.75C1227.45 1494.75 1494.74 1227.46 1494.74 897.709C1494.74 567.94 1227.45 300.603 897.699 300.603C567.973 300.603 300.683 567.94 300.683 897.709" fill="url(#paint0_radial_19_3)"/>
</g>
<path d="M897.705 612.585C740.267 612.585 612.641 740.233 612.641 897.693C612.641 1055.14 740.267 1182.77 897.705 1182.77C1055.15 1182.77 1182.78 1055.14 1182.78 897.693C1182.78 740.233 1055.15 612.585 897.705 612.585Z" fill="#E62A30"/>
<path d="M897.725 678.743C776.814 678.743 678.773 776.752 678.773 897.673C678.773 1018.58 776.814 1116.62 897.725 1116.62C1018.63 1116.62 1116.64 1018.58 1116.64 897.673C1116.64 776.752 1018.63 678.743 897.725 678.743Z" fill="#FAB600"/>
<path d="M897.725 744.875C813.318 744.875 744.926 813.322 744.926 897.696C744.926 982.08 813.318 1050.48 897.725 1050.48C982.099 1050.48 1050.5 982.08 1050.5 897.696C1050.5 813.322 982.099 744.875 897.725 744.875Z" fill="#FFEE00"/>
<path d="M897.729 811.023C849.859 811.023 811.039 849.799 811.039 897.679C811.039 945.516 849.859 984.335 897.729 984.335C945.577 984.335 984.383 945.516 984.383 897.679C984.383 849.799 945.577 811.023 897.729 811.023Z" fill="white"/>
<defs>
<filter id="filter0_f_19_3" x="0.682617" y="0.602783" width="1794.05" height="1794.15" filterUnits="userSpaceOnUse" color-interpolation-filters="sRGB">
<feFlood flood-opacity="0" result="BackgroundImageFix"/>
<feBlend mode="normal" in="SourceGraphic" in2="BackgroundImageFix" result="shape"/>
<feGaussianBlur stdDeviation="150" result="effect1_foregroundBlur_19_3"/>
</filter>
<radialGradient id="paint0_radial_19_3" cx="0" cy="0" r="1" gradientUnits="userSpaceOnUse" gradientTransform="translate(897.71 897.676) scale(597.05)">
<stop stop-color="white" stop-opacity="0"/>
<stop offset="1" stop-color="white"/>
</radialGradient>
</defs>
</svg>
