<svg width="106" height="106" viewBox="0 0 106 106" fill="none" xmlns="http://www.w3.org/2000/svg">
<g opacity="0.57">
<g opacity="0.57">
<path opacity="0.57" d="M36.3299 75.807L36.9489 74.6L63.4409 58.678L60.0429 58.355L49.9639 63L37.4749 63.793L31.1699 68.046L30.6259 69.857L50.4969 64.711L15.9469 82.538C14.5969 82.538 13.3289 82.465 12.2029 82.357L5.96287 81.154L4.62286 80.994L3.19587 81.996L4.50887 82.209L13.2549 83.809L0.286865 89.57L0.637871 89.967L2.40487 90.355L16.5159 84.429L27.5119 86.612L27.2429 87.186L28.5449 87.515L29.8799 87.1L30.7899 87.29L31.1889 86.837L33.0939 87.237L38.4399 88.417L42.8279 89.439L59.5379 93.621L47.1459 103.565L46.9609 104.702L48.5259 105.213L81.3169 79.371L81.8209 79.553L81.8819 79.497L81.8299 79.555L81.8209 79.553L81.0669 80.25L82.3069 80.632L105.099 62.634L64.8979 58.816C60.5559 61.476 40.0229 74.032 36.3299 75.807ZM31.5539 78.067C29.5089 79.021 27.5379 79.926 25.7189 80.742C25.6539 80.771 25.5899 80.798 25.5239 80.826C24.2499 81.375 22.9139 81.763 21.5699 82.03L32.0759 76.975L31.5539 78.067ZM82.3279 78.723L81.0429 78.409L82.3289 78.721L82.3279 78.723Z" fill="#5B0276"/>
</g>
</g>
<path d="M2.404 90.355L0.340996 89.814L0 87.152L2.16399 87.807L2.404 90.355Z" fill="#040E3C"/>
<path d="M4.65894 57.838L3.26794 57.653L2.09595 60.931L3.48294 61.264L4.65894 57.838Z" fill="#040E3C"/>
<path d="M30.624 28.748L30.261 69.857L32.472 68.62L32.565 24.94L30.624 28.748Z" fill="#DFC5AF"/>
<path d="M28.748 69.358L30.261 69.857L30.6241 28.748L28.9751 28.188L28.748 69.358Z" fill="#040E3C"/>
<path d="M32.5658 24.941L30.8718 24.795L28.9749 28.188L30.6239 28.748L32.5658 24.941Z" fill="#040E3C"/>
<path d="M51.9289 69.633L80.4929 76.306L80.4129 78.184L50.7769 71.677C50.1259 70.926 50.6739 69.691 51.6759 69.645L51.9289 69.633Z" fill="#DFC5AF"/>
<path d="M80.3068 76.261L80.2288 75.221L55.6258 69.704C55.6258 69.704 53.2688 69.921 53.1048 69.979C52.9408 70.037 54.4688 70.352 54.4688 70.352L80.3068 76.261Z" fill="#040E3C"/>
<path d="M0 87.152L45.132 0L47.077 0.123001L2.16399 87.807L0 87.152Z" fill="#040E3C"/>
<path d="M47.4908 2.87199L47.0778 0.122986L2.16382 87.807L2.40282 90.355L47.4908 2.87199Z" fill="#DFC5AF"/>
<path d="M45.614 102.048L87.511 2.67401L89.49 2.72201L47.845 102.669L45.614 102.048Z" fill="#040E3C"/>
<path d="M90.1169 5.60397L89.4899 2.72296L47.8459 102.669L48.3029 105.378L90.1169 5.60397Z" fill="#DFC5AF"/>
<path d="M79.0469 35.884L82.1049 79.822L83.9329 78.349L80.6959 31.751L79.0469 35.884Z" fill="#DFC5AF"/>
<path d="M80.541 79.351L82.104 79.821L79.047 35.883L77.332 35.35L80.541 79.351Z" fill="#040E3C"/>
<path d="M80.697 31.751L78.969 31.662L77.332 35.35L79.047 35.883L80.697 31.751Z" fill="#040E3C"/>
<path d="M32.4719 68.6199L3.48389 61.264L4.65889 57.838L32.8239 66.074L32.4719 68.6199Z" fill="#DFC5AF"/>
<path d="M48.302 105.378L46.18 104.876L45.614 102.048L47.845 102.669L48.302 105.378Z" fill="#040E3C"/>
<path d="M54.413 27.72C46.719 28.741 41.35 28.592 37.139 27.716C32.953 36.105 28.268 45.178 24.255 52.414C24.203 52.506 24.151 52.595 24.099 52.684C18.521 62.159 9.31201 59.925 6.97401 59.179C6.42901 59.005 5.61101 58.894 5.12401 59.266C4.42001 59.802 4.425 60.651 5.219 61.063L9.983 62.116L16.705 63.625L23.17 65.1L29.069 66.469L34.824 67.823L41 69.297L46.149 70.544L50.778 71.677C50.778 71.677 50.026 70.142 51.328 69.632C53.005 68.97 54.974 75.003 62.547 59.427C65.707 52.768 70.296 42.219 74.509 32.171C75.087 30.759 75.657 29.359 76.216 27.98C69.706 27.119 62.022 26.71 54.413 27.72Z" fill="#6F0A4E"/>
<path d="M54.4129 27.72C62.0219 26.71 69.7059 27.119 76.2159 27.98C81.1679 15.774 85.2179 5.34898 85.2179 5.34898L80.9759 5.08598L76.3479 4.80698L73.4719 4.63799L71.7239 4.53699L67.1019 4.27499L62.4859 4.02099L57.8729 3.77499L53.2639 3.53699L48.7619 3.31299C48.7619 3.31299 45.4799 10.488 40.9459 19.996C39.7539 22.446 38.4719 25.047 37.1399 27.716C41.3499 28.592 46.7179 28.741 54.4129 27.72Z" fill="#AA3589"/>
<path d="M5.17585 59.194C5.17585 59.194 4.34086 59.58 4.79286 60.247L50.5419 71.04C50.5419 71.04 50.4599 70.285 51.0219 69.796L5.17585 59.194Z" fill="#8480E6"/>
</svg>
