<svg width="240" height="400" viewBox="0 0 240 400" fill="none" xmlns="http://www.w3.org/2000/svg">
<g clip-path="url(#clip0_30_1050)">
<path d="M9.50809 1911.07H6.39209C6.39209 1905.35 2.88709 1862.52 2.75709 1859.45C1.13109 1821.49 2.91209 1783.24 1.36309 1745.45C0.71609 1729.63 2.07709 1713.85 1.37009 1697.91C0.69909 1682.82 -1.27691 1667.23 -1.07191 1652.19C-0.467911 1608.61 3.19109 1562.35 -2.73291 1519.24C-5.36591 1500.08 -7.98391 1481.18 -8.24191 1461.77C-8.48991 1442.98 -8.56291 1424.09 -8.04791 1405.32C-7.25191 1376.15 -8.42891 1347.26 -5.08691 1318.21C-3.04491 1300.44 -3.79891 1282.37 -2.14891 1264.47C-0.483911 1246.4 -3.76991 1227.86 -1.52391 1209.91C0.645089 1192.59 -0.057911 1175.85 -0.345911 1158.45C-0.713911 1136.35 0.746089 1113.54 1.67409 1091.57C2.66409 1068.07 1.37009 1044.04 1.39709 1020.44C1.42609 994.801 -3.75091 969.586 -3.63991 944.034C-3.55991 925.123 -6.06191 906.333 -5.44991 887.319C-4.98591 872.84 -4.26091 858.363 -4.09091 843.866C-3.91091 828.523 -1.13291 813.632 -0.289911 798.282C0.486089 784.158 5.13709 770.727 7.08309 756.801C8.86309 744.052 8.77009 729.819 7.50009 717.019C2.26809 664.288 5.69209 610.599 3.58109 557.634C2.31709 525.882 5.87809 494.183 5.33009 462.43C4.90609 437.948 2.48909 413.659 2.49409 389.149C2.49609 361.458 4.99709 334.604 6.87909 307.091C8.47509 283.777 6.84609 259.896 6.67409 236.524C6.59509 225.753 6.36909 214.949 6.37109 204.156C6.37409 191.933 6.37909 179.711 6.38909 167.491C6.38909 167.029 6.39109 161.843 6.39109 161.843H9.50609C9.50609 169.496 11.2641 262.627 11.0871 271.74C10.7151 290.776 10.0041 309.785 8.85109 328.789C7.89609 344.491 5.08809 359.98 5.55609 375.83C6.17409 396.733 6.37209 421.273 7.81909 442.157C9.94809 472.918 4.61109 503.347 6.60209 534.052C7.50909 548.024 8.02209 562.089 8.35409 576.016C8.69709 590.489 6.57409 604.822 6.87309 619.271C7.12909 631.69 7.15609 643.951 7.70009 656.262C8.63009 677.33 12.9401 698.392 13.2721 719.431C13.5941 739.657 9.83809 760.074 6.19509 779.91C3.56109 794.244 1.19909 808.996 0.263089 823.589C-0.679911 838.27 -1.58891 852.812 -1.87891 867.586C-2.23691 885.851 -3.14791 904.117 -2.13691 922.383C-0.603911 950.086 1.75109 977.715 5.10809 1005.43C8.33409 1032.08 5.92009 1061.55 4.39309 1088.18C2.63909 1118.72 5.73309 1149.62 4.40409 1180.24C3.62009 1198.27 2.70009 1216.27 2.26109 1234.32C1.82009 1252.63 4.03209 1270.97 3.81709 1289.38C3.69709 1299.58 2.41909 1309.79 1.41109 1319.93C-2.67291 1360.97 -2.38291 1402.52 -3.45491 1443.82C-3.81091 1457.56 -3.55691 1470.87 -2.48091 1484.3C-1.35191 1498.44 2.53509 1512.18 3.73309 1526.27C4.91009 1540.11 3.59309 1554.07 5.54209 1568.04C7.55609 1582.46 5.92909 1597.1 5.02309 1611.59C2.97509 1644.44 4.44509 1678.68 6.37109 1711.56C7.82009 1736.32 6.03209 1759.67 4.88809 1784.26C3.71009 1809.62 5.48609 1834.98 6.60809 1860.3C7.31209 1876.17 9.51309 1891.16 9.50909 1907.11C9.50909 1907.43 9.50809 1911.07 9.50809 1911.07Z" fill="#155AE2"/>
<path d="M66.938 1911.07H63.827C63.827 1895.6 62.26 1881.73 60.891 1867.81C57.92 1837.65 59.875 1807.02 59.439 1776.76C59.064 1750.53 59.962 1724.09 58.801 1697.91C58.131 1682.82 56.152 1667.23 56.36 1652.19C56.608 1634.28 57.941 1616.94 53.728 1599.37C52.776 1595.4 50.753 1591.88 50.006 1587.76C49.061 1582.56 50.594 1580.97 51.73 1576.23C53.672 1568.13 54.46 1559.75 55.834 1551.53C58.197 1537.38 54.36 1523.04 52.896 1509C51.159 1492.34 48.667 1475.79 48.476 1458.99C48.002 1417.39 53.186 1376.06 54.801 1334.55C56.308 1295.83 53.407 1257.16 55.22 1218.31C56.16 1198.24 57.417 1178.56 57.085 1158.45C56.718 1136.35 58.176 1113.55 59.106 1091.57C60.097 1068.07 58.801 1044.04 58.829 1020.44C58.866 986.331 50.387 949.987 41.471 917.276C36.846 900.309 31.016 882.692 29.269 865.13C27.299 845.35 35.017 833.116 41.925 815.518C73.663 734.687 64.433 643.562 61.013 557.634C59.748 525.882 63.311 494.183 62.763 462.43C62.338 437.948 59.923 413.659 59.926 389.149C59.928 368.327 59.838 348.01 59.848 327.192C59.868 286.035 63.792 245.346 63.801 204.156C63.804 191.933 63.81 179.711 63.819 167.491C63.819 167.029 63.82 161.843 63.822 161.843H66.936C66.936 167.337 63.127 320.775 62.877 332.931C62.586 347.323 62.564 361.488 62.988 375.83C63.606 396.733 63.804 421.273 65.25 442.157C67.379 472.918 63.666 503.277 64.035 534.052C64.733 592.772 67.167 635.453 67.164 664.392C67.16 693.316 66.15 720.746 63.111 749.575C60.392 775.355 49.542 798.845 40.965 823.097C31.74 849.199 27.754 858.193 38.305 894.576C45.273 918.594 54.115 942.041 59.174 966.813C61.705 979.211 61.001 992.726 62.539 1005.43C65.766 1032.08 63.353 1061.55 61.823 1088.18C60.18 1116.81 62.71 1145.47 62.046 1174.12C61.595 1193.53 60.291 1212.91 59.95 1232.32C59.32 1268.3 62.697 1303.92 59.748 1339.88C56.686 1377.23 49.503 1414.39 51.827 1452.05C52.71 1466.38 51.641 1481.36 53.995 1495.55C58.1 1520.28 68.49 1555.57 54.481 1578.65C49.099 1587.53 55.427 1594.02 57.599 1602.77C61.814 1619.77 61.31 1637.24 61.527 1654.63C61.942 1688.73 65.032 1722.54 63.593 1756.66C62.145 1790.87 62.184 1824.92 64.167 1859.1C64.739 1868.94 65.411 1878.78 66.144 1888.61C66.703 1896.1 66.938 1903.56 66.938 1911.07Z" fill="#155AE2"/>
<path d="M23.3162 1911.07H20.1992C20.1992 1902.68 16.6982 1862.52 16.5662 1859.45C14.9392 1821.49 16.7202 1783.24 15.1722 1745.45C14.2672 1723.37 14.2622 1702.56 14.2672 1680.36C14.2712 1662.3 12.6702 1644.58 13.8212 1626.5C14.4522 1616.61 13.7102 1606.93 13.4702 1597.01C12.8412 1570.8 14.6752 1545.44 11.0762 1519.24C8.4432 1500.08 5.8242 1481.18 5.5682 1461.77C5.3182 1442.98 5.2462 1424.09 5.7582 1405.32C6.1712 1390.26 6.9492 1375.32 7.5662 1360.25C9.1402 1321.83 14.7202 1283.11 12.6872 1244.77C12.0672 1233.11 10.8112 1221.7 12.2852 1209.91C14.4552 1192.59 13.7522 1175.85 13.4632 1158.45C13.2182 1143.7 13.9672 1128.4 15.2122 1113.67C17.6662 1084.63 18.3812 1055.32 16.6842 1026.2C15.0842 998.811 10.0492 971.551 10.1682 944.035C10.2572 923.467 5.1392 902.393 3.5302 881.66C1.9212 860.938 6.6062 838.53 9.0052 817.926C11.5002 796.49 16.5492 775.53 19.5662 754.19C22.5292 733.248 20.8102 714.745 19.3802 693.841C16.3692 649.782 16.7492 605.574 15.8252 561.438C15.2112 532.001 19.9842 502.743 19.0242 473.303C18.1162 445.408 16.3002 417.159 16.3032 389.15C16.3072 361.567 14.6802 333.814 15.8462 306.272C16.4682 291.557 16.6592 276.501 17.4272 261.588C18.4052 242.612 20.1742 223.093 20.1792 204.156C20.1822 191.933 20.1892 179.711 20.1952 167.491C20.1952 167.029 20.1992 161.843 20.1992 161.843H23.3162C23.3162 167.75 17.1672 316.493 17.4722 328.314C17.8892 344.306 18.8922 359.868 19.3642 375.831C19.9832 396.734 20.1822 421.274 21.6272 442.158C24.1322 478.362 20.4432 515.06 19.6622 551.278C19.1752 573.801 20.2162 596.775 20.6832 619.271C20.9382 631.69 20.9672 643.951 21.5092 656.262C22.3772 675.932 25.7762 695.376 26.9532 715.029C28.0372 733.138 23.4502 748.686 20.5352 766.308C18.0462 781.341 16.5492 796.748 13.7252 811.758C10.2892 830.002 6.1562 849.254 6.3232 867.959C6.4832 885.447 11.1612 902.896 11.9032 920.49C12.7002 939.334 11.8742 957.228 15.0462 975.637C24.5922 1031.01 22.5462 1090.18 19.7492 1146.16C18.1462 1178.26 14.5832 1211.39 16.3752 1243.41C18.3072 1277.99 13.2942 1312.43 14.0132 1347.01C14.6772 1378.97 11.1912 1411.54 10.3532 1443.81C9.8092 1464.83 13.3102 1485.56 15.4972 1506.36C21.1382 1560.05 18.6392 1615.47 18.6092 1669.55C18.6022 1683.37 19.3762 1697.81 20.1792 1711.56C21.8122 1739.45 19.0182 1767.02 19.0022 1794.85C18.9932 1808.58 20.6372 1822 20.5592 1835.85C20.4252 1859.72 23.3232 1883.3 23.3202 1907.11C23.3182 1907.43 23.3162 1911.07 23.3162 1911.07Z" fill="#155AE2"/>
<path d="M52.6661 1911.07H49.5481C49.5481 1904.71 46.0471 1862.52 45.9141 1859.45C45.1051 1840.55 44.4071 1822.01 43.1941 1803.18C41.8151 1781.77 43.7761 1760.34 44.4641 1738.95C45.0861 1719.63 43.6131 1699.88 43.6171 1680.36C43.6191 1662.3 42.0191 1644.58 43.1721 1626.5C44.3631 1607.81 40.9331 1589.6 40.9031 1570.99C40.8901 1561.18 39.7611 1552.14 39.0561 1542.56C37.9951 1528.13 39.6371 1513.6 38.1151 1499.2C36.7941 1486.71 35.0851 1474.43 34.9161 1461.77C33.9591 1389.48 45.8721 1317.03 42.0351 1244.76C41.4161 1233.11 40.1581 1221.7 41.6351 1209.91C45.0291 1182.79 43.0201 1154.9 44.7091 1127.58C46.8021 1093.72 48.0191 1060.23 46.0341 1026.2C45.0261 1008.95 44.5011 989.997 40.8851 973.223C37.3111 956.64 35.3341 940.379 32.6651 923.666C30.2151 908.316 28.0731 892.306 23.6251 877.445C18.2081 859.364 19.8591 848.055 25.1811 829.832C30.4291 811.854 36.2461 794.185 40.0561 775.78C48.8311 733.395 47.9821 693.89 46.7031 650.689C45.8201 620.945 45.7961 591.182 45.1761 561.434C44.4671 527.606 47.7691 493.873 47.4951 459.946C47.3211 438.362 45.0291 416.828 45.5041 395.188C45.6571 388.121 47.8331 381.543 47.3791 374.478C46.4731 360.261 42.2491 348.81 43.2261 333.988C44.8151 309.873 45.5351 285.708 46.7761 261.585C47.7531 242.609 49.5251 223.09 49.5281 204.153C49.5321 191.93 49.5381 179.708 49.5451 167.488C49.5451 167.026 49.5481 161.84 49.5481 161.84H52.6641C52.6641 169.638 46.5151 316.49 46.8201 328.311C47.2111 343.251 47.0951 358.116 49.0511 372.964C50.2681 382.216 48.1761 391.317 48.1621 401.018C48.1411 414.867 50.0261 428.444 50.9781 442.155C52.5511 464.901 48.1811 486.457 48.1571 509.02C48.1471 518.767 48.5781 528.482 48.1631 538.242C47.0221 565.08 49.4781 592.383 50.0311 619.268C50.2871 631.687 50.3151 643.948 50.8581 656.259C52.1361 685.148 51.8971 713.986 48.6151 742.872C46.3661 762.659 41.8641 782.644 37.3891 801.989C33.3771 819.318 25.5121 835.902 22.7851 853.688C20.2071 870.507 29.7961 888.998 33.0181 905.526C36.6521 924.169 40.3941 944.732 42.4421 963.614C45.6041 992.808 50.4791 1021.25 51.2031 1050.9C51.9781 1082.67 50.6831 1114.44 49.0991 1146.16C47.4951 1178.26 43.9341 1211.39 45.7241 1243.41C47.5841 1276.68 46.5241 1310.04 44.7861 1343.29C42.6131 1384.89 36.7461 1428.11 39.3901 1469.74C41.6001 1504.57 44.1331 1539.35 45.4911 1574.23C46.0341 1588.16 48.5421 1600.92 48.4181 1615.12C48.0561 1656.51 46.8421 1698.02 49.7311 1739.37C51.0141 1757.69 48.3611 1776.39 48.3511 1794.85C48.3451 1808.58 49.9871 1821.99 49.9091 1835.85C49.7721 1859.72 52.6721 1883.3 52.6681 1907.11C52.6681 1907.43 52.6661 1911.07 52.6661 1911.07Z" fill="#155AE2"/>
<path d="M92.4371 1911.07H89.3201C89.3201 1905.29 85.8141 1862.52 85.6861 1859.45C84.8751 1840.55 84.1781 1822.01 82.9651 1803.18C81.5831 1781.77 83.5461 1760.34 84.2351 1738.95C84.8571 1719.63 83.3821 1699.88 83.3871 1680.36C83.3921 1656.69 78.6421 1633.54 76.3641 1610.01C75.4301 1600.38 78.9451 1592.84 79.3231 1583.56C79.6671 1575.02 75.5501 1567.3 75.2861 1558.84C74.5431 1535.14 74.7491 1511.43 74.8081 1487.72C75.0131 1406.89 86.0891 1325.47 81.8041 1244.76C81.1871 1233.11 79.9291 1221.7 81.4031 1209.91C84.8521 1182.39 81.2771 1155.11 80.7391 1127.44C79.8811 1083.31 83.9081 1045.06 73.2921 995.259C65.2301 957.439 57.3791 920.3 51.1151 881.757C49.3731 871.05 50.3871 867.988 57.1611 860.918C61.3381 856.553 66.4551 851.038 68.0711 844.906C71.8961 830.403 61.1541 818.472 65.7211 804.322C73.6191 779.863 82.3911 756.967 85.7211 731.279C89.1401 704.902 87.2601 677.226 86.4731 650.69C85.5901 620.946 85.5671 591.183 84.9441 561.435C84.2371 527.607 87.5381 493.874 87.2651 459.947C87.0861 437.667 86.2801 415.382 85.6741 393.102C85.1431 373.607 81.7161 353.366 82.9951 333.989C84.5851 309.874 85.3051 285.709 86.5471 261.586C87.5241 242.61 89.2931 223.091 89.3001 204.154C89.3031 191.931 89.3081 179.709 89.3161 167.489C89.3161 167.027 89.3201 161.841 89.3201 161.841H92.4341C92.4341 167.757 86.2841 316.491 86.5911 328.312C87.2411 353.245 87.9121 378.155 87.9391 403.102C87.9581 420.519 91.2451 437.731 91.0811 455.158C90.9111 473.163 87.9451 491.005 87.9291 509.021C87.9171 518.768 88.3481 528.483 87.9321 538.243C86.7931 565.081 89.2451 592.384 89.7991 619.269C90.0581 631.688 90.0851 643.949 90.6291 656.26C91.6811 680.119 92.1681 704.86 89.9541 728.758C87.8541 751.384 76.7311 771.339 70.4471 792.735C65.6041 809.228 68.7681 822.26 70.3661 838.995C71.2881 848.639 69.6771 852.692 63.0661 859.156C56.1221 865.945 54.1151 869.783 54.3941 880.031C55.1041 905.959 61.8661 929.952 69.3881 954.417C82.8111 998.076 84.7271 1051.4 86.3151 1097.35C88.0001 1146.09 82.7741 1194.78 85.4931 1243.41C87.3541 1276.69 86.2961 1310.04 84.5561 1343.29C82.3811 1384.89 76.5161 1428.12 79.1591 1469.74C81.1461 1501.05 73.4021 1535.32 79.1491 1565.96C80.7041 1574.25 83.6131 1582.98 82.1941 1591.46C80.7171 1600.27 80.3451 1605.27 81.6461 1614.7C87.4021 1656.48 86.5651 1697.37 89.5021 1739.37C90.7851 1757.7 88.1311 1776.4 88.1231 1794.85C88.1131 1808.58 89.7581 1821.99 89.6801 1835.85C89.5461 1859.72 92.4431 1883.3 92.4371 1907.11V1911.07V1911.07Z" fill="#155AE2"/>
<path d="M31.9031 473.261C32.2231 458.064 32.3031 442.847 31.7181 427.581C31.4341 420.128 30.5671 412.321 31.0061 404.877C31.3771 398.571 30.7721 398.396 26.0651 395.051C23.9161 393.524 23.1351 391.511 23.1651 388.806C23.2221 383.287 26.2811 374.944 27.7541 369.8C30.3781 360.644 27.6671 351.479 27.3921 341.491C27.0701 329.756 27.3631 318.224 28.0941 306.495C29.2471 288.044 28.2961 269.474 30.1201 251.063C31.7051 235.071 34.7161 220.386 34.7191 204.155C34.7231 191.932 34.7281 179.71 34.7361 167.489C34.7361 167.028 34.7391 161.842 34.7391 161.842H37.8571C37.8571 161.842 33.9941 265.433 32.9191 273.588C30.3251 293.276 27.9561 314.083 29.0091 333.977C29.4791 342.846 32.3301 351.545 32.3831 360.431C32.4311 368.448 28.5951 372.734 25.8971 379.755C23.7041 385.47 24.2811 393.837 31.7911 393.153C39.2881 392.533 33.6771 496.388 33.5761 501.169C33.2181 517.868 34.5631 534.489 34.2011 551.276C33.7151 573.799 34.7571 596.773 35.2221 619.269C35.4781 631.688 35.5071 643.949 36.0501 656.26C37.0121 678.075 41.6431 699.689 41.2801 721.565C40.9011 744.339 34.8141 766.413 30.3011 788.514C24.1301 818.773 8.48706 848.625 16.9131 880.362C19.3061 889.383 22.8411 898.179 23.9941 907.431C25.2291 917.349 23.5311 927.253 23.7271 937.186C24.4001 970.956 34.5131 1004.24 35.9681 1038.37C36.5431 1051.82 36.7001 1065.3 36.5821 1078.76C36.5221 1085.72 36.3861 1092.67 36.1961 1099.63C35.7711 1114.9 32.6091 1130.79 32.9481 1145.94C33.2451 1159.23 32.6621 1172.34 31.8471 1185.77C30.6831 1204.94 29.8401 1224.2 30.9161 1243.41C32.8481 1277.99 27.8321 1312.43 28.5531 1347.01C29.4901 1391.99 25.9391 1436.45 25.6291 1481.38C25.4761 1503.27 26.4811 1524.24 29.4311 1545.79C35.0781 1587.03 33.1731 1627.98 33.1481 1669.54C33.1421 1683.36 33.9141 1697.81 34.7191 1711.56C37.2941 1755.53 38.4791 1798.74 36.7331 1842.99C35.8841 1864.48 37.8631 1885.64 37.8591 1907.11C37.8581 1907.43 37.8571 1911.07 37.8571 1911.07H34.7391C34.7391 1911.07 32.2041 1846.53 32.2041 1841.42C32.2061 1819.79 30.9231 1797.59 31.4061 1776.39C32.1351 1744.4 28.8001 1712.37 28.8091 1680.36C28.8121 1662.3 27.2091 1644.58 28.3611 1626.51C28.9931 1616.61 28.2511 1606.94 28.0111 1597.01C27.5891 1579.43 25.6071 1561.89 25.2211 1544.21C24.6801 1519.5 21.9371 1495.35 21.9361 1470.58C21.9341 1433.7 20.5981 1397.04 22.1051 1360.25C23.6811 1321.83 29.2591 1283.11 27.2251 1244.77C26.6081 1233.11 25.3491 1221.7 26.8251 1209.91C28.9951 1192.59 28.2901 1175.85 28.0021 1158.45C27.8031 1146.4 30.6921 1133.98 31.0941 1121.86C31.5621 1107.77 31.3021 1093.68 31.7911 1079.6C32.4041 1061.8 32.2621 1043.98 31.2231 1026.2C29.4401 995.675 20.4061 964.826 20.3821 934.485C20.3741 922.104 20.3181 911.975 17.9611 899.875C14.8891 884.122 10.4331 870.967 11.4251 854.278C12.3431 838.851 16.2371 823.876 20.8751 809.298C26.5941 791.317 28.0501 773.195 31.1241 754.61C33.7261 738.863 37.5691 722.826 35.8791 706.728C34.2981 691.665 32.8271 676.947 32.2551 661.637C31.0031 628.253 31.0641 594.835 30.3651 561.436C29.7501 532.007 31.2801 502.677 31.9031 473.261Z" fill="#155AE2"/>
<path d="M34.136 377.502C31.891 378.733 29.987 380.51 29.351 382.17C28.254 385.028 28.193 388 31.691 388.573C35.653 389.221 47.761 381.476 42.658 376.973C40.643 375.198 37.096 375.877 34.136 377.502Z" fill="#155AE2"/>
<path d="M5.31616 280.985C8.02616 320.705 -3.74184 357.353 -1.31584 396.605C-0.54884 409.031 -0.27884 422.823 1.74016 435.122C2.72716 441.127 3.43616 446.817 3.82316 452.892C4.54316 464.24 3.64516 475.41 1.69616 486.622C-1.25884 503.602 -1.41384 519.994 -1.24084 537.225C-1.04984 556.035 2.14116 576.437 0.51116 595.091C2.17816 576.01 -1.75584 553.805 -3.71884 534.535C-5.72684 514.856 -3.61684 500.92 -0.64284 481.6C2.45516 461.481 -2.18584 444.982 -4.28084 425.454C-6.58684 403.942 -5.65184 380.504 -4.88284 359.009C-4.23084 340.752 0.90716 324.336 3.51416 307.179L5.31616 280.985Z" fill="#155AE2"/>
<path d="M80.3131 278.426C80.6581 324.678 75.8591 370.554 78.9831 417.062C80.3711 437.747 82.9101 459.04 81.2011 479.894C79.3801 502.12 76.7191 525.06 77.1911 547.655C77.6431 569.295 78.3341 592.155 78.9741 612.879C80.0201 586.659 73.4741 560.043 73.2711 533.614C73.0541 505.553 77.2781 477.931 76.2731 449.989C75.3051 423.149 71.9211 397.561 72.8201 370.599C73.2511 357.655 70.5191 345.085 70.5991 332.334C70.6651 322.019 72.9771 311.347 73.7041 301.03C75.2681 278.867 79.4001 257.688 82.0971 235.73L80.3131 278.426Z" fill="#155AE2"/>
<path d="M35.9302 368.858C40.0602 362.249 35.3782 349.225 34.3682 341.472C32.4242 326.546 35.4112 312.266 38.3292 297.66C40.0132 289.234 43.4012 280.387 43.5752 271.78C43.5652 286.88 40.4972 301.045 38.6492 315.873C37.0472 328.688 39.0442 341.518 40.6362 354.25C41.3372 359.86 41.7202 365.487 42.4302 370.893L35.9302 368.858Z" fill="#155AE2"/>
<path d="M36.6941 396.515C38.4721 395.01 40.4321 394.529 42.0751 392.592C39.8701 395.188 44.2561 420.596 44.2781 425.178C44.3331 436.418 43.7761 447.651 43.0081 458.857C41.7261 477.568 43.0741 495.449 40.5121 514.342C41.2551 500.589 39.5481 486.859 39.4501 473.113C39.3621 461.109 41.8181 449.165 40.9061 437.186C40.3281 429.616 39.7571 421.604 39.7541 413.596L36.6941 396.515Z" fill="#155AE2"/>
<path d="M97.2891 226.974C96.8301 232.474 92.7481 234.948 91.2761 239.808C90.0821 243.752 92.4141 249.043 96.8931 247.685C97.1501 248.624 97.1601 249.988 97.2891 251.299V226.974Z" fill="#155AE2"/>
<path d="M182.313 473.24C181.356 512.01 179.848 551.99 181.479 590.701C182.165 606.952 180.829 623.102 182.319 639.376C186.79 688.201 183.148 728.066 186.029 783.876C186.853 799.855 188.457 816.287 188.717 832.304C188.964 847.604 190.03 862.273 189.61 877.573C188.585 915.036 187.094 952.461 190.391 989.768C191.838 1006.13 199.185 1021.52 204.458 1037.04C209.688 1052.44 219.084 1069.3 220.645 1085.59C222.35 1103.4 218.139 1116.44 205.327 1130.86C195.008 1142.47 184.583 1156.82 178.345 1170.82C167.315 1195.59 163.272 1220.09 161.086 1246.55C159.939 1260.47 159.399 1274.44 159.45 1288.4C159.548 1316.61 160.491 1344.15 163.394 1372.28C166.474 1402.08 169.621 1432.04 172.892 1461.92C174.746 1478.87 173.899 1494.83 174.028 1511.41C174.248 1539.54 178.505 1570.23 176.398 1598.37C174.271 1626.76 172.321 1656.89 170.313 1685.3C168.526 1710.58 165.783 1730.66 166.856 1755.95C167.782 1777.66 173.972 1797.45 173.942 1819.15C173.922 1832.99 174.168 1845.85 176.367 1859.64C176.521 1860.59 176.632 1861.08 177.064 1866.12C177.574 1872.06 180.532 1884.55 180.532 1911.07H184.069C184.069 1887.94 179.911 1875.35 179.028 1865.79C177.77 1852.18 177.804 1845.97 177.765 1830.95C177.704 1808.6 172.308 1781.43 171.635 1759.05C170.911 1734.87 172.157 1715.52 172.818 1691.33C173.554 1664.4 176.457 1638.66 178.187 1611.79C180.177 1580.92 178.477 1548.45 176.501 1514.58C175.209 1492.46 178.18 1472.58 174.761 1450.58C171.082 1426.87 171.239 1403.81 168.828 1379.86C166.341 1355.16 165.366 1330.19 164.146 1305.34C162.918 1280.3 163.083 1254.58 167.464 1229.82C171.749 1205.61 174.729 1180.05 187.854 1158.32C201.728 1135.35 224.822 1121.58 223.264 1091.9C222.428 1075.99 217.565 1062.29 211.289 1047.77C197.977 1017 193.507 990.781 190.775 957.794C188.872 934.787 192.899 910.24 192.878 887.054C192.826 824.468 185.732 762.149 187.355 699.463C187.932 677.126 184.329 655.178 183.644 632.958C181.681 569.321 187.32 505.729 186.172 442.063C185.712 416.443 184.856 390.829 183.864 365.222C183.119 345.919 181.287 326.644 182.219 307.324C183.192 287.143 182.244 267.078 183.002 246.885C184.066 218.61 184.063 161.842 184.063 161.842H180.54C180.54 161.842 179.815 305.048 179.729 319.436C179.636 334.988 180.773 351.247 181.101 366.764C181.904 404.649 183.202 437.381 182.313 473.24Z" fill="#155AE2"/>
<path d="M196.486 473.24C195.524 512.01 195.884 551.99 197.513 590.701C198.199 606.952 198.728 623.102 200.218 639.376C204.691 688.201 199.181 728.066 202.064 783.876C202.886 799.855 202.626 816.287 202.884 832.304C203.132 847.604 204.198 862.273 203.779 877.573C202.754 915.036 203.871 952.461 206.924 989.768C207.348 994.984 207.916 1000.56 208.998 1005.67C211.257 1016.36 213.895 1026.74 215.703 1037.59C217.607 1049.01 222.58 1059.49 225.588 1070.66C228.41 1081.15 230.037 1092.87 227.801 1103.58C225.397 1115.11 220.278 1124.45 214.361 1134.44C207.442 1146.13 200.961 1158.24 195.775 1170.82C185.566 1195.58 179.305 1220.09 177.121 1246.55C175.971 1260.47 175.435 1274.44 175.484 1288.4C175.584 1316.61 176.524 1344.15 179.43 1372.28C185.022 1426.42 187.524 1481.78 188.72 1536.25C189.664 1579.16 183.111 1621.96 183.156 1664.66C183.18 1690.62 182.012 1716.57 182.495 1742.52C182.936 1766.17 188.192 1789.36 188.763 1812.93C189.142 1828.56 189.925 1844.11 192.405 1859.64C192.653 1861.2 192.786 1861.87 193.486 1870.57C194.043 1877.5 196.566 1889.34 196.566 1911.08H200.107C200.107 1891.6 197.119 1879.61 196.312 1870.92C194.132 1847.38 193.743 1841.48 192.35 1821.24C189.584 1780.94 182.458 1741.44 184.424 1700.91C186.321 1661.78 188.757 1623.46 191.4 1584.64C196.031 1516.56 189.811 1447.57 183.001 1379.86C180.515 1355.17 179.538 1330.2 178.319 1305.34C177.09 1280.3 177.256 1254.59 181.636 1229.83C186.152 1204.32 191.383 1178.9 204.212 1156.09C210.216 1145.41 217.597 1135.13 222.089 1123.72C226.246 1113.14 230.904 1101.62 230.347 1090.22C229.707 1077.13 226.103 1066.91 221.734 1054.75C217.379 1042.63 217.505 1029.44 213.734 1017.11C208.026 998.443 208.418 977.155 206.815 957.797C204.91 934.79 205.206 910.243 205.184 887.057C205.132 824.471 201.767 762.152 203.389 699.466C203.967 677.129 202.232 655.181 201.545 632.961C199.584 569.324 201.491 505.732 200.344 442.066C199.885 416.446 200.89 390.832 199.902 365.225C199.156 345.922 197.324 326.647 198.256 307.327C199.229 287.146 198.283 267.081 199.043 246.888C200.107 218.613 200.104 161.845 200.104 161.845H196.578C196.578 161.845 195.851 305.051 195.766 319.439C195.676 334.991 196.809 351.25 197.137 366.767C197.938 404.649 197.371 437.381 196.486 473.24Z" fill="#155AE2"/>
<path d="M226.364 473.24C225.724 498.985 229.16 524.678 227.971 550.422C227.027 570.883 227.039 591.762 227.215 612.319C227.451 640.066 230.319 667.135 229.987 695.034C229.633 724.661 228.549 754.255 230.078 783.877C231.093 803.573 230.179 823.325 230.846 842.927C231.693 867.678 224.984 892.107 226.341 916.859C227.83 944.137 229.094 971.259 230.147 998.554C231.067 1022.49 235.982 1046.04 240.748 1069.51C249.016 1110.21 224.915 1139.83 217.874 1173.44C214.931 1187.51 212.545 1201.89 210.711 1215.82C209.369 1226 207.845 1236.34 207.001 1246.55C205.853 1260.47 205.314 1274.44 205.364 1288.4C205.464 1316.61 206.404 1344.15 209.308 1372.28C212.829 1406.34 214.519 1439.96 216.173 1473.92C216.654 1483.83 215.228 1493.38 214.746 1503.16C213.657 1525.14 215.896 1547.37 215.812 1569.3C215.623 1616.53 212.656 1663.08 215.093 1710.3C215.963 1727.11 218.115 1743.6 218.671 1760.4C219.184 1775.99 222.366 1791.47 223.897 1806.98C225.382 1822.05 224.977 1837.29 225.277 1852.35C225.54 1865.43 227.573 1879.35 226.799 1892.26C226.416 1898.63 226.445 1911.07 226.445 1911.07H229.981C229.981 1911.07 230.046 1863.64 228.085 1839.89C225.38 1807.09 223.678 1774.27 220.62 1741.45C219.122 1725.38 218.939 1709.22 217.623 1693.22C214.78 1658.68 217.957 1622.99 218.52 1588.32C218.987 1559.62 216.734 1530.99 217.974 1502.15C219.728 1461.32 216.963 1420.49 212.877 1379.86C210.391 1355.17 209.415 1330.19 208.195 1305.34C206.516 1271.12 209.87 1242.64 213.23 1208.94C214.605 1195.16 218.369 1177.7 222.208 1164.29C229.076 1140.28 242.589 1112.7 243.32 1091.53C244.015 1071.36 238.306 1050.16 235.633 1030.22C232.476 1006.59 232.542 982.981 230.431 959.362C228.339 935.935 228.36 912.165 230.76 888.83C237.246 825.865 231.631 762.701 233.267 699.466C233.844 677.129 232.109 655.181 231.421 632.961C230.786 612.421 230.56 591.871 230.498 571.321C230.396 537.734 228.633 503.998 229.938 470.655C230.421 458.218 228.555 445.884 229.755 433.412C230.522 425.455 229.366 417.881 229.372 409.754C229.384 394.799 230.354 380.224 229.777 365.226C229.03 345.923 227.198 326.648 228.13 307.328C229.104 287.147 228.156 267.082 228.915 246.889C229.978 218.614 229.977 161.846 229.977 161.846H226.453C226.453 161.846 225.727 305.052 225.641 319.44C225.548 334.992 226.685 351.251 227.011 366.768C227.818 404.649 227.252 437.381 226.364 473.24Z" fill="#155AE2"/>
<path d="M249.263 473.179C250.787 498.885 250.821 525.376 249.663 550.422C248.723 570.883 248.734 591.763 248.908 612.319C249.144 640.066 252.012 667.136 251.681 695.033C251.199 735.573 248.815 776.471 249.096 816.929C249.307 847.22 246.05 875.129 245.982 902.999C245.869 947.724 241.402 988.583 249.067 1032.85C251.781 1048.52 254.885 1064.35 255.212 1079.46C255.591 1097.05 255.362 1108.7 249.604 1125.43C244.181 1141.19 240.575 1158.15 237.425 1174.45C234.297 1190.61 231.252 1207.28 229.801 1223.64C229.12 1231.27 229.325 1238.91 228.697 1246.55C227.548 1260.47 227.009 1274.44 227.058 1288.4C227.225 1335.07 230.78 1381.63 231.919 1428.3C232.362 1446.53 232.993 1465.04 234.767 1483.06C237.568 1511.57 237.619 1540.55 237.504 1569.3C237.319 1616.52 234.352 1663.08 236.789 1710.3C237.657 1727.1 239.81 1743.6 240.364 1760.4C241.377 1791.05 246.365 1821.91 246.973 1852.34C247.232 1865.43 249.265 1879.35 248.493 1892.26C248.112 1898.62 248.141 1911.07 248.141 1911.07H251.676C251.676 1911.07 249.091 1855.95 247.505 1828.33C246.946 1818.61 246.232 1809.31 245.042 1799.62C242.676 1780.4 244.114 1760.75 242.315 1741.45C240.815 1725.38 240.633 1709.22 239.316 1693.22C236.471 1658.67 239.651 1622.99 240.214 1588.32C240.764 1554.37 240.28 1520.12 236.198 1486.41C233.908 1467.49 235.658 1447.82 234.284 1429C231.246 1387.45 231.933 1347.01 229.89 1305.34C227.814 1263.02 232.542 1222.19 239.014 1180.75C241.877 1162.42 247.258 1144.81 251.947 1126.86C256.719 1108.61 258.849 1092.25 256.244 1073.63C253.482 1053.88 249.939 1036.06 248.957 1017.38C247.417 988.052 248.741 959.437 248.018 929.986C247.297 900.64 250.381 873.058 250.636 843.73C251.053 795.717 253.726 747.346 254.963 699.465C255.537 677.128 253.804 655.18 253.116 632.959C252.482 612.42 252.257 591.868 252.194 571.318C252.046 522.451 254.342 472.713 250.717 424.14C247.779 384.789 247.935 346.529 249.825 307.324C250.8 287.143 249.852 267.079 250.611 246.886C251.674 218.61 251.671 161.842 251.671 161.842H248.147C248.147 161.842 247.423 305.047 247.337 319.437C247.193 343.366 246.251 367.407 246.533 391.428C246.764 410.612 248.762 464.71 249.263 473.179Z" fill="#155AE2"/>
<path d="M213.237 307.326C214.211 287.144 213.261 267.08 214.022 246.885C215.085 218.612 215.082 161.843 215.082 161.843H211.559C211.559 161.843 210.835 305.051 210.748 319.437C210.639 337.525 211.769 355.11 213.112 372.881C212.459 351.043 212.182 329.191 213.237 307.326Z" fill="#155AE2"/>
<path d="M213.112 372.881C213.117 373.074 213.122 373.268 213.129 373.459L214.472 390.516C214.019 384.601 213.553 378.73 213.112 372.881Z" fill="#155AE2"/>
<path d="M202.9 1187.35C206.75 1171.49 212.207 1156.2 219.368 1141.38C226.505 1126.6 236.483 1109.95 236.272 1093.42C236.048 1075.93 231.878 1058.63 228.894 1041.47C225.54 1022.17 221.378 1002.16 220.396 982.63C218.656 948.09 217.442 914.108 218.929 879.527C219.481 866.694 219.799 853.334 219.131 840.583C215.522 771.742 218.655 701.982 216.527 632.96C215.164 588.771 212.346 543.936 215.735 500.029C217.205 480.967 215.669 461.168 215.324 442.064C214.912 419.211 213.817 396.343 213.128 373.459L211.825 356.939C211.943 360.24 212.049 363.518 212.118 366.765C212.92 404.648 212.351 437.38 211.464 473.24C210.499 512.236 210.862 551.851 212.496 590.702C215.297 657.28 210.089 724.337 213.959 790.932C217.543 852.607 212.535 914.674 217.867 976.322C220.164 1002.85 223.866 1028.24 229.316 1054.5C232.03 1067.59 235.493 1078.85 235.457 1092.51C235.42 1106.82 230.746 1117.36 223.558 1129.74C216.003 1142.75 210.199 1158.16 205.079 1172.17C200.927 1183.52 199.305 1194.65 197.416 1206.36C195.271 1219.69 193.218 1233.04 192.103 1246.55C190.955 1260.47 190.415 1274.44 190.465 1288.39C190.563 1314.95 191.452 1341.43 194.439 1367.81C197.988 1399.17 200.066 1430.66 201.443 1462.16C203.131 1500.79 203.459 1539.48 202.073 1578.13C200.77 1614.51 202.175 1650.48 201.314 1687.02C200.809 1708.37 199.571 1730.25 200.622 1751.45C201.646 1772.07 203.246 1792.38 203.744 1812.94C204.126 1828.56 204.908 1844.11 207.384 1859.64C207.595 1860.95 207.72 1861.52 208.423 1870.17C208.986 1877.11 211.549 1888.35 211.549 1911.08H215.085C215.085 1891.08 212.082 1879.43 211.17 1869.57C209.056 1846.69 208.674 1840.79 207.334 1821.23C206.312 1806.38 206.63 1791.6 205.66 1776.73C204.228 1754.82 202.974 1732.71 202.999 1710.72C203.008 1700.33 203.73 1689.79 204.184 1679.42C205.019 1660.17 202.409 1641.06 203.299 1621.76C204.226 1601.64 205.051 1581.51 205.646 1561.38C206.099 1545.97 205.266 1530.65 205.167 1515.24C205.067 1499.59 204.608 1484 205.154 1468.37C207.049 1414.25 195.952 1359.41 193.3 1305.34C192.073 1280.3 192.236 1254.59 196.618 1229.82C199.127 1215.65 199.511 1201.33 202.9 1187.35Z" fill="#155AE2"/>
<path d="M238.293 590.701C241.13 658.149 236.169 725.965 240.955 793.459C243.229 825.532 237.125 857.473 236.853 889.595C236.604 919.028 233.502 949.121 236.235 978.49C237.97 997.154 238.512 1015.65 241.445 1034.23C245.888 1062.36 251.985 1091.62 243.984 1119.56C239.9 1133.82 235.079 1148.14 230.13 1162.41C227.628 1169.63 227.286 1177.82 225.768 1185.26C221.676 1205.3 219.585 1226.14 217.899 1246.55C216.749 1260.47 216.211 1274.44 216.26 1288.4C216.506 1356.74 225.994 1424.42 226.657 1492.86C226.935 1521.38 228.903 1549.28 227.87 1578.13C225.743 1637.44 220.526 1697.24 226.001 1756.55C228.796 1786.82 231.62 1816.24 236.403 1846.09C238.315 1858 239.18 1863.06 239.088 1873.61C239.02 1881.43 237.344 1892.88 237.344 1911.07H240.88C240.88 1893.11 242.272 1883.66 242.131 1871.86C241.714 1837.31 234.014 1802.66 231.601 1768.18C225.875 1686.28 232.032 1603.83 229.534 1521.84C228.555 1489.74 228.13 1458.69 226.105 1426.8C223.537 1386.34 221.08 1345.81 219.094 1305.34C217.867 1280.3 218.031 1254.59 222.413 1229.82C225.212 1214.01 224.399 1196.8 228.351 1181.39C232.132 1166.65 234.686 1151.31 239.98 1136.96C246.262 1119.95 251.449 1101.73 249.747 1083.67C247.887 1063.93 246.082 1043.43 242.943 1023.87C239.428 1001.96 237.176 987.804 238.062 969.6C239.34 943.271 237.792 916.873 239.06 890.53C241.002 850.106 245.608 809.539 243.068 769.086C240.237 724.035 245.876 678.814 243.215 633.91C240.582 589.489 238.092 544.595 241.532 500.029C243.488 474.663 242.394 448.591 241.22 423.196C238.5 364.383 237.603 305.736 239.816 246.888C240.879 218.611 240.879 161.843 240.879 161.843L237.354 161.847C237.354 161.847 236.382 256.363 236.765 303.598C236.911 321.86 236.293 339.127 236.631 357.443C237.275 392.605 239.04 433.473 238.939 455.982C238.731 501.047 236.389 545.498 238.293 590.701Z" fill="#155AE2"/>
<path d="M258.225 590.701C261.062 658.149 257.912 726.965 257.155 795.207C256.8 827.35 257.056 857.473 256.786 889.595C256.449 929.462 254.632 968.972 254.475 1008.65C254.418 1023.23 255.885 1037.5 257.177 1051.99C259.626 1079.38 265.219 1104.87 257.277 1131.91C251.987 1149.92 249.404 1167.11 245.698 1185.26C241.607 1205.3 239.516 1226.14 237.831 1246.55C236.682 1260.47 236.143 1274.45 236.193 1288.4C236.437 1356.74 245.924 1424.42 246.587 1492.86C246.867 1521.38 248.836 1549.28 247.801 1578.13C245.677 1637.44 246.73 1694.07 249.662 1756.55C251.087 1786.9 254.374 1814.38 254.471 1846.09C254.501 1856.36 255.12 1871.46 255.787 1884.52C256.45 1897.52 257.275 1898.5 257.275 1911.08H260.813C260.813 1895.72 258.871 1889.1 258.612 1883.94C258.423 1880.16 258.393 1877.13 258.329 1871.87C257.914 1837.31 252.592 1802.72 251.534 1768.18C249.009 1685.74 251.962 1603.83 249.465 1521.84C248.488 1489.74 248.062 1458.69 246.037 1426.8C243.468 1386.34 241.01 1345.81 239.025 1305.34C237.799 1280.31 237.361 1254.76 240.478 1229.83C242.886 1210.58 245.232 1196.98 248.284 1181.39C252.754 1158.53 255.101 1143.3 260.3 1125.02C265.604 1106.37 263.488 1088.53 260.491 1067.45C258.88 1056.14 258.174 1044.76 256.811 1033.45C256.008 1026.77 255.566 1019.95 255.643 1013.23C255.809 998.43 257.279 984.289 257.992 969.601C259.272 943.272 257.724 916.874 258.991 890.531C260.934 850.107 257.774 811.756 259.268 769.087C261.017 719.233 263.941 678.815 261.281 633.911C258.647 589.49 258.024 544.596 261.463 500.03C263.42 474.664 262.326 448.592 261.151 423.197C258.432 364.384 257.535 305.737 259.75 246.889C260.813 218.612 260.811 161.844 260.811 161.844H257.285C257.285 161.844 256.314 256.364 256.697 303.599C256.843 321.861 256.227 339.128 256.563 357.444C257.206 392.606 260.836 433.474 260.734 455.983C260.528 501.047 256.318 545.498 258.225 590.701Z" fill="#155AE2"/>
<path d="M111.837 1911.07H108.306C108.306 1895.54 106.528 1881.73 104.974 1867.81C101.605 1837.65 103.821 1807.02 103.327 1776.76C102.9 1750.53 103.921 1724.09 102.604 1697.91C101.844 1682.82 99.597 1667.23 99.833 1652.19C100.193 1629.29 98.174 1607.37 98.687 1584.39C99.246 1559.24 98.866 1534.03 95.901 1509C93.931 1492.33 91.105 1475.79 90.887 1458.99C90.35 1417.39 96.231 1376.06 98.066 1334.54C99.775 1295.83 96.482 1257.16 98.544 1218.31C99.607 1198.24 101.032 1178.56 100.657 1158.45C100.238 1136.35 101.895 1113.54 102.947 1091.57C103.883 1072.02 105.268 1051.51 104.352 1032.15C102.76 998.468 102.556 964.625 103.86 931.016C105.007 901.517 104.564 870.885 103.921 841.375C103.072 802.333 107.077 763.951 108.798 725.009C109.56 707.791 109.411 690.273 109.545 672.977C109.837 634.486 106.851 596.068 105.113 557.632C103.679 525.88 107.723 494.181 107.097 462.428C106.615 437.946 103.877 413.657 103.879 389.147C103.883 368.325 103.78 348.008 103.794 327.19C103.814 286.033 108.267 245.344 108.278 204.154C108.283 191.931 108.289 179.709 108.297 167.489C108.297 167.027 108.3 161.841 108.3 161.841H111.835C111.835 168.199 107.512 320.773 107.232 332.929C106.899 347.321 106.874 361.486 107.354 375.828C108.056 396.731 108.28 421.271 109.921 442.155C112.337 472.916 108.125 503.275 108.539 534.05C109.334 592.77 112.098 635.451 112.094 664.39C112.085 735.657 108.319 807.164 106.817 878.52C106.06 914.598 109.539 950.89 108.902 986.663C108.297 1020.69 108.252 1054.11 106.034 1088.18C104.169 1116.81 107.04 1145.47 106.285 1174.12C105.775 1193.53 104.293 1212.91 103.907 1232.32C103.191 1268.3 107.025 1303.92 103.679 1339.88C100.203 1377.23 92.053 1414.39 94.689 1452.05C95.694 1466.38 94.478 1481.36 97.15 1495.55C107.084 1548.3 104.949 1601.44 105.695 1654.63C106.168 1688.72 109.676 1722.54 108.041 1756.66C106.401 1790.87 106.444 1824.91 108.691 1859.1C109.341 1868.94 110.107 1878.78 110.938 1888.61C111.571 1896.1 111.837 1903.56 111.837 1911.07Z" fill="#155AE2"/>
<path d="M116.202 462.427C116.122 468.26 115.913 474.091 115.519 479.912C114.562 493.978 116.711 508.607 114.973 522.543C113.499 534.347 112.365 545.513 113.255 557.634C116.067 596.07 120.903 634.488 120.427 672.98C120.215 690.276 120.452 707.793 119.222 725.01C117.372 750.863 117.466 777.199 118.082 803.334C118.531 822.438 116.227 893.685 116.211 893.022C123.673 835.297 132.173 768.182 137.607 725.903C138.958 715.382 141.466 702.664 141.443 693.53C134.102 726.49 130.847 760.679 123.651 793.408C117.087 751.516 124.547 706.582 124.555 664.39C124.559 635.454 120.086 592.771 118.802 534.052C118.311 511.606 121.011 489.005 122.221 466.598C123.279 447.019 120.444 427.238 121.432 407.34C122.653 382.798 120.394 357.5 119.849 332.687C119.561 319.643 124.139 174.087 124.139 161.844H118.416C118.415 161.844 118.41 167.03 118.41 167.491C118.396 179.711 118.386 191.934 118.379 204.157C118.366 233.369 113.808 262.032 115.933 291.136C118.021 319.737 116.339 348.429 115.144 377.029C113.952 405.531 116.592 434.039 116.202 462.427Z" fill="#155AE2"/>
<path d="M96.7951 425.278C93.3871 405.682 91.8452 384.984 92.3132 364.738C93.2792 322.82 100.398 279.864 97.4302 238.332C95.7002 214.132 97.0052 193.554 98.0712 170.777L100.538 176.946C100.535 198.604 102.692 220.015 102.186 241.989C101.691 263.304 97.4072 282.963 96.4122 303.491C94.7852 337.111 96.7612 370.737 98.5512 404.314C100.216 435.638 104.949 466.658 99.3222 498.011C98.3312 503.527 96.8162 508.898 96.1772 514.469C99.4852 485.693 101.792 453.998 96.7951 425.278Z" fill="#155AE2"/>
<path d="M173.016 179.407C182.621 205.075 176.023 239.557 174.758 266.662C173.504 293.513 173.369 320.944 172.719 347.826C171.204 410.465 169.197 476.348 172.198 539.07C173.227 560.557 175.653 584.64 178.072 610.091C165.596 557.114 164.159 496.141 165.169 440.77C166.128 388.245 162.658 333.565 170.41 281.529C173.949 257.763 172.119 231.54 172.145 207.197L173.016 179.407Z" fill="#155AE2"/>
<path d="M127.41 291.638C128.824 312.089 123.014 333.686 123.554 354.747C123.995 372.061 126.827 388.833 126.599 406.273C133.028 371.21 136.442 325.3 131.245 290.251C129.753 280.188 126.548 270.145 126.639 259.845L127.41 291.638Z" fill="#155AE2"/>
<path d="M191.763 214.757C196.276 253.157 192.428 294.911 191.482 333.52C191.124 348.174 193.677 364.023 194.928 378.772C196.129 392.924 193.791 405.396 192.886 419.4C191.845 435.478 195.513 453.554 191.867 469.246C186.215 428.455 189.735 387.169 186.329 345.987C183.717 314.372 188.116 282.462 189.267 250.963C189.793 236.564 188.533 220.55 191.763 206.448V214.757V214.757Z" fill="#155AE2"/>
<path d="M207.621 258.487C207.344 277.944 210.061 297.267 209.207 316.803C208.096 342.156 209.517 421.524 208.087 432.535C202.855 398.453 203.089 364.71 203.366 335.64C203.512 320.474 204.11 306.577 202.955 291.285C202.032 279.026 204.889 265.503 205.702 253.15C206.457 241.674 205.528 229.04 208.553 217.816L207.621 258.487Z" fill="#155AE2"/>
<path d="M221.145 269.857C220.207 320.149 228.169 369.136 223.326 419.437C222.357 429.489 222.577 439.584 222.077 449.66C218.835 419.161 218.322 389.831 217.492 359.392C216.854 335.93 218.285 312.769 217.38 289.361C216.898 276.895 218.943 265.303 222.077 253.24L221.145 269.857Z" fill="#155AE2"/>
<path d="M242.131 252.365C246.691 279.11 244.456 309.895 244.466 337.121C244.468 343.341 244.656 351.244 243.167 357.097C242.497 324.689 239.1 291.903 239.804 259.397C239.953 252.523 241.579 245.918 242.597 239.247L242.131 252.365Z" fill="#155AE2"/>
<path d="M337.155 151.424C338.705 151.839 340.293 150.918 340.708 149.369L340.76 149.168C340.961 148.423 340.854 147.632 340.468 146.964C340.082 146.297 339.447 145.811 338.702 145.616L324.563 141.851L334.987 135.837C337.205 134.553 337.966 131.72 336.686 129.498L336.541 129.248L336.546 129.245L336.416 129.025C335.804 127.949 334.79 127.171 333.597 126.847C332.404 126.529 331.134 126.698 330.068 127.314L319.644 133.354L323.41 119.206C323.609 118.461 323.504 117.663 323.114 116.996C322.725 116.328 322.088 115.842 321.339 115.648L321.156 115.602C319.61 115.194 318.026 116.121 317.614 117.663L312.295 137.625L304.368 142.181L310.661 118.603C310.94 117.553 310.791 116.445 310.25 115.512C309.709 114.572 308.816 113.891 307.773 113.619L307.246 113.476C305.073 112.9 302.849 114.189 302.268 116.361L293.712 148.351L288.024 151.657L291.787 137.508C291.987 136.763 291.882 135.973 291.496 135.305C291.106 134.637 290.472 134.157 289.726 133.957C288.077 133.523 286.385 134.502 285.943 136.147L280.655 155.908L274.488 159.48L276.649 151.398C277.01 150.036 276.417 148.611 275.202 147.911L275.068 147.833C273.778 147.094 272.162 147.315 271.119 148.358L265.311 154.172L265.292 147.068L279.899 132.414C280.437 131.877 280.735 131.144 280.735 130.386C280.731 129.627 280.431 128.902 279.893 128.37L279.686 128.162C278.567 127.048 276.759 127.054 275.645 128.169L265.3 138.558L265.29 131.973L288.566 108.655C289.357 107.863 289.801 106.788 289.798 105.667C289.798 104.552 289.351 103.476 288.557 102.685L288.346 102.478C286.709 100.851 284.062 100.851 282.429 102.485L265.257 119.672L265.276 110.528L279.843 95.893C280.967 94.766 280.964 92.931 279.833 91.804L279.687 91.661C278.559 90.533 276.728 90.533 275.6 91.661L265.246 102.018L265.232 90.151C265.232 88.874 264.724 87.656 263.819 86.755C262.916 85.854 261.69 85.349 260.414 85.355H260.337H260.334H260.23C258.951 85.349 257.725 85.854 256.82 86.755C255.914 87.662 255.409 88.887 255.409 90.164L255.429 102.037L245.056 91.668C244.514 91.13 243.782 90.825 243.017 90.825C242.256 90.832 241.523 91.136 240.985 91.674L240.943 91.713C239.748 92.919 239.752 94.862 240.949 96.062L255.426 110.521L255.445 119.692L238.475 102.743C237.629 101.902 236.485 101.428 235.296 101.428C234.104 101.435 232.959 101.908 232.117 102.75L231.961 102.905C230.412 104.461 230.415 106.976 231.968 108.525L255.458 131.98V138.565L245.244 128.37C244.661 127.793 243.87 127.469 243.047 127.469C242.224 127.469 241.437 127.8 240.857 128.383L240.817 128.428C239.71 129.543 239.713 131.352 240.828 132.46L255.469 147.074L255.491 154.197L249.678 148.39C248.624 147.334 246.99 147.126 245.704 147.878L245.701 147.872L245.6 147.93C244.371 148.643 243.775 150.095 244.145 151.468L246.319 159.506L240.121 155.947L234.765 136.025C234.564 135.279 234.077 134.644 233.41 134.262C232.743 133.873 231.948 133.769 231.207 133.969L231.028 134.021C229.479 134.436 228.562 136.031 228.977 137.573L232.765 151.709L227.062 148.41L218.523 116.73C218.221 115.615 217.489 114.662 216.487 114.086C215.489 113.508 214.3 113.36 213.186 113.658L213.107 113.677C210.839 114.293 209.498 116.62 210.107 118.888L216.384 142.259L208.464 137.69L203.088 117.767C202.89 117.022 202.4 116.387 201.733 116.004C201.066 115.622 200.272 115.518 199.529 115.719L199.348 115.764C197.803 116.185 196.889 117.774 197.3 119.322L201.085 133.445L190.81 127.534C189.705 126.899 188.392 126.731 187.161 127.061C185.93 127.392 184.88 128.202 184.248 129.31L184.206 129.381L184.501 129.551L184.496 129.561L184.206 129.394L184.002 129.744C183.401 130.787 183.239 132.019 183.552 133.179C183.865 134.34 184.624 135.324 185.664 135.921L196.198 141.98L182.072 145.772C181.332 145.966 180.695 146.459 180.31 147.126C179.924 147.794 179.82 148.591 180.024 149.33L180.073 149.518C180.491 151.067 182.083 151.981 183.633 151.566L203.568 146.219L211.506 150.795L188.141 157.075C187.046 157.367 186.112 158.086 185.545 159.071C184.982 160.05 184.829 161.223 185.127 162.311L185.15 162.409C185.775 164.71 188.147 166.077 190.45 165.455L222.135 156.939L227.845 160.218L213.744 164.016C213.003 164.217 212.366 164.71 211.984 165.377C211.599 166.045 211.499 166.836 211.699 167.581L211.752 167.776C212.17 169.324 213.761 170.238 215.31 169.823L235.227 164.463L241.397 168.015L233.467 170.167C232.041 170.555 231.049 171.845 231.049 173.33L231.383 173.329V173.33V173.388H230.997C230.99 174.859 231.973 176.149 233.393 176.531L241.377 178.683L235.193 182.241L215.257 176.927C213.708 176.518 212.116 177.439 211.702 178.987L211.652 179.175C211.237 180.724 212.162 182.319 213.711 182.728L227.84 186.5L222.144 189.792L190.172 181.263C188.001 180.679 185.772 181.975 185.192 184.147C184.871 185.339 185.04 186.603 185.654 187.672C186.271 188.736 187.284 189.507 188.471 189.824L211.469 195.962L203.574 200.53L183.619 195.229C182.072 194.814 180.482 195.734 180.07 197.283L180.015 197.484C179.817 198.223 179.921 199.02 180.307 199.688C180.692 200.355 181.328 200.841 182.072 201.037L196.209 204.802L185.783 210.823C183.566 212.1 182.805 214.932 184.086 217.155L184.232 217.409L184.524 217.239L184.525 217.244L184.238 217.409L184.369 217.636C184.983 218.705 185.999 219.483 187.188 219.8C188.38 220.118 189.647 219.948 190.713 219.333L201.142 213.293L197.379 227.441C197.182 228.186 197.288 228.976 197.674 229.644C198.063 230.311 198.7 230.798 199.445 230.993L199.628 231.045C201.174 231.446 202.758 230.526 203.17 228.983L208.494 209.035L216.411 204.472L210.121 228.051C209.842 229.094 209.99 230.202 210.531 231.135C211.072 232.074 211.965 232.756 213.008 233.029L213.536 233.172C215.707 233.749 217.933 232.459 218.514 230.287L227.063 198.309L232.751 194.997L228.984 209.139C228.572 210.688 229.497 212.282 231.048 212.69C232.696 213.131 234.39 212.153 234.83 210.506L240.114 190.746L246.289 187.181L244.13 195.263C243.768 196.617 244.359 198.05 245.579 198.75L245.702 198.821L245.869 198.529H245.87L245.702 198.821C246.987 199.56 248.605 199.346 249.651 198.296L255.456 192.489L255.469 199.592L240.866 214.238C240.333 214.777 240.03 215.509 240.033 216.267C240.033 217.026 240.339 217.751 240.877 218.282L241.081 218.49C242.198 219.605 244.011 219.599 245.122 218.484L255.469 208.094L255.479 214.679L232.208 237.991C231.418 238.782 230.977 239.859 230.977 240.979C230.977 242.094 231.424 243.17 232.218 243.961L232.426 244.168C234.062 245.795 236.71 245.795 238.343 244.162L255.508 226.98L255.491 236.118L240.928 250.753C239.804 251.881 239.807 253.715 240.938 254.843L241.087 254.986C242.214 256.113 244.045 256.113 245.173 254.986L255.521 244.629L255.526 256.496C255.526 257.772 256.036 258.991 256.94 259.892C257.847 260.794 259.071 261.299 260.349 261.293H260.433V260.968H260.436V261.299H260.526C261.807 261.305 263.039 260.806 263.945 259.899C264.853 258.999 265.361 257.773 265.361 256.49L265.342 244.624L275.719 254.987C276.26 255.53 276.988 255.829 277.754 255.829C278.515 255.829 279.247 255.524 279.785 254.987L279.827 254.947C281.025 253.742 281.023 251.799 279.823 250.599L265.345 236.139L265.328 226.968L282.299 243.916C283.145 244.759 284.289 245.231 285.482 245.231C286.671 245.231 287.815 244.752 288.657 243.91L288.813 243.754C290.365 242.198 290.361 239.684 288.81 238.135L265.315 214.674L265.312 208.089L275.529 218.29C276.112 218.866 276.9 219.19 277.724 219.19C278.547 219.19 279.334 218.86 279.914 218.276L279.956 218.231C281.066 217.116 281.064 215.308 279.945 214.193L265.305 199.578L265.278 192.462L271.096 198.269C272.148 199.319 273.778 199.526 275.065 198.775L274.897 198.484C274.898 198.483 274.899 198.483 274.899 198.483L274.909 198.479L275.076 198.768L275.173 198.71C276.403 197.997 277.001 196.545 276.628 195.171L274.45 187.141L280.652 190.693L286.006 210.629C286.421 212.171 288.012 213.091 289.562 212.676L289.743 212.632C290.484 212.43 291.121 211.944 291.507 211.277C291.892 210.609 291.996 209.818 291.798 209.073L288.01 194.938L293.72 198.237L302.246 229.923C302.871 232.249 305.26 233.623 307.58 233.002L307.664 232.976C309.933 232.366 311.276 230.034 310.668 227.764L304.391 204.387L312.315 208.956L317.681 228.886C318.099 230.428 319.69 231.349 321.238 230.934L321.427 230.882C322.976 230.467 323.893 228.873 323.478 227.322L319.693 213.208L329.972 219.119C331.077 219.754 332.39 219.923 333.621 219.592C334.852 219.255 335.901 218.451 336.533 217.343L336.576 217.272L336.278 217.1L336.565 217.265L336.77 216.915C337.37 215.871 337.531 214.64 337.22 213.479C336.905 212.32 336.148 211.334 335.107 210.738L324.572 204.677L338.702 200.886C339.446 200.692 340.082 200.198 340.468 199.531C340.851 198.864 340.954 198.067 340.753 197.321L340.701 197.134C340.282 195.591 338.691 194.678 337.146 195.092L317.204 200.445L309.265 195.863L332.636 189.584C333.731 189.292 334.664 188.572 335.228 187.587C335.795 186.609 335.944 185.442 335.649 184.346L335.624 184.25C335.002 181.948 332.63 180.581 330.322 181.203L298.634 189.719L292.934 186.44L307.029 182.635C307.775 182.434 308.407 181.948 308.794 181.274C309.176 180.607 309.278 179.816 309.079 179.07L309.025 178.883C308.608 177.334 307.014 176.42 305.468 176.835L285.548 182.195L279.378 178.643L287.315 176.491C288.74 176.102 289.732 174.813 289.732 173.329H289.395V173.263L289.783 173.264C289.788 171.792 288.803 170.503 287.383 170.121L279.399 167.969L285.582 164.41L305.521 169.725C307.069 170.133 308.657 169.214 309.072 167.664L309.125 167.476C309.321 166.731 309.219 165.94 308.833 165.272C308.443 164.605 307.812 164.119 307.067 163.918L292.935 160.153L298.631 156.854L330.61 165.389C331.65 165.668 332.761 165.519 333.694 164.981C334.628 164.436 335.312 163.549 335.59 162.505C336.248 160.029 334.776 157.483 332.301 156.827L309.303 150.69L317.206 146.121L337.155 151.424ZM246.683 175.592L238.352 173.388H237.904L237.973 173.317H238.433L246.716 171.087L250.578 173.33L251.129 173.328L251.08 173.362H251.082H250.525L250.548 173.382L246.683 175.592ZM255.452 181.891L255.444 186.337L249.369 192.404L248.733 193.516L248.727 193.521L249.365 192.404L251.595 184.101L255.451 181.884L255.783 181.311L255.788 181.308L255.452 181.891ZM255.838 165.377L255.494 164.781L251.622 162.564L249.411 154.282L249.386 154.236L255.482 160.329L255.507 164.788L255.497 164.781L255.838 165.371V165.377V165.377ZM264.988 165.341L265.315 164.774L265.322 160.322L271.401 154.256L272.024 153.166L272.029 153.16L271.404 154.256L269.175 162.552L265.318 164.774L264.988 165.346V165.341ZM271.42 192.468L271.362 192.371L271.385 192.417L265.282 186.324L265.266 181.865L265.278 181.872L264.939 181.28L264.955 181.29L265.278 181.852L269.151 184.075L271.364 192.358L271.427 192.463L271.42 192.468ZM282.42 173.258H282.88L282.803 173.341L282.339 173.342L274.056 175.572L270.193 173.33L269.64 173.332L269.697 173.291V173.29L270.246 173.291L270.224 173.272L274.09 171.062L282.42 173.258Z" fill="#D6D6D6"/>
<path d="M240 0H0V400H240V0Z" fill="#1657D0"/>
<path d="M9.50809 550.808H6.39209C6.39209 545.082 2.88709 502.257 2.75709 499.182C1.13109 461.222 2.91209 422.974 1.36309 385.184C0.71609 369.364 2.07709 353.58 1.37009 337.641C0.69909 322.554 -1.27691 306.961 -1.07191 291.929C-0.467911 248.348 3.19109 202.082 -2.73291 158.973C-5.36591 139.814 -7.98391 120.91 -8.24191 101.505C-8.48991 82.718 -8.56291 63.821 -8.04791 45.051C-7.25191 15.881 -8.42891 -13.002 -5.08691 -42.059C-3.04491 -59.828 -3.79891 -77.898 -2.14891 -95.793C-0.483911 -113.866 -3.76991 -132.411 -1.52391 -150.354C0.645089 -167.675 -0.057911 -184.42 -0.345911 -201.816C-0.713911 -223.921 0.746089 -246.722 1.67409 -268.693C2.66409 -292.199 1.37009 -316.231 1.39709 -339.826C1.42609 -365.465 -3.75091 -390.68 -3.63991 -416.232C-3.55991 -435.144 -6.06191 -453.935 -5.44991 -472.947C-4.98591 -487.426 -4.26091 -501.903 -4.09091 -516.4C-3.91091 -531.743 -1.13291 -546.635 -0.289911 -561.984C0.486089 -576.108 5.13709 -589.539 7.08309 -603.466C8.86309 -616.215 8.77009 -630.448 7.50009 -643.248C2.26809 -695.98 5.69209 -749.668 3.58109 -802.633C2.31709 -834.386 5.87809 -866.084 5.33009 -897.837C4.90609 -922.319 2.48909 -946.607 2.49409 -971.118C2.49609 -998.81 4.99709 -1025.66 6.87909 -1053.18C8.47509 -1076.49 6.84609 -1100.37 6.67409 -1123.74C6.59509 -1134.51 6.36909 -1145.32 6.37109 -1156.11C6.37409 -1168.33 6.37909 -1180.56 6.38909 -1192.78C6.38909 -1193.24 6.39109 -1198.42 6.39109 -1198.42H9.50609C9.50609 -1190.77 11.2641 -1097.64 11.0871 -1088.53C10.7151 -1069.49 10.0041 -1050.48 8.85109 -1031.48C7.89609 -1015.78 5.08809 -1000.29 5.55609 -984.437C6.17409 -963.534 6.37209 -938.993 7.81909 -918.11C9.94809 -887.349 4.61109 -856.919 6.60209 -826.215C7.50909 -812.244 8.02209 -798.178 8.35409 -784.251C8.69709 -769.778 6.57409 -755.445 6.87309 -740.997C7.12909 -728.578 7.15609 -716.316 7.70009 -704.005C8.63009 -682.937 12.9401 -661.875 13.2721 -640.836C13.5941 -620.61 9.83809 -600.193 6.19509 -580.356C3.56109 -566.022 1.19909 -551.27 0.263089 -536.678C-0.679911 -521.998 -1.58891 -507.455 -1.87891 -492.681C-2.23691 -474.416 -3.14791 -456.149 -2.13691 -437.884C-0.603911 -410.181 1.75109 -382.552 5.10809 -354.835C8.33409 -328.186 5.92009 -298.721 4.39309 -272.086C2.63909 -241.55 5.73309 -210.648 4.40409 -180.023C3.62009 -161.994 2.70009 -143.996 2.26109 -125.947C1.82009 -107.634 4.03209 -89.302 3.81709 -70.887C3.69709 -60.689 2.41909 -50.477 1.41109 -40.34C-2.67291 0.702034 -2.38291 42.253 -3.45591 83.548C-3.81191 97.292 -3.55791 110.6 -2.48091 124.03C-1.35191 138.174 2.53509 151.914 3.73309 166.001C4.91009 179.844 3.59309 193.804 5.54209 207.77C7.55609 222.189 5.92909 236.829 5.02309 251.325C2.97509 284.167 4.44509 318.407 6.37109 351.294C7.82009 376.05 6.03209 399.401 4.88809 423.996C3.71009 449.35 5.48609 474.71 6.60809 500.027C7.31209 515.9 9.51309 530.89 9.50909 546.845C9.50909 547.159 9.50809 550.808 9.50809 550.808Z" fill="#155AE2"/>
<path d="M66.938 550.808H63.827C63.827 535.331 62.26 521.468 60.891 507.549C57.92 477.388 59.875 446.753 59.439 416.49C59.064 390.267 59.962 363.821 58.801 337.64C58.131 322.553 56.152 306.96 56.36 291.928C56.608 274.012 57.941 256.673 53.728 239.106C52.776 235.136 50.753 231.618 50.006 227.497C49.061 222.291 50.594 220.702 51.73 215.967C53.672 207.863 54.46 199.486 55.834 191.266C58.197 177.115 54.36 162.772 52.896 148.73C51.159 132.068 48.667 115.526 48.476 98.7209C48.002 57.1209 53.186 15.7921 54.801 -25.7209C56.308 -64.4369 53.407 -103.108 55.22 -141.96C56.16 -162.025 57.417 -181.707 57.085 -201.816C56.718 -223.921 58.176 -246.722 59.106 -268.693C60.097 -292.199 58.801 -316.231 58.829 -339.826C58.866 -373.936 50.387 -410.281 41.471 -442.992C36.846 -459.958 31.016 -477.575 29.269 -495.137C27.299 -514.917 35.017 -527.15 41.925 -544.75C73.663 -625.58 64.433 -716.705 61.013 -802.633C59.748 -834.386 63.311 -866.084 62.763 -897.837C62.338 -922.319 59.923 -946.607 59.926 -971.118C59.928 -991.94 59.838 -1012.26 59.848 -1033.08C59.868 -1074.23 63.792 -1114.92 63.801 -1156.11C63.804 -1168.33 63.81 -1180.56 63.819 -1192.78C63.819 -1193.24 63.82 -1198.42 63.822 -1198.42H66.936C66.936 -1192.93 63.127 -1039.49 62.877 -1027.34C62.586 -1012.94 62.564 -998.779 62.988 -984.437C63.606 -963.534 63.804 -938.993 65.25 -918.11C67.379 -887.349 63.666 -856.989 64.035 -826.215C64.733 -767.495 67.167 -724.813 67.164 -695.875C67.16 -666.951 66.15 -639.521 63.111 -610.692C60.392 -584.912 49.542 -561.423 40.965 -537.17C31.74 -511.068 27.754 -502.074 38.305 -465.691C45.273 -441.674 54.115 -418.227 59.174 -393.455C61.705 -381.056 61.001 -367.541 62.539 -354.835C65.766 -328.186 63.353 -298.721 61.823 -272.086C60.18 -243.456 62.71 -214.796 62.046 -186.148C61.595 -166.739 60.291 -147.361 59.95 -127.949C59.32 -91.963 62.697 -56.3501 59.748 -20.3881C56.686 16.9609 49.503 54.125 51.827 91.782C52.71 106.114 51.641 121.091 53.995 135.28C58.1 160.008 68.49 195.301 54.481 218.382C49.099 227.258 55.427 233.749 57.599 242.506C61.814 259.506 61.31 276.968 61.527 294.361C61.942 328.457 65.032 362.274 63.593 396.393C62.145 430.602 62.184 464.648 64.167 498.836C64.739 508.675 65.411 518.511 66.144 528.34C66.703 535.83 66.938 543.299 66.938 550.808Z" fill="#155AE2"/>
<path d="M23.3162 550.808H20.1992C20.1992 542.412 16.6982 502.257 16.5662 499.182C14.9392 461.222 16.7202 422.974 15.1722 385.184C14.2672 363.104 14.2622 342.29 14.2672 320.097C14.2712 302.032 12.6702 284.314 13.8212 266.238C14.4522 256.343 13.7102 246.668 13.4702 236.747C12.8412 210.532 14.6752 185.172 11.0762 158.974C8.4432 139.815 5.8242 120.911 5.5682 101.506C5.3182 82.719 5.2462 63.822 5.7582 45.052C6.1712 29.996 6.9492 15.0561 7.5662 -0.0179443C9.1402 -38.4359 14.7202 -77.155 12.6872 -115.502C12.0672 -127.159 10.8112 -138.569 12.2852 -150.353C14.4552 -167.674 13.7522 -184.419 13.4632 -201.815C13.2182 -216.571 13.9672 -231.87 15.2122 -246.595C17.6662 -275.638 18.3812 -304.941 16.6842 -334.062C15.0842 -361.455 10.0492 -388.716 10.1682 -416.231C10.2572 -436.8 5.1392 -457.873 3.5302 -478.606C1.9212 -499.328 6.6062 -521.737 9.0052 -542.341C11.5002 -563.776 16.5492 -584.736 19.5662 -606.078C22.5292 -627.021 20.8102 -645.523 19.3802 -666.426C16.3692 -710.485 16.7492 -754.692 15.8252 -798.83C15.2112 -828.266 19.9842 -857.524 19.0242 -886.964C18.1162 -914.858 16.3002 -943.107 16.3032 -971.117C16.3072 -998.7 14.6802 -1026.45 15.8462 -1053.99C16.4682 -1068.71 16.6592 -1083.77 17.4272 -1098.68C18.4052 -1117.65 20.1742 -1137.17 20.1792 -1156.11C20.1822 -1168.33 20.1892 -1180.56 20.1952 -1192.78C20.1952 -1193.24 20.1992 -1198.42 20.1992 -1198.42H23.3162C23.3162 -1192.52 17.1672 -1043.77 17.4722 -1031.95C17.8892 -1015.96 18.8922 -1000.4 19.3642 -984.436C19.9832 -963.533 20.1822 -938.992 21.6272 -918.109C24.1322 -881.904 20.4432 -845.206 19.6622 -808.988C19.1752 -786.465 20.2162 -763.491 20.6832 -740.996C20.9382 -728.577 20.9672 -716.315 21.5092 -704.004C22.3772 -684.334 25.7762 -664.89 26.9532 -645.237C28.0372 -627.128 23.4502 -611.58 20.5352 -593.958C18.0462 -578.925 16.5492 -563.517 13.7252 -548.508C10.2892 -530.264 6.1562 -511.013 6.3232 -492.307C6.4832 -474.818 11.1612 -457.371 11.9032 -439.776C12.7002 -420.932 11.8742 -403.037 15.0462 -384.629C24.5922 -329.251 22.5462 -270.087 19.7492 -214.101C18.1462 -182.006 14.5832 -148.877 16.3752 -116.855C18.3072 -82.276 13.2942 -47.832 14.0132 -13.257C14.6772 18.707 11.1912 51.2729 10.3532 83.549C9.8092 104.56 13.3102 125.291 15.4972 146.094C21.1382 199.787 18.6392 255.206 18.6092 309.279C18.6022 323.101 19.3762 337.547 20.1792 351.295C21.8122 379.18 19.0182 406.758 19.0022 434.585C18.9932 448.319 20.6372 461.732 20.5592 475.59C20.4252 499.457 23.3232 523.034 23.3202 546.847C23.3182 547.159 23.3162 550.808 23.3162 550.808Z" fill="#155AE2"/>
<path d="M52.6661 550.808H49.5481C49.5481 544.444 46.0471 502.257 45.9141 499.182C45.1051 480.28 44.4071 461.747 43.1941 442.91C41.8151 421.506 43.7761 400.074 44.4641 378.683C45.0861 359.36 43.6131 339.61 43.6171 320.097C43.6191 302.032 42.0191 284.314 43.1721 266.238C44.3631 247.543 40.9331 229.336 40.9031 210.719C40.8901 200.917 39.7611 191.874 39.0561 182.29C37.9951 167.863 39.6371 153.336 38.1151 138.935C36.7941 126.441 35.0851 114.16 34.9161 101.505C33.9591 29.209 45.8721 -43.2341 42.0351 -115.503C41.4161 -127.16 40.1581 -138.57 41.6351 -150.354C45.0291 -177.474 43.0201 -205.362 44.7091 -232.688C46.8021 -266.551 48.0191 -300.036 46.0341 -334.063C45.0261 -351.319 44.5011 -370.269 40.8851 -387.042C37.3111 -403.626 35.3341 -419.886 32.6651 -436.6C30.2151 -451.948 28.0731 -467.959 23.6251 -482.819C18.2081 -500.9 19.8591 -512.209 25.1811 -530.433C30.4291 -548.41 36.2461 -566.08 40.0561 -584.484C48.8311 -626.869 47.9821 -666.374 46.7031 -709.575C45.8201 -739.319 45.7961 -769.082 45.1761 -798.831C44.4671 -832.659 47.7691 -866.391 47.4951 -900.318C47.3211 -921.902 45.0291 -943.436 45.5041 -965.076C45.6571 -972.143 47.8331 -978.721 47.3791 -985.787C46.4731 -1000 42.2491 -1011.45 43.2261 -1026.28C44.8151 -1050.39 45.5351 -1074.56 46.7761 -1098.68C47.7531 -1117.66 49.5251 -1137.18 49.5281 -1156.11C49.5321 -1168.33 49.5381 -1180.56 49.5451 -1192.78C49.5451 -1193.24 49.5481 -1198.42 49.5481 -1198.42H52.6641C52.6641 -1190.63 46.5151 -1043.77 46.8201 -1031.95C47.2111 -1017.01 47.0951 -1002.15 49.0511 -987.3C50.2681 -978.048 48.1761 -968.947 48.1621 -959.246C48.1411 -945.397 50.0261 -931.82 50.9781 -918.11C52.5511 -895.363 48.1811 -873.808 48.1571 -851.244C48.1471 -841.497 48.5781 -831.782 48.1631 -822.022C47.0221 -795.185 49.4781 -767.882 50.0311 -740.997C50.2871 -728.578 50.3151 -716.316 50.8581 -704.005C52.1361 -675.117 51.8971 -646.278 48.6151 -617.392C46.3661 -597.604 41.8641 -577.619 37.3891 -558.274C33.3771 -540.945 25.5121 -524.361 22.7851 -506.576C20.2071 -489.756 29.7961 -471.266 33.0181 -454.737C36.6521 -436.095 40.3941 -415.532 42.4421 -396.649C45.6041 -367.455 50.4791 -339.017 51.2031 -309.36C51.9781 -277.593 50.6831 -245.82 49.0991 -214.102C47.4951 -182.007 43.9341 -148.878 45.7241 -116.856C47.5841 -83.579 46.5241 -50.224 44.7861 -16.975C42.6131 24.627 36.7461 67.849 39.3901 109.472C41.6001 144.303 44.1331 179.082 45.4911 213.968C46.0341 227.893 48.5421 240.658 48.4181 254.861C48.0561 296.248 46.8421 337.761 49.7311 379.103C51.0141 397.429 48.3611 416.131 48.3511 434.583C48.3451 448.317 49.9871 461.73 49.9091 475.588C49.7721 499.455 52.6721 523.032 52.6681 546.845C52.6681 547.159 52.6661 550.808 52.6661 550.808Z" fill="#155AE2"/>
<path d="M92.4371 550.808H89.3201C89.3201 545.025 85.8141 502.257 85.6861 499.182C84.8751 480.28 84.1781 461.747 82.9651 442.91C81.5831 421.506 83.5461 400.074 84.2351 378.683C84.8571 359.36 83.3821 339.61 83.3871 320.097C83.3921 296.425 78.6421 273.272 76.3641 249.743C75.4301 240.115 78.9451 232.575 79.3231 223.296C79.6671 214.758 75.5501 207.03 75.2861 198.578C74.5431 174.878 74.7491 151.164 74.8081 127.454C75.0131 46.627 86.0891 -34.801 81.8041 -115.502C81.1871 -127.159 79.9291 -138.569 81.4031 -150.353C84.8521 -177.879 81.2771 -205.153 80.7391 -232.83C79.8811 -276.961 83.9081 -315.208 73.2921 -365.006C65.2301 -402.827 57.3791 -439.965 51.1151 -478.508C49.3731 -489.215 50.3871 -492.276 57.1611 -499.347C61.3381 -503.712 66.4551 -509.228 68.0711 -515.358C71.8961 -529.861 61.1541 -541.792 65.7211 -555.942C73.6191 -580.401 82.3911 -603.298 85.7211 -628.985C89.1401 -655.362 87.2601 -683.039 86.4731 -709.574C85.5901 -739.318 85.5671 -769.081 84.9441 -798.83C84.2371 -832.658 87.5381 -866.39 87.2651 -900.317C87.0861 -922.598 86.2801 -944.883 85.6741 -967.162C85.1431 -986.657 81.7161 -1006.9 82.9951 -1026.28C84.5851 -1050.39 85.3051 -1074.56 86.5471 -1098.68C87.5241 -1117.65 89.2931 -1137.17 89.3001 -1156.11C89.3031 -1168.33 89.3081 -1180.56 89.3161 -1192.78C89.3161 -1193.24 89.3201 -1198.42 89.3201 -1198.42H92.4341C92.4341 -1192.51 86.2841 -1043.77 86.5911 -1031.95C87.2411 -1007.02 87.9121 -982.109 87.9391 -957.162C87.9581 -939.745 91.2451 -922.533 91.0811 -905.106C90.9111 -887.101 87.9451 -869.26 87.9291 -851.243C87.9171 -841.496 88.3481 -831.781 87.9321 -822.021C86.7931 -795.184 89.2451 -767.881 89.7991 -740.996C90.0581 -728.577 90.0851 -716.315 90.6291 -704.004C91.6811 -680.145 92.1681 -655.404 89.9541 -631.506C87.8541 -608.88 76.7311 -588.925 70.4471 -567.529C65.6041 -551.036 68.7681 -538.004 70.3661 -521.269C71.2881 -511.626 69.6771 -507.572 63.0661 -501.108C56.1221 -494.32 54.1151 -490.482 54.3941 -480.233C55.1041 -454.306 61.8661 -430.312 69.3881 -405.849C82.8111 -362.188 84.7271 -308.863 86.3151 -262.916C88.0001 -214.179 82.7741 -165.481 85.4931 -116.855C87.3541 -83.578 86.2961 -50.223 84.5561 -16.974C82.3811 24.628 76.5161 67.85 79.1591 109.473C81.1461 140.782 73.4021 175.056 79.1491 205.691C80.7041 213.986 83.6131 222.718 82.1941 231.192C80.7171 240.005 80.3451 245.007 81.6461 254.436C87.4021 296.209 86.5651 337.104 89.5021 379.103C90.7851 397.429 88.1311 416.131 88.1231 434.583C88.1131 448.317 89.7581 461.73 89.6801 475.588C89.5461 499.455 92.4431 523.032 92.4371 546.845V550.808V550.808Z" fill="#155AE2"/>
<path d="M31.9031 -887.006C32.2231 -902.203 32.3031 -917.42 31.7181 -932.686C31.4341 -940.139 30.5671 -947.945 31.0061 -955.39C31.3771 -961.695 30.7721 -961.871 26.0651 -965.216C23.9161 -966.743 23.1351 -968.755 23.1651 -971.461C23.2221 -976.979 26.2811 -985.323 27.7541 -990.467C30.3781 -999.623 27.6671 -1008.79 27.3921 -1018.77C27.0701 -1030.51 27.3631 -1042.04 28.0941 -1053.77C29.2471 -1072.22 28.2961 -1090.79 30.1201 -1109.2C31.7051 -1125.2 34.7161 -1139.88 34.7191 -1156.11C34.7231 -1168.33 34.7281 -1180.56 34.7361 -1192.78C34.7361 -1193.24 34.7391 -1198.42 34.7391 -1198.42H37.8571C37.8571 -1198.42 33.9941 -1094.83 32.9191 -1086.68C30.3251 -1066.99 27.9561 -1046.18 29.0091 -1026.29C29.4791 -1017.42 32.3301 -1008.72 32.3831 -999.835C32.4311 -991.818 28.5951 -987.532 25.8971 -980.511C23.7041 -974.796 24.2811 -966.429 31.7911 -967.112C39.2881 -967.732 33.6771 -863.876 33.5761 -859.097C33.2181 -842.397 34.5631 -825.776 34.2011 -808.989C33.7151 -786.466 34.7571 -763.492 35.2221 -740.996C35.4781 -728.578 35.5071 -716.316 36.0501 -704.005C37.0121 -682.19 41.6431 -660.576 41.2801 -638.701C40.9011 -615.926 34.8141 -593.852 30.3011 -571.751C24.1301 -541.492 8.48706 -511.64 16.9131 -479.903C19.3061 -470.884 22.8411 -462.086 23.9941 -452.834C25.2291 -442.916 23.5311 -433.012 23.7271 -423.079C24.4001 -389.31 34.5131 -356.03 35.9681 -321.894C36.5431 -308.441 36.7001 -294.97 36.5821 -281.505C36.5221 -274.549 36.3861 -267.597 36.1961 -260.641C35.7711 -245.369 32.6091 -229.476 32.9481 -214.324C33.2451 -201.034 32.6621 -187.925 31.8471 -174.498C30.6831 -155.321 29.8401 -136.063 30.9161 -116.855C32.8481 -82.277 27.8321 -47.8321 28.5531 -13.2581C29.4901 31.7269 25.9391 76.182 25.6291 121.115C25.4761 143.005 26.4811 163.979 29.4311 185.523C35.0781 226.77 33.1731 267.713 33.1481 309.276C33.1421 323.1 33.9141 337.546 34.7191 351.293C37.2941 395.267 38.4791 438.471 36.7331 482.721C35.8841 504.218 37.8631 525.379 37.8591 546.845C37.8581 547.159 37.8571 550.808 37.8571 550.808H34.7391C34.7391 550.808 32.2041 486.264 32.2041 481.157C32.2061 459.524 30.9231 437.328 31.4061 416.125C32.1351 384.137 28.8001 352.104 28.8091 320.098C28.8121 302.033 27.2091 284.315 28.3611 266.238C28.9931 256.344 28.2511 246.669 28.0111 236.748C27.5891 219.167 25.6071 201.62 25.2211 183.943C24.6801 159.235 21.9371 135.081 21.9361 110.311C21.9341 73.43 20.5981 36.775 22.1051 -0.0169678C23.6811 -38.435 29.2591 -77.154 27.2251 -115.5C26.6081 -127.158 25.3491 -138.568 26.8251 -150.351C28.9951 -167.673 28.2901 -184.417 28.0021 -201.814C27.8031 -213.864 30.6921 -226.283 31.0941 -238.408C31.5621 -252.491 31.3021 -266.587 31.7911 -280.669C32.4041 -298.463 32.2621 -316.286 31.2231 -334.06C29.4401 -364.59 20.4061 -395.437 20.3821 -425.779C20.3741 -438.16 20.3181 -448.288 17.9611 -460.389C14.8891 -476.143 10.4331 -489.298 11.4251 -505.986C12.3431 -521.413 16.2371 -536.389 20.8751 -550.967C26.5941 -568.948 28.0501 -587.069 31.1241 -605.655C33.7261 -621.401 37.5691 -637.438 35.8791 -653.536C34.2981 -668.599 32.8271 -683.318 32.2551 -698.627C31.0031 -732.011 31.0641 -765.429 30.3651 -798.828C29.7501 -828.26 31.2801 -857.59 31.9031 -887.006Z" fill="#155AE2"/>
<path d="M66.002 212.253C64.424 212.291 62.569 213.11 60.557 214.932C55.953 219.089 52.848 227.005 55.523 233.217C57.404 237.597 61.455 237.607 65.015 235.209C69.076 232.468 70.238 227.18 71.031 222.44C72.01 216.578 69.803 212.154 66.002 212.253Z" fill="#155AE2"/>
<path d="M68.85 -363.181C71.875 -300.46 78.7 -236.725 75.992 -173.9C74.858 -147.614 71.633 -118.837 75.001 -92.868C78.731 -64.115 79.077 -38.273 76.448 -9.19202C74.495 12.397 71.866 33.145 70.628 54.805C69.672 71.512 70.135 88.27 69.458 104.986C68.79 121.498 66.738 137.726 68.059 154.109C68.816 163.473 69.013 172.865 69.919 182.233C70.2 185.133 70.567 206.031 72.675 207.269C69.893 205.635 66.681 204.338 63.584 205.448C66.574 182.425 62.49 159.217 63.949 136.129C65.398 113.135 64.201 90.539 64.676 67.321C65.337 35.015 67.212 2.75297 68.196 -29.539C69.487 -71.849 63.646 -115.351 69.088 -157.349C73.356 -190.288 70.712 -223.892 70.036 -256.984C69.516 -282.31 66.247 -307.087 68.867 -332.013C69.19 -335.059 69.221 -337.782 69.929 -340.809L68.85 -363.181Z" fill="#155AE2"/>
<path d="M87.1791 18.283C83.4771 41.115 81.6701 66.51 81.8961 89.94C84.9771 79.475 91.9721 71.187 90.9521 58.437L87.1791 18.283Z" fill="#155AE2"/>
<path d="M83.9442 100.887C85.0732 106.804 91.4802 108.536 93.0512 112.698C95.7162 119.745 92.7582 131.638 91.8502 138.85C90.0002 153.552 86.6682 167.983 83.8942 182.451C82.5362 189.551 82.1322 196.316 81.2482 203.391C81.2452 203.087 81.2482 202.78 81.2612 202.472C77.2712 177.7 85.1172 155.236 83.9442 130.142V100.887V100.887Z" fill="#155AE2"/>
<path d="M71.5461 237.985C70.8261 241.268 66.1321 244.265 65.4281 246.482C63.7591 251.71 65.3451 248.675 66.0991 255.655C67.2871 266.68 69.9671 277.255 70.4741 288.481C71.5891 313.169 72.6031 337.838 73.1661 362.549C73.6041 381.665 73.1361 400.982 72.0871 420.093C70.2351 453.872 71.7161 490.069 76.9491 523.732C76.9341 524.16 76.9301 524.16 76.9361 523.735C78.4151 517.047 79.0941 510.274 79.0941 503.315C79.0961 484.286 74.2381 466.485 74.2461 447.118C74.2751 391.048 79.4401 336.691 74.6141 280.497C73.8451 271.536 73.0141 261.989 74.2401 252.898L71.5461 237.985Z" fill="#155AE2"/>
<path d="M89.874 226.513C80.169 238.687 84.258 253.774 86.126 267.203C88.396 283.527 88.841 299.633 89.877 316.284C90.377 324.341 90.79 332.906 91.36 340.617C97.028 320.2 95.453 286.035 93.655 264.614C93.155 258.655 90.135 253.263 90.953 247.162L89.874 226.513Z" fill="#155AE2"/>
<path d="M182.313 -887.027C181.356 -848.257 179.848 -808.277 181.479 -769.565C182.165 -753.315 180.829 -737.165 182.319 -720.891C186.79 -672.066 183.148 -632.201 186.029 -576.392C186.853 -560.412 188.457 -543.979 188.717 -527.963C188.964 -512.664 190.03 -497.996 189.61 -482.695C188.585 -445.231 187.094 -407.808 190.391 -370.499C191.838 -354.135 199.185 -338.75 204.458 -323.227C209.688 -307.823 219.084 -290.97 220.645 -274.676C222.35 -256.873 218.139 -243.829 205.327 -229.412C195.008 -217.799 184.583 -203.446 178.345 -189.445C167.315 -164.683 163.272 -140.173 161.086 -113.72C159.939 -99.801 159.399 -85.824 159.45 -71.871C159.548 -43.658 160.491 -16.1181 163.394 12.0129C166.474 41.8149 169.621 71.768 172.892 101.648C174.746 118.601 173.899 134.559 174.028 151.142C174.248 179.27 178.505 209.957 176.398 238.099C174.271 266.49 172.321 296.626 170.313 325.028C168.526 350.306 165.783 370.387 166.856 395.687C167.782 417.392 173.972 437.176 173.942 458.881C173.922 472.725 174.168 485.581 176.367 499.369C176.521 500.319 176.632 500.811 177.064 505.85C177.574 511.788 180.532 524.286 180.532 550.808H184.069C184.069 527.675 179.911 515.084 179.028 505.523C177.77 491.908 177.804 485.7 177.765 470.677C177.704 448.33 172.308 421.166 171.635 398.784C170.911 374.606 172.157 355.248 172.818 331.066C173.554 304.131 176.457 278.388 178.187 251.521C180.177 220.656 178.477 188.183 176.501 154.315C175.209 132.19 178.18 112.313 174.761 90.311C171.082 66.601 171.239 43.543 168.828 19.593C166.341 -5.10398 165.366 -30.075 164.146 -54.927C162.918 -79.966 163.083 -105.682 167.464 -130.444C171.749 -154.653 174.729 -180.219 187.854 -201.944C201.728 -224.913 224.822 -238.684 223.264 -268.371C222.428 -284.281 217.565 -297.981 211.289 -312.494C197.977 -343.271 193.507 -369.486 190.775 -402.472C188.872 -425.478 192.899 -450.026 192.878 -473.212C192.826 -535.798 185.732 -598.118 187.355 -660.803C187.932 -683.14 184.329 -705.087 183.644 -727.308C181.681 -790.945 187.32 -854.538 186.172 -918.203C185.712 -943.823 184.856 -969.437 183.864 -995.043C183.119 -1014.35 181.287 -1033.62 182.219 -1052.94C183.192 -1073.12 182.244 -1093.19 183.002 -1113.38C184.066 -1141.66 184.063 -1198.43 184.063 -1198.43H180.54C180.54 -1198.43 179.815 -1055.22 179.729 -1040.83C179.636 -1025.28 180.773 -1009.02 181.101 -993.502C181.904 -955.618 183.202 -922.886 182.313 -887.027Z" fill="#155AE2"/>
<path d="M196.486 -887.027C195.524 -848.257 195.884 -808.277 197.513 -769.565C198.199 -753.315 198.728 -737.165 200.218 -720.891C204.691 -672.066 199.181 -632.201 202.064 -576.392C202.886 -560.412 202.626 -543.979 202.884 -527.963C203.132 -512.664 204.198 -497.996 203.779 -482.695C202.754 -445.231 203.871 -407.808 206.924 -370.499C207.348 -365.284 207.916 -359.712 208.998 -354.594C211.257 -343.909 213.895 -333.526 215.703 -322.681C217.607 -311.256 222.58 -300.778 225.588 -289.602C228.41 -279.114 230.037 -267.396 227.801 -256.685C225.397 -245.155 220.278 -235.821 214.361 -225.824C207.442 -214.136 200.961 -202.025 195.775 -189.445C185.566 -164.683 179.305 -140.173 177.121 -113.72C175.971 -99.801 175.435 -85.824 175.484 -71.871C175.584 -43.658 176.524 -16.1181 179.43 12.0129C185.022 66.1509 187.524 121.515 188.72 175.983C189.664 218.886 183.111 261.692 183.156 304.395C183.18 330.35 182.012 356.297 182.495 382.252C182.936 405.9 188.192 429.088 188.763 452.665C189.142 468.289 189.925 483.841 192.405 499.368C192.653 500.927 192.786 501.606 193.486 510.302C194.043 517.227 196.566 529.069 196.566 550.808H200.107C200.107 531.329 197.119 519.341 196.312 510.654C194.132 487.114 193.743 481.214 192.35 460.968C189.584 420.67 182.458 381.172 184.424 340.644C186.321 301.511 188.757 263.189 191.4 224.368C196.031 156.294 189.811 87.299 183.001 19.594C180.515 -5.10301 179.538 -30.074 178.319 -54.926C177.09 -79.965 177.256 -105.681 181.636 -130.443C186.152 -155.951 191.383 -181.366 204.212 -204.181C210.216 -214.857 217.597 -225.134 222.089 -236.552C226.246 -247.129 230.904 -258.649 230.347 -270.05C229.707 -283.135 226.103 -293.361 221.734 -305.517C217.379 -317.638 217.505 -330.824 213.734 -343.154C208.026 -361.825 208.418 -383.113 206.815 -402.471C204.91 -425.477 205.206 -450.025 205.184 -473.211C205.132 -535.797 201.767 -598.117 203.389 -660.802C203.967 -683.139 202.232 -705.086 201.545 -727.307C199.584 -790.944 201.491 -854.537 200.344 -918.202C199.885 -943.822 200.89 -969.436 199.902 -995.042C199.156 -1014.34 197.324 -1033.62 198.256 -1052.94C199.229 -1073.12 198.283 -1093.19 199.043 -1113.38C200.107 -1141.66 200.104 -1198.42 200.104 -1198.42H196.578C196.578 -1198.42 195.851 -1055.22 195.766 -1040.83C195.676 -1025.28 196.809 -1009.02 197.137 -993.501C197.938 -955.618 197.371 -922.886 196.486 -887.027Z" fill="#155AE2"/>
<path d="M226.364 -887.027C225.724 -861.282 229.16 -835.589 227.971 -809.846C227.027 -789.384 227.039 -768.504 227.215 -747.948C227.451 -720.201 230.319 -693.13 229.987 -665.233C229.633 -635.605 228.549 -606.012 230.078 -576.39C231.093 -556.694 230.179 -536.941 230.846 -517.339C231.693 -492.589 224.984 -468.161 226.341 -443.409C227.83 -416.13 229.094 -389.008 230.147 -361.712C231.067 -337.773 235.982 -314.222 240.748 -290.761C249.016 -250.06 224.915 -220.44 217.874 -186.822C214.931 -172.759 212.545 -158.379 210.711 -144.451C209.369 -134.263 207.845 -123.932 207.001 -113.72C205.853 -99.801 205.314 -85.824 205.364 -71.871C205.464 -43.658 206.404 -16.1181 209.308 12.0129C212.829 46.0759 214.519 79.691 216.173 113.653C216.654 123.561 215.228 133.114 214.746 142.892C213.657 164.873 215.896 187.101 215.812 209.034C215.623 256.258 212.656 302.817 215.093 350.032C215.963 366.838 218.115 383.336 218.671 400.135C219.184 415.725 222.366 431.2 223.897 446.715C225.382 461.785 224.977 477.026 225.277 492.079C225.54 505.164 227.573 519.086 226.799 531.993C226.416 538.358 226.445 550.808 226.445 550.808H229.981C229.981 550.808 230.046 503.373 228.085 479.619C225.38 446.824 223.678 414.002 220.62 381.181C219.122 365.113 218.939 348.952 217.623 332.953C214.78 298.409 217.957 262.722 218.52 228.055C218.987 199.349 216.734 170.72 217.974 141.885C219.728 101.054 216.963 60.221 212.877 19.595C210.391 -5.10203 209.415 -30.073 208.195 -54.925C206.516 -89.1441 209.87 -117.63 213.23 -151.324C214.605 -165.112 218.369 -182.564 222.208 -195.977C229.076 -219.984 242.589 -247.565 243.32 -268.734C244.015 -288.908 238.306 -310.107 235.633 -330.051C232.476 -353.672 232.542 -377.287 230.431 -400.905C228.339 -424.332 228.36 -448.102 230.76 -471.436C237.246 -534.402 231.631 -597.566 233.267 -660.801C233.844 -683.138 232.109 -705.085 231.421 -727.306C230.786 -747.846 230.56 -768.396 230.498 -788.946C230.396 -822.533 228.633 -856.269 229.938 -889.612C230.421 -902.048 228.555 -914.383 229.755 -926.855C230.522 -934.812 229.366 -942.387 229.372 -950.513C229.384 -965.468 230.354 -980.043 229.777 -995.041C229.03 -1014.34 227.198 -1033.62 228.13 -1052.94C229.104 -1073.12 228.156 -1093.19 228.915 -1113.38C229.978 -1141.66 229.977 -1198.42 229.977 -1198.42H226.453C226.453 -1198.42 225.727 -1055.22 225.641 -1040.83C225.548 -1025.28 226.685 -1009.02 227.011 -993.5C227.818 -955.618 227.252 -922.886 226.364 -887.027Z" fill="#155AE2"/>
<path d="M249.263 -887.088C250.787 -861.383 250.821 -834.891 249.663 -809.845C248.723 -789.384 248.734 -768.504 248.908 -747.947C249.144 -720.201 252.012 -693.13 251.681 -665.233C251.199 -624.693 248.815 -583.794 249.096 -543.336C249.307 -513.046 246.05 -485.137 245.982 -457.267C245.869 -412.542 241.402 -371.683 249.067 -327.411C251.781 -311.741 254.885 -295.912 255.212 -280.808C255.591 -263.217 255.362 -251.57 249.604 -234.84C244.181 -219.073 240.575 -202.113 237.425 -185.82C234.297 -169.653 231.252 -152.981 229.801 -136.63C229.12 -128.991 229.325 -121.355 228.697 -113.719C227.548 -99.8 227.009 -85.824 227.058 -71.87C227.225 -25.195 230.78 21.365 231.919 68.03C232.362 86.26 232.993 104.771 234.767 122.79C237.568 151.303 237.619 180.285 237.504 209.036C237.319 256.258 234.352 302.817 236.789 350.032C237.657 366.839 239.81 383.338 240.364 400.136C241.377 430.789 246.365 461.643 246.973 492.08C247.232 505.165 249.265 519.087 248.493 531.995C248.112 538.359 248.141 550.808 248.141 550.808H251.676C251.676 550.808 249.091 495.687 247.505 468.065C246.946 458.345 246.232 449.045 245.042 439.353C242.676 420.131 244.114 400.487 242.315 381.18C240.815 365.114 240.633 348.953 239.316 332.954C236.471 298.41 239.651 262.721 240.214 228.054C240.764 194.102 240.28 159.859 236.198 126.148C233.908 107.228 235.658 87.552 234.284 68.731C231.246 27.183 231.933 -13.258 229.89 -54.925C227.814 -97.2421 232.542 -138.075 239.014 -179.514C241.877 -197.843 247.258 -215.458 251.947 -233.401C256.719 -251.656 258.849 -268.014 256.244 -286.637C253.482 -306.387 249.939 -324.209 248.957 -342.884C247.417 -372.214 248.741 -400.829 248.018 -430.281C247.297 -459.626 250.381 -487.207 250.636 -516.536C251.053 -564.55 253.726 -612.92 254.963 -660.802C255.537 -683.139 253.804 -705.086 253.116 -727.307C252.482 -747.847 252.257 -768.396 252.194 -788.947C252.046 -837.814 254.342 -887.553 250.717 -936.124C247.779 -975.475 247.935 -1013.74 249.825 -1052.94C250.8 -1073.12 249.852 -1093.19 250.611 -1113.38C251.674 -1141.66 251.671 -1198.42 251.671 -1198.42H248.147C248.147 -1198.42 247.423 -1055.22 247.337 -1040.83C247.193 -1016.9 246.251 -992.858 246.533 -968.837C246.764 -949.654 248.762 -895.557 249.263 -887.088Z" fill="#155AE2"/>
<path d="M202.9 -172.913C206.75 -188.779 212.207 -204.068 219.368 -218.889C226.505 -233.665 236.483 -250.32 236.272 -266.849C236.048 -284.338 231.878 -301.636 228.894 -318.793C225.54 -338.095 221.378 -358.108 220.396 -377.637C218.656 -412.177 217.442 -446.159 218.929 -480.741C219.481 -493.573 219.799 -506.933 219.131 -519.685C215.522 -588.525 218.655 -658.284 216.527 -727.307C215.164 -771.496 212.346 -816.331 215.735 -860.239C217.205 -879.299 215.669 -899.099 215.324 -918.202C214.912 -941.055 213.817 -963.923 213.128 -986.808L211.825 -1003.33C211.943 -1000.03 212.049 -996.749 212.118 -993.501C212.92 -955.618 212.351 -922.886 211.464 -887.027C210.499 -848.032 210.862 -808.416 212.496 -769.565C215.297 -702.987 210.089 -635.93 213.959 -569.336C217.543 -507.66 212.535 -445.593 217.867 -383.946C220.164 -357.414 223.866 -332.029 229.316 -305.767C232.03 -292.679 235.493 -281.414 235.457 -267.755C235.42 -253.451 230.746 -242.911 223.558 -230.526C216.003 -217.516 210.199 -202.104 205.079 -188.104C200.927 -176.751 199.305 -165.62 197.416 -153.905C195.271 -140.574 193.218 -127.232 192.103 -113.721C190.955 -99.802 190.415 -85.825 190.465 -71.875C190.563 -45.319 191.452 -18.835 194.439 7.53998C197.988 38.897 200.066 70.386 201.443 101.89C203.131 140.523 203.459 179.214 202.073 217.861C200.77 254.237 202.175 290.209 201.314 326.748C200.809 348.104 199.571 369.977 200.622 391.18C201.646 411.805 203.246 432.109 203.744 452.665C204.126 468.289 204.908 483.837 207.384 499.368C207.595 500.678 207.72 501.248 208.423 509.905C208.986 516.841 211.549 528.08 211.549 550.807H215.085C215.085 530.81 212.082 519.16 211.17 509.295C209.056 486.416 208.674 480.52 207.334 460.963C206.312 446.111 206.63 431.335 205.66 416.46C204.228 394.551 202.974 372.439 202.999 350.45C203.008 340.064 203.73 329.524 204.184 319.146C205.019 299.904 202.409 280.794 203.299 261.485C204.226 241.366 205.051 221.243 205.646 201.109C206.099 185.698 205.266 170.385 205.167 154.967C205.067 139.323 204.608 123.727 205.154 108.103C207.049 53.98 195.952 -0.854977 193.3 -54.928C192.073 -79.967 192.236 -105.683 196.618 -130.445C199.127 -144.621 199.511 -158.933 202.9 -172.913Z" fill="#155AE2"/>
<path d="M238.293 -769.565C241.13 -702.117 236.169 -634.302 240.955 -566.808C243.229 -534.734 237.125 -502.794 236.853 -470.672C236.604 -441.239 233.502 -411.145 236.235 -381.777C237.97 -363.113 238.512 -344.616 241.445 -326.037C245.888 -297.911 251.985 -268.652 243.984 -240.706C239.9 -226.449 235.079 -212.124 230.13 -197.86C227.628 -190.641 227.286 -182.448 225.768 -175.01C221.676 -154.966 219.585 -134.129 217.899 -113.719C216.749 -99.8 216.211 -85.824 216.26 -71.871C216.506 -3.52397 225.994 64.1559 226.657 132.591C226.935 161.108 228.903 189.014 227.87 217.863C225.743 277.173 220.526 336.974 226.001 396.278C228.796 426.548 231.62 455.973 236.403 485.82C238.315 497.732 239.18 502.793 239.088 513.346C239.02 521.157 237.344 532.607 237.344 550.807H240.88C240.88 532.84 242.272 523.398 242.131 511.596C241.714 477.042 234.014 442.392 231.601 407.907C225.875 326.014 232.032 243.56 229.534 161.57C228.555 129.469 228.13 98.42 226.105 66.53C223.537 26.076 221.08 -14.4571 219.094 -54.925C217.867 -79.964 218.031 -105.68 222.413 -130.442C225.212 -146.257 224.399 -163.47 228.351 -178.878C232.132 -193.62 234.686 -208.96 239.98 -223.302C246.262 -240.313 251.449 -258.536 249.747 -276.599C247.887 -296.333 246.082 -316.842 242.943 -336.395C239.428 -358.309 237.176 -372.463 238.062 -390.667C239.34 -416.996 237.792 -443.393 239.06 -469.737C241.002 -510.161 245.608 -550.728 243.068 -591.183C240.237 -636.232 245.876 -681.454 243.215 -726.357C240.582 -770.778 238.092 -815.674 241.532 -860.238C243.488 -885.604 242.394 -911.676 241.22 -937.071C238.5 -995.885 237.603 -1054.53 239.816 -1113.38C240.879 -1141.66 240.879 -1198.42 240.879 -1198.42L237.354 -1198.42C237.354 -1198.42 236.382 -1103.9 236.765 -1056.67C236.911 -1038.41 236.293 -1021.14 236.631 -1002.83C237.275 -967.662 239.04 -926.794 238.939 -904.285C238.731 -859.22 236.389 -814.769 238.293 -769.565Z" fill="#155AE2"/>
<path d="M258.225 -769.565C261.062 -702.117 257.912 -633.302 257.155 -565.059C256.8 -532.917 257.056 -502.794 256.786 -470.672C256.449 -430.805 254.632 -391.295 254.475 -351.62C254.418 -337.042 255.885 -322.764 257.177 -308.28C259.626 -280.89 265.219 -255.397 257.277 -228.356C251.987 -210.344 249.404 -193.155 245.698 -175.01C241.607 -154.966 239.516 -134.129 237.831 -113.719C236.682 -99.8 236.143 -85.824 236.193 -71.871C236.437 -3.52397 245.924 64.1559 246.587 132.591C246.867 161.108 248.836 189.014 247.801 217.863C245.677 277.173 246.73 333.803 249.662 396.278C251.087 426.63 254.374 454.107 254.471 485.82C254.501 496.09 255.12 511.194 255.787 524.255C256.45 537.255 257.275 538.235 257.275 550.808H260.813C260.813 535.452 258.871 528.828 258.612 523.671C258.423 519.893 258.393 516.859 258.329 511.597C257.914 477.043 252.592 442.451 251.534 407.908C249.009 325.469 251.962 243.561 249.465 161.571C248.488 129.47 248.062 98.421 246.037 66.531C243.468 26.077 241.01 -14.456 239.025 -54.924C237.799 -79.9629 237.361 -105.512 240.478 -130.441C242.886 -149.683 245.232 -163.291 248.284 -178.877C252.754 -201.736 255.101 -216.971 260.3 -235.252C265.604 -253.896 263.488 -271.733 260.491 -292.816C258.88 -304.128 258.174 -315.505 256.811 -326.819C256.008 -333.502 255.566 -340.314 255.643 -347.041C255.809 -361.837 257.279 -375.977 257.992 -390.666C259.272 -416.995 257.724 -443.392 258.991 -469.736C260.934 -510.16 257.774 -548.512 259.268 -591.182C261.017 -641.035 263.941 -681.453 261.281 -726.356C258.647 -770.777 258.024 -815.673 261.463 -860.237C263.42 -885.603 262.326 -911.675 261.151 -937.07C258.432 -995.884 257.535 -1054.53 259.75 -1113.38C260.813 -1141.66 260.811 -1198.42 260.811 -1198.42H257.285C257.285 -1198.42 256.314 -1103.9 256.697 -1056.67C256.843 -1038.41 256.227 -1021.14 256.563 -1002.82C257.206 -967.661 260.836 -926.793 260.734 -904.284C260.528 -859.22 256.318 -814.769 258.225 -769.565Z" fill="#155AE2"/>
<path d="M111.837 550.808H108.306C108.306 535.278 106.528 521.468 104.974 507.549C101.605 477.388 103.821 446.753 103.327 416.49C102.9 390.267 103.921 363.821 102.604 337.64C101.844 322.553 99.597 306.96 99.833 291.928C100.193 269.021 98.174 247.1 98.687 224.124C99.246 198.969 98.866 173.759 95.901 148.729C93.931 132.067 91.105 115.525 90.887 98.72C90.35 57.12 96.231 15.791 98.066 -25.722C99.775 -64.438 96.482 -103.109 98.544 -141.961C99.607 -162.026 101.032 -181.708 100.657 -201.817C100.238 -223.922 101.895 -246.723 102.947 -268.694C103.883 -288.247 105.268 -308.753 104.352 -328.112C102.76 -361.798 102.556 -395.642 103.86 -429.25C105.007 -458.75 104.564 -489.381 103.921 -518.891C103.072 -557.933 107.077 -596.314 108.798 -635.258C109.56 -652.475 109.411 -669.993 109.545 -687.289C109.837 -725.78 106.851 -764.199 105.113 -802.634C103.679 -834.387 107.723 -866.085 107.097 -897.838C106.615 -922.32 103.877 -946.608 103.879 -971.119C103.883 -991.941 103.78 -1012.26 103.794 -1033.08C103.814 -1074.23 108.267 -1114.92 108.278 -1156.11C108.283 -1168.34 108.289 -1180.56 108.297 -1192.78C108.297 -1193.24 108.3 -1198.43 108.3 -1198.43H111.835C111.835 -1192.07 107.512 -1039.49 107.232 -1027.34C106.899 -1012.95 106.874 -998.78 107.354 -984.438C108.056 -963.535 108.28 -938.994 109.921 -918.111C112.337 -887.35 108.125 -856.99 108.539 -826.216C109.334 -767.496 112.098 -724.814 112.094 -695.876C112.085 -624.609 108.319 -553.102 106.817 -481.746C106.06 -445.668 109.539 -409.376 108.902 -373.604C108.297 -339.581 108.252 -306.156 106.034 -272.087C104.169 -243.457 107.04 -214.797 106.285 -186.149C105.775 -166.74 104.293 -147.362 103.907 -127.95C103.191 -91.964 107.025 -56.351 103.679 -20.389C100.203 16.96 92.053 54.124 94.689 91.781C95.694 106.113 94.478 121.09 97.15 135.279C107.084 188.029 104.949 241.169 105.695 294.361C106.168 328.457 109.676 362.274 108.041 396.393C106.401 430.602 106.444 464.648 108.691 498.836C109.341 508.675 110.107 518.511 110.938 528.34C111.571 535.83 111.837 543.299 111.837 550.808Z" fill="#155AE2"/>
<path d="M131.568 398.434C122.759 361.348 120.629 313.663 110.23 286.565C112.576 302.586 113.514 352.923 113.935 369.336C114.589 394.664 115.983 420.117 112.241 445.301C109.497 463.764 110.32 482.585 112.372 501.072C112.756 504.526 118.416 546.3 118.416 550.809H124.143C124.143 543.299 123.712 535.83 122.686 528.342C121.337 518.513 120.099 508.677 119.051 498.837C115.411 464.648 115.338 430.603 117.997 396.394C119.173 381.218 118.893 369.438 117.76 350.99C121.637 363.805 122.416 375.868 123.516 388.362C125.227 407.782 127.523 427.477 132.381 446.637C131.977 419.483 145.118 389.886 153.411 364.136C156.281 355.226 165.547 327.132 166.208 323.954C158.916 335.58 141.724 377.285 139.413 382.141C137.781 385.57 130.79 395.153 131.568 398.434Z" fill="#155AE2"/>
<path d="M170.433 195.375C167.622 162.875 164.836 130.534 163.891 97.92C163.149 72.27 160.315 47.568 155.039 22.307C151.831 6.95698 149.793 -8.89902 146.477 -24.721C143.453 -39.162 135.55 -77.73 134.286 -79.322C119.894 -52.062 113.703 -19.89 107.247 9.72398C100.657 39.946 99.976 70.712 101.467 101.436C105.43 183.318 127.797 373.66 132.365 385.533C167.34 336.77 175.183 250.265 170.433 195.375ZM136.074 349.564C130.688 324.257 108.069 174.401 104.432 104.682C103.069 78.522 103.69 52.328 109.733 26.595C115.653 1.38498 121.332 -26.008 134.527 -49.22C135.685 -47.864 136.685 -46.374 137.548 -44.775C143.977 -32.879 142.932 -15.024 145.706 -2.72802C148.744 10.743 150.613 24.241 153.553 37.309C158.391 58.819 160.991 79.847 161.673 101.689C162.537 129.455 165.094 156.991 167.671 184.661C171.307 223.518 159.605 323.923 136.074 349.564Z" fill="#155AE2"/>
<path d="M165.286 343.411C164.262 364.949 160.904 383.466 164.299 404.856C167.051 422.215 167.092 439.181 168.137 456.691C168.618 464.763 169.691 474.785 168.119 482.66C168.137 482.894 168.144 482.894 168.144 482.649C164.038 464.517 162.079 445.106 162.412 426.613C162.731 408.909 157.55 391.87 159.601 374.378C160.457 367.091 160.33 359.357 162.8 352.404L165.286 343.411Z" fill="#155AE2"/>
<path d="M120.899 133.958C125.136 144.03 123.337 156.834 124.943 167.511C126.38 177.063 128.562 186.497 129.993 196.045C131.935 209 139.719 219.517 141.691 232.349C142.386 236.866 142.168 241.396 143.289 245.875C151.061 212.533 154.086 192.26 155.485 163.056C155.776 156.985 155.533 139.462 156.563 133.329C160.134 155.334 162.449 180.319 159.81 199.325C157.244 217.829 156.062 239.585 151.544 257.754C148.977 268.078 140.508 303.503 137.957 313.801C138.3 294.682 134.533 256.64 132.469 242.848C130.557 230.06 130.336 217.501 126.35 205.263C119.73 184.949 119.821 163.852 118.211 142.865C117.58 134.631 115.839 122.653 115.925 113.978L120.899 133.958Z" fill="#155AE2"/>
<path d="M140.833 82.1089C139.118 77.6579 135.805 65.0639 135.167 60.5239C133.941 51.7989 133.456 43.0689 131.452 34.2109C131.654 49.6119 127.087 66.2979 122.217 81.0399C119.804 88.3409 119.559 95.7719 120.104 103.192C121.478 121.938 128.414 139.916 131.158 158.512C133.587 174.976 134.086 193.408 142.323 208.489C140.282 162.492 161.799 136.445 140.833 82.1089ZM135.733 111.081C125.901 103.165 128.955 82.4409 131.418 71.8869C131.418 71.8869 141.568 87.8829 135.733 111.081Z" fill="#155AE2"/>
<path d="M113.847 81.7C112.388 45.489 123.701 7.14205 133.634 -27.549C130.155 -3.43495 141.33 24.077 146.11 47.75C149.575 64.918 152.498 85.458 151.925 103.009C151.92 103.34 151.924 103.343 151.935 103.019C145.049 77.501 145.332 49.578 135.798 24.816C133.963 20.05 131.321 15.731 129.861 10.778C129.855 21.027 123.799 31.8641 121.557 41.8091C120 48.7211 119.17 56.254 116.255 62.718L113.847 81.7Z" fill="#155AE2"/>
<path d="M197.235 -222.479C172.518 -196.329 164.916 -161.553 158.458 -128.311C152.367 -96.958 153.931 -60.89 156.182 -29.179C157.273 -13.825 160.938 1.55299 160.602 16.93C152.917 -18.43 151.506 -55.844 153.198 -91.758C154.589 -121.27 153.173 -152.503 165.488 -180.484C170.671 -192.26 178.803 -210.06 189.522 -218.41L197.235 -222.479Z" fill="#155AE2"/>
<path d="M154.788 378.58C141.35 418.472 149.989 465.454 160.116 505.645C162.079 513.442 163.735 521.856 166.489 528.871C162.893 496.503 157.094 463.62 154.565 431.737C153.974 424.258 155.16 416.886 153.603 409.646L154.788 378.58Z" fill="#155AE2"/>
<path d="M212.494 344.645C212.506 387.648 214.758 429.845 216.781 472.728C217.163 480.809 217.232 488.865 217.217 496.951C217.221 497.304 217.233 497.279 217.249 496.884C208.412 471.574 210.513 447.964 209.899 421.905C209.39 400.194 205.097 379.476 206.065 357.44C206.704 342.899 211.431 328.311 210.777 313.63L212.494 344.645Z" fill="#155AE2"/>
<path d="M197.89 316.049C196.534 338.543 194.68 361.218 194.464 383.736C194.286 402.118 202.18 426.346 196.695 444.013C183.467 391.297 188.976 335.796 193.6 282.557C194.385 273.535 195.818 264.512 195.742 255.632L197.89 316.049Z" fill="#155AE2"/>
<path d="M178.562 340.213C184.58 372.23 176.786 406.322 183.284 438.573C173.265 408.638 175.113 377.125 175.127 345.731C175.132 337.518 179.456 326.483 177.273 318.867L178.562 340.213Z" fill="#155AE2"/>
<g opacity="0.68">
<g opacity="0.68">
<path opacity="0.68" d="M548.868 -631.766H-78.3179V421.339H-27.8639V-329.928L548.868 -631.766Z" fill="#606060"/>
</g>
</g>
<path d="M216.385 3.03998C216.32 -41.772 179.784 -78.045 134.974 -77.98L114.872 -77.951C80.5172 -77.687 61.9782 -105.874 61.9272 -140.231L61.9212 -144.803C61.8682 -181.33 81.9972 -210.533 118.525 -210.533C155.084 -210.533 174.111 -183.312 176.618 -143.308C177.82 -120.906 216.837 -120.835 216.013 -146.493C215.19 -172.151 205.604 -253.851 118.806 -251.696C59.5062 -249.458 21.1472 -199.998 21.2252 -146.209V345.247C21.2252 355.85 29.8212 364.444 40.4232 364.444H197.188C207.792 364.444 216.386 355.849 216.386 345.247V3.03998H216.385Z" fill="#CF0070"/>
</g>
<defs>
<clipPath id="clip0_30_1050">
<rect width="240" height="400" fill="white"/>
</clipPath>
</defs>
</svg>
