<svg width="649" height="32" viewBox="0 0 649 32" fill="none" xmlns="http://www.w3.org/2000/svg">
<rect width="649" height="31.1555" fill="url(#paint0_linear_232_3)"/>
<path d="M151.409 9.70891C152.645 9.70891 153.718 9.92531 154.629 10.3581C155.54 10.7774 156.243 11.386 156.737 12.184C157.232 12.9684 157.479 13.8949 157.479 14.9633C157.479 16.0318 157.232 16.9582 156.737 17.7427C156.243 18.5271 155.54 19.1357 154.629 19.5685C153.718 19.9878 152.645 20.1974 151.409 20.1974H149.027V23.91H145.163V9.70891H151.409ZM151.174 17.0326C151.968 17.0326 152.567 16.8568 152.97 16.5052C153.374 16.14 153.575 15.626 153.575 14.9633C153.575 14.3006 153.374 13.7867 152.97 13.4215C152.567 13.0563 151.968 12.8737 151.174 12.8737H149.027V17.0326H151.174Z" fill="white"/>
<path d="M168.166 21.1509H162.389L161.315 23.91H157.373L163.404 9.70891H167.21L173.261 23.91H169.24L168.166 21.1509ZM167.034 18.189L165.278 13.6446L163.521 18.189H167.034Z" fill="white"/>
<path d="M183.473 16.5254C184.228 16.823 184.82 17.2693 185.25 17.8644C185.679 18.4595 185.894 19.1425 185.894 19.9134C185.894 20.7925 185.607 21.5567 185.035 22.2059C184.462 22.8551 183.688 23.3555 182.712 23.7071C181.736 24.0453 180.663 24.2143 179.492 24.2143C178.568 24.2143 177.624 24.0994 176.661 23.8694C175.711 23.6395 174.801 23.2946 173.929 22.8348L175.08 20.0351C175.692 20.3597 176.343 20.6099 177.032 20.7858C177.735 20.9481 178.412 21.0292 179.062 21.0292C179.921 21.0292 180.624 20.8872 181.17 20.6032C181.717 20.3056 181.99 19.8931 181.99 19.3657C181.99 18.9464 181.821 18.6353 181.483 18.4324C181.144 18.2296 180.689 18.1281 180.116 18.1281H176.622V15.1865H179.804C180.324 15.1865 180.728 15.0783 181.014 14.8619C181.3 14.6455 181.443 14.3547 181.443 13.9895C181.443 13.5297 181.222 13.178 180.78 12.9346C180.337 12.6776 179.765 12.5491 179.062 12.5491C178.49 12.5491 177.885 12.637 177.247 12.8129C176.609 12.9752 176.004 13.2118 175.432 13.5229L174.3 10.4798C175.757 9.74948 177.358 9.38431 179.101 9.38431C180.22 9.38431 181.255 9.55337 182.205 9.89149C183.168 10.2161 183.929 10.6895 184.488 11.3116C185.061 11.9337 185.347 12.6709 185.347 13.5229C185.347 14.1856 185.178 14.7807 184.84 15.3082C184.514 15.8221 184.059 16.2279 183.473 16.5254Z" fill="white"/>
<path d="M195.147 14.233C196.825 14.233 198.12 14.6252 199.031 15.4096C199.942 16.1806 200.397 17.3302 200.397 18.8585C200.397 20.495 199.89 21.746 198.875 22.6116C197.86 23.4772 196.448 23.91 194.639 23.91H188.179V9.70891H191.985V14.233H195.147ZM194.386 21.0292C195.036 21.0292 195.55 20.8466 195.928 20.4815C196.318 20.1163 196.513 19.6023 196.513 18.9396C196.513 17.7089 195.804 17.0935 194.386 17.0935H191.985V21.0292H194.386ZM201.9 9.70891H205.707V23.91H201.9V9.70891Z" fill="white"/>
<path d="M218.839 12.894H212.652V23.91H208.846V9.70891H218.859L218.839 12.894Z" fill="white"/>
<path d="M227.029 9.70891C228.265 9.70891 229.338 9.92531 230.249 10.3581C231.16 10.7774 231.863 11.386 232.357 12.184C232.852 12.9684 233.099 13.8949 233.099 14.9633C233.099 16.0318 232.852 16.9582 232.357 17.7427C231.863 18.5271 231.16 19.1357 230.249 19.5685C229.338 19.9878 228.265 20.1974 227.029 20.1974H224.647V23.91H220.783V9.70891H227.029ZM226.794 17.0326C227.588 17.0326 228.187 16.8568 228.59 16.5052C228.994 16.14 229.195 15.626 229.195 14.9633C229.195 14.3006 228.994 13.7867 228.59 13.4215C228.187 13.0563 227.588 12.8737 226.794 12.8737H224.647V17.0326H226.794Z" fill="white"/>
<path d="M243.786 21.1509H238.009L236.935 23.91H232.993L239.024 9.70891H242.83L248.881 23.91H244.86L243.786 21.1509ZM242.654 18.189L240.898 13.6446L239.141 18.189H242.654Z" fill="white"/>
<path d="M261.611 20.8061V23.91H250.642V9.70891H261.358V12.8129H254.468V15.2068H260.538V18.2093H254.468V20.8061H261.611Z" fill="white"/>
<path d="M276.325 23.91L276.305 16.3834L272.792 22.5102H271.074L267.561 16.5457V23.91H264.008V9.70891H267.19L271.992 17.905L276.676 9.70891H279.858L279.897 23.91H276.325Z" fill="white"/>
<path d="M295.651 15.3894C296.783 15.6328 297.648 16.1197 298.247 16.85C298.859 17.5669 299.164 18.4392 299.164 19.4671C299.164 20.3056 298.943 21.0833 298.501 21.8001C298.071 22.517 297.408 23.0985 296.51 23.5448C295.625 23.9776 294.525 24.194 293.211 24.194C292.248 24.194 291.292 24.0723 290.342 23.8289C289.405 23.5854 288.592 23.2405 287.902 22.7942L289.307 19.7714C289.841 20.1501 290.44 20.4409 291.103 20.6438C291.78 20.8466 292.443 20.9481 293.094 20.9481C293.758 20.9481 294.285 20.8196 294.675 20.5626C295.066 20.3056 295.261 19.9405 295.261 19.4671C295.261 18.5474 294.565 18.0876 293.172 18.0876H291.552V15.5517L293.992 12.8129H288.605V9.70891H298.481V12.2245L295.651 15.3894Z" fill="white"/>
<path d="M306.241 24.194C305.07 24.194 304.029 23.9033 303.118 23.3217C302.207 22.7401 301.491 21.8948 300.971 20.7858C300.463 19.6632 300.209 18.3378 300.209 16.8095C300.209 15.2812 300.463 13.9625 300.971 12.8534C301.491 11.7309 302.207 10.8788 303.118 10.2972C304.029 9.71567 305.07 9.42489 306.241 9.42489C307.399 9.42489 308.433 9.71567 309.344 10.2972C310.255 10.8788 310.964 11.7309 311.472 12.8534C311.992 13.9625 312.253 15.2812 312.253 16.8095C312.253 18.3378 311.992 19.6632 311.472 20.7858C310.964 21.8948 310.255 22.7401 309.344 23.3217C308.433 23.9033 307.399 24.194 306.241 24.194ZM306.241 20.9075C306.891 20.9075 307.405 20.5829 307.783 19.9337C308.173 19.271 308.368 18.2296 308.368 16.8095C308.368 15.3894 308.173 14.3547 307.783 13.7055C307.405 13.0428 306.891 12.7114 306.241 12.7114C305.577 12.7114 305.05 13.0428 304.66 13.7055C304.282 14.3547 304.094 15.3894 304.094 16.8095C304.094 18.2296 304.282 19.271 304.66 19.9337C305.05 20.5829 305.577 20.9075 306.241 20.9075Z" fill="white"/>
<path d="M329.089 21.151H323.312L322.238 23.91H318.295L324.327 9.70891H328.133L334.184 23.91H330.163L329.089 21.151ZM327.957 18.189L326.2 13.6447L324.444 18.189H327.957Z" fill="white"/>
<path d="M345.509 16.4849C346.316 16.7554 346.927 17.1746 347.344 17.7427C347.773 18.3107 347.988 19.014 347.988 19.8526C347.988 21.1104 347.513 22.1045 346.563 22.8348C345.626 23.5516 344.292 23.91 342.561 23.91H335.554V9.70891H342.191C343.83 9.70891 345.099 10.0335 345.997 10.6827C346.908 11.3184 347.363 12.2245 347.363 13.4012C347.363 14.091 347.2 14.6996 346.875 15.2271C346.563 15.7545 346.107 16.1738 345.509 16.4849ZM339.36 15.3894H341.82C342.913 15.3894 343.459 14.9227 343.459 13.9895C343.459 13.0563 342.913 12.5897 341.82 12.5897H339.36V15.3894ZM342.405 21.0292C343.524 21.0292 344.084 20.5356 344.084 19.5483C344.084 18.588 343.524 18.1079 342.405 18.1079H339.36V21.0292H342.405Z" fill="white"/>
<path d="M360.702 12.894H356.525V23.91H352.719V12.894H348.522V9.70891H360.702V12.894Z" fill="white"/>
<path d="M368.812 24.194C367.368 24.194 366.066 23.8762 364.908 23.2405C363.763 22.6049 362.859 21.7258 362.195 20.6032C361.544 19.4806 361.219 18.2161 361.219 16.8095C361.219 15.4029 361.544 14.1383 362.195 13.0157C362.859 11.8932 363.763 11.0141 364.908 10.3784C366.066 9.74272 367.368 9.42489 368.812 9.42489C370.256 9.42489 371.551 9.74272 372.696 10.3784C373.854 11.0141 374.759 11.8932 375.409 13.0157C376.073 14.1383 376.405 15.4029 376.405 16.8095C376.405 18.2161 376.073 19.4806 375.409 20.6032C374.759 21.7258 373.854 22.6049 372.696 23.2405C371.551 23.8762 370.256 24.194 368.812 24.194ZM368.812 20.8669C369.502 20.8669 370.126 20.6979 370.686 20.3597C371.245 20.0216 371.688 19.5483 372.013 18.9396C372.338 18.3175 372.501 17.6074 372.501 16.8095C372.501 16.0115 372.338 15.3082 372.013 14.6996C371.688 14.0774 371.245 13.5973 370.686 13.2592C370.126 12.9211 369.502 12.752 368.812 12.752C368.122 12.752 367.498 12.9211 366.938 13.2592C366.379 13.5973 365.936 14.0774 365.611 14.6996C365.286 15.3082 365.123 16.0115 365.123 16.8095C365.123 17.6074 365.286 18.3175 365.611 18.9396C365.936 19.5483 366.379 20.0216 366.938 20.3597C367.498 20.6979 368.122 20.8669 368.812 20.8669Z" fill="white"/>
<path d="M390.592 23.91L390.573 16.3834L387.059 22.5102H385.342L381.828 16.5457V23.91H378.276V9.70891H381.458L386.259 17.905L390.944 9.70891H394.125L394.164 23.91H390.592Z" fill="white"/>
<path d="M403.59 24.194C402.145 24.194 400.844 23.8762 399.686 23.2405C398.541 22.6049 397.636 21.7258 396.973 20.6032C396.322 19.4806 395.997 18.2161 395.997 16.8095C395.997 15.4029 396.322 14.1383 396.973 13.0157C397.636 11.8932 398.541 11.0141 399.686 10.3784C400.844 9.74272 402.145 9.42489 403.59 9.42489C405.034 9.42489 406.329 9.74272 407.474 10.3784C408.632 11.0141 409.536 11.8932 410.187 13.0157C410.851 14.1383 411.183 15.4029 411.183 16.8095C411.183 18.2161 410.851 19.4806 410.187 20.6032C409.536 21.7258 408.632 22.6049 407.474 23.2405C406.329 23.8762 405.034 24.194 403.59 24.194ZM403.59 20.8669C404.279 20.8669 404.904 20.6979 405.463 20.3597C406.023 20.0216 406.465 19.5483 406.791 18.9396C407.116 18.3175 407.279 17.6074 407.279 16.8095C407.279 16.0115 407.116 15.3082 406.791 14.6996C406.465 14.0774 406.023 13.5973 405.463 13.2592C404.904 12.9211 404.279 12.752 403.59 12.752C402.9 12.752 402.275 12.9211 401.716 13.2592C401.156 13.5973 400.714 14.0774 400.389 14.6996C400.063 15.3082 399.901 16.0115 399.901 16.8095C399.901 17.6074 400.063 18.3175 400.389 18.9396C400.714 19.5483 401.156 20.0216 401.716 20.3597C402.275 20.6979 402.9 20.8669 403.59 20.8669Z" fill="white"/>
<path d="M413.054 9.70891H424.472V12.8129H416.86V15.1053H420.393C422.045 15.1053 423.314 15.4705 424.199 16.2008C425.084 16.9312 425.526 17.9794 425.526 19.3454C425.526 20.779 425.032 21.9016 424.043 22.7131C423.054 23.511 421.668 23.91 419.885 23.91H413.054V9.70891ZM419.632 21.0292C420.282 21.0292 420.777 20.894 421.115 20.6235C421.453 20.353 421.622 19.9675 421.622 19.4671C421.622 18.4663 420.959 17.9658 419.632 17.9658H416.86V21.0292H419.632Z" fill="white"/>
<path d="M427.326 9.70891H431.132V18.047L436.773 9.70891L440.404 9.70891V23.91H436.597V15.5922L430.976 23.91H427.326V9.70891Z" fill="white"/>
<path d="M455.85 9.70891V23.91H452.044V12.894H448.121L448.043 15.2068C447.977 17.2355 447.815 18.8855 447.555 20.1569C447.307 21.4282 446.878 22.4155 446.266 23.1188C445.655 23.8086 444.789 24.1535 443.67 24.1535C443.15 24.1535 442.564 24.0723 441.914 23.91L442.128 20.6235C442.297 20.6641 442.473 20.6843 442.655 20.6843C443.163 20.6843 443.553 20.4747 443.826 20.0554C444.1 19.6362 444.295 19.0546 444.412 18.3107C444.529 17.5533 444.607 16.5728 444.646 15.3691L444.841 9.70891H455.85Z" fill="white"/>
<path d="M469.547 20.8061V23.91H458.577V9.70891H469.293V12.8129H462.403V15.2068H468.474V18.2093H462.403V20.8061H469.547Z" fill="white"/>
<path d="M471.554 9.70891H475.36V18.047L481.001 9.70891H484.631V23.91H480.825V15.5922L475.204 23.91H471.554V9.70891ZM478.073 8.85685C476.694 8.85685 475.679 8.57959 475.028 8.02507C474.39 7.47055 474.072 6.64553 474.072 5.55002H476.668C476.681 6.02339 476.798 6.37503 477.019 6.60496C477.24 6.83488 477.591 6.94984 478.073 6.94984C478.554 6.94984 478.912 6.83488 479.147 6.60496C479.381 6.37503 479.504 6.02339 479.517 5.55002H482.113C482.113 6.64553 481.788 7.47055 481.137 8.02507C480.487 8.57959 479.465 8.85685 478.073 8.85685Z" fill="white"/>
<defs>
<linearGradient id="paint0_linear_232_3" x1="391" y1="15.9246" x2="573" y2="15.9247" gradientUnits="userSpaceOnUse">
<stop stop-color="#ED231A"/>
<stop offset="1" stop-color="#ED231A" stop-opacity="0"/>
</linearGradient>
</defs>
</svg>
