<?xml version="1.0" encoding="utf-8"?>
<!-- Generator: Adobe Illustrator 24.3.0, SVG Export Plug-In . SVG Version: 6.00 Build 0)  -->
<svg version="1.1" id="Слой_1" xmlns="http://www.w3.org/2000/svg" xmlns:xlink="http://www.w3.org/1999/xlink" x="0px" y="0px"
	 viewBox="0 0 104.33 104.33" style="enable-background:new 0 0 104.33 104.33;" xml:space="preserve">
<style type="text/css">
	.st0{clip-path:url(#SVGID_2_);fill:url(#SVGID_3_);}
	.st1{clip-path:url(#SVGID_5_);fill:url(#SVGID_6_);}
	.st2{opacity:0.4;clip-path:url(#SVGID_8_);enable-background:new    ;}
	.st3{clip-path:url(#SVGID_10_);}
	.st4{filter:url(#Adobe_OpacityMaskFilter);}
	.st5{clip-path:url(#SVGID_12_);}
	.st6{enable-background:new    ;}
	.st7{clip-path:url(#SVGID_15_);fill:url(#SVGID_16_);}
	.st8{clip-path:url(#SVGID_12_);mask:url(#SVGID_13_);}
	.st9{clip-path:url(#SVGID_18_);}
	.st10{clip-path:url(#SVGID_20_);fill:url(#SVGID_21_);}
	.st11{clip-path:url(#SVGID_8_);fill:#FFFFFF;}
	.st12{clip-path:url(#SVGID_23_);}
	.st13{filter:url(#Adobe_OpacityMaskFilter_1_);}
	.st14{clip-path:url(#SVGID_25_);}
	.st15{clip-path:url(#SVGID_28_);fill:url(#SVGID_29_);}
	.st16{clip-path:url(#SVGID_25_);mask:url(#SVGID_26_);}
	.st17{clip-path:url(#SVGID_31_);}
	.st18{clip-path:url(#SVGID_33_);fill:url(#SVGID_34_);}
	.st19{clip-path:url(#SVGID_8_);fill:#4B595E;}
	.st20{filter:url(#Adobe_OpacityMaskFilter_2_);}
	.st21{clip-path:url(#SVGID_36_);}
	.st22{clip-path:url(#SVGID_39_);fill:url(#SVGID_40_);}
	.st23{clip-path:url(#SVGID_36_);mask:url(#SVGID_37_);}
	.st24{clip-path:url(#SVGID_42_);}
	.st25{clip-path:url(#SVGID_44_);fill:url(#SVGID_45_);}
	.st26{opacity:0.6;clip-path:url(#SVGID_47_);}
	.st27{clip-path:url(#SVGID_49_);}
	.st28{clip-path:url(#SVGID_51_);fill:#98A2A8;}
	.st29{clip-path:url(#SVGID_47_);fill:#2A3A42;}
	.st30{clip-path:url(#SVGID_47_);fill:#4B595E;}
	.st31{clip-path:url(#SVGID_53_);}
	.st32{clip-path:url(#SVGID_55_);fill:#98A2A8;}
	.st33{clip-path:url(#SVGID_57_);}
	.st34{clip-path:url(#SVGID_59_);fill:#98A2A8;}
	.st35{filter:url(#Adobe_OpacityMaskFilter_3_);}
	.st36{clip-path:url(#SVGID_61_);}
	.st37{clip-path:url(#SVGID_64_);fill:url(#SVGID_65_);}
	.st38{clip-path:url(#SVGID_61_);mask:url(#SVGID_62_);}
	.st39{clip-path:url(#SVGID_67_);}
	.st40{clip-path:url(#SVGID_69_);fill:url(#SVGID_70_);}
	.st41{opacity:0.8;clip-path:url(#SVGID_72_);}
	.st42{clip-path:url(#SVGID_74_);}
	.st43{filter:url(#Adobe_OpacityMaskFilter_4_);}
	.st44{clip-path:url(#SVGID_76_);}
	.st45{clip-path:url(#SVGID_79_);}
	.st46{clip-path:url(#SVGID_81_);fill:url(#SVGID_82_);}
	.st47{clip-path:url(#SVGID_76_);mask:url(#SVGID_77_);}
	.st48{clip-path:url(#SVGID_84_);}
	.st49{clip-path:url(#SVGID_86_);fill:url(#SVGID_87_);}
	.st50{opacity:0.8;clip-path:url(#SVGID_72_);enable-background:new    ;}
	.st51{clip-path:url(#SVGID_89_);}
	.st52{filter:url(#Adobe_OpacityMaskFilter_5_);}
	.st53{clip-path:url(#SVGID_91_);}
	.st54{clip-path:url(#SVGID_94_);}
	.st55{clip-path:url(#SVGID_96_);fill:url(#SVGID_97_);}
	.st56{clip-path:url(#SVGID_91_);mask:url(#SVGID_92_);}
	.st57{clip-path:url(#SVGID_99_);}
	.st58{clip-path:url(#SVGID_101_);fill:url(#SVGID_102_);}
	.st59{filter:url(#Adobe_OpacityMaskFilter_6_);}
	.st60{clip-path:url(#SVGID_104_);}
	.st61{clip-path:url(#SVGID_107_);fill:url(#SVGID_108_);}
	.st62{clip-path:url(#SVGID_104_);mask:url(#SVGID_105_);}
	.st63{clip-path:url(#SVGID_110_);}
	.st64{clip-path:url(#SVGID_112_);fill:url(#SVGID_113_);}
	.st65{filter:url(#Adobe_OpacityMaskFilter_7_);}
	.st66{clip-path:url(#SVGID_115_);}
	.st67{clip-path:url(#SVGID_118_);fill:url(#SVGID_119_);}
	.st68{clip-path:url(#SVGID_115_);mask:url(#SVGID_116_);}
	.st69{clip-path:url(#SVGID_121_);}
	.st70{clip-path:url(#SVGID_123_);fill:url(#SVGID_124_);}
	.st71{filter:url(#Adobe_OpacityMaskFilter_8_);}
	.st72{clip-path:url(#SVGID_126_);}
	.st73{clip-path:url(#SVGID_129_);fill:url(#SVGID_130_);}
	.st74{clip-path:url(#SVGID_126_);mask:url(#SVGID_127_);}
	.st75{clip-path:url(#SVGID_132_);}
	.st76{clip-path:url(#SVGID_134_);fill:url(#SVGID_135_);}
	.st77{filter:url(#Adobe_OpacityMaskFilter_9_);}
	.st78{clip-path:url(#SVGID_137_);}
	.st79{clip-path:url(#SVGID_137_);fill:url(#SVGID_139_);}
	.st80{clip-path:url(#SVGID_137_);mask:url(#SVGID_138_);}
	.st81{clip-path:url(#SVGID_141_);}
	.st82{clip-path:url(#SVGID_143_);fill:url(#SVGID_144_);}
	.st83{clip-path:url(#SVGID_146_);fill:url(#SVGID_147_);}
	.st84{filter:url(#Adobe_OpacityMaskFilter_10_);}
	.st85{clip-path:url(#SVGID_149_);}
	.st86{clip-path:url(#SVGID_152_);fill:url(#SVGID_153_);}
	.st87{clip-path:url(#SVGID_149_);mask:url(#SVGID_150_);}
	.st88{clip-path:url(#SVGID_155_);}
	.st89{clip-path:url(#SVGID_157_);fill:url(#SVGID_158_);}
	.st90{clip-path:url(#SVGID_160_);fill:#FBFBFB;}
	.st91{clip-path:url(#SVGID_160_);fill:#293B42;}
</style>
<g>
	<g>
		<defs>
			<path id="SVGID_1_" d="M4.12,52.16c0-26.63,21.41-48.04,48.04-48.04s48.04,21.41,48.04,48.04c0,26.47-21.41,48.04-48.04,48.04
				C25.69,100.21,4.12,78.8,4.12,52.16 M1.02,52.16c0,28.27,22.88,51.15,51.15,51.15c28.27,0,51.15-22.88,51.15-51.15
				S80.43,1.02,52.16,1.02C23.9,1.02,1.02,23.89,1.02,52.16"/>
		</defs>
		<clipPath id="SVGID_2_">
			<use xlink:href="#SVGID_1_"  style="overflow:visible;"/>
		</clipPath>
		
			<linearGradient id="SVGID_3_" gradientUnits="userSpaceOnUse" x1="-367.2768" y1="350.4324" x2="-366.2768" y2="350.4324" gradientTransform="matrix(78.443 65.696 65.696 -78.443 5801.2241 51636.8867)">
			<stop  offset="0" style="stop-color:#FFFFFF"/>
			<stop  offset="0.1" style="stop-color:#E4E5E3"/>
			<stop  offset="0.1" style="stop-color:#C7CCCC"/>
			<stop  offset="0.2" style="stop-color:#ABB5B7"/>
			<stop  offset="0.2" style="stop-color:#99A5A8"/>
			<stop  offset="0.3" style="stop-color:#8F9CA0"/>
			<stop  offset="0.3" style="stop-color:#8C999D"/>
			<stop  offset="0.4" style="stop-color:#758388"/>
			<stop  offset="0.5" style="stop-color:#59696E"/>
			<stop  offset="0.6" style="stop-color:#48565D"/>
			<stop  offset="0.7" style="stop-color:#3C4C53"/>
			<stop  offset="0.8" style="stop-color:#38494F"/>
			<stop  offset="1" style="stop-color:#3D4C52"/>
		</linearGradient>
		<polygon class="st0" points="43.19,-49.34 153.66,43.19 61.14,153.66 -49.34,61.14 		"/>
	</g>
	<g>
		<defs>
			<path id="SVGID_4_" d="M7.23,52.16c0-24.84,20.1-44.94,44.94-44.94S97.1,27.32,97.1,52.16S77,97.1,52.16,97.1S7.23,77,7.23,52.16
				 M4.12,52.16c0,26.63,21.57,48.04,48.04,48.04c26.63,0,48.04-21.57,48.04-48.04c0-26.63-21.41-48.04-48.04-48.04
				S4.12,25.53,4.12,52.16"/>
		</defs>
		<clipPath id="SVGID_5_">
			<use xlink:href="#SVGID_4_"  style="overflow:visible;"/>
		</clipPath>
		
			<linearGradient id="SVGID_6_" gradientUnits="userSpaceOnUse" x1="-367.2674" y1="350.5264" x2="-366.2674" y2="350.5264" gradientTransform="matrix(73.5342 61.7687 61.7687 -73.5342 5370.4819 48482.5547)">
			<stop  offset="0" style="stop-color:#00222A"/>
			<stop  offset="0.2" style="stop-color:#293B42"/>
			<stop  offset="0.4434" style="stop-color:#5C6A70"/>
			<stop  offset="0.5" style="stop-color:#6A787D"/>
			<stop  offset="0.5" style="stop-color:#748286"/>
			<stop  offset="0.7" style="stop-color:#AAB2B1"/>
			<stop  offset="0.8" style="stop-color:#CCD0CE"/>
			<stop  offset="0.8" style="stop-color:#DADCDA"/>
			<stop  offset="1" style="stop-color:#FBFBFB"/>
		</linearGradient>
		<polygon class="st1" points="43.87,-43.2 147.53,43.87 60.46,147.53 -43.2,60.46 		"/>
	</g>
	<g>
		<defs>
			<rect id="SVGID_7_" x="-0.13" y="-0.13" width="104.58" height="104.58"/>
		</defs>
		<clipPath id="SVGID_8_">
			<use xlink:href="#SVGID_7_"  style="overflow:visible;"/>
		</clipPath>
		<g class="st2">
			<g>
				<defs>
					<rect id="SVGID_9_" x="-33.73" y="-33.73" width="171.78" height="171.78"/>
				</defs>
				<clipPath id="SVGID_10_">
					<use xlink:href="#SVGID_9_"  style="overflow:visible;"/>
				</clipPath>
				<g class="st3">
					<defs>
						<path id="SVGID_11_" d="M1.02,52.16c0-28.27,22.88-51.15,51.15-51.15c28.27,0,51.15,22.88,51.15,51.15
							c0,28.27-22.88,51.15-51.15,51.15C23.89,103.31,1.02,80.43,1.02,52.16 M-0.13,52.16c0,28.76,23.53,52.29,52.29,52.29
							s52.29-23.53,52.29-52.29S80.92-0.13,52.16-0.13S-0.13,23.4-0.13,52.16"/>
					</defs>
					<clipPath id="SVGID_12_">
						<use xlink:href="#SVGID_11_"  style="overflow:visible;"/>
					</clipPath>
					<defs>
						<filter id="Adobe_OpacityMaskFilter" filterUnits="userSpaceOnUse" x="-88.91" y="-88.91" width="282.16" height="282.16">
							<feColorMatrix  type="matrix" values="1 0 0 0 0  0 1 0 0 0  0 0 1 0 0  0 0 0 1 0"/>
						</filter>
					</defs>
					<mask maskUnits="userSpaceOnUse" x="-88.91" y="-88.91" width="282.16" height="282.16" id="SVGID_13_">
						<g class="st4">
							<rect x="-33.73" y="-33.73" class="st5" width="171.78" height="171.78"/>
							<g class="st6">
								<g>
									<defs>
										
											<rect id="SVGID_14_" x="-14.85" y="-14.85" transform="matrix(0.9397 -0.3419 0.3419 0.9397 -14.69 20.9759)" width="134.03" height="134.03"/>
									</defs>
									<clipPath id="SVGID_15_" class="st5">
										<use xlink:href="#SVGID_14_"  style="overflow:visible;"/>
									</clipPath>
									
										<linearGradient id="SVGID_16_" gradientUnits="userSpaceOnUse" x1="-366.9025" y1="347.7015" x2="-365.9025" y2="347.7015" gradientTransform="matrix(-35.7869 -98.3723 -98.3723 35.7869 21143.9551 -48434.918)">
										<stop  offset="0" style="stop-color:#FFFFFF"/>
										<stop  offset="0.1" style="stop-color:#FFFFFF"/>
										<stop  offset="0.3" style="stop-color:#FFFFFF"/>
										<stop  offset="0.5" style="stop-color:#FFFFFF"/>
										<stop  offset="0.7" style="stop-color:#181717"/>
										<stop  offset="0.8" style="stop-color:#181717"/>
										<stop  offset="1" style="stop-color:#181717"/>
									</linearGradient>
									<polygon class="st7" points="-13.65,193.24 -88.92,-13.65 117.98,-88.92 193.24,117.98 									"/>
								</g>
							</g>
						</g>
					</mask>
					<g class="st8">
						<g>
							<defs>
								<rect id="SVGID_17_" x="-33.73" y="-33.73" width="171.78" height="171.78"/>
							</defs>
							<clipPath id="SVGID_18_">
								<use xlink:href="#SVGID_17_"  style="overflow:visible;"/>
							</clipPath>
							<g class="st9">
								<defs>
									
										<rect id="SVGID_19_" x="-14.85" y="-14.85" transform="matrix(0.9397 -0.3419 0.3419 0.9397 -14.6902 20.9761)" width="134.03" height="134.03"/>
								</defs>
								<clipPath id="SVGID_20_">
									<use xlink:href="#SVGID_19_"  style="overflow:visible;"/>
								</clipPath>
								
									<linearGradient id="SVGID_21_" gradientUnits="userSpaceOnUse" x1="-366.9025" y1="347.7015" x2="-365.9025" y2="347.7015" gradientTransform="matrix(-35.7869 -98.3723 -98.3723 35.7869 21143.9531 -48434.918)">
									<stop  offset="0" style="stop-color:#DDE0DD"/>
									<stop  offset="0.1" style="stop-color:#B8BFBE"/>
									<stop  offset="0.3" style="stop-color:#909A9B"/>
									<stop  offset="0.5" style="stop-color:#717D80"/>
									<stop  offset="0.7" style="stop-color:#5D696D"/>
									<stop  offset="0.8" style="stop-color:#505E63"/>
									<stop  offset="1" style="stop-color:#4C5A5F"/>
								</linearGradient>
								<polygon class="st10" points="-13.65,193.24 -88.91,-13.65 117.98,-88.91 193.24,117.98 								"/>
							</g>
						</g>
					</g>
				</g>
			</g>
		</g>
		<path class="st11" d="M3.47,52.33c0-26.8,21.73-48.86,48.7-48.86c26.96,0,48.7,21.9,48.7,48.86c0,26.8-21.73,48.53-48.7,48.53
			C25.2,100.86,3.47,79.13,3.47,52.33 M18.66,18.66C10,27.33,4.61,39.25,4.61,52.33c0,13.07,5.39,25,13.89,33.5
			c8.66,8.5,20.59,13.89,33.66,13.89s25-5.23,33.5-13.89c8.66-8.5,13.89-20.43,13.89-33.5c0-13.07-5.39-25-13.89-33.66
			C77.17,10,65.24,4.61,52.16,4.61S27.16,10,18.66,18.66"/>
		<g class="st2">
			<g>
				<defs>
					<rect id="SVGID_22_" x="-32" y="-32" width="168.32" height="168.32"/>
				</defs>
				<clipPath id="SVGID_23_">
					<use xlink:href="#SVGID_22_"  style="overflow:visible;"/>
				</clipPath>
				<g class="st12">
					<defs>
						<path id="SVGID_24_" d="M21.12,83.05C12.94,74.88,8.37,63.77,8.37,52.16c0-11.6,4.58-22.71,12.91-30.72
							C29.45,13.27,40.56,8.7,52.16,8.7s22.55,4.41,30.88,12.75c8.17,8.17,12.75,19.28,12.75,30.88s-4.41,22.55-12.75,30.88
							c-8.17,8.17-19.28,12.75-30.88,12.75S29.45,91.38,21.12,83.05 M20.3,20.3C11.8,28.8,7.06,40.07,7.06,52.16
							c0,12.09,4.74,23.37,13.24,31.86c8.5,8.5,19.77,13.24,31.86,13.24s23.37-4.74,31.86-13.24c8.5-8.5,13.24-19.77,13.24-31.86
							c0-12.09-4.74-23.37-13.24-31.87c-8.5-8.5-19.77-13.24-31.86-13.24S28.8,11.8,20.3,20.3"/>
					</defs>
					<clipPath id="SVGID_25_">
						<use xlink:href="#SVGID_24_"  style="overflow:visible;"/>
					</clipPath>
					<defs>
						<filter id="Adobe_OpacityMaskFilter_1_" filterUnits="userSpaceOnUse" x="-104.89" y="-104.89" width="314.1" height="314.1">
							<feColorMatrix  type="matrix" values="1 0 0 0 0  0 1 0 0 0  0 0 1 0 0  0 0 0 1 0"/>
						</filter>
					</defs>
					<mask maskUnits="userSpaceOnUse" x="-104.89" y="-104.89" width="314.1" height="314.1" id="SVGID_26_">
						<g class="st13">
							<rect x="-32" y="-32" class="st14" width="168.32" height="168.32"/>
							<g class="st6">
								<g>
									<defs>
										
											<rect id="SVGID_27_" x="-9.45" y="-9.45" transform="matrix(0.866 -0.5 0.5 0.866 -19.0938 33.0731)" width="123.22" height="123.22"/>
									</defs>
									<clipPath id="SVGID_28_" class="st14">
										<use xlink:href="#SVGID_27_"  style="overflow:visible;"/>
									</clipPath>
									
										<linearGradient id="SVGID_29_" gradientUnits="userSpaceOnUse" x1="-367.8223" y1="350.5954" x2="-366.8223" y2="350.5954" gradientTransform="matrix(45.0987 78.1057 78.1057 -45.0987 -10765.582 44553.5039)">
										<stop  offset="0" style="stop-color:#FFFFFF"/>
										<stop  offset="0.1" style="stop-color:#FFFFFF"/>
										<stop  offset="0.3" style="stop-color:#FFFFFF"/>
										<stop  offset="0.5" style="stop-color:#FFFFFF"/>
										<stop  offset="0.7" style="stop-color:#181717"/>
										<stop  offset="0.8" style="stop-color:#181717"/>
										<stop  offset="1" style="stop-color:#181717"/>
									</linearGradient>
									<polygon class="st15" points="94.24,-104.89 209.21,94.24 10.09,209.21 -104.89,10.09 									"/>
								</g>
							</g>
						</g>
					</mask>
					<g class="st16">
						<g>
							<defs>
								<rect id="SVGID_30_" x="-32" y="-32" width="168.32" height="168.32"/>
							</defs>
							<clipPath id="SVGID_31_">
								<use xlink:href="#SVGID_30_"  style="overflow:visible;"/>
							</clipPath>
							<g class="st17">
								<defs>
									
										<rect id="SVGID_32_" x="-9.45" y="-9.45" transform="matrix(0.866 -0.5 0.5 0.866 -19.0942 33.0726)" width="123.22" height="123.22"/>
								</defs>
								<clipPath id="SVGID_33_">
									<use xlink:href="#SVGID_32_"  style="overflow:visible;"/>
								</clipPath>
								
									<linearGradient id="SVGID_34_" gradientUnits="userSpaceOnUse" x1="-367.8223" y1="350.5954" x2="-366.8223" y2="350.5954" gradientTransform="matrix(45.0987 78.1057 78.1057 -45.0987 -10765.584 44553.5078)">
									<stop  offset="0" style="stop-color:#DDE0DD"/>
									<stop  offset="0.1" style="stop-color:#B8BFBE"/>
									<stop  offset="0.3" style="stop-color:#909A9B"/>
									<stop  offset="0.5" style="stop-color:#717D80"/>
									<stop  offset="0.7" style="stop-color:#5D696D"/>
									<stop  offset="0.8" style="stop-color:#505E63"/>
									<stop  offset="1" style="stop-color:#4C5A5F"/>
								</linearGradient>
								<polygon class="st18" points="94.24,-104.89 209.21,94.24 10.09,209.21 -104.89,10.09 								"/>
							</g>
						</g>
					</g>
				</g>
			</g>
		</g>
		<path class="st11" d="M91.87,73.41c-0.82-0.65-32.36-25.65-32.36-25.65l-7.35-42c-0.49,0.16-1.14,0.65-1.47,1.31l-5.23,40.85
			l-32.52,25c0,0-0.65,0.82-0.98,1.31c-0.16,0.33-0.16,0.82-0.16,1.31L52,59.03l40.2,16.5C92.52,74.71,92.2,73.9,91.87,73.41"/>
		<path class="st19" d="M52.49,53.47l-0.33,7.52l36.93,14.87c1.31,0.65,2.29,0.33,3.27-0.33L52.98,53.31
			C52.82,53.14,52.49,53.31,52.49,53.47"/>
	</g>
	<g>
		<defs>
			<path id="SVGID_35_" d="M52.49,53.47c0,0,2.12,3.76,4.58,6.37c3.43,3.76,8.01,6.37,8.01,6.37l24.02,9.64
				c1.31,0.65,2.29,0.33,3.27-0.33L52.98,53.31c-0.05-0.05-0.11-0.07-0.17-0.07C52.65,53.24,52.49,53.35,52.49,53.47"/>
		</defs>
		<clipPath id="SVGID_36_">
			<use xlink:href="#SVGID_35_"  style="overflow:visible;"/>
		</clipPath>
		<defs>
			<filter id="Adobe_OpacityMaskFilter_2_" filterUnits="userSpaceOnUse" x="16.15" y="8.7" width="112.55" height="112.34">
				<feColorMatrix  type="matrix" values="1 0 0 0 0  0 1 0 0 0  0 0 1 0 0  0 0 0 1 0"/>
			</filter>
		</defs>
		<mask maskUnits="userSpaceOnUse" x="16.15" y="8.7" width="112.55" height="112.34" id="SVGID_37_">
			<g class="st20">
				<rect x="42.17" y="35.55" class="st21" width="60.52" height="58.65"/>
				<g class="st6">
					<g>
						<defs>
							
								<rect id="SVGID_38_" x="52.13" y="41.8" transform="matrix(0.519 -0.8548 0.8548 0.519 -20.6166 93.1133)" width="40.58" height="46.16"/>
						</defs>
						<clipPath id="SVGID_39_" class="st21">
							<use xlink:href="#SVGID_38_"  style="overflow:visible;"/>
						</clipPath>
						
							<linearGradient id="SVGID_40_" gradientUnits="userSpaceOnUse" x1="-394.0091" y1="356.4814" x2="-393.0091" y2="356.4814" gradientTransform="matrix(-2.778 4.5755 4.5755 2.778 -2652.8643 876.8314)">
							<stop  offset="0" style="stop-color:#FFFFFF"/>
							<stop  offset="1" style="stop-color:#181717"/>
						</linearGradient>
						<polygon class="st22" points="128.7,51.35 86.38,121.04 16.15,78.4 58.47,8.7 						"/>
					</g>
				</g>
			</g>
		</mask>
		<g class="st23">
			<g>
				<defs>
					<rect id="SVGID_41_" x="42.17" y="35.55" width="60.52" height="58.65"/>
				</defs>
				<clipPath id="SVGID_42_">
					<use xlink:href="#SVGID_41_"  style="overflow:visible;"/>
				</clipPath>
				<g class="st24">
					<defs>
						
							<rect id="SVGID_43_" x="52.13" y="41.8" transform="matrix(0.519 -0.8548 0.8548 0.519 -20.6154 93.1158)" width="40.59" height="46.16"/>
					</defs>
					<clipPath id="SVGID_44_">
						<use xlink:href="#SVGID_43_"  style="overflow:visible;"/>
					</clipPath>
					
						<linearGradient id="SVGID_45_" gradientUnits="userSpaceOnUse" x1="-394.0091" y1="356.4814" x2="-393.0091" y2="356.4814" gradientTransform="matrix(-2.778 4.5755 4.5755 2.778 -2652.8643 876.8314)">
						<stop  offset="0" style="stop-color:#1F333A"/>
						<stop  offset="0.565" style="stop-color:#0E212A"/>
						<stop  offset="1" style="stop-color:#051720"/>
					</linearGradient>
					<polygon class="st25" points="128.7,51.35 86.38,121.04 16.15,78.4 58.47,8.7 					"/>
				</g>
			</g>
		</g>
	</g>
	<g>
		<defs>
			<rect id="SVGID_46_" x="-0.13" y="-0.13" width="104.58" height="104.58"/>
		</defs>
		<clipPath id="SVGID_47_">
			<use xlink:href="#SVGID_46_"  style="overflow:visible;"/>
		</clipPath>
		<g class="st26">
			<g>
				<defs>
					<rect id="SVGID_48_" x="53.63" y="48.73" width="38.57" height="25.49"/>
				</defs>
				<clipPath id="SVGID_49_">
					<use xlink:href="#SVGID_48_"  style="overflow:visible;"/>
				</clipPath>
				<g class="st27">
					<defs>
						<rect id="SVGID_50_" x="53.63" y="48.73" width="38.56" height="25.49"/>
					</defs>
					<clipPath id="SVGID_51_">
						<use xlink:href="#SVGID_50_"  style="overflow:visible;"/>
					</clipPath>
					<path class="st28" d="M92.2,74.06c0-0.16-0.16-0.33-0.33-0.65L58.21,48.73l-4.58,2.94c0,0,0.33,0.16,0.49,0
						c0.49-0.16,1.47-0.33,2.45,0C57.39,52,92.2,74.22,92.2,74.22V74.06z"/>
				</g>
			</g>
		</g>
		<path class="st29" d="M91.05,72.59L59.68,47.75l-1.47,0.98l33.66,24.84C91.71,73.24,91.38,72.92,91.05,72.59"/>
		<path class="st30" d="M52.98,51.02l-0.16,0.16c0,0,0,0.33,0.33,0.16c0.16-0.16,4.9-2.62,6.54-3.6L53.96,8.53
			C53.8,7.06,53.14,6.41,52,5.92l0.65,45.43L52.98,51.02z"/>
		<g class="st26">
			<g>
				<defs>
					<rect id="SVGID_52_" x="46.61" y="6.74" width="4.41" height="42.98"/>
				</defs>
				<clipPath id="SVGID_53_">
					<use xlink:href="#SVGID_52_"  style="overflow:visible;"/>
				</clipPath>
				<g class="st31">
					<defs>
						<rect id="SVGID_54_" x="46.61" y="6.74" width="4.41" height="42.98"/>
					</defs>
					<clipPath id="SVGID_55_">
						<use xlink:href="#SVGID_54_"  style="overflow:visible;"/>
					</clipPath>
					<path class="st32" d="M50.2,8.53v2.12l-3.6,36.11c0,0.49,0.16,0.98,0.65,1.31l2.12,1.63l1.47-39.87l0.16-3.1
						C50.53,7.06,50.36,7.72,50.2,8.53"/>
				</g>
			</g>
		</g>
		<g class="st26">
			<g>
				<defs>
					<rect id="SVGID_56_" x="11.96" y="48.73" width="36.56" height="25.33"/>
				</defs>
				<clipPath id="SVGID_57_">
					<use xlink:href="#SVGID_56_"  style="overflow:visible;"/>
				</clipPath>
				<g class="st33">
					<defs>
						<rect id="SVGID_58_" x="11.96" y="48.73" width="36.56" height="25.33"/>
					</defs>
					<clipPath id="SVGID_59_">
						<use xlink:href="#SVGID_58_"  style="overflow:visible;"/>
					</clipPath>
					<path class="st34" d="M48.24,50.37l-1.96-1.63L13.11,72.75c0,0-0.98,0.65-1.14,1.31l1.14-0.65l34.81-21.9
						C48.57,51.18,48.73,50.86,48.24,50.37"/>
				</g>
			</g>
		</g>
		<path class="st30" d="M51.67,53.47c0-0.16-0.16-0.33-0.33-0.16L11.8,75.7c0.98,0.65,1.96,0.82,3.27,0.32L52,61.15L51.67,53.47z"/>
	</g>
	<g>
		<defs>
			<path id="SVGID_60_" d="M52.82,51.18l0.16-0.16L52.82,51.18z M55.92,43.66c0,4.74-3.11,7.52-3.11,7.52s0,0.16,0.16,0.16h0.16
				c0.17-0.16,4.9-2.61,6.54-3.6l-0.65-4.74L53.96,8.53c0-0.65-0.16-1.14-0.49-1.47C53.47,7.06,55.92,40.07,55.92,43.66"/>
		</defs>
		<clipPath id="SVGID_61_">
			<use xlink:href="#SVGID_60_"  style="overflow:visible;"/>
		</clipPath>
		<defs>
			<filter id="Adobe_OpacityMaskFilter_3_" filterUnits="userSpaceOnUse" x="10.33" y="-16.91" width="91.84" height="92.23">
				<feColorMatrix  type="matrix" values="1 0 0 0 0  0 1 0 0 0  0 0 1 0 0  0 0 0 1 0"/>
			</filter>
		</defs>
		<mask maskUnits="userSpaceOnUse" x="10.33" y="-16.91" width="91.84" height="92.23" id="SVGID_62_">
			<g class="st35">
				<rect x="32.95" y="3.99" class="st36" width="46.59" height="50.44"/>
				<g class="st6">
					<g>
						<defs>
							
								<rect id="SVGID_63_" x="41.64" y="8.59" transform="matrix(0.8491 -0.5283 0.5283 0.8491 -6.9383 34.1239)" width="29.22" height="41.22"/>
						</defs>
						<clipPath id="SVGID_64_" class="st36">
							<use xlink:href="#SVGID_63_"  style="overflow:visible;"/>
						</clipPath>
						
							<linearGradient id="SVGID_65_" gradientUnits="userSpaceOnUse" x1="-364.1679" y1="332.2683" x2="-363.1679" y2="332.2683" gradientTransform="matrix(-4.5755 -7.3534 -7.3534 4.5755 843.8193 -4152.0825)">
							<stop  offset="0" style="stop-color:#FFFFFF"/>
							<stop  offset="0.1" style="stop-color:#FFFFFF"/>
							<stop  offset="0.9" style="stop-color:#181717"/>
							<stop  offset="1" style="stop-color:#181717"/>
						</linearGradient>
						<polygon class="st37" points="45.96,75.32 10.33,18.06 66.54,-16.91 102.17,40.35 						"/>
					</g>
				</g>
			</g>
		</mask>
		<g class="st38">
			<g>
				<defs>
					<rect id="SVGID_66_" x="32.95" y="3.99" width="46.59" height="50.44"/>
				</defs>
				<clipPath id="SVGID_67_">
					<use xlink:href="#SVGID_66_"  style="overflow:visible;"/>
				</clipPath>
				<g class="st39">
					<defs>
						
							<rect id="SVGID_68_" x="41.64" y="8.59" transform="matrix(0.8491 -0.5283 0.5283 0.8491 -6.9386 34.1229)" width="29.22" height="41.22"/>
					</defs>
					<clipPath id="SVGID_69_">
						<use xlink:href="#SVGID_68_"  style="overflow:visible;"/>
					</clipPath>
					
						<linearGradient id="SVGID_70_" gradientUnits="userSpaceOnUse" x1="-364.1679" y1="332.2683" x2="-363.1679" y2="332.2683" gradientTransform="matrix(-4.5755 -7.3534 -7.3534 4.5755 843.8187 -4152.0825)">
						<stop  offset="0" style="stop-color:#051821"/>
						<stop  offset="0.1" style="stop-color:#051821"/>
						<stop  offset="0.9" style="stop-color:#051821"/>
						<stop  offset="1" style="stop-color:#051821"/>
					</linearGradient>
					<polygon class="st40" points="45.96,75.32 10.33,18.06 66.54,-16.91 102.17,40.35 					"/>
				</g>
			</g>
		</g>
	</g>
	<g>
		<defs>
			<rect id="SVGID_71_" x="-0.13" y="-0.13" width="104.58" height="104.58"/>
		</defs>
		<clipPath id="SVGID_72_">
			<use xlink:href="#SVGID_71_"  style="overflow:visible;"/>
		</clipPath>
		<g class="st41">
			<g>
				<defs>
					<rect id="SVGID_73_" x="5.65" y="42.62" width="52.49" height="44.51"/>
				</defs>
				<clipPath id="SVGID_74_">
					<use xlink:href="#SVGID_73_"  style="overflow:visible;"/>
				</clipPath>
				<g class="st42">
					<defs>
						<path id="SVGID_75_" d="M51.48,53.24c-0.04,0-0.08,0.02-0.13,0.07L11.8,75.69c0.98,0.65,1.96,0.82,3.27,0.33L52,61.15
							l-0.33-7.68c0-0.11-0.08-0.22-0.18-0.23H51.48z"/>
					</defs>
					<clipPath id="SVGID_76_">
						<use xlink:href="#SVGID_75_"  style="overflow:visible;"/>
					</clipPath>
					<defs>
						<filter id="Adobe_OpacityMaskFilter_4_" filterUnits="userSpaceOnUse" x="-6.1" y="28.75" width="76.01" height="72.24">
							<feColorMatrix  type="matrix" values="1 0 0 0 0  0 1 0 0 0  0 0 1 0 0  0 0 0 1 0"/>
						</filter>
					</defs>
					<mask maskUnits="userSpaceOnUse" x="-6.1" y="28.75" width="76.01" height="72.24" id="SVGID_77_">
						<g class="st43">
							<rect x="5.65" y="42.62" class="st44" width="52.49" height="44.51"/>
							<g class="st6">
								<g>
									<defs>
										<rect id="SVGID_78_" x="5.65" y="42.62" width="52.49" height="44.51"/>
									</defs>
									<clipPath id="SVGID_79_" class="st44">
										<use xlink:href="#SVGID_78_"  style="overflow:visible;"/>
									</clipPath>
									<g>
										<defs>
											
												<rect id="SVGID_80_" x="9.36" y="48.07" transform="matrix(0.9615 -0.2747 0.2747 0.9615 -16.5828 11.2586)" width="45.07" height="33.51"/>
										</defs>
										<clipPath id="SVGID_81_" class="st45">
											<use xlink:href="#SVGID_80_"  style="overflow:visible;"/>
										</clipPath>
										
											<linearGradient id="SVGID_82_" gradientUnits="userSpaceOnUse" x1="-385.8789" y1="339.5891" x2="-384.8789" y2="339.5891" gradientTransform="matrix(-6.8632 1.9609 1.9609 6.8632 -3262.1848 -1514.9307)">
											<stop  offset="0" style="stop-color:#FFFFFF"/>
											<stop  offset="0.2" style="stop-color:#FFFFFF"/>
											<stop  offset="0.9" style="stop-color:#181717"/>
											<stop  offset="1" style="stop-color:#181717"/>
										</linearGradient>
										<polygon class="st46" points="69.95,83.76 9.59,101.01 -6.15,45.89 54.21,28.65 										"/>
									</g>
								</g>
							</g>
						</g>
					</mask>
					<g class="st47">
						<g>
							<defs>
								<rect id="SVGID_83_" x="5.65" y="42.62" width="52.49" height="44.51"/>
							</defs>
							<clipPath id="SVGID_84_">
								<use xlink:href="#SVGID_83_"  style="overflow:visible;"/>
							</clipPath>
							<g class="st48">
								<defs>
									
										<rect id="SVGID_85_" x="9.38" y="48.17" transform="matrix(0.9615 -0.2747 0.2747 0.9615 -16.5954 11.2601)" width="45.05" height="33.42"/>
								</defs>
								<clipPath id="SVGID_86_">
									<use xlink:href="#SVGID_85_"  style="overflow:visible;"/>
								</clipPath>
								
									<linearGradient id="SVGID_87_" gradientUnits="userSpaceOnUse" x1="-385.8789" y1="339.589" x2="-384.8789" y2="339.589" gradientTransform="matrix(-6.8632 1.9609 1.9609 6.8632 -3262.1721 -1514.8861)">
									<stop  offset="0" style="stop-color:#051821"/>
									<stop  offset="0.2" style="stop-color:#051821"/>
									<stop  offset="0.9" style="stop-color:#051821"/>
									<stop  offset="1" style="stop-color:#051821"/>
								</linearGradient>
								<polygon class="st49" points="69.9,83.77 9.62,101 -6.1,45.98 54.19,28.75 								"/>
							</g>
						</g>
					</g>
				</g>
			</g>
		</g>
		<g class="st50">
			<g>
				<defs>
					<rect id="SVGID_88_" x="5.55" y="40.44" width="54.18" height="49.11"/>
				</defs>
				<clipPath id="SVGID_89_">
					<use xlink:href="#SVGID_88_"  style="overflow:visible;"/>
				</clipPath>
				<g class="st51">
					<defs>
						<path id="SVGID_90_" d="M51.67,53.8c-0.65,1.96-1.8,4.09-4.9,5.72c-2.29,1.31-24.18,12.09-32.03,15.85
							c-0.49,0.33-1.14,0.49-1.47,0.65c0.25,0.12,0.47,0.18,0.69,0.18h0.01c0.35,0,0.7-0.14,1.1-0.34L52,60.99L51.67,53.8z"/>
					</defs>
					<clipPath id="SVGID_91_">
						<use xlink:href="#SVGID_90_"  style="overflow:visible;"/>
					</clipPath>
					<defs>
						<filter id="Adobe_OpacityMaskFilter_5_" filterUnits="userSpaceOnUse" x="-11.39" y="21.76" width="88.05" height="86.48">
							<feColorMatrix  type="matrix" values="1 0 0 0 0  0 1 0 0 0  0 0 1 0 0  0 0 0 1 0"/>
						</filter>
					</defs>
					<mask maskUnits="userSpaceOnUse" x="-11.39" y="21.76" width="88.05" height="86.48" id="SVGID_92_">
						<g class="st52">
							<rect x="5.55" y="40.44" class="st53" width="54.18" height="49.11"/>
							<g class="st6">
								<g>
									<defs>
										<rect id="SVGID_93_" x="5.55" y="40.44" width="54.18" height="49.11"/>
									</defs>
									<clipPath id="SVGID_94_" class="st53">
										<use xlink:href="#SVGID_93_"  style="overflow:visible;"/>
									</clipPath>
									<g>
										<defs>
											
												<rect id="SVGID_95_" x="10.47" y="47.41" transform="matrix(0.9285 -0.3714 0.3714 0.9285 -21.8322 16.7739)" width="44.33" height="35.32"/>
										</defs>
										<clipPath id="SVGID_96_" class="st54">
											<use xlink:href="#SVGID_95_"  style="overflow:visible;"/>
										</clipPath>
										
											<linearGradient id="SVGID_97_" gradientUnits="userSpaceOnUse" x1="-347.2244" y1="296.847" x2="-346.2244" y2="296.847" gradientTransform="matrix(-0.9805 -2.4511 -2.4511 0.9805 421.1081 -1073.8281)">
											<stop  offset="0" style="stop-color:#FFFFFF"/>
											<stop  offset="0.1" style="stop-color:#FFFFFF"/>
											<stop  offset="1" style="stop-color:#181717"/>
										</linearGradient>
										<polygon class="st55" points="12.98,108.42 -11.49,47.24 52.29,21.73 76.76,82.91 										"/>
									</g>
								</g>
							</g>
						</g>
					</mask>
					<g class="st56">
						<g>
							<defs>
								<rect id="SVGID_98_" x="5.55" y="40.44" width="54.18" height="49.11"/>
							</defs>
							<clipPath id="SVGID_99_">
								<use xlink:href="#SVGID_98_"  style="overflow:visible;"/>
							</clipPath>
							<g class="st57">
								<defs>
									
										<rect id="SVGID_100_" x="10.5" y="47.41" transform="matrix(0.9285 -0.3714 0.3714 0.9285 -21.8057 16.7697)" width="44.28" height="35.18"/>
								</defs>
								<clipPath id="SVGID_101_">
									<use xlink:href="#SVGID_100_"  style="overflow:visible;"/>
								</clipPath>
								
									<linearGradient id="SVGID_102_" gradientUnits="userSpaceOnUse" x1="-347.2244" y1="296.8471" x2="-346.2244" y2="296.8471" gradientTransform="matrix(-0.9805 -2.4511 -2.4511 0.9805 421.1336 -1073.8383)">
									<stop  offset="0" style="stop-color:#051821"/>
									<stop  offset="0.1" style="stop-color:#051821"/>
									<stop  offset="1" style="stop-color:#051821"/>
								</linearGradient>
								<polygon class="st58" points="13.02,108.24 -11.39,47.22 52.25,21.76 76.66,82.78 								"/>
							</g>
						</g>
					</g>
				</g>
			</g>
		</g>
	</g>
	<g>
		<defs>
			<path id="SVGID_103_" d="M52.65,51.35l0.16-0.16c0,0,0,0.33,0.33,0.16c0.17-0.16,4.9-2.61,6.54-3.6L53.96,8.53
				C53.8,7.06,53.14,6.41,52,5.92L52.65,51.35z"/>
		</defs>
		<clipPath id="SVGID_104_">
			<use xlink:href="#SVGID_103_"  style="overflow:visible;"/>
		</clipPath>
		<defs>
			<filter id="Adobe_OpacityMaskFilter_6_" filterUnits="userSpaceOnUse" x="41.21" y="2.91" width="29.25" height="51.61">
				<feColorMatrix  type="matrix" values="1 0 0 0 0  0 1 0 0 0  0 0 1 0 0  0 0 0 1 0"/>
			</filter>
		</defs>
		<mask maskUnits="userSpaceOnUse" x="41.21" y="2.91" width="29.25" height="51.61" id="SVGID_105_">
			<g class="st59">
				<rect x="46.71" y="5.03" class="st60" width="18.26" height="47.37"/>
				<g class="st6">
					<g>
						<defs>
							
								<rect id="SVGID_106_" x="49.36" y="5.63" transform="matrix(0.9932 -0.1168 0.1168 0.9932 -2.9719 6.7193)" width="12.95" height="46.18"/>
						</defs>
						<clipPath id="SVGID_107_" class="st60">
							<use xlink:href="#SVGID_106_"  style="overflow:visible;"/>
						</clipPath>
						
							<linearGradient id="SVGID_108_" gradientUnits="userSpaceOnUse" x1="-388.731" y1="333.3749" x2="-387.731" y2="333.3749" gradientTransform="matrix(-5.5559 0.6536 0.6536 5.5559 -2319.5615 -1569.6655)">
							<stop  offset="0" style="stop-color:#FFFFFF"/>
							<stop  offset="0.3" style="stop-color:#FFFFFF"/>
							<stop  offset="0.3" style="stop-color:#FFFFFF"/>
							<stop  offset="0.8" style="stop-color:#181717"/>
							<stop  offset="1" style="stop-color:#181717"/>
						</linearGradient>
						<polygon class="st61" points="70.47,51.75 46.96,54.52 41.21,5.67 64.72,2.91 						"/>
					</g>
				</g>
			</g>
		</mask>
		<g class="st62">
			<g>
				<defs>
					<rect id="SVGID_109_" x="46.71" y="5.03" width="18.26" height="47.37"/>
				</defs>
				<clipPath id="SVGID_110_">
					<use xlink:href="#SVGID_109_"  style="overflow:visible;"/>
				</clipPath>
				<g class="st63">
					<defs>
						
							<rect id="SVGID_111_" x="49.36" y="5.63" transform="matrix(0.9932 -0.1168 0.1168 0.9932 -2.972 6.7197)" width="12.95" height="46.18"/>
					</defs>
					<clipPath id="SVGID_112_">
						<use xlink:href="#SVGID_111_"  style="overflow:visible;"/>
					</clipPath>
					
						<linearGradient id="SVGID_113_" gradientUnits="userSpaceOnUse" x1="-388.731" y1="333.3749" x2="-387.731" y2="333.3749" gradientTransform="matrix(-5.5559 0.6536 0.6536 5.5559 -2319.5613 -1569.6656)">
						<stop  offset="0" style="stop-color:#051821"/>
						<stop  offset="0.3" style="stop-color:#051821"/>
						<stop  offset="0.3" style="stop-color:#051821"/>
						<stop  offset="0.8" style="stop-color:#051821"/>
						<stop  offset="1" style="stop-color:#051821"/>
					</linearGradient>
					<polygon class="st64" points="70.47,51.75 46.96,54.52 41.21,5.67 64.72,2.91 					"/>
				</g>
			</g>
		</g>
	</g>
	<g>
		<defs>
			<path id="SVGID_114_" d="M52.65,51.35l0.16-0.16c0,0,0,0.33,0.33,0.16c0.17-0.16,4.9-2.61,6.54-3.6L53.96,8.53
				C53.8,7.06,53.14,6.41,52,5.92L52.65,51.35z"/>
		</defs>
		<clipPath id="SVGID_115_">
			<use xlink:href="#SVGID_114_"  style="overflow:visible;"/>
		</clipPath>
		<defs>
			<filter id="Adobe_OpacityMaskFilter_7_" filterUnits="userSpaceOnUse" x="40.05" y="2.45" width="31.57" height="52.53">
				<feColorMatrix  type="matrix" values="1 0 0 0 0  0 1 0 0 0  0 0 1 0 0  0 0 0 1 0"/>
			</filter>
		</defs>
		<mask maskUnits="userSpaceOnUse" x="40.05" y="2.45" width="31.57" height="52.53" id="SVGID_116_">
			<g class="st65">
				<rect x="46.15" y="4.93" class="st66" width="19.37" height="47.56"/>
				<g class="st6">
					<g>
						<defs>
							
								<rect id="SVGID_117_" x="49.08" y="5.61" transform="matrix(0.9916 -0.1293 0.1293 0.9916 -3.245 7.4638)" width="13.51" height="46.2"/>
						</defs>
						<clipPath id="SVGID_118_" class="st66">
							<use xlink:href="#SVGID_117_"  style="overflow:visible;"/>
						</clipPath>
						
							<linearGradient id="SVGID_119_" gradientUnits="userSpaceOnUse" x1="-399.1458" y1="326.3355" x2="-398.1458" y2="326.3355" gradientTransform="matrix(-3.7584 0.4902 0.4902 3.7584 -1601.8484 -1002.4365)">
							<stop  offset="0" style="stop-color:#FFFFFF"/>
							<stop  offset="0.4" style="stop-color:#FFFFFF"/>
							<stop  offset="1" style="stop-color:#181717"/>
						</linearGradient>
						<polygon class="st67" points="71.62,51.7 46.48,54.98 40.05,5.73 65.2,2.45 						"/>
					</g>
				</g>
			</g>
		</mask>
		<g class="st68">
			<g>
				<defs>
					<rect id="SVGID_120_" x="46.15" y="4.93" width="19.37" height="47.56"/>
				</defs>
				<clipPath id="SVGID_121_">
					<use xlink:href="#SVGID_120_"  style="overflow:visible;"/>
				</clipPath>
				<g class="st69">
					<defs>
						
							<rect id="SVGID_122_" x="49.08" y="5.61" transform="matrix(0.9916 -0.1294 0.1294 0.9916 -3.2457 7.4658)" width="13.51" height="46.2"/>
					</defs>
					<clipPath id="SVGID_123_">
						<use xlink:href="#SVGID_122_"  style="overflow:visible;"/>
					</clipPath>
					
						<linearGradient id="SVGID_124_" gradientUnits="userSpaceOnUse" x1="-399.1458" y1="326.3354" x2="-398.1458" y2="326.3354" gradientTransform="matrix(-3.7584 0.4902 0.4902 3.7584 -1601.8485 -1002.4365)">
						<stop  offset="0" style="stop-color:#1F333A"/>
						<stop  offset="0.4" style="stop-color:#1F333A"/>
						<stop  offset="1" style="stop-color:#314249"/>
					</linearGradient>
					<polygon class="st70" points="71.62,51.7 46.48,54.98 40.05,5.73 65.2,2.45 					"/>
				</g>
			</g>
		</g>
	</g>
	<g>
		<defs>
			<path id="SVGID_125_" d="M37.46,98.41c-0.02,0-0.03-0.01-0.05-0.01C37.43,98.4,37.44,98.41,37.46,98.41 M4.94,32.55
				c-1.47,4.9-2.61,7.84-3.27,12.26c0,0-0.33,1.63-0.49,3.43c-0.16,1.8-0.16,2.78-0.16,3.92c0,9.8,2.45,15.52,2.45,15.52
				c2.61,8.17,7.19,15.52,13.4,21.08c5.38,4.72,13.68,8.31,20.54,9.63c-1.57-0.36-20.81-8.7-29.2-25.97
				c-1.14-2.62-7.68-15.36-0.49-39.87H4.94z"/>
		</defs>
		<clipPath id="SVGID_126_">
			<use xlink:href="#SVGID_125_"  style="overflow:visible;"/>
		</clipPath>
		<defs>
			<filter id="Adobe_OpacityMaskFilter_8_" filterUnits="userSpaceOnUse" x="-70.33" y="-24.1" width="178.65" height="179.17">
				<feColorMatrix  type="matrix" values="1 0 0 0 0  0 1 0 0 0  0 0 1 0 0  0 0 0 1 0"/>
			</filter>
		</defs>
		<mask maskUnits="userSpaceOnUse" x="-70.33" y="-24.1" width="178.65" height="179.17" id="SVGID_127_">
			<g class="st71">
				<rect x="-27.98" y="16.57" class="st72" width="93.95" height="97.83"/>
				<g class="st6">
					<g>
						<defs>
							
								<rect id="SVGID_128_" x="-18.76" y="33.03" transform="matrix(0.4998 -0.8661 0.8661 0.4998 -47.2164 49.2017)" width="75.5" height="64.9"/>
						</defs>
						<clipPath id="SVGID_129_" class="st72">
							<use xlink:href="#SVGID_128_"  style="overflow:visible;"/>
						</clipPath>
						
							<linearGradient id="SVGID_130_" gradientUnits="userSpaceOnUse" x1="-366.6332" y1="351.6828" x2="-365.6332" y2="351.6828" gradientTransform="matrix(45.5912 26.3089 26.3089 -45.5912 7461.8931 25733.3242)">
							<stop  offset="0" style="stop-color:#181717"/>
							<stop  offset="0" style="stop-color:#181717"/>
							<stop  offset="0.1" style="stop-color:#FFFFFF"/>
							<stop  offset="1" style="stop-color:#FFFFFF"/>
						</linearGradient>
						<polygon class="st73" points="-4.51,-24.1 108.32,41.01 42.5,155.07 -70.33,89.96 						"/>
					</g>
				</g>
			</g>
		</mask>
		<g class="st74">
			<g>
				<defs>
					<rect id="SVGID_131_" x="-27.98" y="16.57" width="93.95" height="97.83"/>
				</defs>
				<clipPath id="SVGID_132_">
					<use xlink:href="#SVGID_131_"  style="overflow:visible;"/>
				</clipPath>
				<g class="st75">
					<defs>
						
							<rect id="SVGID_133_" x="-18.76" y="33.03" transform="matrix(0.4998 -0.8661 0.8661 0.4998 -47.2167 49.2012)" width="75.5" height="64.9"/>
					</defs>
					<clipPath id="SVGID_134_">
						<use xlink:href="#SVGID_133_"  style="overflow:visible;"/>
					</clipPath>
					
						<linearGradient id="SVGID_135_" gradientUnits="userSpaceOnUse" x1="-366.6332" y1="351.6828" x2="-365.6332" y2="351.6828" gradientTransform="matrix(45.5912 26.3089 26.3089 -45.5912 7461.8926 25733.3242)">
						<stop  offset="0" style="stop-color:#1C2E37"/>
						<stop  offset="0" style="stop-color:#1D3139"/>
						<stop  offset="0.1" style="stop-color:#1F333A"/>
						<stop  offset="1" style="stop-color:#1F333A"/>
					</linearGradient>
					<polygon class="st76" points="-4.51,-24.1 108.32,41.01 42.5,155.07 -70.33,89.96 					"/>
				</g>
			</g>
		</g>
	</g>
	<g>
		<defs>
			<path id="SVGID_136_" d="M51.35,53.14c0.16,0,0.33,0,0.33,0.16L52,60.83h0.16l0.33-7.52c0-0.06,0.02-0.12,0.06-0.16H51.35z
				 M52.55,53.14h0.27c-0.05-0.05-0.1-0.07-0.14-0.07C52.63,53.08,52.58,53.1,52.55,53.14"/>
		</defs>
		<clipPath id="SVGID_137_">
			<use xlink:href="#SVGID_136_"  style="overflow:visible;"/>
		</clipPath>
		<defs>
			<filter id="Adobe_OpacityMaskFilter_9_" filterUnits="userSpaceOnUse" x="51.35" y="53.08" width="1.47" height="7.75">
				<feColorMatrix  type="matrix" values="1 0 0 0 0  0 1 0 0 0  0 0 1 0 0  0 0 0 1 0"/>
			</filter>
		</defs>
		<mask maskUnits="userSpaceOnUse" x="51.35" y="53.08" width="1.47" height="7.75" id="SVGID_138_">
			<g class="st77">
				<rect x="51.35" y="53.08" class="st78" width="1.47" height="7.75"/>
				<g class="st6">
					
						<linearGradient id="SVGID_139_" gradientUnits="userSpaceOnUse" x1="-354.6132" y1="335.2309" x2="-353.6132" y2="335.2309" gradientTransform="matrix(0 -7.8437 -7.8437 0 2681.5164 -2720.4756)">
						<stop  offset="0" style="stop-color:#FFFFFF"/>
						<stop  offset="0.3" style="stop-color:#FFFFFF"/>
						<stop  offset="1" style="stop-color:#181717"/>
					</linearGradient>
					<rect x="51.35" y="53.08" class="st79" width="1.47" height="7.75"/>
				</g>
			</g>
		</mask>
		<g class="st80">
			<g>
				<defs>
					<rect id="SVGID_140_" x="51.35" y="53.08" width="1.47" height="7.75"/>
				</defs>
				<clipPath id="SVGID_141_">
					<use xlink:href="#SVGID_140_"  style="overflow:visible;"/>
				</clipPath>
				<g class="st81">
					<defs>
						<rect id="SVGID_142_" x="51.35" y="53.08" width="1.47" height="7.75"/>
					</defs>
					<clipPath id="SVGID_143_">
						<use xlink:href="#SVGID_142_"  style="overflow:visible;"/>
					</clipPath>
					
						<linearGradient id="SVGID_144_" gradientUnits="userSpaceOnUse" x1="-354.6132" y1="335.2309" x2="-353.6132" y2="335.2309" gradientTransform="matrix(0 -7.8437 -7.8437 0 2681.5161 -2720.4753)">
						<stop  offset="0" style="stop-color:#9AA4A9"/>
						<stop  offset="0.3" style="stop-color:#9AA4A9"/>
						<stop  offset="1" style="stop-color:#9AA4A9"/>
					</linearGradient>
					<rect x="51.35" y="53.08" class="st82" width="1.47" height="7.75"/>
				</g>
			</g>
		</g>
	</g>
	<g>
		<defs>
			<path id="SVGID_145_" d="M101.84,50.86c0,27.45-21.9,49.84-49.68,49.84v2.61c27.78,0,51.15-22.88,51.15-51.15
				c0-22.55-14.38-41.51-34.81-48.53C85.66,10.17,101.84,28.14,101.84,50.86"/>
		</defs>
		<clipPath id="SVGID_146_">
			<use xlink:href="#SVGID_145_"  style="overflow:visible;"/>
		</clipPath>
		
			<linearGradient id="SVGID_147_" gradientUnits="userSpaceOnUse" x1="-368.4644" y1="350.0835" x2="-367.4644" y2="350.0835" gradientTransform="matrix(0 99.679 99.679 0 -34818.2344 36731.793)">
			<stop  offset="0" style="stop-color:#DADCDA"/>
			<stop  offset="0" style="stop-color:#BEC4C2"/>
			<stop  offset="0" style="stop-color:#939D9E"/>
			<stop  offset="0" style="stop-color:#768285"/>
			<stop  offset="0" style="stop-color:#657175"/>
			<stop  offset="0" style="stop-color:#606C71"/>
			<stop  offset="0.2" style="stop-color:#293B42"/>
			<stop  offset="0.5" style="stop-color:#1F333A"/>
			<stop  offset="0.8" style="stop-color:#293B42"/>
			<stop  offset="1" style="stop-color:#38494F"/>
		</linearGradient>
		<rect x="52.16" y="3.63" class="st83" width="51.15" height="99.68"/>
	</g>
	<g>
		<defs>
			<path id="SVGID_148_" d="M57.07,4.94c19.77,3.6,32.35,16.5,36.77,30.07v0.16c1.96,5.23,2.94,10.78,3.1,16.83
				c0.16,5.72-1.14,12.09-3.6,17.97c-0.16,0.82-0.33,1.8-0.49,1.8h2.61c7.84-14.71,4.41-29.58,0.49-38.89
				C84.52,6.57,58.7,5.1,57.23,4.94H57.07z"/>
		</defs>
		<clipPath id="SVGID_149_">
			<use xlink:href="#SVGID_148_"  style="overflow:visible;"/>
		</clipPath>
		<defs>
			<filter id="Adobe_OpacityMaskFilter_10_" filterUnits="userSpaceOnUse" x="-25.19" y="-67.07" width="210.75" height="210.85">
				<feColorMatrix  type="matrix" values="1 0 0 0 0  0 1 0 0 0  0 0 1 0 0  0 0 0 1 0"/>
			</filter>
		</defs>
		<mask maskUnits="userSpaceOnUse" x="-25.19" y="-67.07" width="210.75" height="210.85" id="SVGID_150_">
			<g class="st84">
				<rect x="25.96" y="-16.59" class="st85" width="108.46" height="109.88"/>
				<g class="st6">
					<g>
						<defs>
							
								<rect id="SVGID_151_" x="39.55" y="0.43" transform="matrix(0.5633 -0.8262 0.8262 0.5633 3.3246 83.0009)" width="81.27" height="75.86"/>
						</defs>
						<clipPath id="SVGID_152_" class="st85">
							<use xlink:href="#SVGID_151_"  style="overflow:visible;"/>
						</clipPath>
						
							<linearGradient id="SVGID_153_" gradientUnits="userSpaceOnUse" x1="-371.1327" y1="349.8298" x2="-370.1327" y2="349.8298" gradientTransform="matrix(-22.0603 32.355 32.355 22.0603 -19409.877 4305.6006)">
							<stop  offset="0" style="stop-color:#FFFFFF"/>
							<stop  offset="0.7" style="stop-color:#FFFFFF"/>
							<stop  offset="0.7" style="stop-color:#FFFFFF"/>
							<stop  offset="0.7" style="stop-color:#FFFFFF"/>
							<stop  offset="0.7" style="stop-color:#FFFFFF"/>
							<stop  offset="0.8" style="stop-color:#181717"/>
							<stop  offset="0.8" style="stop-color:#181717"/>
							<stop  offset="0.8" style="stop-color:#181717"/>
							<stop  offset="0.8" style="stop-color:#181717"/>
							<stop  offset="0.8" style="stop-color:#181717"/>
							<stop  offset="1" style="stop-color:#181717"/>
						</linearGradient>
						<polygon class="st86" points="185.56,18.28 100,143.78 -25.19,58.43 60.38,-67.07 						"/>
					</g>
				</g>
			</g>
		</mask>
		<g class="st87">
			<g>
				<defs>
					<rect id="SVGID_154_" x="25.96" y="-16.59" width="108.46" height="109.88"/>
				</defs>
				<clipPath id="SVGID_155_">
					<use xlink:href="#SVGID_154_"  style="overflow:visible;"/>
				</clipPath>
				<g class="st88">
					<defs>
						
							<rect id="SVGID_156_" x="39.55" y="0.43" transform="matrix(0.5633 -0.8262 0.8262 0.5633 3.3248 83.0016)" width="81.27" height="75.86"/>
					</defs>
					<clipPath id="SVGID_157_">
						<use xlink:href="#SVGID_156_"  style="overflow:visible;"/>
					</clipPath>
					
						<linearGradient id="SVGID_158_" gradientUnits="userSpaceOnUse" x1="-371.1327" y1="349.8298" x2="-370.1327" y2="349.8298" gradientTransform="matrix(-22.0603 32.355 32.355 22.0603 -19409.8789 4305.6001)">
						<stop  offset="0" style="stop-color:#1F333A"/>
						<stop  offset="0.7" style="stop-color:#1F333A"/>
						<stop  offset="0.7" style="stop-color:#23353C"/>
						<stop  offset="0.7" style="stop-color:#2D3E45"/>
						<stop  offset="0.7" style="stop-color:#3E4F55"/>
						<stop  offset="0.8" style="stop-color:#58666C"/>
						<stop  offset="0.8" style="stop-color:#7A858A"/>
						<stop  offset="0.8" style="stop-color:#A6AFB2"/>
						<stop  offset="0.8" style="stop-color:#DCE0E1"/>
						<stop  offset="0.8" style="stop-color:#FFFFFF"/>
						<stop  offset="1" style="stop-color:#FFFFFF"/>
					</linearGradient>
					<polygon class="st89" points="185.56,18.28 100,143.78 -25.19,58.43 60.38,-67.07 					"/>
				</g>
			</g>
		</g>
	</g>
	<g>
		<defs>
			<rect id="SVGID_159_" x="-0.13" y="-0.13" width="104.58" height="104.58"/>
		</defs>
		<clipPath id="SVGID_160_">
			<use xlink:href="#SVGID_159_"  style="overflow:visible;"/>
		</clipPath>
		<path class="st90" d="M3.47,52.33c0-26.8,21.73-48.86,48.7-48.86c26.96,0,48.7,21.9,48.7,48.86c0,26.8-21.73,48.53-48.7,48.53
			C25.2,100.86,3.47,79.13,3.47,52.33 M18.66,18.66C10,27.33,4.61,39.25,4.61,52.33c0,13.07,5.39,25,13.89,33.5
			c8.66,8.5,20.59,13.89,33.66,13.89s25-5.23,33.5-13.89c8.66-8.5,13.89-20.43,13.89-33.5c0-13.07-5.39-25-13.89-33.66
			C77.17,10,65.24,4.61,52.16,4.61S27.16,10,18.66,18.66"/>
		<path class="st91" d="M12.78,73.08L12.78,73.08l33.34-24.02c1.8,0.98,4.74,2.29,5.07,2.29c0.33,0.16,0.33-0.16,0.33-0.16
			l-4.09-3.43c-0.49-0.33-0.65-0.82-0.65-1.31l3.92-39.38c-0.16,0.16-0.16,0.49-0.33,0.65C50.2,8.04,50.2,8.21,50.2,8.53
			l-5.72,39.38L13.11,72.59C12.94,72.75,12.78,72.92,12.78,73.08"/>
	</g>
</g>
</svg>
