<svg width="718" height="6" viewBox="0 0 718 6" fill="none" xmlns="http://www.w3.org/2000/svg">
<path d="M6.10819 0.0654308H7.39695V4.82879H6.10819V1.15812L1.29547 4.82879H0V0.0654308H1.29547V3.7361L6.10819 0.0654308Z" fill="white"/>
<path d="M10.5861 0.0654308L13.7812 3.95202L16.9762 0.0654308H18.6476V4.82879H17.3588V2.97383L17.4796 0.971647L14.2712 4.82879H13.2844L10.0827 0.981461L10.2102 2.97383V4.82879H8.92145V0.0654308H10.5861Z" fill="white"/>
<path d="M25.6225 2.62704H21.387V4.31516H26.3071V4.82879H20.0982V0.0654308H26.24V0.582334H21.387V2.11341H25.6225V2.62704Z" fill="white"/>
<path d="M37.7255 2.60087C37.7255 3.06761 37.5644 3.47546 37.2423 3.82443C36.9201 4.17121 36.4636 4.43621 35.8729 4.61941C35.2823 4.80262 34.5931 4.89422 33.8056 4.89422C33.0627 4.89422 32.396 4.80698 31.8053 4.6325C31.2191 4.45802 30.7582 4.20829 30.4226 3.88332C30.0914 3.55834 29.908 3.17884 29.8722 2.74482H28.4693V4.82879H27.1805V0.0654308H28.4693V2.25082H29.8654C29.8789 1.80153 30.0467 1.40785 30.3689 1.06979C30.6911 0.729553 31.1497 0.466739 31.7449 0.281352C32.34 0.0937841 33.0225 0 33.7921 0C34.5752 0 35.2644 0.0926936 35.8595 0.278081C36.4592 0.461287 36.9201 0.728462 37.2423 1.07961C37.5644 1.42857 37.7255 1.83533 37.7255 2.29989V2.60087ZM36.4435 2.29335C36.4435 1.72846 36.2108 1.29553 35.7454 0.994547C35.28 0.691385 34.6289 0.539804 33.7921 0.539804C32.9777 0.539804 32.3356 0.691385 31.8657 0.994547C31.4003 1.29553 31.1609 1.71429 31.1475 2.25082V2.60087C31.1475 3.14831 31.3824 3.57906 31.8523 3.89313C32.3266 4.20502 32.9777 4.36096 33.8056 4.36096C34.6379 4.36096 35.2823 4.21374 35.7387 3.9193C36.1951 3.62268 36.4301 3.19847 36.4435 2.64667V2.29335Z" fill="white"/>
<path d="M45.1099 0.582334H41.9685V4.82879H40.6865V0.582334H37.5518V0.0654308H45.1099V0.582334Z" fill="white"/>
<path d="M52.7359 3.31734C52.615 3.82116 52.2324 4.21047 51.5881 4.48528C50.9481 4.75791 50.0957 4.89422 49.0307 4.89422C47.8762 4.89422 46.9499 4.69248 46.2518 4.28899C45.5582 3.8855 45.2114 3.34569 45.2114 2.66957V2.21156C45.2114 1.76881 45.3725 1.3795 45.6947 1.04362C46.0213 0.707743 46.4822 0.450382 47.0774 0.271538C47.6725 0.0905125 48.3617 0 49.1448 0C50.1829 0 51.0153 0.141767 51.6418 0.4253C52.2682 0.706652 52.6329 1.09706 52.7359 1.59651H51.4404C51.3285 1.21701 51.0846 0.942203 50.7087 0.772083C50.3373 0.601963 49.816 0.516903 49.1448 0.516903C48.3214 0.516903 47.6748 0.665213 47.2049 0.961832C46.7395 1.25845 46.5068 1.68048 46.5068 2.22792V2.6892C46.5068 3.20611 46.7283 3.61723 47.1714 3.92257C47.6144 4.22792 48.2341 4.38059 49.0307 4.38059C49.7466 4.38059 50.2948 4.30207 50.6752 4.14504C51.06 3.98582 51.3151 3.70992 51.4404 3.31734H52.7359Z" fill="white"/>
<path d="M58.7912 4.82879V2.97383H56.5358L54.5154 4.82879H53.1394L55.4082 2.80044C54.1462 2.55834 53.5153 2.12541 53.5153 1.50164C53.5153 1.04798 53.8196 0.695747 54.4282 0.444929C55.0412 0.19193 55.8914 0.0654308 56.9788 0.0654308H60.0866V4.82879H58.7912ZM54.8041 1.50164C54.8041 1.78953 54.9875 2.02072 55.3545 2.1952C55.7259 2.36968 56.2405 2.45802 56.8983 2.4602H58.7912V0.582334H56.9587C56.2606 0.582334 55.7259 0.663032 55.3545 0.824427C54.9875 0.985823 54.8041 1.21156 54.8041 1.50164Z" fill="white"/>
<path d="M71.6535 4.82879H70.3581V0.582334H65.5386V4.82879H64.2499V0.0654308H71.6535V4.82879Z" fill="white"/>
<path d="M74.4668 2.96401V4.82879H73.178V0.0654308H76.7825C77.852 0.0654308 78.6888 0.198473 79.2929 0.464558C79.9015 0.730643 80.2058 1.08288 80.2058 1.52127C80.2058 1.98364 79.9082 2.34024 79.3131 2.59106C78.7224 2.83969 77.8744 2.96401 76.7691 2.96401H74.4668ZM74.4668 2.45038H76.7825C77.4717 2.45038 77.9997 2.37186 78.3666 2.21483C78.7336 2.05562 78.9171 1.82661 78.9171 1.52781C78.9171 1.24427 78.7336 1.01745 78.3666 0.847328C77.9997 0.677208 77.4963 0.588877 76.8564 0.582334H74.4668V2.45038Z" fill="white"/>
<path d="M88.5433 2.60087C88.5433 3.06761 88.3822 3.47546 88.06 3.82443C87.7378 4.17121 87.2814 4.43621 86.6907 4.61941C86.1 4.80262 85.4109 4.89422 84.6233 4.89422C83.8536 4.89422 83.1712 4.80262 82.5761 4.61941C81.9809 4.43402 81.5178 4.17121 81.1866 3.83097C80.8599 3.48855 80.6921 3.09269 80.6832 2.6434V2.29989C80.6832 1.84188 80.8465 1.4373 81.1732 1.08615C81.4999 0.735005 81.9608 0.466739 82.5559 0.281352C83.1556 0.0937841 83.8402 0 84.6099 0C85.393 0 86.0821 0.0926936 86.6773 0.278081C87.2769 0.461287 87.7378 0.728462 88.06 1.07961C88.3822 1.42857 88.5433 1.83533 88.5433 2.29989V2.60087ZM87.2612 2.29335C87.2612 1.72846 87.0286 1.29553 86.5632 0.994547C86.0978 0.691385 85.4467 0.539804 84.6099 0.539804C83.7955 0.539804 83.1533 0.691385 82.6835 0.994547C82.2181 1.29553 81.9787 1.71429 81.9652 2.25082V2.60087C81.9652 3.14831 82.2002 3.57906 82.67 3.89313C83.1444 4.20502 83.7955 4.36096 84.6233 4.36096C85.4556 4.36096 86.1 4.21374 86.5565 3.9193C87.0129 3.62268 87.2478 3.19847 87.2612 2.64667V2.29335Z" fill="white"/>
<path d="M96.2163 0.582334H93.0749V4.82879H91.7928V0.582334H88.6582V0.0654308H96.2163V0.582334Z" fill="white"/>
<path d="M103.003 0.0654308H104.292V4.82879H103.003V1.15812L98.1905 4.82879H96.895V0.0654308H98.1905V3.7361L103.003 0.0654308Z" fill="white"/>
<path d="M105.816 4.82879V0.0654308H109.012C110.072 0.0654308 110.869 0.172301 111.401 0.386041C111.938 0.599782 112.207 0.916031 112.207 1.33479C112.207 1.55725 112.077 1.75463 111.817 1.92694C111.558 2.09706 111.204 2.22901 110.757 2.32279C111.285 2.39477 111.701 2.53217 112.005 2.73501C112.314 2.93566 112.468 3.17557 112.468 3.45474C112.468 3.88222 112.184 4.2181 111.616 4.46238C111.048 4.70665 110.244 4.82879 109.206 4.82879H105.816ZM107.105 2.60087V4.31516H109.233C109.833 4.31516 110.305 4.23991 110.649 4.08942C110.998 3.93675 111.173 3.72737 111.173 3.46129C111.173 2.88768 110.533 2.60087 109.253 2.60087H107.105ZM107.105 2.09706H109.052C109.616 2.09706 110.065 2.02835 110.401 1.89095C110.741 1.75354 110.911 1.56707 110.911 1.33152C110.911 1.06979 110.754 0.880044 110.441 0.762268C110.128 0.642312 109.651 0.582334 109.012 0.582334H107.105V2.09706Z" fill="white"/>
<path d="M121.074 2.60087C121.074 3.06761 120.913 3.47546 120.591 3.82443C120.269 4.17121 119.812 4.43621 119.222 4.61941C118.631 4.80262 117.942 4.89422 117.154 4.89422C116.385 4.89422 115.702 4.80262 115.107 4.61941C114.512 4.43402 114.049 4.17121 113.718 3.83097C113.391 3.48855 113.223 3.09269 113.214 2.6434V2.29989C113.214 1.84188 113.378 1.4373 113.704 1.08615C114.031 0.735005 114.492 0.466739 115.087 0.281352C115.687 0.0937841 116.371 0 117.141 0C117.924 0 118.613 0.0926936 119.208 0.278081C119.808 0.461287 120.269 0.728462 120.591 1.07961C120.913 1.42857 121.074 1.83533 121.074 2.29989V2.60087ZM119.792 2.29335C119.792 1.72846 119.56 1.29553 119.094 0.994547C118.629 0.691385 117.978 0.539804 117.141 0.539804C116.326 0.539804 115.684 0.691385 115.214 0.994547C114.749 1.29553 114.51 1.71429 114.496 2.25082V2.60087C114.496 3.14831 114.731 3.57906 115.201 3.89313C115.675 4.20502 116.326 4.36096 117.154 4.36096C117.987 4.36096 118.631 4.21374 119.087 3.9193C119.544 3.62268 119.779 3.19847 119.792 2.64667V2.29335Z" fill="white"/>
<path d="M129.647 4.82879H128.351V0.582334H123.532V4.82879H122.243V0.0654308H129.647V4.82879Z" fill="white"/>
<path d="M138.689 2.60087C138.689 3.06761 138.528 3.47546 138.206 3.82443C137.884 4.17121 137.427 4.43621 136.836 4.61941C136.246 4.80262 135.557 4.89422 134.769 4.89422C133.999 4.89422 133.317 4.80262 132.722 4.61941C132.127 4.43402 131.663 4.17121 131.332 3.83097C131.006 3.48855 130.838 3.09269 130.829 2.6434V2.29989C130.829 1.84188 130.992 1.4373 131.319 1.08615C131.646 0.735005 132.106 0.466739 132.702 0.281352C133.301 0.0937841 133.986 0 134.756 0C135.539 0 136.228 0.0926936 136.823 0.278081C137.423 0.461287 137.884 0.728462 138.206 1.07961C138.528 1.42857 138.689 1.83533 138.689 2.29989V2.60087ZM137.407 2.29335C137.407 1.72846 137.174 1.29553 136.709 0.994547C136.243 0.691385 135.592 0.539804 134.756 0.539804C133.941 0.539804 133.299 0.691385 132.829 0.994547C132.364 1.29553 132.124 1.71429 132.111 2.25082V2.60087C132.111 3.14831 132.346 3.57906 132.816 3.89313C133.29 4.20502 133.941 4.36096 134.769 4.36096C135.601 4.36096 136.246 4.21374 136.702 3.9193C137.159 3.62268 137.394 3.19847 137.407 2.64667V2.29335Z" fill="white"/>
<path d="M142.335 2.6892H141.147V4.82879H139.858V0.0654308H141.147V2.16576H142.153L145.57 0.0654308H147.174L143.442 2.37514L147.449 4.82879H145.872L142.335 2.6892Z" fill="white"/>
<path d="M153.203 3.58561H149.108L148.189 4.82879H146.859L150.592 0.0654308H151.719L155.458 4.82879H154.136L153.203 3.58561ZM149.497 3.0687H152.82L151.155 0.840785L149.497 3.0687Z" fill="white"/>
<path d="M160.963 1.3446C160.963 1.0916 160.773 0.890949 160.392 0.742639C160.016 0.592148 159.486 0.516903 158.801 0.516903C158.229 0.516903 157.748 0.594329 157.358 0.749182C156.973 0.901854 156.781 1.0916 156.781 1.31843H155.492C155.492 1.06543 155.633 0.838604 155.915 0.63795C156.202 0.437296 156.6 0.281352 157.11 0.17012C157.62 0.0567067 158.184 0 158.801 0C159.893 0 160.741 0.119956 161.345 0.359869C161.95 0.597601 162.252 0.929117 162.252 1.35442C162.252 1.5747 162.113 1.77535 161.835 1.95638C161.558 2.1374 161.171 2.28026 160.674 2.38495C161.824 2.57252 162.399 2.94438 162.399 3.50055C162.399 3.92803 162.073 4.26718 161.419 4.51799C160.766 4.76881 159.893 4.89422 158.801 4.89422C158.153 4.89422 157.562 4.8386 157.029 4.72737C156.501 4.61396 156.09 4.45365 155.794 4.24646C155.499 4.03926 155.351 3.7928 155.351 3.50709H156.64C156.64 3.75791 156.844 3.96728 157.251 4.13522C157.658 4.30098 158.175 4.38386 158.801 4.38386C159.504 4.38386 160.063 4.30425 160.48 4.14504C160.9 3.98582 161.111 3.77535 161.111 3.51363C161.111 2.95529 160.401 2.67067 158.983 2.65976H157.774V2.14286H158.976C159.629 2.13631 160.124 2.06434 160.459 1.92694C160.795 1.78953 160.963 1.59542 160.963 1.3446Z" fill="white"/>
<path d="M168.683 3.58561H164.588L163.669 4.82879H162.34L166.072 0.0654308H167.199L170.938 4.82879H169.616L168.683 3.58561ZM164.978 3.0687H168.3L166.636 0.840785L164.978 3.0687Z" fill="white"/>
<path d="M178.94 4.82879H177.645V2.62704H172.718V4.82879H171.429V0.0654308H172.718V2.11341H177.645V0.0654308H178.94V4.82879Z" fill="white"/>
<path d="M186.566 0.0654308H187.855V4.82879H186.566V1.15812L181.753 4.82879H180.458V0.0654308H181.753V3.7361L186.566 0.0654308Z" fill="white"/>
<path d="M194.494 4.82879V2.97383H192.239L190.218 4.82879H188.842L191.111 2.80044C189.849 2.55834 189.218 2.12541 189.218 1.50164C189.218 1.04798 189.522 0.695747 190.131 0.444929C190.744 0.19193 191.594 0.0654308 192.682 0.0654308H195.789V4.82879H194.494ZM190.507 1.50164C190.507 1.78953 190.69 2.02072 191.057 2.1952C191.429 2.36968 191.943 2.45802 192.601 2.4602H194.494V0.582334H192.662C191.963 0.582334 191.429 0.663032 191.057 0.824427C190.69 0.985823 190.507 1.21156 190.507 1.50164Z" fill="white"/>
<path d="M197.139 4.51145C197.139 4.40676 197.202 4.31952 197.327 4.24973C197.457 4.17993 197.65 4.14504 197.905 4.14504C198.16 4.14504 198.352 4.17993 198.482 4.24973C198.616 4.31952 198.683 4.40676 198.683 4.51145C198.683 4.61178 198.616 4.69575 198.482 4.76336C198.352 4.83097 198.16 4.86478 197.905 4.86478C197.65 4.86478 197.457 4.83097 197.327 4.76336C197.202 4.69575 197.139 4.61178 197.139 4.51145Z" fill="white"/>
<path d="M210.156 4.82879H208.861V0.582334H204.041V4.82879H202.753V0.0654308H210.156V4.82879Z" fill="white"/>
<path d="M217.205 2.62704H212.969V4.31516H217.89V4.82879H211.681V0.0654308H217.822V0.582334H212.969V2.11341H217.205V2.62704Z" fill="white"/>
<path d="M219.958 2.96401V4.82879H218.669V0.0654308H222.274C223.343 0.0654308 224.18 0.198473 224.784 0.464558C225.393 0.730643 225.697 1.08288 225.697 1.52127C225.697 1.98364 225.399 2.34024 224.804 2.59106C224.213 2.83969 223.365 2.96401 222.26 2.96401H219.958ZM219.958 2.45038H222.274C222.963 2.45038 223.491 2.37186 223.858 2.21483C224.225 2.05562 224.408 1.82661 224.408 1.52781C224.408 1.24427 224.225 1.01745 223.858 0.847328C223.491 0.677208 222.987 0.588877 222.347 0.582334H219.958V2.45038Z" fill="white"/>
<path d="M232.041 2.62704H227.805V4.31516H232.725V4.82879H226.517V0.0654308H232.658V0.582334H227.805V2.11341H232.041V2.62704Z" fill="white"/>
<path d="M242.298 5.99673H241.016V4.82879H234.002V6H232.713L232.706 4.31516H233.505C233.925 4.08397 234.259 3.77426 234.505 3.38604C234.756 2.99564 234.912 2.56816 234.975 2.1036L235.19 0.0654308H241.036V4.31516H242.311L242.298 5.99673ZM234.975 4.31516H239.741V0.582334H236.431L236.29 1.98255C236.232 2.52999 236.082 2.99673 235.841 3.38277C235.604 3.76881 235.315 4.07961 234.975 4.31516Z" fill="white"/>
<path d="M253.066 4.82879H251.771V0.582334H246.951V4.82879H245.662V0.0654308H253.066V4.82879Z" fill="white"/>
<path d="M255.879 2.96401V4.82879H254.591V0.0654308H258.195C259.265 0.0654308 260.101 0.198473 260.705 0.464558C261.314 0.730643 261.618 1.08288 261.618 1.52127C261.618 1.98364 261.321 2.34024 260.726 2.59106C260.135 2.83969 259.287 2.96401 258.182 2.96401H255.879ZM255.879 2.45038H258.195C258.884 2.45038 259.412 2.37186 259.779 2.21483C260.146 2.05562 260.33 1.82661 260.33 1.52781C260.33 1.24427 260.146 1.01745 259.779 0.847328C259.412 0.677208 258.909 0.588877 258.269 0.582334H255.879V2.45038Z" fill="white"/>
<path d="M268.6 0.0654308H269.889V4.82879H268.6V1.15812L263.787 4.82879H262.492V0.0654308H263.787V3.7361L268.6 0.0654308Z" fill="white"/>
<path d="M273.078 0.0654308L276.273 3.95202L279.468 0.0654308H281.139V4.82879H279.851V2.97383L279.971 0.971647L276.763 4.82879H275.776L272.574 0.981461L272.702 2.97383V4.82879H271.413V0.0654308H273.078Z" fill="white"/>
<path d="M288.114 2.62704H283.879V4.31516H288.799V4.82879H282.59V0.0654308H288.732V0.582334H283.879V2.11341H288.114V2.62704Z" fill="white"/>
<path d="M297.089 4.82879H295.794V2.62704H290.867V4.82879H289.578V0.0654308H290.867V2.11341H295.794V0.0654308H297.089V4.82879Z" fill="white"/>
<path d="M304.078 2.62704H299.842V4.31516H304.762V4.82879H298.553V0.0654308H304.695V0.582334H299.842V2.11341H304.078V2.62704Z" fill="white"/>
<path d="M313.053 4.82879H311.757V2.62704H306.831V4.82879H305.542V0.0654308H306.831V2.11341H311.757V0.0654308H313.053V4.82879Z" fill="white"/>
<path d="M320.679 0.0654308H321.968V4.82879H320.679V1.15812L315.866 4.82879H314.571V0.0654308H315.866V3.7361L320.679 0.0654308Z" fill="white"/>
<path d="M329.016 2.62704H324.781V4.31516H329.701V4.82879H323.492V0.0654308H329.634V0.582334H324.781V2.11341H329.016V2.62704Z" fill="white"/>
<path d="M332.145 0.0654308L335.34 3.95202L338.535 0.0654308H340.206V4.82879H338.918V2.97383L339.039 0.971647L335.83 4.82879H334.843L331.642 0.981461L331.769 2.97383V4.82879H330.48V0.0654308H332.145Z" fill="white"/>
<path d="M351.753 4.82879H350.458V2.62704H345.531V4.82879H344.242V0.0654308H345.531V2.11341H350.458V0.0654308H351.753V4.82879Z" fill="white"/>
<path d="M358.742 2.62704H354.506V4.31516H359.426V4.82879H353.217V0.0654308H359.359V0.582334H354.506V2.11341H358.742V2.62704Z" fill="white"/>
<path d="M367.723 2.60087C367.723 3.06761 367.562 3.47546 367.24 3.82443C366.918 4.17121 366.462 4.43621 365.871 4.61941C365.28 4.80262 364.591 4.89422 363.803 4.89422C363.034 4.89422 362.351 4.80262 361.756 4.61941C361.161 4.43402 360.698 4.17121 360.367 3.83097C360.04 3.48855 359.872 3.09269 359.863 2.6434V2.29989C359.863 1.84188 360.027 1.4373 360.353 1.08615C360.68 0.735005 361.141 0.466739 361.736 0.281352C362.336 0.0937841 363.02 0 363.79 0C364.573 0 365.262 0.0926936 365.857 0.278081C366.457 0.461287 366.918 0.728462 367.24 1.07961C367.562 1.42857 367.723 1.83533 367.723 2.29989V2.60087ZM366.441 2.29335C366.441 1.72846 366.209 1.29553 365.743 0.994547C365.278 0.691385 364.627 0.539804 363.79 0.539804C362.976 0.539804 362.333 0.691385 361.864 0.994547C361.398 1.29553 361.159 1.71429 361.145 2.25082V2.60087C361.145 3.14831 361.38 3.57906 361.85 3.89313C362.325 4.20502 362.976 4.36096 363.803 4.36096C364.636 4.36096 365.28 4.21374 365.737 3.9193C366.193 3.62268 366.428 3.19847 366.441 2.64667V2.29335Z" fill="white"/>
<path d="M374.792 0.582334H370.08V2.00872H372.51C373.53 2.01527 374.327 2.14286 374.9 2.39149C375.472 2.64013 375.759 2.97819 375.759 3.40567C375.759 3.83533 375.47 4.17775 374.893 4.43293C374.316 4.68811 373.528 4.82007 372.53 4.82879H368.785V0.0654308H374.792V0.582334ZM370.08 2.52563V4.31516H372.436C373.076 4.31516 373.573 4.23228 373.926 4.06652C374.284 3.90076 374.463 3.6783 374.463 3.39913C374.463 3.13086 374.291 2.9193 373.947 2.76445C373.606 2.6096 373.121 2.52999 372.49 2.52563H370.08Z" fill="white"/>
<path d="M379.774 1.89095L382.116 0.0654308H383.633L380.546 2.42748L383.707 4.82879H382.177L379.774 2.97056L377.357 4.82879H375.834L379.002 2.42748L375.907 0.0654308H377.418L379.774 1.89095Z" fill="white"/>
<path d="M391.722 2.60087C391.722 3.06761 391.561 3.47546 391.239 3.82443C390.917 4.17121 390.46 4.43621 389.87 4.61941C389.279 4.80262 388.59 4.89422 387.802 4.89422C387.033 4.89422 386.35 4.80262 385.755 4.61941C385.16 4.43402 384.697 4.17121 384.366 3.83097C384.039 3.48855 383.871 3.09269 383.862 2.6434V2.29989C383.862 1.84188 384.026 1.4373 384.352 1.08615C384.679 0.735005 385.14 0.466739 385.735 0.281352C386.335 0.0937841 387.019 0 387.789 0C388.572 0 389.261 0.0926936 389.856 0.278081C390.456 0.461287 390.917 0.728462 391.239 1.07961C391.561 1.42857 391.722 1.83533 391.722 2.29989V2.60087ZM390.44 2.29335C390.44 1.72846 390.208 1.29553 389.742 0.994547C389.277 0.691385 388.626 0.539804 387.789 0.539804C386.974 0.539804 386.332 0.691385 385.862 0.994547C385.397 1.29553 385.158 1.71429 385.144 2.25082V2.60087C385.144 3.14831 385.379 3.57906 385.849 3.89313C386.323 4.20502 386.974 4.36096 387.802 4.36096C388.635 4.36096 389.279 4.21374 389.735 3.9193C390.192 3.62268 390.427 3.19847 390.44 2.64667V2.29335Z" fill="white"/>
<path d="M401.396 5.99673H400.113V4.82879H393.099V6H391.81L391.804 4.31516H392.602C393.023 4.08397 393.356 3.77426 393.603 3.38604C393.853 2.99564 394.01 2.56816 394.072 2.1036L394.287 0.0654308H400.134V4.31516H401.409L401.396 5.99673ZM394.072 4.31516H398.838V0.582334H395.529L395.388 1.98255C395.33 2.52999 395.18 2.99673 394.938 3.38277C394.701 3.76881 394.413 4.07961 394.072 4.31516Z" fill="white"/>
<path d="M408.276 0.0654308H409.565V4.82879H408.276V1.15812L403.464 4.82879H402.168V0.0654308H403.464V3.7361L408.276 0.0654308Z" fill="white"/>
<path d="M412.754 0.0654308L415.949 3.95202L419.144 0.0654308H420.816V4.82879H419.527V2.97383L419.648 0.971647L416.439 4.82879H415.453L412.251 0.981461L412.378 2.97383V4.82879H411.09V0.0654308H412.754Z" fill="white"/>
<path d="M429.784 2.60087C429.784 3.06761 429.623 3.47546 429.301 3.82443C428.979 4.17121 428.522 4.43621 427.932 4.61941C427.341 4.80262 426.652 4.89422 425.864 4.89422C425.095 4.89422 424.412 4.80262 423.817 4.61941C423.222 4.43402 422.759 4.17121 422.428 3.83097C422.101 3.48855 421.933 3.09269 421.924 2.6434V2.29989C421.924 1.84188 422.088 1.4373 422.414 1.08615C422.741 0.735005 423.202 0.466739 423.797 0.281352C424.397 0.0937841 425.081 0 425.851 0C426.634 0 427.323 0.0926936 427.918 0.278081C428.518 0.461287 428.979 0.728462 429.301 1.07961C429.623 1.42857 429.784 1.83533 429.784 2.29989V2.60087ZM428.502 2.29335C428.502 1.72846 428.27 1.29553 427.804 0.994547C427.339 0.691385 426.688 0.539804 425.851 0.539804C425.036 0.539804 424.394 0.691385 423.924 0.994547C423.459 1.29553 423.22 1.71429 423.206 2.25082V2.60087C423.206 3.14831 423.441 3.57906 423.911 3.89313C424.385 4.20502 425.036 4.36096 425.864 4.36096C426.697 4.36096 427.341 4.21374 427.797 3.9193C428.254 3.62268 428.489 3.19847 428.502 2.64667V2.29335Z" fill="white"/>
<path d="M440.942 4.82879H439.646V0.582334H434.827V4.82879H433.538V0.0654308H440.942V4.82879Z" fill="white"/>
<path d="M443.755 2.96401V4.82879H442.466V0.0654308H446.071C447.14 0.0654308 447.977 0.198473 448.581 0.464558C449.19 0.730643 449.494 1.08288 449.494 1.52127C449.494 1.98364 449.196 2.34024 448.601 2.59106C448.011 2.83969 447.163 2.96401 446.057 2.96401H443.755ZM443.755 2.45038H446.071C446.76 2.45038 447.288 2.37186 447.655 2.21483C448.022 2.05562 448.205 1.82661 448.205 1.52781C448.205 1.24427 448.022 1.01745 447.655 0.847328C447.288 0.677208 446.784 0.588877 446.145 0.582334H443.755V2.45038Z" fill="white"/>
<path d="M457.831 2.60087C457.831 3.06761 457.67 3.47546 457.348 3.82443C457.026 4.17121 456.57 4.43621 455.979 4.61941C455.388 4.80262 454.699 4.89422 453.911 4.89422C453.142 4.89422 452.459 4.80262 451.864 4.61941C451.269 4.43402 450.806 4.17121 450.475 3.83097C450.148 3.48855 449.98 3.09269 449.971 2.6434V2.29989C449.971 1.84188 450.135 1.4373 450.461 1.08615C450.788 0.735005 451.249 0.466739 451.844 0.281352C452.444 0.0937841 453.128 0 453.898 0C454.681 0 455.37 0.0926936 455.965 0.278081C456.565 0.461287 457.026 0.728462 457.348 1.07961C457.67 1.42857 457.831 1.83533 457.831 2.29989V2.60087ZM456.549 2.29335C456.549 1.72846 456.317 1.29553 455.851 0.994547C455.386 0.691385 454.735 0.539804 453.898 0.539804C453.084 0.539804 452.442 0.691385 451.972 0.994547C451.506 1.29553 451.267 1.71429 451.253 2.25082V2.60087C451.253 3.14831 451.488 3.57906 451.958 3.89313C452.433 4.20502 453.084 4.36096 453.911 4.36096C454.744 4.36096 455.388 4.21374 455.845 3.9193C456.301 3.62268 456.536 3.19847 456.549 2.64667V2.29335Z" fill="white"/>
<path d="M461.477 2.6892H460.289V4.82879H459V0.0654308H460.289V2.16576H461.296L464.712 0.0654308H466.317L462.585 2.37514L466.592 4.82879H465.014L461.477 2.6892Z" fill="white"/>
<path d="M474.251 2.60087C474.251 3.06761 474.09 3.47546 473.768 3.82443C473.446 4.17121 472.989 4.43621 472.399 4.61941C471.808 4.80262 471.119 4.89422 470.331 4.89422C469.562 4.89422 468.879 4.80262 468.284 4.61941C467.689 4.43402 467.226 4.17121 466.895 3.83097C466.568 3.48855 466.4 3.09269 466.391 2.6434V2.29989C466.391 1.84188 466.555 1.4373 466.881 1.08615C467.208 0.735005 467.669 0.466739 468.264 0.281352C468.864 0.0937841 469.548 0 470.318 0C471.101 0 471.79 0.0926936 472.385 0.278081C472.985 0.461287 473.446 0.728462 473.768 1.07961C474.09 1.42857 474.251 1.83533 474.251 2.29989V2.60087ZM472.969 2.29335C472.969 1.72846 472.737 1.29553 472.271 0.994547C471.806 0.691385 471.155 0.539804 470.318 0.539804C469.504 0.539804 468.861 0.691385 468.392 0.994547C467.926 1.29553 467.687 1.71429 467.673 2.25082V2.60087C467.673 3.14831 467.908 3.57906 468.378 3.89313C468.852 4.20502 469.504 4.36096 470.331 4.36096C471.164 4.36096 471.808 4.21374 472.265 3.9193C472.721 3.62268 472.956 3.19847 472.969 2.64667V2.29335Z" fill="white"/>
<path d="M482.871 4.82879H481.575V2.62704H476.648V4.82879H475.36V0.0654308H476.648V2.11341H481.575V0.0654308H482.871V4.82879Z" fill="white"/>
<path d="M491.524 3.31734C491.403 3.82116 491.02 4.21047 490.376 4.48528C489.736 4.75791 488.884 4.89422 487.819 4.89422C486.664 4.89422 485.738 4.69248 485.04 4.28899C484.346 3.8855 483.999 3.34569 483.999 2.66957V2.21156C483.999 1.76881 484.16 1.3795 484.483 1.04362C484.809 0.707743 485.27 0.450382 485.865 0.271538C486.46 0.0905125 487.15 0 487.933 0C488.971 0 489.803 0.141767 490.43 0.4253C491.056 0.706652 491.421 1.09706 491.524 1.59651H490.228C490.116 1.21701 489.873 0.942203 489.497 0.772083C489.125 0.601963 488.604 0.516903 487.933 0.516903C487.109 0.516903 486.463 0.665213 485.993 0.961832C485.527 1.25845 485.295 1.68048 485.295 2.22792V2.6892C485.295 3.20611 485.516 3.61723 485.959 3.92257C486.402 4.22792 487.022 4.38059 487.819 4.38059C488.535 4.38059 489.083 4.30207 489.463 4.14504C489.848 3.98582 490.103 3.70992 490.228 3.31734H491.524Z" fill="white"/>
<path d="M495.82 2.82988L498.069 0.0654308H499.566L496.109 4.03381C495.876 4.2868 495.659 4.46674 495.458 4.57361C495.257 4.6783 495.019 4.759 494.746 4.8157C494.478 4.87023 494.14 4.89749 493.733 4.89749C493.379 4.89749 493.153 4.88768 493.055 4.86805L493.095 4.37077L493.706 4.38386C494.176 4.38386 494.525 4.27372 494.753 4.05344L494.921 3.88332L495.176 3.59215L491.847 0.0654308H493.29L495.82 2.82988Z" fill="white"/>
<path d="M507.313 0.0654308V4.82879H506.024V0.582334H502.52L502.346 2.47001C502.278 3.10251 502.144 3.57797 501.943 3.8964C501.746 4.21483 501.455 4.44929 501.07 4.59978C500.685 4.74809 500.171 4.82443 499.526 4.82879H499.104V4.31516L499.372 4.30862C499.788 4.29335 500.108 4.22792 500.332 4.11232C500.556 3.99455 500.726 3.80807 500.842 3.55289C500.958 3.29771 501.041 2.90513 501.09 2.37514L501.292 0.0654308H507.313Z" fill="white"/>
<path d="M510.079 2.00872H512.509C513.529 2.01527 514.326 2.14286 514.898 2.39149C515.471 2.64013 515.758 2.97819 515.758 3.40567C515.758 3.83533 515.469 4.17775 514.892 4.43293C514.314 4.68811 513.527 4.82007 512.529 4.82879H508.79V0.0654308H510.079V2.00872ZM510.079 2.52563V4.31516H512.435C513.075 4.31516 513.572 4.23228 513.925 4.06652C514.283 3.90076 514.462 3.6783 514.462 3.39913C514.462 3.13086 514.29 2.9193 513.945 2.76445C513.605 2.6096 513.12 2.52999 512.489 2.52563H510.079Z" fill="white"/>
<path d="M521.591 0.582334H518.45V4.82879H517.168V0.582334H514.033V0.0654308H521.591V0.582334Z" fill="white"/>
<path d="M528.378 0.0654308H529.667V4.82879H528.378V1.15812L523.566 4.82879H522.27V0.0654308H523.566V3.7361L528.378 0.0654308Z" fill="white"/>
<path d="M532.48 2.96401V4.82879H531.192V0.0654308H534.796C535.866 0.0654308 536.702 0.198473 537.306 0.464558C537.915 0.730643 538.219 1.08288 538.219 1.52127C538.219 1.98364 537.922 2.34024 537.327 2.59106C536.736 2.83969 535.888 2.96401 534.783 2.96401H532.48ZM532.48 2.45038H534.796C535.485 2.45038 536.013 2.37186 536.38 2.21483C536.747 2.05562 536.931 1.82661 536.931 1.52781C536.931 1.24427 536.747 1.01745 536.38 0.847328C536.013 0.677208 535.51 0.588877 534.87 0.582334H532.48V2.45038Z" fill="white"/>
<path d="M546.557 2.60087C546.557 3.06761 546.396 3.47546 546.074 3.82443C545.751 4.17121 545.295 4.43621 544.704 4.61941C544.114 4.80262 543.424 4.89422 542.637 4.89422C541.867 4.89422 541.185 4.80262 540.59 4.61941C539.994 4.43402 539.531 4.17121 539.2 3.83097C538.873 3.48855 538.706 3.09269 538.697 2.6434V2.29989C538.697 1.84188 538.86 1.4373 539.187 1.08615C539.513 0.735005 539.974 0.466739 540.569 0.281352C541.169 0.0937841 541.854 0 542.623 0C543.407 0 544.096 0.0926936 544.691 0.278081C545.29 0.461287 545.751 0.728462 546.074 1.07961C546.396 1.42857 546.557 1.83533 546.557 2.29989V2.60087ZM545.275 2.29335C545.275 1.72846 545.042 1.29553 544.577 0.994547C544.111 0.691385 543.46 0.539804 542.623 0.539804C541.809 0.539804 541.167 0.691385 540.697 0.994547C540.232 1.29553 539.992 1.71429 539.979 2.25082V2.60087C539.979 3.14831 540.214 3.57906 540.684 3.89313C541.158 4.20502 541.809 4.36096 542.637 4.36096C543.469 4.36096 544.114 4.21374 544.57 3.9193C545.026 3.62268 545.261 3.19847 545.275 2.64667V2.29335Z" fill="white"/>
<path d="M547.665 4.82879V0.0654308H550.86C551.921 0.0654308 552.717 0.172301 553.25 0.386041C553.787 0.599782 554.055 0.916031 554.055 1.33479C554.055 1.55725 553.925 1.75463 553.666 1.92694C553.406 2.09706 553.053 2.22901 552.605 2.32279C553.133 2.39477 553.55 2.53217 553.854 2.73501C554.163 2.93566 554.317 3.17557 554.317 3.45474C554.317 3.88222 554.033 4.2181 553.465 4.46238C552.896 4.70665 552.093 4.82879 551.055 4.82879H547.665ZM548.954 2.60087V4.31516H551.082C551.681 4.31516 552.153 4.23991 552.498 4.08942C552.847 3.93675 553.022 3.72737 553.022 3.46129C553.022 2.88768 552.382 2.60087 551.102 2.60087H548.954ZM548.954 2.09706H550.9C551.464 2.09706 551.914 2.02835 552.25 1.89095C552.59 1.75354 552.76 1.56707 552.76 1.33152C552.76 1.06979 552.603 0.880044 552.29 0.762268C551.977 0.642312 551.5 0.582334 550.86 0.582334H548.954V2.09706Z" fill="white"/>
<path d="M560.802 3.58561H556.707L555.788 4.82879H554.459L558.191 0.0654308H559.319L563.057 4.82879H561.735L560.802 3.58561ZM557.097 3.0687H560.419L558.755 0.840785L557.097 3.0687Z" fill="white"/>
<path d="M569.428 0.582334H566.287V4.82879H565.005V0.582334H561.87V0.0654308H569.428V0.582334Z" fill="white"/>
<path d="M571.409 2.00872H573.839C574.859 2.01527 575.656 2.14286 576.228 2.39149C576.801 2.64013 577.088 2.97819 577.088 3.40567C577.088 3.83533 576.799 4.17775 576.222 4.43293C575.644 4.68811 574.857 4.82007 573.859 4.82879H570.12V0.0654308H571.409V2.00872ZM571.409 2.52563V4.31516H573.765C574.405 4.31516 574.902 4.23228 575.255 4.06652C575.613 3.90076 575.792 3.6783 575.792 3.39913C575.792 3.13086 575.62 2.9193 575.275 2.76445C574.935 2.6096 574.45 2.52999 573.819 2.52563H571.409Z" fill="white"/>
<path d="M585.157 3.31734C585.036 3.82116 584.653 4.21047 584.009 4.48528C583.369 4.75791 582.516 4.89422 581.451 4.89422C580.297 4.89422 579.371 4.69248 578.672 4.28899C577.979 3.8855 577.632 3.34569 577.632 2.66957V2.21156C577.632 1.76881 577.793 1.3795 578.115 1.04362C578.442 0.707743 578.903 0.450382 579.498 0.271538C580.093 0.0905125 580.782 0 581.566 0C582.604 0 583.436 0.141767 584.062 0.4253C584.689 0.706652 585.054 1.09706 585.157 1.59651H583.861C583.749 1.21701 583.505 0.942203 583.129 0.772083C582.758 0.601963 582.237 0.516903 581.566 0.516903C580.742 0.516903 580.096 0.665213 579.626 0.961832C579.16 1.25845 578.928 1.68048 578.928 2.22792V2.6892C578.928 3.20611 579.149 3.61723 579.592 3.92257C580.035 4.22792 580.655 4.38059 581.451 4.38059C582.167 4.38059 582.716 4.30207 583.096 4.14504C583.481 3.98582 583.736 3.70992 583.861 3.31734H585.157Z" fill="white"/>
<path d="M591.212 4.82879V2.97383H588.957L586.936 4.82879H585.56L587.829 2.80044C586.567 2.55834 585.936 2.12541 585.936 1.50164C585.936 1.04798 586.24 0.695747 586.849 0.444929C587.462 0.19193 588.312 0.0654308 589.4 0.0654308H592.507V4.82879H591.212ZM587.225 1.50164C587.225 1.78953 587.408 2.02072 587.775 2.1952C588.147 2.36968 588.661 2.45802 589.319 2.4602H591.212V0.582334H589.379C588.681 0.582334 588.147 0.663032 587.775 0.824427C587.408 0.985823 587.225 1.21156 587.225 1.50164Z" fill="white"/>
<path d="M603.799 3.31734C603.678 3.82116 603.296 4.21047 602.651 4.48528C602.011 4.75791 601.159 4.89422 600.094 4.89422C598.939 4.89422 598.013 4.69248 597.315 4.28899C596.621 3.8855 596.275 3.34569 596.275 2.66957V2.21156C596.275 1.76881 596.436 1.3795 596.758 1.04362C597.085 0.707743 597.545 0.450382 598.141 0.271538C598.736 0.0905125 599.425 0 600.208 0C601.246 0 602.078 0.141767 602.705 0.4253C603.331 0.706652 603.696 1.09706 603.799 1.59651H602.504C602.392 1.21701 602.148 0.942203 601.772 0.772083C601.401 0.601963 600.879 0.516903 600.208 0.516903C599.385 0.516903 598.738 0.665213 598.268 0.961832C597.803 1.25845 597.57 1.68048 597.57 2.22792V2.6892C597.57 3.20611 597.792 3.61723 598.235 3.92257C598.678 4.22792 599.297 4.38059 600.094 4.38059C600.81 4.38059 601.358 4.30207 601.738 4.14504C602.123 3.98582 602.378 3.70992 602.504 3.31734H603.799Z" fill="white"/>
<path d="M612.257 2.60087C612.257 3.06761 612.096 3.47546 611.774 3.82443C611.452 4.17121 610.995 4.43621 610.405 4.61941C609.814 4.80262 609.125 4.89422 608.337 4.89422C607.568 4.89422 606.885 4.80262 606.29 4.61941C605.695 4.43402 605.232 4.17121 604.901 3.83097C604.574 3.48855 604.406 3.09269 604.397 2.6434V2.29989C604.397 1.84188 604.561 1.4373 604.887 1.08615C605.214 0.735005 605.675 0.466739 606.27 0.281352C606.87 0.0937841 607.554 0 608.324 0C609.107 0 609.796 0.0926936 610.391 0.278081C610.991 0.461287 611.452 0.728462 611.774 1.07961C612.096 1.42857 612.257 1.83533 612.257 2.29989V2.60087ZM610.975 2.29335C610.975 1.72846 610.743 1.29553 610.277 0.994547C609.812 0.691385 609.161 0.539804 608.324 0.539804C607.51 0.539804 606.867 0.691385 606.398 0.994547C605.932 1.29553 605.693 1.71429 605.679 2.25082V2.60087C605.679 3.14831 605.914 3.57906 606.384 3.89313C606.858 4.20502 607.51 4.36096 608.337 4.36096C609.17 4.36096 609.814 4.21374 610.271 3.9193C610.727 3.62268 610.962 3.19847 610.975 2.64667V2.29335Z" fill="white"/>
<path d="M623.14 3.31734C623.019 3.82116 622.636 4.21047 621.992 4.48528C621.352 4.75791 620.499 4.89422 619.434 4.89422C618.28 4.89422 617.354 4.69248 616.656 4.28899C615.962 3.8855 615.615 3.34569 615.615 2.66957V2.21156C615.615 1.76881 615.776 1.3795 616.098 1.04362C616.425 0.707743 616.886 0.450382 617.481 0.271538C618.076 0.0905125 618.765 0 619.549 0C620.587 0 621.419 0.141767 622.045 0.4253C622.672 0.706652 623.037 1.09706 623.14 1.59651H621.844C621.732 1.21701 621.488 0.942203 621.112 0.772083C620.741 0.601963 620.22 0.516903 619.549 0.516903C618.725 0.516903 618.079 0.665213 617.609 0.961832C617.143 1.25845 616.911 1.68048 616.911 2.22792V2.6892C616.911 3.20611 617.132 3.61723 617.575 3.92257C618.018 4.22792 618.638 4.38059 619.434 4.38059C620.15 4.38059 620.699 4.30207 621.079 4.14504C621.464 3.98582 621.719 3.70992 621.844 3.31734H623.14Z" fill="white"/>
<path d="M631.544 4.82879H630.249V0.582334H625.429V4.82879H624.141V0.0654308H631.544V4.82879Z" fill="white"/>
<path d="M638.593 2.62704H634.357V4.31516H639.278V4.82879H633.069V0.0654308H639.21V0.582334H634.357V2.11341H638.593V2.62704Z" fill="white"/>
<path d="M640.097 0.0654308H641.393V4.31516H646.212V0.0654308H647.501V4.30207H648.528L648.407 5.9771H647.246V4.82879H640.097V0.0654308Z" fill="white"/>
<path d="M655.449 0.0654308H656.738V4.82879H655.449V1.15812L650.636 4.82879H649.341V0.0654308H650.636V3.7361L655.449 0.0654308Z" fill="white"/>
<path d="M663.78 3.58561H659.685L658.766 4.82879H657.437L661.169 0.0654308H662.296L666.035 4.82879H664.713L663.78 3.58561ZM660.075 3.0687H663.397L661.733 0.840785L660.075 3.0687Z" fill="white"/>
<path d="M674.037 0.0654308V4.82879H672.748V0.582334H669.245L669.07 2.47001C669.003 3.10251 668.869 3.57797 668.667 3.8964C668.47 4.21483 668.179 4.44929 667.795 4.59978C667.41 4.74809 666.895 4.82443 666.251 4.82879H665.828V4.31516L666.096 4.30862C666.513 4.29335 666.833 4.22792 667.056 4.11232C667.28 3.99455 667.45 3.80807 667.566 3.55289C667.683 3.29771 667.766 2.90513 667.815 2.37514L668.016 0.0654308H674.037Z" fill="white"/>
<path d="M681.717 0.0654308H683.006V4.82879H681.717V1.15812L676.904 4.82879H675.609V0.0654308H676.904V3.7361L681.717 0.0654308Z" fill="white"/>
<path d="M691.719 3.31734C691.598 3.82116 691.216 4.21047 690.571 4.48528C689.931 4.75791 689.079 4.89422 688.014 4.89422C686.859 4.89422 685.933 4.69248 685.235 4.28899C684.541 3.8855 684.194 3.34569 684.194 2.66957V2.21156C684.194 1.76881 684.356 1.3795 684.678 1.04362C685.004 0.707743 685.465 0.450382 686.06 0.271538C686.656 0.0905125 687.345 0 688.128 0C689.166 0 689.998 0.141767 690.625 0.4253C691.251 0.706652 691.616 1.09706 691.719 1.59651H690.423C690.312 1.21701 690.068 0.942203 689.692 0.772083C689.32 0.601963 688.799 0.516903 688.128 0.516903C687.304 0.516903 686.658 0.665213 686.188 0.961832C685.723 1.25845 685.49 1.68048 685.49 2.22792V2.6892C685.49 3.20611 685.711 3.61723 686.154 3.92257C686.597 4.22792 687.217 4.38059 688.014 4.38059C688.73 4.38059 689.278 4.30207 689.658 4.14504C690.043 3.98582 690.298 3.70992 690.423 3.31734H691.719Z" fill="white"/>
<path d="M699.211 0.582334H696.069V4.82879H694.787V0.582334H691.653V0.0654308H699.211V0.582334Z" fill="white"/>
<path d="M707.166 2.60087C707.166 3.06761 707.004 3.47546 706.682 3.82443C706.36 4.17121 705.904 4.43621 705.313 4.61941C704.722 4.80262 704.033 4.89422 703.246 4.89422C702.476 4.89422 701.793 4.80262 701.198 4.61941C700.603 4.43402 700.14 4.17121 699.809 3.83097C699.482 3.48855 699.314 3.09269 699.305 2.6434V2.29989C699.305 1.84188 699.469 1.4373 699.795 1.08615C700.122 0.735005 700.583 0.466739 701.178 0.281352C701.778 0.0937841 702.462 0 703.232 0C704.015 0 704.704 0.0926936 705.299 0.278081C705.899 0.461287 706.36 0.728462 706.682 1.07961C707.004 1.42857 707.166 1.83533 707.166 2.29989V2.60087ZM705.883 2.29335C705.883 1.72846 705.651 1.29553 705.185 0.994547C704.72 0.691385 704.069 0.539804 703.232 0.539804C702.418 0.539804 701.776 0.691385 701.306 0.994547C700.84 1.29553 700.601 1.71429 700.587 2.25082V2.60087C700.587 3.14831 700.822 3.57906 701.292 3.89313C701.767 4.20502 702.418 4.36096 703.246 4.36096C704.078 4.36096 704.722 4.21374 705.179 3.9193C705.635 3.62268 705.87 3.19847 705.883 2.64667V2.29335Z" fill="white"/>
<path d="M709.939 0.0654308L713.134 3.95202L716.329 0.0654308H718V4.82879H716.711V2.97383L716.832 0.971647L713.624 4.82879H712.637L709.435 0.981461L709.563 2.97383V4.82879H708.274V0.0654308H709.939Z" fill="white"/>
</svg>
