<svg width="255" height="302" viewBox="0 0 255 302" fill="none" xmlns="http://www.w3.org/2000/svg">
<path d="M251.176 3.39437C251.127 2.56738 250.418 1.93649 249.591 1.98524C248.764 2.03399 248.133 2.74392 248.181 3.57091L251.176 3.39437ZM0.346789 288.637L16.3277 295.316L14.1215 278.137L0.346789 288.637ZM248.47 8.62109C248.516 9.44825 249.224 10.0817 250.051 10.0359C250.878 9.99008 251.511 9.2824 251.466 8.45524L248.47 8.62109ZM252.881 43.2648C252.861 42.4366 252.174 41.7812 251.345 41.8008C250.517 41.8204 249.862 42.5077 249.881 43.3359L252.881 43.2648ZM250.059 53.2889C250.069 54.1172 250.748 54.7809 251.577 54.7711C252.405 54.7613 253.069 54.0819 253.059 53.2535L250.059 53.2889ZM252.572 88.1035C252.608 87.2758 251.967 86.5754 251.139 86.5391C250.312 86.5028 249.611 87.1442 249.575 87.9718L252.572 88.1035ZM249.033 97.933C248.979 98.7597 249.606 99.4736 250.432 99.5276C251.259 99.5815 251.973 98.9551 252.027 98.1285L249.033 97.933ZM248.136 132.807C248.273 131.99 247.722 131.217 246.905 131.08C246.088 130.943 245.315 131.494 245.178 132.311L248.136 132.807ZM243.356 142.038C243.188 142.849 243.709 143.643 244.52 143.812C245.331 143.98 246.125 143.459 246.293 142.648L243.356 142.038ZM236.285 176.234C236.597 175.466 236.229 174.591 235.462 174.278C234.695 173.966 233.819 174.334 233.506 175.101L236.285 176.234ZM229.491 184.099C229.129 184.843 229.438 185.741 230.183 186.104C230.928 186.467 231.825 186.157 232.188 185.413L229.491 184.099ZM212.845 214.697C213.391 214.074 213.328 213.127 212.705 212.58C212.083 212.034 211.135 212.097 210.589 212.72L212.845 214.697ZM203.823 219.855C203.23 220.433 203.218 221.383 203.797 221.976C204.375 222.569 205.325 222.58 205.918 222.002L203.823 219.855ZM177.982 243.197C178.695 242.773 178.929 241.853 178.505 241.141C178.082 240.429 177.162 240.194 176.449 240.618L177.982 243.197ZM167.811 245.436C167.077 245.82 166.794 246.727 167.178 247.461C167.562 248.194 168.469 248.478 169.203 248.094L167.811 245.436ZM137.063 261.886C137.844 261.61 138.254 260.753 137.979 259.972C137.703 259.191 136.846 258.781 136.065 259.056L137.063 261.886ZM126.711 262.195C125.922 262.447 125.486 263.291 125.738 264.08C125.99 264.869 126.834 265.305 127.623 265.053L126.711 262.195ZM93.8848 274.251C94.6915 274.063 95.1929 273.256 95.0047 272.449C94.8164 271.643 94.0098 271.141 93.2031 271.329L93.8848 274.251ZM83.5698 273.49C82.76 273.664 82.245 274.462 82.4195 275.272C82.5941 276.082 83.3921 276.597 84.2019 276.422L83.5698 273.49ZM49.9363 282.937C50.7532 282.799 51.3042 282.026 51.1668 281.209C51.0294 280.392 50.2558 279.841 49.4388 279.978L49.9363 282.937ZM39.5218 281.594C38.7035 281.723 38.1448 282.491 38.2739 283.309C38.403 284.127 39.1711 284.686 39.9894 284.557L39.5218 281.594ZM5.56731 289.479C6.38882 289.372 6.96817 288.62 6.86134 287.798C6.7545 286.977 6.00193 286.397 5.18042 286.504L5.56731 289.479ZM248.181 3.57091C248.281 5.26484 248.378 6.9482 248.47 8.62109L251.466 8.45524C251.373 6.77871 251.276 5.09177 251.176 3.39437L248.181 3.57091ZM249.881 43.3359C249.961 46.7018 250.021 50.0192 250.059 53.2889L253.059 53.2535C253.02 49.9714 252.961 46.6421 252.881 43.2648L249.881 43.3359ZM249.575 87.9718C249.426 91.3518 249.246 94.6718 249.033 97.933L252.027 98.1285C252.241 94.8449 252.423 91.5037 252.572 88.1035L249.575 87.9718ZM245.178 132.311C244.622 135.627 244.015 138.868 243.356 142.038L246.293 142.648C246.961 139.439 247.574 136.159 248.136 132.807L245.178 132.311ZM233.506 175.101C232.249 178.187 230.911 181.185 229.491 184.099L232.188 185.413C233.638 182.437 235.003 179.378 236.285 176.234L233.506 175.101ZM210.589 212.72C208.437 215.174 206.183 217.552 203.823 219.855L205.918 222.002C208.333 219.645 210.641 217.211 212.845 214.697L210.589 212.72ZM176.449 240.618C173.666 242.273 170.787 243.878 167.811 245.436L169.203 248.094C172.224 246.512 175.15 244.88 177.982 243.197L176.449 240.618ZM136.065 259.056C133.022 260.13 129.904 261.176 126.711 262.195L127.623 265.053C130.844 264.025 133.99 262.97 137.063 261.886L136.065 259.056ZM93.2031 271.329C90.0504 272.065 86.8396 272.785 83.5698 273.49L84.2019 276.422C87.4875 275.714 90.7149 274.991 93.8848 274.251L93.2031 271.329ZM49.4388 279.978C46.1821 280.526 42.8766 281.064 39.5218 281.594L39.9894 284.557C43.3537 284.026 46.6692 283.486 49.9363 282.937L49.4388 279.978ZM252.674 3.3061C252.576 1.65212 251.156 0.390342 249.502 0.487843C247.848 0.585343 246.586 2.0052 246.684 3.65918L252.674 3.3061ZM0.346789 288.637L32.3087 301.995L27.8961 267.636L0.346789 288.637ZM246.972 8.70401C247.064 10.3583 248.479 11.6252 250.134 11.5336C251.788 11.442 253.055 10.0266 252.963 8.37232L246.972 8.70401ZM254.38 43.2293C254.341 41.5729 252.966 40.262 251.31 40.3012C249.654 40.3404 248.343 41.715 248.382 43.3714L254.38 43.2293ZM248.559 53.3065C248.579 54.9633 249.938 56.2905 251.594 56.271C253.251 56.2515 254.578 54.8926 254.559 53.2358L248.559 53.3065ZM254.07 88.1693C254.143 86.514 252.86 85.1132 251.205 85.0405C249.55 84.9679 248.149 86.2508 248.076 87.906L254.07 88.1693ZM247.537 97.8353C247.429 99.4886 248.681 100.916 250.335 101.024C251.988 101.132 253.416 99.8795 253.524 98.2262L247.537 97.8353ZM249.616 133.055C249.89 131.421 248.787 129.874 247.153 129.6C245.519 129.326 243.972 130.429 243.698 132.063L249.616 133.055ZM241.888 141.733C241.55 143.355 242.592 144.943 244.214 145.28C245.837 145.618 247.425 144.576 247.762 142.954L241.888 141.733ZM237.674 176.8C238.299 175.265 237.562 173.515 236.028 172.889C234.494 172.264 232.743 173.001 232.117 174.535L237.674 176.8ZM228.143 183.442C227.417 184.931 228.036 186.727 229.526 187.453C231.015 188.178 232.811 187.559 233.537 186.07L228.143 183.442ZM213.973 215.686C215.065 214.44 214.94 212.545 213.694 211.452C212.448 210.36 210.553 210.485 209.461 211.731L213.973 215.686ZM202.775 218.781C201.589 219.938 201.566 221.838 202.723 223.023C203.88 224.209 205.78 224.232 206.966 223.075L202.775 218.781ZM178.749 244.486C180.173 243.639 180.641 241.798 179.795 240.374C178.948 238.95 177.107 238.482 175.683 239.328L178.749 244.486ZM167.115 244.107C165.648 244.876 165.081 246.688 165.849 248.156C166.617 249.624 168.43 250.191 169.898 249.423L167.115 244.107ZM137.562 263.3C139.125 262.749 139.944 261.035 139.393 259.473C138.842 257.91 137.129 257.091 135.566 257.642L137.562 263.3ZM126.255 260.766C124.677 261.27 123.806 262.958 124.309 264.536C124.813 266.115 126.501 266.986 128.08 266.482L126.255 260.766ZM94.2256 275.712C95.8391 275.335 96.8419 273.722 96.4654 272.108C96.089 270.495 94.4757 269.492 92.8622 269.869L94.2256 275.712ZM83.2537 272.023C81.6341 272.372 80.6041 273.968 80.9532 275.588C81.3023 277.208 82.8983 278.238 84.518 277.889L83.2537 272.023ZM50.185 284.416C51.8189 284.141 52.9208 282.594 52.646 280.96C52.3713 279.326 50.824 278.224 49.1901 278.499L50.185 284.416ZM39.288 280.112C37.6514 280.37 36.534 281.906 36.7922 283.543C37.0505 285.179 38.5866 286.297 40.2232 286.039L39.288 280.112ZM5.76075 290.967C7.40377 290.753 8.56248 289.248 8.34881 287.605C8.13514 285.962 6.63 284.803 4.98698 285.017L5.76075 290.967ZM246.684 3.65918C246.784 5.35137 246.88 7.03295 246.972 8.70401L252.963 8.37232C252.87 6.69396 252.774 5.00524 252.674 3.3061L246.684 3.65918ZM248.382 43.3714C248.461 46.7317 248.521 50.0431 248.559 53.3065L254.559 53.2358C254.52 49.9475 254.46 46.6122 254.38 43.2293L248.382 43.3714ZM248.076 87.906C247.928 91.2759 247.749 94.5852 247.537 97.8353L253.524 98.2262C253.739 94.9315 253.921 91.5796 254.07 88.1693L248.076 87.906ZM243.698 132.063C243.145 135.361 242.542 138.583 241.888 141.733L247.762 142.954C248.433 139.725 249.05 136.426 249.616 133.055L243.698 132.063ZM232.117 174.535C230.872 177.591 229.548 180.558 228.143 183.442L233.537 186.07C235.002 183.063 236.38 179.974 237.674 176.8L232.117 174.535ZM209.461 211.731C207.335 214.156 205.108 216.505 202.775 218.781L206.966 223.075C209.408 220.691 211.743 218.229 213.973 215.686L209.461 211.731ZM175.683 239.328C172.923 240.969 170.068 242.561 167.115 244.107L169.898 249.423C172.943 247.829 175.893 246.184 178.749 244.486L175.683 239.328ZM135.566 257.642C132.538 258.71 129.434 259.751 126.255 260.766L128.08 266.482C131.314 265.45 134.474 264.39 137.562 263.3L135.566 257.642ZM92.8622 269.869C89.7182 270.602 86.5156 271.32 83.2537 272.023L84.518 277.889C87.8115 277.179 91.0471 276.453 94.2256 275.712L92.8622 269.869ZM49.1901 278.499C45.9385 279.046 42.638 279.583 39.288 280.112L40.2232 286.039C43.5923 285.507 46.9127 284.966 50.185 284.416L49.1901 278.499Z" fill="white"/>
</svg>
