<svg width="149" height="148" viewBox="0 0 149 148" fill="none" xmlns="http://www.w3.org/2000/svg">
<path d="M32.5393 145.79L32.6432 146.784L34.6324 146.577L34.5285 145.582L32.5393 145.79ZM34.4762 145.076L34.375 144.081L32.3853 144.283L32.4865 145.278L34.4762 145.076ZM31.6227 132.119L31.6507 133.119L33.6499 133.063L33.6219 132.063L31.6227 132.119ZM33.5969 131.064L33.575 130.064L31.5755 130.108L31.5974 131.108L33.5969 131.064ZM31.8589 117.917L31.7954 118.915L33.7913 119.042L33.8549 118.044L31.8589 117.917ZM33.9229 117.033L33.9937 116.035L31.9987 115.894L31.9279 116.891L33.9229 117.033ZM33.5037 103.773L33.3338 104.759L35.3048 105.098L35.4746 104.113L33.5037 103.773ZM35.6493 103.124L35.8273 102.14L33.8592 101.784L33.6812 102.768L35.6493 103.124ZM36.7665 89.9137L36.476 90.8706L38.3898 91.4515L38.6803 90.4946L36.7665 89.9137ZM38.9733 89.5453L39.2728 88.5912L37.3646 87.9922L37.0651 88.9463L38.9733 89.5453ZM41.839 76.6001L41.4165 77.5065L43.2293 78.3513L43.6518 77.4449L41.839 76.6001ZM44.0798 76.5393L44.5119 75.6375L42.7083 74.7732L42.2762 75.675L44.0798 76.5393ZM48.8428 64.1742L48.2844 65.0038L49.9435 66.1206L50.5019 65.291L48.8428 64.1742ZM51.0619 64.4694L51.6298 63.6463L49.9837 62.5104L49.4157 63.3335L51.0619 64.4694ZM57.757 53.0281L57.0699 53.7547L58.523 55.1289L59.2101 54.4023L57.757 53.0281ZM59.8991 53.6824L60.5948 52.9641L59.1581 51.5727L58.4624 52.291L59.8991 53.6824ZM68.3858 43.5072L67.5887 44.1111L68.7966 45.7052L69.5936 45.1012L68.3858 43.5072ZM70.3916 44.5038L71.1956 43.9091L70.0062 42.3012L69.2022 42.8959L70.3916 44.5038ZM80.4046 35.8159L79.5233 36.2884L80.4683 38.0511L81.3496 37.5786L80.4046 35.8159ZM82.228 37.1137L83.1143 36.6506L82.1881 34.878L81.3018 35.3411L82.228 37.1137ZM93.4135 30.0091L92.4742 30.3521L93.1604 32.2307L94.0997 31.8877L93.4135 30.0091ZM95.0435 31.5481L95.986 31.214L95.3179 29.3289L94.3754 29.663L95.0435 31.5481ZM107.077 25.9914L106.103 26.214L106.548 28.1638L107.523 27.9412L107.077 25.9914ZM108.495 27.7234L109.472 27.509L109.043 25.5555L108.066 25.77L108.495 27.7234ZM121.097 23.6088L120.104 23.7232L120.333 25.7101L121.326 25.5957L121.097 23.6088ZM122.325 25.4843L123.32 25.3772L123.105 23.3887L122.111 23.4958L122.325 25.4843ZM135.291 22.6758L134.291 22.6946L134.329 24.6942L135.328 24.6755L135.291 22.6758ZM34.5285 145.582C34.5108 145.413 34.4934 145.244 34.4762 145.076L32.4865 145.278C32.5039 145.448 32.5215 145.619 32.5393 145.79L34.5285 145.582ZM33.6219 132.063C33.6126 131.729 33.6042 131.396 33.5969 131.064L31.5974 131.108C31.6048 131.444 31.6132 131.781 31.6227 132.119L33.6219 132.063ZM33.8549 118.044C33.8764 117.706 33.8991 117.369 33.9229 117.033L31.9279 116.891C31.9038 117.232 31.8808 117.574 31.8589 117.917L33.8549 118.044ZM35.4746 104.113C35.5316 103.782 35.5898 103.453 35.6493 103.124L33.6812 102.768C33.6208 103.102 33.5616 103.437 33.5037 103.773L35.4746 104.113ZM38.6803 90.4946C38.7767 90.177 38.8743 89.8606 38.9733 89.5453L37.0651 88.9463C36.9643 89.2677 36.8647 89.5901 36.7665 89.9137L38.6803 90.4946ZM43.6518 77.4449C43.793 77.1418 43.9357 76.8399 44.0798 76.5393L42.2762 75.675C42.129 75.9821 41.9833 76.2904 41.839 76.6001L43.6518 77.4449ZM50.5019 65.291C50.6872 65.0158 50.8738 64.7419 51.0619 64.4694L49.4157 63.3335C49.2233 63.6123 49.0323 63.8926 48.8428 64.1742L50.5019 65.291ZM59.2101 54.4023C59.4384 54.1609 59.6681 53.921 59.8991 53.6824L58.4624 52.291C58.2259 52.5353 57.9907 52.781 57.757 53.0281L59.2101 54.4023ZM69.5936 45.1012C69.8583 44.9007 70.1243 44.7015 70.3916 44.5038L69.2022 42.8959C68.9288 43.0982 68.6566 43.3019 68.3858 43.5072L69.5936 45.1012ZM81.3496 37.5786C81.6412 37.4222 81.934 37.2673 82.228 37.1137L81.3018 35.3411C81.0016 35.4979 80.7025 35.6562 80.4046 35.8159L81.3496 37.5786ZM94.0997 31.8877C94.4133 31.7731 94.7279 31.6599 95.0435 31.5481L94.3754 29.663C94.0538 29.777 93.7331 29.8923 93.4135 30.0091L94.0997 31.8877ZM107.523 27.9412C107.846 27.8674 108.17 27.7948 108.495 27.7234L108.066 25.77C107.736 25.8425 107.406 25.9163 107.077 25.9914L107.523 27.9412ZM121.326 25.5957C121.659 25.5574 121.992 25.5203 122.325 25.4843L122.111 23.4958C121.773 23.5323 121.435 23.57 121.097 23.6088L121.326 25.5957ZM135.328 24.6755C135.497 24.6723 135.666 24.6694 135.835 24.6668L135.803 22.667C135.632 22.6697 135.462 22.6726 135.291 22.6758L135.328 24.6755ZM31.5447 145.894L31.7525 147.883L35.7308 147.467L35.5231 145.478L31.5447 145.894ZM35.4711 144.974L35.2686 142.985L31.2892 143.389L31.4917 145.379L35.4711 144.974ZM30.6231 132.147L30.6791 134.147L34.6775 134.035L34.6215 132.035L30.6231 132.147ZM34.5967 131.042L34.5529 129.042L30.5538 129.13L30.5977 131.129L34.5967 131.042ZM30.861 117.853L30.7338 119.849L34.7258 120.103L34.8529 118.108L30.861 117.853ZM34.9204 117.104L35.0619 115.109L31.0719 114.826L30.9304 116.821L34.9204 117.104ZM32.5182 103.603L32.1785 105.574L36.1204 106.254L36.4601 104.283L32.5182 103.603ZM36.6333 103.302L36.9893 101.334L33.0532 100.622L32.6972 102.59L36.6333 103.302ZM35.8096 89.6232L35.2287 91.537L39.0563 92.6988L39.6372 90.785L35.8096 89.6232ZM39.9274 89.8448L40.5264 87.9366L36.7101 86.7386L36.111 88.6468L39.9274 89.8448ZM40.9326 76.1776L40.0877 77.9904L43.7133 79.6801L44.5582 77.8673L40.9326 76.1776ZM44.9816 76.9714L45.8459 75.1678L42.2387 73.4392L41.3744 75.2428L44.9816 76.9714ZM48.0132 63.6158L46.8964 65.2749L50.2147 67.5085L51.3315 65.8494L48.0132 63.6158ZM51.8849 65.0373L53.0208 63.3912L49.7286 61.1194L48.5927 62.7655L51.8849 65.0373ZM57.0304 52.341L55.6562 53.7942L58.5625 56.5426L59.9367 55.0894L57.0304 52.341ZM60.6174 54.3781L62.0088 52.9414L59.1354 50.1587L57.7441 51.5953L60.6174 54.3781ZM67.7818 42.7101L66.1878 43.918L68.6035 47.1061L70.1976 45.8983L67.7818 42.7101ZM70.9863 45.3078L72.5942 44.1184L70.2154 40.9026L68.6075 42.092L70.9863 45.3078ZM79.9321 34.9346L78.1695 35.8796L80.0594 39.4049L81.8221 38.4599L79.9321 34.9346ZM82.6911 38L84.4637 37.0738L82.6113 33.5286L80.8387 34.4548L82.6911 38ZM93.0705 29.0697L91.1919 29.7559L92.5641 33.5131L94.4428 32.827L93.0705 29.0697ZM95.3776 32.4906L97.2627 31.8225L95.9264 28.0523L94.0413 28.7204L95.3776 32.4906ZM106.855 25.0165L104.905 25.4617L105.795 29.3613L107.745 28.9161L106.855 25.0165ZM108.709 28.7002L110.663 28.2712L109.805 24.3643L107.851 24.7933L108.709 28.7002ZM120.983 22.6154L118.996 22.8442L119.454 26.818L121.441 26.5891L120.983 22.6154ZM122.433 26.4786L124.421 26.2643L123.993 22.2873L122.004 22.5016L122.433 26.4786ZM135.272 21.676L133.273 21.7135L133.348 25.7128L135.347 25.6753L135.272 21.676ZM35.5231 145.478C35.5055 145.31 35.4882 145.142 35.4711 144.974L31.4917 145.379C31.5091 145.551 31.5268 145.722 31.5447 145.894L35.5231 145.478ZM34.6215 132.035C34.6122 131.703 34.6039 131.372 34.5967 131.042L30.5977 131.129C30.6051 131.468 30.6136 131.807 30.6231 132.147L34.6215 132.035ZM34.8529 118.108C34.8742 117.772 34.8968 117.437 34.9204 117.104L30.9304 116.821C30.9061 117.164 30.8829 117.508 30.861 117.853L34.8529 118.108ZM36.4601 104.283C36.5166 103.955 36.5743 103.628 36.6333 103.302L32.6972 102.59C32.6362 102.927 32.5766 103.265 32.5182 103.603L36.4601 104.283ZM39.6372 90.785C39.7326 90.4705 39.8294 90.1571 39.9274 89.8448L36.111 88.6468C36.0092 88.9712 35.9087 89.2966 35.8096 89.6232L39.6372 90.785ZM44.5582 77.8673C44.6979 77.5674 44.8391 77.2688 44.9816 76.9714L41.3744 75.2428C41.2257 75.5532 41.0784 75.8648 40.9326 76.1776L44.5582 77.8673ZM51.3315 65.8494C51.5146 65.5773 51.6991 65.3067 51.8849 65.0373L48.5927 62.7655C48.3981 63.0476 48.2049 63.331 48.0132 63.6158L51.3315 65.8494ZM59.9367 55.0894C60.1622 54.8509 60.3892 54.6138 60.6174 54.3781L57.7441 51.5953C57.5048 51.8424 57.2669 52.091 57.0304 52.341L59.9367 55.0894ZM70.1976 45.8983C70.4592 45.7 70.7221 45.5032 70.9863 45.3078L68.6075 42.092C68.331 42.2965 68.0558 42.5026 67.7818 42.7101L70.1976 45.8983ZM81.8221 38.4599C82.1106 38.3053 82.4003 38.1519 82.6911 38L80.8387 34.4548C80.5353 34.6133 80.2332 34.7732 79.9321 34.9346L81.8221 38.4599ZM94.4428 32.827C94.7533 32.7135 95.065 32.6014 95.3776 32.4906L94.0413 28.7204C93.7167 28.8355 93.3931 28.9519 93.0705 29.0697L94.4428 32.827ZM107.745 28.9161C108.066 28.8429 108.387 28.7709 108.709 28.7002L107.851 24.7933C107.518 24.8664 107.186 24.9408 106.855 25.0165L107.745 28.9161ZM121.441 26.5891C121.771 26.5511 122.101 26.5143 122.433 26.4786L122.004 22.5016C121.663 22.5383 121.323 22.5763 120.983 22.6154L121.441 26.5891ZM135.347 25.6753C135.515 25.6722 135.682 25.6693 135.85 25.6667L135.788 21.6672C135.616 21.6698 135.444 21.6728 135.272 21.676L135.347 25.6753Z" fill="white"/>
<path d="M148.001 23.9907L133.001 15.3305V32.651L148.001 23.9907Z" fill="white"/>
</svg>
