<svg width="346" height="419" viewBox="0 0 346 419" fill="none" xmlns="http://www.w3.org/2000/svg">
<path d="M5.0053 417.104C5.06267 417.653 5.55447 418.052 6.10377 417.995C6.65306 417.937 7.05185 417.446 6.99447 416.896L5.0053 417.104ZM345.407 11.9179L335.292 6.34757L335.526 17.8922L345.407 11.9179ZM6.50514 412.03C6.452 411.48 5.96329 411.078 5.41356 411.131C4.86384 411.184 4.46128 411.673 4.51441 412.223L6.50514 412.03ZM2.19238 378.369C2.21423 378.921 2.67931 379.351 3.23116 379.329C3.78302 379.307 4.21266 378.842 4.19081 378.29L2.19238 378.369ZM3.89367 368.705C3.88135 368.153 3.42376 367.716 2.87161 367.728C2.31946 367.74 1.88185 368.198 1.89417 368.75L3.89367 368.705ZM2.22826 334.771C2.20441 335.322 2.63237 335.789 3.18414 335.813C3.73591 335.837 4.20255 335.409 4.22639 334.857L2.22826 334.771ZM4.73472 325.292C4.76955 324.741 4.35096 324.266 3.79978 324.231C3.24859 324.197 2.77353 324.615 2.7387 325.166L4.73472 325.292ZM6.13922 291.347C6.06285 291.894 6.44435 292.4 6.99133 292.476C7.53831 292.552 8.04364 292.171 8.12001 291.624L6.13922 291.347ZM9.55748 282.125C9.64643 281.58 9.27667 281.066 8.73159 280.977C8.18652 280.888 7.67254 281.257 7.58359 281.803L9.55748 282.125ZM14.4755 248.559C14.3396 249.095 14.6634 249.639 15.1987 249.775C15.734 249.91 16.2781 249.587 16.414 249.051L14.4755 248.559ZM18.9134 239.724C19.0634 239.192 18.7542 238.64 18.2227 238.49C17.6911 238.34 17.1386 238.649 16.9886 239.18L18.9134 239.724ZM27.7741 207.027C27.5725 207.541 27.8259 208.121 28.34 208.323C28.8542 208.524 29.4345 208.271 29.6361 207.757L27.7741 207.027ZM33.2987 198.81C33.5155 198.302 33.2796 197.714 32.7717 197.497C32.2638 197.281 31.6762 197.516 31.4593 198.024L33.2987 198.81ZM46.4576 167.573C46.1865 168.055 46.3568 168.664 46.838 168.935C47.3192 169.207 47.929 169.036 48.2001 168.555L46.4576 167.573ZM53.0552 160.254C53.3418 159.782 53.1913 159.167 52.7192 158.88C52.2471 158.594 51.6321 158.744 51.3455 159.216L53.0552 160.254ZM70.6234 131.267C70.2836 131.702 70.361 132.33 70.7963 132.67C71.2317 133.01 71.8601 132.933 72.1999 132.497L70.6234 131.267ZM78.2681 124.992C78.6226 124.568 78.5667 123.938 78.1432 123.583C77.7198 123.229 77.0891 123.285 76.7345 123.708L78.2681 124.992ZM100.051 99.0322C99.648 99.4102 99.6279 100.043 100.006 100.446C100.384 100.848 101.017 100.869 101.419 100.491L100.051 99.0322ZM108.559 94.0164C108.974 93.6525 109.016 93.0207 108.652 92.6053C108.288 92.1899 107.656 92.1482 107.24 92.5122L108.559 94.0164ZM134.053 71.6788C133.598 71.9917 133.483 72.6143 133.796 73.0694C134.109 73.5245 134.731 73.6398 135.186 73.3269L134.053 71.6788ZM143.212 68.0001C143.677 67.7022 143.812 67.0837 143.514 66.6186C143.216 66.1536 142.598 66.0181 142.133 66.316L143.212 68.0001ZM171.684 49.6174C171.189 49.8627 170.987 50.4626 171.232 50.9575C171.477 51.4523 172.077 51.6546 172.572 51.4094L171.684 49.6174ZM181.285 47.2528C181.787 47.0224 182.008 46.4288 181.777 45.9268C181.547 45.4249 180.953 45.2047 180.451 45.435L181.285 47.2528ZM211.987 32.8464C211.465 33.0258 211.187 33.5947 211.366 34.117C211.545 34.6394 212.114 34.9174 212.637 34.738L211.987 32.8464ZM221.771 31.7372C222.298 31.5718 222.591 31.0105 222.425 30.4836C222.26 29.9566 221.699 29.6635 221.172 29.8289L221.771 31.7372ZM253.97 21.1293C253.431 21.2476 253.089 21.7808 253.208 22.3202C253.326 22.8597 253.859 23.2012 254.398 23.0829L253.97 21.1293ZM263.871 21.1242C264.413 21.0187 264.767 20.4938 264.661 19.9517C264.556 19.4095 264.031 19.0555 263.489 19.161L263.871 21.1242ZM296.995 14.0091C296.446 14.0721 296.052 14.568 296.115 15.1167C296.178 15.6654 296.674 16.0591 297.223 15.9961L296.995 14.0091ZM306.851 14.9929C307.401 14.9414 307.805 14.4539 307.754 13.904C307.702 13.3541 307.215 12.9501 306.665 13.0016L306.851 14.9929ZM340.507 11.0167C339.955 11.0304 339.518 11.4892 339.532 12.0413C339.546 12.5934 340.005 13.0298 340.557 13.0161L340.507 11.0167ZM6.99447 416.896C6.82458 415.27 6.66147 413.648 6.50514 412.03L4.51441 412.223C4.67125 413.845 4.83487 415.472 5.0053 417.104L6.99447 416.896ZM4.19081 378.29C4.06351 375.075 3.96453 371.88 3.89367 368.705L1.89417 368.75C1.96529 371.937 2.06462 375.143 2.19238 378.369L4.19081 378.29ZM4.22639 334.857C4.36518 331.646 4.53471 328.458 4.73472 325.292L2.7387 325.166C2.53784 328.345 2.36761 331.547 2.22826 334.771L4.22639 334.857ZM8.12001 291.624C8.56575 288.431 9.04501 285.265 9.55748 282.125L7.58359 281.803C7.06862 284.958 6.58707 288.14 6.13922 291.347L8.12001 291.624ZM16.414 249.051C17.2109 245.912 18.0441 242.803 18.9134 239.724L16.9886 239.18C16.1145 242.277 15.2767 245.403 14.4755 248.559L16.414 249.051ZM29.6361 207.757C30.8186 204.741 32.0396 201.758 33.2987 198.81L31.4593 198.024C30.1924 200.992 28.9638 203.992 27.7741 207.027L29.6361 207.757ZM48.2001 168.555C49.7794 165.752 51.3979 162.984 53.0552 160.254L51.3455 159.216C49.6769 161.965 48.0475 164.751 46.4576 167.573L48.2001 168.555ZM72.1999 132.497C74.1835 129.956 76.2064 127.454 78.2681 124.992L76.7345 123.708C74.6582 126.188 72.621 128.708 70.6234 131.267L72.1999 132.497ZM101.419 100.491C103.762 98.2923 106.142 96.1342 108.559 94.0164L107.24 92.5122C104.806 94.645 102.41 96.8183 100.051 99.0322L101.419 100.491ZM135.186 73.3269C137.827 71.5113 140.502 69.7357 143.212 68.0001L142.133 66.316C139.405 68.0633 136.712 69.8509 134.053 71.6788L135.186 73.3269ZM172.572 51.4094C175.446 49.9851 178.35 48.5995 181.285 47.2528L180.451 45.435C177.498 46.79 174.576 48.1842 171.684 49.6174L172.572 51.4094ZM212.637 34.738C215.655 33.7014 218.7 32.7011 221.771 31.7372L221.172 29.8289C218.084 30.7981 215.022 31.804 211.987 32.8464L212.637 34.738ZM254.398 23.0829C257.533 22.3956 260.69 21.7427 263.871 21.1242L263.489 19.161C260.293 19.7825 257.12 20.4386 253.97 21.1293L254.398 23.0829ZM297.223 15.9961C300.413 15.6298 303.622 15.2954 306.851 14.9929L306.665 13.0016C303.422 13.3054 300.198 13.6413 296.995 14.0091L297.223 15.9961ZM4.01071 417.208C4.12545 418.306 5.10906 419.104 6.20765 418.989C7.30624 418.875 8.10381 417.891 7.98906 416.792L4.01071 417.208ZM345.407 11.9179L325.178 0.777229L325.644 23.8665L345.407 11.9179ZM7.5005 411.934C7.39423 410.835 6.4168 410.029 5.31735 410.136C4.21791 410.242 3.41278 411.219 3.51905 412.319L7.5005 411.934ZM1.19316 378.409C1.23687 379.512 2.16703 380.372 3.27073 380.328C4.37444 380.284 5.23373 379.354 5.19003 378.25L1.19316 378.409ZM4.89342 368.683C4.86878 367.579 3.95359 366.704 2.8493 366.728C1.745 366.753 0.869773 367.668 0.894419 368.772L4.89342 368.683ZM1.22919 334.727C1.18149 335.831 2.03742 336.764 3.14096 336.812C4.2445 336.86 5.17776 336.004 5.22546 334.9L1.22919 334.727ZM5.73273 325.356C5.80239 324.253 4.96521 323.303 3.86284 323.233C2.76047 323.164 1.81035 324.001 1.74069 325.103L5.73273 325.356ZM5.14883 291.209C4.99609 292.303 5.7591 293.314 6.85305 293.466C7.94701 293.619 8.95766 292.856 9.1104 291.762L5.14883 291.209ZM10.5444 282.286C10.7223 281.196 9.9828 280.168 8.89265 279.99C7.8025 279.812 6.77455 280.551 6.59665 281.641L10.5444 282.286ZM13.5063 248.313C13.2345 249.384 13.8821 250.472 14.9527 250.744C16.0233 251.016 17.1115 250.368 17.3833 249.297L13.5063 248.313ZM19.8758 239.995C20.1759 238.932 19.5574 237.827 18.4943 237.527C17.4313 237.227 16.3263 237.846 16.0262 238.909L19.8758 239.995ZM26.8431 206.662C26.4399 207.69 26.9467 208.851 27.975 209.254C29.0034 209.657 30.1639 209.15 30.5671 208.122L26.8431 206.662ZM34.2183 199.202C34.6521 198.187 34.1802 197.011 33.1644 196.578C32.1485 196.144 30.9734 196.616 30.5397 197.632L34.2183 199.202ZM45.5863 167.083C45.0442 168.045 45.3848 169.265 46.3472 169.807C47.3096 170.349 48.5292 170.008 49.0714 169.046L45.5863 167.083ZM53.9101 160.773C54.4832 159.829 54.1823 158.599 53.2381 158.025C52.2938 157.452 51.0638 157.753 50.4906 158.697L53.9101 160.773ZM69.8351 130.651C69.1554 131.522 69.3103 132.779 70.181 133.459C71.0517 134.138 72.3085 133.983 72.9882 133.113L69.8351 130.651ZM79.0348 125.634C79.7439 124.787 79.6321 123.526 78.7852 122.816C77.9382 122.107 76.6768 122.219 75.9678 123.066L79.0348 125.634ZM99.3664 98.3031C98.561 99.0589 98.5208 100.325 99.2767 101.13C100.033 101.935 101.298 101.976 102.104 101.22L99.3664 98.3031ZM109.218 94.7685C110.048 94.0406 110.132 92.777 109.404 91.9462C108.676 91.1155 107.412 91.0321 106.581 91.7601L109.218 94.7685ZM133.487 70.8548C132.577 71.4805 132.346 72.7257 132.972 73.6359C133.598 74.5461 134.843 74.7767 135.753 74.1509L133.487 70.8548ZM143.751 68.8421C144.681 68.2463 144.952 67.0093 144.356 66.0792C143.76 65.1491 142.523 64.8782 141.593 65.474L143.751 68.8421ZM171.24 48.7214C170.25 49.2119 169.846 50.4119 170.336 51.4015C170.827 52.3912 172.027 52.7959 173.016 52.3054L171.24 48.7214ZM181.703 48.1616C182.706 47.701 183.147 46.5137 182.686 45.5098C182.226 44.5059 181.038 44.0654 180.034 44.5261L181.703 48.1616ZM211.662 31.9006C210.618 32.2594 210.061 33.3972 210.42 34.4419C210.779 35.4865 211.917 36.0425 212.962 35.6837L211.662 31.9006ZM222.07 32.6913C223.124 32.3605 223.71 31.238 223.379 30.1841C223.049 29.1302 221.926 28.5441 220.872 28.8748L222.07 32.6913ZM253.756 20.1525C252.677 20.389 251.994 21.4555 252.231 22.5344C252.467 23.6133 253.534 24.2962 254.613 24.0597L253.756 20.1525ZM264.062 22.1058C265.146 21.8949 265.854 20.845 265.643 19.7607C265.432 18.6765 264.382 17.9685 263.298 18.1794L264.062 22.1058ZM296.88 13.0157C295.783 13.1417 294.996 14.1334 295.122 15.2307C295.248 16.3281 296.239 17.1155 297.337 16.9895L296.88 13.0157ZM306.944 15.9886C308.044 15.8855 308.852 14.9105 308.749 13.8107C308.646 12.711 307.671 11.903 306.571 12.006L306.944 15.9886ZM340.482 10.017C339.378 10.0445 338.505 10.9619 338.532 12.0662C338.56 13.1704 339.477 14.0433 340.581 14.0158L340.482 10.017ZM7.98906 416.792C7.81943 415.168 7.65658 413.549 7.5005 411.934L3.51905 412.319C3.67613 413.944 3.84001 415.574 4.01071 417.208L7.98906 416.792ZM5.19003 378.25C5.06295 375.041 4.96415 371.852 4.89342 368.683L0.894419 368.772C0.965666 371.965 1.06518 375.177 1.19316 378.409L5.19003 378.25ZM5.22546 334.9C5.36396 331.696 5.53314 328.514 5.73273 325.356L1.74069 325.103C1.53941 328.289 1.36883 331.497 1.22919 334.727L5.22546 334.9ZM9.1104 291.762C9.55509 288.577 10.0332 285.418 10.5444 282.286L6.59665 281.641C6.08043 284.805 5.59773 287.994 5.14883 291.209L9.1104 291.762ZM17.3833 249.297C18.178 246.167 19.009 243.066 19.8758 239.995L16.0262 238.909C15.1497 242.014 14.3096 245.149 13.5063 248.313L17.3833 249.297ZM30.5671 208.122C31.746 205.115 32.9632 202.142 34.2183 199.202L30.5397 197.632C29.2688 200.608 28.0364 203.618 26.8431 206.662L30.5671 208.122ZM49.0714 169.046C50.6454 166.252 52.2584 163.494 53.9101 160.773L50.4906 158.697C48.8164 161.456 47.1815 164.251 45.5863 167.083L49.0714 169.046ZM72.9882 133.113C74.9647 130.581 76.9804 128.088 79.0348 125.634L75.9678 123.066C73.8841 125.555 71.8397 128.083 69.8351 130.651L72.9882 133.113ZM102.104 101.22C104.438 99.0293 106.809 96.8789 109.218 94.7685L106.581 91.7601C104.139 93.9003 101.734 96.0814 99.3664 98.3031L102.104 101.22ZM135.753 74.1509C138.385 72.3416 141.051 70.5719 143.751 68.8421L141.593 65.474C138.857 67.2271 136.154 69.0207 133.487 70.8548L135.753 74.1509ZM173.016 52.3054C175.881 50.8855 178.776 49.5043 181.703 48.1616L180.034 44.5261C177.072 45.8852 174.141 47.2837 171.24 48.7214L173.016 52.3054ZM212.962 35.6837C215.971 34.65 219.008 33.6525 222.07 32.6913L220.872 28.8748C217.776 29.8467 214.706 30.8553 211.662 31.9006L212.962 35.6837ZM254.613 24.0597C257.739 23.3742 260.889 22.7228 264.062 22.1058L263.298 18.1794C260.095 18.8024 256.914 19.4601 253.756 20.1525L254.613 24.0597ZM297.337 16.9895C300.52 16.6241 303.722 16.2904 306.944 15.9886L306.571 12.006C303.322 12.3104 300.091 12.647 296.88 13.0157L297.337 16.9895Z" fill="white"/>
</svg>
