<svg width="238" height="473" viewBox="0 0 238 473" fill="none" xmlns="http://www.w3.org/2000/svg">
<path d="M236.496 3.1079C236.556 2.28161 235.934 1.56349 235.108 1.50393C234.282 1.44436 233.563 2.06591 233.504 2.89219L236.496 3.1079ZM0.84395 472.863L17.8333 469.492L6.41966 456.464L0.84395 472.863ZM233.504 2.89219C233.199 7.11517 232.899 11.2822 232.601 15.3955L235.593 15.6124C235.891 11.4983 236.192 7.33077 236.496 3.1079L233.504 2.89219ZM230.391 45.1433C229.735 53.6426 229.07 61.9045 228.377 69.951L231.366 70.2085C232.06 62.1507 232.726 53.8795 233.382 45.3739L230.391 45.1433ZM225.557 99.6466C224.667 108.079 223.713 116.274 222.667 124.264L225.642 124.654C226.691 116.635 227.649 108.414 228.541 99.9615L225.557 99.6466ZM218.201 153.728C216.745 162.039 215.138 170.144 213.346 178.086L216.272 178.746C218.076 170.753 219.692 162.599 221.156 154.246L218.201 153.728ZM205.789 206.844C203.387 214.766 200.737 222.567 197.799 230.292L200.603 231.358C203.567 223.566 206.239 215.7 208.66 207.715L205.789 206.844ZM186.037 257.586C182.508 264.886 178.67 272.169 174.488 279.477L177.092 280.967C181.308 273.6 185.179 266.256 188.738 258.892L186.037 257.586ZM158.741 304.693C154.236 311.352 149.421 318.07 144.269 324.874L146.661 326.685C151.843 319.84 156.69 313.08 161.226 306.373L158.741 304.693ZM125.646 348.118C120.483 354.237 115.043 360.447 109.311 366.767L111.533 368.783C117.288 362.438 122.751 356.201 127.939 350.053L125.646 348.118ZM88.889 388.48C83.269 394.259 77.4095 400.138 71.2992 406.133L73.4001 408.274C79.526 402.265 85.4022 396.368 91.0397 390.572L88.889 388.48ZM49.8289 426.704C43.9471 432.217 37.8616 437.829 31.5646 443.551L33.582 445.771C39.8898 440.04 45.9867 434.417 51.8805 428.892L49.8289 426.704ZM237.992 3.21575C238.111 1.56318 236.868 0.12694 235.216 0.00781039C233.563 -0.111319 232.127 1.13178 232.008 2.78434L237.992 3.21575ZM0.84395 472.863L34.8227 466.122L11.9954 440.066L0.84395 472.863ZM232.008 2.78434C231.703 7.00737 231.403 11.1741 231.105 15.2871L237.089 15.7208C237.387 11.6064 237.688 7.43857 237.992 3.21575L232.008 2.78434ZM228.895 45.028C228.24 53.5241 227.575 61.7813 226.883 69.8222L232.861 70.3373C233.555 62.2738 234.221 53.9979 234.877 45.4892L228.895 45.028ZM224.065 99.4892C223.177 107.911 222.223 116.094 221.18 124.07L227.129 124.848C228.18 116.815 229.139 108.582 230.032 100.119L224.065 99.4892ZM216.723 153.47C215.271 161.759 213.669 169.84 211.883 177.756L217.735 179.076C219.545 171.057 221.166 162.88 222.633 154.505L216.723 153.47ZM204.353 206.409C201.961 214.3 199.322 222.067 196.397 229.758L202.005 231.891C204.981 224.066 207.665 216.167 210.095 208.15L204.353 206.409ZM184.687 256.933C181.173 264.202 177.352 271.454 173.186 278.731L178.394 281.712C182.627 274.316 186.514 266.94 190.089 259.545L184.687 256.933ZM157.499 303.852C153.01 310.489 148.21 317.184 143.073 323.969L147.857 327.59C153.054 320.726 157.917 313.943 162.468 307.214L157.499 303.852ZM124.5 347.151C119.349 353.255 113.921 359.452 108.199 365.76L112.644 369.791C118.41 363.433 123.885 357.183 129.086 351.02L124.5 347.151ZM87.8137 387.434C82.2024 393.204 76.3512 399.075 70.2488 405.062L74.4505 409.345C80.5843 403.328 86.4688 397.423 92.115 391.617L87.8137 387.434ZM48.8031 425.609C42.9273 431.117 36.8476 436.724 30.5559 442.441L34.5907 446.881C40.9038 441.145 47.0065 435.517 52.9063 429.987L48.8031 425.609Z" fill="white"/>
</svg>
