<svg width="119" height="100" viewBox="0 0 119 100" fill="none" xmlns="http://www.w3.org/2000/svg">
<path d="M50.6537 3.2641C49.349 2.72806 47.8521 3.02136 46.8609 4.02264L19.7455 31.128H5.79841C3.87676 31.128 2.31921 32.6855 2.31921 34.6072V65.3839C2.31921 67.3055 3.87676 68.8631 5.79841 68.8631H19.7455L46.8609 95.9785C47.5285 96.646 48.4185 97 49.3187 97C49.7637 97 50.2188 96.909 50.6537 96.737C51.9584 96.201 52.8079 94.9267 52.8079 93.5208V6.48032C52.7978 5.07448 51.9482 3.80014 50.6537 3.2641Z" stroke="white" stroke-width="4" stroke-miterlimit="10"/>
<path d="M64.7019 69.2982C63.7006 69.2982 62.6994 68.9138 61.9307 68.1553C60.4035 66.6281 60.3934 64.1502 61.9206 62.6129C65.2885 59.2348 67.1495 54.7543 67.1495 49.9907C67.1495 45.227 65.2987 40.7364 61.9307 37.3685C60.4035 35.8413 60.4035 33.3634 61.9307 31.8261C63.4579 30.2989 65.9459 30.2989 67.4731 31.8261C72.3177 36.6706 74.9878 43.1233 74.9878 49.9806C74.9878 56.8277 72.3177 63.2804 67.4731 68.1351C66.7146 68.9138 65.7133 69.2982 64.7019 69.2982Z" stroke="white" stroke-width="4" stroke-miterlimit="10"/>
</svg>
