<svg width="120" height="101" viewBox="0 0 120 101" fill="none" xmlns="http://www.w3.org/2000/svg">
<path d="M51.7366 0.847407C50.3617 0.28251 48.7842 0.591604 47.7397 1.64679L19.1645 30.2114H4.46648C2.44138 30.2114 0.799988 31.8528 0.799988 33.8779V66.3115C0.799988 68.3366 2.44138 69.978 4.46648 69.978H19.1645L47.7397 98.5532C48.4431 99.2567 49.3811 99.6297 50.3297 99.6297C50.7987 99.6297 51.2783 99.5338 51.7366 99.3526C53.1115 98.7877 54.0068 97.4447 54.0068 95.9632V4.23678C53.9962 2.75526 53.1009 1.4123 51.7366 0.847407Z" fill="white"/>
<path d="M66.5411 70.4364C65.486 70.4364 64.4308 70.0313 63.6208 69.232C62.0113 67.6225 62.0007 65.0112 63.6101 63.3911C67.1593 59.8312 69.1205 55.1095 69.1205 50.0894C69.1205 45.0693 67.17 40.337 63.6101 36.7984C62.0007 35.1889 62.0007 32.567 63.6101 30.9576C65.2195 29.3481 67.8308 29.3481 69.4509 30.9576C74.5563 36.0629 77.3701 42.863 77.3701 50.0894C77.3701 57.3052 74.5563 64.1052 69.4509 69.2213C68.6622 70.0313 67.607 70.4364 66.5411 70.4364Z" fill="white"/>
<path d="M81.0792 86.6479C78.7983 86.6479 76.9544 84.804 76.9544 82.5231V82.5124C76.9544 81.4146 77.3914 80.37 78.1588 79.592C86.0461 71.7047 90.3841 61.2275 90.3841 50.0895C90.3841 38.9408 86.0461 28.4635 78.1588 20.587C76.5494 18.9775 76.5494 16.3662 78.1588 14.7461C79.7683 13.1367 82.3796 13.1367 83.9997 14.7461C93.443 24.1788 98.6443 36.7345 98.6443 50.0895C98.6443 63.4018 93.475 75.9148 84.0849 85.3475C83.3282 86.1576 82.2623 86.6479 81.0792 86.6479Z" fill="white"/>
<path d="M96.1929 100.077C95.1377 100.077 94.0825 99.6724 93.2725 98.8623C91.6631 97.2529 91.6631 94.6416 93.2725 93.0215C104.752 81.553 111.072 66.3009 111.072 50.0787C111.072 33.8566 104.752 18.5937 93.2832 7.12527C91.6737 5.51585 91.6737 2.90454 93.2832 1.28446C94.8926 -0.324963 97.5039 -0.324963 99.124 1.28446C112.149 14.3304 119.322 31.661 119.322 50.0894C119.322 68.5178 112.138 85.8484 99.1027 98.873C98.3033 99.683 97.2481 100.077 96.1929 100.077Z" fill="white"/>
</svg>
