<svg width="580" height="40" viewBox="0 0 580 40" fill="none" xmlns="http://www.w3.org/2000/svg">
<path d="M4.9342 0.436205H5.97526V32.1919H4.9342V7.72083L1.04648 32.1919H0V0.436205H1.04648V24.9073L4.9342 0.436205Z" fill="white"/>
<path d="M8.55145 0.436205L11.1324 26.3468L13.7134 0.436205H15.0635V32.1919H14.0224V19.8255L14.12 6.47764L11.5282 32.1919H10.7312L8.14478 6.54308L8.24781 19.8255V32.1919H7.20674V0.436205H8.55145Z" fill="white"/>
<path d="M20.6978 17.5136H17.2764V28.7677H21.2509V32.1919H16.2353V0.436205H21.1967V3.88222H17.2764V14.0894H20.6978V17.5136Z" fill="white"/>
<path d="M30.4747 17.3391C30.4747 20.4507 30.3445 23.1698 30.0843 25.4962C29.824 27.8081 29.4553 29.5747 28.9781 30.7961C28.501 32.0174 27.9443 32.6281 27.3081 32.6281C26.7081 32.6281 26.1695 32.0465 25.6923 30.8833C25.2188 29.7201 24.8464 28.0553 24.5753 25.8888C24.3078 23.7223 24.1596 21.1923 24.1307 18.2988H22.9975V32.1919H21.9564V0.436205H22.9975V15.0055H24.1253C24.1361 12.0102 24.2717 9.38568 24.532 7.13195C24.7922 4.86369 25.1627 3.1116 25.6435 1.87568C26.1243 0.625227 26.6755 0 27.2973 0C27.9299 0 28.4865 0.617957 28.9673 1.85387C29.4517 3.07525 29.824 4.85642 30.0843 7.19738C30.3445 9.52381 30.4747 12.2356 30.4747 15.3326V17.3391ZM29.439 15.289C29.439 11.5231 29.2511 8.63686 28.8751 6.63032C28.4992 4.60923 27.9732 3.59869 27.2973 3.59869C26.6394 3.59869 26.1207 4.60923 25.7411 6.63032C25.3652 8.63686 25.1718 11.4286 25.1609 15.0055V17.3391C25.1609 20.9887 25.3507 23.8604 25.7303 25.9542C26.1134 28.0334 26.6394 29.0731 27.3081 29.0731C27.9805 29.0731 28.501 28.0916 28.8697 26.1287C29.2384 24.1512 29.4282 21.3232 29.439 17.6445V15.289Z" fill="white"/>
<path d="M36.4397 3.88222H33.9021V32.1919H32.8665V3.88222H30.3343V0.436205H36.4397V3.88222Z" fill="white"/>
<path d="M42.6 22.1156C42.5024 25.4744 42.1933 28.0698 41.6728 29.9019C41.1559 31.7194 40.4673 32.6281 39.6069 32.6281C38.6743 32.6281 37.9261 31.2832 37.3622 28.5932C36.8019 25.9033 36.5217 22.3046 36.5217 17.7972V14.7437C36.5217 11.7921 36.6519 9.19666 36.9121 6.95747C37.176 4.71828 37.5483 3.00254 38.0291 1.81025C38.5099 0.603417 39.0665 0 39.6991 0C40.5378 0 41.2101 0.945111 41.7162 2.83533C42.2223 4.71101 42.5169 7.3137 42.6 10.6434H41.5535C41.4631 8.11341 41.2661 6.28135 40.9625 5.14722C40.6625 4.01309 40.2413 3.44602 39.6991 3.44602C39.034 3.44602 38.5117 4.43475 38.1321 6.41221C37.7562 8.38968 37.5682 11.2032 37.5682 14.8528V17.928C37.5682 21.374 37.7471 24.1149 38.105 26.1505C38.4629 28.1861 38.9635 29.2039 39.6069 29.2039C40.1853 29.2039 40.6281 28.6805 40.9354 27.6336C41.2463 26.5722 41.4523 24.7328 41.5535 22.1156H42.6Z" fill="white"/>
<path d="M47.4915 32.1919V19.8255H45.6696L44.0375 32.1919H42.926L44.7587 18.6696C43.7393 17.0556 43.2296 14.1694 43.2296 10.0109C43.2296 6.98655 43.4754 4.63831 43.967 2.96619C44.4623 1.27953 45.1491 0.436205 46.0275 0.436205H48.538V32.1919H47.4915ZM44.2707 10.0109C44.2707 11.9302 44.4189 13.4715 44.7153 14.6347C45.0153 15.7979 45.431 16.3868 45.9624 16.4013H47.4915V3.88222H46.0112C45.4473 3.88222 45.0153 4.42021 44.7153 5.49618C44.4189 6.57216 44.2707 8.07706 44.2707 10.0109Z" fill="white"/>
<path d="M57.8817 32.1919H56.8352V3.88222H52.9421V32.1919H51.901V0.436205H57.8817V32.1919Z" fill="white"/>
<path d="M60.1542 19.7601V32.1919H59.1132V0.436205H62.0249C62.8888 0.436205 63.5648 1.32316 64.0528 3.09706C64.5444 4.87096 64.7902 7.21919 64.7902 10.1418C64.7902 13.2243 64.5498 15.6016 64.0691 17.2737C63.5919 18.9313 62.9069 19.7601 62.014 19.7601H60.1542ZM60.1542 16.3359H62.0249C62.5816 16.3359 63.0081 15.8124 63.3045 14.7655C63.6009 13.7041 63.7492 12.1774 63.7492 10.1854C63.7492 8.29517 63.6009 6.78299 63.3045 5.64885C63.0081 4.51472 62.6015 3.92585 62.0845 3.88222H60.1542V16.3359Z" fill="white"/>
<path d="M71.5252 17.3391C71.5252 20.4507 71.3951 23.1698 71.1348 25.4962C70.8746 27.8081 70.5059 29.5747 70.0287 30.7961C69.5516 32.0174 68.9949 32.6281 68.3587 32.6281C67.7369 32.6281 67.1857 32.0174 66.7049 30.7961C66.2241 29.5602 65.85 27.8081 65.5825 25.5398C65.3186 23.257 65.1831 20.618 65.1758 17.6227V15.3326C65.1758 12.2792 65.3078 9.58197 65.5717 7.241C65.8355 4.90004 66.2079 3.1116 66.6886 1.87568C67.173 0.625227 67.7261 0 68.3478 0C68.9804 0 69.5371 0.617957 70.0179 1.85387C70.5022 3.07525 70.8746 4.85642 71.1348 7.19738C71.3951 9.52381 71.5252 12.2356 71.5252 15.3326V17.3391ZM70.4896 15.289C70.4896 11.5231 70.3016 8.63686 69.9257 6.63032C69.5497 4.60923 69.0238 3.59869 68.3478 3.59869C67.6899 3.59869 67.1712 4.60923 66.7917 6.63032C66.4157 8.63686 66.2223 11.4286 66.2115 15.0055V17.3391C66.2115 20.9887 66.4013 23.8604 66.7808 25.9542C67.164 28.0334 67.6899 29.0731 68.3587 29.0731C69.031 29.0731 69.5516 28.0916 69.9203 26.1287C70.289 24.1512 70.4787 21.3232 70.4896 17.6445V15.289Z" fill="white"/>
<path d="M77.7234 3.88222H75.1859V32.1919H74.1502V3.88222H71.618V0.436205H77.7234V3.88222Z" fill="white"/>
<path d="M83.2059 0.436205H84.247V32.1919H83.2059V7.72083L79.3182 32.1919H78.2717V0.436205H79.3182V24.9073L83.2059 0.436205Z" fill="white"/>
<path d="M85.4785 32.1919V0.436205H88.0594C88.9161 0.436205 89.5596 1.14867 89.9897 2.57361C90.4235 3.99855 90.6404 6.10687 90.6404 8.89858C90.6404 10.3817 90.5356 11.6976 90.3259 12.8462C90.1163 13.9804 89.8307 14.8601 89.4692 15.4853C89.8958 15.9651 90.2319 16.8811 90.4777 18.2334C90.7272 19.5711 90.8519 21.1705 90.8519 23.0316C90.8519 25.8815 90.6223 28.1207 90.1633 29.7492C89.7042 31.3777 89.0553 32.1919 88.2167 32.1919H85.4785ZM86.5195 17.3391V28.7677H88.2384C88.7228 28.7677 89.1041 28.2661 89.3825 27.2628C89.6644 26.245 89.8054 24.8491 89.8054 23.0752C89.8054 19.2512 89.2885 17.3391 88.2546 17.3391H86.5195ZM86.5195 13.9804H88.092C88.5474 13.9804 88.9107 13.5224 89.1818 12.6063C89.4566 11.6903 89.5939 10.4471 89.5939 8.87677C89.5939 7.13195 89.4674 5.86696 89.2144 5.08179C88.9613 4.28208 88.5764 3.88222 88.0594 3.88222H86.5195V13.9804Z" fill="white"/>
<path d="M97.8038 17.3391C97.8038 20.4507 97.6736 23.1698 97.4134 25.4962C97.1531 27.8081 96.7844 29.5747 96.3073 30.7961C95.8301 32.0174 95.2734 32.6281 94.6372 32.6281C94.0155 32.6281 93.4642 32.0174 92.9835 30.7961C92.5027 29.5602 92.1285 27.8081 91.8611 25.5398C91.5972 23.257 91.4616 20.618 91.4544 17.6227V15.3326C91.4544 12.2792 91.5863 9.58197 91.8502 7.241C92.1141 4.90004 92.4864 3.1116 92.9672 1.87568C93.4516 0.625227 94.0046 0 94.6264 0C95.259 0 95.8156 0.617957 96.2964 1.85387C96.7808 3.07525 97.1531 4.85642 97.4134 7.19738C97.6736 9.52381 97.8038 12.2356 97.8038 15.3326V17.3391ZM96.7681 15.289C96.7681 11.5231 96.5802 8.63686 96.2042 6.63032C95.8283 4.60923 95.3023 3.59869 94.6264 3.59869C93.9685 3.59869 93.4498 4.60923 93.0702 6.63032C92.6943 8.63686 92.5009 11.4286 92.49 15.0055V17.3391C92.49 20.9887 92.6798 23.8604 93.0594 25.9542C93.4425 28.0334 93.9685 29.0731 94.6372 29.0731C95.3096 29.0731 95.8301 28.0916 96.1988 26.1287C96.5675 24.1512 96.7573 21.3232 96.7681 17.6445V15.289Z" fill="white"/>
<path d="M104.729 32.1919H103.682V3.88222H99.7889V32.1919H98.7479V0.436205H104.729V32.1919Z" fill="white"/>
<path d="M112.033 17.3391C112.033 20.4507 111.903 23.1698 111.643 25.4962C111.382 27.8081 111.014 29.5747 110.536 30.7961C110.059 32.0174 109.503 32.6281 108.866 32.6281C108.245 32.6281 107.693 32.0174 107.213 30.7961C106.732 29.5602 106.358 27.8081 106.09 25.5398C105.826 23.257 105.691 20.618 105.684 17.6227V15.3326C105.684 12.2792 105.815 9.58197 106.079 7.241C106.343 4.90004 106.716 3.1116 107.196 1.87568C107.681 0.625227 108.234 0 108.855 0C109.488 0 110.045 0.617957 110.526 1.85387C111.01 3.07525 111.382 4.85642 111.643 7.19738C111.903 9.52381 112.033 12.2356 112.033 15.3326V17.3391ZM110.997 15.289C110.997 11.5231 110.809 8.63686 110.433 6.63032C110.057 4.60923 109.531 3.59869 108.855 3.59869C108.198 3.59869 107.679 4.60923 107.299 6.63032C106.923 8.63686 106.73 11.4286 106.719 15.0055V17.3391C106.719 20.9887 106.909 23.8604 107.288 25.9542C107.672 28.0334 108.198 29.0731 108.866 29.0731C109.539 29.0731 110.059 28.0916 110.428 26.1287C110.797 24.1512 110.986 21.3232 110.997 17.6445V15.289Z" fill="white"/>
<path d="M114.978 17.928H114.018V32.1919H112.977V0.436205H114.018V14.4384H114.831L117.591 0.436205H118.887L115.872 15.8342L119.11 32.1919H117.835L114.978 17.928Z" fill="white"/>
<path d="M123.757 23.904H120.449L119.707 32.1919H118.633L121.648 0.436205H122.559L125.579 32.1919H124.511L123.757 23.904ZM120.764 20.458H123.448L122.103 5.60523L120.764 20.458Z" fill="white"/>
<path d="M130.026 8.96401C130.026 7.27735 129.872 5.93966 129.565 4.95093C129.261 3.94766 128.833 3.44602 128.28 3.44602C127.817 3.44602 127.428 3.9622 127.114 4.99455C126.803 6.01236 126.648 7.27735 126.648 8.78953H125.607C125.607 7.10287 125.72 5.59069 125.948 4.253C126.18 2.9153 126.501 1.87568 126.913 1.13413C127.325 0.378044 127.781 0 128.28 0C129.162 0 129.847 0.799709 130.335 2.39913C130.823 3.98401 131.067 6.19411 131.067 9.02944C131.067 10.498 130.955 11.8357 130.731 13.0425C130.506 14.2494 130.194 15.2017 129.793 15.8997C130.722 17.1501 131.186 19.6292 131.186 23.337C131.186 26.1868 130.922 28.4478 130.394 30.12C129.867 31.7921 129.162 32.6281 128.28 32.6281C127.756 32.6281 127.278 32.2574 126.848 31.5158C126.422 30.7597 126.089 29.691 125.851 28.3097C125.612 26.9284 125.493 25.2854 125.493 23.3806H126.534C126.534 25.0527 126.698 26.4486 127.027 27.5682C127.356 28.6732 127.774 29.2257 128.28 29.2257C128.847 29.2257 129.299 28.695 129.635 27.6336C129.975 26.5722 130.145 25.169 130.145 23.4242C130.145 19.7019 129.572 17.8044 128.426 17.7317H127.45V14.2857H128.421C128.948 14.2421 129.348 13.7623 129.619 12.8462C129.89 11.9302 130.026 10.6361 130.026 8.96401Z" fill="white"/>
<path d="M136.262 23.904H132.954L132.211 32.1919H131.138L134.153 0.436205H135.064L138.084 32.1919H137.016L136.262 23.904ZM133.269 20.458H135.953L134.608 5.60523L133.269 20.458Z" fill="white"/>
<path d="M144.548 32.1919H143.501V17.5136H139.521V32.1919H138.48V0.436205H139.521V14.0894H143.501V0.436205H144.548V32.1919Z" fill="white"/>
<path d="M150.708 0.436205H151.749V32.1919H150.708V7.72083L146.82 32.1919H145.774V0.436205H146.82V24.9073L150.708 0.436205Z" fill="white"/>
<path d="M157.112 32.1919V19.8255H155.29L153.658 32.1919H152.547L154.379 18.6696C153.36 17.0556 152.85 14.1694 152.85 10.0109C152.85 6.98655 153.096 4.63831 153.588 2.96619C154.083 1.27953 154.77 0.436205 155.648 0.436205H158.159V32.1919H157.112ZM153.891 10.0109C153.891 11.9302 154.04 13.4715 154.336 14.6347C154.636 15.7979 155.052 16.3868 155.583 16.4013H157.112V3.88222H155.632C155.068 3.88222 154.636 4.42021 154.336 5.49618C154.04 6.57216 153.891 8.07706 153.891 10.0109Z" fill="white"/>
<path d="M159.249 30.0763C159.249 29.3784 159.3 28.7968 159.401 28.3315C159.506 27.8662 159.661 27.6336 159.867 27.6336C160.073 27.6336 160.229 27.8662 160.334 28.3315C160.442 28.7968 160.496 29.3784 160.496 30.0763C160.496 30.7452 160.442 31.305 160.334 31.7557C160.229 32.2065 160.073 32.4318 159.867 32.4318C159.661 32.4318 159.506 32.2065 159.401 31.7557C159.3 31.305 159.249 30.7452 159.249 30.0763Z" fill="white"/>
<path d="M169.764 32.1919H168.718V3.88222H164.824V32.1919H163.783V0.436205H169.764V32.1919Z" fill="white"/>
<path d="M175.458 17.5136H172.037V28.7677H176.011V32.1919H170.996V0.436205H175.957V3.88222H172.037V14.0894H175.458V17.5136Z" fill="white"/>
<path d="M177.682 19.7601V32.1919H176.641V0.436205H179.552C180.416 0.436205 181.092 1.32316 181.58 3.09706C182.072 4.87096 182.318 7.21919 182.318 10.1418C182.318 13.2243 182.077 15.6016 181.597 17.2737C181.119 18.9313 180.434 19.7601 179.542 19.7601H177.682ZM177.682 16.3359H179.552C180.109 16.3359 180.536 15.8124 180.832 14.7655C181.128 13.7041 181.277 12.1774 181.277 10.1854C181.277 8.29517 181.128 6.78299 180.832 5.64885C180.536 4.51472 180.129 3.92585 179.612 3.88222H177.682V16.3359Z" fill="white"/>
<path d="M187.442 17.5136H184.021V28.7677H187.995V32.1919H182.98V0.436205H187.941V3.88222H184.021V14.0894H187.442V17.5136Z" fill="white"/>
<path d="M195.728 39.9782H194.693V32.1919H189.026V40H187.985L187.98 28.7677H188.625C188.965 27.2265 189.234 25.1618 189.433 22.5736C189.635 19.9709 189.762 17.121 189.813 14.024L189.986 0.436205H194.709V28.7677H195.739L195.728 39.9782ZM189.813 28.7677H193.662V3.88222H190.989L190.875 13.217C190.828 16.8666 190.707 19.9782 190.512 22.5518C190.32 25.1254 190.087 27.1974 189.813 28.7677Z" fill="white"/>
<path d="M204.427 32.1919H203.38V3.88222H199.487V32.1919H198.446V0.436205H204.427V32.1919Z" fill="white"/>
<path d="M206.699 19.7601V32.1919H205.658V0.436205H208.57C209.434 0.436205 210.11 1.32316 210.598 3.09706C211.089 4.87096 211.335 7.21919 211.335 10.1418C211.335 13.2243 211.095 15.6016 210.614 17.2737C210.137 18.9313 209.452 19.7601 208.559 19.7601H206.699ZM206.699 16.3359H208.57C209.127 16.3359 209.553 15.8124 209.849 14.7655C210.146 13.7041 210.294 12.1774 210.294 10.1854C210.294 8.29517 210.146 6.78299 209.849 5.64885C209.553 4.51472 209.146 3.92585 208.629 3.88222H206.699V16.3359Z" fill="white"/>
<path d="M216.975 0.436205H218.016V32.1919H216.975V7.72083L213.087 32.1919H212.041V0.436205H213.087V24.9073L216.975 0.436205Z" fill="white"/>
<path d="M220.592 0.436205L223.173 26.3468L225.754 0.436205H227.104V32.1919H226.063V19.8255L226.161 6.47764L223.569 32.1919H222.772L220.185 6.54308L220.288 19.8255V32.1919H219.247V0.436205H220.592Z" fill="white"/>
<path d="M232.739 17.5136H229.317V28.7677H233.292V32.1919H228.276V0.436205H233.237V3.88222H229.317V14.0894H232.739V17.5136Z" fill="white"/>
<path d="M239.989 32.1919H238.942V17.5136H234.962V32.1919H233.921V0.436205H234.962V14.0894H238.942V0.436205H239.989V32.1919Z" fill="white"/>
<path d="M245.634 17.5136H242.212V28.7677H246.187V32.1919H241.171V0.436205H246.133V3.88222H242.212V14.0894H245.634V17.5136Z" fill="white"/>
<path d="M252.884 32.1919H251.837V17.5136H247.858V32.1919H246.816V0.436205H247.858V14.0894H251.837V0.436205H252.884V32.1919Z" fill="white"/>
<path d="M259.044 0.436205H260.085V32.1919H259.044V7.72083L255.156 32.1919H254.11V0.436205H255.156V24.9073L259.044 0.436205Z" fill="white"/>
<path d="M265.779 17.5136H262.358V28.7677H266.332V32.1919H261.317V0.436205H266.278V3.88222H262.358V14.0894H265.779V17.5136Z" fill="white"/>
<path d="M268.307 0.436205L270.888 26.3468L273.469 0.436205H274.819V32.1919H273.778V19.8255L273.875 6.47764L271.283 32.1919H270.486L267.9 6.54308L268.003 19.8255V32.1919H266.962V0.436205H268.307Z" fill="white"/>
<path d="M284.146 32.1919H283.1V17.5136H279.12V32.1919H278.079V0.436205H279.12V14.0894H283.1V0.436205H284.146V32.1919Z" fill="white"/>
<path d="M289.791 17.5136H286.37V28.7677H290.344V32.1919H285.329V0.436205H290.29V3.88222H286.37V14.0894H289.791V17.5136Z" fill="white"/>
<path d="M297.047 17.3391C297.047 20.4507 296.917 23.1698 296.656 25.4962C296.396 27.8081 296.027 29.5747 295.55 30.7961C295.073 32.0174 294.516 32.6281 293.88 32.6281C293.259 32.6281 292.707 32.0174 292.226 30.7961C291.746 29.5602 291.372 27.8081 291.104 25.5398C290.84 23.257 290.705 20.618 290.697 17.6227V15.3326C290.697 12.2792 290.829 9.58197 291.093 7.241C291.357 4.90004 291.729 3.1116 292.21 1.87568C292.695 0.625227 293.248 0 293.869 0C294.502 0 295.059 0.617957 295.539 1.85387C296.024 3.07525 296.396 4.85642 296.656 7.19738C296.917 9.52381 297.047 12.2356 297.047 15.3326V17.3391ZM296.011 15.289C296.011 11.5231 295.823 8.63686 295.447 6.63032C295.071 4.60923 294.545 3.59869 293.869 3.59869C293.212 3.59869 292.693 4.60923 292.313 6.63032C291.937 8.63686 291.744 11.4286 291.733 15.0055V17.3391C291.733 20.9887 291.923 23.8604 292.302 25.9542C292.686 28.0334 293.212 29.0731 293.88 29.0731C294.553 29.0731 295.073 28.0916 295.442 26.1287C295.811 24.1512 296 21.3232 296.011 17.6445V15.289Z" fill="white"/>
<path d="M302.757 3.88222H298.951V13.3915H300.913C301.738 13.4351 302.381 14.2857 302.844 15.9433C303.306 17.6009 303.538 19.8546 303.538 22.7045C303.538 25.5689 303.305 27.8517 302.838 29.5529C302.372 31.2541 301.736 32.1338 300.93 32.1919H297.904V0.436205H302.757V3.88222ZM298.951 16.8375V28.7677H300.854C301.371 28.7677 301.772 28.2152 302.058 27.1101C302.347 26.0051 302.491 24.522 302.491 22.6609C302.491 20.8724 302.352 19.462 302.074 18.4297C301.799 17.3973 301.407 16.8666 300.897 16.8375H298.951Z" fill="white"/>
<path d="M306.781 12.6063L308.673 0.436205H309.899L307.404 16.1832L309.958 32.1919H308.722L306.781 19.8037L304.829 32.1919H303.598L306.157 16.1832L303.658 0.436205H304.878L306.781 12.6063Z" fill="white"/>
<path d="M316.433 17.3391C316.433 20.4507 316.303 23.1698 316.043 25.4962C315.782 27.8081 315.414 29.5747 314.937 30.7961C314.459 32.0174 313.903 32.6281 313.267 32.6281C312.645 32.6281 312.094 32.0174 311.613 30.7961C311.132 29.5602 310.758 27.8081 310.49 25.5398C310.226 23.257 310.091 20.618 310.084 17.6227V15.3326C310.084 12.2792 310.216 9.58197 310.479 7.241C310.743 4.90004 311.116 3.1116 311.596 1.87568C312.081 0.625227 312.634 0 313.256 0C313.888 0 314.445 0.617957 314.926 1.85387C315.41 3.07525 315.782 4.85642 316.043 7.19738C316.303 9.52381 316.433 12.2356 316.433 15.3326V17.3391ZM315.397 15.289C315.397 11.5231 315.209 8.63686 314.834 6.63032C314.458 4.60923 313.932 3.59869 313.256 3.59869C312.598 3.59869 312.079 4.60923 311.699 6.63032C311.324 8.63686 311.13 11.4286 311.119 15.0055V17.3391C311.119 20.9887 311.309 23.8604 311.689 25.9542C312.072 28.0334 312.598 29.0731 313.267 29.0731C313.939 29.0731 314.459 28.0916 314.828 26.1287C315.197 24.1512 315.387 21.3232 315.397 17.6445V15.289Z" fill="white"/>
<path d="M324.247 39.9782H323.211V32.1919H317.545V40H316.504L316.499 28.7677H317.144C317.484 27.2265 317.753 25.1618 317.952 22.5736C318.154 19.9709 318.281 17.121 318.332 14.024L318.505 0.436205H323.228V28.7677H324.258L324.247 39.9782ZM318.332 28.7677H322.181V3.88222H319.508L319.394 13.217C319.347 16.8666 319.226 19.9782 319.031 22.5518C318.839 25.1254 318.606 27.1974 318.332 28.7677Z" fill="white"/>
<path d="M329.806 0.436205H330.847V32.1919H329.806V7.72083L325.918 32.1919H324.871V0.436205H325.918V24.9073L329.806 0.436205Z" fill="white"/>
<path d="M333.423 0.436205L336.004 26.3468L338.585 0.436205H339.935V32.1919H338.894V19.8255L338.991 6.47764L336.4 32.1919H335.602L333.016 6.54308L333.119 19.8255V32.1919H332.078V0.436205H333.423Z" fill="white"/>
<path d="M347.18 17.3391C347.18 20.4507 347.049 23.1698 346.789 25.4962C346.529 27.8081 346.16 29.5747 345.683 30.7961C345.206 32.0174 344.649 32.6281 344.013 32.6281C343.391 32.6281 342.84 32.0174 342.359 30.7961C341.878 29.5602 341.504 27.8081 341.237 25.5398C340.973 23.257 340.837 20.618 340.83 17.6227V15.3326C340.83 12.2792 340.962 9.58197 341.226 7.241C341.49 4.90004 341.862 3.1116 342.343 1.87568C342.827 0.625227 343.38 0 344.002 0C344.635 0 345.191 0.617957 345.672 1.85387C346.157 3.07525 346.529 4.85642 346.789 7.19738C347.049 9.52381 347.18 12.2356 347.18 15.3326V17.3391ZM346.144 15.289C346.144 11.5231 345.956 8.63686 345.58 6.63032C345.204 4.60923 344.678 3.59869 344.002 3.59869C343.344 3.59869 342.826 4.60923 342.446 6.63032C342.07 8.63686 341.877 11.4286 341.866 15.0055V17.3391C341.866 20.9887 342.056 23.8604 342.435 25.9542C342.818 28.0334 343.344 29.0731 344.013 29.0731C344.685 29.0731 345.206 28.0916 345.575 26.1287C345.943 24.1512 346.133 21.3232 346.144 17.6445V15.289Z" fill="white"/>
<path d="M356.193 32.1919H355.146V3.88222H351.253V32.1919H350.212V0.436205H356.193V32.1919Z" fill="white"/>
<path d="M358.465 19.7601V32.1919H357.424V0.436205H360.336C361.2 0.436205 361.876 1.32316 362.364 3.09706C362.855 4.87096 363.101 7.21919 363.101 10.1418C363.101 13.2243 362.861 15.6016 362.38 17.2737C361.903 18.9313 361.218 19.7601 360.325 19.7601H358.465ZM358.465 16.3359H360.336C360.892 16.3359 361.319 15.8124 361.615 14.7655C361.912 13.7041 362.06 12.1774 362.06 10.1854C362.06 8.29517 361.912 6.78299 361.615 5.64885C361.319 4.51472 360.912 3.92585 360.395 3.88222H358.465V16.3359Z" fill="white"/>
<path d="M369.836 17.3391C369.836 20.4507 369.706 23.1698 369.446 25.4962C369.185 27.8081 368.817 29.5747 368.34 30.7961C367.862 32.0174 367.306 32.6281 366.669 32.6281C366.048 32.6281 365.496 32.0174 365.016 30.7961C364.535 29.5602 364.161 27.8081 363.893 25.5398C363.629 23.257 363.494 20.618 363.487 17.6227V15.3326C363.487 12.2792 363.619 9.58197 363.882 7.241C364.146 4.90004 364.519 3.1116 364.999 1.87568C365.484 0.625227 366.037 0 366.659 0C367.291 0 367.848 0.617957 368.329 1.85387C368.813 3.07525 369.185 4.85642 369.446 7.19738C369.706 9.52381 369.836 12.2356 369.836 15.3326V17.3391ZM368.8 15.289C368.8 11.5231 368.612 8.63686 368.236 6.63032C367.861 4.60923 367.335 3.59869 366.659 3.59869C366.001 3.59869 365.482 4.60923 365.102 6.63032C364.727 8.63686 364.533 11.4286 364.522 15.0055V17.3391C364.522 20.9887 364.712 23.8604 365.092 25.9542C365.475 28.0334 366.001 29.0731 366.669 29.0731C367.342 29.0731 367.862 28.0916 368.231 26.1287C368.6 24.1512 368.79 21.3232 368.8 17.6445V15.289Z" fill="white"/>
<path d="M372.781 17.928H371.821V32.1919H370.78V0.436205H371.821V14.4384H372.635L375.394 0.436205H376.69L373.676 15.8342L376.913 32.1919H375.638L372.781 17.928Z" fill="white"/>
<path d="M383.1 17.3391C383.1 20.4507 382.97 23.1698 382.71 25.4962C382.449 27.8081 382.081 29.5747 381.603 30.7961C381.126 32.0174 380.57 32.6281 379.933 32.6281C379.312 32.6281 378.76 32.0174 378.28 30.7961C377.799 29.5602 377.425 27.8081 377.157 25.5398C376.893 23.257 376.758 20.618 376.751 17.6227V15.3326C376.751 12.2792 376.883 9.58197 377.146 7.241C377.41 4.90004 377.783 3.1116 378.263 1.87568C378.748 0.625227 379.301 0 379.923 0C380.555 0 381.112 0.617957 381.593 1.85387C382.077 3.07525 382.449 4.85642 382.71 7.19738C382.97 9.52381 383.1 12.2356 383.1 15.3326V17.3391ZM382.064 15.289C382.064 11.5231 381.876 8.63686 381.5 6.63032C381.125 4.60923 380.599 3.59869 379.923 3.59869C379.265 3.59869 378.746 4.60923 378.366 6.63032C377.991 8.63686 377.797 11.4286 377.786 15.0055V17.3391C377.786 20.9887 377.976 23.8604 378.356 25.9542C378.739 28.0334 379.265 29.0731 379.933 29.0731C380.606 29.0731 381.126 28.0916 381.495 26.1287C381.864 24.1512 382.054 21.3232 382.064 17.6445V15.289Z" fill="white"/>
<path d="M390.063 32.1919H389.016V17.5136H385.036V32.1919H383.995V0.436205H385.036V14.0894H389.016V0.436205H390.063V32.1919Z" fill="white"/>
<path d="M397.053 22.1156C396.955 25.4744 396.646 28.0698 396.125 29.9019C395.609 31.7194 394.92 32.6281 394.06 32.6281C393.127 32.6281 392.379 31.2832 391.815 28.5932C391.255 25.9033 390.974 22.3046 390.974 17.7972V14.7437C390.974 11.7921 391.104 9.19666 391.365 6.95747C391.629 4.71828 392.001 3.00254 392.482 1.81025C392.962 0.603417 393.519 0 394.152 0C394.99 0 395.663 0.945111 396.169 2.83533C396.675 4.71101 396.97 7.3137 397.053 10.6434H396.006C395.916 8.11341 395.719 6.28135 395.415 5.14722C395.115 4.01309 394.694 3.44602 394.152 3.44602C393.487 3.44602 392.964 4.43475 392.585 6.41221C392.209 8.38968 392.021 11.2032 392.021 14.8528V17.928C392.021 21.374 392.2 24.1149 392.558 26.1505C392.915 28.1861 393.416 29.2039 394.06 29.2039C394.638 29.2039 395.081 28.6805 395.388 27.6336C395.699 26.5722 395.905 24.7328 396.006 22.1156H397.053Z" fill="white"/>
<path d="M400.523 18.8659L402.34 0.436205H403.549L400.757 26.892C400.569 28.5787 400.393 29.7783 400.231 30.4907C400.068 31.1887 399.876 31.7266 399.656 32.1047C399.439 32.4682 399.166 32.6499 398.837 32.6499C398.552 32.6499 398.369 32.5845 398.29 32.4537L398.322 29.1385L398.815 29.2257C399.195 29.2257 399.477 28.4915 399.661 27.0229L399.797 25.8888L400.003 23.9477L397.314 0.436205H398.479L400.523 18.8659Z" fill="white"/>
<path d="M409.807 0.436205V32.1919H408.766V3.88222H405.935L405.795 16.4667C405.74 20.6834 405.632 23.8531 405.469 25.976C405.31 28.0989 405.075 29.6619 404.764 30.6652C404.453 31.6539 404.038 32.1628 403.517 32.1919H403.176V28.7677L403.392 28.7241C403.729 28.6223 403.987 28.1861 404.168 27.4155C404.349 26.6303 404.486 25.3871 404.58 23.6859C404.674 21.9847 404.741 19.3675 404.781 15.8342L404.943 0.436205H409.807Z" fill="white"/>
<path d="M412.042 13.3915H414.004C414.829 13.4351 415.472 14.2857 415.935 15.9433C416.397 17.6009 416.629 19.8546 416.629 22.7045C416.629 25.5689 416.396 27.8517 415.929 29.5529C415.463 31.2541 414.827 32.1338 414.021 32.1919H411V0.436205H412.042V13.3915ZM412.042 16.8375V28.7677H413.945C414.462 28.7677 414.863 28.2152 415.148 27.1101C415.438 26.0051 415.582 24.522 415.582 22.6609C415.582 20.8724 415.443 19.462 415.165 18.4297C414.89 17.3973 414.498 16.8666 413.988 16.8375H412.042Z" fill="white"/>
<path d="M421.341 3.88222H418.804V32.1919H417.768V3.88222H415.236V0.436205H421.341V3.88222Z" fill="white"/>
<path d="M426.824 0.436205H427.865V32.1919H426.824V7.72083L422.936 32.1919H421.89V0.436205H422.936V24.9073L426.824 0.436205Z" fill="white"/>
<path d="M430.137 19.7601V32.1919H429.096V0.436205H432.008C432.872 0.436205 433.548 1.32316 434.036 3.09706C434.527 4.87096 434.773 7.21919 434.773 10.1418C434.773 13.2243 434.533 15.6016 434.052 17.2737C433.575 18.9313 432.89 19.7601 431.997 19.7601H430.137ZM430.137 16.3359H432.008C432.565 16.3359 432.991 15.8124 433.288 14.7655C433.584 13.7041 433.732 12.1774 433.732 10.1854C433.732 8.29517 433.584 6.78299 433.288 5.64885C432.991 4.51472 432.585 3.92585 432.068 3.88222H430.137V16.3359Z" fill="white"/>
<path d="M441.508 17.3391C441.508 20.4507 441.378 23.1698 441.118 25.4962C440.858 27.8081 440.489 29.5747 440.012 30.7961C439.535 32.0174 438.978 32.6281 438.342 32.6281C437.72 32.6281 437.169 32.0174 436.688 30.7961C436.207 29.5602 435.833 27.8081 435.566 25.5398C435.302 23.257 435.166 20.618 435.159 17.6227V15.3326C435.159 12.2792 435.291 9.58197 435.555 7.241C435.819 4.90004 436.191 3.1116 436.672 1.87568C437.156 0.625227 437.709 0 438.331 0C438.964 0 439.52 0.617957 440.001 1.85387C440.485 3.07525 440.858 4.85642 441.118 7.19738C441.378 9.52381 441.508 12.2356 441.508 15.3326V17.3391ZM440.473 15.289C440.473 11.5231 440.285 8.63686 439.909 6.63032C439.533 4.60923 439.007 3.59869 438.331 3.59869C437.673 3.59869 437.154 4.60923 436.775 6.63032C436.399 8.63686 436.205 11.4286 436.195 15.0055V17.3391C436.195 20.9887 436.384 23.8604 436.764 25.9542C437.147 28.0334 437.673 29.0731 438.342 29.0731C439.014 29.0731 439.535 28.0916 439.903 26.1287C440.272 24.1512 440.462 21.3232 440.473 17.6445V15.289Z" fill="white"/>
<path d="M442.404 32.1919V0.436205H444.985C445.841 0.436205 446.485 1.14867 446.915 2.57361C447.349 3.99855 447.566 6.10687 447.566 8.89858C447.566 10.3817 447.461 11.6976 447.251 12.8462C447.041 13.9804 446.756 14.8601 446.394 15.4853C446.821 15.9651 447.157 16.8811 447.403 18.2334C447.652 19.5711 447.777 21.1705 447.777 23.0316C447.777 25.8815 447.547 28.1207 447.088 29.7492C446.629 31.3777 445.98 32.1919 445.142 32.1919H442.404ZM443.445 17.3391V28.7677H445.164C445.648 28.7677 446.029 28.2661 446.308 27.2628C446.59 26.245 446.731 24.8491 446.731 23.0752C446.731 19.2512 446.214 17.3391 445.18 17.3391H443.445ZM443.445 13.9804H445.017C445.473 13.9804 445.836 13.5224 446.107 12.6063C446.382 11.6903 446.519 10.4471 446.519 8.87677C446.519 7.13195 446.393 5.86696 446.14 5.08179C445.886 4.28208 445.501 3.88222 444.985 3.88222H443.445V13.9804Z" fill="white"/>
<path d="M453.016 23.904H449.708L448.965 32.1919H447.892L450.906 0.436205H451.817L454.837 32.1919H453.769L453.016 23.904ZM450.022 20.458H452.706L451.362 5.60523L450.022 20.458Z" fill="white"/>
<path d="M459.984 3.88222H457.446V32.1919H456.41V3.88222H453.878V0.436205H459.984V3.88222Z" fill="white"/>
<path d="M461.584 13.3915H463.547C464.371 13.4351 465.014 14.2857 465.477 15.9433C465.94 17.6009 466.171 19.8546 466.171 22.7045C466.171 25.5689 465.938 27.8517 465.472 29.5529C465.005 31.2541 464.369 32.1338 463.563 32.1919H460.543V0.436205H461.584V13.3915ZM461.584 16.8375V28.7677H463.487C464.004 28.7677 464.405 28.2152 464.691 27.1101C464.98 26.0051 465.125 24.522 465.125 22.6609C465.125 20.8724 464.985 19.462 464.707 18.4297C464.432 17.3973 464.04 16.8666 463.53 16.8375H461.584Z" fill="white"/>
<path d="M472.689 22.1156C472.592 25.4744 472.283 28.0698 471.762 29.9019C471.245 31.7194 470.556 32.6281 469.696 32.6281C468.764 32.6281 468.015 31.2832 467.451 28.5932C466.891 25.9033 466.611 22.3046 466.611 17.7972V14.7437C466.611 11.7921 466.741 9.19666 467.001 6.95747C467.265 4.71828 467.638 3.00254 468.118 1.81025C468.599 0.603417 469.156 0 469.788 0C470.627 0 471.299 0.945111 471.805 2.83533C472.311 4.71101 472.606 7.3137 472.689 10.6434H471.643C471.552 8.11341 471.355 6.28135 471.052 5.14722C470.752 4.01309 470.331 3.44602 469.788 3.44602C469.123 3.44602 468.601 4.43475 468.221 6.41221C467.845 8.38968 467.657 11.2032 467.657 14.8528V17.928C467.657 21.374 467.836 24.1149 468.194 26.1505C468.552 28.1861 469.053 29.2039 469.696 29.2039C470.275 29.2039 470.717 28.6805 471.025 27.6336C471.335 26.5722 471.542 24.7328 471.643 22.1156H472.689Z" fill="white"/>
<path d="M477.581 32.1919V19.8255H475.759L474.127 32.1919H473.015L474.848 18.6696C473.828 17.0556 473.319 14.1694 473.319 10.0109C473.319 6.98655 473.565 4.63831 474.056 2.96619C474.551 1.27953 475.238 0.436205 476.117 0.436205H478.627V32.1919H477.581ZM474.36 10.0109C474.36 11.9302 474.508 13.4715 474.804 14.6347C475.104 15.7979 475.52 16.3868 476.052 16.4013H477.581V3.88222H476.1C475.536 3.88222 475.104 4.42021 474.804 5.49618C474.508 6.57216 474.36 8.07706 474.36 10.0109Z" fill="white"/>
<path d="M487.749 22.1156C487.651 25.4744 487.342 28.0698 486.821 29.9019C486.304 31.7194 485.616 32.6281 484.756 32.6281C483.823 32.6281 483.075 31.2832 482.511 28.5932C481.95 25.9033 481.67 22.3046 481.67 17.7972V14.7437C481.67 11.7921 481.8 9.19666 482.061 6.95747C482.325 4.71828 482.697 3.00254 483.178 1.81025C483.658 0.603417 484.215 0 484.848 0C485.686 0 486.359 0.945111 486.865 2.83533C487.371 4.71101 487.665 7.3137 487.749 10.6434H486.702C486.612 8.11341 486.415 6.28135 486.111 5.14722C485.811 4.01309 485.39 3.44602 484.848 3.44602C484.183 3.44602 483.66 4.43475 483.281 6.41221C482.905 8.38968 482.717 11.2032 482.717 14.8528V17.928C482.717 21.374 482.896 24.1149 483.254 26.1505C483.611 28.1861 484.112 29.2039 484.756 29.2039C485.334 29.2039 485.777 28.6805 486.084 27.6336C486.395 26.5722 486.601 24.7328 486.702 22.1156H487.749Z" fill="white"/>
<path d="M494.581 17.3391C494.581 20.4507 494.451 23.1698 494.191 25.4962C493.931 27.8081 493.562 29.5747 493.085 30.7961C492.607 32.0174 492.051 32.6281 491.415 32.6281C490.793 32.6281 490.242 32.0174 489.761 30.7961C489.28 29.5602 488.906 27.8081 488.638 25.5398C488.375 23.257 488.239 20.618 488.232 17.6227V15.3326C488.232 12.2792 488.364 9.58197 488.628 7.241C488.891 4.90004 489.264 3.1116 489.745 1.87568C490.229 0.625227 490.782 0 491.404 0C492.036 0 492.593 0.617957 493.074 1.85387C493.558 3.07525 493.931 4.85642 494.191 7.19738C494.451 9.52381 494.581 12.2356 494.581 15.3326V17.3391ZM493.546 15.289C493.546 11.5231 493.358 8.63686 492.982 6.63032C492.606 4.60923 492.08 3.59869 491.404 3.59869C490.746 3.59869 490.227 4.60923 489.848 6.63032C489.472 8.63686 489.278 11.4286 489.267 15.0055V17.3391C489.267 20.9887 489.457 23.8604 489.837 25.9542C490.22 28.0334 490.746 29.0731 491.415 29.0731C492.087 29.0731 492.607 28.0916 492.976 26.1287C493.345 24.1512 493.535 21.3232 493.546 17.6445V15.289Z" fill="white"/>
<path d="M503.372 22.1156C503.274 25.4744 502.965 28.0698 502.445 29.9019C501.928 31.7194 501.239 32.6281 500.379 32.6281C499.446 32.6281 498.698 31.2832 498.134 28.5932C497.574 25.9033 497.294 22.3046 497.294 17.7972V14.7437C497.294 11.7921 497.424 9.19666 497.684 6.95747C497.948 4.71828 498.32 3.00254 498.801 1.81025C499.282 0.603417 499.838 0 500.471 0C501.31 0 501.982 0.945111 502.488 2.83533C502.994 4.71101 503.289 7.3137 503.372 10.6434H502.325C502.235 8.11341 502.038 6.28135 501.734 5.14722C501.434 4.01309 501.013 3.44602 500.471 3.44602C499.806 3.44602 499.284 4.43475 498.904 6.41221C498.528 8.38968 498.34 11.2032 498.34 14.8528V17.928C498.34 21.374 498.519 24.1149 498.877 26.1505C499.235 28.1861 499.735 29.2039 500.379 29.2039C500.957 29.2039 501.4 28.6805 501.707 27.6336C502.018 26.5722 502.224 24.7328 502.325 22.1156H503.372Z" fill="white"/>
<path d="M510.161 32.1919H509.115V3.88222H505.221V32.1919H504.18V0.436205H510.161V32.1919Z" fill="white"/>
<path d="M515.855 17.5136H512.434V28.7677H516.408V32.1919H511.393V0.436205H516.354V3.88222H512.434V14.0894H515.855V17.5136Z" fill="white"/>
<path d="M517.07 0.436205H518.117V28.7677H522.01V0.436205H523.051V28.6805H523.881L523.783 39.8473H522.845V32.1919H517.07V0.436205Z" fill="white"/>
<path d="M529.471 0.436205H530.513V32.1919H529.471V7.72083L525.584 32.1919H524.537V0.436205H525.584V24.9073L529.471 0.436205Z" fill="white"/>
<path d="M536.201 23.904H532.893L532.151 32.1919H531.077L534.092 0.436205H535.003L538.023 32.1919H536.955L536.201 23.904ZM533.208 20.458H535.892L534.547 5.60523L533.208 20.458Z" fill="white"/>
<path d="M544.487 0.436205V32.1919H543.446V3.88222H540.615L540.474 16.4667C540.42 20.6834 540.312 23.8531 540.149 25.976C539.99 28.0989 539.755 29.6619 539.444 30.6652C539.133 31.6539 538.718 32.1628 538.197 32.1919H537.855V28.7677L538.072 28.7241C538.409 28.6223 538.667 28.1861 538.848 27.4155C539.029 26.6303 539.166 25.3871 539.26 23.6859C539.354 21.9847 539.421 19.3675 539.46 15.8342L539.623 0.436205H544.487Z" fill="white"/>
<path d="M550.69 0.436205H551.732V32.1919H550.69V7.72083L546.803 32.1919H545.756V0.436205H546.803V24.9073L550.69 0.436205Z" fill="white"/>
<path d="M558.77 22.1156C558.673 25.4744 558.364 28.0698 557.843 29.9019C557.326 31.7194 556.637 32.6281 555.777 32.6281C554.845 32.6281 554.096 31.2832 553.532 28.5932C552.972 25.9033 552.692 22.3046 552.692 17.7972V14.7437C552.692 11.7921 552.822 9.19666 553.082 6.95747C553.346 4.71828 553.719 3.00254 554.199 1.81025C554.68 0.603417 555.237 0 555.869 0C556.708 0 557.38 0.945111 557.886 2.83533C558.392 4.71101 558.687 7.3137 558.77 10.6434H557.724C557.633 8.11341 557.436 6.28135 557.133 5.14722C556.833 4.01309 556.412 3.44602 555.869 3.44602C555.204 3.44602 554.682 4.43475 554.302 6.41221C553.926 8.38968 553.738 11.2032 553.738 14.8528V17.928C553.738 21.374 553.917 24.1149 554.275 26.1505C554.633 28.1861 555.134 29.2039 555.777 29.2039C556.356 29.2039 556.798 28.6805 557.106 27.6336C557.416 26.5722 557.622 24.7328 557.724 22.1156H558.77Z" fill="white"/>
<path d="M564.822 3.88222H562.284V32.1919H561.249V3.88222H558.717V0.436205H564.822V3.88222Z" fill="white"/>
<path d="M571.248 17.3391C571.248 20.4507 571.118 23.1698 570.858 25.4962C570.597 27.8081 570.229 29.5747 569.751 30.7961C569.274 32.0174 568.718 32.6281 568.081 32.6281C567.46 32.6281 566.908 32.0174 566.428 30.7961C565.947 29.5602 565.573 27.8081 565.305 25.5398C565.041 23.257 564.906 20.618 564.899 17.6227V15.3326C564.899 12.2792 565.03 9.58197 565.294 7.241C565.558 4.90004 565.931 3.1116 566.411 1.87568C566.896 0.625227 567.449 0 568.07 0C568.703 0 569.26 0.617957 569.741 1.85387C570.225 3.07525 570.597 4.85642 570.858 7.19738C571.118 9.52381 571.248 12.2356 571.248 15.3326V17.3391ZM570.212 15.289C570.212 11.5231 570.024 8.63686 569.648 6.63032C569.272 4.60923 568.747 3.59869 568.07 3.59869C567.413 3.59869 566.894 4.60923 566.514 6.63032C566.138 8.63686 565.945 11.4286 565.934 15.0055V17.3391C565.934 20.9887 566.124 23.8604 566.504 25.9542C566.887 28.0334 567.413 29.0731 568.081 29.0731C568.754 29.0731 569.274 28.0916 569.643 26.1287C570.012 24.1512 570.201 21.3232 570.212 17.6445V15.289Z" fill="white"/>
<path d="M573.488 0.436205L576.069 26.3468L578.65 0.436205H580V32.1919H578.959V19.8255L579.057 6.47764L576.465 32.1919H575.668L573.081 6.54308L573.184 19.8255V32.1919H572.143V0.436205H573.488Z" fill="white"/>
</svg>
