<svg width="48" height="48" viewBox="0 0 48 48" fill="none" xmlns="http://www.w3.org/2000/svg">
<g clip-path="url(#clip0_113_3399)">
<path d="M11.265 36.7499L18.326 29.6899C18.5544 29.4644 18.6872 29.1596 18.697 28.8388C18.7069 28.518 18.5929 28.2057 18.3787 27.9666C18.1646 27.7275 17.8667 27.5799 17.5467 27.5545C17.2267 27.5291 16.9092 27.6277 16.66 27.8299L16.558 27.9209L7.366 37.1139C7.14832 37.3317 7.01865 37.6221 7.00186 37.9295C6.98507 38.237 7.08233 38.5398 7.275 38.7799L7.366 38.8809L16.558 48.0739C16.7835 48.3023 17.0883 48.4352 17.4091 48.445C17.73 48.4548 18.0423 48.3408 18.2813 48.1267C18.5204 47.9125 18.668 47.6146 18.6934 47.2946C18.7189 46.9747 18.6202 46.6572 18.418 46.4079L18.326 46.3059L11.27 39.2499L20.25 39.2499C23.504 39.2499 26.53 38.5299 29.154 37.1509L29.564 36.9279C32.2337 35.4368 34.4369 33.2336 35.928 30.5639C37.452 27.8479 38.25 24.6749 38.25 21.2499C38.25 20.9184 38.1183 20.6005 37.8839 20.366C37.6495 20.1316 37.3315 19.9999 37 19.9999C36.6685 19.9999 36.3505 20.1316 36.1161 20.366C35.8817 20.6005 35.75 20.9184 35.75 21.2499C35.75 24.2539 35.058 27.0049 33.747 29.3419C32.4811 31.6097 30.6098 33.481 28.342 34.7469C26.135 35.9849 23.559 36.6709 20.748 36.7439L20.25 36.7499L11.265 36.7499Z" fill="white"/>
<path d="M5.30311 4.09351V8.75214H5.34985L9.29177 4.09351H11.9249L7.37534 9.03259L12.2054 15H9.40083L5.34985 9.57792H5.30311V15H3.09065V4.09351H5.30311ZM13.2394 15.1246C12.9486 15.1246 12.637 15.0831 12.3046 15V13.2705C12.4396 13.3017 12.559 13.3225 12.6629 13.3329C12.7772 13.3433 12.8914 13.3484 13.0057 13.3484C13.1615 13.3484 13.3017 13.3277 13.4264 13.2861C13.5614 13.2342 13.6809 13.1355 13.7847 12.9901C13.899 12.8447 13.9977 12.6369 14.0808 12.3669C14.1639 12.0968 14.2314 11.7332 14.2833 11.2762C14.3456 10.8192 14.3924 10.2635 14.4235 9.60908C14.4547 8.9443 14.4703 8.14449 14.4703 7.20965V4.09351H21.6374V15H19.4249V6.02552H16.5425V7.20965C16.5425 8.91314 16.475 10.2842 16.34 11.323C16.2049 12.3617 15.9972 13.1615 15.7167 13.7224C15.4467 14.2833 15.1039 14.6572 14.6884 14.8442C14.2729 15.0312 13.7899 15.1246 13.2394 15.1246ZM26.0267 4.09351V9.70256L25.9799 12.3513H26.0267L26.8057 10.762L30.623 4.09351H33.2717V15H31.0592V9.37537L31.106 6.74223H31.0592L30.3114 8.39378L26.4629 15H23.8142V4.09351H26.0267ZM37.6665 4.09351V8.75214H37.7133L41.6552 4.09351H44.2883L39.7388 9.03259L44.5688 15H41.7643L37.7133 9.57792H37.6665V15H35.4541V4.09351H37.6665Z" fill="white"/>
</g>
<defs>
<clipPath id="clip0_113_3399">
<rect width="48" height="48" fill="white"/>
</clipPath>
</defs>
</svg>
