<svg width="335" height="69" viewBox="0 0 335 69" fill="none" xmlns="http://www.w3.org/2000/svg">
<path d="M263.941 5.26721L334.936 5.18621C334.936 5.18621 332.722 2.18722 327.285 3.15122C317.663 4.85722 317.401 -0.612786 308.809 0.0572141C304.292 0.410214 302.105 3.16322 296.609 3.28622C291.379 3.40222 290.813 1.41322 285.774 1.62222C281.772 1.78922 278.628 4.53422 276.129 3.90122C268.631 2.00422 269.915 5.05021 263.941 5.26721Z" fill="#ABC4F6"/>
<path d="M175.095 18.5892L83.4651 17.3962C83.4651 17.3962 90.6611 17.2202 95.9561 16.4562C102.106 15.5692 104.003 13.1732 116.035 13.1982C130.28 13.2282 132.133 16.5162 137.906 16.8932C144.829 17.3452 146.475 16.0422 154.403 16.3942C159.24 16.6082 165.735 18.3592 175.095 18.5892Z" fill="#ABC4F6"/>
<path d="M39.3611 63.5362L150.257 64.2272C150.257 64.2272 149.879 63.6132 145.595 63.5882C130.945 63.5012 132.703 61.1282 124.025 61.3742C119.464 61.5032 117.195 62.8912 111.651 62.8912C106.376 62.8912 105.474 61.2372 100.389 61.2872C96.3501 61.3282 93.5861 63.1032 90.9891 62.9742C88.3921 62.8442 85.8131 59.6142 77.3811 59.6012C68.1941 59.5882 67.0471 62.2672 63.3251 62.5412C58.8621 62.8702 57.6901 61.9072 52.5821 62.1092C49.4651 62.2322 45.3891 63.4932 39.3611 63.5362Z" fill="white"/>
<path d="M239.272 68.9482L309.516 68.5032C309.516 68.5032 303.995 68.1392 299.923 66.9332C295.196 65.5322 293.706 61.9582 284.481 61.8222C273.559 61.6612 272.185 66.5002 267.764 66.9742C262.461 67.5442 261.181 65.5922 255.108 65.9982C251.401 66.2442 246.445 68.7432 239.272 68.9482Z" fill="white"/>
<path d="M166.931 28.9572L0 30.1502C0 30.1502 0.569999 29.0922 7.016 29.0482C29.07 28.8972 26.423 24.8052 39.487 25.2282C46.354 25.4522 49.767 27.8472 58.114 27.8472C66.053 27.8472 67.41 24.9922 75.065 25.0802C81.145 25.1482 85.307 28.2122 89.215 27.9882C93.123 27.7652 97.006 22.1932 109.7 22.1712C123.53 22.1472 125.256 26.7692 130.858 27.2422C137.577 27.8092 139.34 26.1492 147.031 26.4962C151.722 26.7082 157.856 28.8842 166.931 28.9572Z" fill="white"/>
</svg>
