<svg width="221" height="193" viewBox="0 0 221 193" fill="none" xmlns="http://www.w3.org/2000/svg">
<g opacity="0.68">
<g opacity="0.68">
<path opacity="0.68" d="M211.071 99.4354C211.008 99.4134 210.946 99.3944 210.882 99.3724C209.995 97.6944 202.166 95.4074 191.784 91.5214C166.855 82.1884 131.389 62.1734 124.319 58.8874C121.954 57.7884 116.973 52.2404 111.391 45.3444L117.189 45.6064L125.159 48.9754C130.78 52.8584 141.226 59.0584 152.303 60.4494L152.3 60.4484L152.296 60.4464C152.747 60.5684 153.204 60.6884 153.669 60.8004C159.713 62.2664 163.526 61.7924 165.933 60.6414C167.125 60.0714 167.967 59.3344 168.569 58.5834C169.495 58.7704 170.279 58.7804 170.71 58.4864L171.882 57.6874C172.379 57.3484 172.409 56.6324 171.94 56.2574C168.787 53.7334 159.951 46.8234 156.377 43.4044C153.899 41.0344 154.304 40.5774 153.249 39.0024C150.073 34.2624 146.073 29.0004 133.545 24.8054C124.892 21.9094 116.965 15.9304 107.337 13.4534C97.5894 8.98937 87.0364 6.48638 76.2894 6.10338C74.1324 5.80438 71.5614 5.78238 68.5084 6.19638C68.5034 6.19638 68.4984 6.19638 68.4924 6.19738L68.4934 6.19838C64.8304 6.69638 60.4764 7.82137 55.3034 9.85837C29.0934 20.1784 10.1304 43.0624 23.6394 66.2694C37.1484 89.4774 54.8074 115.851 57.0544 129.446C61.4714 156.168 58.9694 165.014 67.1654 171.592C78.9714 181.07 90.9314 192.221 99.2514 190.028C102.235 189.241 106.564 188.891 110.967 188.579C118.837 188.021 126.939 187.587 128.01 185.002C128.26 184.398 128.258 183.606 128.035 182.7C126.765 177.562 114.797 174.401 102.76 174.262C102.76 174.262 96.9004 170.778 92.1464 167.949C88.3664 165.701 85.8084 161.879 85.1834 157.545L83.1764 143.634C85.4674 146.048 87.0644 147.882 87.0644 147.882C87.0644 147.882 100.678 158.374 109.127 161.832C117.575 165.289 132.076 166.619 141.621 167.942C151.655 169.333 160.486 172.562 169.731 171.837C170.911 171.745 173.468 171.703 174.684 171.683C185.432 171.497 187.58 172.386 184.949 166.333C184.623 165.584 184.318 164.924 184.032 164.341C182.011 160.216 181 160.002 181 160.002C181 160.002 191.727 160.463 198.287 162.755C204.848 165.047 214.277 166.449 217.797 162.821C219.109 161.469 219.248 156.475 212.561 153.357C211.423 150.466 205.942 147.945 199.014 145.383C197.221 144.663 192.496 142.611 186.589 139.979C183.848 138.757 160.063 125.92 160.056 125.916C143.139 115.145 127.226 107.665 126.37 102.583C126.089 101.545 126.073 99.8254 131.953 99.4914C132.539 99.2254 157.1 102.401 176.226 106.409C190.8 109.464 198.034 112.113 206.067 112.771C205.633 112.602 205.228 112.438 204.858 112.282C205.228 112.438 205.633 112.602 206.067 112.771C211.936 113.327 218.504 112.921 219.909 109.554C221.109 106.676 221.038 102.749 211.071 99.4354ZM129.751 46.8974C129.751 46.8974 129.758 46.9084 129.765 46.9164L129.751 46.8974ZM129.779 46.9344C129.794 46.9524 129.814 46.9774 129.841 47.0094C129.813 46.9764 129.795 46.9524 129.779 46.9344ZM129.852 47.0204C129.877 47.0494 129.907 47.0864 129.94 47.1254C129.907 47.0854 129.877 47.0514 129.852 47.0204ZM129.976 47.1674C130.017 47.2144 130.063 47.2674 130.116 47.3264C130.063 47.2684 130.018 47.2164 129.976 47.1674ZM130.151 47.3674C130.195 47.4174 130.244 47.4714 130.296 47.5284C130.244 47.4714 130.196 47.4164 130.151 47.3674ZM130.362 47.6014C130.426 47.6724 130.497 47.7484 130.572 47.8284C130.496 47.7484 130.426 47.6714 130.362 47.6014ZM130.641 47.9024C130.703 47.9684 130.769 48.0374 130.838 48.1084C130.768 48.0374 130.704 47.9684 130.641 47.9024ZM130.929 48.2044C131.018 48.2964 131.113 48.3924 131.212 48.4924C131.112 48.3924 131.019 48.2954 130.929 48.2044ZM131.318 48.5984C131.397 48.6774 131.478 48.7574 131.563 48.8404C131.478 48.7574 131.397 48.6774 131.318 48.5984ZM139.978 55.2404C139.718 55.0854 139.465 54.9314 139.214 54.7754C139.465 54.9314 139.72 55.0864 139.981 55.2414L139.978 55.2404ZM131.683 48.9584C131.796 49.0674 131.914 49.1804 132.037 49.2964C131.914 49.1804 131.796 49.0664 131.683 48.9584ZM132.177 49.4284C132.275 49.5184 132.375 49.6114 132.477 49.7044C132.375 49.6104 132.275 49.5184 132.177 49.4284ZM132.619 49.8344C132.756 49.9584 132.9 50.0864 133.046 50.2154C132.899 50.0864 132.756 49.9584 132.619 49.8344ZM133.218 50.3674C133.338 50.4704 133.46 50.5754 133.585 50.6824C133.46 50.5754 133.338 50.4704 133.218 50.3674ZM133.739 50.8134C133.901 50.9494 134.069 51.0884 134.241 51.2294C134.069 51.0884 133.901 50.9504 133.739 50.8134ZM134.445 51.3954C134.589 51.5114 134.737 51.6304 134.888 51.7494C134.737 51.6294 134.589 51.5124 134.445 51.3954ZM135.066 51.8904C135.247 52.0304 135.432 52.1724 135.622 52.3154C135.432 52.1714 135.247 52.0304 135.066 51.8904ZM135.852 52.4884C136.032 52.6224 136.215 52.7574 136.403 52.8934C136.215 52.7574 136.032 52.6224 135.852 52.4884ZM136.604 53.0374C136.796 53.1744 136.993 53.3134 137.193 53.4514C136.993 53.3124 136.796 53.1744 136.604 53.0374ZM137.441 53.6214C137.671 53.7784 137.904 53.9364 138.144 54.0944C137.904 53.9364 137.671 53.7784 137.441 53.6214ZM138.32 54.2074C138.525 54.3404 138.735 54.4744 138.948 54.6084C138.735 54.4744 138.525 54.3404 138.32 54.2074ZM155.881 126.106C154.009 125.033 152.711 124.162 152.207 123.6C153.457 124.495 154.676 125.326 155.881 126.106ZM200.484 101.814C200.414 101.967 200.338 102.118 200.278 102.284C200.339 102.118 200.41 101.962 200.484 101.814Z" fill="#606060"/>
</g>
</g>
<path d="M188.814 104.031C188.306 105.265 186.932 105.991 185.746 105.652C184.558 105.313 184.008 104.038 184.517 102.801C185.026 101.565 186.4 100.839 187.586 101.18C188.773 101.52 189.323 102.797 188.814 104.031Z" fill="#1D1A5C"/>
<path d="M153.719 52.3604C152.198 53.4034 150.004 53.3524 148.535 52.2194C146.467 50.6234 143.761 48.1104 142.518 45.1404C140.364 39.9894 142.393 39.1744 142.393 39.1744C139.822 36.7004 140.242 36.2234 139.148 34.5794C135.852 29.6304 131.7 24.1364 118.699 19.7574C105.698 15.3794 94.2804 4.25138 76.7854 7.24838C74.7984 7.58838 72.9624 7.87639 71.2444 8.12539C78.0854 8.95039 85.6124 10.2294 90.2984 12.1554C100.664 16.4144 119.802 21.3234 127.138 27.7194C132.957 32.7914 143.237 49.3604 152.31 57.1694C156.398 55.2024 156.574 51.3394 156.574 51.3394C156.574 51.3394 156.354 51.1544 155.962 50.8224L153.719 52.3604Z" fill="#F5BD98"/>
<path d="M73.3534 40.1874C84.4084 39.4254 90.7564 36.1764 90.7564 36.1764C96.2624 39.4574 114.761 42.8214 114.761 42.8214C114.761 42.8214 123.045 53.3024 139.582 57.3364C145.854 58.8654 149.812 58.3714 152.309 57.1694C143.236 49.3604 132.957 32.7914 127.137 27.7194C119.801 21.3234 100.664 16.4144 90.2974 12.1554C85.6114 10.2294 78.0844 8.95037 71.2444 8.12537C57.8384 10.0684 51.6544 9.60036 37.4804 12.5404C36.6474 12.7134 35.8254 12.9024 35.0134 13.1034" fill="#D39B76"/>
<path d="M142.517 45.1404C143.76 48.1104 146.466 50.6244 148.535 52.2194C150.003 53.3524 155.745 55.9634 157.267 54.9204L158.484 54.0854C158.998 53.7324 159.03 52.9844 158.543 52.5934C155.271 49.9574 146.101 42.7444 142.392 39.1744C142.392 39.1744 140.363 39.9894 142.517 45.1404Z" fill="#FF71DD"/>
<path d="M138.164 56.9684L125.377 51.5304C118.304 47.3014 114.763 42.8224 114.763 42.8224C114.763 42.8224 96.2635 39.4574 90.7575 36.1764C90.7575 36.1764 90.5145 36.3004 90.0435 36.5054C88.0995 37.3504 82.2515 39.5744 73.3535 40.1874L101.726 41.4734L109.998 44.9904C115.831 49.0454 126.672 55.5174 138.167 56.9694L138.164 56.9684Z" fill="#AF7A5D"/>
<path d="M184.125 152.114C187.789 147.778 196.691 151.812 200.698 153.965C199.517 150.948 193.828 148.315 186.639 145.641C184.778 144.889 179.874 142.746 173.745 139.998C158.229 134.135 140.35 125.461 138.064 122.896C135.177 119.658 120.989 112.86 108.164 104.162C95.3394 95.4644 117.045 97.7294 117.045 97.7294C117.653 97.4524 143.143 100.767 162.99 104.953C178.114 108.141 185.621 110.908 193.957 111.595C193.358 111.36 192.809 111.133 192.332 110.924C187.587 108.833 185.73 106.702 187.951 100.644C189.544 96.2994 195.604 97.4054 198.985 97.6574C198.199 95.9024 190.018 93.5074 179.136 89.4084C153.266 79.6654 116.461 58.7704 109.124 55.3394C101.786 51.9084 70.1804 6.97237 70.1804 6.97237C70.1804 6.97237 64.7024 -6.62162 37.5034 4.15337C10.3044 14.9274 -9.37559 38.8174 4.64441 63.0464C18.6624 87.2744 36.9874 114.808 39.3194 129.001C43.9034 156.9 41.3074 166.135 49.8124 173.003C62.0634 182.897 74.4764 194.539 83.1084 192.249C86.2064 191.427 90.6994 191.061 95.2684 190.736C93.7574 188.181 93.0354 184.925 98.5554 184.287C104.201 183.633 109.474 183.879 112.979 184.598C111.662 179.235 99.2434 175.935 86.7514 175.789C86.7514 175.789 87.4114 177.838 72.5374 172.125C57.6634 166.411 66.8594 156.336 63.6764 148.462C60.4914 140.589 53.5534 132.537 53.5534 132.537C59.6244 135.72 70.4634 148.249 70.4634 148.249C70.4634 148.249 84.5904 159.202 93.3574 162.812C102.126 166.422 117.174 167.811 127.078 169.191C137.492 170.643 146.656 174.014 156.251 173.258H156.25C148.107 171.216 150.086 170.366 153.222 166.736C155.578 164.007 166.038 164.846 171.092 165.432C168.995 161.125 167.944 160.903 167.944 160.903C167.944 160.903 166.355 161.069 156.626 160.46C146.896 159.85 126.224 152.613 111.7 147.044C97.1774 141.475 97.9544 136.6 89.1984 129.167C80.4424 121.733 61.9344 118.489 61.9344 118.489C78.8854 118.495 99.2944 129.357 109.575 138.923C119.856 148.488 130.026 150.351 143.862 154.27C157.698 158.188 167.944 160.904 167.944 160.904C167.944 160.904 179.077 161.385 185.885 163.778C182.433 161.535 179.324 157.793 184.125 152.114Z" fill="#F5BD98"/>
<path d="M109.576 138.921C99.2953 129.357 78.8863 118.493 61.9343 118.487C61.9343 118.487 80.4433 121.732 89.1993 129.165C97.9553 136.598 97.1783 141.473 111.701 147.042C126.224 152.611 146.897 159.848 156.627 160.458C166.356 161.067 167.945 160.901 167.945 160.901C167.945 160.901 157.699 158.185 143.863 154.266C130.027 150.349 119.857 148.487 109.576 138.921Z" fill="#D39B76"/>
<path d="M63.6774 148.461C66.8614 156.335 57.6644 166.41 72.5384 172.124C87.4124 177.837 86.7524 175.788 86.7524 175.788C86.7524 175.788 80.6714 172.149 75.7384 169.198C71.8154 166.851 69.1604 162.86 68.5114 158.336L66.3294 143.119C66.3294 143.119 59.6254 135.719 53.5544 132.536C53.5534 132.537 60.4914 140.588 63.6774 148.461Z" fill="#D39B76"/>
<path d="M108.165 104.161C120.99 112.859 134.545 120.359 138.065 122.897C149.274 130.979 158.23 134.134 173.746 139.998C170.901 138.724 146.218 125.321 146.21 125.317C128.655 114.072 112.141 106.263 111.252 100.957C110.962 99.8754 110.944 98.0794 117.046 97.7304C117.046 97.7304 95.3405 95.4634 108.165 104.161Z" fill="#D39B76"/>
<path d="M153.222 166.735C150.086 170.366 148.108 171.215 156.25 173.257C156.25 173.256 156.251 173.257 156.251 173.257C157.475 173.16 160.13 173.116 161.392 173.094C172.545 172.902 174.773 173.829 172.043 167.51C171.705 166.728 171.388 166.039 171.092 165.431C166.038 164.845 155.578 164.005 153.222 166.735Z" fill="#FF71DD"/>
<path d="M184.125 152.114C179.325 157.794 182.434 161.535 185.886 163.776C192.693 166.169 202.479 167.632 206.133 163.844C207.493 162.434 207.639 157.219 200.698 153.964C196.691 151.812 187.789 147.778 184.125 152.114Z" fill="#FF71DD"/>
<path d="M187.952 100.643C185.731 106.701 187.588 108.832 192.333 110.923C192.809 111.133 193.359 111.359 193.958 111.594C200.049 112.174 206.864 111.751 208.322 108.236C209.569 105.23 209.495 101.13 199.152 97.6694C194.261 95.9154 189.545 96.2984 187.952 100.643Z" fill="#FF71DD"/>
<path d="M95.2683 190.736C103.435 190.154 111.843 189.701 112.955 187.002C113.214 186.371 113.212 185.544 112.98 184.598C109.474 183.879 104.202 183.633 98.5553 184.287C93.0363 184.925 93.7573 188.181 95.2683 190.736Z" fill="#FF71DD"/>
<path d="M107.649 17.2734C107.649 17.2734 74.7344 14.5334 92.7114 37.4244C110.688 60.3154 68.9944 58.5034 68.9944 58.5034C68.9944 58.5034 50.2874 15.9394 51.6834 14.8734C53.0794 13.8074 51.1904 0.330386 51.1904 0.330386C68.9064 -0.738614 86.5074 3.81639 101.48 13.3464L107.649 17.2734Z" fill="#F5BD98"/>
</svg>
