<svg width="425" height="411" viewBox="0 0 425 411" fill="none" xmlns="http://www.w3.org/2000/svg">
<g opacity="0.68">
<g opacity="0.68">
<path opacity="0.68" d="M385.846 215.138C385.779 215.137 385.714 215.139 385.647 215.139C384.263 213.84 376.116 214.218 365.035 213.911C338.426 213.174 298.384 205.752 290.63 204.938C288.037 204.666 281.525 201.035 274.007 196.323L279.576 194.69L288.208 195.29C294.785 197.138 306.678 199.613 317.607 197.334L317.603 197.334L317.599 197.333C318.065 197.302 318.536 197.267 319.013 197.222C325.205 196.648 328.658 194.962 330.561 193.092C331.504 192.166 332.061 191.196 332.387 190.29C333.323 190.166 334.068 189.921 334.38 189.503L335.23 188.367C335.59 187.885 335.386 187.198 334.82 186.996C331.019 185.632 320.419 181.963 315.928 179.889C312.815 178.452 313.05 177.888 311.541 176.741C306.999 173.288 301.508 169.609 288.296 169.706C279.172 169.775 269.733 166.693 259.823 167.474C249.154 166.415 238.36 167.473 228.07 170.598C225.933 171.015 223.494 171.829 220.74 173.211C220.736 173.213 220.731 173.214 220.725 173.217L220.727 173.218C217.424 174.878 213.67 177.355 209.438 180.96C187.996 199.228 177.486 227.027 197.795 244.594C218.105 262.162 243.367 281.378 249.905 293.508C262.755 317.35 263.259 326.529 273.146 330.091C287.389 335.225 302.32 341.891 309.478 337.116C312.046 335.403 316.027 333.668 320.09 331.944C327.353 328.862 334.876 325.822 335.05 323.029C335.09 322.377 334.831 321.628 334.326 320.844C331.458 316.396 319.112 317.29 307.681 321.065C307.681 321.065 301.007 319.671 295.593 318.538C291.288 317.638 287.628 314.854 285.63 310.957L279.217 298.45C282.168 299.99 284.273 301.206 284.273 301.206C284.273 301.206 300.555 306.712 309.669 307.241C318.782 307.77 332.93 304.322 342.388 302.475C352.33 300.535 361.731 300.723 370.24 297.037C371.326 296.567 373.731 295.697 374.875 295.284C384.981 291.62 387.301 291.764 382.848 286.892C382.297 286.289 381.794 285.764 381.334 285.306C378.084 282.06 377.058 282.185 377.058 282.185C377.058 282.185 387.354 279.14 394.303 279.179C401.253 279.218 410.627 277.484 412.779 272.91C413.581 271.205 412.092 266.437 404.755 265.658C402.74 263.292 396.738 262.687 389.353 262.512C387.423 262.412 382.288 262.005 375.847 261.432C372.858 261.166 346.194 256.743 346.186 256.741C326.689 252.043 309.21 250.132 306.751 245.603C306.148 244.713 305.575 243.091 311.028 240.867C311.496 240.425 335.759 235.458 355.15 233.042C369.927 231.202 377.629 231.36 385.441 229.376C384.975 229.357 384.539 229.333 384.138 229.306C384.539 229.333 384.975 229.357 385.441 229.376C391.173 227.997 397.253 225.481 397.49 221.841C397.691 218.729 396.349 215.038 385.846 215.138ZM291.877 191.834C291.877 191.834 291.887 191.842 291.897 191.847L291.877 191.834ZM291.916 191.86C291.936 191.872 291.963 191.889 291.999 191.911C291.961 191.889 291.937 191.872 291.916 191.86ZM292.013 191.918C292.046 191.937 292.086 191.962 292.13 191.988C292.086 191.961 292.046 191.939 292.013 191.918ZM292.178 192.016C292.232 192.048 292.292 192.083 292.362 192.121C292.293 192.084 292.233 192.049 292.178 192.016ZM292.408 192.149C292.466 192.182 292.53 192.217 292.597 192.254C292.53 192.217 292.467 192.181 292.408 192.149ZM292.684 192.302C292.767 192.348 292.859 192.397 292.956 192.448C292.858 192.397 292.767 192.347 292.684 192.302ZM293.045 192.496C293.125 192.538 293.21 192.582 293.298 192.627C293.209 192.582 293.126 192.538 293.045 192.496ZM293.416 192.688C293.53 192.746 293.651 192.806 293.777 192.869C293.65 192.806 293.53 192.745 293.416 192.688ZM293.911 192.934C294.012 192.984 294.114 193.033 294.222 193.084C294.114 193.033 294.012 192.984 293.911 192.934ZM304.258 196.406C303.962 196.344 303.673 196.281 303.385 196.215C303.673 196.281 303.964 196.345 304.261 196.406L304.258 196.406ZM294.373 193.156C294.516 193.223 294.664 193.292 294.818 193.361C294.664 193.292 294.515 193.222 294.373 193.156ZM294.993 193.441C295.115 193.494 295.24 193.55 295.367 193.604C295.24 193.549 295.115 193.494 294.993 193.441ZM295.543 193.681C295.713 193.754 295.891 193.828 296.071 193.903C295.89 193.829 295.713 193.754 295.543 193.681ZM296.283 193.991C296.43 194.05 296.579 194.109 296.732 194.17C296.579 194.109 296.43 194.05 296.283 193.991ZM296.92 194.244C297.118 194.32 297.322 194.397 297.53 194.474C297.322 194.397 297.118 194.321 296.92 194.244ZM297.777 194.565C297.951 194.628 298.129 194.693 298.311 194.756C298.129 194.692 297.951 194.629 297.777 194.565ZM298.525 194.832C298.742 194.906 298.963 194.98 299.189 195.053C298.962 194.979 298.742 194.906 298.525 194.832ZM299.462 195.142C299.676 195.211 299.893 195.279 300.115 195.347C299.893 195.279 299.676 195.211 299.462 195.142ZM300.352 195.418C300.578 195.485 300.809 195.553 301.043 195.618C300.809 195.552 300.578 195.485 300.352 195.418ZM301.333 195.698C301.602 195.772 301.873 195.846 302.152 195.918C301.873 195.846 301.602 195.772 301.333 195.698ZM302.355 195.967C302.592 196.027 302.834 196.085 303.079 196.143C302.834 196.085 302.592 196.027 302.355 195.967ZM342.299 258.276C340.18 257.868 338.669 257.466 338.01 257.098C339.483 257.539 340.906 257.929 342.299 258.276ZM376.604 220.824C376.587 220.991 376.565 221.159 376.562 221.335C376.566 221.158 376.582 220.988 376.604 220.824Z" fill="#606060"/>
</g>
</g>
<path d="M366.285 226.708C366.205 228.04 365.141 229.173 363.909 229.237C362.676 229.302 361.742 228.274 361.822 226.939C361.902 225.605 362.966 224.472 364.199 224.41C365.432 224.346 366.366 225.375 366.285 226.708Z" fill="#1D1A5C"/>
<path d="M316.321 189.223C315.221 190.703 313.129 191.367 311.372 190.772C308.898 189.933 305.523 188.435 303.383 186.029C299.674 181.856 301.329 180.426 301.329 180.426C298.094 178.921 298.337 178.333 296.768 177.133C292.045 173.522 286.334 169.672 272.616 169.75C258.898 169.828 244.486 163.008 228.911 171.52C227.142 172.487 225.499 173.355 223.954 174.148C230.693 172.708 238.228 171.475 243.285 171.776C254.472 172.441 274.167 170.873 283.182 174.542C290.332 177.451 305.433 189.787 316.549 194.229C319.777 191.042 318.69 187.331 318.69 187.331C318.69 187.331 318.422 187.227 317.944 187.04L316.321 189.223Z" fill="#F5BD98"/>
<path d="M236.354 203.79C246.563 199.482 251.513 194.348 251.513 194.348C257.786 195.665 276.376 192.843 276.376 192.843C276.376 192.843 287.613 200.069 304.564 198.518C310.993 197.928 314.576 196.177 316.548 194.229C305.432 189.787 290.332 177.451 283.181 174.542C274.166 170.873 254.472 172.441 243.284 171.777C238.226 171.476 230.692 172.708 223.954 174.148C211.904 180.336 205.903 181.901 193.45 189.281C192.719 189.715 192.002 190.161 191.3 190.615" fill="#D39B76"/>
<path d="M303.382 186.029C305.522 188.435 308.897 189.935 311.372 190.772C313.128 191.367 319.407 191.973 320.508 190.493L321.388 189.308C321.759 188.807 321.547 188.09 320.959 187.878C317.009 186.446 305.995 182.6 301.328 180.427C301.328 180.427 299.673 181.856 303.382 186.029Z" fill="#FF71DD"/>
<path d="M303.103 198.63L289.243 197.636C281.18 195.931 276.377 192.844 276.377 192.844C276.377 192.844 257.788 195.664 251.515 194.348C251.515 194.348 251.325 194.544 250.946 194.891C249.382 196.321 244.572 200.322 236.354 203.79L263.608 195.799L272.574 196.441C279.407 198.383 291.762 200.987 303.106 198.63L303.103 198.63Z" fill="#AF7A5D"/>
<path d="M377.454 273.71C379.513 268.419 389.242 269.346 393.731 270.082C391.635 267.612 385.399 266.967 377.731 266.771C375.727 266.664 370.393 266.228 363.704 265.618C347.125 265.108 327.399 262.706 324.404 261.022C320.623 258.896 304.997 257.07 290.043 253.005C275.089 248.94 296.356 244.038 296.356 244.038C296.841 243.579 322.027 238.442 342.158 235.961C357.498 234.068 365.497 234.249 373.605 232.193C372.962 232.166 372.369 232.129 371.85 232.086C366.683 231.648 364.235 230.235 364.37 223.784C364.466 219.157 370.557 218.237 373.837 217.378C372.524 215.973 364.009 216.363 352.385 216.017C324.754 215.197 283.16 207.377 275.106 206.513C267.052 205.649 217.005 170.066 217.005 170.066C217.005 170.066 203.303 176.353 190.302 172.356C163.691 167.208 83.5018 93.9991 56.0019 93.9991C14.4349 100.417 4.72754 113.5 9.8847 136.459C14.4994 157 170.668 240.655 178.782 247.71C199.904 266.077 226.173 286.174 232.985 298.842C246.375 323.743 246.916 333.321 257.19 337.057C271.989 342.44 287.508 349.423 294.93 344.456C297.594 342.673 301.725 340.868 305.941 339.078C303.682 337.152 301.943 334.306 306.957 331.912C312.085 329.461 317.153 327.982 320.701 327.525C317.715 322.879 304.897 323.788 293.034 327.704C293.034 327.704 294.323 329.428 278.4 328.851C262.477 328.274 267.905 315.76 262.339 309.345C256.772 302.932 247.596 297.567 247.596 297.567C254.371 298.608 268.69 306.941 268.69 306.941C268.69 306.941 285.607 312.716 295.071 313.286C304.537 313.854 319.221 310.285 329.037 308.376C339.359 306.37 349.121 306.584 357.951 302.755C349.586 303.467 351.181 302.02 352.969 297.569C354.312 294.223 364.478 291.622 369.449 290.536C366.068 287.143 365.001 287.274 365.001 287.274C365.001 287.274 363.552 287.947 354.152 290.528C344.751 293.109 322.849 292.972 307.304 292.418C291.76 291.864 290.913 287.001 280.218 282.812C269.524 278.622 250.965 281.56 250.965 281.56C267 276.064 289.83 279.715 302.659 285.427C315.487 291.137 325.711 289.599 340.07 288.816C354.429 288.031 365.002 287.275 365.002 287.275C365.002 287.275 375.688 284.117 382.904 284.171C378.911 283.17 374.756 280.639 377.454 273.71Z" fill="#F5BD98"/>
<path d="M302.659 285.425C289.83 279.715 267 276.062 250.964 281.558C250.964 281.558 269.524 278.62 280.218 282.81C290.913 286.999 291.76 291.862 307.304 292.416C322.848 292.971 344.751 293.107 354.152 290.526C363.553 287.945 365.002 287.272 365.002 287.272C365.002 287.272 354.429 288.029 340.07 288.812C325.712 289.597 315.488 291.136 302.659 285.425Z" fill="#D39B76"/>
<path d="M262.34 309.344C267.907 315.758 262.477 328.273 278.401 328.85C294.324 329.427 293.034 327.703 293.034 327.703C293.034 327.703 286.102 326.235 280.478 325.044C276.006 324.097 272.199 321.184 270.117 317.116L263.115 303.43C263.115 303.43 254.372 298.607 247.597 297.566C247.596 297.567 256.771 302.931 262.34 309.344Z" fill="#D39B76"/>
<path d="M290.044 253.004C304.997 257.069 320.253 259.764 324.406 261.022C337.631 265.029 347.126 265.107 363.705 265.618C360.601 265.336 332.904 260.669 332.895 260.668C312.641 255.729 294.487 253.702 291.924 248.971C291.299 248.042 290.699 246.349 296.357 244.039C296.357 244.039 275.09 248.939 290.044 253.004Z" fill="#D39B76"/>
<path d="M352.969 297.568C351.181 302.02 349.586 303.465 357.95 302.755C357.95 302.754 357.951 302.754 357.951 302.754C359.077 302.265 361.574 301.362 362.761 300.932C373.248 297.131 375.656 297.284 371.023 292.193C370.449 291.563 369.926 291.014 369.449 290.535C364.478 291.621 354.312 294.221 352.969 297.568Z" fill="#FF71DD"/>
<path d="M377.454 273.71C374.757 280.64 378.912 283.17 382.905 284.169C390.12 284.223 399.851 282.431 402.078 277.663C402.907 275.888 401.352 270.907 393.731 270.081C389.242 269.346 379.513 268.419 377.454 273.71Z" fill="#FF71DD"/>
<path d="M364.37 223.783C364.235 230.234 366.683 231.647 371.85 232.085C372.369 232.129 372.962 232.164 373.605 232.192C379.554 230.764 385.863 228.152 386.102 224.354C386.306 221.106 384.905 217.252 373.999 217.335C368.803 217.263 364.467 219.156 364.37 223.783Z" fill="#FF71DD"/>
<path d="M305.941 339.078C313.477 335.877 321.283 332.72 321.459 329.806C321.499 329.125 321.229 328.344 320.702 327.524C317.153 327.982 312.086 329.46 306.957 331.912C301.944 334.306 303.683 337.152 305.941 339.078Z" fill="#FF71DD"/>
<path d="M261.358 170.986C261.358 170.986 229.335 179.076 253.768 194.894C278.201 210.712 238.175 222.529 238.175 222.529C238.175 222.529 206.667 188.34 207.642 186.879C208.616 185.418 202.456 173.283 202.456 173.283C218.866 166.522 236.993 165.119 254.248 169.274L261.358 170.986Z" fill="#F5BD98"/>
</svg>
