<svg width="36" height="39" viewBox="0 0 36 39" fill="none" xmlns="http://www.w3.org/2000/svg">
<path d="M34.2784 14.401C34.6164 14.491 34.9624 14.291 35.0524 13.953L35.0644 13.909C35.1084 13.747 35.0844 13.574 35.0004 13.43C34.9164 13.284 34.7784 13.178 34.6154 13.136L31.5334 12.315L33.8054 11.004C34.2884 10.724 34.4544 10.107 34.1764 9.62101L34.1444 9.56699L34.1454 9.56602L34.1174 9.51801C33.9844 9.28401 33.7624 9.11401 33.5024 9.04301C33.2424 8.97401 32.9654 9.011 32.7334 9.145L30.4604 10.462L31.2824 7.378C31.3254 7.215 31.3024 7.04 31.2174 6.896C31.1324 6.75 30.9934 6.644 30.8304 6.602L30.7904 6.59202C30.4534 6.50302 30.1084 6.70402 30.0184 7.04002L28.8584 11.393L27.1304 12.386L28.5024 7.245C28.5634 7.016 28.5314 6.77502 28.4124 6.57102C28.2944 6.36602 28.1004 6.218 27.8724 6.159L27.7574 6.129C27.2844 6.003 26.7994 6.283 26.6724 6.757L24.8084 13.731L23.5684 14.452L24.3884 11.368C24.4324 11.205 24.4094 11.033 24.3254 10.888C24.2404 10.742 24.1014 10.638 23.9394 10.594C23.5794 10.498 23.2104 10.713 23.1154 11.072L21.9614 15.381L20.6174 16.158L21.0884 14.396C21.1664 14.1 21.0374 13.789 20.7724 13.636L20.7434 13.618C20.4624 13.457 20.1104 13.506 19.8824 13.733L18.6174 15.001L18.6124 13.452L21.7964 10.258C21.9144 10.141 21.9794 9.98102 21.9794 9.81602C21.9784 9.65002 21.9124 9.49202 21.7954 9.37702L21.7504 9.331C21.5064 9.089 21.1124 9.09001 20.8694 9.33301L18.6144 11.598L18.6124 10.162L23.6864 5.07801C23.8584 4.90601 23.9544 4.67202 23.9544 4.42802C23.9544 4.18502 23.8574 3.94902 23.6844 3.77802L23.6384 3.73301C23.2814 3.37901 22.7034 3.37902 22.3484 3.73402L18.6044 7.48099L18.6094 5.48801L21.7844 2.29801C22.0294 2.05201 22.0294 1.65201 21.7824 1.40601L21.7504 1.37501C21.5044 1.13001 21.1054 1.13001 20.8594 1.37501L18.6024 3.633L18.5994 1.047C18.5994 0.768004 18.4894 0.503007 18.2914 0.306007C18.0944 0.110007 17.8274 -0.000993241 17.5494 6.75897e-06H17.5324H17.5084C17.2304 -0.000993241 16.9624 0.109007 16.7654 0.306007C16.5684 0.504007 16.4574 0.771018 16.4574 1.04902L16.4614 3.63801L14.2004 1.37601C14.0824 1.26001 13.9224 1.193 13.7564 1.193C13.5904 1.194 13.4304 1.26 13.3134 1.379L13.3044 1.387C13.0434 1.65 13.0444 2.07402 13.3054 2.33402L16.4614 5.486L16.4654 7.486L12.7664 3.79099C12.5814 3.60699 12.3314 3.50501 12.0734 3.50501C11.8134 3.50601 11.5634 3.609 11.3794 3.792L11.3454 3.826C11.0084 4.165 11.0084 4.71401 11.3474 5.05201L16.4684 10.164V11.601L14.2424 9.378C14.1144 9.251 13.9424 9.18201 13.7624 9.18201C13.5824 9.18201 13.4114 9.25402 13.2844 9.38102L13.2774 9.391C13.0344 9.634 13.0354 10.028 13.2794 10.27L16.4704 13.456L16.4754 15.01L15.2074 13.743C14.9784 13.513 14.6224 13.468 14.3414 13.632V13.631L14.3194 13.643C14.0514 13.799 13.9214 14.115 14.0014 14.414L14.4764 16.166L13.1244 15.391L11.9564 11.048C11.9124 10.885 11.8074 10.746 11.6614 10.663C11.5164 10.578 11.3434 10.556 11.1814 10.6L11.1424 10.611C10.8044 10.702 10.6054 11.049 10.6954 11.386L11.5214 14.467L10.2784 13.747L8.41641 6.84202C8.35041 6.59902 8.19141 6.39102 7.97241 6.26502C7.75441 6.14002 7.49541 6.107 7.25241 6.172L7.23641 6.176C6.74141 6.311 6.44941 6.81802 6.58141 7.31202L7.95041 12.407L6.22341 11.411L5.05141 7.068C5.00841 6.905 4.90241 6.767 4.75641 6.684C4.61141 6.6 4.43741 6.57801 4.27641 6.62101L4.23641 6.632C3.89941 6.724 3.70041 7.07002 3.78941 7.40702L4.61541 10.486L2.37441 9.197C2.13341 9.059 1.84741 9.022 1.57941 9.094C1.31141 9.165 1.08141 9.34201 0.944408 9.58301L0.935407 9.60001L0.999408 9.637L0.998407 9.63901L0.935407 9.602L0.890407 9.67899C0.759407 9.90599 0.724407 10.175 0.792407 10.428C0.861407 10.681 1.02641 10.895 1.25241 11.025L3.54941 12.346L0.470407 13.173C0.308407 13.215 0.169408 13.322 0.0854084 13.468C0.00140835 13.614 -0.0205925 13.787 0.0244075 13.948L0.0344078 13.989C0.125408 14.326 0.472407 14.526 0.810407 14.435L5.15641 13.269L6.88641 14.267L1.79241 15.636C1.55341 15.699 1.35041 15.856 1.22741 16.071C1.10441 16.285 1.07141 16.54 1.13541 16.778L1.14041 16.799C1.27741 17.3 1.79341 17.599 2.29641 17.463L9.20241 15.606L10.4484 16.321L7.37441 17.149C7.21241 17.193 7.07441 17.3 6.99141 17.446C6.90741 17.592 6.88441 17.764 6.92841 17.926L6.94041 17.969C7.03141 18.306 7.37741 18.506 7.71541 18.414L12.0574 17.246L13.4024 18.02L11.6734 18.489C11.3634 18.574 11.1464 18.855 11.1464 19.179L11.2194 19.178V19.179V19.191H11.1354C11.1334 19.512 11.3484 19.793 11.6584 19.876L13.3984 20.346L12.0504 21.121L7.70341 19.964C7.36741 19.874 7.01941 20.074 6.92941 20.412L6.91841 20.453C6.82741 20.79 7.03041 21.139 7.36741 21.227L10.4474 22.049L9.20541 22.767L2.23641 20.908C1.76241 20.781 1.27641 21.063 1.15041 21.537C1.07941 21.798 1.11741 22.072 1.25041 22.306C1.38541 22.537 1.60641 22.705 1.86541 22.775L6.87841 24.113L5.15841 25.109L0.807407 23.954C0.470407 23.863 0.123408 24.064 0.0344078 24.402L0.0214073 24.445C-0.0215927 24.606 0.000408351 24.78 0.0854084 24.926C0.169408 25.071 0.307407 25.177 0.470407 25.22L3.55141 26.039L1.27941 27.352C0.795407 27.631 0.629408 28.248 0.909408 28.732L0.941407 28.788L1.00441 28.751V28.753L0.942407 28.788L0.970407 28.838C1.10441 29.07 1.32541 29.24 1.58441 29.31C1.84541 29.379 2.12041 29.342 2.35341 29.207L4.62641 27.891L3.80641 30.976C3.76341 31.138 3.78641 31.31 3.87041 31.455C3.95541 31.601 4.09541 31.706 4.25741 31.749L4.29641 31.761C4.63341 31.849 4.97941 31.648 5.06941 31.312L6.23041 26.963L7.95541 25.968L6.58441 31.109C6.52441 31.337 6.55641 31.578 6.67441 31.781C6.79141 31.986 6.98641 32.135 7.21341 32.194L7.32841 32.225C7.80241 32.351 8.28741 32.069 8.41341 31.596L10.2784 24.624L11.5174 23.902L10.6974 26.985C10.6074 27.322 10.8084 27.671 11.1464 27.759C11.5064 27.855 11.8744 27.642 11.9714 27.282L13.1234 22.974L14.4694 22.197L13.9984 23.96C13.9194 24.255 14.0484 24.566 14.3144 24.72L14.3414 24.736L14.3774 24.673L14.3414 24.736C14.6214 24.896 14.9744 24.85 15.2024 24.621L16.4674 23.355L16.4704 24.903L13.2864 28.097C13.1704 28.214 13.1054 28.372 13.1054 28.538C13.1054 28.703 13.1714 28.861 13.2894 28.977L13.3334 29.023C13.5774 29.266 13.9724 29.264 14.2144 29.021L16.4704 26.756L16.4724 28.192L11.3994 33.274C11.2274 33.446 11.1314 33.681 11.1314 33.925C11.1314 34.168 11.2284 34.403 11.4024 34.574L11.4474 34.619C11.8034 34.974 12.3804 34.974 12.7374 34.618L16.4794 30.872L16.4754 32.864L13.3004 36.055C13.0554 36.301 13.0564 36.701 13.3024 36.946L13.3354 36.977C13.5804 37.223 13.9804 37.223 14.2264 36.977L16.4824 34.72L16.4834 37.307C16.4834 37.585 16.5944 37.851 16.7904 38.047C16.9894 38.243 17.2554 38.354 17.5344 38.352H17.5524V38.282H17.5534V38.354H17.5734C17.8524 38.355 18.1204 38.246 18.3184 38.048C18.5164 37.852 18.6274 37.585 18.6274 37.305L18.6224 34.718L20.8854 36.977C21.0024 37.096 21.1614 37.161 21.3284 37.161C21.4944 37.161 21.6544 37.096 21.7714 36.977L21.7814 36.969C22.0414 36.705 22.0414 36.281 21.7804 36.021L18.6234 32.869L18.6194 30.869L22.3204 34.564C22.5044 34.748 22.7534 34.851 23.0134 34.851C23.2734 34.851 23.5224 34.746 23.7054 34.563L23.7404 34.529C24.0774 34.19 24.0774 33.641 23.7394 33.304L18.6174 28.189V26.754L20.8444 28.978C20.9714 29.103 21.1434 29.174 21.3224 29.174C21.5014 29.174 21.6734 29.102 21.7994 28.975L21.8094 28.965C22.0514 28.722 22.0504 28.327 21.8074 28.085L18.6154 24.898L18.6094 23.346L19.8774 24.612C20.1074 24.841 20.4624 24.886 20.7424 24.722L20.7064 24.659L20.7084 24.658L20.7444 24.721L20.7664 24.708C21.0344 24.553 21.1644 24.235 21.0834 23.937L20.6094 22.186L21.9604 22.961L23.1274 27.307C23.2184 27.643 23.5654 27.844 23.9034 27.753L23.9424 27.742C24.1044 27.699 24.2424 27.593 24.3264 27.447C24.4104 27.301 24.4334 27.13 24.3904 26.967L23.5644 23.886L24.8094 24.605L26.6674 31.513C26.8044 32.02 27.3254 32.319 27.8304 32.184L27.8494 32.178C28.3434 32.045 28.6364 31.536 28.5034 31.042L27.1354 25.945L28.8634 26.941L30.0334 31.286C30.1234 31.622 30.4704 31.823 30.8084 31.732L30.8494 31.721C31.1874 31.63 31.3874 31.283 31.2964 30.945L30.4714 27.868L32.7124 29.157C32.9524 29.296 33.2394 29.333 33.5074 29.261C33.7764 29.187 34.0044 29.012 34.1434 28.77L34.1524 28.755L34.0874 28.717L34.1504 28.754L34.1944 28.677C34.3254 28.449 34.3604 28.181 34.2924 27.928C34.2244 27.675 34.0584 27.461 33.8314 27.33L31.5344 26.01L34.6154 25.183C34.7784 25.141 34.9164 25.033 35.0004 24.888C35.0834 24.742 35.1064 24.568 35.0624 24.406L35.0514 24.365C34.9594 24.029 34.6134 23.83 34.2764 23.921L29.9284 25.088L28.1984 24.089L33.2924 22.72C33.5324 22.656 33.7354 22.5 33.8584 22.284C33.9824 22.071 34.0144 21.816 33.9504 21.577L33.9444 21.556C33.8084 21.055 33.2914 20.756 32.7884 20.892L25.8804 22.749L24.6374 22.033L27.7104 21.203C27.8724 21.159 28.0104 21.055 28.0954 20.907C28.1784 20.761 28.2004 20.59 28.1574 20.427L28.1464 20.386C28.0544 20.049 27.7064 19.849 27.3694 19.94L23.0284 21.108L21.6824 20.335L23.4124 19.865C23.7234 19.78 23.9394 19.5 23.9394 19.177H23.8664V19.161H23.9504C23.9514 18.842 23.7374 18.559 23.4274 18.476L21.6874 18.007L23.0344 17.231L27.3814 18.39C27.7194 18.479 28.0654 18.278 28.1564 17.941L28.1664 17.9C28.2094 17.737 28.1874 17.565 28.1034 17.42C28.0184 17.274 27.8804 17.169 27.7184 17.125L24.6374 16.304L25.8794 15.585L32.8504 17.445C33.0774 17.506 33.3204 17.473 33.5234 17.356C33.7264 17.237 33.8754 17.043 33.9364 16.816C34.0794 16.276 33.7594 15.721 33.2194 15.578L28.2054 14.24L29.9284 13.244L34.2784 14.401ZM14.5554 19.671L12.7394 19.19H12.6414L12.6564 19.175H12.7564L14.5624 18.689L15.4044 19.178L15.5244 19.177L15.5144 19.185H15.3934L15.3984 19.189L14.5554 19.671ZM16.4664 21.044L16.4654 22.013L15.1414 23.336L15.0024 23.577L15.0004 23.578L15.1404 23.336L15.6264 21.525L16.4664 21.041L16.5394 20.916H16.5404L16.4664 21.044ZM16.5504 17.443L16.4764 17.313L15.6314 16.83L15.1504 15.024L15.1444 15.014L16.4734 16.342L16.4794 17.314L16.4774 17.313L16.5504 17.443ZM18.5454 17.436L18.6174 17.312L18.6184 16.342L19.9444 15.019L20.0794 14.782L20.0804 14.78L19.9454 15.019L19.4584 16.828L18.6174 17.312L18.5454 17.436ZM19.9484 23.349L19.9354 23.328L19.9404 23.339L18.6104 22.01L18.6074 21.037L18.6094 21.039L18.5354 20.91L18.5384 20.912L18.6094 21.035L19.4534 21.519L19.9364 23.325L19.9504 23.348H19.9484V23.349ZM22.3464 19.161H22.4464L22.4294 19.18H22.3274L20.5224 19.665L19.6804 19.178H19.5594L19.5724 19.169H19.6924L19.6874 19.164L20.5304 18.683L22.3464 19.161Z" fill="#D6D6D6"/>
</svg>
