<svg width="165" height="31" viewBox="0 0 165 31" fill="none" xmlns="http://www.w3.org/2000/svg">
<path d="M0.121915 0.273321L112.453 0.199191L113.598 0.910623L115.227 1.65695L117.601 2.2475L120.259 2.43934L122.959 2.215L125.922 1.80002L127.072 1.25425L128.222 0.708479L130.964 0.0679798L164.08 0.0461476L164.039 29.7948L0.0802107 30.022L0.121915 0.273321Z" fill="url(#paint0_linear_246_43)"/>
<mask id="mask0_246_43" style="mask-type:alpha" maskUnits="userSpaceOnUse" x="0" y="0" width="164" height="31">
<path d="M0.433926 0.272954L112.484 0.198979L113.627 0.910412L115.251 1.65674L117.62 2.2473L120.271 2.43913L122.964 2.2148L125.919 1.79983L128.214 0.708289L130.949 0.0677927L163.982 0.0460062L163.941 29.7946L0.392285 30.0216L0.433926 0.272954Z" fill="url(#paint1_linear_246_43)"/>
</mask>
<g mask="url(#mask0_246_43)">
<g filter="url(#filter0_f_246_43)">
<ellipse rx="8.41536" ry="19.757" transform="matrix(0.783952 0.618634 -0.728362 0.68722 130.148 -11.3081)" fill="#542800"/>
</g>
<g filter="url(#filter1_f_246_43)">
<ellipse rx="8.41536" ry="19.757" transform="matrix(0.783952 0.618634 -0.728362 0.68722 123.065 -8.46714)" fill="#C96101" fill-opacity="0.5"/>
</g>
</g>
<path d="M31.4473 16.9026C32.8567 16.9026 33.9673 17.318 34.7793 18.1486C35.5913 18.9793 35.9973 20.174 35.9973 21.7326C35.9973 22.8526 35.778 23.8186 35.3393 24.6306C34.91 25.4333 34.2987 26.0446 33.5053 26.4646C32.7213 26.8846 31.8113 27.0946 30.7753 27.0946C30.2247 27.0946 29.6973 27.0293 29.1933 26.8986C28.6893 26.7773 28.26 26.6046 27.9053 26.3806L28.9133 24.3926C29.3893 24.7286 29.9913 24.8966 30.7193 24.8966C31.4193 24.8966 31.984 24.7053 32.4133 24.3226C32.852 23.9306 33.1087 23.366 33.1833 22.6286C32.6233 23.1046 31.8907 23.3426 30.9853 23.3426C30.3693 23.3426 29.8047 23.2166 29.2913 22.9646C28.778 22.7033 28.3673 22.3393 28.0593 21.8726C27.7607 21.3966 27.6113 20.8553 27.6113 20.2486C27.6113 19.586 27.7793 19.0026 28.1153 18.4986C28.4607 17.9853 28.9227 17.5933 29.5013 17.3226C30.0893 17.0426 30.738 16.9026 31.4473 16.9026ZM31.6433 21.3546C32.0447 21.3546 32.3713 21.2426 32.6233 21.0186C32.8753 20.7853 33.0013 20.482 33.0013 20.1086C33.0013 19.7446 32.8753 19.4506 32.6233 19.2266C32.3807 18.9933 32.0493 18.8766 31.6293 18.8766C31.2373 18.8766 30.9153 18.9886 30.6633 19.2126C30.4207 19.4366 30.2993 19.74 30.2993 20.1226C30.2993 20.496 30.4207 20.7946 30.6633 21.0186C30.9153 21.2426 31.242 21.3546 31.6433 21.3546ZM41.2811 27.0946C40.4411 27.0946 39.6945 26.894 39.0411 26.4926C38.3878 26.0913 37.8745 25.508 37.5011 24.7426C37.1371 23.968 36.9551 23.0533 36.9551 21.9986C36.9551 20.944 37.1371 20.034 37.5011 19.2686C37.8745 18.494 38.3878 17.906 39.0411 17.5046C39.6945 17.1033 40.4411 16.9026 41.2811 16.9026C42.1118 16.9026 42.8538 17.1033 43.5071 17.5046C44.1605 17.906 44.6691 18.494 45.0331 19.2686C45.4065 20.034 45.5931 20.944 45.5931 21.9986C45.5931 23.0533 45.4065 23.968 45.0331 24.7426C44.6691 25.508 44.1605 26.0913 43.5071 26.4926C42.8538 26.894 42.1118 27.0946 41.2811 27.0946ZM41.2811 24.8266C41.7478 24.8266 42.1165 24.6026 42.3871 24.1546C42.6671 23.6973 42.8071 22.9786 42.8071 21.9986C42.8071 21.0186 42.6671 20.3046 42.3871 19.8566C42.1165 19.3993 41.7478 19.1706 41.2811 19.1706C40.8051 19.1706 40.4271 19.3993 40.1471 19.8566C39.8765 20.3046 39.7411 21.0186 39.7411 21.9986C39.7411 22.9786 39.8765 23.6973 40.1471 24.1546C40.4271 24.6026 40.8051 24.8266 41.2811 24.8266ZM50.8651 27.0946C50.0251 27.0946 49.2785 26.894 48.6251 26.4926C47.9718 26.0913 47.4585 25.508 47.0851 24.7426C46.7211 23.968 46.5391 23.0533 46.5391 21.9986C46.5391 20.944 46.7211 20.034 47.0851 19.2686C47.4585 18.494 47.9718 17.906 48.6251 17.5046C49.2785 17.1033 50.0251 16.9026 50.8651 16.9026C51.6958 16.9026 52.4378 17.1033 53.0911 17.5046C53.7445 17.906 54.2531 18.494 54.6171 19.2686C54.9905 20.034 55.1771 20.944 55.1771 21.9986C55.1771 23.0533 54.9905 23.968 54.6171 24.7426C54.2531 25.508 53.7445 26.0913 53.0911 26.4926C52.4378 26.894 51.6958 27.0946 50.8651 27.0946ZM50.8651 24.8266C51.3318 24.8266 51.7005 24.6026 51.9711 24.1546C52.2511 23.6973 52.3911 22.9786 52.3911 21.9986C52.3911 21.0186 52.2511 20.3046 51.9711 19.8566C51.7005 19.3993 51.3318 19.1706 50.8651 19.1706C50.3891 19.1706 50.0111 19.3993 49.7311 19.8566C49.4605 20.3046 49.3251 21.0186 49.3251 21.9986C49.3251 22.9786 49.4605 23.6973 49.7311 24.1546C50.0111 24.6026 50.3891 24.8266 50.8651 24.8266ZM64.5233 27.0946C63.6833 27.0946 62.9367 26.894 62.2833 26.4926C61.63 26.0913 61.1167 25.508 60.7433 24.7426C60.3793 23.968 60.1973 23.0533 60.1973 21.9986C60.1973 20.944 60.3793 20.034 60.7433 19.2686C61.1167 18.494 61.63 17.906 62.2833 17.5046C62.9367 17.1033 63.6833 16.9026 64.5233 16.9026C65.354 16.9026 66.096 17.1033 66.7493 17.5046C67.4027 17.906 67.9113 18.494 68.2753 19.2686C68.6487 20.034 68.8353 20.944 68.8353 21.9986C68.8353 23.0533 68.6487 23.968 68.2753 24.7426C67.9113 25.508 67.4027 26.0913 66.7493 26.4926C66.096 26.894 65.354 27.0946 64.5233 27.0946ZM64.5233 24.8266C64.99 24.8266 65.3587 24.6026 65.6293 24.1546C65.9093 23.6973 66.0493 22.9786 66.0493 21.9986C66.0493 21.0186 65.9093 20.3046 65.6293 19.8566C65.3587 19.3993 64.99 19.1706 64.5233 19.1706C64.0473 19.1706 63.6693 19.3993 63.3893 19.8566C63.1187 20.3046 62.9833 21.0186 62.9833 21.9986C62.9833 22.9786 63.1187 23.6973 63.3893 24.1546C63.6693 24.6026 64.0473 24.8266 64.5233 24.8266ZM74.1073 27.0946C73.2673 27.0946 72.5206 26.894 71.8673 26.4926C71.214 26.0913 70.7006 25.508 70.3273 24.7426C69.9633 23.968 69.7813 23.0533 69.7813 21.9986C69.7813 20.944 69.9633 20.034 70.3273 19.2686C70.7006 18.494 71.214 17.906 71.8673 17.5046C72.5206 17.1033 73.2673 16.9026 74.1073 16.9026C74.938 16.9026 75.68 17.1033 76.3333 17.5046C76.9866 17.906 77.4953 18.494 77.8593 19.2686C78.2326 20.034 78.4193 20.944 78.4193 21.9986C78.4193 23.0533 78.2326 23.968 77.8593 24.7426C77.4953 25.508 76.9866 26.0913 76.3333 26.4926C75.68 26.894 74.938 27.0946 74.1073 27.0946ZM74.1073 24.8266C74.574 24.8266 74.9426 24.6026 75.2133 24.1546C75.4933 23.6973 75.6333 22.9786 75.6333 21.9986C75.6333 21.0186 75.4933 20.3046 75.2133 19.8566C74.9426 19.3993 74.574 19.1706 74.1073 19.1706C73.6313 19.1706 73.2533 19.3993 72.9733 19.8566C72.7026 20.3046 72.5673 21.0186 72.5673 21.9986C72.5673 22.9786 72.7026 23.6973 72.9733 24.1546C73.2533 24.6026 73.6313 24.8266 74.1073 24.8266ZM83.6913 27.0946C82.8513 27.0946 82.1046 26.894 81.4513 26.4926C80.798 26.0913 80.2846 25.508 79.9113 24.7426C79.5473 23.968 79.3653 23.0533 79.3653 21.9986C79.3653 20.944 79.5473 20.034 79.9113 19.2686C80.2846 18.494 80.798 17.906 81.4513 17.5046C82.1046 17.1033 82.8513 16.9026 83.6913 16.9026C84.522 16.9026 85.264 17.1033 85.9173 17.5046C86.5706 17.906 87.0793 18.494 87.4433 19.2686C87.8166 20.034 88.0033 20.944 88.0033 21.9986C88.0033 23.0533 87.8166 23.968 87.4433 24.7426C87.0793 25.508 86.5706 26.0913 85.9173 26.4926C85.264 26.894 84.522 27.0946 83.6913 27.0946ZM83.6913 24.8266C84.158 24.8266 84.5266 24.6026 84.7973 24.1546C85.0773 23.6973 85.2173 22.9786 85.2173 21.9986C85.2173 21.0186 85.0773 20.3046 84.7973 19.8566C84.5266 19.3993 84.158 19.1706 83.6913 19.1706C83.2153 19.1706 82.8373 19.3993 82.5573 19.8566C82.2866 20.3046 82.1513 21.0186 82.1513 21.9986C82.1513 22.9786 82.2866 23.6973 82.5573 24.1546C82.8373 24.6026 83.2153 24.8266 83.6913 24.8266ZM97.3495 27.0946C96.5095 27.0946 95.7628 26.894 95.1095 26.4926C94.4562 26.0913 93.9428 25.508 93.5695 24.7426C93.2055 23.968 93.0235 23.0533 93.0235 21.9986C93.0235 20.944 93.2055 20.034 93.5695 19.2686C93.9428 18.494 94.4562 17.906 95.1095 17.5046C95.7628 17.1033 96.5095 16.9026 97.3495 16.9026C98.1802 16.9026 98.9222 17.1033 99.5755 17.5046C100.229 17.906 100.737 18.494 101.101 19.2686C101.475 20.034 101.661 20.944 101.661 21.9986C101.661 23.0533 101.475 23.968 101.101 24.7426C100.737 25.508 100.229 26.0913 99.5755 26.4926C98.9222 26.894 98.1802 27.0946 97.3495 27.0946ZM97.3495 24.8266C97.8162 24.8266 98.1848 24.6026 98.4555 24.1546C98.7355 23.6973 98.8755 22.9786 98.8755 21.9986C98.8755 21.0186 98.7355 20.3046 98.4555 19.8566C98.1848 19.3993 97.8162 19.1706 97.3495 19.1706C96.8735 19.1706 96.4955 19.3993 96.2155 19.8566C95.9448 20.3046 95.8095 21.0186 95.8095 21.9986C95.8095 22.9786 95.9448 23.6973 96.2155 24.1546C96.4955 24.6026 96.8735 24.8266 97.3495 24.8266ZM106.933 27.0946C106.093 27.0946 105.347 26.894 104.693 26.4926C104.04 26.0913 103.527 25.508 103.153 24.7426C102.789 23.968 102.607 23.0533 102.607 21.9986C102.607 20.944 102.789 20.034 103.153 19.2686C103.527 18.494 104.04 17.906 104.693 17.5046C105.347 17.1033 106.093 16.9026 106.933 16.9026C107.764 16.9026 108.506 17.1033 109.159 17.5046C109.813 17.906 110.321 18.494 110.685 19.2686C111.059 20.034 111.245 20.944 111.245 21.9986C111.245 23.0533 111.059 23.968 110.685 24.7426C110.321 25.508 109.813 26.0913 109.159 26.4926C108.506 26.894 107.764 27.0946 106.933 27.0946ZM106.933 24.8266C107.4 24.8266 107.769 24.6026 108.039 24.1546C108.319 23.6973 108.459 22.9786 108.459 21.9986C108.459 21.0186 108.319 20.3046 108.039 19.8566C107.769 19.3993 107.4 19.1706 106.933 19.1706C106.457 19.1706 106.079 19.3993 105.799 19.8566C105.529 20.3046 105.393 21.0186 105.393 21.9986C105.393 22.9786 105.529 23.6973 105.799 24.1546C106.079 24.6026 106.457 24.8266 106.933 24.8266ZM116.517 27.0946C115.677 27.0946 114.931 26.894 114.277 26.4926C113.624 26.0913 113.111 25.508 112.737 24.7426C112.373 23.968 112.191 23.0533 112.191 21.9986C112.191 20.944 112.373 20.034 112.737 19.2686C113.111 18.494 113.624 17.906 114.277 17.5046C114.931 17.1033 115.677 16.9026 116.517 16.9026C117.348 16.9026 118.09 17.1033 118.743 17.5046C119.397 17.906 119.905 18.494 120.269 19.2686C120.643 20.034 120.829 20.944 120.829 21.9986C120.829 23.0533 120.643 23.968 120.269 24.7426C119.905 25.508 119.397 26.0913 118.743 26.4926C118.09 26.894 117.348 27.0946 116.517 27.0946ZM116.517 24.8266C116.984 24.8266 117.353 24.6026 117.623 24.1546C117.903 23.6973 118.043 22.9786 118.043 21.9986C118.043 21.0186 117.903 20.3046 117.623 19.8566C117.353 19.3993 116.984 19.1706 116.517 19.1706C116.041 19.1706 115.663 19.3993 115.383 19.8566C115.113 20.3046 114.977 21.0186 114.977 21.9986C114.977 22.9786 115.113 23.6973 115.383 24.1546C115.663 24.6026 116.041 24.8266 116.517 24.8266ZM129.882 23.7346V24.4766H132.864V25.8346H129.882V26.8986H127.096V25.8346H125.794V24.4766H127.096V17.0986H131.576C132.948 17.0986 134.016 17.3786 134.782 17.9386C135.547 18.4986 135.93 19.3246 135.93 20.4166C135.93 21.5086 135.547 22.3346 134.782 22.8946C134.016 23.4546 132.948 23.7346 131.576 23.7346H129.882ZM133.13 20.4446C133.13 20.0713 132.99 19.7866 132.71 19.5906C132.439 19.3853 132.052 19.2826 131.548 19.2826H129.882V21.6206H131.548C132.052 21.6206 132.439 21.518 132.71 21.3126C132.99 21.1073 133.13 20.818 133.13 20.4446Z" fill="black"/>
<path d="M57.6281 10.5725V14.1485H55.4561V12.4565H50.0801V14.1485H47.8961V10.5725H48.1961C48.6921 10.5645 49.0401 10.2245 49.2401 9.55247C49.4481 8.88047 49.5761 7.91247 49.6241 6.64847L49.7201 4.05647H56.4881V10.5725H57.6281ZM51.7001 6.85247C51.6681 7.74847 51.5961 8.50847 51.4841 9.13247C51.3721 9.75647 51.2001 10.2365 50.9681 10.5725H54.1481V5.94047H51.7361L51.7001 6.85247ZM66.6842 9.24047H65.6882V12.4565H63.3602V9.24047H62.3642L60.7202 12.4565H57.9722L60.3602 8.05247L58.1162 4.05647H60.6122L62.2922 7.32047H63.3602V4.05647L65.6882 4.05647V7.32047H66.7082L68.4242 4.05647H70.9082L68.6642 8.05247L71.0522 12.4565H68.3162L66.6842 9.24047ZM78.5629 10.6205V12.4565H71.8189V4.05647H78.4069V5.89247H74.1709V7.30847H77.9029V9.08447H74.1709V10.6205H78.5629ZM83.3126 9.24047H82.2326V12.4565H79.8686V4.05647H82.2326V7.32047H83.3726L85.3766 4.05647H87.8726L85.2446 8.11247L87.8966 12.4565H85.2206L83.3126 9.24047ZM96.5428 4.05647V12.4565H94.1908V5.94047H90.9988V12.4565H88.6588V4.05647H96.5428ZM102.466 12.6245C101.578 12.6245 100.778 12.4365 100.066 12.0605C99.3625 11.6845 98.8065 11.1645 98.3985 10.5005C97.9985 9.83647 97.7985 9.08847 97.7985 8.25647C97.7985 7.42447 97.9985 6.67647 98.3985 6.01247C98.8065 5.34847 99.3625 4.82847 100.066 4.45247C100.778 4.07647 101.578 3.88847 102.466 3.88847C103.354 3.88847 104.15 4.07647 104.854 4.45247C105.566 4.82847 106.122 5.34847 106.522 6.01247C106.93 6.67647 107.134 7.42447 107.134 8.25647C107.134 9.08847 106.93 9.83647 106.522 10.5005C106.122 11.1645 105.566 11.6845 104.854 12.0605C104.15 12.4365 103.354 12.6245 102.466 12.6245ZM102.466 10.6565C102.89 10.6565 103.274 10.5565 103.618 10.3565C103.962 10.1565 104.234 9.87647 104.434 9.51647C104.634 9.14847 104.734 8.72847 104.734 8.25647C104.734 7.78447 104.634 7.36847 104.434 7.00847C104.234 6.64047 103.962 6.35647 103.618 6.15647C103.274 5.95647 102.89 5.85647 102.466 5.85647C102.042 5.85647 101.658 5.95647 101.314 6.15647C100.97 6.35647 100.698 6.64047 100.498 7.00847C100.298 7.36847 100.198 7.78447 100.198 8.25647C100.198 8.72847 100.298 9.14847 100.498 9.51647C100.698 9.87647 100.97 10.1565 101.314 10.3565C101.658 10.5565 102.042 10.6565 102.466 10.6565ZM115.056 5.94047H112.488V12.4565H110.148V5.94047H107.568V4.05647L115.056 4.05647V5.94047Z" fill="black"/>
<defs>
<filter id="filter0_f_246_43" x="104.314" y="-35.8534" width="51.6686" height="49.0904" filterUnits="userSpaceOnUse" color-interpolation-filters="sRGB">
<feFlood flood-opacity="0" result="BackgroundImageFix"/>
<feBlend mode="normal" in="SourceGraphic" in2="BackgroundImageFix" result="shape"/>
<feGaussianBlur stdDeviation="5" result="effect1_foregroundBlur_246_43"/>
</filter>
<filter id="filter1_f_246_43" x="95.2308" y="-35.0124" width="55.6686" height="53.0904" filterUnits="userSpaceOnUse" color-interpolation-filters="sRGB">
<feFlood flood-opacity="0" result="BackgroundImageFix"/>
<feBlend mode="normal" in="SourceGraphic" in2="BackgroundImageFix" result="shape"/>
<feGaussianBlur stdDeviation="6" result="effect1_foregroundBlur_246_43"/>
</filter>
<linearGradient id="paint0_linear_246_43" x1="-3.31736" y1="35.649" x2="125.015" y2="-5.84672" gradientUnits="userSpaceOnUse">
<stop offset="0.015625" stop-color="#FFA800"/>
<stop offset="0.130208" stop-color="#FFCC00"/>
<stop offset="0.520833" stop-color="#FFDD00"/>
<stop offset="0.875" stop-color="#FFCF00"/>
<stop offset="1" stop-color="#FFB800"/>
</linearGradient>
<linearGradient id="paint1_linear_246_43" x1="10.5244" y1="28.0882" x2="146.168" y2="1.41199" gradientUnits="userSpaceOnUse">
<stop offset="0.015625" stop-color="#FFA800"/>
<stop offset="0.130208" stop-color="#FFCC00"/>
<stop offset="0.520833" stop-color="#FFDD00"/>
<stop offset="0.875" stop-color="#FFCF00"/>
<stop offset="1" stop-color="#FFB800"/>
</linearGradient>
</defs>
</svg>
